<?xml version="1.0" encoding="utf-8"?>
<!-- Generator: Adobe Illustrator 25.2.1, SVG Export Plug-In . SVG Version: 6.00 Build 0)  -->
<svg version="1.1" xmlns="http://www.w3.org/2000/svg" xmlns:xlink="http://www.w3.org/1999/xlink" x="0px" y="0px"
	 viewBox="0 0 3710 3710" enable-background="new 0 0 3710 3710" xml:space="preserve">
<g id="Background">
</g>
<g id="Illustration">
	<g>
		<linearGradient id="SVGID_1_" gradientUnits="userSpaceOnUse" x1="3451.8511" y1="3559.1548" x2="1564.1035" y2="1549.6176">
			<stop  offset="0" style="stop-color:#DAE3FE"/>
			<stop  offset="1" style="stop-color:#E9EFFD"/>
		</linearGradient>
		<path fill="url(#SVGID_1_)" d="M2883,2753.4c-169.2,178.5-393.8,309.5-663.3,362.3c-620.4,121.7-1459.1-63.8-1647.9-747.9
			c-115.1-416.9-34.5-904.6,201.9-1265.8c259.9-397.1,729-665,1209.2-646.1c469.8,18.5,930.3,388.3,1124.9,799.7
			C3353.3,1774.3,3244.3,2372.3,2883,2753.4z"/>
		<g>
			<g>
				<g opacity="0.3">
					<path fill="#91B3FA" d="M1239.1,745.9c-4.8,2.9-11,1.4-13.9-3.4c-5.6-9.3-11.8-18.5-18.2-27.4c-3.3-4.5-2.3-10.7,2.1-14.1
						c0.1,0,0.1-0.1,0.2-0.1c4.5-3.3,10.9-2.3,14.2,2.2c6.8,9.3,13.2,19,19.1,28.8c2.7,4.5,1.5,10.2-2.5,13.3
						C1239.7,745.5,1239.4,745.8,1239.1,745.9z M1172.7,674.2c-7.6-7.9-15.6-15.5-23.8-22.7c-4.2-3.7-4.6-10.1-0.9-14.3
						c3.7-4.2,10.1-4.6,14.3-0.9c8.6,7.6,17,15.6,25,23.9c3.9,4,3.8,10.5-0.3,14.3c-0.3,0.3-0.6,0.5-0.9,0.8
						C1182,678.3,1176.3,678,1172.7,674.2z M1106.4,619.2c-9.1-6-18.6-11.6-28.2-16.8c-4.9-2.7-6.8-8.8-4.1-13.7
						c2.7-4.9,8.8-6.8,13.7-4.1c10.1,5.5,20.1,11.4,29.7,17.7c4.7,3.1,6,9.4,2.9,14c-0.7,1-1.5,1.8-2.4,2.5
						C1114.8,621.3,1110.1,621.6,1106.4,619.2z M1029.6,580.4c-10.2-3.8-20.8-7.2-31.3-10.1c-5.4-1.5-8.6-7.1-7.1-12.5
						c1.5-5.4,7.1-8.6,12.5-7.1c11.1,3.1,22.1,6.6,32.9,10.6c5.3,1.9,7.9,7.8,6,13c-0.7,1.9-1.9,3.4-3.4,4.6
						C1036.6,581,1033,581.7,1029.6,580.4z M946,559.7c-10.8-1.4-21.8-2.4-32.7-2.9c-5.6-0.3-9.9-5-9.7-10.6c0.3-5.6,5-9.9,10.6-9.7
						c11.5,0.5,23.1,1.6,34.4,3.1c5.6,0.7,9.5,5.8,8.7,11.4c-0.4,2.8-1.8,5.2-3.9,6.8C951.4,559.3,948.8,560.1,946,559.7z
						 M859.9,558c-10.9,1-21.8,2.5-32.6,4.4c-5.5,1-10.8-2.7-11.8-8.2c-1-5.5,2.7-10.8,8.2-11.8c11.3-2,22.8-3.6,34.3-4.6
						c5.6-0.5,10.5,3.6,11,9.2c0.3,3.6-1.3,7-4,9C863.6,557.1,861.9,557.8,859.9,558z M543.2,762c-4.9-2.7-6.8-8.8-4.1-13.8
						c5.5-10.1,11.4-20.1,17.8-29.7c3.1-4.7,9.4-6,14.1-2.9c4.7,3.1,6,9.4,2.9,14c-6,9.1-11.7,18.6-16.9,28.2
						c-0.7,1.3-1.7,2.4-2.8,3.3C551.1,763.5,546.8,763.9,543.2,762z M775.6,575.4c-10.4,3.4-20.7,7.3-30.7,11.5
						c-5.2,2.2-11.1-0.2-13.3-5.4c-2.2-5.2,0.2-11.1,5.4-13.3c10.6-4.5,21.5-8.6,32.4-12.1c5.3-1.7,11.1,1.2,12.8,6.5
						c1.4,4.2-0.2,8.7-3.5,11.2C777.7,574.5,776.7,575,775.6,575.4z M591.9,688.2c-4.2-3.7-4.6-10.1-0.9-14.3
						c7.6-8.6,15.6-17,23.9-25c4-3.9,10.5-3.7,14.3,0.3c3.9,4,3.7,10.5-0.3,14.3c-7.9,7.6-15.5,15.5-22.8,23.7c-0.5,0.5-1,1-1.5,1.4
						C601,691.5,595.6,691.4,591.9,688.2z M697.4,611.2c-9.3,5.6-18.6,11.7-27.4,18.1c-4.5,3.3-10.9,2.3-14.2-2.3
						c-3.2-4.5-2.3-10.7,2.1-14c0.1,0,0.1-0.1,0.2-0.1c9.3-6.8,19-13.2,28.8-19.1c4.8-2.9,11-1.3,13.9,3.5
						c2.7,4.5,1.5,10.2-2.6,13.3C698,610.8,697.7,611,697.4,611.2z"/>
					<path fill="#91B3FA" d="M526.1,826.6c1.6-1.2,2.8-2.9,3.5-4.9c1.6-5,3.4-10,5.2-14.9c2-5.3-0.7-11.1-6-13c-5.3-2-11.1,0.7-13,6
						c-1.9,5.2-3.8,10.5-5.5,15.7c-1.7,5.3,1.2,11.1,6.5,12.8C520.1,829.2,523.5,828.5,526.1,826.6z"/>
				</g>
				<g opacity="0.3">
					<path fill="#91B3FA" d="M552.7,1134.7c3.9-3,5.2-8.4,2.8-12.8c-2.5-4.6-4.9-9.4-7.1-14.1c-2.4-5.1-8.5-7.2-13.5-4.7
						c-5.1,2.4-7.2,8.5-4.7,13.5c2.4,5,4.9,10,7.5,14.9c2.6,4.9,8.8,6.8,13.7,4.2C551.8,1135.3,552.3,1135,552.7,1134.7z"/>
					<path fill="#91B3FA" d="M1123.6,1276.2c-4.6,3.2-10.9,2-14.1-2.7c-3.2-4.6-2-10.9,2.7-14.1c8.8-6,17.5-12.5,25.9-19.3
						c4.3-3.5,10.7-2.9,14.3,1.5s2.9,10.7-1.5,14.3c-3.7,3-7.3,5.9-11.1,8.7C1134.5,1268.5,1129,1272.5,1123.6,1276.2z M1177,1218.6
						c-4.1-3.8-4.3-10.3-0.5-14.3c7.4-7.8,14.5-16.1,21.1-24.5c3.5-4.4,9.9-5.1,14.3-1.7c4.4,3.5,5.1,9.9,1.7,14.2
						c-7,8.9-14.5,17.5-22.2,25.8c-0.4,0.4-0.8,0.8-1.3,1.2C1186.1,1222.3,1180.6,1222.1,1177,1218.6z M1075.9,1304.2
						c-10.1,5-20.6,9.7-31.1,13.9c-5.2,2.1-11.1-0.5-13.2-5.7c-2.1-5.2,0.5-11.1,5.7-13.2c10-4,19.9-8.4,29.5-13.2
						c5-2.5,11.1-0.5,13.6,4.6c2.2,4.4,0.9,9.7-2.9,12.6C1077,1303.5,1076.5,1303.9,1075.9,1304.2z M1230.9,1150.4
						c-4.8-2.8-6.4-9.1-3.6-13.9c5.4-9.3,10.6-18.9,15.2-28.5c2.4-5.1,8.5-7.2,13.5-4.8c5.1,2.4,7.2,8.5,4.8,13.5
						c-4.9,10.2-10.3,20.3-16,30c-0.7,1.2-1.6,2.2-2.6,2.9C1239,1152.1,1234.5,1152.5,1230.9,1150.4z M992.2,1334.8
						c-11,2.7-22.2,4.9-33.4,6.7c-5.5,0.9-10.7-2.9-11.6-8.4c-0.9-5.5,2.9-10.7,8.4-11.6c10.6-1.7,21.3-3.8,31.7-6.4
						c5.4-1.3,10.9,2,12.3,7.4c1,4.1-0.6,8.1-3.7,10.5C994.8,1333.9,993.5,1334.5,992.2,1334.8z M903.8,1346.4
						c-11.3,0.2-22.7,0-34-0.7c-5.6-0.4-9.8-5.2-9.5-10.8c0.4-5.6,5.2-9.8,10.8-9.5c10.7,0.7,21.6,0.9,32.3,0.7
						c5.6-0.1,10.2,4.3,10.3,9.9c0.1,3.4-1.5,6.4-4,8.3C908,1345.6,906,1346.3,903.8,1346.4z M814.9,1338.4c-11.1-2.2-22.2-5-33-8.1
						c-5.4-1.6-8.5-7.2-6.9-12.6c1.6-5.4,7.2-8.5,12.6-6.9c10.3,3,20.9,5.6,31.4,7.7c5.5,1.1,9,6.5,7.9,12c-0.5,2.5-1.9,4.6-3.8,6.1
						C820.8,1338.2,817.9,1339,814.9,1338.4z M730,1311.2c-10.3-4.6-20.6-9.7-30.5-15.2c-4.9-2.7-6.7-8.9-4-13.8
						c2.7-4.9,8.9-6.7,13.8-4c9.4,5.2,19.1,10,28.9,14.4c5.1,2.3,7.4,8.3,5.1,13.4c-0.7,1.6-1.8,2.9-3.1,3.9
						C737.4,1312.2,733.5,1312.7,730,1311.2z M653,1266c-9-6.8-17.9-14-26.4-21.5c-4.2-3.7-4.6-10.1-0.8-14.3
						c3.7-4.2,10.1-4.6,14.3-0.8c8,7.1,16.5,14,25,20.4c4.5,3.4,5.4,9.7,2,14.2c-0.6,0.8-1.3,1.5-2,2
						C661.7,1268.6,656.7,1268.7,653,1266z M587.9,1205c-5.4-6.3-10.7-12.9-15.7-19.5c-1.8-2.4-3.6-4.8-5.4-7.2
						c-3.3-4.5-2.4-10.9,2.3-14.2c4.5-3.3,10.9-2.3,14.2,2.3c1.7,2.3,3.4,4.6,5.1,6.9c4.8,6.3,9.8,12.5,14.9,18.5
						c3.6,4.3,3.2,10.7-1.1,14.3c-0.2,0.1-0.3,0.3-0.5,0.4C597.5,1209.7,591.4,1209.1,587.9,1205z"/>
					<path fill="#91B3FA" d="M1277.8,1070.1c1.6-1.2,2.9-2.9,3.5-5c1.7-5.2,3.3-10.6,4.7-15.9c1.5-5.4-1.7-11-7.1-12.5
						c-5.4-1.5-11,1.7-12.5,7.1c-1.4,5.1-2.9,10.2-4.5,15.1c-1.7,5.3,1.2,11,6.6,12.8C1271.8,1072.7,1275.2,1072,1277.8,1070.1z"/>
				</g>
				<g>
					<path fill="#91B3FA" d="M1198.3,915.4c0.1-2-1.1-3.9-3-4.6l-53.8-20.8c-5.2-26.4-14.6-52.3-28.4-76.3l27.1-50.9
						c1-1.8,0.7-4-0.7-5.5l-47.1-50.7c-1.4-1.5-3.5-1.9-5.4-1.1l-52.7,23.4c-23-15.5-48.1-26.8-74.1-33.9l-16.8-55.2
						c-0.6-1.9-2.3-3.3-4.4-3.4l-69.2-2.5c-2-0.1-3.9,1.1-4.6,3l-20.8,53.8c-26.4,5.2-52.3,14.6-76.3,28.4l-50.9-27.1
						c-1.8-1-4-0.7-5.5,0.7l-50.7,47.1c-1.5,1.4-1.9,3.5-1.1,5.4l23.4,52.7c-15.5,23-26.8,48.1-33.9,74.1l-55.2,16.8
						c-1.9,0.6-3.3,2.3-3.4,4.4l-2.5,69.2c-0.1,2,1.1,3.9,3,4.6l53.8,20.8c5.2,26.4,14.6,52.3,28.4,76.3l-27.1,50.9
						c-1,1.8-0.7,4,0.7,5.5l47.1,50.7c1.4,1.5,3.5,1.9,5.4,1.1l52.7-23.4c23,15.5,48.1,26.8,74.1,33.9l16.8,55.2
						c0.6,1.9,2.3,3.3,4.4,3.4l69.2,2.5c2,0.1,3.9-1.1,4.6-3l20.8-53.8c26.4-5.2,52.3-14.6,76.3-28.4l50.9,27.1c1.8,1,4,0.7,5.5-0.7
						l50.7-47.1c1.5-1.4,1.9-3.5,1.1-5.4l-23.4-52.7c15.5-23,26.8-48.1,33.9-74.1l55.2-16.8c1.9-0.6,3.3-2.3,3.4-4.4L1198.3,915.4z"
						/>
					<g>
						<path fill="#BDD0FB" d="M926.8,999.9c-33.6,18.5-76,6.1-94.5-27.5c-8.9-16.3-11-35.1-5.8-52.9c5.2-17.8,17-32.6,33.3-41.5
							c33.6-18.5,76-6.1,94.5,27.5c16.8,30.6,8.1,68.4-19,88.9C932.7,996.4,929.9,998.3,926.8,999.9z M842.2,924
							c-4,13.7-2.4,28.1,4.4,40.6c14.1,25.8,46.6,35.3,72.4,21.1c25.8-14.1,35.3-46.6,21.1-72.4c-14.1-25.8-46.6-35.3-72.4-21.1
							c-2.3,1.3-4.6,2.7-6.6,4.3C852,903.3,845.4,912.9,842.2,924z"/>
					</g>
					<path fill="#BDD0FB" d="M995,1075.3c4.6-3.5,9.1-7.3,13.5-11.3l0,0c1.4-1.3,2.7-2.6,4-3.9c6.5-6.5,12.5-13.4,17.9-20.8
						c0.1-0.1,0.1-0.2,0.2-0.3c0.2-0.3,0.4-0.6,0.6-0.9c0.4-0.6,0.8-1.1,1.2-1.7c1-1.5,0.9-3.4-0.1-4.8c-0.3-0.3-0.6-0.6-0.9-0.9
						c-1.8-1.3-4.4-0.8-5.6,1c-6.6,9.5-14.3,18.3-22.8,26.2c-42.3,39.3-100.1,51.8-152.2,38.3c-29-7.5-56.2-23.1-78.1-46.6
						c-3.8-4.1-7.4-8.4-10.8-12.8c-22.6-29.8-34.1-66.2-32.7-104c1.6-43.5,20-83.8,51.9-113.4c65.8-61.2,169.1-57.4,230.3,8.4
						c3.8,4.1,7.3,8.3,10.6,12.7c14.4,19,24.5,41,29.4,64.3c0.1,0.6,0.4,1.1,0.7,1.6c0.9,1.2,2.5,1.9,4.1,1.5
						c2.2-0.5,3.6-2.6,3.1-4.8c-5.2-24.5-15.8-47.6-30.9-67.5c-3.5-4.6-7.2-9-11.2-13.3c-64.2-69.1-172.7-73-241.8-8.8
						c-33.5,31.1-52.8,73.4-54.5,119.1c-1.4,39.8,10.7,77.9,34.4,109.2c3.5,4.7,7.3,9.2,11.3,13.5c31.1,33.5,73.4,52.8,119.1,54.5
						C925.5,1111.2,963.7,1099,995,1075.3z"/>
				</g>
			</g>
			<g>
				<g opacity="0.3">
					<path fill="#91B3FA" d="M1677.3,749.5c2.2-1.6,3.1-4.6,2.1-7.2c-1.9-5-3.9-10-6.1-14.8c-1.4-3.2-5.1-4.6-8.3-3.1
						c-3.2,1.4-4.6,5.1-3.1,8.3c2.1,4.6,4,9.4,5.8,14.1c1.2,3.2,4.8,4.9,8.1,3.6C1676.3,750.1,1676.9,749.8,1677.3,749.5z"/>
					<path fill="#91B3FA" d="M1655.6,706.5c-3,1.8-6.8,0.9-8.6-2.1c-4.5-7.5-9.5-14.8-14.8-21.7c-1.1-1.5-2.2-2.9-3.4-4.4
						c-2.1-2.7-1.7-6.7,1-8.8c2.6-1.9,6.7-1.7,8.8,1c1.2,1.5,2.4,3.1,3.6,4.6c5.5,7.3,10.7,15,15.5,22.8c1.7,2.8,1,6.3-1.6,8.2
						C1656,706.3,1655.8,706.4,1655.6,706.5z M1607.6,654.6c-7.5-7.4-15.6-14.5-23.9-20.9c-2.7-2.1-3.2-6-1.1-8.8
						c2.1-2.7,6-3.3,8.8-1.1c8.8,6.8,17.2,14.1,25.1,21.9c2.5,2.4,2.5,6.4,0.1,8.9c-0.2,0.2-0.4,0.4-0.7,0.6
						C1613.4,657,1609.9,656.8,1607.6,654.6z M1557.3,615.8c-9.1-5.4-18.7-10.2-28.4-14.4c-3.2-1.4-4.6-5.1-3.3-8.2
						c1.4-3.2,5.1-4.6,8.2-3.3c10.2,4.4,20.2,9.5,29.8,15.1c3,1.8,4,5.6,2.2,8.6c-0.4,0.7-1,1.3-1.6,1.8
						C1562.3,616.9,1559.6,617.2,1557.3,615.8z M1499,590.6c-10.2-3-20.6-5.3-31-7c-3.4-0.6-5.7-3.8-5.2-7.2
						c0.6-3.4,3.8-5.7,7.2-5.2c10.9,1.8,21.9,4.3,32.5,7.4c3.3,1,5.2,4.5,4.3,7.8c-0.4,1.3-1.2,2.4-2.2,3.2
						C1503,590.8,1501,591.2,1499,590.6z M1436.3,580.4c-10.6-0.4-21.3-0.2-31.8,0.7c-3.4,0.3-6.5-2.3-6.8-5.7
						c-0.3-3.4,2.3-6.5,5.7-6.8c11-0.9,22.2-1.2,33.3-0.8c3.5,0.1,6.2,3,6,6.5c-0.1,2-1,3.7-2.5,4.8
						C1439.2,580,1437.8,580.5,1436.3,580.4z M1373.1,585.7c-10.3,2.2-20.7,5-30.6,8.4c-3.3,1.1-6.8-0.6-8-3.9
						c-1.1-3.3,0.6-6.8,3.9-8c10.5-3.6,21.3-6.6,32.1-8.9c3.4-0.7,6.7,1.5,7.4,4.8c0.5,2.5-0.5,4.9-2.4,6.3
						C1374.8,585.1,1374,585.5,1373.1,585.7z M1313,606.3c-9.5,4.6-18.8,9.9-27.7,15.7c-2.9,1.9-6.8,1.1-8.7-1.8
						c-1.9-2.9-1.1-6.7,1.8-8.7c9.3-6.1,19.1-11.6,29-16.5c3.1-1.5,6.9-0.2,8.4,2.9c1.3,2.7,0.5,6-1.8,7.7
						C1313.8,606,1313.4,606.2,1313,606.3z M1228,663.4c-2.5-2.4-2.7-6.3-0.3-8.9c6.5-7,13.5-13.8,20.8-20.2c1.1-1,2.2-1.9,3.3-2.9
						c2.6-2.3,6.6-1.9,8.8,0.8c2.2,2.6,1.9,6.6-0.8,8.8c-1.1,0.9-2.1,1.8-3.1,2.7c-7,6.1-13.7,12.6-19.9,19.3
						c-0.3,0.3-0.5,0.5-0.8,0.7C1233.7,665.6,1230.3,665.5,1228,663.4z"/>
				</g>
				<g opacity="0.3">
					<path fill="#91B3FA" d="M1586.7,1056.3c-8.8,6.5-18.1,12.5-27.5,17.8c-3,1.7-6.8,0.6-8.5-2.4c-1.7-3-0.6-6.8,2.4-8.5
						c9-5.1,17.9-10.8,26.3-17c2.8-2.1,6.7-1.5,8.8,1.3C1590.1,1050.3,1589.5,1054.2,1586.7,1056.3
						C1586.8,1056.2,1586.7,1056.3,1586.7,1056.3z M1603,1035c-2.4-2.5-2.3-6.5,0.3-8.9c7.6-7.1,14.8-14.8,21.5-22.8
						c2.2-2.6,6.2-3,8.8-0.8c2.7,2.2,3,6.2,0.8,8.8c-7,8.4-14.6,16.4-22.5,23.9c-0.2,0.2-0.3,0.3-0.5,0.4
						C1608.9,1037.6,1605.3,1037.3,1603,1035z M1529.6,1088.5c-10.1,4.2-20.5,7.7-31,10.7c-3.3,0.9-6.8-1-7.7-4.4
						c-0.9-3.3,1-6.8,4.4-7.7c10-2.8,20-6.2,29.6-10.2c3.2-1.3,6.9,0.2,8.2,3.4c1.1,2.7,0.2,5.7-2,7.4
						C1530.6,1088,1530.2,1088.3,1529.6,1088.5z M1645.2,986.8c-2.9-1.9-3.7-5.8-1.9-8.7c5.6-8.7,10.8-17.9,15.3-27.3
						c1.5-3.1,5.3-4.4,8.4-2.9c3.1,1.5,4.4,5.3,2.9,8.4c-4.7,9.8-10.2,19.5-16.1,28.6c-0.4,0.6-0.9,1.2-1.5,1.6
						C1650.3,988.1,1647.5,988.3,1645.2,986.8z M1466.5,1105.9c-10.8,1.6-21.8,2.6-32.7,2.9c-3.5,0.1-6.3-2.6-6.4-6.1
						c-0.1-3.5,2.6-6.3,6.1-6.4c10.4-0.3,20.9-1.2,31.2-2.7c3.4-0.5,6.6,1.8,7.1,5.3c0.4,2.3-0.7,4.6-2.4,5.9
						C1468.6,1105.3,1467.6,1105.8,1466.5,1105.9z M1401.1,1107.7c-10.9-1-21.8-2.7-32.4-5c-3.4-0.7-5.5-4.1-4.8-7.4
						c0.7-3.4,4.1-5.5,7.5-4.8c10.1,2.2,20.6,3.8,30.9,4.8c3.4,0.3,6,3.4,5.7,6.8c-0.2,1.8-1.1,3.4-2.5,4.4
						C1404.2,1107.4,1402.7,1107.9,1401.1,1107.7z M1337.1,1093.8c-10.3-3.6-20.5-7.9-30.3-12.7c-3.1-1.5-4.4-5.3-2.9-8.4
						c1.5-3.1,5.3-4.4,8.4-2.9c9.3,4.6,19,8.6,28.9,12.1c3.3,1.1,5,4.7,3.9,8c-0.4,1.2-1.2,2.2-2.1,2.9
						C1341.3,1094.1,1339.1,1094.5,1337.1,1093.8z"/>
					<path fill="#91B3FA" d="M1680.3,928.6c1-0.7,1.7-1.7,2.1-3c1.7-5.1,3.3-10.2,4.7-15.3c0.9-3.3-1-6.8-4.4-7.7
						c-3.3-0.9-6.8,1-7.7,4.4c-1.3,4.8-2.8,9.8-4.5,14.6c-1.1,3.3,0.6,6.8,3.9,7.9C1676.6,930.3,1678.7,929.9,1680.3,928.6z"/>
				</g>
				<g>
					<path fill="#91B3FA" d="M1629,821c0-1.4-0.8-2.6-2-3.1l-36-13.9c-3.5-17.7-9.8-35-19-51.1l18.1-34.1c0.6-1.2,0.4-2.7-0.5-3.7
						l-31.5-33.9c-0.9-1-2.4-1.3-3.6-0.7l-35.3,15.6c-15.4-10.3-32.2-17.9-49.6-22.7l-11.3-36.9c-0.4-1.3-1.6-2.2-2.9-2.2l-46.3-1.7
						c-1.4,0-2.6,0.8-3.1,2l-13.9,36c-17.7,3.5-35,9.8-51.1,19l-34.1-18.1c-1.2-0.6-2.7-0.4-3.7,0.5l-33.9,31.5
						c-1,0.9-1.3,2.4-0.7,3.6l15.6,35.3c-10.3,15.4-17.9,32.2-22.7,49.6l-36.9,11.3c-1.3,0.4-2.2,1.6-2.2,2.9l-1.7,46.3
						c0,1.4,0.8,2.6,2,3.1l36,13.9c3.5,17.7,9.8,35,19,51.1l-18.1,34.1c-0.6,1.2-0.4,2.7,0.5,3.7l31.5,33.9c0.9,1,2.4,1.3,3.6,0.7
						l35.3-15.6c15.4,10.3,32.2,17.9,49.6,22.7l11.3,36.9c0.4,1.3,1.6,2.2,2.9,2.2l46.3,1.7c1.4,0,2.6-0.8,3.1-2l13.9-36
						c17.7-3.5,35-9.8,51.1-19l34.1,18.1c1.2,0.6,2.7,0.4,3.7-0.5l33.9-31.5c1-0.9,1.3-2.4,0.7-3.6l-15.6-35.3
						c10.3-15.4,17.9-32.2,22.7-49.6l36.9-11.3c1.3-0.4,2.2-1.6,2.2-2.9L1629,821z"/>
					<g>
						<path fill="#BDD0FB" d="M1447.7,878.3c-11.1,6.1-23.9,7.5-36.1,4c-12.2-3.5-22.2-11.6-28.3-22.7
							c-12.6-22.9-4.2-51.7,18.8-64.3c22.9-12.6,51.8-4.2,64.3,18.8c6.1,11.1,7.5,23.9,4,36.1c-2.9,9.9-8.7,18.4-16.8,24.5
							C1451.8,875.9,1449.8,877.1,1447.7,878.3z M1394.4,853.5c4.5,8.2,11.9,14.1,20.8,16.7c8.9,2.6,18.4,1.6,26.5-2.9l0,0
							c8.2-4.5,14.1-11.9,16.7-20.8c2.6-8.9,1.6-18.4-2.9-26.5c-9.2-16.9-30.5-23-47.3-13.8c-1.5,0.8-3,1.8-4.3,2.8
							C1390.3,819.2,1386,838.2,1394.4,853.5z"/>
					</g>
					<path fill="#BDD0FB" d="M1495.1,930.8c3.2-2.4,6.2-5,9.2-7.7c5.9-5.5,11.2-11.5,15.9-18.1c0.2-0.3,0.4-0.6,0.6-0.9
						c1.6-2.3,1.5-5.3-0.1-7.4c-0.4-0.5-0.9-1-1.4-1.4c-2.8-2-6.7-1.3-8.7,1.6c-4.3,6.1-9.2,11.8-14.7,16.9l0,0
						c-0.3,0.3-0.6,0.6-0.9,0.8c-13.1,12-28.7,20.2-45.6,24.4c-9.1,2.2-18.6,3.3-28.2,3c-0.1,0-0.2,0-0.2,0c-0.2,0-0.5,0-0.7,0
						c-28.2-1-54.2-13-73.4-33.6c-2.5-2.7-4.8-5.4-7-8.3c-14.6-19.3-22.1-42.8-21.2-67.4c1-28.2,13-54.2,33.6-73.4
						c20.6-19.2,47.5-29.2,75.7-28.2c28.2,1,54.2,13,73.4,33.6c2.4,2.6,4.7,5.4,6.9,8.2c9.3,12.3,15.8,26.5,19,41.6
						c0.2,0.9,0.6,1.8,1.1,2.5c1.4,1.9,3.8,2.9,6.3,2.3c3.4-0.7,5.5-4,4.8-7.4c-3.6-16.9-10.9-32.8-21.3-46.6
						c-2.4-3.2-5-6.2-7.7-9.2c-21.5-23.1-50.6-36.4-82.2-37.6c-31.5-1.1-61.6,10-84.7,31.5c-23.1,21.5-36.4,50.6-37.6,82.1
						c-1,27.4,7.4,53.8,23.7,75.4c2.4,3.2,5,6.3,7.8,9.3C1379.1,961.7,1447.5,966.9,1495.1,930.8z"/>
				</g>
			</g>
		</g>
		<g>
			<g>
				<linearGradient id="SVGID_2_" gradientUnits="userSpaceOnUse" x1="2040.6094" y1="2443.0132" x2="1772.7085" y2="3583.3079">
					<stop  offset="0" style="stop-color:#09005D"/>
					<stop  offset="1" style="stop-color:#1A0F91"/>
				</linearGradient>
				<polygon fill="url(#SVGID_2_)" points="1630.5,2595.8 1569.3,3018.4 2279.7,3018.4 2187.1,2595.8 				"/>
				<linearGradient id="SVGID_3_" gradientUnits="userSpaceOnUse" x1="1907.6538" y1="560.4655" x2="1818.3549" y2="2689.9192">
					<stop  offset="0" style="stop-color:#09005D"/>
					<stop  offset="1" style="stop-color:#1A0F91"/>
				</linearGradient>
				<path fill="url(#SVGID_3_)" d="M437.1,1242.8v1257.7c0,103.5,82.4,188.1,185.9,190.7c459.4,11.8,2066.1,40.6,2503.4,34.1
					c75.2-1.1,136-61.3,138.2-136.4c8.4-292.2,22.1-994.8-28.6-1321c-10.7-68.7-68.7-120.1-138.1-122.3
					c-384.9-12.3-2088.1-51.4-2525.2-41.6C497.3,1105.8,437.1,1167.4,437.1,1242.8z"/>
				<path fill="#91B3FA" d="M516.1,1236.7v1194.9c0,60.4,48.5,109.6,108.9,110.5l2438.5,30.1c59.9,0.9,109-47.3,109.2-107.2
					l4.1-1184.2c0.2-42.8-34-77.9-76.8-79l-2496.6-50.4C555.5,1150.3,516.1,1188.8,516.1,1236.7z"/>
				<path fill="#91B3FA" d="M3191,2621.2C3191,2621.2,3191,2621.2,3191,2621.2l-2675-45.6c-1.9,0-3.4-1.6-3.3-3.4
					c0-1.9,1.6-3.3,3.4-3.3l2675,45.6c1.9,0,3.4,1.6,3.3,3.4C3194.4,2619.7,3192.9,2621.2,3191,2621.2z"/>
				<path fill="#91B3FA" d="M1879.9,2676.9c-17.2,0-31.2-14-31.2-31.2c0-17.2,14-31.2,31.2-31.2c17.2,0,31.2,14,31.2,31.2
					C1911.1,2662.9,1897.1,2676.9,1879.9,2676.9z M1879.9,2621.2c-13.5,0-24.4,11-24.4,24.5c0,13.5,11,24.5,24.4,24.5
					s24.5-11,24.5-24.5C1904.4,2632.2,1893.4,2621.2,1879.9,2621.2z"/>
				<linearGradient id="SVGID_4_" gradientUnits="userSpaceOnUse" x1="1899.7992" y1="2301.5093" x2="1913.5377" y2="3139.5552">
					<stop  offset="0" style="stop-color:#09005D"/>
					<stop  offset="1" style="stop-color:#1A0F91"/>
				</linearGradient>
				<path fill="url(#SVGID_4_)" d="M2432.7,3130.7H1393c-28.2,0-49.5-20.1-44-41.7l13.3-52.8c4-15.9,21.5-27.5,42.2-28.2
					l1002.3-31.3c21.7-0.7,40.8,10.8,45.6,27.3l24.1,84C2482.7,3110,2461.4,3130.7,2432.7,3130.7z"/>
				<path fill="#91B3FA" d="M1952.7,3022.4c-1.8,0-3.4-1.5-3.4-3.3c0-1.9,1.5-3.4,3.3-3.4l43-0.6c1.8,0,3.4,1.5,3.4,3.3
					c0,1.9-1.5,3.4-3.3,3.4L1952.7,3022.4L1952.7,3022.4z"/>
				<path fill="#91B3FA" d="M1387.5,3101.6c-0.2,0-0.4,0-0.5,0c-1.8-0.3-3.1-2-2.8-3.9l6.1-38.4c3.3-20.6,20.8-35.8,41.7-36.1
					l455.6-6.7h0.1c1.8,0,3.4,1.5,3.4,3.3c0,1.9-1.5,3.4-3.3,3.4l-455.6,6.7c-17.6,0.3-32.4,13-35.1,30.4l-6.1,38.4
					C1390.5,3100.4,1389.1,3101.6,1387.5,3101.6z"/>
			</g>
			<g>
				<g opacity="0.53">
					<rect x="1869.8" y="1320.2" fill="#FFFFFF" width="64.1" height="1131.3"/>
					<rect x="1977" y="1320.2" fill="#FFFFFF" width="64.1" height="1131.3"/>
					<rect x="2084.2" y="1320.2" fill="#FFFFFF" width="64.1" height="1131.3"/>
					<rect x="2191.3" y="1320.2" fill="#FFFFFF" width="64.1" height="1131.3"/>
					<rect x="2298.5" y="1320.2" fill="#FFFFFF" width="64.1" height="1131.3"/>
					<rect x="2405.7" y="1320.2" fill="#FFFFFF" width="64.1" height="1131.3"/>
					<rect x="2512.8" y="1320.2" fill="#FFFFFF" width="64.1" height="1131.3"/>
				</g>
				<linearGradient id="SVGID_5_" gradientUnits="userSpaceOnUse" x1="2010.4951" y1="1943.505" x2="2295.5676" y2="1387.0979">
					<stop  offset="0" style="stop-color:#4F52FF"/>
					<stop  offset="1" style="stop-color:#4042E2"/>
				</linearGradient>
				<rect x="1869.8" y="1859.4" fill="url(#SVGID_5_)" width="64.1" height="592"/>
				<linearGradient id="SVGID_6_" gradientUnits="userSpaceOnUse" x1="2136.6663" y1="2008.1488" x2="2421.7393" y2="1451.7407">
					<stop  offset="0" style="stop-color:#4F52FF"/>
					<stop  offset="1" style="stop-color:#4042E2"/>
				</linearGradient>
				<rect x="1977" y="2062.9" fill="url(#SVGID_6_)" width="64.1" height="388.6"/>
				<linearGradient id="SVGID_7_" gradientUnits="userSpaceOnUse" x1="2119.5151" y1="1999.361" x2="2404.5879" y2="1442.953">
					<stop  offset="0" style="stop-color:#4F52FF"/>
					<stop  offset="1" style="stop-color:#4042E2"/>
				</linearGradient>
				<rect x="2084.2" y="1560" fill="url(#SVGID_7_)" width="64.1" height="891.4"/>
				<linearGradient id="SVGID_8_" gradientUnits="userSpaceOnUse" x1="2341.8259" y1="2113.26" x2="2626.8982" y2="1556.8528">
					<stop  offset="0" style="stop-color:#4F52FF"/>
					<stop  offset="1" style="stop-color:#4042E2"/>
				</linearGradient>
				<rect x="2191.3" y="2237.3" fill="url(#SVGID_8_)" width="64.1" height="214.2"/>
				<linearGradient id="SVGID_9_" gradientUnits="userSpaceOnUse" x1="2313.4675" y1="2098.7314" x2="2598.54" y2="1542.3235">
					<stop  offset="0" style="stop-color:#4F52FF"/>
					<stop  offset="1" style="stop-color:#4042E2"/>
				</linearGradient>
				<rect x="2298.5" y="1679.2" fill="url(#SVGID_9_)" width="64.1" height="772.3"/>
				<linearGradient id="SVGID_10_" gradientUnits="userSpaceOnUse" x1="2425.4832" y1="2156.1223" x2="2710.5552" y2="1599.7159">
					<stop  offset="0" style="stop-color:#4F52FF"/>
					<stop  offset="1" style="stop-color:#4042E2"/>
				</linearGradient>
				<rect x="2405.7" y="1812.9" fill="url(#SVGID_10_)" width="64.1" height="638.5"/>
				<linearGradient id="SVGID_11_" gradientUnits="userSpaceOnUse" x1="2539.8589" y1="2214.7222" x2="2824.9324" y2="1658.3127">
					<stop  offset="0" style="stop-color:#4F52FF"/>
					<stop  offset="1" style="stop-color:#4042E2"/>
				</linearGradient>
				<rect x="2512.8" y="1958.3" fill="url(#SVGID_11_)" width="64.1" height="493.2"/>
			</g>
			<g>
				<g>
					<g>
						<defs>
							<path id="SVGID_12_" d="M812,1268.5c-86.1,0-155.8,69.8-155.8,155.8c0,86.1,69.8,155.8,155.8,155.8
								c86.1,0,155.8-69.8,155.8-155.8C967.8,1338.3,898.1,1268.5,812,1268.5z M812,1513.1c-49,0-88.8-39.7-88.8-88.8
								c0-49,39.7-88.8,88.8-88.8c49,0,88.8,39.7,88.8,88.8C900.8,1473.3,861.1,1513.1,812,1513.1z"/>
						</defs>
						<use xlink:href="#SVGID_12_"  overflow="visible" opacity="0.57" fill="#FFFFFF"/>
						<clipPath id="SVGID_13_">
							<use xlink:href="#SVGID_12_"  overflow="visible" opacity="0.57"/>
						</clipPath>
						<linearGradient id="SVGID_14_" gradientUnits="userSpaceOnUse" x1="1484.6754" y1="511.5859" x2="622.586" y2="1789.2627">
							<stop  offset="0" style="stop-color:#FF928E"/>
							<stop  offset="1" style="stop-color:#FE7062"/>
						</linearGradient>
						<rect x="594.4" y="1390.1" clip-path="url(#SVGID_13_)" fill="url(#SVGID_14_)" width="462.8" height="195.9"/>
					</g>
				</g>
				<g>
					<g>
						<defs>
							<path id="SVGID_15_" d="M1191.9,1268.5c-86.1,0-155.8,69.8-155.8,155.8c0,86.1,69.8,155.8,155.8,155.8
								c86.1,0,155.8-69.8,155.8-155.8C1347.7,1338.3,1277.9,1268.5,1191.9,1268.5z M1191.9,1513.1c-49,0-88.8-39.7-88.8-88.8
								c0-49,39.7-88.8,88.8-88.8c49,0,88.8,39.7,88.8,88.8C1280.6,1473.3,1240.9,1513.1,1191.9,1513.1z"/>
						</defs>
						<use xlink:href="#SVGID_15_"  overflow="visible" opacity="0.57" fill="#FFFFFF"/>
						<clipPath id="SVGID_16_">
							<use xlink:href="#SVGID_15_"  overflow="visible" opacity="0.57"/>
						</clipPath>
						<linearGradient id="SVGID_17_" gradientUnits="userSpaceOnUse" x1="1728.123" y1="675.8506" x2="866.0323" y2="1953.5293">
							<stop  offset="0" style="stop-color:#FF928E"/>
							<stop  offset="1" style="stop-color:#FE7062"/>
						</linearGradient>
						<rect x="974.3" y="1314.3" clip-path="url(#SVGID_16_)" fill="url(#SVGID_17_)" width="462.8" height="271.6"/>
					</g>
				</g>
				<g>
					<g>
						<defs>
							<path id="SVGID_18_" d="M1571.7,1268.5c-86.1,0-155.8,69.8-155.8,155.8c0,86.1,69.8,155.8,155.8,155.8
								c86.1,0,155.8-69.8,155.8-155.8C1727.5,1338.3,1657.7,1268.5,1571.7,1268.5z M1571.7,1513.1c-49,0-88.8-39.7-88.8-88.8
								c0-49,39.7-88.8,88.8-88.8c49,0,88.8,39.7,88.8,88.8C1660.5,1473.3,1620.7,1513.1,1571.7,1513.1z"/>
						</defs>
						<use xlink:href="#SVGID_18_"  overflow="visible" opacity="0.57" fill="#FFFFFF"/>
						<clipPath id="SVGID_19_">
							<use xlink:href="#SVGID_18_"  overflow="visible" opacity="0.57"/>
						</clipPath>
						<linearGradient id="SVGID_20_" gradientUnits="userSpaceOnUse" x1="2029.3781" y1="879.1175" x2="1167.2893" y2="2156.7932">
							<stop  offset="0" style="stop-color:#FF928E"/>
							<stop  offset="1" style="stop-color:#FE7062"/>
						</linearGradient>
						<rect x="1354.1" y="1488" clip-path="url(#SVGID_19_)" fill="url(#SVGID_20_)" width="462.8" height="97.9"/>
					</g>
				</g>
			</g>
			<g>
				<path opacity="0.44" fill="#FFFFFF" d="M1691.3,2457.7l-999.5-7.5c-19.7-0.1-35.6-16.2-35.6-35.9v-513.5
					c0-19.8,16.1-35.9,35.9-35.9h999.5c19.8,0,35.9,16.1,35.9,35.9v521C1727.5,2441.8,1711.3,2457.9,1691.3,2457.7z"/>
				<path opacity="0.44" fill="#FFFFFF" d="M1536.3,2096.8l-128.5-135.9l-184.3,200.4l-130-140.3l-122,137.9L878,2045.3
					l-184.3,191.9v138.8c0,18.3,14.8,33.2,33.1,33.4l929.6,7c18.5,0.1,33.6-14.8,33.6-33.4v-377.5L1536.3,2096.8z"/>
				<rect x="1537.1" y="2093" fill="#FFFFFF" width="3.4" height="323.3"/>
				<rect x="1406.1" y="1960.9" fill="#FFFFFF" width="3.4" height="453.5"/>
				<rect x="1221.8" y="2158.9" fill="#FFFFFF" width="3.4" height="254.1"/>
				<rect x="1095.2" y="2026" fill="#FFFFFF" width="3.4" height="387"/>
				<rect x="969.8" y="2154.8" fill="#FFFFFF" width="3.4" height="258.3"/>
				<rect x="878.3" y="2035.6" fill="#FFFFFF" width="3.4" height="374.9"/>
				<linearGradient id="SVGID_21_" gradientUnits="userSpaceOnUse" x1="903.5886" y1="1964.2114" x2="785.0911" y2="2322.4602">
					<stop  offset="0" style="stop-color:#FEBBBA"/>
					<stop  offset="1" style="stop-color:#FF928E"/>
				</linearGradient>
				<circle fill="url(#SVGID_21_)" cx="880" cy="2035.6" r="28.2"/>
				<linearGradient id="SVGID_22_" gradientUnits="userSpaceOnUse" x1="987.067" y1="2107.7136" x2="909.0052" y2="2343.7148">
					<stop  offset="0" style="stop-color:#FEBBBA"/>
					<stop  offset="1" style="stop-color:#FF928E"/>
				</linearGradient>
				<path fill="url(#SVGID_22_)" d="M990.1,2154.8c0,10.3-8.3,18.6-18.6,18.6c-10.3,0-18.6-8.3-18.6-18.6s8.3-18.6,18.6-18.6
					C981.8,2136.2,990.1,2144.5,990.1,2154.8z"/>
				<linearGradient id="SVGID_23_" gradientUnits="userSpaceOnUse" x1="1112.475" y1="1978.9415" x2="1034.4132" y2="2214.9424">
					<stop  offset="0" style="stop-color:#FEBBBA"/>
					<stop  offset="1" style="stop-color:#FF928E"/>
				</linearGradient>
				<path fill="url(#SVGID_23_)" d="M1115.5,2026c0,10.3-8.3,18.6-18.6,18.6c-10.3,0-18.6-8.3-18.6-18.6c0-10.3,8.3-18.6,18.6-18.6
					C1107.2,2007.4,1115.5,2015.7,1115.5,2026z"/>
				<linearGradient id="SVGID_24_" gradientUnits="userSpaceOnUse" x1="1239.0543" y1="2111.8318" x2="1160.9927" y2="2347.8325">
					<stop  offset="0" style="stop-color:#FEBBBA"/>
					<stop  offset="1" style="stop-color:#FF928E"/>
				</linearGradient>
				<path fill="url(#SVGID_24_)" d="M1242.1,2158.9c0,10.3-8.3,18.6-18.6,18.6c-10.3,0-18.6-8.3-18.6-18.6s8.3-18.6,18.6-18.6
					C1233.8,2140.3,1242.1,2148.6,1242.1,2158.9z"/>
				<linearGradient id="SVGID_25_" gradientUnits="userSpaceOnUse" x1="1423.3385" y1="1913.8403" x2="1345.2772" y2="2149.8398">
					<stop  offset="0" style="stop-color:#FEBBBA"/>
					<stop  offset="1" style="stop-color:#FF928E"/>
				</linearGradient>
				<path fill="url(#SVGID_25_)" d="M1426.4,1960.9c0,10.3-8.3,18.6-18.6,18.6c-10.3,0-18.6-8.3-18.6-18.6
					c0-10.3,8.3-18.6,18.6-18.6C1418.1,1942.3,1426.4,1950.6,1426.4,1960.9z"/>
				<linearGradient id="SVGID_26_" gradientUnits="userSpaceOnUse" x1="1554.3381" y1="2045.9456" x2="1476.2769" y2="2281.9451">
					<stop  offset="0" style="stop-color:#4F52FF"/>
					<stop  offset="1" style="stop-color:#4042E2"/>
				</linearGradient>
				<path fill="url(#SVGID_26_)" d="M1557.4,2093c0,10.3-8.3,18.6-18.6,18.6c-10.3,0-18.6-8.3-18.6-18.6c0-10.3,8.3-18.6,18.6-18.6
					C1549.1,2074.4,1557.4,2082.7,1557.4,2093z"/>
			</g>
			<g opacity="0.48">
				<path fill="#FFFFFF" d="M945,1779.4H671c-11.5,0-20.8,6.5-20.8,14.5c0,8,9.3,14.5,20.8,14.5h274c11.5,0,20.8-6.5,20.8-14.5
					C965.8,1785.9,956.5,1779.4,945,1779.4z"/>
				<path fill="#FFFFFF" d="M945,1715.4H671c-11.5,0-20.8,6.5-20.8,14.5s9.3,14.5,20.8,14.5h274c11.5,0,20.8-6.5,20.8-14.5
					S956.5,1715.4,945,1715.4z"/>
				<path fill="#FFFFFF" d="M945,1651.4H671c-11.5,0-20.8,6.5-20.8,14.5c0,8,9.3,14.5,20.8,14.5h274c11.5,0,20.8-6.5,20.8-14.5
					C965.8,1657.9,956.5,1651.4,945,1651.4z"/>
			</g>
			<g opacity="0.48">
				<path fill="#FFFFFF" d="M1325.9,1779.4h-274c-11.5,0-20.8,6.5-20.8,14.5c0,8,9.3,14.5,20.8,14.5h274c11.5,0,20.8-6.5,20.8-14.5
					C1346.6,1785.9,1337.3,1779.4,1325.9,1779.4z"/>
				<path fill="#FFFFFF" d="M1325.9,1715.4h-274c-11.5,0-20.8,6.5-20.8,14.5s9.3,14.5,20.8,14.5h274c11.5,0,20.8-6.5,20.8-14.5
					S1337.3,1715.4,1325.9,1715.4z"/>
				<path fill="#FFFFFF" d="M1325.9,1651.4h-274c-11.5,0-20.8,6.5-20.8,14.5c0,8,9.3,14.5,20.8,14.5h274c11.5,0,20.8-6.5,20.8-14.5
					C1346.6,1657.9,1337.3,1651.4,1325.9,1651.4z"/>
			</g>
			<g opacity="0.48">
				<path fill="#FFFFFF" d="M1706.7,1779.4h-274c-11.5,0-20.8,6.5-20.8,14.5c0,8,9.3,14.5,20.8,14.5h274c11.5,0,20.8-6.5,20.8-14.5
					C1727.5,1785.9,1718.2,1779.4,1706.7,1779.4z"/>
				<path fill="#FFFFFF" d="M1706.7,1715.4h-274c-11.5,0-20.8,6.5-20.8,14.5s9.3,14.5,20.8,14.5h274c11.5,0,20.8-6.5,20.8-14.5
					S1718.2,1715.4,1706.7,1715.4z"/>
				<path fill="#FFFFFF" d="M1706.7,1651.4h-274c-11.5,0-20.8,6.5-20.8,14.5c0,8,9.3,14.5,20.8,14.5h274c11.5,0,20.8-6.5,20.8-14.5
					C1727.5,1657.9,1718.2,1651.4,1706.7,1651.4z"/>
			</g>
			<g>
				<g>
					<linearGradient id="SVGID_27_" gradientUnits="userSpaceOnUse" x1="2739.1824" y1="1839.5563" x2="2992.7354" y2="1839.5563">
						<stop  offset="0" style="stop-color:#DAE3FE"/>
						<stop  offset="1" style="stop-color:#E9EFFD"/>
					</linearGradient>
					<circle fill="url(#SVGID_27_)" cx="2866" cy="1839.6" r="126.8"/>
					<path fill="#91B3FA" d="M2941.3,1812.8c3.9,9.5,6.1,20,6.1,30.9c0,45-36.5,81.4-81.4,81.4c-45,0-81.4-36.5-81.4-81.4
						c0-45,36.5-81.4,81.4-81.4c1.4,0,2.7,0,4.1,0.1v-20.6c-1.4-0.1-2.7-0.1-4.1-0.1c-56.4,0-102.1,45.7-102.1,102.1
						c0,56.4,45.7,102.1,102.1,102.1c56.4,0,102.1-45.7,102.1-102.1c0-13.9-2.8-27.1-7.8-39.2L2941.3,1812.8z"/>
					<path opacity="0.5" fill="#FFFFFF" d="M2970.2,2020h-206.6c-13,0-23.5,10.5-23.5,23.5c0,13,10.5,23.5,23.5,23.5h206.6
						c13,0,23.5-10.5,23.5-23.5C2993.6,2030.5,2983.1,2020,2970.2,2020z"/>
				</g>
				<g>
					<linearGradient id="SVGID_28_" gradientUnits="userSpaceOnUse" x1="2738.6387" y1="1432.0859" x2="2992.1917" y2="1432.0859">
						<stop  offset="0" style="stop-color:#DAE3FE"/>
						<stop  offset="1" style="stop-color:#E9EFFD"/>
					</linearGradient>
					<circle fill="url(#SVGID_28_)" cx="2865.4" cy="1432.1" r="126.8"/>
					<path fill="#91B3FA" d="M2908.5,1505.1c-12.6,7.9-27.4,12.5-43.4,12.5c-45,0-81.4-36.5-81.4-81.4c0-45,36.5-81.4,81.4-81.4
						c1.4,0,2.7,0,4.1,0.1v-20.6c-1.4-0.1-2.7-0.1-4.1-0.1c-56.4,0-102.1,45.7-102.1,102.1c0,56.4,45.7,102.1,102.1,102.1
						c19.7,0,38-5.6,53.6-15.2L2908.5,1505.1z"/>
					<path opacity="0.5" fill="#FFFFFF" d="M2970.7,1612.6h-206.6c-13,0-23.5,10.5-23.5,23.5c0,13,10.5,23.5,23.5,23.5h206.6
						c13,0,23.5-10.5,23.5-23.5C2994.2,1623.1,2983.7,1612.6,2970.7,1612.6z"/>
				</g>
				<g>
					
						<ellipse transform="matrix(0.7071 -0.7071 0.7071 0.7071 -750.8022 2685.6057)" opacity="0.91" fill="#FFFFFF" cx="2866.4" cy="2249.1" rx="126.8" ry="126.8"/>
					<linearGradient id="SVGID_29_" gradientUnits="userSpaceOnUse" x1="3013.0579" y1="2111.5383" x2="2620.6875" y2="2483.9084">
						<stop  offset="0" style="stop-color:#FDF53F"/>
						<stop  offset="1" style="stop-color:#D93C65"/>
					</linearGradient>
					<path fill="url(#SVGID_29_)" d="M2935.5,2294.9c-14.7,21.5-39.3,35.6-67.3,35.6c-45,0-81.4-36.5-81.4-81.4
						c0-45,36.5-81.4,81.4-81.4c1.4,0,2.7,0,4.1,0.1v-20.6c-1.4-0.1-2.7-0.1-4.1-0.1c-56.4,0-102.1,45.7-102.1,102.1
						c0,56.4,45.7,102.1,102.1,102.1c34.9,0,65.6-17.5,84.1-44.2L2935.5,2294.9z"/>
					<path opacity="0.5" fill="#FFFFFF" d="M2763.1,2472.4h206.6c13,0,23.5-10.5,23.5-23.5c0-13-10.5-23.5-23.5-23.5h-206.6
						c-13,0-23.5,10.5-23.5,23.5C2739.6,2461.9,2750.1,2472.4,2763.1,2472.4z"/>
				</g>
			</g>
		</g>
		<g>
			
				<linearGradient id="SVGID_30_" gradientUnits="userSpaceOnUse" x1="394.4223" y1="3120.4875" x2="-133.8929" y2="3695.1467" gradientTransform="matrix(-1 0 0 1 3137.5664 0)">
				<stop  offset="0" style="stop-color:#09005D"/>
				<stop  offset="1" style="stop-color:#1A0F91"/>
			</linearGradient>
			<path fill="url(#SVGID_30_)" d="M2910.1,3163.3c0,0,5.5,31,8.2,61.6c1,12-8.2,22.4-20.2,22.9c-40.8,1.7-128.2,5-159.5,3.6
				c-4.7-0.2-7.8-5-6-9.4c1.5-3.7,4.3-6.6,7.9-8.3l144.3-66.3L2910.1,3163.3z"/>
			
				<linearGradient id="SVGID_31_" gradientUnits="userSpaceOnUse" x1="222.9393" y1="3163.1687" x2="269.8668" y2="3163.1687" gradientTransform="matrix(-1 0 0 1 3137.5664 0)">
				<stop  offset="0" style="stop-color:#FEBBBA"/>
				<stop  offset="1" style="stop-color:#FF928E"/>
			</linearGradient>
			<path fill="url(#SVGID_31_)" d="M2914.6,3145.1l-4.4,37c0,0-25.3,11.8-42.5-1.5l10.5-41.3L2914.6,3145.1z"/>
			
				<linearGradient id="SVGID_32_" gradientUnits="userSpaceOnUse" x1="111.6632" y1="2804.3459" x2="266.8288" y2="2804.3459" gradientTransform="matrix(-1 0 0 1 3137.5664 0)">
				<stop  offset="0" style="stop-color:#4F52FF"/>
				<stop  offset="1" style="stop-color:#4042E2"/>
			</linearGradient>
			<path fill="url(#SVGID_32_)" d="M2911.3,2448.6c1.9,9.7,10.2,482.8-40.4,694.8c-0.8,3.5,0.9,7,4.2,8.4c7.8,3.2,23,7.8,41.2,8.4
				c5.6,0.2,10.7-3.5,12.3-8.9c14.5-49.2,83.7-295.7,92.8-531.1c10.1-263.1,0-9,0-9l-5.9-162.6L2911.3,2448.6z"/>
			
				<linearGradient id="SVGID_33_" gradientUnits="userSpaceOnUse" x1="275.9032" y1="3011.5273" x2="-252.4108" y2="3586.1853" gradientTransform="matrix(-1 0 0 1 3137.5664 0)">
				<stop  offset="0" style="stop-color:#09005D"/>
				<stop  offset="1" style="stop-color:#1A0F91"/>
			</linearGradient>
			<path fill="url(#SVGID_33_)" d="M3076.1,3179.5c0,0,8.7,15.6,17.1,57.2c1.5,7.5-3.7,14.7-11.3,15.4c-13.5,1.3-34.2,3-50.9,2.9
				c-7.7-0.1-13.6-6.7-12.7-14.3c1.8-15.2,7.6-40,25.3-59.4L3076.1,3179.5z"/>
			
				<linearGradient id="SVGID_34_" gradientUnits="userSpaceOnUse" x1="53.8134" y1="3160.762" x2="94.3309" y2="3160.762" gradientTransform="matrix(-1 0 0 1 3137.5664 0)">
				<stop  offset="0" style="stop-color:#FEBBBA"/>
				<stop  offset="1" style="stop-color:#FF928E"/>
			</linearGradient>
			<path fill="url(#SVGID_34_)" d="M3083.8,3131.8l-10.3,56c0,0-10.2,7.6-30.2,2.1l4.9-60.3L3083.8,3131.8z"/>
			
				<linearGradient id="SVGID_35_" gradientUnits="userSpaceOnUse" x1="10.1416" y1="2799.2688" x2="230.4267" y2="2799.2688" gradientTransform="matrix(-1 0 0 1 3137.5664 0)">
				<stop  offset="0" style="stop-color:#4F52FF"/>
				<stop  offset="1" style="stop-color:#4042E2"/>
			</linearGradient>
			<path fill="url(#SVGID_35_)" d="M3111.5,2463.1c41.4,249.6-9,617-25.9,688.9c-1,4.4-4.6,7.8-9.1,8.5c-7.6,1.3-20.1,2.3-32.4-1.3
				c-4.2-1.2-7.2-5.1-7.4-9.5c-2.3-58.1,1.8-415-36.7-556c-2-7.1-6.3-13.4-12.4-17.7l-74.8-53.2l-5.7-86L3111.5,2463.1z"/>
			<g>
				
					<linearGradient id="SVGID_36_" gradientUnits="userSpaceOnUse" x1="25751.8105" y1="-5760.3022" x2="24652.7305" y2="-5416.8408" gradientTransform="matrix(-1 0 0 1 3137.5664 0)">
					<stop  offset="0" style="stop-color:#FF928E"/>
					<stop  offset="1" style="stop-color:#FE7062"/>
				</linearGradient>
				<path fill="url(#SVGID_36_)" d="M2847.9,1990.1c124-2,260.7,32.5,260.7,32.5c36.9,215.6,6.5,464.3,6.5,464.3
					c-96,25.2-204.2-15.4-204.2-15.4c-16-90.1-90.4-343.7-90.4-343.7c-60.6-7.5-110.5-25-151.5-48.1c31.3-36.3,46.1-82.6,52.5-109.9
					C2765.3,1983.4,2809.7,1990.7,2847.9,1990.1z"/>
				
					<linearGradient id="SVGID_37_" gradientUnits="userSpaceOnUse" x1="416.0455" y1="1938.8892" x2="655.7896" y2="1938.8892" gradientTransform="matrix(-1 0 0 1 3137.5664 0)">
					<stop  offset="0" style="stop-color:#FEBBBA"/>
					<stop  offset="1" style="stop-color:#FF928E"/>
				</linearGradient>
				<path fill="url(#SVGID_37_)" d="M2481.8,1807.5c12.2-14.7,27.6-7.7,27.6-7.7c18.2,77.1,113.9,139.5,212.2,170.1
					c-6.4,27.3-21.2,73.6-52.5,109.9C2505.9,1988,2481.8,1807.5,2481.8,1807.5z"/>
			</g>
			<g>
				
					<linearGradient id="SVGID_38_" gradientUnits="userSpaceOnUse" x1="9845.3955" y1="1898.7026" x2="10006.2705" y2="2264.728" gradientTransform="matrix(1 0 0 1 -7310.2119 0)">
					<stop  offset="0" style="stop-color:#FEBBBA"/>
					<stop  offset="1" style="stop-color:#FF928E"/>
				</linearGradient>
				<path fill="url(#SVGID_38_)" d="M2484.7,1811.2c-1.3,4.1,13.5,10.2,22.2-6.3c0.3-7.9,5.1-42,0.4-48.4
					c-25.3-34.4-74.3-77.6-74.3-77.6c-8.3,8.2-1.5,16.2-1.5,16.2l23.8,24.8c-5,9-11,16.6-13.9,27.4c-2.2,8.2-0.8,17,3.3,24.5
					c4.2,7.5,9.9,17.3,15.2,24.9C2470.2,1811.1,2484.7,1811.2,2484.7,1811.2z"/>
				
					<linearGradient id="SVGID_39_" gradientUnits="userSpaceOnUse" x1="654.6387" y1="1776.803" x2="721.7646" y2="1673.5968" gradientTransform="matrix(-1 0 0 1 3137.5664 0)">
					<stop  offset="0" style="stop-color:#FEBBBA"/>
					<stop  offset="1" style="stop-color:#FF928E"/>
				</linearGradient>
				<path fill="url(#SVGID_39_)" d="M2465.7,1735.8l21.7,18.4l6.8,18.3l-19.3,21.4c0,0-6.5-36.3-11.3-44.1
					C2458.7,1741.9,2461.2,1738.1,2465.7,1735.8z"/>
			</g>
			
				<linearGradient id="SVGID_40_" gradientUnits="userSpaceOnUse" x1="25706.8008" y1="-5904.355" x2="24607.7246" y2="-5560.894" gradientTransform="matrix(-1 0 0 1 3137.5664 0)">
				<stop  offset="0" style="stop-color:#FF928E"/>
				<stop  offset="1" style="stop-color:#FE7062"/>
			</linearGradient>
			<path fill="url(#SVGID_40_)" d="M3061.1,2142.6l47.5-120c0,0,115.8,78.7,134.8,178.4c-21.9,1.6-61.7,7.3-100.7,27
				C3134.3,2180.9,3061.1,2142.6,3061.1,2142.6z"/>
			
				<linearGradient id="SVGID_41_" gradientUnits="userSpaceOnUse" x1="-108.564" y1="2278.4802" x2="194.8342" y2="2278.4802" gradientTransform="matrix(-1 0 0 1 3137.5664 0)">
				<stop  offset="0" style="stop-color:#FEBBBA"/>
				<stop  offset="1" style="stop-color:#FF928E"/>
			</linearGradient>
			<path fill="url(#SVGID_41_)" d="M2959.9,2255.6c0,0,130,73.5,173.9,10.7c9.1-13,11.3-26,9-38.3c39-19.7,78.8-25.4,100.7-27
				c5.7,30.1,2.7,62.1-15,94.4c-76.8,140.5-285.8-7.8-285.8-7.8L2959.9,2255.6z"/>
			<g>
				
					<linearGradient id="SVGID_42_" gradientUnits="userSpaceOnUse" x1="286.6229" y1="2062.7739" x2="453.4504" y2="2757.8904" gradientTransform="matrix(-1 0 0 1 3137.5664 0)">
					<stop  offset="0" style="stop-color:#09005D"/>
					<stop  offset="1" style="stop-color:#1A0F91"/>
				</linearGradient>
				<path fill="url(#SVGID_42_)" d="M2975.6,2348.5l-70.9-247.8c-0.8-2.8-3.2-4.9-6.1-5.2c-12.9-1.5-50.1-5.7-93.1-9.3
					c-51.8-4.4-112-7.9-147.9-4.9c-5.1,0.4-8.2,5.8-5.9,10.4c20.4,41.4,104.5,209.6,146.6,264.7c1.4,1.8,3.6,2.9,5.9,2.9l164.6-1.5
					C2973.4,2357.7,2976.9,2353.1,2975.6,2348.5z"/>
				
					<linearGradient id="SVGID_43_" gradientUnits="userSpaceOnUse" x1="391.0728" y1="1953.2042" x2="355.5429" y2="2109.2266" gradientTransform="matrix(-1 0 0 1 3137.5664 0)">
					<stop  offset="0" style="stop-color:#4F52FF"/>
					<stop  offset="1" style="stop-color:#4042E2"/>
				</linearGradient>
				<path fill="url(#SVGID_43_)" d="M2798,2064.7l-51.4-8.6c-2.7-0.5-5,2.2-4.1,4.8l5.1,15.4c0.4,1.3,1.6,2.3,3,2.5l49.5,6.6
					c2.6,0.3,4.7-2,4.1-4.5l-3.2-13.5C2800.7,2066.1,2799.5,2065,2798,2064.7z"/>
				
					<linearGradient id="SVGID_44_" gradientUnits="userSpaceOnUse" x1="372.478" y1="2018.6508" x2="355.4855" y2="2120.6062" gradientTransform="matrix(-1 0 0 1 3137.5664 0)">
					<stop  offset="0" style="stop-color:#4F52FF"/>
					<stop  offset="1" style="stop-color:#4042E2"/>
				</linearGradient>
				<path fill="url(#SVGID_44_)" d="M2836.5,2108.3l-4.2-22.1c-0.4-2.2-2.3-3.9-4.5-4.1l-103.9-10.5c-3.5-0.4-6.3,2.8-5.5,6.3
					l6.6,27.5c0.5,2.2,2.4,3.8,4.7,3.9l101.5,5.1C2834.6,2114.5,2837.2,2111.5,2836.5,2108.3z"/>
				
					<linearGradient id="SVGID_45_" gradientUnits="userSpaceOnUse" x1="172.3081" y1="2246.6689" x2="266.8289" y2="2246.6689" gradientTransform="matrix(-1 0 0 1 3137.5664 0)">
					<stop  offset="0" style="stop-color:#FEBBBA"/>
					<stop  offset="1" style="stop-color:#FF928E"/>
				</linearGradient>
				<path fill="url(#SVGID_45_)" d="M2958.4,2288.7c0,0,9.9-40.6,5.9-55.1c-4-14.4-11.7-33-37.5-28.8c-25.7,4.1-56.1,15-56.1,15
					s1.5,18.8,21.1,12.7l-12.1,9.4c0,0,1.7,15,18.3,7l-11.3,12.5c0,0,7.1,12.3,19.3,4.4C2918.1,2257.8,2923.9,2293.6,2958.4,2288.7z
					"/>
			</g>
			
				<linearGradient id="SVGID_46_" gradientUnits="userSpaceOnUse" x1="124.4033" y1="1954.129" x2="244.3572" y2="1954.129" gradientTransform="matrix(-1 0 0 1 3137.5664 0)">
				<stop  offset="0" style="stop-color:#FEBBBA"/>
				<stop  offset="1" style="stop-color:#FF928E"/>
			</linearGradient>
			<path fill="url(#SVGID_46_)" d="M2973.5,1889.4l39.4,114.1c0.7,1.9-0.1,4-1.9,4.9c-10.8,5.9-49.5,23.1-96.2-6.5
				c-4.9-3.1-8.2-8.1-8.9-13.8l-12.8-98.7H2973.5z"/>
			<g>
				
					<linearGradient id="SVGID_47_" gradientUnits="userSpaceOnUse" x1="-455.9565" y1="-679.1982" x2="-610.1397" y2="-475.2263" gradientTransform="matrix(-0.8116 -0.5843 -0.5843 0.8116 2142.3152 2074.8411)">
					<stop  offset="0" style="stop-color:#FEBBBA"/>
					<stop  offset="1" style="stop-color:#FF928E"/>
				</linearGradient>
				<path fill="url(#SVGID_47_)" d="M2885.2,1771.6c-1.2,1.6-38.3,130.8-38.3,130.8l74.2,19.6l53.3-117.2
					C2974.5,1804.8,2905.1,1744,2885.2,1771.6z"/>
				
					<linearGradient id="SVGID_48_" gradientUnits="userSpaceOnUse" x1="-573.71" y1="-630.2141" x2="-389.5354" y2="-630.2141" gradientTransform="matrix(-0.8116 -0.5843 -0.5843 0.8116 2142.3152 2074.8411)">
					<stop  offset="0" style="stop-color:#09005D"/>
					<stop  offset="1" style="stop-color:#1A0F91"/>
				</linearGradient>
				<path fill="url(#SVGID_48_)" d="M2945,1813.5c1.8,2.9,2.2,6.5,1,9.7l-22.9,63c-0.3,1-0.8,1.8-1.4,2.7c-3.3,4.5-15,18.1-28.5,5.3
					c-11.5-10.9-22.3-20.7-32.3-23.7c-5.9-1.7-12,1.7-13.7,7.6c-3.4,12.1-9.9,36.8-12.5,59.4c-0.7,5.7,3.2,10.9,8.8,12
					c14.8,2.9,43.9,7.7,68.7,6.4c4.1-0.2,7.7-2.7,9.4-6.3c7.6-16.2,29.1-61.6,37.2-73.5c7.5-11,25.3-10.9,33.4-10.1
					c3.1,0.3,6.1-0.7,8.4-2.8c6.9-6.2,18.3-20.6,1.9-38c-4.1-4.3-3.8-11.2,0.5-15.4c7.6-7.4,15-20.1,2.6-35.8
					c-12.6-15.9-29.2-14.3-40-10.8c-4.8,1.6-10.3-0.1-13.1-4.3c-1.2-1.9-3.2-3.3-6.4-3.3c-6.1-0.1-10.9-4.6-10.9-10.7
					c0-10.4-4-23.1-21.6-28.8c-32.4-10.4-53,20.8-55.2,44.2c-2.2,23.4,33.5,32.7,54.6,31.3C2928.5,1790.6,2940,1805.5,2945,1813.5z"
					/>
				
					<linearGradient id="SVGID_49_" gradientUnits="userSpaceOnUse" x1="-681.7756" y1="-517.6664" x2="-558.1073" y2="-644.5468" gradientTransform="matrix(-0.8116 -0.5843 -0.5843 0.8116 2142.3152 2074.8411)">
					<stop  offset="0" style="stop-color:#FEBBBA"/>
					<stop  offset="1" style="stop-color:#FF928E"/>
				</linearGradient>
				<path fill="url(#SVGID_49_)" d="M2950.1,1899.3c0,0,5.6-40.6,22.6-42.5c16.9-1.8,33.3,12.2,16.2,34.9
					C2967.7,1919.9,2950.1,1899.3,2950.1,1899.3z"/>
			</g>
		</g>
	</g>
	<g>
	</g>
	<g>
	</g>
	<g>
	</g>
	<g>
	</g>
	<g>
	</g>
	<g>
	</g>
	<g>
	</g>
	<g>
	</g>
	<g>
	</g>
	<g>
	</g>
	<g>
	</g>
	<g>
	</g>
	<g>
	</g>
	<g>
	</g>
	<g>
	</g>
</g>
</svg>
