<?xml version="1.0" encoding="utf-8"?>
<!-- Generator: Adobe Illustrator 25.2.3, SVG Export Plug-In . SVG Version: 6.00 Build 0)  -->
<svg version="1.1" id="Layer_1" xmlns="http://www.w3.org/2000/svg" xmlns:xlink="http://www.w3.org/1999/xlink" x="0px" y="0px"
	 viewBox="0 0 3710 3710" style="enable-background:new 0 0 3710 3710;" xml:space="preserve">
<style type="text/css">
	.st0{fill:url(#SVGID_1_);}
	.st1{opacity:0.3;}
	.st2{fill:#7D97F4;}
	.st3{fill:#91B3FA;}
	.st4{fill:#BDD0FB;}
	.st5{clip-path:url(#SVGID_3_);}
	.st6{fill:url(#SVGID_4_);}
	.st7{fill:url(#SVGID_5_);}
	.st8{fill:url(#SVGID_6_);}
	.st9{fill:url(#SVGID_7_);}
	.st10{fill:url(#SVGID_8_);}
	.st11{fill:url(#SVGID_9_);}
	.st12{fill:url(#SVGID_10_);}
	.st13{fill:url(#SVGID_11_);}
	.st14{fill:url(#SVGID_12_);}
	.st15{fill:url(#SVGID_13_);}
	.st16{fill:url(#SVGID_14_);}
	.st17{fill:url(#SVGID_15_);}
	.st18{fill:url(#SVGID_16_);}
	.st19{fill:url(#SVGID_17_);}
	.st20{fill:url(#SVGID_18_);}
	.st21{fill:url(#SVGID_19_);}
	.st22{fill:url(#SVGID_20_);}
	.st23{fill:url(#SVGID_21_);}
	.st24{fill:url(#SVGID_22_);}
	.st25{fill:url(#SVGID_23_);}
	.st26{fill:url(#SVGID_24_);}
	.st27{fill:url(#SVGID_25_);}
	.st28{fill:url(#SVGID_26_);}
	.st29{fill:url(#SVGID_27_);}
	.st30{fill:url(#SVGID_28_);}
	.st31{fill:url(#SVGID_29_);}
	.st32{fill:url(#SVGID_30_);}
	.st33{fill:url(#SVGID_31_);}
	.st34{fill:url(#SVGID_32_);}
	.st35{fill:url(#SVGID_33_);}
	.st36{fill:url(#SVGID_34_);}
	.st37{opacity:0.79;fill:#FFFFFF;enable-background:new    ;}
	.st38{fill:url(#SVGID_35_);}
</style>
<g id="Background">
</g>
<g id="Illustration">
	<g>
		
			<linearGradient id="SVGID_1_" gradientUnits="userSpaceOnUse" x1="3590.0811" y1="1337.9537" x2="1152.3369" y2="-1689.5724" gradientTransform="matrix(1 0 0 1 0 2710)">
			<stop  offset="0" style="stop-color:#DAE3FE"/>
			<stop  offset="1" style="stop-color:#E9EFFD"/>
		</linearGradient>
		<path class="st0" d="M2919.4,2854c-56,58.9-109,97-150.8,127c-492,353-1074.3,250.1-1198,225c-182.7-37.1-535.9-108.8-791.3-409.1
			C393,2342.6,453.1,1626.8,752.8,1154.3c54.8-86.4,344.4-566.1,932.9-643c356.2-46.6,771.3,47.3,1072,299.2
			C3388.7,1339.2,3343.8,2407.3,2919.4,2854z"/>
		<g>
			<g>
				<g class="st1">
					<path class="st2" d="M1351.8,1076.7c5.7-1.7,11.9,1.1,14.2,6.7c5.2,12.3,9.8,24.9,14,37.7c2,6.2-1.4,12.8-7.6,14.8
						c-0.1,0-0.1,0-0.2,0.1c-6.1,1.9-12.6-1.5-14.6-7.7c-3.9-12.1-8.4-24.1-13.3-35.8c-2.5-6,0.3-12.9,6.3-15.4
						C1351,1077,1351.4,1076.8,1351.8,1076.7z M1380.7,1175.2c0.4-0.1,0.9-0.2,1.4-0.3c6.4-1.1,12.5,3.1,13.7,9.5
						c2.3,13.2,4.1,26.5,5.3,39.8c0.6,6.5-4.2,12.2-10.7,12.8c-6.5,0.6-12.2-4.2-12.8-10.7c-1.1-12.6-2.8-25.3-5.1-37.8
						C1371.5,1182.6,1375.1,1176.9,1380.7,1175.2z M1387.3,1277.5c1.3-0.4,2.6-0.6,4-0.5c6.5,0.3,11.5,5.8,11.2,12.3
						c-0.6,13.3-1.9,26.8-3.7,40c-0.9,6.4-6.8,11-13.3,10.1c-6.4-0.9-11-6.8-10.1-13.3c1.7-12.6,2.9-25.3,3.5-38
						C1379.2,1283.1,1382.7,1278.9,1387.3,1277.5z M1370.8,1378.8c2.1-0.6,4.3-0.7,6.6-0.1c6.3,1.8,9.9,8.3,8.1,14.5
						c-3.6,12.8-7.8,25.7-12.5,38.2c-2.3,6.1-9.1,9.2-15.2,6.9c-6.1-2.3-9.2-9.1-6.9-15.2c4.5-11.9,8.5-24,11.9-36.3
						C1364,1382.9,1367.1,1379.9,1370.8,1378.8z M1332.1,1473.9c2.9-0.9,6.2-0.6,9,0.9c5.7,3.1,7.8,10.3,4.7,16
						c-6.4,11.7-13.3,23.3-20.7,34.4c-3.6,5.4-10.9,6.9-16.3,3.4c-5.4-3.6-6.9-10.9-3.4-16.3c7-10.6,13.6-21.6,19.6-32.7
						C1326.7,1476.7,1329.2,1474.7,1332.1,1473.9z M1273.4,1558c3.8-1.1,8-0.4,11.2,2.4c4.9,4.3,5.4,11.7,1.1,16.6
						c-8.8,10-18.1,19.8-27.8,29c-4.7,4.5-12.2,4.3-16.7-0.3c-4.5-4.7-4.3-12.1,0.3-16.7c9.1-8.8,18-18,26.4-27.6
						C1269.4,1559.8,1271.3,1558.6,1273.4,1558z M868.3,1709.6c1.6-0.5,3.2-0.6,5-0.4c12.5,1.7,25.3,2.8,38,3.4
						c6.5,0.3,11.5,5.8,11.2,12.3s-5.8,11.5-12.3,11.2c-13.3-0.6-26.8-1.8-40-3.6c-6.4-0.9-11-6.8-10.1-13.2
						C860.7,1714.6,864,1710.9,868.3,1709.6z M1197.5,1627c4.7-1.4,9.9,0.2,13,4.4c3.8,5.3,2.6,12.6-2.7,16.4
						c-10.8,7.8-22.1,15.2-33.5,22.1c-5.6,3.3-12.8,1.5-16.2-4.1c-3.3-5.6-1.5-12.8,4.1-16.2c10.9-6.5,21.6-13.6,31.8-21
						C1195.1,1627.9,1196.3,1627.3,1197.5,1627z M970.9,1711.7c0.7-0.2,1.5-0.4,2.3-0.5c12.6-1.2,25.3-2.9,37.8-5.1
						c6.4-1.1,12.5,3.1,13.7,9.5c1.1,6.4-3.1,12.6-9.5,13.7c-13.1,2.4-26.5,4.2-39.8,5.4c-6.5,0.6-12.2-4.2-12.8-10.6
						C962.1,1718.4,965.6,1713.3,970.9,1711.7z M1108.1,1677.3c5.7-1.7,11.9,1.1,14.2,6.7c2.5,6-0.3,12.9-6.3,15.4
						c-12.3,5.2-24.9,9.9-37.6,14c-0.1,0-0.2,0.1-0.2,0.1c-6.1,1.8-12.6-1.5-14.6-7.6c-2-6.2,1.4-12.8,7.6-14.8
						c12.1-3.9,24.1-8.4,35.7-13.3C1107.3,1677.5,1107.7,1677.4,1108.1,1677.3z"/>
					<path class="st2" d="M787.7,1691.3c2.2-0.7,4.7-0.7,7,0.1c5.8,1.9,11.7,3.7,17.6,5.3c6.3,1.8,9.9,8.3,8.2,14.5
						c-1.8,6.3-8.3,9.9-14.5,8.2c-6.2-1.7-12.4-3.6-18.5-5.6c-6.2-2-9.6-8.7-7.6-14.8C781.1,1695.1,784.1,1692.4,787.7,1691.3z"/>
				</g>
				<g class="st1">
					<path class="st2" d="M516.6,1455.7c5.4-1.6,11.4,0.9,14,6.1c2.7,5.5,5.5,11,8.4,16.3c3.1,5.7,0.9,12.9-4.8,16
						c-5.8,3.1-12.9,0.9-16-4.8c-3-5.7-6-11.5-8.8-17.2c-2.8-5.9-0.4-12.9,5.4-15.7C515.5,1456.1,516.1,1455.9,516.6,1455.7z"/>
					<path class="st2" d="M796,816c5.2-1.6,10.4-3.1,15.7-4.5c6.3-1.7,12.7,2.1,14.4,8.4c1.7,6.3-2.1,12.8-8.4,14.4
						c-12.2,3.2-24.2,7-35.9,11.1c-6.1,2.2-12.9-1-15-7.1c-2.2-6.1,1-12.9,7.1-15.1C781.2,820.7,788.6,818.2,796,816z M872.8,799.7
						c0.6-0.2,1.3-0.3,2-0.4c13-1.6,26.3-2.7,39.4-3.2c6.5-0.3,12,4.8,12.2,11.3c0.3,6.5-4.8,12-11.3,12.2
						c-12.4,0.5-25,1.5-37.4,3.1c-6.5,0.8-12.3-3.8-13.1-10.2C863.8,806.7,867.4,801.3,872.8,799.7z M717.2,848
						c5.3-1.6,11.2,0.7,13.8,5.8c3,5.8,0.8,12.9-5,15.9c-11,5.7-22,12-32.5,18.7c-5.5,3.5-12.8,1.8-16.3-3.7s-1.8-12.8,3.7-16.3
						c11.1-7,22.6-13.7,34.3-19.7C715.8,848.5,716.5,848.2,717.2,848z M973.8,798.3c1.4-0.4,3-0.6,4.5-0.4
						c13.1,1.3,26.2,3.1,39.1,5.5c6.4,1.2,10.6,7.3,9.4,13.7c-1.2,6.4-7.3,10.6-13.7,9.5c-12.3-2.3-24.8-4-37.2-5.2
						c-6.5-0.6-11.2-6.4-10.6-12.9C965.9,803.6,969.3,799.7,973.8,798.3z M633.4,904.2c4.4-1.3,9.3,0,12.4,3.7
						c4.2,5,3.6,12.4-1.4,16.6c-9.5,8-18.8,16.6-27.6,25.4c-4.6,4.6-12.1,4.6-16.7,0c-4.6-4.6-4.6-12.1,0-16.7
						c9.3-9.3,19.1-18.3,29.1-26.7C630.4,905.4,631.9,904.7,633.4,904.2z M563.9,977.4c3.5-1.1,7.4-0.5,10.5,1.9
						c5.2,3.9,6.2,11.3,2.3,16.5c-7.5,9.9-14.7,20.3-21.4,30.8c-3.5,5.5-10.8,7.1-16.3,3.6s-7.1-10.8-3.6-16.3
						c7-11.1,14.6-22,22.6-32.4C559.5,979.5,561.6,978.1,563.9,977.4z M512,1064c2.7-0.8,5.6-0.7,8.3,0.6c5.9,2.7,8.5,9.7,5.8,15.6
						c-5.2,11.4-10,23-14.2,34.8c-2.2,6.1-8.9,9.3-15.1,7.1c-6.1-2.2-9.3-9-7.1-15.1c4.4-12.3,9.5-24.6,14.9-36.6
						C506.2,1067.2,508.9,1065,512,1064z M480.3,1159.9c1.8-0.6,3.8-0.7,5.8-0.2c6.4,1.4,10.4,7.6,9.1,14c-2.6,12.2-4.7,24.7-6.2,37
						c-0.8,6.5-6.7,11-13.1,10.2c-6.5-0.8-11-6.7-10.2-13.2c1.6-13,3.8-26.1,6.6-39C473.1,1164.4,476.3,1161.1,480.3,1159.9z
						 M470.4,1260.4c1-0.3,2.1-0.5,3.3-0.5c6.5-0.1,11.8,5.1,11.9,11.6c0.2,12.4,0.9,25,2.1,37.5c0.6,6.5-4.1,12.2-10.6,12.9
						c-6.5,0.6-12.2-4.1-12.9-10.6c-1.3-13.1-2-26.3-2.2-39.4C461.9,1266.5,465.5,1261.9,470.4,1260.4z M482.8,1360.6
						c0.2-0.1,0.5-0.1,0.7-0.2c6.3-1.5,12.7,2.4,14.2,8.7c2.1,8.9,4.5,17.9,7.2,26.7c1,3.2,2,6.3,3,9.5c2,6.2-1.4,12.8-7.5,14.8
						c-6.2,2.2-12.8-1.4-14.8-7.5c-1.1-3.3-2.1-6.6-3.1-10c-2.8-9.2-5.3-18.7-7.6-28.1C473.3,1368.5,476.9,1362.4,482.8,1360.6z"/>
					<path class="st2" d="M1072.8,819.3c2.2-0.7,4.7-0.7,7.1,0.1c6.1,2,12.2,4.2,18.2,6.4c6.1,2.3,9.2,9.1,6.9,15.2
						c-2.3,6.1-9.1,9.2-15.2,6.9c-5.7-2.2-11.5-4.2-17.3-6.1c-6.2-2-9.5-8.7-7.5-14.9C1066.3,823.1,1069.3,820.4,1072.8,819.3z"/>
				</g>
				<g>
					<g>
						<path class="st3" d="M1097.1,954.7c-1.9-1.3-4.5-1.2-6.4,0.2l-53.5,40.3c-29.3-11.1-60.5-17.6-92.7-18.8l-33.5-58
							c-1.2-2-3.5-3.1-5.8-2.6l-78.9,15.4c-2.3,0.4-4.1,2.3-4.4,4.6l-9.3,66.3c-29.4,13.2-55.9,31-78.8,52.2l-64.7-17.3
							c-2.3-0.6-4.7,0.3-6,2.2l-44.9,66.6c-1.3,1.9-1.2,4.5,0.2,6.4l40.3,53.5c-11.1,29.2-17.6,60.5-18.8,92.7l-58,33.5
							c-2,1.2-3.1,3.5-2.6,5.8l15.4,78.9c0.4,2.3,2.3,4.1,4.6,4.4l66.3,9.3c13.2,29.4,31,55.9,52.2,78.8l-17.3,64.7
							c-0.6,2.3,0.3,4.7,2.2,6l66.6,44.9c1.9,1.3,4.5,1.2,6.4-0.2l53.5-40.3c29.2,11.1,60.5,17.6,92.7,18.8l33.5,58
							c1.2,2,3.5,3.1,5.8,2.6l78.9-15.4c2.3-0.4,4.1-2.3,4.4-4.6l9.3-66.3c29.4-13.2,55.9-31,78.8-52.2l64.7,17.3
							c2.3,0.6,4.7-0.3,6-2.2l44.9-66.6c1.3-1.9,1.2-4.5-0.2-6.4l-40.3-53.5c11.1-29.2,17.6-60.5,18.8-92.7l58-33.5
							c2-1.2,3.1-3.5,2.6-5.8l-15.4-78.9c-0.4-2.3-2.3-4.1-4.6-4.4l-66.3-9.3c-13.2-29.4-31-55.9-52.2-78.8l17.3-64.7
							c0.6-2.3-0.3-4.7-2.2-6L1097.1,954.7z"/>
					</g>
					<g>
						<path class="st4" d="M909.9,1192.4c37.7-11.4,79.2,6.3,96.4,43c19,40.3,1.6,88.5-38.7,107.5c-19.5,9.2-41.5,10.2-61.8,2.9
							c-20.3-7.3-36.5-22.1-45.7-41.6c-19-40.3-1.6-88.5,38.7-107.5C902.5,1194.9,906.2,1193.5,909.9,1192.4z M951,1329.1
							c2.9-0.9,5.8-2,8.6-3.3c30.9-14.5,44.2-51.5,29.7-82.4s-51.5-44.2-82.4-29.7s-44.2,51.5-29.7,82.4c7,15,19.5,26.3,35.1,31.9
							C924.9,1332.6,938.4,1332.9,951,1329.1z"/>
					</g>
					<g>
						<path class="st4" d="M874.6,1081.2c6.5-2,13.1-3.6,19.8-4.9l0,0c2.1-0.4,4.2-0.8,6.4-1.1c10.5-1.7,21.1-2.6,31.7-2.6
							c0.1,0,0.3,0,0.4,0c0.4,0,0.8,0,1.2,0c0.8,0,1.6,0,2.4,0c2.1,0,3.8,1.4,4.4,3.3c0.1,0.5,0.2,1,0.2,1.5
							c-0.1,2.6-2.2,4.7-4.8,4.6c-13.4-0.3-26.9,0.9-40.1,3.5c-65.8,12.8-117,58.5-139.9,116.7c-12.7,32.4-16.7,68.6-9.6,105.2
							c1.2,6.4,2.8,12.7,4.7,18.9c12.6,41.6,38.8,77.2,75.3,101.8c41.9,28.2,92.3,38.5,141.9,28.8c102.4-20,169.5-119.5,149.5-221.9
							c-1.2-6.3-2.8-12.5-4.6-18.7c-8-26.5-21.7-51-40.3-71.6c-0.5-0.5-0.8-1.1-1-1.8c-0.5-1.7,0-3.6,1.4-4.9
							c1.9-1.7,4.9-1.6,6.7,0.4c19.5,21.6,33.9,47.3,42.3,75.1c1.9,6.4,3.6,13,4.9,19.6c20.9,107.5-49.5,212-157,232.9
							c-52.1,10.1-105-0.6-149-30.3c-38.3-25.8-65.9-63.3-79-106.9c-2-6.5-3.6-13.1-4.9-19.8c-10.1-52.1,0.6-105,30.2-149
							C793.5,1121.9,831,1094.4,874.6,1081.2z"/>
					</g>
				</g>
			</g>
			<g>
				<g class="st1">
					<path class="st2" d="M1646.8,663.4c3-0.9,6.4,0.2,8.2,3c3.4,5.2,6.6,10.5,9.7,15.9c2,3.5,0.8,7.9-2.7,9.9s-7.9,0.8-9.9-2.7
						c-2.9-5.1-6-10.2-9.3-15.1c-2.2-3.4-1.3-7.9,2.1-10.1C1645.5,663.9,1646.2,663.6,1646.8,663.4z"/>
					<path class="st2" d="M1673,712.8c3.5-1.1,7.4,0.7,8.8,4.2c4.1,9.8,7.7,20,10.8,30.1c0.6,2.1,1.3,4.3,1.9,6.5
						c1.1,3.9-1.4,7.8-5,9c-3.9,1.1-7.9-1.2-9-5c-0.6-2.1-1.2-4.1-1.8-6.2c-2.9-9.7-6.4-19.4-10.3-28.7c-1.5-3.7,0.2-8,3.9-9.5
						C1672.5,713,1672.8,712.9,1673,712.8z M1693.3,785.6c0.3-0.1,0.7-0.2,1-0.2c4-0.6,7.7,2.1,8.3,6.1c1.9,12.7,3.1,25.7,3.4,38.6
						c0.1,4-3.1,7.4-7.1,7.5s-7.4-3.1-7.5-7.1c-0.3-12.3-1.4-24.6-3.3-36.8C1687.7,790,1689.9,786.6,1693.3,785.6z M1695.4,861.1
						c0.9-0.3,1.8-0.4,2.8-0.3c4,0.4,6.9,4,6.5,7.9c-1.3,12.8-3.3,25.7-6.1,38.3c-0.9,3.9-4.8,6.4-8.7,5.5c-3.9-0.9-6.4-4.8-5.5-8.7
						c2.7-12,4.7-24.3,5.9-36.5C1690.5,864.3,1692.6,861.9,1695.4,861.1z M1678.8,934.8c1.4-0.4,3-0.4,4.6,0.1
						c3.8,1.4,5.7,5.5,4.4,9.3c-4.4,12.1-9.5,24.1-15.3,35.6c-1.8,3.6-6.2,5-9.8,3.2c-3.6-1.8-5-6.2-3.2-9.8
						c5.5-10.9,10.4-22.4,14.6-33.9C1674.8,937,1676.7,935.4,1678.8,934.8z M1644.7,1002.2c2-0.6,4.3-0.3,6.2,0.9
						c3.3,2.2,4.2,6.8,2,10.1c-7.2,10.7-15.1,21-23.5,30.8c-2.6,3-7.2,3.4-10.3,0.7c-3-2.6-3.4-7.2-0.7-10.3
						c8-9.3,15.6-19.2,22.4-29.4C1641.8,1003.7,1643.2,1002.7,1644.7,1002.2z M1595.3,1059.3c2.6-0.8,5.6-0.1,7.5,2.1
						c2.7,3,2.5,7.6-0.5,10.3c-9.6,8.6-19.7,16.7-30.3,24.1c-3.3,2.3-7.8,1.5-10.1-1.8c-2.3-3.3-1.5-7.8,1.8-10.1
						c10-7,19.8-14.8,28.9-23C1593.4,1060.1,1594.3,1059.6,1595.3,1059.3z M1533.5,1102.6c3.3-1,6.9,0.4,8.5,3.6
						c1.9,3.6,0.5,8-3,9.8c-11.3,6-23.2,11.4-35.3,16c-3.8,1.4-8-0.5-9.4-4.2c-1.4-3.8,0.5-8,4.2-9.4c11.5-4.4,22.8-9.5,33.7-15.2
						C1532.6,1102.9,1533.1,1102.7,1533.5,1102.6z M1425.6,1136.1c0.4-0.1,0.8-0.2,1.3-0.3c10.5-1.2,21.2-3.1,31.7-5.5
						c1.6-0.4,3.1-0.7,4.7-1.1c3.9-1,7.8,1.4,8.8,5.3s-1.4,8-5.3,8.8c-1.7,0.4-3.3,0.8-5,1.2c-10.9,2.5-22.1,4.4-33.2,5.7
						c-4,0.5-7.6-2.4-8.1-6.4C1420.1,1140.4,1422.3,1137.1,1425.6,1136.1z"/>
				</g>
				<g class="st1">
					<path class="st2" d="M1297,538.8c3.8-1.1,7.8,1,9,4.8s-0.9,7.9-4.7,9.1c-11.5,3.6-22.9,8-33.9,13c-3.6,1.6-8,0.1-9.6-3.6
						c-1.7-3.7,0-8,3.6-9.6C1272.8,547.2,1284.8,542.6,1297,538.8C1296.9,538.8,1296.9,538.8,1297,538.8z M1333.1,529.7
						c0.3-0.1,0.5-0.1,0.8-0.2c12.4-2.3,25.2-4,37.8-4.8c4-0.3,7.5,2.8,7.7,6.8c0.3,4-2.8,7.5-6.8,7.7c-12.1,0.8-24.2,2.3-36.1,4.6
						c-3.9,0.7-7.8-1.9-8.5-5.8C1327.3,534.3,1329.6,530.7,1333.1,529.7z M1229.4,569.6c3.1-0.9,6.5,0.3,8.3,3.2
						c2.1,3.4,1,7.9-2.4,10c-10.3,6.3-20.3,13.3-29.8,20.8c-3.2,2.5-7.7,2-10.2-1.2c-2.5-3.1-2-7.7,1.2-10.2
						c9.9-7.9,20.4-15.2,31.2-21.8C1228.2,570,1228.8,569.7,1229.4,569.6z M1407.2,524.8c0.8-0.2,1.6-0.3,2.5-0.3
						c12.7,0.7,25.4,2.2,37.9,4.5c4,0.7,6.6,4.5,5.9,8.5c-0.7,3.9-4.5,6.6-8.5,5.9c-11.9-2.1-24-3.6-36.1-4.3
						c-4-0.2-7.1-3.7-6.9-7.7C1402.3,528.2,1404.4,525.7,1407.2,524.8z M1171.3,615.8c2.5-0.7,5.3-0.2,7.2,1.8
						c2.9,2.8,2.9,7.4,0.1,10.3c-8.5,8.6-16.5,17.8-23.9,27.4c-2.5,3.2-7,3.8-10.2,1.3s-3.8-7-1.3-10.2c7.7-10,16.1-19.7,25-28.7
						C1169.1,616.7,1170.1,616.1,1171.3,615.8z M1125.9,674.6c1.9-0.6,4-0.4,5.8,0.7c3.5,2.1,4.6,6.5,2.5,10
						c-6.2,10.4-11.8,21.3-16.6,32.3c-1.6,3.7-5.9,5.3-9.6,3.7s-5.3-5.9-3.7-9.6c5.1-11.6,11-23,17.4-33.9
						C1122.7,676.2,1124.2,675.1,1125.9,674.6z M1096,742.6c1.3-0.4,2.8-0.4,4.2,0c3.8,1.2,6,5.2,4.9,9.1
						c-3.5,11.6-6.3,23.5-8.4,35.4c-0.7,3.9-4.5,6.6-8.4,5.9c-4-0.7-6.6-4.5-5.9-8.4c2.2-12.5,5.1-24.9,8.8-37.1
						C1091.8,745,1093.7,743.3,1096,742.6z"/>
					<path class="st2" d="M1480.7,538.1c1.3-0.4,2.8-0.4,4.3,0c5.9,1.8,11.9,3.9,17.6,6c3.8,1.4,5.7,5.6,4.2,9.4
						c-1.4,3.7-5.6,5.7-9.4,4.2c-5.5-2.1-11.1-4-16.8-5.8c-3.8-1.2-6-5.3-4.8-9.1C1476.6,540.5,1478.5,538.8,1480.7,538.1z"/>
				</g>
				<g>
					<g>
						<path class="st3" d="M1502.1,629.8c-1.3-0.9-3-0.8-4.3,0.1l-35.8,27c-19.6-7.4-40.5-11.8-62-12.6l-22.4-38.8
							c-0.8-1.4-2.3-2.1-3.9-1.8l-52.8,10.3c-1.5,0.3-2.7,1.5-2.9,3.1l-6.2,44.4c-19.7,8.8-37.4,20.7-52.7,35l-43.3-11.6
							c-1.5-0.4-3.1,0.2-4,1.5l-30.1,44.6c-0.9,1.3-0.8,3,0.1,4.3l27,35.8c-7.4,19.6-11.8,40.5-12.6,62l-38.8,22.4
							c-1.4,0.8-2.1,2.3-1.8,3.9l10.3,52.8c0.3,1.5,1.5,2.7,3.1,2.9l44.4,6.2c8.8,19.7,20.7,37.4,35,52.7l-11.6,43.3
							c-0.4,1.5,0.2,3.1,1.5,4l44.6,30.1c1.3,0.9,3,0.8,4.3-0.1l35.8-27c19.6,7.4,40.5,11.8,62,12.6l22.4,38.8
							c0.8,1.4,2.3,2.1,3.9,1.8l52.8-10.3c1.5-0.3,2.7-1.5,2.9-3.1l6.2-44.4c19.7-8.8,37.4-20.7,52.7-35l43.3,11.6
							c1.5,0.4,3.1-0.2,4-1.5l30.1-44.6c0.9-1.3,0.8-3-0.1-4.3l-27-35.8c7.4-19.6,11.8-40.5,12.6-62l38.8-22.4
							c1.4-0.8,2.1-2.3,1.8-3.9l-10.3-52.8c-0.3-1.5-1.5-2.7-3.1-2.9l-44.4-6.2c-8.8-19.7-20.7-37.4-35-52.7l11.6-43.3
							c0.4-1.5-0.2-3.1-1.5-4L1502.1,629.8z"/>
					</g>
					<g>
						<path class="st4" d="M1376.6,787.9c11.2-3.4,23.2-3.1,34.5,0.9c13.8,5,24.9,15.1,31.1,28.4c12.9,27.4,1.1,60.3-26.4,73.2
							s-60.3,1.1-73.2-26.4c-6.3-13.3-7-28.2-2-42.1c5-13.8,15-24.9,28.4-31.1C1371.5,789.7,1374,788.7,1376.6,787.9z M1404.1,879.4
							c1.9-0.6,3.7-1.3,5.5-2.1c20.2-9.5,28.9-33.7,19.4-53.9c-4.6-9.8-12.7-17.2-22.9-20.9c-10.2-3.7-21.2-3.1-30.9,1.5l0,0
							c-9.8,4.6-17.2,12.7-20.9,22.9c-3.7,10.2-3.1,21.2,1.5,31C1364.4,876.2,1385.2,885.1,1404.1,879.4z"/>
					</g>
					<g>
						<path class="st4" d="M1352.1,710.5c4.4-1.3,8.9-2.4,13.5-3.4c9.2-1.8,18.5-2.6,27.8-2.5c0.4,0,0.8,0,1.3,0
							c3.2,0.1,5.9,2.2,6.8,5.2c0.2,0.7,0.3,1.5,0.3,2.3c-0.1,4-3.4,7.2-7.4,7.1c-8.7-0.2-17.4,0.6-26,2.3l0,0
							c-0.5,0.1-0.9,0.2-1.4,0.3c-20.2,4.1-38.6,13.2-54,26.1c-8.3,7-15.8,15.2-22.1,24.5c-0.1,0.1-0.1,0.1-0.2,0.2
							c-0.2,0.2-0.3,0.5-0.5,0.7c-18.3,27.1-24.9,59.8-18.7,91.9c0.8,4.2,1.8,8.2,3,12.2c8.1,26.9,25.1,50,48.7,65.9
							c27.1,18.3,59.8,24.9,91.9,18.6c32.1-6.3,59.9-24.6,78.2-51.8c18.3-27.1,24.9-59.8,18.7-91.9c-0.8-4.1-1.8-8.1-3-12.1
							c-5.2-17.2-14.1-33-26.1-46.3c-0.7-0.8-1.3-1.8-1.6-2.8c-0.8-2.6-0.1-5.6,2.1-7.5c3-2.7,7.6-2.4,10.3,0.5
							c13.4,14.9,23.4,32.6,29.2,51.8c1.3,4.4,2.5,8.9,3.4,13.5c7,35.9-0.4,72.4-20.9,102.8c-20.5,30.3-51.5,50.9-87.4,57.9
							s-72.4-0.4-102.8-20.9c-26.4-17.8-45.4-43.6-54.5-73.7c-1.3-4.5-2.5-9-3.4-13.7C1243.8,798.3,1285.7,730.6,1352.1,710.5z"/>
					</g>
				</g>
			</g>
		</g>
		<g>
			<g>
				<g>
					<defs>
						<rect id="SVGID_2_" x="526.4" y="1282.8" width="2682.6" height="1964.5"/>
					</defs>
					<clipPath id="SVGID_3_">
						<use xlink:href="#SVGID_2_"  style="overflow:visible;"/>
					</clipPath>
					<g class="st5">
						<g>
							
								<linearGradient id="SVGID_4_" gradientUnits="userSpaceOnUse" x1="1378.814" y1="1146.8816" x2="658.7395" y2="3393.5166" gradientTransform="matrix(1 0 0 1 0 2710)">
								<stop  offset="0" style="stop-color:#FDF53F"/>
								<stop  offset="1" style="stop-color:#D93C65"/>
							</linearGradient>
							<rect x="1140.1" y="3943.5" class="st6" width="94.5" height="1021.5"/>
							
								<linearGradient id="SVGID_5_" gradientUnits="userSpaceOnUse" x1="1538.2731" y1="1149.9602" x2="792.0313" y2="3478.2371" gradientTransform="matrix(1 0 0 1 0 2710)">
								<stop  offset="0" style="stop-color:#FDF53F"/>
								<stop  offset="1" style="stop-color:#D93C65"/>
							</linearGradient>
							<path class="st7" d="M1600.9,4984.7H773.7v-59c0-1.4,1.1-2.5,2.5-2.5h822.3c1.4,0,2.5,1.1,2.5,2.5L1600.9,4984.7
								L1600.9,4984.7z"/>
							
								<linearGradient id="SVGID_6_" gradientUnits="userSpaceOnUse" x1="1221.4393" y1="1096.4412" x2="501.3652" y2="3343.075" gradientTransform="matrix(1 0 0 1 0 2710)">
								<stop  offset="0" style="stop-color:#FDF53F"/>
								<stop  offset="1" style="stop-color:#D93C65"/>
							</linearGradient>
							<path class="st8" d="M1723.7,3908c0,55.9-45.7,101.6-101.6,101.6h-837c-55.9,0-101.6-45.7-101.6-101.6v-91.8
								c0-55.9,45.7-101.6,101.6-101.6h837c55.9,0,101.6,45.7,101.6,101.6V3908z"/>
						</g>
						<g>
							<g>
								
									<linearGradient id="SVGID_7_" gradientUnits="userSpaceOnUse" x1="3288.6409" y1="1710.382" x2="3232.6321" y2="1976.0226" gradientTransform="matrix(1 0 0 1 0 2710)">
									<stop  offset="0" style="stop-color:#09005D"/>
									<stop  offset="1" style="stop-color:#1A0F91"/>
								</linearGradient>
								<path class="st9" d="M3071.5,4809.8c42.4-20.6,366.9-136.1,447.9-259.5c-3.9-2.9-8.6-5-14-5.6c-91.7-11-274.8-22-437.1,35.8
									l-86,73.7c0,0-29,69.5,27.6,154.3C3024.2,4816,3046.1,4822.1,3071.5,4809.8z"/>
								
									<linearGradient id="SVGID_8_" gradientUnits="userSpaceOnUse" x1="3380.084" y1="1665.5605" x2="3296.8713" y2="1907.1978" gradientTransform="matrix(1 0 0 1 0 2710)">
									<stop  offset="0" style="stop-color:#53D8FF"/>
									<stop  offset="1" style="stop-color:#3840F7"/>
								</linearGradient>
								<path class="st10" d="M3519.4,4550.3c-81.1,123.4-405.6,238.9-447.9,259.5c-25.4,12.4-47.3,6.2-61.5-1.3
									c0.1,0.2,0.2,0.3,0.3,0.4c14.3,21.4,41.8,29.5,65.8,20.1c91.3-36.1,324.1-133.4,444.7-233.2
									C3536,4583.1,3533.4,4560.8,3519.4,4550.3z"/>
							</g>
							<g>
								
									<linearGradient id="SVGID_9_" gradientUnits="userSpaceOnUse" x1="3214.147" y1="1944.692" x2="3344.437" y2="2476.7073" gradientTransform="matrix(1 0 0 1 0 2710)">
									<stop  offset="0" style="stop-color:#09005D"/>
									<stop  offset="1" style="stop-color:#1A0F91"/>
								</linearGradient>
								<path class="st11" d="M3060.3,4917.7c42.4-20.6,366.9-136.1,447.9-259.5c-3.9-2.9-8.6-5-14-5.6
									c-91.7-11-274.8-22-437.1,35.8l-86,73.7c0,0-29,69.5,27.6,154.3C3013,4923.9,3034.9,4930,3060.3,4917.7z"/>
								
									<linearGradient id="SVGID_10_" gradientUnits="userSpaceOnUse" x1="3223.835" y1="1942.3196" x2="3354.1245" y2="2474.3347" gradientTransform="matrix(1 0 0 1 0 2710)">
									<stop  offset="0" style="stop-color:#53D8FF"/>
									<stop  offset="1" style="stop-color:#3840F7"/>
								</linearGradient>
								<path class="st12" d="M3508.2,4658.2c-81.1,123.4-405.6,238.9-447.9,259.5c-25.4,12.4-47.3,6.2-61.5-1.3
									c0.1,0.1,0.2,0.3,0.3,0.4c14.3,21.4,41.8,29.5,65.8,20.1c91.3-36.1,324.1-133.4,444.7-233.2
									C3524.8,4691,3522.2,4668.7,3508.2,4658.2z"/>
							</g>
							<g>
								
									<linearGradient id="SVGID_11_" gradientUnits="userSpaceOnUse" x1="3440.2659" y1="1220.5206" x2="2946.2512" y2="1969.6848" gradientTransform="matrix(1 0 0 1 0 2710)">
									<stop  offset="0" style="stop-color:#FEBBBA"/>
									<stop  offset="1" style="stop-color:#FF928E"/>
								</linearGradient>
								<path class="st13" d="M3001.2,4510.2c-12.5,30.7-39.5,68.4-97.8,99.6l84.8,59c31.7,0.9,52.1-8.2,65.2-19.7
									c18.6-16.4,21.1-44.7,6.1-64.4C3040.1,4559.4,3020.7,4534.6,3001.2,4510.2z"/>
								
									<linearGradient id="SVGID_12_" gradientUnits="userSpaceOnUse" x1="2641.4451" y1="645.7355" x2="2122.0806" y2="1433.3423" gradientTransform="matrix(1 0 0 1 0 2710)">
									<stop  offset="0" style="stop-color:#CB236D"/>
									<stop  offset="1" style="stop-color:#4C246D"/>
								</linearGradient>
								<path class="st14" d="M3002.9,4483.4C2315,3635,1466,3414.1,1466,3414.1l21.5,210l1429.6,999.7
									c47.8-25.6,75-72.5,90.1-105.5C3012.5,4506.8,3010.9,4493.3,3002.9,4483.4z"/>
							</g>
							<g>
								
									<linearGradient id="SVGID_13_" gradientUnits="userSpaceOnUse" x1="3084.2991" y1="1948.3531" x2="1625.3958" y2="2358.3359" gradientTransform="matrix(1 0 0 1 0 2710)">
									<stop  offset="0" style="stop-color:#FEBBBA"/>
									<stop  offset="1" style="stop-color:#FF928E"/>
								</linearGradient>
								<path class="st15" d="M2982.7,4587c-3.7,29.3-20.7,81.3-89.4,124.5c25.9,20,51,40.1,74.9,60.3c9.6,8.1,22.3,11.5,34.7,9
									c23.7-4.8,59.9-19.7,70.6-65.5c2.7-11.6-0.3-23.9-7.9-33.1C3051.3,4665.1,3023.1,4631.8,2982.7,4587z"/>
								
									<linearGradient id="SVGID_14_" gradientUnits="userSpaceOnUse" x1="2856.7751" y1="1077.4176" x2="1359.41" y2="1498.2094" gradientTransform="matrix(1 0 0 1 0 2710)">
									<stop  offset="0" style="stop-color:#CB236D"/>
									<stop  offset="1" style="stop-color:#4C246D"/>
								</linearGradient>
								<path class="st16" d="M2988,4575.2c-214.5-235.1-742.6-747.1-1322.6-959.6c-48.3-17.7-87.5-53.8-109.8-100.1l-86.8-180.9
									c0,0-422.9-99.1-683.5,173.7c0,0,15.9,259.5,343.2,354.4c305.5,88.6,1210.8,448.2,1744.8,851.1c12.2,9.2,29.2,9.7,41.4,0.3
									c42.5-32.9,69-74,80.4-103C2999.9,4598.8,2996.9,4584.9,2988,4575.2z"/>
							</g>
							
								<linearGradient id="SVGID_15_" gradientUnits="userSpaceOnUse" x1="854.5663" y1="559.8614" x2="1973.8324" y2="-431.2947" gradientTransform="matrix(1 0 0 1 0 2710)">
								<stop  offset="0" style="stop-color:#4F52FF"/>
								<stop  offset="1" style="stop-color:#4042E2"/>
							</linearGradient>
							<path class="st17" d="M739.4,3504.8c0,0,86.3,37.8,234.2-30.6c147.9-68.4,550.1-75.2,550.1-75.2s-130.3-487.6,159.2-836.5
								c0,0,233.2,436.5,397.1,501.6l73.4,3.4v-311.4c0,0-62.3-384.4-456-671.5l-122.6-110.5c0,0-431.1-86.9-724.3,427.3
								C557.4,2915.8,739.4,3504.8,739.4,3504.8z"/>
							
								<linearGradient id="SVGID_16_" gradientUnits="userSpaceOnUse" x1="1859.7" y1="-188.0015" x2="2266.969" y2="-188.0015" gradientTransform="matrix(1 0 0 1 0 2710)">
								<stop  offset="0" style="stop-color:#FEBBBA"/>
								<stop  offset="1" style="stop-color:#FF928E"/>
							</linearGradient>
							<path class="st18" d="M2178.2,2160.2c4.1-21.6,5.6-72.2-46.5-133.8c-69.8-82.4-159.2-40.4-159.2-40.4
								c-79.3,44.4-112.8,189.4-112.8,189.4l83.8-44.7c12.7,36.9,136.5,76.6,136.5,76.6l0.7-0.3c1.2,80.2-0.7,314.1-57.6,476.7
								c-22.3,63.7-67.6,182.1,82,385l82.4-3.4C2187.6,3065.4,2372.3,2751.8,2178.2,2160.2z"/>
							<g>
								
									<linearGradient id="SVGID_17_" gradientUnits="userSpaceOnUse" x1="986.362" y1="-555.2134" x2="1368.1964" y2="-946.9655" gradientTransform="matrix(0.963 0.2697 -0.2697 0.963 321.3595 2372.355)">
									<stop  offset="0" style="stop-color:#FEBBBA"/>
									<stop  offset="1" style="stop-color:#FF928E"/>
								</linearGradient>
								<path class="st19" d="M1759.2,1684.8L1529.6,2009c-14.9,21.1-12.9,49.6,4.8,68.5c30.9,33,83.1,79.5,139.3,90.2
									c17.5,3.3,35.2-4,44.9-18.9l122.1-187.4C1840.7,1961.3,1864,1666.9,1759.2,1684.8z"/>
								
									<linearGradient id="SVGID_18_" gradientUnits="userSpaceOnUse" x1="852.9816" y1="-1783.0208" x2="369.5309" y2="-1143.4547" gradientTransform="matrix(0.7999 -0.6002 0.6002 0.7999 2225.2769 3471.4976)">
									<stop  offset="0" style="stop-color:#FEBBBA"/>
									<stop  offset="1" style="stop-color:#FF928E"/>
								</linearGradient>
								<path class="st20" d="M1911.6,1474.1c3.8,5.1,128,407.8,128,407.8l-231.4,66l-174.4-364.2
									C1633.7,1583.8,1847.5,1388.8,1911.6,1474.1z"/>
								
									<linearGradient id="SVGID_19_" gradientUnits="userSpaceOnUse" x1="483.7448" y1="-1630.7345" x2="1061.1539" y2="-1630.7345" gradientTransform="matrix(0.7999 -0.6002 0.6002 0.7999 2225.2769 3471.4976)">
									<stop  offset="0" style="stop-color:#09005D"/>
									<stop  offset="1" style="stop-color:#1A0F91"/>
								</linearGradient>
								<path class="st21" d="M1725.6,1643.5l73.7,190.8c1.6,4.2,3.8,8,6.6,11.5c12.4,15.5,48.3,52.1,88.2,13
									c30.2-29.6,58.6-56.9,85.7-70.5c23.9-12,52.8,1.1,60.4,26.7c11.4,38.4,29.4,104.3,38.8,167.1c3.4,22.7-11.5,44.2-34,48.9
									c-47.1,9.9-129.3,24.2-201.4,22.6c-16-0.4-30.3-9.8-37.4-24.1c-26.7-53.9-93.6-187.6-118.8-223.3
									c-23.2-32.8-75.5-32.6-102.1-30.1c-12.4,1.2-24.6-3-33.7-11.5c-21.3-20-49.8-60.2-9.2-110.2c14.1-17.4,12.9-42.1-2.6-58.2
									c-22.5-23.3-41.1-60.5-5.6-107.3c37.6-49.5,88.4-46.8,122.6-37c16.7,4.8,33.7-2.5,44.7-16c3.2-3.9,7.7-6.9,14.1-8
									c20.9-3.4,37-19.5,37.6-40.6c0.9-31.3,14.4-67.7,66-85.4c100.9-34.7,167.3,61.9,175.8,135.1
									c8.4,73.2-103.1,104.6-169.4,101.6c-45.9-2.1-79.8,40-96.2,66C1722.1,1616.3,1720.6,1630.7,1725.6,1643.5z"/>
								
									<linearGradient id="SVGID_20_" gradientUnits="userSpaceOnUse" x1="144.9195" y1="-1276.5286" x2="532.6828" y2="-1674.3634" gradientTransform="matrix(0.7999 -0.6002 0.6002 0.7999 2225.2769 3471.4976)">
									<stop  offset="0" style="stop-color:#FEBBBA"/>
									<stop  offset="1" style="stop-color:#FF928E"/>
								</linearGradient>
								<path class="st22" d="M1716.1,1878.3c0,0-20.2-127-73.4-131.7c-53.2-4.7-103.6,40.4-48.8,110.4
									C1662.1,1944.1,1716.1,1878.3,1716.1,1878.3z"/>
							</g>
							
								<linearGradient id="SVGID_21_" gradientUnits="userSpaceOnUse" x1="572.4854" y1="241.3208" x2="1691.7524" y2="-749.836" gradientTransform="matrix(1 0 0 1 0 2710)">
								<stop  offset="0" style="stop-color:#4F52FF"/>
								<stop  offset="1" style="stop-color:#4042E2"/>
							</linearGradient>
							<path class="st23" d="M1140.1,2021.2c0,0-462.8,295.1-564.1,637.8s125.4,410.1,341.3,440.4l16.2-261.7c0,0-151.2,0-54.8-143
								c96.5-143,355.7-238.4,355.7-238.4S1891.4,1836.6,1140.1,2021.2z"/>
							
								<linearGradient id="SVGID_22_" gradientUnits="userSpaceOnUse" x1="1149.2065" y1="-2737.6953" x2="1068.2957" y2="-768.8662" gradientTransform="matrix(1 0 0 1 0 2710)">
								<stop  offset="0" style="stop-color:#09005D"/>
								<stop  offset="1" style="stop-color:#1A0F91"/>
							</linearGradient>
							<path class="st24" d="M933.6,2843.8c-2.6,0-65.2-0.5-86.2-40.1c-14.4-27-5.5-64.8,26.5-112.2
								c96.4-143,347.9-236.7,358.6-240.6c3.1-1.1,6.5,0.5,7.6,3.5c1.1,3.1-0.4,6.5-3.5,7.6c-2.6,0.9-258.6,96.3-352.8,236.1
								c-29.3,43.5-38,77.1-25.9,99.9c17.7,33.3,75.1,33.8,75.7,33.8c3.3,0,6,2.7,6,6C939.5,2841.1,936.9,2843.8,933.6,2843.8z"/>
							<g>
								
									<linearGradient id="SVGID_23_" gradientUnits="userSpaceOnUse" x1="6801.0654" y1="-3410.8755" x2="7060.0576" y2="-3410.8755" gradientTransform="matrix(7.160000e-02 -0.9974 0.9974 7.160000e-02 4370.0854 10165.7031)">
									<stop  offset="0" style="stop-color:#FEBBBA"/>
									<stop  offset="1" style="stop-color:#FF928E"/>
								</linearGradient>
								<path class="st25" d="M917.3,3099.5c0,0-67.6-111.7,21.4-245.2l597.6,98.9c0,0,286.1-48.4,299.7-47.4
									c13.7,1,200.4,116,200.4,116s-6.3,13.3-50.7,10.9c-44.4-2.5-15.3,5.4-15.3,5.4l-1.6,22.4c0,0-30.9,7.1-55.7-19.3
									c-24.8-26.4-93.8-39.2-93.8-39.2s-146.6,108.3-290.6,55.9L917.3,3099.5z"/>
							</g>
						</g>
						<g>
							<g>
								
									<linearGradient id="SVGID_24_" gradientUnits="userSpaceOnUse" x1="1751.4261" y1="1351.953" x2="2566.7742" y2="1351.953" gradientTransform="matrix(1 0 0 1 0 2710)">
									<stop  offset="0" style="stop-color:#9CFFFB"/>
									<stop  offset="1" style="stop-color:#9BFFFA"/>
								</linearGradient>
								<path class="st26" d="M1786.9,4984.7c-4.7,0-9.4-1-14-3c-18-7.9-26.3-29.3-18.6-47.8l744.4-1772.7c7.7-18.4,28.6-27,46.6-19
									c18,7.9,26.3,29.3,18.6,47.8l-744.4,1772.7C1813.7,4976.4,1800.6,4984.7,1786.9,4984.7z"/>
								
									<linearGradient id="SVGID_25_" gradientUnits="userSpaceOnUse" x1="1845.5261" y1="1351.974" x2="2660.8738" y2="1351.974" gradientTransform="matrix(1 0 0 1 0 2710)">
									<stop  offset="0" style="stop-color:#9CFFFB"/>
									<stop  offset="1" style="stop-color:#9BFFFA"/>
								</linearGradient>
								<path class="st27" d="M2625.5,4984.7c-13.8,0-26.8-8.2-32.6-22L1848.4,3190c-7.7-18.4,0.6-39.8,18.6-47.8
									c18-7.9,38.9,0.6,46.6,19L2658,4933.9c7.7,18.4-0.6,39.8-18.6,47.8C2634.9,4983.7,2630.2,4984.7,2625.5,4984.7z"/>
							</g>
							
								<linearGradient id="SVGID_26_" gradientUnits="userSpaceOnUse" x1="898.037" y1="1969.0153" x2="3223.2864" y2="-780.6183" gradientTransform="matrix(1 0 0 1 0 2710)">
								<stop  offset="0" style="stop-color:#09005D"/>
								<stop  offset="1" style="stop-color:#1A0F91"/>
							</linearGradient>
							<path class="st28" d="M3176.2,3108.3c1.1-11-0.4-22.4-4-31s-9-13.6-14.7-13.6h-1929c-7.5,0-14.5,7.5-18.5,19.9
								s-4.6,28-1.4,41.4l20.9,88.9c4.8,20.4,15.2,33.4,26.6,33.4h1888.2c10.6,0,19.7-14.8,21.8-35.3L3176.2,3108.3z"/>
						</g>
					</g>
				</g>
			</g>
		</g>
		<g>
			<path class="st4" d="M2341.8,967.2c-252.5,120.6-418.4,371.5-222.3,359.8c368.2-22,119.7,183.1,313.3,177
				c193.6-6,493.3-47.3,689.5-250.5c196.1-203.2,5.5-251.8-74-243.9C2786.5,1035.5,3132.8,589.6,2341.8,967.2z"/>
			<path class="st4" d="M2256.3,1603.9c0.5,28.6,21.6,75.5,68.8,74.7c47.3-0.9,102.8-49.2,102.3-77.8c-0.5-28.6-39.3-51.1-86.5-50.2
				C2293.6,1551.4,2255.7,1575.3,2256.3,1603.9z"/>
			<path class="st4" d="M2185.3,1719.1c0.3,13.8,12.4,24.9,27.2,24.6s44-15,43.7-28.8s-18.6-27.7-33.3-27.4
				C2208.1,1687.7,2185.1,1705.3,2185.3,1719.1z"/>
		</g>
		<g>
			
				<linearGradient id="SVGID_27_" gradientUnits="userSpaceOnUse" x1="2740.5906" y1="-1589.9775" x2="3152.8003" y2="-1970.823" gradientTransform="matrix(1 0 0 1 0 2710)">
				<stop  offset="0" style="stop-color:#09005D"/>
				<stop  offset="1" style="stop-color:#1A0F91"/>
			</linearGradient>
			<path class="st29" d="M2730.4,1194.4c-0.4-4.8-5.3-8.9-13.6-12.3c9-5,14-10.3,13.6-15.5c-1.3-15.8-51.4-24.7-111.9-19.8
				c-60.5,4.9-108.5,21.7-107.3,37.5c0.4,4.8,5.3,8.9,13.6,12.3c-9,5-14,10.3-13.6,15.5c0.4,4.8,5.3,8.9,13.6,12.3
				c-9,5-14,10.3-13.6,15.5c0.4,4.8,5.3,8.9,13.6,12.3c-9,5-14,10.3-13.6,15.5c0.6,7,10.7,12.6,27,16.3c-0.2,5.2-0.1,10.8,0.4,17.1
				c2.4,29.1,35.1,52,78.5,52s80.9-31.2,81.3-60.4c0.1-7.2-0.2-13.5-0.8-19.1c20.7-6.9,33.4-15.4,32.7-23.6
				c-0.4-4.8-5.3-8.9-13.6-12.3c9-5,14-10.3,13.6-15.5c-0.4-4.8-5.3-8.9-13.6-12.3C2725.8,1204.9,2730.8,1199.6,2730.4,1194.4z"/>
			<g>
				
					<linearGradient id="SVGID_28_" gradientUnits="userSpaceOnUse" x1="2504.9375" y1="-1174.1436" x2="3091.5427" y2="-2515.9167" gradientTransform="matrix(1 0 0 1 0 2710)">
					<stop  offset="0" style="stop-color:#4F52FF"/>
					<stop  offset="1" style="stop-color:#4042E2"/>
				</linearGradient>
				<path class="st30" d="M2590.5,1290.3c-18,0-34.4-1.3-48-3.9c-0.8-0.2-1.3-0.9-1.2-1.7c0.2-0.8,0.9-1.3,1.7-1.2
					c21.3,4.1,49.7,5,80,2.5c24.8-2,48-6,67.1-11.6c0.8-0.2,1.6,0.2,1.8,1s-0.2,1.6-1,1.8c-19.3,5.6-42.6,9.7-67.6,11.7
					C2612,1289.8,2601,1290.3,2590.5,1290.3z"/>
				
					<linearGradient id="SVGID_29_" gradientUnits="userSpaceOnUse" x1="2497.2327" y1="-1177.5125" x2="3083.8369" y2="-2519.2837" gradientTransform="matrix(1 0 0 1 0 2710)">
					<stop  offset="0" style="stop-color:#4F52FF"/>
					<stop  offset="1" style="stop-color:#4042E2"/>
				</linearGradient>
				<path class="st31" d="M2590.8,1262.4c-23.3,0-44.2-2.2-58.9-6.4c-0.8-0.2-1.2-1-1-1.8s1-1.2,1.8-1c21,6,54.7,7.8,90.3,5
					c35.2-2.8,68-10,87.8-19.1c0.7-0.3,1.6,0,1.9,0.7c0.3,0.7,0,1.6-0.7,1.9c-20.1,9.3-53.3,16.5-88.8,19.4
					C2612.2,1262,2601.3,1262.4,2590.8,1262.4z"/>
				
					<linearGradient id="SVGID_30_" gradientUnits="userSpaceOnUse" x1="2485.4446" y1="-1182.6653" x2="3072.0481" y2="-2524.4351" gradientTransform="matrix(1 0 0 1 0 2710)">
					<stop  offset="0" style="stop-color:#4F52FF"/>
					<stop  offset="1" style="stop-color:#4042E2"/>
				</linearGradient>
				<path class="st32" d="M2590.5,1234.7c-25.2,0-47.3-2.6-62.1-7.5c-0.8-0.3-1.2-1.1-0.9-1.8c0.3-0.8,1.1-1.2,1.8-0.9
					c20.7,6.8,55.7,9.1,93.7,6c35.2-2.8,68-10,87.8-19.1c0.7-0.3,1.6,0,1.9,0.7c0.3,0.7,0,1.6-0.7,1.9
					c-20.1,9.3-53.3,16.5-88.8,19.4C2612,1234.2,2601,1234.7,2590.5,1234.7z"/>
				
					<linearGradient id="SVGID_31_" gradientUnits="userSpaceOnUse" x1="2479.6919" y1="-1185.1809" x2="3066.2952" y2="-2526.9502" gradientTransform="matrix(1 0 0 1 0 2710)">
					<stop  offset="0" style="stop-color:#4F52FF"/>
					<stop  offset="1" style="stop-color:#4042E2"/>
				</linearGradient>
				<path class="st33" d="M2590.7,1206.8c-20,0-38.2-1.6-52.3-4.8c-0.8-0.2-1.3-1-1.1-1.7c0.2-0.8,1-1.3,1.7-1.1
					c21.3,4.7,51.9,5.9,84,3.4c34.9-2.8,67.6-9.9,87.4-18.9c0.7-0.3,1.6,0,1.9,0.7c0.3,0.7,0,1.6-0.7,1.9
					c-20.1,9.2-53.1,16.3-88.4,19.2C2612.2,1206.4,2601.2,1206.8,2590.7,1206.8z"/>
			</g>
			
				<linearGradient id="SVGID_32_" gradientUnits="userSpaceOnUse" x1="2625.6665" y1="-2071.7151" x2="2590.2695" y2="-1348.6116" gradientTransform="matrix(1 0 0 1 0 2710)">
				<stop  offset="0" style="stop-color:#FF928E"/>
				<stop  offset="1" style="stop-color:#FE7062"/>
			</linearGradient>
			<path class="st34" d="M2470.7,1054c-7.3-26-19.8-50.4-36.6-71.5c-36-45.4-94.8-137.7-102-263.7
				c-10.5-183.3,152-275.1,300.4-262.6c148.3,12.5,294.7,122.9,278.7,293.4c-9.9,104.9-68.6,184.5-112.3,230.2
				c-27.8,29-47.6,64.6-58.3,103.3c-13.1,47.4-44.3,106.4-118.6,110C2525.9,1197.7,2486,1108.2,2470.7,1054z"/>
			
				<linearGradient id="SVGID_33_" gradientUnits="userSpaceOnUse" x1="3300.4441" y1="-2271.6404" x2="2445.8665" y2="-1523.2532" gradientTransform="matrix(1 0 0 1 0 2710)">
				<stop  offset="0" style="stop-color:#E1473D"/>
				<stop  offset="1" style="stop-color:#E9605A"/>
			</linearGradient>
			<path class="st35" d="M2646.4,1156.5l51.9-337.6c1.1-7,4.5-11.7,7.7-10.5s4.9,7.8,3.8,14.8c0,0.2-0.1,0.4-0.1,0.6l-59.1,334.4
				c-0.4,2.5-1.7,4.1-2.9,3.5C2646.6,1161.3,2646.1,1158.9,2646.4,1156.5z"/>
			
				<linearGradient id="SVGID_34_" gradientUnits="userSpaceOnUse" x1="3252.2383" y1="-2326.6855" x2="2397.6616" y2="-1578.2993" gradientTransform="matrix(1 0 0 1 0 2710)">
				<stop  offset="0" style="stop-color:#E1473D"/>
				<stop  offset="1" style="stop-color:#E9605A"/>
			</linearGradient>
			<path class="st36" d="M2592.6,1159.2l-51.9-337.6c-1.1-7-4.5-11.7-7.7-10.5s-4.9,7.8-3.8,14.8c0,0.2,0.1,0.4,0.1,0.6l59.1,334.4
				c0.4,2.5,1.7,4.1,2.9,3.5C2592.4,1164,2592.9,1161.6,2592.6,1159.2z"/>
			<path class="st37" d="M2698,789.9c-1.3-2.1-4.4-2.9-6.8-1.8l-28.9,13.5l-10-28.6c-0.5-1.5-1.8-2.8-3.5-3.5
				c-3.3-1.4-7.3-0.1-8.9,2.7l-0.1,0.1l-23.8,43.3l-22.1-61.7v-0.1c-0.5-1.5-1.7-2.9-3.3-3.8c-3.7-2-8.6-1.1-10.9,2.1l-33.2,45.7
				c-1.4,1.9-0.9,4.4,1.2,5.8c2.2,1.5,5.4,1.1,7.1-0.8l29.3-32.6l26.3,58.7l0,0c0.4,0.9,1.2,1.8,2.3,2.3c2.5,1.2,5.6,0.4,6.9-1.8
				l25.4-40.8l9.6,20.6l0.1,0.2c0.1,0.1,0.1,0.3,0.2,0.4c1.3,2.1,4.4,2.9,6.8,1.8l34.3-16C2698.4,794.7,2699.3,792,2698,789.9z"/>
			<path class="st37" d="M2799.9,934.7c-1,0-2.1-0.3-3-1c-2.2-1.7-2.7-4.8-1-7.1c8.9-12,17-24.3,24.2-36.7c1.4-2.4,4.5-3.2,6.9-1.9
				c2.4,1.4,3.2,4.5,1.9,6.9c-7.4,12.7-15.7,25.4-24.8,37.7C2803,934,2801.4,934.7,2799.9,934.7z"/>
			<path class="st37" d="M2842.6,861.4c-0.7,0-1.4-0.1-2-0.4c-2.6-1.1-3.7-4.1-2.6-6.7c55-126.7,7.5-233.6,7-234.6
				c-1.2-2.5,0-5.5,2.5-6.7s5.5-0.1,6.7,2.5c0.5,1.1,49.9,111.9-7,242.9C2846.4,860.3,2844.5,861.4,2842.6,861.4z"/>
		</g>
		<g>
			<g>
				<g>
					<path class="st3" d="M2804.4,2098.6c-41-97.6-189.4-393.6-451.9-302.2c-3.9,1.3-3.4,7,0.6,7.7
						c57.9,10.7,272.4,64.9,444.4,298.4C2800.3,2106.3,2806.2,2103,2804.4,2098.6z"/>
					<path class="st3" d="M2802.1,2104.7c-59-55.6-234.8-270.8-468.1-172.5c-2.6,1.1-2,4.9,0.7,5.2c57.7,6.1,344.1,42.4,466.3,172
						C2804.2,2112.9,2805.6,2108,2802.1,2104.7z"/>
					<path class="st3" d="M2796.6,2080.3c-5.6-73.6-38.5-351.4-217.4-408.8c-1.3-0.4-2.4,1.1-1.6,2.2
						c21.6,30.4,178.4,255.1,216.3,407C2794.2,2082.4,2796.7,2082,2796.6,2080.3z"/>
					<path class="st3" d="M2814.4,2164.6c1.6,0.9,3.1-1.2,1.8-2.4c-31.6-31.5-162.5-147.2-328.6-90.2
						C2299.3,2136.5,2628.9,2064,2814.4,2164.6z"/>
					<path class="st3" d="M2810,2107c-0.4,5.5-8.2,6.2-9.4,0.8c-19.8-87.3-61.9-328,60.5-389.2
						C3006.1,1646.1,2829.7,1821.6,2810,2107z"/>
					<path class="st3" d="M2801.6,2106.3c20.6-53.6,99.9-220,264.9-130.1c2.8,1.5,1.9,5.8-1.3,6c-37.1,2.3-160.6,18.4-258.3,127.3
						C2804.6,2112.1,2800.3,2109.6,2801.6,2106.3z"/>
					<path class="st3" d="M2806,2119.8c7.6-33.1,47.1-99.5,247.9-38.7c1.2,0.4,0.9,2.2-0.4,2c-39.5-4.1-172.8-13.2-238.2,42.3
						C2811.2,2129.1,2804.8,2125.2,2806,2119.8z"/>
				</g>
				<path class="st3" d="M2863.9,3025.6l0.1-6.8v-7.3l-0.1-14.6l-0.2-29.2l-0.8-58.4c-0.5-38.9-1.3-77.8-2.1-116.7
					c-1.8-77.8-4-155.5-7.5-233.1s-8.3-155.2-15.8-232.5c-3.8-38.6-8.4-77.2-14.7-115.4c-6.1-38.3-14-76.3-26.8-112.9l3.5-1.4
					c7.6,18,14.3,36.5,19.3,55.5l3.9,14.2c1.2,4.7,2.3,9.5,3.4,14.3l3.4,14.3l3,14.3c7.8,38.3,13.8,77,18.5,115.7
					c4.8,38.7,8.4,77.6,11.6,116.5c3,38.9,5.2,77.8,7.1,116.8c1.7,38.9,2.9,77.9,3.9,116.9c0.6,39,1.2,77.9,1,116.9
					c0,39-0.6,77.9-1.6,116.9l-2.1,58.4l-1.3,29.2l-0.9,14.6l-0.5,7.3c-0.2,2.5-0.3,4.7-0.8,7.8L2863.9,3025.6z"/>
				<g>
					<path class="st3" d="M2931.8,2337.7c27.4-65.4,126.9-263.7,302.7-202.5c2.6,0.9,2.3,4.7-0.4,5.2
						c-38.8,7.2-182.5,43.5-297.7,199.9C2934.5,2342.9,2930.5,2340.6,2931.8,2337.7z"/>
					<path class="st3" d="M2933.3,2341.8c39.5-37.3,157.3-181.4,313.6-115.6c1.7,0.7,1.4,3.3-0.5,3.5
						c-38.6,4.1-230.5,28.4-312.4,115.3C2931.8,2347.3,2931,2344,2933.3,2341.8z"/>
					<path class="st3" d="M2937,2325.5c3.8-49.3,25.8-235.4,145.7-273.8c0.9-0.3,1.6,0.7,1.1,1.5
						c-14.4,20.4-119.5,170.9-144.9,272.7C2938.6,2326.9,2936.9,2326.6,2937,2325.5z"/>
					<path class="st3" d="M2925,2381.9c-1.1,0.6-2.1-0.8-1.2-1.6c21.2-21.1,108.8-98.6,220.2-60.4
						C3270.1,2363.1,3049.3,2314.5,2925,2381.9z"/>
					<path class="st3" d="M2928,2343.3c0.3,3.7,5.5,4.1,6.3,0.5c13.3-58.5,41.5-219.7-40.5-260.7
						C2796.6,2034.6,2914.8,2152.1,2928,2343.3z"/>
					<path class="st3" d="M2933.6,2342.9c-13.8-35.9-66.9-147.4-177.4-87.1c-1.9,1-1.3,3.9,0.9,4c24.9,1.6,107.6,12.3,173,85.3
						C2931.6,2346.8,2934.5,2345.1,2933.6,2342.9z"/>
					<path class="st3" d="M2930.6,2351.9c-5.1-22.2-31.5-66.6-166.1-25.9c-0.8,0.2-0.6,1.5,0.2,1.4c26.4-2.7,115.8-8.8,159.6,28.4
						C2927.2,2358.1,2931.5,2355.5,2930.6,2351.9z"/>
				</g>
				<path class="st3" d="M2904.7,3026.8c-0.4-2.5-0.4-4.1-0.6-6l-0.3-5.5l-0.6-10.9c-0.4-7.3-0.7-14.6-0.9-21.8l-1.4-43.7
					c-1-29.1-1-58.3-1.2-87.4c-0.1-29.1-0.1-58.3,0.4-87.4c0.6-29.1,1.3-58.3,2.6-87.4c1.3-29.1,2.8-58.3,4.9-87.4
					c2.2-29.1,4.8-58.2,8.4-87.2l2.8-21.7l3.3-21.7c2.3-14.4,4.8-28.9,7.9-43.2c1.4-7.2,3.1-14.3,4.9-21.4c0.9-3.6,1.7-7.1,2.7-10.7
					l3.1-10.6c4-14.1,9-28,15-41.4l3.5,1.4c-4.4,13.8-8.4,27.6-11.3,41.8l-2.3,10.6c-0.7,3.5-1.3,7.1-1.9,10.7l-1.9,10.7l-1.7,10.7
					c-1.1,7.1-2.2,14.3-3.1,21.5c-0.9,7.2-2.1,14.3-2.8,21.5c-1.7,14.4-3.3,28.8-4.8,43.2c-5.6,57.7-9.6,115.7-12.4,173.7
					c-2.8,58-4.8,116.1-6.3,174.3c-0.8,29.1-1,58.2-1.6,87.2l-0.5,43.6l-0.1,21.8v10.9l0.1,10.4L2904.7,3026.8z"/>
				<g>
					<path class="st3" d="M2736.6,2458.7c-35.1-57.2-155-228.1-291.9-141.6c-2,1.3-1.1,4.8,1.3,4.8c34,0.5,161.6,11.3,287.2,140
						C2735.2,2464,2738.2,2461.3,2736.6,2458.7z"/>
					<path class="st3" d="M2736.1,2462.8c-40.1-28.7-165.6-145.5-285.2-57.9c-1.3,1-0.6,3.3,1,3.2c33.3-2.5,199.3-10.8,284.1,57.8
						C2738.3,2467.7,2738.4,2464.5,2736.1,2462.8z"/>
					<path class="st3" d="M2730,2448c-12.2-45.9-64.8-217.9-172.7-234.6c-0.8-0.1-1.2,0.9-0.7,1.6
						c15.9,16.9,131.9,141.7,171.8,233.6C2728.9,2449.6,2730.2,2449.1,2730,2448z"/>
					<path class="st3" d="M2750.3,2499.3c1,0.4,1.6-1.1,0.7-1.7c-21.7-16.4-109.7-75.3-196.4-21.1
						C2456.4,2537.8,2633.4,2456,2750.3,2499.3z"/>
					<path class="st3" d="M2740.8,2463.4c0.5,3.5-3.9,4.8-5.2,1.5c-21.9-53-75.1-200.5-13.5-252.6
						C2794.9,2150.6,2717,2280.8,2740.8,2463.4z"/>
					<path class="st3" d="M2736,2463.9c5-36.1,29.4-150,133.5-111.2c1.8,0.7,1.8,3.4,0,3.9c-20.7,5.5-88.3,29.2-130.1,108.7
						C2738.4,2467.2,2735.7,2466.1,2736,2463.9z"/>
					<path class="st3" d="M2740.1,2471.9c0.2-21.7,14.4-68,135.1-51.5c0.7,0.1,0.8,1.3,0,1.3c-22.8,1.7-99.1,10.6-129.2,52.8
						C2744.2,2477.2,2740.1,2475.4,2740.1,2471.9z"/>
				</g>
				<path class="st3" d="M2882.9,3038.1l-3.4-18l-3.6-18.4l-7.5-36.8l-15.4-73.4c-5.2-24.5-10.7-48.9-16.2-73.2
					c-5.4-24.4-11-48.8-16.8-73.1c-11.7-48.6-24.4-96.9-38.2-144.9l-5.3-18l-5.5-17.9c-3.7-11.9-7.4-23.8-11.5-35.6
					c-8.3-23.5-16.8-46.9-28.4-68.9l3.2-1.9c6.8,10.6,13,21.7,18.3,33.1c2.8,5.7,5.5,11.4,7.8,17.2c2.5,5.8,4.9,11.6,7.1,17.5
					c9.2,23.4,17.4,47.2,24.8,71.2c14.7,48,26.8,96.7,38.2,145.5c5.6,24.4,11.1,48.9,16.4,73.4c5,24.5,9.9,49.1,14.6,73.7
					c4.7,24.6,9.3,49.2,13.4,73.9l6.1,37.1l2.9,18.6l1.3,9.3l0.6,4.7c0.2,1.6,0.5,3,0.6,5.1L2882.9,3038.1z"/>
			</g>
			<g>
				
					<linearGradient id="SVGID_35_" gradientUnits="userSpaceOnUse" x1="2958.9807" y1="565.7495" x2="2899.623" y2="252.7725" gradientTransform="matrix(1 0 0 1 0 2710)">
					<stop  offset="0" style="stop-color:#4F52FF"/>
					<stop  offset="1" style="stop-color:#4042E2"/>
				</linearGradient>
				<path class="st38" d="M2795.9,2794.8h159.9c10.5,0,18.2,15.8,15.9,32.3c-10.2,71.8-22.5,144.6-47.6,218.6
					c-4.6,13.7-13.5,22.2-23.1,22.2h-52.2c-9.5,0-18.2-8.4-22.7-21.9c-20.1-60.5-39.4-132.6-49-214.5
					C2775,2812.4,2784,2794.8,2795.9,2794.8z"/>
			</g>
		</g>
	</g>
</g>
</svg>
