<?xml version="1.0" encoding="utf-8"?>
<!-- Generator: Adobe Illustrator 25.2.1, SVG Export Plug-In . SVG Version: 6.00 Build 0)  -->
<svg version="1.1" xmlns="http://www.w3.org/2000/svg" xmlns:xlink="http://www.w3.org/1999/xlink" x="0px" y="0px"
	 viewBox="0 0 3710 3710" enable-background="new 0 0 3710 3710" xml:space="preserve">
<g id="Background">
</g>
<g id="Illustration">
	<linearGradient id="SVGID_1_" gradientUnits="userSpaceOnUse" x1="3559.8333" y1="4035.9988" x2="1126.7306" y2="1014.2381">
		<stop  offset="0" style="stop-color:#DAE3FE"/>
		<stop  offset="1" style="stop-color:#E9EFFD"/>
	</linearGradient>
	<path fill="url(#SVGID_1_)" d="M2890.5,2844.3c-55.9,58.8-108.8,96.8-150.5,126.8c-491.1,352.4-1072.2,249.7-1195.7,224.6
		c-182.4-37-534.9-108.6-789.8-408.4C368.8,2333.8,428.9,1619.4,728,1147.8c54.7-86.3,343.7-565,931.1-641.8
		c355.5-46.5,769.8,47.3,1069.9,298.7C3358.8,1332.4,3314,2398.5,2890.5,2844.3z"/>
	<g>
		<path fill="#91B3FA" d="M482.8,468.8c-2.6-11,12.9-18.4,22.4-10.7c96.4,78.2,328.1,312.3,270.4,721.5
			c-72.4,513.4,51.4,700.7,205.6,814.9c0,0-211.7-53.7-344.9-243.8C309.2,1284.1,528.8,664.8,482.8,468.8z"/>
		<path fill="#FFFFFF" d="M556.1,629.2c12.1,57.1,22.8,114.5,31.1,172.1c8.7,57.5,15.3,115.3,19.8,173.1
			c4.3,57.8,7.3,115.7,7.5,173.7c0.5,57.9-1.9,115.8-4.6,173.9c-2.3,58.1-5,116.6-0.7,175.5c4.2,58.8,16.6,118.1,41.1,173.7
			c6.1,13.9,12.6,27.7,19.9,41c7.1,13.5,14.8,26.7,22.8,39.8c16.2,26.1,34.4,51.3,54.7,75.2c40.7,47.8,89.9,90.2,144,126
			c5.7,3.8,13.9,2.8,18.2-2.1c4.3-4.8,3.3-11.7-2.1-15.5l0,0c-12.9-9-25.6-18.2-37.9-27.8c-6.2-4.7-12.2-9.7-18.2-14.5
			c-5.8-5-11.9-9.9-17.5-15.1c-23-20.5-44.3-42.3-63.6-65.4c-38.9-45.9-70-97.1-93.5-150.2c-11.4-26.7-20.6-54-27.3-81.9
			c-6.7-27.9-10.8-56.2-13.2-84.8c-4.6-57.2-2.5-115.1-0.7-173.2c1.7-58.1,3-116.5,1.4-174.9c-0.7-29.2-2-58.3-3.8-87.5
			c-0.8-14.6-2-29.1-3.2-43.7c-1.3-14.5-2.7-29.1-4.2-43.6c-6.3-58.1-14.6-115.9-25-173.5C590.5,742,578,684.7,563,628
			c-0.4-1.6-2.3-2.6-4.2-2.3C557,626.1,555.8,627.6,556.1,629.2z"/>
	</g>
	<g>
		<g>
			<path fill="#BDD0FB" d="M732.5,1736.5c-11.8,12.5-32.6,8.9-39.7-6.8c-39.2-86.6-128-341.6,18.6-635.4
				C835.3,846.3,878.8,700,894,632.2c3.2-14.3,22.9-16.2,28.8-2.8C988.2,777.7,1160.9,1281.9,732.5,1736.5z"/>
			<path fill="#FFFFFF" d="M711.1,1727.3c-0.4,0.1-0.9,0.1-1.3,0.1c-3.7-0.1-6.7-3.1-6.6-6.8c0.1-4.2,8.3-425.3,164.9-778
				c1.5-3.4,5.5-4.9,8.9-3.4c3.4,1.5,4.9,5.5,3.4,8.9c-155.5,350.1-163.7,768.6-163.7,772.7C716.5,1724.1,714.2,1726.8,711.1,1727.3
				z"/>
		</g>
	</g>
	<g>
		<linearGradient id="SVGID_2_" gradientUnits="userSpaceOnUse" x1="1937.8929" y1="2454.1865" x2="1937.8929" y2="3665.5378">
			<stop  offset="0" style="stop-color:#09005D"/>
			<stop  offset="1" style="stop-color:#1A0F91"/>
		</linearGradient>
		<polygon fill="url(#SVGID_2_)" points="1650.3,2508.3 1590.3,3045.6 2285.4,3045.6 2194.9,2508.3 		"/>
		<linearGradient id="SVGID_3_" gradientUnits="userSpaceOnUse" x1="1853.9139" y1="509.1488" x2="1874.1047" y2="2588.6309">
			<stop  offset="0" style="stop-color:#09005D"/>
			<stop  offset="1" style="stop-color:#1A0F91"/>
		</linearGradient>
		<path fill="url(#SVGID_3_)" d="M482.6,1184.4V2415c0,101.2,80.7,184,181.9,186.6c449.5,11.6,2021.5,39.7,2449.4,33.4
			c73.5-1.1,133.1-59.9,135.2-133.5c8.3-285.9,21.7-973.4-27.9-1292.5c-10.4-67.2-67.2-117.5-135.2-119.6
			c-376.6-12-2043.1-50.3-2470.8-40.7C541.5,1050.4,482.6,1110.6,482.6,1184.4z"/>
		<path fill="#91B3FA" d="M559.8,1178.4v1169.2c0,59.1,47.4,107.3,106.5,108.2l2386,29.5c58.6,0.9,106.6-46.3,106.8-104.9l4-1158.7
			c0.2-41.9-33.2-76.2-75.1-77.2L645.3,1095C598.4,1093.9,559.8,1131.6,559.8,1178.4z"/>
		<path fill="#91B3FA" d="M3177.2,2533.5C3177.1,2533.5,3177.1,2533.5,3177.2,2533.5l-2617.4-44.6c-2,0-3.6-1.7-3.6-3.7
			c0-2,1.6-3.6,3.7-3.6l2617.3,44.6c2,0,3.6,1.7,3.6,3.7C3180.8,2531.9,3179.2,2533.5,3177.2,2533.5z"/>
		<linearGradient id="SVGID_4_" gradientUnits="userSpaceOnUse" x1="2010.7751" y1="2110.1526" x2="1923.2897" y2="3159.9868">
			<stop  offset="0" style="stop-color:#09005D"/>
			<stop  offset="1" style="stop-color:#1A0F91"/>
		</linearGradient>
		<path fill="url(#SVGID_4_)" d="M2435.2,3155.5H1417.8c-27.6,0-48.4-19.7-43-40.8l13.1-51.6c3.9-15.5,21-26.9,41.3-27.6l980.7-30.6
			c21.2-0.7,40,10.6,44.6,26.7l23.5,82.2C2484.1,3135.2,2463.2,3155.5,2435.2,3155.5z"/>
		<path fill="#91B3FA" d="M1965.5,3049.9c-2,0-3.6-1.6-3.7-3.6c0-2,1.6-3.7,3.6-3.7l42-0.6h0.1c2,0,3.6,1.6,3.7,3.6
			c0,2-1.6,3.7-3.6,3.7L1965.5,3049.9C1965.5,3049.9,1965.5,3049.9,1965.5,3049.9z"/>
		<path fill="#91B3FA" d="M1412.5,3127.4c-0.2,0-0.4,0-0.6,0c-2-0.3-3.4-2.2-3-4.2l6-37.5c3.2-20.3,20.6-35.3,41.2-35.6l445.7-6.5
			c1.9-0.1,3.7,1.6,3.7,3.6c0,2-1.6,3.7-3.6,3.7l-445.7,6.5c-17,0.3-31.3,12.6-34,29.5l-6,37.5
			C1415.8,3126.1,1414.2,3127.4,1412.5,3127.4z"/>
	</g>
	<g>
		<path opacity="0.44" fill="#FFFFFF" d="M2643.5,1538.8h-265.2c-16.6,0-30.1-13.5-30.1-30.1c0-16.6,13.5-30.1,30.1-30.1h265.2
			c16.6,0,30.1,13.5,30.1,30.1C2673.6,1525.3,2660.1,1538.8,2643.5,1538.8z"/>
		<path opacity="0.43" fill="#FFFFFF" d="M2741.1,1491.4h286.2c18,0,32.5,53.5,32.5,119.6v704.2c0,66-14.6,119.6-32.5,119.6h-286.2
			c-18,0-32.5-53.5-32.5-119.6V1611C2708.6,1544.9,2723.1,1491.4,2741.1,1491.4z"/>
		<path opacity="0.46" fill="#FFFFFF" d="M2378.3,1572.3h265.2c16.6,0,30.1,13.5,30.1,30.1V1780c0,16.6-13.5,30.1-30.1,30.1h-265.2
			c-16.6,0-30.1-13.5-30.1-30.1v-177.5C2348.1,1585.8,2361.6,1572.3,2378.3,1572.3z"/>
		<path opacity="0.38" fill="#FFFFFF" d="M2378.3,1863.3h265.2c16.6,0,30.1,32.5,30.1,72.6v427.8c0,40.1-13.5,72.6-30.1,72.6h-265.2
			c-16.6,0-30.1-32.5-30.1-72.6V1936C2348.1,1895.8,2361.6,1863.3,2378.3,1863.3z"/>
		<path opacity="0.42" fill="#FFFFFF" d="M3056.6,1441.2H680.8c-27.5,0-49.8-22.3-49.8-49.8v-198.2c0-28,23.1-50.5,51.1-49.8
			l2375.8,60.1c27,0.7,48.5,22.8,48.5,49.8v138.1C3106.4,1419,3084.1,1441.2,3056.6,1441.2z"/>
		<path opacity="0.58" fill="#FFFFFF" d="M2261.8,2256h-800.5c-20.2,0-36.5-16.3-36.5-36.5v-682.8c0-20.2,16.3-36.5,36.5-36.5h800.5
			c20.2,0,36.5,16.3,36.5,36.5v682.8C2298.3,2239.6,2281.9,2256,2261.8,2256z"/>
		<path opacity="0.28" fill="#FFFFFF" d="M2296,2448.9l-1646-13.8c-20-0.2-36-16.4-36-36.4v-58.1c0-27.8,22.5-50.3,50.3-50.3h1629.5
			c10.7,0,19.4,8.7,19.4,19.4v122.1C2313.2,2441.3,2305.5,2449,2296,2448.9z"/>
		<path opacity="0.47" fill="#FFFFFF" d="M1339.6,2238.5H648.4c-19,0-34.4-15.4-34.4-34.4V1513c0-19,15.4-34.4,34.4-34.4h691.2
			c19,0,34.4,15.4,34.4,34.4v691.2C1374,2223.1,1358.6,2238.5,1339.6,2238.5z"/>
	</g>
	<g>
		<g>
			<g>
				<linearGradient id="SVGID_5_" gradientUnits="userSpaceOnUse" x1="1773.8389" y1="2203.6516" x2="2655.4338" y2="1584.5159">
					<stop  offset="0" style="stop-color:#FF928E"/>
					<stop  offset="1" style="stop-color:#FE7062"/>
				</linearGradient>
				<path fill="url(#SVGID_5_)" d="M1847.3,1557.2l778.5-7c15.3-0.1,27.7,12.2,27.6,27.5l-3.4,597.4c-0.1,15.4-12.8,27.6-28.1,27.2
					c-140.8-4.2-765.7-22.7-793.2-21.6c-27.3,1.1-12.5-478.7-8.4-597.1C1820.7,1569,1832.6,1557.3,1847.3,1557.2z"/>
				<path opacity="0.69" fill="#FFFFFF" d="M2622.6,2179.8l-0.2,0c-111.8-3.3-674.9-20.1-778.7-21.5l-1.4,0l-0.2-1.4
					c-9.8-55.1-9.6-279.8,0.5-572.5c0.1-2.6,2.2-4.6,4.8-4.6l778.5-7c1.7,0,2.8,0.8,3.5,1.4c0.9,0.9,1.4,2.1,1.4,3.4l-3.4,597.4
					C2627.4,2177.6,2625.2,2179.8,2622.6,2179.8z M1845.3,2154.9c107.4,1.6,666,18.2,777.3,21.5l0.1,0c0.7,0,1.4-0.7,1.4-1.5
					l3.4-597.4c0-0.4-0.1-0.7-0.4-1c-0.3-0.3-0.6-0.4-1.1-0.4l-778.5,7c-0.8,0-1.4,0.6-1.4,1.4
					C1836.1,1874.6,1835.8,2097.8,1845.3,2154.9z"/>
			</g>
			<path fill="#FFFFFF" d="M1941.2,2103h510.3c15.9,0,25.8-17.3,17.7-31l-202-343.4c-8.4-14.3-29.5-13.2-36.4,1.9l-97.5,213.7
				c-5.8,12.7-22.3,16-32.6,6.6l-39.5-36.2c-9.2-8.4-23.6-6.8-30.7,3.4l-106.1,152.6C1914.9,2084.3,1924.6,2103,1941.2,2103z"/>
			
				<ellipse transform="matrix(0.9239 -0.3827 0.3827 0.9239 -471.443 1066.2959)" fill="#FFFFFF" cx="2444.6" cy="1718.2" rx="73.4" ry="73.4"/>
		</g>
		<g>
			<g>
				
					<linearGradient id="SVGID_6_" gradientUnits="userSpaceOnUse" x1="2864.9922" y1="2554.2798" x2="3110.3662" y2="1957.9476" gradientTransform="matrix(0.9998 -1.890000e-02 1.890000e-02 0.9998 -59.5478 19.4772)">
					<stop  offset="0" style="stop-color:#09005D"/>
					<stop  offset="1" style="stop-color:#1A0F91"/>
				</linearGradient>
				<path fill="url(#SVGID_6_)" d="M3112.6,2273c-17.9-66.3-73.3-120.7-134.9-134.4c-11.3-2.5-17.9-14.1-15.2-25.4
					c0-0.1,0-0.2,0.1-0.2c8.9-38.5-15.8-69.2-53-77.9c-37.2-8.6-72.9,8.1-81.9,46.6c-6,26,1.7,55.3,18.8,74.2
					c7,7.8,7.6,19.5,0.8,27.5c-37.6,44-52.9,111.2-36.6,171.3c23.9,88.5,107.2,128.1,190.6,105.5
					C3084.5,2437.6,3136.5,2361.5,3112.6,2273z"/>
				<path fill="#91B3FA" d="M3086.6,2357.5l-1.6-1.1c14.9-21.2,16.8-51.8,5-79.8c-9.4-22.3-26.2-42.7-53-64.1
					c-10-8-20.5-15.6-30.7-22.9c-12.3-8.8-25-18-36.8-27.9c-10.6-8.9-21.8-20-24.1-34.5c-1.2-7.2-0.1-14.9,1-22.4
					c1.7-11.7,3.2-22.7-3.6-31.1l1.5-1.2c7.4,9.1,5.7,21.1,4,32.6c-1,7.3-2.1,14.9-1,21.8c2.2,13.9,13.1,24.6,23.4,33.3
					c11.7,9.9,24.4,19,36.7,27.8c10.2,7.4,20.8,15,30.8,23c27,21.7,44,42.3,53.6,64.9C3104,2304.4,3102,2335.7,3086.6,2357.5z"/>
				<path fill="#91B3FA" d="M3047,2370.3l-1.9-0.7c10.2-28.1,7.2-62.6-8.2-94.7c-15.2-31.8-40.1-57.8-60-76.8l1.4-1.4
					c20.1,19.2,45.1,45.3,60.5,77.4C3054.3,2306.6,3057.3,2341.7,3047,2370.3z"/>
			</g>
			<linearGradient id="SVGID_7_" gradientUnits="userSpaceOnUse" x1="2633.8401" y1="1920.7799" x2="2845.0955" y2="2397.7812">
				<stop  offset="0" style="stop-color:#FEBBBA"/>
				<stop  offset="1" style="stop-color:#FF928E"/>
			</linearGradient>
			<path fill="url(#SVGID_7_)" d="M2647,2006.8l-0.7-22.9l23.9-47.5c4.4-8.7,4.4-18.9,0.1-27.6l-27.1-54.7
				c0,0-15.6,118.7-19.8,128.6c-4.1,9.9,11.2,27.6,11.2,27.6L2647,2006.8z"/>
			<linearGradient id="SVGID_8_" gradientUnits="userSpaceOnUse" x1="2637.5935" y1="1919.1177" x2="2848.8489" y2="2396.1189">
				<stop  offset="0" style="stop-color:#FEBBBA"/>
				<stop  offset="1" style="stop-color:#FF928E"/>
			</linearGradient>
			<path fill="url(#SVGID_8_)" d="M2646.3,1983.9c0,0,72.7,198.3,196.7,260.3c0,0-41.3,67.3-62.8,71.4c0,0-132.4-169.5-145.9-308.3
				L2646.3,1983.9z"/>
			<linearGradient id="SVGID_9_" gradientUnits="userSpaceOnUse" x1="3164.469" y1="2883.8752" x2="3178.9971" y2="3242.2373">
				<stop  offset="0" style="stop-color:#4F52FF"/>
				<stop  offset="1" style="stop-color:#4042E2"/>
			</linearGradient>
			<path fill="url(#SVGID_9_)" d="M3144.8,3176.9l3.7,30.1c3.8,14.3,22.2,50.3,45.8,48c14.5-1.4,16.3-43.9,14.3-50.3
				c-3.7-11.6-10.4-29-20.2-39.3H3155C3148.9,3165.3,3144.1,3170.7,3144.8,3176.9z"/>
			<linearGradient id="SVGID_10_" gradientUnits="userSpaceOnUse" x1="2872.9814" y1="3445.9207" x2="2965.5432" y2="2364.105">
				<stop  offset="0" style="stop-color:#FEBBBA"/>
				<stop  offset="1" style="stop-color:#FF928E"/>
			</linearGradient>
			<path fill="url(#SVGID_10_)" d="M2883.5,2824.5l-5.6,33.1c0,0,18.9,191,22.2,267.4c0.5,12-2.6,23.8-8.9,34l-32.8,53.2l83.3-49.2
				l1.7-10.2l-13.6-18.8l17.9-214c1-12.6-1.5-25.2-7.5-36.3l-17.2-32.4L2883.5,2824.5z"/>
			<linearGradient id="SVGID_11_" gradientUnits="userSpaceOnUse" x1="2916.4575" y1="2855.4067" x2="2894.665" y2="3250.0901">
				<stop  offset="0" style="stop-color:#4F52FF"/>
				<stop  offset="1" style="stop-color:#4042E2"/>
			</linearGradient>
			<path fill="url(#SVGID_11_)" d="M2853,3220.1h26.6c5,0,9.7-2.3,12.7-6.2c8.3-10.8,25.5-31.8,33.7-32.3
				c11.1-0.7,9.6,38.6,9.6,38.6h6.2l7.9-48.8c2-12.3-4.1-24.5-15.2-30.2l0,0c0,0-2.5,18.7-16.2,27c-13.7,8.3-55.8,37.9-55.8,37.9
				s-5.2-0.7-10.8,0.3C2843.3,3207.6,2844.4,3220.1,2853,3220.1z"/>
			<linearGradient id="SVGID_12_" gradientUnits="userSpaceOnUse" x1="3059.1748" y1="3462.0171" x2="3151.7607" y2="2379.9177">
				<stop  offset="0" style="stop-color:#FEBBBA"/>
				<stop  offset="1" style="stop-color:#FF928E"/>
			</linearGradient>
			<path fill="url(#SVGID_12_)" d="M2997.7,2840.3c0,0,110.5,209.6,128,257.4c17.6,47.8,23.7,87.8,23.9,91.5
				c0.4,5.9,7.7,11.6,28,11.6c10.4,0,15.6-4.2,18.1-8.2c2.1-3.5,2.2-7.8,0.4-11.4c-6.4-12.9-26.7-54.3-34.2-73
				c-9-22.4-28.3-123.8-38.8-159.1c-10.6-35.3-22.5-73.5-68.6-108.8C3054.5,2840.3,3022.9,2809.3,2997.7,2840.3z"/>
			<linearGradient id="SVGID_13_" gradientUnits="userSpaceOnUse" x1="3024.6038" y1="2165.1802" x2="2745.1008" y2="2555.7673">
				<stop  offset="0" style="stop-color:#FF928E"/>
				<stop  offset="1" style="stop-color:#FE7062"/>
			</linearGradient>
			<path fill="url(#SVGID_13_)" d="M2927.9,2496.9c-16.2-68.6,0.1-120.2,17.2-152.1c13.6-25.4,4-56.8-21.5-70.1
				c-40-20.8-80.5-30.5-80.5-30.5s-79.2,57.9-69.8,103.2c5.5,26.6,55.7,159.1,55.7,159.1S2875.3,2528.5,2927.9,2496.9z"/>
			<linearGradient id="SVGID_14_" gradientUnits="userSpaceOnUse" x1="3179.1428" y1="2357.0522" x2="2681.2092" y2="3028.509">
				<stop  offset="0" style="stop-color:#4F52FF"/>
				<stop  offset="1" style="stop-color:#4042E2"/>
			</linearGradient>
			<path fill="url(#SVGID_14_)" d="M2991.1,2556.7c-11.6-34.9-63.2-59.8-63.2-59.8c-52.6,31.6-99,9.6-99,9.6s-10.4,39.8-3.2,76.7
				c7.2,36.9,52.2,274.4,52.2,274.4c71,14.4,180.1-14.5,180.1-14.5C3012.8,2762.9,3002.7,2591.6,2991.1,2556.7z"/>
			<linearGradient id="SVGID_15_" gradientUnits="userSpaceOnUse" x1="2862.8303" y1="2379.575" x2="2880.2178" y2="2252.3726">
				<stop  offset="0" style="stop-color:#FEBBBA"/>
				<stop  offset="1" style="stop-color:#FF928E"/>
			</linearGradient>
			<path fill="url(#SVGID_15_)" d="M2894.8,2164.4l23.2,104.1c2.2,9.2-6.1,7.7-15.4,5.9c-15.2-2.9-34.7-8.8-41.3-20.6
				c-0.7-1.2-1-2.6-1.2-3.9l-10-72.2c-0.8-5.7,2.3-11.3,7.6-13.6l19.2-8.5C2884.3,2152.3,2892.9,2156.6,2894.8,2164.4z"/>
			<linearGradient id="SVGID_16_" gradientUnits="userSpaceOnUse" x1="2770.9216" y1="2082.1519" x2="2754.5742" y2="2484.5427">
				<stop  offset="0" style="stop-color:#FEBBBA"/>
				<stop  offset="1" style="stop-color:#FF928E"/>
			</linearGradient>
			<path fill="url(#SVGID_16_)" d="M2605.2,2095.7c0,0,61,211.8,306.9,191.9c15.7-1.3,29.6,10.4,30.8,26.1l0.7,8.5
				c1.8,22.8-16.8,42-39.7,40.9c-81.8-4.1-257.4-36.3-317.6-230.6L2605.2,2095.7z"/>
			<linearGradient id="SVGID_17_" gradientUnits="userSpaceOnUse" x1="2588.2427" y1="2078.688" x2="2573.0137" y2="2453.5513">
				<stop  offset="0" style="stop-color:#FEBBBA"/>
				<stop  offset="1" style="stop-color:#FF928E"/>
			</linearGradient>
			<path fill="url(#SVGID_17_)" d="M2586.2,2132.5c0,0-11.7-34.5-14.7-56s7.9-69.9,17.2-83.5c9.3-13.6,10.9,19.7,15.1,35.4
				c4.2,15.7-2.9,38-2.9,38l4.3,29.3L2586.2,2132.5z"/>
			<g>
				
					<linearGradient id="SVGID_18_" gradientUnits="userSpaceOnUse" x1="-5429.1294" y1="2967.6506" x2="-5312.6914" y2="3101.5237" gradientTransform="matrix(0.9653 0.2612 -0.2612 0.9653 8856.9795 649.0368)">
					<stop  offset="0" style="stop-color:#FEBBBA"/>
					<stop  offset="1" style="stop-color:#FF928E"/>
				</linearGradient>
				<path fill="url(#SVGID_18_)" d="M2847.3,2078.6c0,0-58.6,85.3-22.2,109.1c36.4,23.8,78.1-36.9,78.1-36.9s13.1-46.4-1.8-61.7
					C2886.6,2073.7,2847.3,2078.6,2847.3,2078.6z"/>
				
					<linearGradient id="SVGID_19_" gradientUnits="userSpaceOnUse" x1="2742.2405" y1="2510.6812" x2="2989.8013" y2="1909.0344" gradientTransform="matrix(0.9998 -1.890000e-02 1.890000e-02 0.9998 -59.5478 19.4772)">
					<stop  offset="0" style="stop-color:#09005D"/>
					<stop  offset="1" style="stop-color:#1A0F91"/>
				</linearGradient>
				<path fill="url(#SVGID_19_)" d="M2871.9,2057.9c0,0-25.5,6.5-28.9,18.2c-3.4,11.7,36.7,21.6,47.9,22l9.9,46.6
					c0,0,25.8-44.5,14.8-69.7C2904.6,2049.7,2871.9,2057.9,2871.9,2057.9z"/>
				
					<linearGradient id="SVGID_20_" gradientUnits="userSpaceOnUse" x1="-5400.0376" y1="2942.3469" x2="-5283.6011" y2="3076.218" gradientTransform="matrix(0.9653 0.2612 -0.2612 0.9653 8856.9795 649.0368)">
					<stop  offset="0" style="stop-color:#FEBBBA"/>
					<stop  offset="1" style="stop-color:#FF928E"/>
				</linearGradient>
				<path fill="url(#SVGID_20_)" d="M2891.5,2144.8c0,0,22.9-27.6,32.6-10.1c9.6,17.5-20.5,31.4-31.2,22.9L2891.5,2144.8z"/>
			</g>
		</g>
	</g>
	<g>
		<g>
			<g>
				<path fill="#91B3FA" d="M700,2963l932.7,0v-151.5l-932.7,0C720,2811.5,720,2963,700,2963z"/>
				<linearGradient id="SVGID_21_" gradientUnits="userSpaceOnUse" x1="1171.2394" y1="1925.7365" x2="1181.3337" y2="2447.2898">
					<stop  offset="0" style="stop-color:#FF928E"/>
					<stop  offset="1" style="stop-color:#FE7062"/>
				</linearGradient>
				<path fill="url(#SVGID_21_)" d="M1632.7,2925.1v-69.3c0-24.4-18.4-44.2-41.2-44.2H704c-17.9,0-32.4-11.8-32.4-26.3
					c0-4.4,4.4-8,9.8-8h970.1c22.2,0,57.6,28.4,57.6,63.4v96.8c0,33-34.3,59.8-55.3,59.8H686.5c-8.3,0-14.9-5.4-14.9-12.1
					c0-12.2,12.2-22.1,27.3-22.1h898.6C1616.9,2963,1632.7,2946,1632.7,2925.1z"/>
			</g>
			<path opacity="0.76" fill="#FFFFFF" d="M1606.9,2845.9H732.3c-1.9,0-3.4-1.5-3.4-3.4c0-1.9,1.5-3.4,3.4-3.4h874.5
				c1.9,0,3.4,1.5,3.4,3.4C1610.2,2844.4,1608.7,2845.9,1606.9,2845.9z"/>
			<path opacity="0.76" fill="#FFFFFF" d="M1606.9,2868.4H732.3c-1.9,0-3.4-1.5-3.4-3.4s1.5-3.4,3.4-3.4h874.5
				c1.9,0,3.4,1.5,3.4,3.4S1608.7,2868.4,1606.9,2868.4z"/>
			<path opacity="0.76" fill="#FFFFFF" d="M1606.9,2890.9H732.3c-1.9,0-3.4-1.5-3.4-3.4s1.5-3.4,3.4-3.4h874.5
				c1.9,0,3.4,1.5,3.4,3.4S1608.7,2890.9,1606.9,2890.9z"/>
			<path opacity="0.76" fill="#FFFFFF" d="M1606.9,2913.4H732.3c-1.9,0-3.4-1.5-3.4-3.4c0-1.9,1.5-3.4,3.4-3.4h874.5
				c1.9,0,3.4,1.5,3.4,3.4C1610.2,2911.9,1608.7,2913.4,1606.9,2913.4z"/>
			<path opacity="0.76" fill="#FFFFFF" d="M1606.9,2935.9H732.3c-1.9,0-3.4-1.5-3.4-3.4c0-1.9,1.5-3.4,3.4-3.4h874.5
				c1.9,0,3.4,1.5,3.4,3.4C1610.2,2934.4,1608.7,2935.9,1606.9,2935.9z"/>
		</g>
		<g>
			<linearGradient id="SVGID_22_" gradientUnits="userSpaceOnUse" x1="1160.4968" y1="3911.1245" x2="1131.0215" y2="3310.2842">
				<stop  offset="0" style="stop-color:#4F52FF"/>
				<stop  offset="1" style="stop-color:#4042E2"/>
			</linearGradient>
			<path fill="url(#SVGID_22_)" d="M1729.7,3252.5H514.3c-8.1,0-14.7-6.6-14.7-14.7V3014c0-8.1,6.6-14.7,14.7-14.7h1215.4
				c8.1,0,14.7,6.6,14.7,14.7v223.8C1744.4,3245.9,1737.8,3252.5,1729.7,3252.5z"/>
			<path fill="#7D97F4" d="M762.1,3223.4h-97.5c-13.5,0-24.4-10.9-24.4-24.4v-146.2c0-13.5,10.9-24.4,24.4-24.4h97.5
				c13.5,0,24.4,10.9,24.4,24.4V3199C786.5,3212.5,775.6,3223.4,762.1,3223.4z"/>
			<path fill="#7D97F4" d="M843.1,3223.4h-15.2c-10.9,0-19.8-8.9-19.8-19.8v-155.3c0-10.9,8.9-19.8,19.8-19.8h15.2
				c10.9,0,19.8,8.9,19.8,19.8v155.3C862.9,3214.5,854,3223.4,843.1,3223.4z"/>
		</g>
	</g>
	<g>
		<g>
			
				<linearGradient id="SVGID_23_" gradientUnits="userSpaceOnUse" x1="1460.1759" y1="1315.9187" x2="1341.8503" y2="1559.814" gradientTransform="matrix(0.987 0.1608 -0.1608 0.987 126.9837 357.2448)">
				<stop  offset="0" style="stop-color:#09005D"/>
				<stop  offset="1" style="stop-color:#1A0F91"/>
			</linearGradient>
			<path fill="url(#SVGID_23_)" d="M1129.3,2096.1c-0.6,1.1-38.7,29.1-38.7,29.1s8.4,60.1,42.5,83.9c37.5,26.1,90.5-21.5,90.5-21.5
				s42.2,10,64.6-77.7c5.1-20.1-24.6-21.8-60.4-18.1C1181.6,2096.5,1129.3,2096.1,1129.3,2096.1z"/>
			<linearGradient id="SVGID_24_" gradientUnits="userSpaceOnUse" x1="1523.9419" y1="1641.4044" x2="1241.2927" y2="2334.5681">
				<stop  offset="0" style="stop-color:#FF928E"/>
				<stop  offset="1" style="stop-color:#FE7062"/>
			</linearGradient>
			<path fill="url(#SVGID_24_)" d="M1058.2,2301.2c14.9-10.2,31.3-18,48.8-22.7c6.6-1.8,41.9,8.5,63.8,8c30-0.7,60.6-14.4,85.3-8.2
				c24.6,6.1,44.7,14.1,56.3,22.4c34.8,24.7,55.2,70.9,67.6,116.5c-23.6,24.2-53.2,34.9-53.2,34.9l-5.5,222.1l-131.3,67.2
				l-149.9-75.2l5.4-217c0,0-47.6-22.2-51.1-30.2C991,2410.9,1016.2,2330.1,1058.2,2301.2z"/>
			<linearGradient id="SVGID_25_" gradientUnits="userSpaceOnUse" x1="964.1046" y1="2370.4368" x2="1213.6436" y2="2973.2195">
				<stop  offset="0" style="stop-color:#FEBBBA"/>
				<stop  offset="1" style="stop-color:#FF928E"/>
			</linearGradient>
			<path fill="url(#SVGID_25_)" d="M996.7,2418c0,0-63.8,176.8,81.7,249.5c30.2-4,18.6-54.2,18.6-54.2s-63.2-14-44.2-161.5
				C1035.2,2437.4,996.7,2418,996.7,2418z"/>
			
				<linearGradient id="SVGID_26_" gradientUnits="userSpaceOnUse" x1="-5573.5527" y1="2369.1409" x2="-5324.0137" y2="2971.9238" gradientTransform="matrix(-1 0 0 1 -4167.0742 0)">
				<stop  offset="0" style="stop-color:#FEBBBA"/>
				<stop  offset="1" style="stop-color:#FF928E"/>
			</linearGradient>
			<path fill="url(#SVGID_26_)" d="M1377,2418c0,0,43.9,184.6-81.7,249.5c-30.2-4-18.6-54.2-18.6-54.2s50.9-25.1,44.2-161.5
				C1338.5,2437.4,1377,2418,1377,2418z"/>
			<linearGradient id="SVGID_27_" gradientUnits="userSpaceOnUse" x1="1185.7622" y1="2448.3408" x2="1172.7909" y2="2973.686">
				<stop  offset="0" style="stop-color:#09005D"/>
				<stop  offset="1" style="stop-color:#1A0F91"/>
			</linearGradient>
			<path fill="url(#SVGID_27_)" d="M1318.1,2679.9h-271.3c-4.6,0-8.3-3.8-8.3-8.3v-177.8c0-4.6,3.8-8.3,8.3-8.3h271.3
				c4.6,0,8.3,3.8,8.3,8.3v177.8C1326.4,2676.1,1322.7,2679.9,1318.1,2679.9z"/>
			<g>
				
					<linearGradient id="SVGID_28_" gradientUnits="userSpaceOnUse" x1="1347.0853" y1="2737.2583" x2="1483.4496" y2="2737.2583" gradientTransform="matrix(1 7.700000e-03 -7.700000e-03 1 9.5247 16.8137)">
					<stop  offset="0" style="stop-color:#09005D"/>
					<stop  offset="1" style="stop-color:#1A0F91"/>
				</linearGradient>
				<path fill="url(#SVGID_28_)" d="M1452.7,2737.5c-33-7.6-109.1-3.5-109.1-3.5l-3.1,8.4l-5.1,41.7c0,0,72.5,13.1,108.3,13
					c3.6,0,7-0.6,10-1.5c1.1-1,2.2-2,3.2-3.1C1472,2776,1467.7,2751.7,1452.7,2737.5z"/>
				<linearGradient id="SVGID_29_" gradientUnits="userSpaceOnUse" x1="1425.5385" y1="2518.5737" x2="1281.5964" y2="2908.4565">
					<stop  offset="0" style="stop-color:#FEBBBA"/>
					<stop  offset="1" style="stop-color:#FF928E"/>
				</linearGradient>
				<path fill="url(#SVGID_29_)" d="M1321.7,2731.7l12.9,0.6c6.9,0.3,13.5,3.7,18.1,9.4c4.7,5.7,7.1,13.2,6.6,20.9
					c-0.3,6.1-2.8,11.8-7,15.9c-4.1,4.1-9.6,6.1-15.1,5.7l-19.7-1.4L1321.7,2731.7z"/>
			</g>
			<g>
				
					<linearGradient id="SVGID_30_" gradientUnits="userSpaceOnUse" x1="-5873.7095" y1="2697.6765" x2="-5737.2876" y2="2697.6765" gradientTransform="matrix(-0.9998 -2.000000e-02 -2.000000e-02 0.9998 -4813.9961 -50.8396)">
					<stop  offset="0" style="stop-color:#09005D"/>
					<stop  offset="1" style="stop-color:#1A0F91"/>
				</linearGradient>
				<path fill="url(#SVGID_30_)" d="M888,2733.5c33.1-6.6,109.2-0.1,109.2-0.1l2.9,8.5l4.1,41.8c0,0-72.8,10.8-108.6,9.7
					c-3.6-0.1-7-0.8-10-1.8c-1.1-1-2.1-2.1-3.1-3.2C867.8,2771.4,872.8,2747.2,888,2733.5z"/>
				<linearGradient id="SVGID_31_" gradientUnits="userSpaceOnUse" x1="1137.1478" y1="2401.0825" x2="993.1301" y2="2791.1702">
					<stop  offset="0" style="stop-color:#FEBBBA"/>
					<stop  offset="1" style="stop-color:#FF928E"/>
				</linearGradient>
				<path fill="url(#SVGID_31_)" d="M1019.1,2731.7l-12.9,0.2c-6.9,0.1-13.5,3.3-18.3,8.8c-4.8,5.6-7.4,13-7.2,20.7
					c0.2,6.1,2.5,11.9,6.6,16.1c4,4.2,9.4,6.4,14.9,6.2l19.8-0.8L1019.1,2731.7z"/>
			</g>
			<linearGradient id="SVGID_32_" gradientUnits="userSpaceOnUse" x1="1486.5491" y1="2511.0481" x2="1112.3525" y2="2792.1428">
				<stop  offset="0" style="stop-color:#4F52FF"/>
				<stop  offset="1" style="stop-color:#4042E2"/>
			</linearGradient>
			<path fill="url(#SVGID_32_)" d="M1461.9,2606.8c-14.9-34.4-51.5-40-82.6-23.9c-0.5,0.7-197.6,101.7-371.3,145.9
				c5,15.9,7.5,32.9,8.1,49.6c0.1,3.7,0,7.4-0.2,11c133.2-6.8,277.9-51.3,402.1-90.3C1456.6,2686.7,1478.5,2644.9,1461.9,2606.8z"/>
			<linearGradient id="SVGID_33_" gradientUnits="userSpaceOnUse" x1="1148.1609" y1="2763.1624" x2="1050.0891" y2="2513.0801">
				<stop  offset="0" style="stop-color:#4F52FF"/>
				<stop  offset="1" style="stop-color:#4042E2"/>
			</linearGradient>
			<path fill="url(#SVGID_33_)" d="M1322.7,2781.1c-0.5-19.2,3.2-37.1,11.2-53.7c0.2-0.8,0.5-1.5,0.7-2.2
				c-9.9-3.1-22.7-7.2-39.6-12.9c-123.4-42.2-217.5-84.9-307.3-133.9c-34.9-19.1-74.6-6.3-85.8,35c-10,36.9,11.9,68.3,45.2,79.4
				c99.4,33.1,47.7,23.9,80.1,34.4c87.2,27,195.8,51.5,295.6,58.2C1322.8,2783.9,1322.7,2782.5,1322.7,2781.1z"/>
			<linearGradient id="SVGID_34_" gradientUnits="userSpaceOnUse" x1="1183.1641" y1="2420.2068" x2="1179.8439" y2="2131.3223">
				<stop  offset="0" style="stop-color:#FEBBBA"/>
				<stop  offset="1" style="stop-color:#FF928E"/>
			</linearGradient>
			<path fill="url(#SVGID_34_)" d="M1107,2278.5c0,0,13.3,57.5,77.7,56.3c65.6-1.2,71.5-56.5,71.5-56.5l-42.9-9.2l-3.6-47.8
				l-64.5,4.8l-1.2,45.4L1107,2278.5z"/>
			
				<linearGradient id="SVGID_35_" gradientUnits="userSpaceOnUse" x1="1338.8527" y1="1709.54" x2="1349.1956" y2="1458.1606" gradientTransform="matrix(0.987 0.1608 -0.1608 0.987 126.9837 357.2448)">
				<stop  offset="0" style="stop-color:#FEBBBA"/>
				<stop  offset="1" style="stop-color:#FF928E"/>
			</linearGradient>
			<path fill="url(#SVGID_35_)" d="M1154.2,2086.1c0,0-73.9,143.1,13.8,177.9c61.8,24.5,100.6-95,89-127.4
				c-17.9-50.1-29.6-44.1-29.6-44.1L1154.2,2086.1z"/>
			
				<linearGradient id="SVGID_36_" gradientUnits="userSpaceOnUse" x1="1461.0428" y1="1281.5929" x2="1327.9011" y2="1556.0277" gradientTransform="matrix(0.987 0.1608 -0.1608 0.987 126.9837 357.2448)">
				<stop  offset="0" style="stop-color:#09005D"/>
				<stop  offset="1" style="stop-color:#1A0F91"/>
			</linearGradient>
			<path fill="url(#SVGID_36_)" d="M1274.8,2073c36.5,10,5.3,89.2-49.7,70.5c-55-18.7-76.6-18.4-85.1-3.4
				c-8.6,15.1-10.4,68.7-29,42.2c-20.4-29-31.7-87.3-6.8-106.1c22.3-16.8,27.5-42.8,54.3-41.9c35.5,1.2,63-14.6,79.1-3.2
				C1256.1,2044.1,1248,2065.6,1274.8,2073z"/>
			
				<linearGradient id="SVGID_37_" gradientUnits="userSpaceOnUse" x1="822.2534" y1="2641.6304" x2="838.4618" y2="2247.6965" gradientTransform="matrix(0.9911 -0.1329 0.1329 0.9911 -26.0254 -216.2621)">
				<stop  offset="0" style="stop-color:#FEBBBA"/>
				<stop  offset="1" style="stop-color:#FF928E"/>
			</linearGradient>
			<path fill="url(#SVGID_37_)" d="M1136.7,2152.5c0,0-15.8-17-18.3,3.5c-2.5,20.4,5.6,46.8,15.1,32.3
				C1142.9,2173.8,1136.7,2152.5,1136.7,2152.5z"/>
		</g>
		<path fill="#91B3FA" d="M1199.4,2567.4c1.5,10.3-4,19.7-14.3,21.2c-10.3,1.5-19.9-5.6-21.4-15.9c-1.5-10.3,3.2-20.6,13.5-22.1
			C1187.5,2549.1,1197.9,2557.1,1199.4,2567.4z"/>
	</g>
	<g>
		<circle fill="#FFFFFF" cx="1001.4" cy="1686.7" r="337"/>
		<g>
			<path fill="#91B3FA" d="M723.6,1670.3l70.7-36.9v15.7c0,1.2-0.3,2.3-0.9,3.3c-0.6,1-1.6,1.8-2.9,2.5l-32.4,16.6
				c-1.4,0.7-2.8,1.3-4.3,1.8c-1.5,0.5-3.1,1-4.9,1.4c1.7,0.4,3.3,0.9,4.9,1.4c1.5,0.5,3,1.1,4.3,1.8l32.4,16.7
				c1.4,0.7,2.4,1.6,2.9,2.5c0.6,1,0.9,2.1,0.9,3.3v15.7l-70.7-37V1670.3z"/>
			<path fill="#91B3FA" d="M826.5,1734.9v-132.7h22.1v51c3.6-3.4,7.5-6.1,11.8-8.2c4.3-2.1,9.3-3.1,15.1-3.1c5,0,9.4,0.8,13.3,2.5
				c3.9,1.7,7.1,4.1,9.7,7.1c2.6,3.1,4.6,6.7,5.9,11c1.3,4.3,2,8.9,2,14.1v58.3h-22.1v-58.3c0-5.6-1.3-9.9-3.9-13
				c-2.6-3.1-6.5-4.6-11.7-4.6c-3.8,0-7.4,0.9-10.7,2.6c-3.3,1.7-6.5,4.1-9.5,7.1v66.3H826.5z"/>
			<path fill="#91B3FA" d="M958.2,1736.3c-7.9,0-14-2.2-18.3-6.7c-4.3-4.5-6.4-10.7-6.4-18.6v-51.2h-9.3c-1.2,0-2.2-0.4-3.1-1.2
				c-0.9-0.8-1.3-1.9-1.3-3.5v-8.7l14.7-2.4l4.6-25c0.2-1.2,0.8-2.1,1.7-2.8c0.9-0.7,1.9-1,3.3-1h11.4v28.8h24.1v15.7h-24.1v49.6
				c0,2.9,0.7,5.1,2.1,6.7c1.4,1.6,3.3,2.4,5.7,2.4c1.4,0,2.5-0.2,3.4-0.5c0.9-0.3,1.7-0.7,2.4-1c0.7-0.4,1.3-0.7,1.8-1
				c0.5-0.3,1.1-0.5,1.6-0.5c0.7,0,1.2,0.2,1.6,0.5c0.4,0.3,0.9,0.8,1.3,1.5l6.6,10.7c-3.2,2.7-6.9,4.7-11.1,6.1
				C966.9,1735.7,962.6,1736.3,958.2,1736.3z"/>
			<path fill="#91B3FA" d="M997.2,1734.9v-91.6h13.5c2.9,0,4.7,1.3,5.6,4l1.4,6.8c1.6-1.8,3.3-3.4,5-4.9c1.8-1.5,3.6-2.8,5.6-3.8
				c2-1.1,4.1-1.9,6.4-2.5c2.3-0.6,4.8-0.9,7.5-0.9c5.8,0,10.5,1.6,14.2,4.7c3.7,3.1,6.5,7.3,8.3,12.5c1.4-3,3.2-5.6,5.4-7.8
				c2.1-2.2,4.5-3.9,7.1-5.3c2.6-1.4,5.3-2.4,8.2-3c2.9-0.7,5.8-1,8.7-1c5.1,0,9.6,0.8,13.5,2.3c3.9,1.5,7.2,3.8,9.9,6.8
				c2.7,3,4.7,6.6,6.1,10.9c1.4,4.3,2.1,9.2,2.1,14.7v58.3h-22.1v-58.3c0-5.8-1.3-10.2-3.8-13.2c-2.6-2.9-6.3-4.4-11.3-4.4
				c-2.3,0-4.4,0.4-6.3,1.2c-1.9,0.8-3.6,1.9-5.1,3.3c-1.5,1.5-2.6,3.3-3.4,5.5c-0.8,2.2-1.2,4.7-1.2,7.6v58.3h-22.1v-58.3
				c0-6.1-1.2-10.6-3.7-13.4c-2.5-2.8-6.1-4.2-10.9-4.2c-3.2,0-6.1,0.8-8.9,2.4c-2.8,1.6-5.3,3.7-7.7,6.5v67.1H997.2z"/>
			<path fill="#91B3FA" d="M1171,1602.2v132.7H1149v-132.7H1171z"/>
			<path fill="#91B3FA" d="M1204.6,1716.2v-15.7c0-1.2,0.3-2.3,0.9-3.3c0.6-1,1.6-1.8,2.9-2.5l32.4-16.7c2.6-1.3,5.7-2.4,9.2-3.2
				c-1.7-0.4-3.3-0.9-4.9-1.4c-1.5-0.5-3-1.1-4.3-1.8l-32.4-16.6c-1.4-0.7-2.4-1.6-2.9-2.5c-0.6-1-0.9-2.1-0.9-3.3v-15.7l70.7,36.9
				v8.9L1204.6,1716.2z"/>
		</g>
	</g>
	<g>
		<circle fill="#FFFFFF" cx="1774.5" cy="1469" r="296.9"/>
		<g>
			<path fill="#91B3FA" d="M1617.5,1469.5l85.8-44.7v19.1c0,1.4-0.4,2.8-1.1,4c-0.7,1.2-1.9,2.2-3.6,3.1l-39.3,20.1
				c-1.7,0.9-3.4,1.6-5.3,2.2c-1.8,0.6-3.8,1.2-5.9,1.7c2.1,0.5,4.1,1.1,5.9,1.7c1.8,0.6,3.6,1.4,5.3,2.2l39.3,20.3
				c1.7,0.9,2.9,1.9,3.6,3.1c0.7,1.2,1.1,2.5,1.1,3.9v19.1l-85.8-44.9V1469.5z"/>
			<path fill="#91B3FA" d="M1751.7,1548.2c-0.6,1.7-1.5,3.1-2.5,4.3c-1,1.2-2.2,2.3-3.5,3.1c-1.3,0.8-2.7,1.5-4.1,1.9
				c-1.4,0.4-2.9,0.7-4.2,0.7h-11.3l63.3-161.8c1.2-3,3-5.4,5.3-7c2.3-1.6,5.1-2.4,8.3-2.4h11.4L1751.7,1548.2z"/>
			<path fill="#91B3FA" d="M1836.8,1525.2v-19.1c0-1.4,0.4-2.8,1.1-3.9c0.7-1.2,1.9-2.2,3.6-3.1l39.3-20.3c3.2-1.6,6.9-2.9,11.2-3.9
				c-2.1-0.5-4.1-1.1-5.9-1.7c-1.8-0.6-3.6-1.4-5.3-2.2l-39.3-20.1c-1.7-0.9-2.9-1.9-3.6-3.1c-0.7-1.2-1.1-2.5-1.1-4v-19.1
				l85.8,44.7v10.8L1836.8,1525.2z"/>
		</g>
	</g>
	<g>
		<g opacity="0.64">
			<linearGradient id="SVGID_38_" gradientUnits="userSpaceOnUse" x1="3105.4875" y1="1634.6741" x2="3118.1479" y2="1634.6741">
				<stop  offset="0" style="stop-color:#4F52FF"/>
				<stop  offset="1" style="stop-color:#4042E2"/>
			</linearGradient>
			<path fill="url(#SVGID_38_)" d="M3108.9,1641c-0.9,0-1.7-0.3-2.4-1c-1.3-1.3-1.3-3.5,0.1-4.8c2-1.9,3.9-3.9,5.9-5.9
				c1.3-1.3,3.4-1.4,4.8-0.1c1.3,1.3,1.4,3.4,0.1,4.8c-2,2-4,4-6,6C3110.5,1640.7,3109.7,1641,3108.9,1641z"/>
			<linearGradient id="SVGID_39_" gradientUnits="userSpaceOnUse" x1="2576.6951" y1="1569.1674" x2="3100.0034" y2="1569.1674">
				<stop  offset="0" style="stop-color:#4F52FF"/>
				<stop  offset="1" style="stop-color:#4042E2"/>
			</linearGradient>
			<path fill="url(#SVGID_39_)" d="M2899,1729.6c-1.8,0-3.3-1.5-3.4-3.3c0-1.9,1.4-3.4,3.3-3.4c5.4-0.1,11-0.4,16.4-0.8
				c1.8-0.1,3.5,1.2,3.6,3.1c0.1,1.9-1.2,3.5-3.1,3.6C2910.3,1729.2,2904.6,1729.5,2899,1729.6
				C2899.1,1729.6,2899,1729.6,2899,1729.6z M2882.3,1729.6c0,0-0.1,0-0.1,0c-5.6-0.2-11.2-0.5-16.8-0.9c-1.9-0.2-3.2-1.8-3.1-3.6
				c0.2-1.8,1.8-3.2,3.6-3.1c5.4,0.5,11,0.8,16.4,0.9c1.9,0.1,3.3,1.6,3.3,3.5C2885.6,1728.1,2884.1,1729.6,2882.3,1729.6z
				 M2932.2,1727c-1.7,0-3.1-1.2-3.3-2.9c-0.2-1.8,1.1-3.5,2.9-3.8c5.4-0.7,10.9-1.6,16.3-2.6c1.8-0.3,3.6,0.9,3.9,2.7
				c0.3,1.8-0.9,3.6-2.7,3.9c-5.5,1-11.1,1.9-16.6,2.7C2932.5,1727,2932.3,1727,2932.2,1727z M2849.2,1726.8c-0.2,0-0.3,0-0.5,0
				c-5.6-0.8-11.1-1.7-16.6-2.7c-1.8-0.4-3-2.1-2.7-3.9c0.3-1.8,2.1-3,3.9-2.7c5.4,1,10.8,1.9,16.3,2.7c1.8,0.3,3.1,2,2.9,3.8
				C2852.2,1725.6,2850.8,1726.8,2849.2,1726.8z M2964.9,1720.9c-1.5,0-2.9-1-3.3-2.6c-0.4-1.8,0.7-3.6,2.5-4.1
				c5.3-1.3,10.6-2.8,15.9-4.3c1.8-0.5,3.7,0.5,4.2,2.2s-0.5,3.7-2.2,4.2c-5.4,1.6-10.8,3.1-16.2,4.4
				C2965.4,1720.8,2965.2,1720.9,2964.9,1720.9z M2816.4,1720.5c-0.3,0-0.5,0-0.8-0.1c-5.4-1.3-10.9-2.9-16.2-4.5
				c-1.8-0.5-2.8-2.4-2.2-4.2c0.5-1.8,2.4-2.8,4.2-2.2c5.2,1.6,10.6,3.1,15.9,4.4c1.8,0.4,2.9,2.3,2.5,4.1
				C2819.3,1719.5,2818,1720.5,2816.4,1720.5z M2996.8,1711.2c-1.4,0-2.7-0.9-3.2-2.2c-0.6-1.7,0.3-3.7,2-4.3
				c5.1-1.9,10.3-3.9,15.3-6c1.7-0.7,3.7,0.1,4.4,1.8c0.7,1.7-0.1,3.7-1.8,4.4c-5.2,2.2-10.4,4.3-15.7,6.1
				C2997.6,1711.2,2997.2,1711.2,2996.8,1711.2z M2784.6,1710.8c-0.4,0-0.8-0.1-1.2-0.2c-5.3-1.9-10.5-4-15.7-6.2
				c-1.7-0.7-2.5-2.7-1.8-4.4c0.7-1.7,2.7-2.5,4.4-1.8c5,2.1,10.2,4.2,15.3,6.1c1.7,0.6,2.6,2.6,2,4.3
				C2787.3,1709.9,2786,1710.8,2784.6,1710.8z M3027.5,1698.2c-1.2,0-2.4-0.7-3-1.9c-0.8-1.7-0.1-3.7,1.6-4.5
				c4.9-2.4,9.8-5,14.6-7.6c1.6-0.9,3.7-0.3,4.6,1.3c0.9,1.6,0.3,3.7-1.3,4.6c-4.9,2.7-9.9,5.3-14.9,7.8
				C3028.5,1698.1,3028,1698.2,3027.5,1698.2z M2754,1697.7c-0.5,0-1-0.1-1.5-0.3c-5-2.5-10-5.1-14.9-7.8c-1.6-0.9-2.2-3-1.3-4.6
				c0.9-1.6,2.9-2.2,4.6-1.3c4.8,2.7,9.7,5.2,14.6,7.6c1.7,0.8,2.4,2.8,1.5,4.5C2756.4,1697,2755.2,1697.7,2754,1697.7z
				 M3056.6,1682.1c-1.1,0-2.2-0.6-2.9-1.6c-1-1.6-0.5-3.7,1.1-4.6c4.6-2.9,9.3-6,13.7-9.1c1.5-1.1,3.6-0.7,4.7,0.8
				c1.1,1.5,0.7,3.6-0.8,4.7c-4.6,3.2-9.3,6.3-14,9.3C3057.8,1681.9,3057.2,1682.1,3056.6,1682.1z M2724.9,1681.5
				c-0.6,0-1.2-0.2-1.8-0.5c-4.7-3-9.4-6.1-14-9.4c-1.5-1.1-1.9-3.2-0.8-4.7c1.1-1.5,3.2-1.9,4.7-0.8c4.5,3.2,9.1,6.2,13.7,9.2
				c1.6,1,2,3.1,1,4.6C2727.1,1680.9,2726,1681.5,2724.9,1681.5z M3083.8,1663c-1,0-2-0.4-2.6-1.3c-1.1-1.5-0.9-3.6,0.6-4.7
				c4.3-3.4,8.6-6.9,12.7-10.5c1.4-1.2,3.5-1.1,4.7,0.3c1.2,1.4,1.1,3.5-0.3,4.7c-4.2,3.7-8.5,7.3-12.9,10.8
				C3085.3,1662.7,3084.6,1663,3083.8,1663z M2697.8,1662.2c-0.7,0-1.5-0.2-2.1-0.7c-4.4-3.5-8.7-7.1-12.9-10.8
				c-1.4-1.2-1.5-3.4-0.3-4.7c1.2-1.4,3.4-1.5,4.7-0.3c4.1,3.6,8.3,7.2,12.6,10.6c1.5,1.2,1.7,3.3,0.5,4.7
				C2699.7,1661.8,2698.8,1662.2,2697.8,1662.2z M2672.9,1640.2c-0.9,0-1.7-0.3-2.4-1c-4-3.9-7.9-8-11.7-12.1
				c-1.3-1.4-1.2-3.5,0.2-4.8c1.4-1.2,3.5-1.2,4.8,0.2c3.7,4,7.5,8,11.4,11.9c1.3,1.3,1.3,3.4,0,4.8
				C2674.6,1639.9,2673.7,1640.2,2672.9,1640.2z M2650.5,1615.6c-1,0-1.9-0.4-2.6-1.2c-3.5-4.3-7-8.8-10.3-13.3
				c-1.1-1.5-0.8-3.6,0.7-4.7c1.5-1.1,3.6-0.8,4.7,0.7c3.2,4.4,6.6,8.8,10.1,13c1.2,1.4,1,3.6-0.5,4.7
				C2652,1615.4,2651.2,1615.6,2650.5,1615.6z M2630.8,1588.8c-1.1,0-2.2-0.5-2.8-1.5c-3.1-4.7-6-9.5-8.8-14.3
				c-0.9-1.6-0.4-3.7,1.2-4.6c1.6-0.9,3.7-0.4,4.6,1.2c2.7,4.7,5.6,9.4,8.6,14c1,1.6,0.6,3.6-1,4.7
				C2632.1,1588.6,2631.4,1588.8,2630.8,1588.8z M2614.1,1559.9c-1.2,0-2.4-0.7-3-1.8c-1.2-2.3-2.4-4.7-3.5-7.1
				c-1.3-2.7-2.5-5.4-3.7-8.1c-0.8-1.7,0-3.7,1.7-4.4c1.7-0.8,3.7,0,4.4,1.7c1.2,2.6,2.4,5.3,3.7,7.9c1.1,2.3,2.3,4.7,3.4,7
				c0.8,1.7,0.2,3.7-1.5,4.5C2615.2,1559.8,2614.7,1559.9,2614.1,1559.9z M2600.6,1529.5c-1.4,0-2.6-0.8-3.1-2.2
				c-2-5.2-3.9-10.6-5.6-15.9c-0.6-1.8,0.4-3.7,2.2-4.2c1.8-0.6,3.7,0.4,4.2,2.2c1.7,5.2,3.5,10.4,5.5,15.5c0.7,1.7-0.2,3.7-1.9,4.3
				C2601.4,1529.5,2601,1529.5,2600.6,1529.5z M2590.4,1497.8c-1.5,0-2.8-1-3.2-2.5c-1.4-5.4-2.7-10.9-3.9-16.4
				c-0.4-1.8,0.8-3.6,2.6-4c1.8-0.4,3.6,0.8,4,2.6c1.1,5.4,2.4,10.8,3.8,16c0.5,1.8-0.6,3.6-2.4,4.1
				C2590.9,1497.8,2590.6,1497.8,2590.4,1497.8z M2583.6,1465.2c-1.6,0-3.1-1.2-3.3-2.9c-0.8-5.5-1.5-11.1-2.1-16.7
				c-0.2-1.8,1.2-3.5,3-3.7c1.9-0.2,3.5,1.2,3.7,3c0.5,5.4,1.2,10.9,2,16.3c0.3,1.8-1,3.6-2.8,3.8
				C2583.9,1465.2,2583.7,1465.2,2583.6,1465.2z M2580.3,1432.1c-1.8,0-3.3-1.4-3.4-3.2c-0.2-4.5-0.3-9-0.3-13.5l0-3.3
				c0-1.9,1.7-3.4,3.4-3.3c1.9,0,3.4,1.5,3.3,3.4l0,3.2c0,4.4,0.1,8.9,0.3,13.2c0.1,1.9-1.4,3.4-3.2,3.5
				C2580.4,1432.1,2580.4,1432.1,2580.3,1432.1z"/>
			<linearGradient id="SVGID_40_" gradientUnits="userSpaceOnUse" x1="2577.3484" y1="1391.0601" x2="2584.7366" y2="1391.0601">
				<stop  offset="0" style="stop-color:#4F52FF"/>
				<stop  offset="1" style="stop-color:#4042E2"/>
			</linearGradient>
			<path fill="url(#SVGID_40_)" d="M2580.7,1398.6c-0.1,0-0.1,0-0.2,0c-1.9-0.1-3.3-1.7-3.1-3.6c0.2-2.8,0.4-5.7,0.7-8.5
				c0.2-1.8,1.8-3.2,3.7-3c1.9,0.2,3.2,1.8,3,3.7c-0.3,2.8-0.5,5.5-0.7,8.3C2584,1397.2,2582.5,1398.6,2580.7,1398.6z"/>
		</g>
		<g opacity="0.64">
			<linearGradient id="SVGID_41_" gradientUnits="userSpaceOnUse" x1="2683.4858" y1="1177.7555" x2="2696.6338" y2="1177.7555">
				<stop  offset="0" style="stop-color:#4F52FF"/>
				<stop  offset="1" style="stop-color:#4042E2"/>
			</linearGradient>
			<path fill="url(#SVGID_41_)" d="M2686.9,1183.8c-0.9,0-1.9-0.4-2.5-1.2c-1.2-1.4-1.1-3.5,0.3-4.7c2.1-1.9,4.3-3.7,6.5-5.5
				c1.4-1.2,3.6-1,4.7,0.5c1.2,1.4,1,3.6-0.5,4.7c-2.1,1.8-4.3,3.6-6.3,5.4C2688.4,1183.6,2687.6,1183.8,2686.9,1183.8z"/>
			<linearGradient id="SVGID_42_" gradientUnits="userSpaceOnUse" x1="2703.4392" y1="1268.0646" x2="3205.842" y2="1268.0646">
				<stop  offset="0" style="stop-color:#4F52FF"/>
				<stop  offset="1" style="stop-color:#4042E2"/>
			</linearGradient>
			<path fill="url(#SVGID_42_)" d="M3202,1435.4c-0.1,0-0.1,0-0.2,0c-1.9-0.1-3.3-1.7-3.2-3.5c0.3-5.7,0.5-11.4,0.5-17
				c0-1.9,1.5-3.4,3.4-3.4s3.4,1.5,3.4,3.4c0,5.7-0.2,11.5-0.5,17.3C3205.3,1434.1,3203.8,1435.4,3202,1435.4z M3202,1401.2
				c-1.8,0-3.3-1.4-3.4-3.2c-0.3-5.6-0.8-11.3-1.4-16.9c-0.2-1.8,1.1-3.5,3-3.7c1.8-0.2,3.5,1.1,3.7,3c0.6,5.7,1.1,11.5,1.4,17.3
				c0.1,1.9-1.3,3.4-3.2,3.5C3202.1,1401.2,3202.1,1401.2,3202,1401.2z M3198.2,1367.1c-1.6,0-3-1.2-3.3-2.8
				c-0.9-5.5-2-11.1-3.3-16.6c-0.4-1.8,0.7-3.6,2.5-4c1.8-0.4,3.6,0.7,4,2.5c1.3,5.6,2.4,11.4,3.3,17c0.3,1.8-0.9,3.6-2.8,3.9
				C3198.6,1367.1,3198.4,1367.1,3198.2,1367.1z M3190.7,1333.6c-1.5,0-2.8-1-3.2-2.4c-1.5-5.4-3.3-10.9-5.1-16.2
				c-0.6-1.8,0.3-3.7,2.1-4.3c1.7-0.6,3.7,0.3,4.3,2.1c1.9,5.4,3.6,11,5.2,16.5c0.5,1.8-0.5,3.6-2.3,4.2
				C3191.3,1333.6,3191,1333.6,3190.7,1333.6z M3179.5,1301.2c-1.3,0-2.6-0.8-3.1-2.1c-2.1-5.2-4.4-10.4-6.8-15.5
				c-0.8-1.7-0.1-3.7,1.6-4.5c1.7-0.8,3.7-0.1,4.5,1.6c2.5,5.2,4.8,10.6,7,15.9c0.7,1.7-0.1,3.7-1.8,4.4
				C3180.3,1301.1,3179.9,1301.2,3179.5,1301.2z M3164.8,1270.2c-1.2,0-2.4-0.6-3-1.8c-2.7-4.9-5.5-9.9-8.5-14.7
				c-1-1.6-0.5-3.7,1.1-4.6c1.6-1,3.7-0.5,4.6,1.1c3,4.9,5.9,10,8.7,15c0.9,1.6,0.3,3.7-1.4,4.6
				C3165.9,1270.1,3165.3,1270.2,3164.8,1270.2z M3146.9,1241c-1.1,0-2.1-0.5-2.8-1.5c-3.2-4.6-6.6-9.2-10-13.7
				c-1.1-1.5-0.9-3.6,0.6-4.7c1.5-1.1,3.6-0.9,4.7,0.6c3.5,4.6,7,9.3,10.3,14c1.1,1.5,0.7,3.6-0.9,4.7
				C3148.2,1240.8,3147.5,1241,3146.9,1241z M3125.8,1214c-0.9,0-1.9-0.4-2.5-1.2c-3.7-4.2-7.5-8.4-11.5-12.5
				c-1.3-1.3-1.3-3.5,0.1-4.8c1.3-1.3,3.5-1.3,4.8,0.1c4,4.1,8,8.4,11.7,12.7c1.2,1.4,1.1,3.5-0.3,4.7
				C3127.4,1213.7,3126.6,1214,3125.8,1214z M3101.9,1189.4c-0.8,0-1.6-0.3-2.3-0.9c-4.1-3.8-8.4-7.5-12.8-11.1
				c-1.4-1.2-1.6-3.3-0.5-4.7c1.2-1.4,3.3-1.6,4.7-0.5c4.5,3.7,8.9,7.5,13.1,11.4c1.4,1.3,1.5,3.4,0.2,4.8
				C3103.7,1189.1,3102.8,1189.4,3101.9,1189.4z M2706.8,1167.9c-1,0-2.1-0.5-2.7-1.4c-1.1-1.5-0.8-3.6,0.7-4.7
				c4.6-3.4,9.4-6.7,14.2-9.9c1.6-1,3.6-0.6,4.7,1c1,1.6,0.6,3.6-1,4.7c-4.7,3.1-9.4,6.3-13.9,9.7
				C2708.2,1167.7,2707.5,1167.9,2706.8,1167.9z M3075.5,1167.7c-0.7,0-1.4-0.2-2-0.7c-4.5-3.3-9.2-6.6-13.9-9.6c-1.6-1-2-3.1-1-4.7
				c1-1.6,3.1-2,4.7-1c4.8,3.1,9.6,6.5,14.3,9.9c1.5,1.1,1.8,3.2,0.7,4.7C3077.5,1167.2,3076.5,1167.7,3075.5,1167.7z
				 M2735.5,1149.1c-1.2,0-2.3-0.6-2.9-1.7c-0.9-1.6-0.4-3.7,1.2-4.6c5-2.9,10.1-5.7,15.2-8.2c1.7-0.8,3.7-0.2,4.5,1.5
				c0.8,1.7,0.2,3.7-1.5,4.5c-5,2.5-10,5.3-14.9,8.1C2736.7,1149,2736.1,1149.1,2735.5,1149.1z M3046.7,1149c-0.6,0-1.1-0.1-1.7-0.4
				c-4.9-2.8-9.9-5.5-14.9-8.1c-1.7-0.8-2.3-2.9-1.5-4.5c0.8-1.7,2.9-2.3,4.5-1.5c5.1,2.6,10.3,5.4,15.3,8.2c1.6,0.9,2.2,3,1.2,4.6
				C3049,1148.4,3047.9,1149,3046.7,1149z M2766.1,1133.6c-1.3,0-2.5-0.8-3.1-2c-0.7-1.7,0-3.7,1.7-4.4c5.3-2.3,10.7-4.5,16-6.5
				c1.7-0.7,3.7,0.2,4.3,2c0.7,1.7-0.2,3.7-2,4.3c-5.3,2-10.6,4.1-15.7,6.4C2767,1133.6,2766.6,1133.6,2766.1,1133.6z
				 M3016.1,1133.5c-0.5,0-0.9-0.1-1.3-0.3c-5.1-2.2-10.4-4.4-15.7-6.4c-1.7-0.7-2.6-2.6-2-4.3c0.7-1.7,2.6-2.6,4.3-2
				c5.4,2,10.8,4.2,16.1,6.5c1.7,0.7,2.5,2.7,1.7,4.4C3018.7,1132.8,3017.4,1133.5,3016.1,1133.5z M2798.2,1121.6
				c-1.4,0-2.8-0.9-3.2-2.4c-0.6-1.8,0.4-3.7,2.2-4.2c5.5-1.7,11.1-3.3,16.7-4.7c1.8-0.5,3.6,0.6,4.1,2.4c0.5,1.8-0.6,3.6-2.4,4.1
				c-5.5,1.4-11,3-16.3,4.6C2798.9,1121.5,2798.5,1121.6,2798.2,1121.6z M2984,1121.5c-0.3,0-0.7-0.1-1-0.2
				c-5.4-1.7-10.8-3.2-16.3-4.6c-1.8-0.5-2.9-2.3-2.4-4.1c0.5-1.8,2.3-2.9,4.1-2.4c5.6,1.4,11.2,3,16.7,4.7c1.8,0.6,2.8,2.4,2.2,4.2
				C2986.8,1120.6,2985.4,1121.5,2984,1121.5z M2831.4,1113.1c-1.6,0-3-1.1-3.3-2.7c-0.4-1.8,0.8-3.6,2.7-3.9
				c5.7-1.1,11.4-2.1,17.1-2.9c1.8-0.3,3.5,1,3.8,2.9c0.3,1.8-1,3.5-2.9,3.8c-5.6,0.8-11.2,1.7-16.7,2.8
				C2831.9,1113.1,2831.6,1113.1,2831.4,1113.1z M2950.8,1113.1c-0.2,0-0.4,0-0.7-0.1c-5.5-1.1-11.2-2-16.7-2.8
				c-1.8-0.3-3.1-2-2.9-3.8c0.3-1.8,2-3.1,3.8-2.9c5.7,0.8,11.4,1.8,17.1,2.9c1.8,0.4,3,2.1,2.7,3.9
				C2953.8,1112,2952.4,1113.1,2950.8,1113.1z M2916.8,1108.4c-0.1,0-0.2,0-0.3,0c-5.6-0.5-11.3-0.8-16.9-0.9
				c-1.9-0.1-3.3-1.6-3.3-3.5c0.1-1.9,1.7-3.3,3.5-3.3c5.8,0.2,11.6,0.5,17.3,1c1.9,0.2,3.2,1.8,3.1,3.6
				C2920,1107,2918.5,1108.4,2916.8,1108.4z M2865.4,1108.4c-1.7,0-3.2-1.3-3.3-3.1c-0.2-1.9,1.2-3.5,3.1-3.6
				c5.7-0.5,11.6-0.8,17.3-1c1.8-0.1,3.4,1.4,3.5,3.3c0,1.9-1.4,3.4-3.3,3.5c-5.6,0.2-11.3,0.5-16.9,0.9
				C2865.6,1108.4,2865.5,1108.4,2865.4,1108.4z"/>
			<linearGradient id="SVGID_43_" gradientUnits="userSpaceOnUse" x1="3196.1421" y1="1453.5581" x2="3203.9214" y2="1453.5581">
				<stop  offset="0" style="stop-color:#4F52FF"/>
				<stop  offset="1" style="stop-color:#4042E2"/>
			</linearGradient>
			<path fill="url(#SVGID_43_)" d="M3199.5,1461.1c-0.2,0-0.3,0-0.5,0c-1.8-0.3-3.1-2-2.9-3.8c0.4-2.7,0.7-5.5,1-8.2
				c0.2-1.8,1.9-3.2,3.7-3c1.8,0.2,3.2,1.9,3,3.7c-0.3,2.8-0.7,5.6-1.1,8.4C3202.6,1459.9,3201.2,1461.1,3199.5,1461.1z"/>
		</g>
		<g>
			<linearGradient id="SVGID_44_" gradientUnits="userSpaceOnUse" x1="2618.292" y1="1416.3287" x2="3159.0544" y2="1416.3287">
				<stop  offset="0" style="stop-color:#4F52FF"/>
				<stop  offset="1" style="stop-color:#4042E2"/>
			</linearGradient>
			<path fill="url(#SVGID_44_)" d="M3158.8,1487.4c0.7-1.7,0.2-3.7-1.2-4.9l-40.2-34c3.4-24.4,3-49.4-1.6-74.3l38.6-35.8
				c1.4-1.3,1.8-3.2,1-4.9l-25.5-57.8c-0.7-1.7-2.5-2.7-4.3-2.6l-52.5,4.4c-15.2-20.2-33.4-37.5-53.7-51.4l2-52.6
				c0.1-1.8-1-3.5-2.8-4.2l-58.9-22.9c-1.7-0.7-3.7-0.2-4.9,1.2l-34,40.2c-24.4-3.4-49.4-3-74.3,1.6l-35.8-38.6
				c-1.3-1.4-3.2-1.8-4.9-1l-57.8,25.5c-1.7,0.7-2.7,2.5-2.6,4.3l4.4,52.5c-20.2,15.2-37.5,33.4-51.4,53.7l-52.6-2
				c-1.8-0.1-3.5,1-4.2,2.8l-22.9,58.9c-0.7,1.7-0.2,3.7,1.2,4.9l40.2,34c-3.4,24.4-3,49.4,1.6,74.3l-38.6,35.8
				c-1.4,1.3-1.8,3.2-1,4.9l25.5,57.8c0.7,1.7,2.5,2.7,4.3,2.6l52.5-4.4c15.2,20.2,33.4,37.5,53.7,51.4l-2,52.6
				c-0.1,1.8,1,3.5,2.8,4.2l58.9,22.9c1.7,0.7,3.7,0.2,4.9-1.2l34-40.2c24.4,3.4,49.4,3,74.3-1.6l35.8,38.6c1.3,1.4,3.2,1.8,4.9,1
				l57.8-25.5c1.7-0.7,2.7-2.5,2.6-4.3l-4.4-52.5c20.2-15.2,37.5-33.4,51.4-53.7l52.6,2c1.8,0.1,3.5-1,4.2-2.8L3158.8,1487.4z"/>
			<path fill="#91B3FA" d="M2888.7,1475.8c-17.7,0-35.3-7.9-47-22.9c-20.2-25.9-15.5-63.3,10.3-83.5c12.5-9.8,28.1-14.1,43.9-12.1
				c15.8,2,29.8,9.9,39.6,22.5l0,0c9.8,12.5,14.1,28.1,12.1,43.9c-2,15.8-9.9,29.8-22.5,39.6
				C2914.4,1471.7,2901.5,1475.8,2888.7,1475.8z M2888.6,1363.6c-11.7,0-23,3.9-32.3,11.2c-22.9,17.9-27.1,51.1-9.2,74
				c17.9,22.9,51.1,27,74,9.2c11.1-8.7,18.2-21.1,19.9-35.1s-2.1-27.8-10.7-38.9l0,0c-8.7-11.1-21.1-18.2-35.1-19.9
				C2893,1363.7,2890.8,1363.6,2888.6,1363.6z"/>
			<path fill="#91B3FA" d="M2887.6,1571.8c-59.9,0-117.2-34.8-142.9-93c-9-20.4-13.2-41.7-13.2-62.6c0-59.9,34.8-117.2,93-142.8
				c38.1-16.8,80.5-17.7,119.3-2.6c38.8,15.1,69.4,44.4,86.2,82.5c4.5,10.2,7.9,20.8,10.1,31.6c0,0.2,0.1,0.5,0.1,0.7
				c0,1.6-1.1,3-2.7,3.3c-1.8,0.4-3.6-0.8-4-2.6c-2.1-10.3-5.4-20.5-9.7-30.2v0c-1-2.2-2-4.3-3-6.4c0,0,0,0,0,0
				c0-0.1-0.1-0.2-0.1-0.2c0,0,0,0,0,0c0,0,0,0,0,0c0,0,0,0,0,0c0,0,0,0,0-0.1c-16.6-33.1-44.5-58.6-79.3-72.1
				c-37.1-14.4-77.7-13.5-114.1,2.5c-55.8,24.6-89,79.3-89,136.7c0,20,4.1,40.4,12.6,59.9c33.1,75.3,121.3,109.5,196.6,76.4
				c24.7-10.9,46-28.3,61.6-50.2c1.1-1.5,3.2-1.9,4.7-0.8c0.9,0.7,1.4,1.7,1.4,2.8c0,0.7-0.2,1.3-0.6,1.9
				c-16.2,22.9-38.5,41.1-64.3,52.5C2929.8,1567.6,2908.6,1571.8,2887.6,1571.8z"/>
		</g>
	</g>
	<g>
		<g opacity="0.64">
			<linearGradient id="SVGID_45_" gradientUnits="userSpaceOnUse" x1="2654.7402" y1="1245.2892" x2="2667.4216" y2="1245.2892">
				<stop  offset="0" style="stop-color:#4F52FF"/>
				<stop  offset="1" style="stop-color:#4042E2"/>
			</linearGradient>
			<path fill="url(#SVGID_45_)" d="M2658.1,1251.6c-0.9,0-1.8-0.3-2.4-1c-1.3-1.3-1.3-3.5,0.1-4.8c2-1.9,4-3.9,5.9-5.9
				c1.3-1.3,3.4-1.4,4.8-0.1c1.3,1.3,1.4,3.4,0.1,4.8c-2,2-4,4-6,6C2659.8,1251.3,2658.9,1251.6,2658.1,1251.6z"/>
			<linearGradient id="SVGID_46_" gradientUnits="userSpaceOnUse" x1="2233.2488" y1="1195.0469" x2="2648.822" y2="1195.0469">
				<stop  offset="0" style="stop-color:#4F52FF"/>
				<stop  offset="1" style="stop-color:#4042E2"/>
			</linearGradient>
			<path fill="url(#SVGID_46_)" d="M2485.6,1321.3c-4.6,0-9.2-0.1-13.7-0.4c-1.9-0.1-3.3-1.7-3.2-3.5c0.1-1.9,1.7-3.3,3.5-3.2
				c5.6,0.3,11.2,0.4,16.8,0.3h0c1.8,0,3.3,1.5,3.4,3.3c0,1.9-1.5,3.4-3.3,3.4C2487.9,1321.3,2486.7,1321.3,2485.6,1321.3z
				 M2506,1320.5c-1.7,0-3.2-1.3-3.3-3.1c-0.2-1.9,1.2-3.5,3.1-3.6c5.6-0.5,11.2-1.1,16.7-2c1.8-0.3,3.6,1,3.8,2.8
				c0.3,1.8-1,3.6-2.8,3.8c-5.7,0.9-11.4,1.5-17.1,2C2506.2,1320.5,2506.1,1320.5,2506,1320.5z M2455.1,1319.5c-0.1,0-0.3,0-0.4,0
				c-5.7-0.7-11.4-1.6-17-2.7c-1.8-0.4-3-2.1-2.7-3.9c0.4-1.8,2.1-3,3.9-2.7c5.5,1.1,11,1.9,16.6,2.6c1.8,0.2,3.2,1.9,2.9,3.8
				C2458.2,1318.2,2456.7,1319.5,2455.1,1319.5z M2539.7,1315.3c-1.5,0-2.9-1.1-3.3-2.6c-0.4-1.8,0.7-3.6,2.5-4
				c5.4-1.2,10.9-2.7,16.2-4.2c1.8-0.5,3.7,0.5,4.2,2.3c0.5,1.8-0.5,3.7-2.3,4.2c-5.5,1.6-11.1,3.1-16.7,4.4
				C2540.1,1315.3,2539.9,1315.3,2539.7,1315.3z M2421.7,1313c-0.3,0-0.6,0-0.9-0.1c-5.5-1.5-11.1-3.1-16.5-5
				c-1.8-0.6-2.7-2.5-2.1-4.3c0.6-1.8,2.5-2.7,4.3-2.1c5.3,1.8,10.7,3.4,16.1,4.9c1.8,0.5,2.9,2.3,2.4,4.1
				C2424.5,1312,2423.2,1313,2421.7,1313z M2572.3,1305.6c-1.4,0-2.6-0.8-3.2-2.2c-0.7-1.7,0.2-3.7,2-4.3c5.2-1.9,10.4-4.1,15.5-6.4
				c1.7-0.8,3.7,0,4.5,1.7c0.8,1.7,0,3.7-1.7,4.5c-5.2,2.4-10.6,4.6-15.9,6.6C2573.1,1305.6,2572.7,1305.6,2572.3,1305.6z
				 M2389.5,1302.1c-0.4,0-0.9-0.1-1.3-0.3c-5.3-2.2-10.5-4.6-15.7-7.2c-1.7-0.8-2.3-2.9-1.5-4.5c0.8-1.7,2.9-2.3,4.5-1.5
				c5,2.5,10.1,4.9,15.3,7c1.7,0.7,2.5,2.7,1.8,4.4C2392,1301.3,2390.8,1302.1,2389.5,1302.1z M2603.3,1291.6c-1.2,0-2.4-0.6-3-1.8
				c-0.9-1.6-0.3-3.7,1.4-4.6c4.9-2.6,9.8-5.5,14.5-8.4c1.6-1,3.6-0.5,4.6,1.1c1,1.6,0.5,3.7-1.1,4.6c-4.9,3-9.9,6-14.9,8.7
				C2604.3,1291.5,2603.8,1291.6,2603.3,1291.6z M2359,1286.8c-0.6,0-1.2-0.1-1.7-0.5c-4.9-2.9-9.8-6-14.6-9.3
				c-1.5-1-1.9-3.1-0.9-4.7c1-1.5,3.1-1.9,4.7-0.9c4.6,3.1,9.4,6.2,14.2,9c1.6,0.9,2.1,3,1.2,4.6
				C2361.3,1286.2,2360.2,1286.8,2359,1286.8z M2632.1,1273.5c-1,0-2.1-0.5-2.7-1.4c-1.1-1.5-0.8-3.6,0.7-4.7
				c4.5-3.3,9-6.8,13.2-10.3c1.4-1.2,3.6-1,4.7,0.4c1.2,1.4,1,3.5-0.4,4.7c-4.4,3.7-9,7.3-13.6,10.6
				C2633.4,1273.3,2632.7,1273.5,2632.1,1273.5z M2331,1267.6c-0.7,0-1.5-0.2-2.1-0.7c-4.5-3.6-8.9-7.3-13.2-11.2
				c-1.4-1.2-1.5-3.4-0.2-4.8c1.3-1.4,3.4-1.5,4.8-0.2c4.1,3.7,8.4,7.4,12.8,10.9c1.5,1.2,1.7,3.3,0.6,4.7
				C2332.9,1267.2,2332,1267.6,2331,1267.6z M2305.8,1244.8c-0.9,0-1.8-0.3-2.4-1c-4-4.1-7.8-8.5-11.5-12.9c-1.2-1.4-1-3.5,0.4-4.7
				c1.4-1.2,3.5-1,4.7,0.4c3.6,4.3,7.3,8.5,11.2,12.5c1.3,1.3,1.2,3.5-0.1,4.8C2307.5,1244.4,2306.6,1244.8,2305.8,1244.8z
				 M2284,1218.6c-1,0-2.1-0.5-2.7-1.4c-3.3-4.6-6.6-9.4-9.6-14.3c-1-1.6-0.5-3.7,1.1-4.6c1.6-1,3.6-0.5,4.6,1.1
				c3,4.7,6.1,9.4,9.4,13.9c1.1,1.5,0.7,3.6-0.8,4.7C2285.4,1218.4,2284.7,1218.6,2284,1218.6z M2266,1189.8c-1.2,0-2.4-0.6-3-1.8
				c-1.7-3.2-3.4-6.6-5-9.9c-0.9-1.9-1.8-3.7-2.6-5.6c-0.8-1.7,0-3.7,1.7-4.5c1.7-0.8,3.7,0,4.4,1.7c0.8,1.8,1.7,3.6,2.5,5.4
				c1.6,3.2,3.2,6.5,4.9,9.6c0.9,1.6,0.3,3.7-1.4,4.6C2267.1,1189.7,2266.5,1189.8,2266,1189.8z M2252.1,1158.8
				c-1.4,0-2.7-0.8-3.2-2.2c-2-5.4-3.8-10.9-5.4-16.4c-0.5-1.8,0.5-3.7,2.3-4.2c1.8-0.5,3.7,0.5,4.2,2.3c1.6,5.3,3.4,10.7,5.3,15.9
				c0.6,1.7-0.2,3.7-2,4.3C2252.8,1158.7,2252.4,1158.8,2252.1,1158.8z M2242.4,1126.1c-1.5,0-2.9-1.1-3.3-2.6
				c-1.2-5.6-2.3-11.3-3.1-17c-0.3-1.8,1-3.6,2.8-3.8c1.8-0.3,3.6,1,3.8,2.8c0.8,5.5,1.9,11.1,3.1,16.5c0.4,1.8-0.7,3.6-2.6,4
				C2242.9,1126.1,2242.7,1126.1,2242.4,1126.1z M2237.4,1092.5c-1.7,0-3.2-1.3-3.4-3.1c-0.5-5.7-0.7-11.5-0.8-17.2
				c0-1.9,1.5-3.4,3.3-3.4c1.8,0,3.4,1.5,3.4,3.3c0.1,5.6,0.3,11.2,0.8,16.8c0.1,1.9-1.2,3.5-3.1,3.6
				C2237.6,1092.5,2237.5,1092.5,2237.4,1092.5z"/>
			<linearGradient id="SVGID_47_" gradientUnits="userSpaceOnUse" x1="2233.6538" y1="1050.8" x2="2241.0146" y2="1050.8">
				<stop  offset="0" style="stop-color:#4F52FF"/>
				<stop  offset="1" style="stop-color:#4042E2"/>
			</linearGradient>
			<path fill="url(#SVGID_47_)" d="M2237,1058.4c-0.1,0-0.1,0-0.2,0c-1.9-0.1-3.3-1.7-3.2-3.6c0.2-2.8,0.4-5.7,0.6-8.5
				c0.2-1.8,1.8-3.2,3.7-3c1.9,0.2,3.2,1.8,3,3.7c-0.3,2.8-0.5,5.5-0.6,8.3C2240.3,1057,2238.8,1058.4,2237,1058.4z"/>
		</g>
		<g opacity="0.64">
			<linearGradient id="SVGID_48_" gradientUnits="userSpaceOnUse" x1="2318.6018" y1="878.9079" x2="2331.7686" y2="878.9079">
				<stop  offset="0" style="stop-color:#4F52FF"/>
				<stop  offset="1" style="stop-color:#4042E2"/>
			</linearGradient>
			<path fill="url(#SVGID_48_)" d="M2322,885c-0.9,0-1.9-0.4-2.5-1.2c-1.2-1.4-1.1-3.5,0.3-4.7c2.1-1.9,4.3-3.7,6.5-5.5
				c1.4-1.2,3.6-0.9,4.7,0.5c1.2,1.4,0.9,3.6-0.5,4.7c-2.2,1.7-4.3,3.5-6.3,5.3C2323.5,884.7,2322.8,885,2322,885z"/>
			<linearGradient id="SVGID_49_" gradientUnits="userSpaceOnUse" x1="2338.3906" y1="949.2723" x2="2737.5215" y2="949.2723">
				<stop  offset="0" style="stop-color:#4F52FF"/>
				<stop  offset="1" style="stop-color:#4042E2"/>
			</linearGradient>
			<path fill="url(#SVGID_49_)" d="M2734,1081.5c0,0-0.1,0-0.1,0c-1.9-0.1-3.3-1.6-3.2-3.5c0.1-3,0.2-6,0.2-9c0-2.5,0-5-0.1-7.6
				c-0.1-1.9,1.4-3.4,3.3-3.5c1.9,0,3.4,1.4,3.5,3.3c0.1,2.6,0.1,5.2,0.1,7.8c0,3.1-0.1,6.1-0.2,9.2
				C2737.3,1080,2735.8,1081.5,2734,1081.5z M2732.9,1048c-1.7,0-3.2-1.3-3.3-3c-0.5-5.4-1.3-11-2.2-16.4c-0.3-1.8,0.9-3.6,2.8-3.9
				c1.9-0.3,3.6,0.9,3.9,2.8c0.9,5.6,1.7,11.2,2.2,16.8c0.2,1.9-1.2,3.5-3,3.7C2733.2,1048,2733.1,1048,2732.9,1048z M2727.4,1015
				c-1.5,0-2.9-1-3.3-2.6c-1.3-5.3-2.7-10.7-4.4-15.9c-0.6-1.8,0.4-3.7,2.2-4.2c1.8-0.6,3.7,0.4,4.2,2.2c1.7,5.4,3.2,10.9,4.5,16.4
				c0.4,1.8-0.7,3.6-2.5,4.1C2727.9,1015,2727.7,1015,2727.4,1015z M2717.4,983c-1.3,0-2.6-0.8-3.1-2.2c-2-5.1-4.2-10.2-6.5-15.2
				c-0.8-1.7-0.1-3.7,1.6-4.5c1.7-0.8,3.7-0.1,4.5,1.6c2.4,5.1,4.6,10.4,6.7,15.6c0.7,1.7-0.2,3.7-1.9,4.4
				C2718.3,983,2717.8,983,2717.4,983z M2703.3,952.7c-1.2,0-2.3-0.6-3-1.7c-2.7-4.8-5.5-9.6-8.4-14.2c-1-1.6-0.5-3.6,1-4.6
				c1.6-1,3.6-0.5,4.6,1c3,4.7,5.9,9.6,8.7,14.6c0.9,1.6,0.3,3.7-1.3,4.6C2704.4,952.5,2703.9,952.7,2703.3,952.7z M2685.3,924.5
				c-1,0-2-0.5-2.7-1.4c-3.3-4.4-6.7-8.8-10.3-12.9c-1.2-1.4-1-3.5,0.4-4.7c1.4-1.2,3.5-1,4.7,0.4c3.6,4.3,7.2,8.8,10.5,13.3
				c1.1,1.5,0.8,3.6-0.7,4.7C2686.7,924.3,2686,924.5,2685.3,924.5z M2663.6,899c-0.9,0-1.8-0.3-2.4-1c-3.8-3.9-7.8-7.8-11.9-11.4
				c-1.4-1.2-1.5-3.4-0.3-4.8c1.2-1.4,3.4-1.5,4.8-0.3c4.2,3.8,8.3,7.7,12.2,11.7c1.3,1.3,1.3,3.5-0.1,4.8
				C2665.3,898.7,2664.5,899,2663.6,899z M2638.7,876.6c-0.7,0-1.5-0.2-2.1-0.7c-4.3-3.4-8.8-6.6-13.3-9.7c-1.5-1-1.9-3.1-0.9-4.7
				c1-1.5,3.1-1.9,4.7-0.9c4.7,3.2,9.3,6.5,13.7,10c1.5,1.1,1.7,3.3,0.6,4.7C2640.7,876.2,2639.7,876.6,2638.7,876.6z M2341.8,869.5
				c-1.1,0-2.1-0.5-2.8-1.4c-1.1-1.5-0.7-3.6,0.8-4.7c4.6-3.2,9.4-6.4,14.2-9.3c1.6-1,3.7-0.5,4.6,1.1c1,1.6,0.5,3.7-1.1,4.6
				c-4.7,2.9-9.3,5.9-13.8,9.1C2343.1,869.3,2342.4,869.5,2341.8,869.5z M2611,857.9c-0.6,0-1.2-0.1-1.7-0.5
				c-4.7-2.8-9.6-5.4-14.5-7.8c-1.7-0.8-2.3-2.8-1.5-4.5c0.8-1.7,2.8-2.3,4.5-1.5c5,2.5,10.1,5.2,14.9,8.1c1.6,0.9,2.1,3,1.2,4.6
				C2613.3,857.3,2612.1,857.9,2611,857.9z M2370.3,852c-1.2,0-2.4-0.7-3-1.8c-0.9-1.6-0.2-3.7,1.4-4.5c2.5-1.3,5.1-2.6,7.7-3.8
				c2.5-1.2,5.1-2.4,7.6-3.5c1.7-0.8,3.7,0,4.4,1.7c0.7,1.7,0,3.7-1.7,4.4c-2.5,1.1-5,2.2-7.4,3.4c-2.5,1.2-5,2.5-7.5,3.7
				C2371.4,851.9,2370.9,852,2370.3,852z M2581,843c-0.4,0-0.9-0.1-1.3-0.3c-5.1-2.1-10.3-4.1-15.5-5.8c-1.8-0.6-2.7-2.5-2.1-4.3
				c0.6-1.8,2.5-2.7,4.3-2.1c5.3,1.8,10.7,3.8,15.9,6c1.7,0.7,2.5,2.7,1.8,4.4C2583.6,842.2,2582.3,843,2581,843z M2401,838.6
				c-1.4,0-2.7-0.9-3.2-2.2c-0.6-1.7,0.3-3.7,2-4.3c5.3-1.9,10.7-3.7,16.1-5.2c1.8-0.5,3.7,0.5,4.2,2.3c0.5,1.8-0.5,3.6-2.3,4.2
				c-5.3,1.5-10.6,3.2-15.7,5.1C2401.8,838.5,2401.4,838.6,2401,838.6z M2549.3,832.2c-0.3,0-0.6,0-0.9-0.1
				c-5.3-1.4-10.7-2.7-16.1-3.7c-1.8-0.4-3-2.1-2.7-3.9c0.4-1.8,2.1-3,3.9-2.7c5.5,1.1,11.1,2.4,16.5,3.8c1.8,0.5,2.9,2.3,2.4,4.1
				C2552.2,831.2,2550.8,832.2,2549.3,832.2z M2433.2,829.3c-1.6,0-2.9-1.1-3.3-2.7c-0.4-1.8,0.8-3.6,2.6-4c5.5-1.2,11.1-2.2,16.7-3
				c1.8-0.3,3.5,1,3.8,2.8s-1,3.5-2.8,3.8c-5.4,0.8-10.9,1.8-16.3,2.9C2433.6,829.3,2433.4,829.3,2433.2,829.3z M2516.5,825.8
				c-0.1,0-0.3,0-0.4,0c-5.5-0.7-11-1.2-16.4-1.5c-1.9-0.1-3.3-1.7-3.2-3.6c0.1-1.9,1.7-3.3,3.6-3.2c5.6,0.3,11.3,0.9,16.9,1.6
				c1.8,0.2,3.1,1.9,2.9,3.8C2519.6,824.5,2518.1,825.8,2516.5,825.8z M2466.3,824.5c-1.7,0-3.2-1.3-3.4-3.1
				c-0.1-1.9,1.2-3.5,3.1-3.6c5.6-0.4,11.3-0.7,17-0.7h0c1.8,0,3.3,1.5,3.4,3.3c0,1.9-1.5,3.4-3.3,3.4c-5.5,0-11,0.3-16.5,0.7
				C2466.5,824.5,2466.4,824.5,2466.3,824.5z"/>
			<linearGradient id="SVGID_50_" gradientUnits="userSpaceOnUse" x1="2728.4197" y1="1099.0798" x2="2736.1667" y2="1099.0798">
				<stop  offset="0" style="stop-color:#4F52FF"/>
				<stop  offset="1" style="stop-color:#4042E2"/>
			</linearGradient>
			<path fill="url(#SVGID_50_)" d="M2731.8,1106.6c-0.2,0-0.3,0-0.5,0c-1.8-0.3-3.1-2-2.9-3.8c0.4-2.7,0.7-5.5,1-8.2
				c0.2-1.8,1.8-3.2,3.7-3c1.8,0.2,3.2,1.9,3,3.7c-0.3,2.8-0.6,5.6-1,8.5C2734.9,1105.4,2733.4,1106.6,2731.8,1106.6z"/>
		</g>
		<g>
			<linearGradient id="SVGID_51_" gradientUnits="userSpaceOnUse" x1="2267.1626" y1="1070.1566" x2="2699.4456" y2="1070.1566">
				<stop  offset="0" style="stop-color:#4F52FF"/>
				<stop  offset="1" style="stop-color:#4042E2"/>
			</linearGradient>
			<path fill="url(#SVGID_51_)" d="M2699.2,1126.9c0.5-1.4,0.1-2.9-1-3.9l-32.1-27.2c2.8-19.5,2.4-39.5-1.3-59.4l30.9-28.6
				c1.1-1,1.4-2.6,0.8-3.9l-20.4-46.2c-0.6-1.4-2-2.2-3.5-2.1l-41.9,3.5c-12.2-16.2-26.7-30-43-41.1l1.6-42.1
				c0.1-1.5-0.8-2.8-2.2-3.4l-47.1-18.3c-1.4-0.5-2.9-0.1-3.9,1l-27.2,32.1c-19.5-2.8-39.5-2.4-59.4,1.3l-28.6-30.9
				c-1-1.1-2.6-1.4-3.9-0.8l-46.2,20.4c-1.4,0.6-2.2,2-2.1,3.5l3.5,41.9c-16.2,12.2-30,26.7-41.1,43l-42.1-1.6
				c-1.5-0.1-2.8,0.8-3.4,2.2l-18.3,47.1c-0.5,1.4-0.1,2.9,1,3.9l32.1,27.2c-2.8,19.5-2.4,39.5,1.3,59.4l-30.9,28.6
				c-1.1,1-1.4,2.6-0.8,3.9l20.4,46.2c0.6,1.4,2,2.2,3.5,2.1l41.9-3.5c12.2,16.2,26.7,30,43,41.1l-1.6,42.1
				c-0.1,1.5,0.8,2.8,2.2,3.4l47.1,18.3c1.4,0.5,2.9,0.1,3.9-1l27.2-32.1c19.5,2.8,39.5,2.4,59.4-1.3l28.6,30.9
				c1,1.1,2.6,1.4,3.9,0.8l46.2-20.4c1.4-0.6,2.2-2,2.1-3.5l-3.5-41.9c16.2-12.2,30-26.7,41.1-43l42.1,1.6c1.5,0.1,2.8-0.8,3.4-2.2
				L2699.2,1126.9z"/>
			<path fill="#91B3FA" d="M2483.4,1118.4c-2,0-4-0.1-6-0.4c-12.8-1.6-24.2-8.1-32.1-18.2c-7.9-10.2-11.4-22.8-9.8-35.6
				c1.6-12.8,8.1-24.2,18.2-32.1c10.2-7.9,22.8-11.4,35.6-9.8c12.8,1.6,24.2,8.1,32.1,18.2l0,0c16.3,21,12.6,51.3-8.4,67.7
				C2504.4,1114.9,2494.1,1118.4,2483.4,1118.4z M2483.2,1028.7c-9.2,0-18.1,3-25.4,8.8c-8.7,6.8-14.3,16.6-15.7,27.6
				c-1.4,11,1.6,21.9,8.5,30.6c6.8,8.7,16.6,14.3,27.6,15.7c11,1.4,21.9-1.6,30.6-8.5c8.7-6.8,14.3-16.6,15.7-27.6
				c1.4-11-1.6-21.9-8.5-30.6l0,0c-6.8-8.7-16.6-14.3-27.6-15.7C2486.7,1028.8,2484.9,1028.7,2483.2,1028.7z"/>
			<path fill="#91B3FA" d="M2482.5,1195.1c-48.2,0-94.2-27.9-114.8-74.8c-7.2-16.4-10.6-33.5-10.6-50.3c0-48.2,27.9-94.2,74.8-114.8
				c30.6-13.5,64.7-14.2,95.8-2.1c31.2,12.1,55.8,35.7,69.3,66.3l0,0c3.3,7.6,5.9,15.5,7.7,23.5c0.1,0.6,0.3,1.3,0.4,1.9
				c0,0.2,0.1,0.5,0.1,0.7c0,1.6-1.1,3-2.7,3.3c-1.8,0.4-3.6-0.8-4-2.6c-1.7-8.2-4.3-16.3-7.7-24l0,0c-12-27.3-33.5-48.7-60.6-60.7
				c-1.6-0.7-3.3-1.4-4.9-2c-29.5-11.5-61.7-10.8-90.7,2c-44.3,19.5-70.8,63.1-70.8,108.6c0,15.9,3.2,32.1,10.1,47.6
				c26.3,59.8,96.5,87,156.3,60.7c19.7-8.7,36.6-22.5,48.9-39.9c1.1-1.5,3.2-1.9,4.7-0.8c0.9,0.7,1.4,1.7,1.4,2.8
				c0,0.7-0.2,1.3-0.6,1.9c-13,18.4-30.9,33-51.7,42.2C2516.4,1191.7,2499.3,1195.1,2482.5,1195.1z"/>
		</g>
	</g>
	<g>
	</g>
	<g>
	</g>
	<g>
	</g>
	<g>
	</g>
	<g>
	</g>
	<g>
	</g>
	<g>
	</g>
	<g>
	</g>
	<g>
	</g>
	<g>
	</g>
	<g>
	</g>
	<g>
	</g>
	<g>
	</g>
	<g>
	</g>
	<g>
	</g>
</g>
</svg>
