<?xml version="1.0" encoding="utf-8"?>
<!-- Generator: Adobe Illustrator 25.2.1, SVG Export Plug-In . SVG Version: 6.00 Build 0)  -->
<svg version="1.1" xmlns="http://www.w3.org/2000/svg" xmlns:xlink="http://www.w3.org/1999/xlink" x="0px" y="0px"
	 viewBox="0 0 3710 3710" enable-background="new 0 0 3710 3710" xml:space="preserve">
<g id="Background">
</g>
<g id="Illustration">
	<g>
		<linearGradient id="SVGID_1_" gradientUnits="userSpaceOnUse" x1="3570.9321" y1="3987.5701" x2="1143.9301" y2="973.3857">
			<stop  offset="0" style="stop-color:#DAE3FE"/>
			<stop  offset="1" style="stop-color:#E9EFFD"/>
		</linearGradient>
		<path fill="url(#SVGID_1_)" d="M2903.2,2798.9c-55.7,58.7-108.5,96.5-150.2,126.4c-489.9,351.5-1069.5,249-1192.7,224
			c-181.9-36.9-533.6-108.4-787.8-407.3c-384.6-452.3-324.7-1164.9-26.4-1635.3c54.6-86,342.8-563.6,928.7-640.2
			c354.6-46.4,767.9,47.1,1067.2,297.9C3370.4,1290.7,3325.7,2354.1,2903.2,2798.9z"/>
		<g>
			<g>
				<path fill="#91B3FA" d="M3193.6,852.8c-2.9-16-25.4-17.5-30.3-2c-47.4,149.9-184,538.9-381.1,741.3
					c-321,329.5-545.3,874.3-356.2,1166.5C2426,2758.6,3509.9,2595.7,3193.6,852.8z"/>
				<path fill="#BDD0FB" d="M3177.6,1065.5c-0.8,4.9-1.9,8.9-2.9,13.2l-3.2,12.7l-6.6,25.2c-4.5,16.8-9.3,33.5-14.1,50.2
					c-9.7,33.4-19.7,66.7-30.1,99.8c-20.9,66.3-43.6,132-67.2,197.4c-23.6,65.4-49,130.2-75.7,194.4c-26.8,64.2-54.5,128-84.4,190.8
					c-59.4,125.8-125.6,248.5-200.3,366.1c-38,58.4-77.4,115.8-120.2,170.8c-43.1,54.7-88.6,107.5-137.7,156.8
					c-1.1,1.1-2.8,1.1-3.9,0c-1-1-1.1-2.7-0.1-3.8l0,0c47-51,91.2-104.4,132.6-159.9c41.6-55.4,80-113.1,116.8-171.7
					c36.8-58.7,71.2-118.8,104.2-179.7c33-60.9,63.5-123.2,93.6-185.6c59.7-125.1,112.7-253.4,162.1-382.9
					c24.6-64.8,47.9-130.2,70-195.9c11.1-32.9,21.9-65.8,32.3-98.9l15.2-49.8l7.3-24.9l3.5-12.5c1.1-4.1,2.3-8.5,3.1-12.2l0.1-0.6
					c0.3-1.5,1.8-2.4,3.2-2.1C3176.9,1062.7,3177.8,1064.1,3177.6,1065.5z"/>
			</g>
			<g>
				<path fill="#BDD0FB" d="M2680.8,492.2c-7-13.9-28-9.1-28.3,6.5c-2.6,150.4-21.7,544.4-147.3,783.8
					c-204.5,389.7-261.6,950.5-8.4,1166.9C2496.8,2449.2,3446.3,2004.1,2680.8,492.2z"/>
				<linearGradient id="SVGID_2_" gradientUnits="userSpaceOnUse" x1="2517.678" y1="1484.6158" x2="2724.8635" y2="1484.6158">
					<stop  offset="0" style="stop-color:#DAE3FE"/>
					<stop  offset="1" style="stop-color:#E9EFFD"/>
				</linearGradient>
				<path fill="url(#SVGID_2_)" d="M2705.6,699.2c0.8,4.7,1.2,8.6,1.7,12.8l1.3,12.4l2.4,24.8c1.5,16.6,2.6,33.2,3.8,49.7
					c2.3,33.2,4.1,66.4,5.7,99.6c3,66.4,4.2,133,4.4,199.5c0.3,66.5-1.3,133.1-4.3,199.5c-3.1,66.5-7.1,132.9-13.2,199.2
					c-12.1,132.6-31.4,264.6-60,394.7c-15,64.9-31.7,129.5-52.1,192.9c-20.9,63.3-44.4,125.7-72.4,186.1c-0.6,1.3-2.2,1.9-3.5,1.3
					c-1.3-0.6-1.9-2.1-1.3-3.4l0,0c25.5-61.2,47.7-123.7,66.7-187.2c19.2-63.4,34.8-127.9,48.6-192.7c13.8-64.8,25-130.2,34.7-195.7
					c9.7-65.6,16.7-131.5,23.3-197.5c12.7-132,18.2-264.7,20.2-397.3c0.8-66.3,0.3-132.7-1.3-199.1c-0.8-33.2-1.9-66.3-3.4-99.5
					l-2.6-49.7l-1.6-24.8l-0.9-12.4c-0.4-4.1-0.7-8.4-1.2-11.9l-0.1-0.6c-0.2-1.4,0.8-2.8,2.3-3
					C2704,696.9,2705.3,697.9,2705.6,699.2z"/>
			</g>
		</g>
		<g>
			<linearGradient id="SVGID_3_" gradientUnits="userSpaceOnUse" x1="833.864" y1="1859.0138" x2="2636.3042" y2="1859.0138">
				<stop  offset="0" style="stop-color:#09005D"/>
				<stop  offset="1" style="stop-color:#1A0F91"/>
			</linearGradient>
			<path fill="url(#SVGID_3_)" d="M866.9,650.4c-10.6,428.8-45.1,1908-28.7,2432.2c1.7,55.5,46.3,100.1,101.8,101.9
				c274.7,9,1064.8,31.8,1514,12.9c93.6-3.9,168-79.7,169.9-173.3c9.3-450.1,29.9-1716.1-19-2296.1
				c-5.9-69.5-60.4-124.8-129.8-131.8C2176,566.4,1381.6,493.3,993.5,518.4C923.5,523,868.6,580.3,866.9,650.4z"/>
			<path fill="#91B3FA" d="M960.4,782c-14.8,346.1-61.4,1497.6-46.6,1923.4c2.2,62.2,51.2,112.6,113.4,116.2
				c256,15,912.5,48,1287.9,17.9c67.6-5.4,120.7-60.1,124.3-127.8c19-353.1,73.7-1425.3,59.5-1846.4c-2.3-67.2-54.3-122-121.2-128
				c-276.9-24.9-988.1-84-1307.1-66.6C1010.6,674,963,722.1,960.4,782z"/>
			<linearGradient id="SVGID_4_" gradientUnits="userSpaceOnUse" x1="1713.1185" y1="591.7876" x2="2044.0973" y2="100.9492">
				<stop  offset="0" style="stop-color:#09005D"/>
				<stop  offset="1" style="stop-color:#1A0F91"/>
			</linearGradient>
			<path fill="url(#SVGID_4_)" d="M1516.7,593.4L1516.7,593.4c0,13.2,10.3,24,23.4,24.7c64.9,3.4,247.6,13,329.3,17.7
				c16.1,0.9,28.7-13.5,25.7-29.4l-0.5-2.7c-2.1-10.8-11-18.9-22-19.9c-55.2-5.1-221.8-19.1-332.2-15.1
				C1527.1,569.1,1516.7,580.1,1516.7,593.4z"/>
			<path fill="#BDD0FB" d="M2089.7,971.5h-974.4c-16.4,0-29.8-13.4-29.8-29.8v0c0-16.4,13.4-29.8,29.8-29.8h974.4
				c16.4,0,29.8,13.4,29.8,29.8v0C2119.6,958,2106.1,971.5,2089.7,971.5z"/>
			<path fill="#BDD0FB" d="M1908.6,1111.8h-796.1c-14.9,0-27.1-12.2-27.1-27.1v-5.6c0-14.9,12.2-27.1,27.1-27.1h796.1
				c14.9,0,27.1,12.2,27.1,27.1v5.6C1935.7,1099.6,1923.5,1111.8,1908.6,1111.8z"/>
			<path fill="#BDD0FB" d="M1989.3,1252.1h-875.5c-15.6,0-28.3-12.7-28.3-28.3v-3c0-15.6,12.7-28.3,28.3-28.3h875.5
				c15.6,0,28.3,12.7,28.3,28.3v3C2017.6,1239.4,2004.8,1252.1,1989.3,1252.1z"/>
		</g>
		<g>
			<linearGradient id="SVGID_5_" gradientUnits="userSpaceOnUse" x1="3213.396" y1="834.9754" x2="2281.1609" y2="2557.5842">
				<stop  offset="0" style="stop-color:#FF928E"/>
				<stop  offset="1" style="stop-color:#FE7062"/>
			</linearGradient>
			<path fill="url(#SVGID_5_)" d="M2106.6,2645.6l490.6-939.9h-100.5c-18.5,0-28.7-21.5-17-35.9l522.9-637.3
				c22.7-27.6,67.4-10.1,65.3,25.6l-36.8,623.2c-2.1,35.7-33.7,62.3-69.2,58.2l-70.1-8L2405,2785.6c-12.7,27.4-40.1,45-70.4,45
				h-168.7L2106.6,2645.6z"/>
			<linearGradient id="SVGID_6_" gradientUnits="userSpaceOnUse" x1="2429.6248" y1="2980.5569" x2="1811.5116" y2="2068.585">
				<stop  offset="0" style="stop-color:#FF928E"/>
				<stop  offset="1" style="stop-color:#FE7062"/>
			</linearGradient>
			<path fill="url(#SVGID_6_)" d="M1700.9,1986.4l346.3,769.4c20.5,45.6,65.8,74.9,115.8,74.9h178.5c23.7,0,45.5-12.9,57-33.6
				l6.4-11.4l0,0c-19.2,0-36.7-10.8-45.5-27.8l-461.5-904.2L1700.9,1986.4z"/>
			<linearGradient id="SVGID_7_" gradientUnits="userSpaceOnUse" x1="1969.6797" y1="1584.2877" x2="1199.5709" y2="2698.9209">
				<stop  offset="0" style="stop-color:#FF928E"/>
				<stop  offset="1" style="stop-color:#FE7062"/>
			</linearGradient>
			<path fill="url(#SVGID_7_)" d="M1944.7,1945L1944.7,1945c-34.7-27.4-85.5-19.4-110,17.5l-509.2,765.1
				c-40.8,61.3-109.5,98.1-183.1,98.1h-71.7l-58.3-168c0,0,473.4-725.9,595.4-835.7c0,0,121.5-109.5,241.3-26.7
				c31.7,21.9,55.7,53.1,70.4,88.7L1944.7,1945z"/>
			<linearGradient id="SVGID_8_" gradientUnits="userSpaceOnUse" x1="1602.6342" y1="3190.7058" x2="670.4027" y2="2238.207">
				<stop  offset="0" style="stop-color:#FF928E"/>
				<stop  offset="1" style="stop-color:#FE7062"/>
			</linearGradient>
			<path fill="url(#SVGID_8_)" d="M458.5,2205.8c0,0,85.2-106.5,250.4-123.1c0,0,78.5,26.7,234.7,306.8
				c156.3,280.1,260,407.8,381.8,338l-10.1,16.7c-33.2,55.1-92.9,88.9-157.3,88.9h-67.3c-74.1,0-138.5-114.2-181.8-174.4
				C787.4,2489.6,533.3,2232.1,458.5,2205.8z"/>
			<path opacity="0.68" fill="#FFFFFF" d="M3008.9,1255.4c-0.2,0-0.4,0-0.6,0c-2.8-0.3-4.8-2.8-4.5-5.6l3.4-30.4
				c0.3-2.8,2.8-4.8,5.6-4.5c2.8,0.3,4.8,2.8,4.5,5.6l-3.4,30.4C3013.6,1253.5,3011.4,1255.4,3008.9,1255.4z"/>
			<path opacity="0.68" fill="#FFFFFF" d="M2572.4,1639.5c-1.1,0-2.2-0.3-3.1-1.1c-2.2-1.7-2.6-4.9-0.9-7.1l431.8-561
				c5.1-6.6,13.7-8.9,21.4-5.8c7.7,3.1,12.3,10.8,11.3,19l-7.6,67.2c-0.3,2.8-2.8,4.8-5.6,4.5c-2.8-0.3-4.8-2.8-4.5-5.6l7.6-67.2
				c0.5-4.6-2.3-7.4-5.1-8.5c-2.8-1.1-6.8-1-9.6,2.6l-431.8,561C2575.4,1638.8,2573.9,1639.5,2572.4,1639.5z"/>
			<path opacity="0.68" fill="#FFFFFF" d="M1592.9,2227.6c-1,0-2-0.3-2.8-0.9c-2.3-1.6-2.9-4.7-1.4-7l223.3-331
				c8-11.9,21.4-18.4,35.8-17.3c14.4,1.1,26.6,9.5,32.8,22.5c1.2,2.5,0.1,5.5-2.4,6.7c-2.5,1.2-5.6,0.1-6.7-2.4
				c-4.6-9.7-13.7-15.9-24.4-16.8c-10.7-0.8-20.6,4-26.6,12.9l-223.3,331C1596.1,2226.8,1594.5,2227.6,1592.9,2227.6z"/>
			<path opacity="0.68" fill="#FFFFFF" d="M1534.9,2313.6c-1,0-2-0.3-2.8-0.9c-2.3-1.6-2.9-4.7-1.4-7l14.3-21.2
				c1.6-2.3,4.7-2.9,7-1.4c2.3,1.6,2.9,4.7,1.4,7l-14.3,21.2C1538.1,2312.8,1536.5,2313.6,1534.9,2313.6z"/>
		</g>
		<g>
			<g>
				<g>
					
						<linearGradient id="SVGID_9_" gradientUnits="userSpaceOnUse" x1="4610.8428" y1="3245.8667" x2="4799.6714" y2="3245.8667" gradientTransform="matrix(1 0 0 1 -3769.1077 0)">
						<stop  offset="0" style="stop-color:#4F52FF"/>
						<stop  offset="1" style="stop-color:#4042E2"/>
					</linearGradient>
					<path fill="url(#SVGID_9_)" d="M1025.2,3236.7c-32.3,2.8-88.5,7.3-132.8,9.3c-26.6,1.2-41.9-1.4-50.7-5c0,1,0,1.9,0.1,2.8
						c0.2,4.7,4,8.4,8.7,8.6c83.6,4.7,150.1,1.6,173.8,0.2c4.9-0.3,7.8-5.6,5.3-9.8C1028.4,3240.8,1026.9,3238.8,1025.2,3236.7z"/>
					
						<linearGradient id="SVGID_10_" gradientUnits="userSpaceOnUse" x1="4610.832" y1="3208.8589" x2="4794.3394" y2="3208.8589" gradientTransform="matrix(1 0 0 1 -3769.1077 0)">
						<stop  offset="0" style="stop-color:#09005D"/>
						<stop  offset="1" style="stop-color:#1A0F91"/>
					</linearGradient>
					<path fill="url(#SVGID_10_)" d="M892.5,3246c44.3-1.9,100.4-6.5,132.8-9.3c-31.8-39-132.8-65.3-132.8-65.3H864
						c-19.6,28.3-22.4,55.2-22.2,69.6C850.6,3244.6,865.9,3247.2,892.5,3246z"/>
					
						<linearGradient id="SVGID_11_" gradientUnits="userSpaceOnUse" x1="4628.2764" y1="3157.1907" x2="4681.4653" y2="3157.1907" gradientTransform="matrix(1 0 0 1 -3769.1077 0)">
						<stop  offset="0" style="stop-color:#FEBBBA"/>
						<stop  offset="1" style="stop-color:#FF928E"/>
					</linearGradient>
					<path fill="url(#SVGID_11_)" d="M859.2,3124.9l2.7,52.8c0.3,5.7,4.6,10.5,10.3,11.3c5.7,0.8,13.3,0.9,21.4-1.8
						c5-1.7,8.7-5.9,9.6-11l9.2-51.4H859.2z"/>
				</g>
				<g>
					<g>
						
							<linearGradient id="SVGID_12_" gradientUnits="userSpaceOnUse" x1="4234.397" y1="3241.7944" x2="4306.7593" y2="3241.7944" gradientTransform="matrix(1 0 0 1 -3769.1077 0)">
							<stop  offset="0" style="stop-color:#4F52FF"/>
							<stop  offset="1" style="stop-color:#4042E2"/>
						</linearGradient>
						<path fill="url(#SVGID_12_)" d="M488.9,3245.6c-14-2-20.4-9.2-23-17c0,0.1,0,0.1-0.1,0.2c-2.1,8.2,2.7,16.7,12.3,20.8
							c11.6,4.9,24.2,5.7,34,5.3c10.5-0.4,20.2-4.8,25.5-11.8l0.1-0.1C527.1,3248.3,512.2,3248.9,488.9,3245.6z"/>
						
							<linearGradient id="SVGID_13_" gradientUnits="userSpaceOnUse" x1="4234.9233" y1="3186.0776" x2="4341.1372" y2="3186.0776" gradientTransform="matrix(1 0 0 1 -3769.1077 0)">
							<stop  offset="0" style="stop-color:#09005D"/>
							<stop  offset="1" style="stop-color:#1A0F91"/>
						</linearGradient>
						<path fill="url(#SVGID_13_)" d="M555,3124.5h-23.5c-35.8-0.7-58.3,74.8-65.7,104.1c2.7,7.8,9,15.1,23,17
							c23.4,3.3,38.2,2.6,48.8-2.6c19.3-25.5,28.9-62.8,33.6-84.5C576.4,3133.8,555,3124.5,555,3124.5z"/>
					</g>
					
						<linearGradient id="SVGID_14_" gradientUnits="userSpaceOnUse" x1="4290.1313" y1="3112.8501" x2="4353.6982" y2="3112.8501" gradientTransform="matrix(1 0 0 1 -3769.1077 0)">
						<stop  offset="0" style="stop-color:#FEBBBA"/>
						<stop  offset="1" style="stop-color:#FF928E"/>
					</linearGradient>
					<path fill="url(#SVGID_14_)" d="M534.5,3075.5l-13.1,51.9c-1.6,6.4,1.4,13,7.3,16c7.3,3.7,17.6,7.7,27,6.5
						c4.4-0.5,8.1-3.7,9.6-7.9l19.2-54.6L534.5,3075.5z"/>
				</g>
				
					<linearGradient id="SVGID_15_" gradientUnits="userSpaceOnUse" x1="3624.1931" y1="3885.5847" x2="4459.2378" y2="2940.825" gradientTransform="matrix(1 0 0 1 -3769.1077 0)">
					<stop  offset="0" style="stop-color:#4F52FF"/>
					<stop  offset="1" style="stop-color:#4042E2"/>
				</linearGradient>
				<path fill="url(#SVGID_15_)" d="M518.9,3090.5c16.2,14.4,69.1,16.3,69.1,16.3c190.3-456.8,268.2-521.7,268.2-521.7
					c-27.5,172.4-4.4,554.1-4.4,554.1c31.4,13.9,71.9,0,71.9,0c2.6-282.3,45.9-528.4,97.2-722.5c-128.6-2.9-197-46.9-219.4-64.6
					C694.2,2525.1,518.9,3090.5,518.9,3090.5z"/>
				<linearGradient id="SVGID_16_" gradientUnits="userSpaceOnUse" x1="1040.6039" y1="2015.6327" x2="1648.4902" y2="1412.8114">
					<stop  offset="0" style="stop-color:#4F52FF"/>
					<stop  offset="1" style="stop-color:#4042E2"/>
				</linearGradient>
				<path fill="url(#SVGID_16_)" d="M834.1,1826.9c-24.3,121.4-15.6,338.8-9.9,438c1.6,27.9-17.8,66.5-33.6,92.9
					c-2.5,4.1-0.9,9.4,3.3,11.6c26.3,13.5,115.5,55.5,218.9,60.7c6.9,0.3,13-4.3,14.8-11c76.7-286.3,165.7-469.2,165.7-469.2
					C1095.1,1792.8,834.1,1826.9,834.1,1826.9z"/>
				
					<linearGradient id="SVGID_17_" gradientUnits="userSpaceOnUse" x1="4504.3428" y1="2877.4434" x2="4534.8018" y2="2816.5249" gradientTransform="matrix(1 0 0 1 -3769.1077 0)">
					<stop  offset="0" style="stop-color:#09005D"/>
					<stop  offset="1" style="stop-color:#1A0F91"/>
				</linearGradient>
				<path fill="url(#SVGID_17_)" d="M869.2,2574.4c-1.1,0-2.2-0.3-3.2-0.9c-2.9-1.8-3.8-5.5-2-8.4c1-1.7,25.6-41.5,75.5-65.5
					c3-1.5,6.7-0.2,8.1,2.8c1.5,3,0.2,6.7-2.8,8.1c-46.4,22.4-70.1,60.5-70.3,60.9C873.2,2573.3,871.2,2574.4,869.2,2574.4z"/>
				<g>
					<linearGradient id="SVGID_18_" gradientUnits="userSpaceOnUse" x1="763.4928" y1="2175.8862" x2="889.5792" y2="1869.6761">
						<stop  offset="0" style="stop-color:#FEBBBA"/>
						<stop  offset="1" style="stop-color:#FF928E"/>
					</linearGradient>
					<path fill="url(#SVGID_18_)" d="M681.4,2175.5c7.8,56.6,30.9,118.3,77.2,183.8l17.6-14.3c0,0-20.3-82.3-8.8-175.7
						C738.9,2163.7,705.2,2169.4,681.4,2175.5z"/>
					<linearGradient id="SVGID_19_" gradientUnits="userSpaceOnUse" x1="912.2264" y1="1886.178" x2="1520.114" y2="1283.3556">
						<stop  offset="0" style="stop-color:#4F52FF"/>
						<stop  offset="1" style="stop-color:#4042E2"/>
					</linearGradient>
					<path fill="url(#SVGID_19_)" d="M861.3,1976.8l-27.2-149.8c0,0-181.7,138.9-152.7,348.5c23.8-6,57.5-11.7,86-6.2
						C775.7,2102,800.5,2028.9,861.3,1976.8z"/>
				</g>
				<g>
					<linearGradient id="SVGID_20_" gradientUnits="userSpaceOnUse" x1="1168.3241" y1="2144.426" x2="1776.2119" y2="1541.6033">
						<stop  offset="0" style="stop-color:#4F52FF"/>
						<stop  offset="1" style="stop-color:#4042E2"/>
					</linearGradient>
					<path fill="url(#SVGID_20_)" d="M1193.4,1949.8l-70.1,151c11.3,91.2,60.3,130.6,113.1,145.7c3.3-41.6,13.8-75.1,23.6-98.4
						C1192.5,2078.5,1193.4,1949.8,1193.4,1949.8z"/>
					
						<linearGradient id="SVGID_21_" gradientUnits="userSpaceOnUse" x1="5005.5571" y1="2205.2412" x2="5183.7661" y2="2205.2412" gradientTransform="matrix(1 0 0 1 -3769.1077 0)">
						<stop  offset="0" style="stop-color:#FEBBBA"/>
						<stop  offset="1" style="stop-color:#FF928E"/>
					</linearGradient>
					<path fill="url(#SVGID_21_)" d="M1260,2148.2c-9.8,23.2-20.3,56.8-23.6,98.4c140.9,54.7,178.2-51.4,178.2-51.4l-26-4.6
						C1329.8,2196.8,1288.7,2177.9,1260,2148.2z"/>
				</g>
				
					<linearGradient id="SVGID_22_" gradientUnits="userSpaceOnUse" x1="4832.3335" y1="1729.0018" x2="4830.3867" y2="2061.7942" gradientTransform="matrix(1 0 0 1 -3769.1077 0)">
					<stop  offset="0" style="stop-color:#FEBBBA"/>
					<stop  offset="1" style="stop-color:#FF928E"/>
				</linearGradient>
				<path fill="url(#SVGID_22_)" d="M1128.8,1763.3l-33.9,124.5c-3.8,14-18.9,21.5-32.4,16.1c-14.5-5.8-32.9-13.7-48.8-22.3
					c-16.9-9.1-22.2-30.9-11.5-46.9l70.4-105L1128.8,1763.3z"/>
			</g>
			
				<linearGradient id="SVGID_23_" gradientUnits="userSpaceOnUse" x1="4337.0024" y1="2335.7869" x2="5270.2061" y2="2335.7869" gradientTransform="matrix(1 0 0 1 -3769.1077 0)">
				<stop  offset="0" style="stop-color:#09005D"/>
				<stop  offset="1" style="stop-color:#1A0F91"/>
			</linearGradient>
			<path fill="url(#SVGID_23_)" d="M1479.2,2111.9l-867.6,315.8c-36.4,13.2-53.8,54.7-37.8,89.9l2.6,5.8
				c14.2,31.2,51,44.9,82.1,30.5l842.4-389.7L1479.2,2111.9z"/>
			<g opacity="0.2">
				<ellipse fill="#BDD0FB" cx="1878" cy="1922" rx="428.3" ry="420.6"/>
			</g>
			
				<linearGradient id="SVGID_24_" gradientUnits="userSpaceOnUse" x1="5170.5688" y1="1921.9877" x2="6123.7285" y2="1921.9877" gradientTransform="matrix(1 0 0 1 -3769.1077 0)">
				<stop  offset="0" style="stop-color:#09005D"/>
				<stop  offset="1" style="stop-color:#1A0F91"/>
			</linearGradient>
			<path fill="url(#SVGID_24_)" d="M1878,1454c-263.2,0-476.6,209.5-476.6,468c0,258.5,213.4,468,476.6,468
				c263.2,0,476.6-209.5,476.6-468C2354.6,1663.5,2141.2,1454,1878,1454z M1878,2321.2c-224.5,0-406.6-178.7-406.6-399.2
				c0-220.5,182-399.2,406.6-399.2c224.5,0,406.6,178.7,406.6,399.2C2284.6,2142.5,2102.6,2321.2,1878,2321.2z"/>
			<g>
				<path fill="#BDD0FB" d="M1437.7,1980c-1.6,0-3-1.2-3.2-2.8c-1.4-11.2-2.4-22.4-3-33.6c-0.1-1.8,1.3-3.3,3-3.4
					c2.1-0.1,3.3,1.3,3.4,3c0.5,10.9,1.5,22.1,2.9,33.1c0.2,1.8-1,3.4-2.8,3.6C1438,1980,1437.8,1980,1437.7,1980z M1441,1849.1
					c-0.2,0-0.4,0-0.6-0.1c-1.7-0.3-2.9-2-2.6-3.7c5.4-30.1,14-59.7,25.7-88l0,0c68.7-166.7,231.4-274.4,414.5-274.4
					c85.4,0,168.4,23.7,240,68.6c1.5,0.9,1.9,2.9,1,4.4c-0.9,1.5-2.9,2-4.4,1c-70.6-44.2-152.5-67.6-236.6-67.6
					c-180.5,0-340.9,106.1-408.6,270.4c0,0,0,0,0,0c-11.5,27.9-20,57-25.3,86.7C1443.8,1848,1442.5,1849.1,1441,1849.1z"/>
			</g>
			<g>
				
					<linearGradient id="SVGID_25_" gradientUnits="userSpaceOnUse" x1="4576.96" y1="3848.449" x2="4413.1445" y2="4065.1636" gradientTransform="matrix(0.9897 -0.1428 0.1428 0.9897 -3908.1624 -1480.9402)">
					<stop  offset="0" style="stop-color:#FEBBBA"/>
					<stop  offset="1" style="stop-color:#FF928E"/>
				</linearGradient>
				<path fill="url(#SVGID_25_)" d="M1202.9,1668.8c0.3,2.1-28.2,142-28.2,142l-79.5-18l7.4-136.6
					C1102.5,1656.2,1197.7,1633,1202.9,1668.8z"/>
				
					<linearGradient id="SVGID_26_" gradientUnits="userSpaceOnUse" x1="3650.2356" y1="1709.9448" x2="4218.604" y2="1781.8075" gradientTransform="matrix(1 0 0 1 -2628.3743 0)">
					<stop  offset="0" style="stop-color:#09005D"/>
					<stop  offset="1" style="stop-color:#1A0F91"/>
				</linearGradient>
				<path fill="url(#SVGID_26_)" d="M1120.4,1686.6l-9.5,71.6c-0.1,0.9-0.1,1.8,0,2.7c0.8,5.6,5,24.7,24.3,19.3
					c17.5-5,33.6-9.2,44.6-5.8c5,1.5,8,6.6,6.9,11.7c-2.6,12.7-9,41.2-18.3,65.2c-1.9,4.9-7.2,7.4-12.2,6
					c-15.1-4.4-46.6-14.6-70.1-28.7c-3.2-1.9-5.1-5.4-4.9-9.1c0.8-18.1,2.9-73,1.1-88.4c-1.7-14.5-19.4-23.1-27.1-26.2
					c-2.5-1-4.5-3-5.5-5.5c-3.6-8.9-8.5-29.7,17.6-38.1c5.5-1.8,8.3-7.7,6.4-13.1c-3.9-10.8-5.5-27.2,14.7-36.2
					c20.5-9.2,35.8,1.7,44.1,10.6c3.3,3.6,8.7,4.1,12.9,1.5c2.4-1.5,5.4-2,9.1,0.3c5,3.1,11.5,1,14.1-4.3
					c4.9-10.1,14.9-20.9,35-17.4c35.6,6.1,39.7,45.6,30.3,68.7c-9.4,23.1-47.7,14.3-66.9,2.7c-14.6-8.9-33.5,0.4-41.8,5.4
					C1122.5,1680.9,1120.8,1683.6,1120.4,1686.6z"/>
				<linearGradient id="SVGID_27_" gradientUnits="userSpaceOnUse" x1="1211.1746" y1="1526.4988" x2="893.7042" y2="1972.3077">
					<stop  offset="0" style="stop-color:#FEBBBA"/>
					<stop  offset="1" style="stop-color:#FF928E"/>
				</linearGradient>
				<path fill="url(#SVGID_27_)" d="M1079.1,1757.1c0,0,14.7-41-0.4-51.1c-15.1-10-37.3-4.8-32.4,24.9
					C1052.3,1767.9,1079.1,1757.1,1079.1,1757.1z"/>
			</g>
			<linearGradient id="SVGID_28_" gradientUnits="userSpaceOnUse" x1="859.5869" y1="2287.5281" x2="1021.6984" y2="1994.8267">
				<stop  offset="0" style="stop-color:#FEBBBA"/>
				<stop  offset="1" style="stop-color:#FF928E"/>
			</linearGradient>
			<path fill="url(#SVGID_28_)" d="M768.9,2342.5l82-6.7l35.5,32.7c0,0-8.4,11.6-34.7,4.9c-26.3-6.7-62.3-8.3-62.3-8.3
				s-36.3,16.4-36.7-14.2L768.9,2342.5z"/>
			
				<linearGradient id="SVGID_29_" gradientUnits="userSpaceOnUse" x1="5164.833" y1="2184.3118" x2="5228.6514" y2="2184.3118" gradientTransform="matrix(1 0 0 1 -3769.1077 0)">
				<stop  offset="0" style="stop-color:#FEBBBA"/>
				<stop  offset="1" style="stop-color:#FF928E"/>
			</linearGradient>
			<path fill="url(#SVGID_29_)" d="M1404.2,2214.6c7.1,5.5,31.4-6,46.3-14c7.2-3.9,10.8-12.4,8.3-20.2c-3.6-11.3-9.5-25.9-16.9-27.7
				C1429.7,2149.7,1375,2191.8,1404.2,2214.6z"/>
			<path fill="#BDD0FB" d="M628.7,2541.8c-0.3,0-0.7-0.1-1.1-0.2c-33.9-11.7-41.8-31.7-42.4-46.5c-0.9-21.5,12.6-41.5,33.7-49.7
				l104.2-40.6c1.6-0.6,3.5,0.2,4.1,1.8c0.6,1.6-0.2,3.5-1.8,4.1l-104.2,40.6c-18.5,7.2-30.4,24.7-29.6,43.5
				c0.8,18.5,13.6,32.2,38.1,40.7c1.7,0.6,2.6,2.4,2,4.1C631.3,2540.9,630.1,2541.8,628.7,2541.8z"/>
			<path fill="#BDD0FB" d="M756.4,2398.4c-1.3,0-2.5-0.8-3-2c-0.6-1.7,0.2-3.5,1.8-4.1l13.5-5.3c1.6-0.6,3.5,0.2,4.1,1.8
				c0.6,1.7-0.2,3.5-1.8,4.1l-13.5,5.3C757.2,2398.4,756.8,2398.4,756.4,2398.4z"/>
		</g>
	</g>
	<g>
	</g>
	<g>
	</g>
	<g>
	</g>
	<g>
	</g>
	<g>
	</g>
	<g>
	</g>
	<g>
	</g>
	<g>
	</g>
	<g>
	</g>
	<g>
	</g>
	<g>
	</g>
	<g>
	</g>
	<g>
	</g>
	<g>
	</g>
	<g>
	</g>
</g>
</svg>
