<?xml version="1.0" encoding="utf-8"?>
<!-- Generator: Adobe Illustrator 25.2.3, SVG Export Plug-In . SVG Version: 6.00 Build 0)  -->
<svg version="1.1" id="a6833da5-9bdf-4f17-9d69-a71df6243939"
	 xmlns="http://www.w3.org/2000/svg" xmlns:xlink="http://www.w3.org/1999/xlink" x="0px" y="0px" viewBox="0 0 245.9 235.3"
	 style="enable-background:new 0 0 245.9 235.3;" xml:space="preserve">
<style type="text/css">
	.st0{fill:#FFFFFF;}
	.st1{fill:#150035;}
	.st2{fill:#00CFB3;}
</style>
<path class="st0" d="M110,51.6c0-14.8-10.4-32.8-23.2-40.2c-5.9-3.4-11.3-4-15.4-2.1L71,9.6l-4.2,2.3L64.4,16
	c-2.2,2.8-0.8,3.7-0.8,8.9C63.6,39.7,74,57.6,86.8,65c4.5,2.6,3.3,2.5,6.9,1.9l5.5,2l4-2.2l0.4-0.2C107.5,64,110,58.9,110,51.6z"/>
<path class="st1" d="M99.1,69.5l-5.5-2l-0.8,0.1c-2.1,0.3-2.2,0.3-4.4-1c-0.5-0.3-1.1-0.7-1.9-1.1C73.6,58,63.1,39.8,63.1,24.9
	c0-1.3-0.1-2.6-0.3-3.9c-0.2-2-0.4-3.2,1.2-5.3l2.4-4.2l4.7-2.6c4.4-2,10-1.2,15.9,2.1c12.9,7.5,23.4,25.7,23.4,40.6
	c0,7.2-2.4,12.6-6.8,15.3l-0.4,0.2L99.1,69.5z M93.7,66.5l5.4,1.9l4.1-2.3c4.1-2.5,6.3-7.6,6.3-14.5c0-14.6-10.3-32.5-23-39.8
	c-5.5-3.2-10.9-4-15-2.1L67,12.2l-2.3,4c-1.4,1.8-1.3,2.7-1,4.7c0.2,1.3,0.3,2.7,0.3,4c0,14.6,10.3,32.5,23,39.8l2,1.1
	c1.9,1.2,1.9,1.2,3.7,0.9L93.7,66.5L93.7,66.5z"/>
<path class="st1" d="M75.2,54.7c3.2,4.1,7.1,7.6,11.6,10.3c4.5,2.6,3.3,2.5,6.9,1.9l5.4,2l4-2.2l0.4-0.2c4.1-2.5,6.5-7.6,6.5-14.9
	c0-6.7-2.1-14-5.6-20.6L84.8,41.8L75.2,54.7z"/>
<ellipse transform="matrix(0.866 -0.5 0.5 0.866 -9.0005 47.0041)" class="st0" cx="83.2" cy="40.3" rx="18.9" ry="32.8"/>
<path class="st1" d="M93.5,70.7c-3.8-0.1-7.4-1.3-10.6-3.2C70,60,59.5,41.8,59.5,26.9c0-7.3,2.5-12.8,7-15.4s10.5-2,16.9,1.6
	c12.9,7.5,23.4,25.7,23.4,40.6c0,7.3-2.5,12.8-7,15.4C97.9,70.2,95.7,70.7,93.5,70.7z M72.8,10.8c-2,0-4,0.5-5.8,1.5
	c-4.2,2.4-6.5,7.6-6.5,14.6c0,14.6,10.3,32.5,23,39.8c6,3.5,11.7,4.1,15.9,1.6s6.6-7.6,6.6-14.6c0-14.6-10.3-32.5-23-39.8
	C79.9,12,76.4,10.9,72.8,10.8z"/>
<ellipse transform="matrix(0.866 -0.5 0.5 0.866 -9.0001 47.0055)" class="st2" cx="83.2" cy="40.3" rx="16.1" ry="27.9"/>
<path class="st1" d="M92,66.3c-3.2-0.1-6.3-1.1-9.1-2.8c-11-6.4-20-21.9-20-34.6c0-6.3,2.1-11,6-13.2s9-1.8,14.4,1.4
	c11,6.4,20,21.9,20,34.6c0,6.3-2.1,11-6,13.2C95.7,65.8,93.9,66.3,92,66.3z M74.3,15.3c-1.7,0-3.4,0.4-4.9,1.3
	c-3.6,2.1-5.5,6.5-5.5,12.4c0,12.4,8.8,27.6,19.5,33.8c5.1,3,9.9,3.4,13.5,1.4c3.6-2.1,5.5-6.5,5.5-12.4c0-12.4-8.8-27.6-19.5-33.8
	C80.3,16.3,77.4,15.4,74.3,15.3L74.3,15.3z"/>
<path class="st0" d="M83.1,29.7L82,41.3l2.2,1.3L83.1,29.7C83.2,29.7,83.1,29.6,83.1,29.7z"/>
<path class="st1" d="M84.8,43.4l-3.3-1.9l1.1-12.2h0.5c0.3,0,0.5,0.2,0.6,0.5L84.8,43.4z M82.5,41l1.2,0.7l-0.6-7.3L82.5,41z"/>
<rect x="87.7" y="38.1" transform="matrix(8.854173e-02 -0.9961 0.9961 8.854173e-02 37.4871 126.9746)" class="st1" width="0.9" height="9.8"/>
<rect x="81.9" y="21.3" transform="matrix(8.725870e-03 -1 1 8.725870e-03 60.8063 104.6495)" class="st1" width="2.5" height="0.7"/>
<rect x="83.6" y="22.4" transform="matrix(0.1064 -0.9943 0.9943 0.1064 53.2022 104.6212)" class="st1" width="2.4" height="0.7"/>
<rect x="85.3" y="23.6" transform="matrix(0.213 -0.977 0.977 0.213 44.5973 103.3324)" class="st1" width="2.2" height="0.7"/>
<rect x="87.1" y="25.1" transform="matrix(0.3312 -0.9436 0.9436 0.3312 34.9126 100.2415)" class="st1" width="2.1" height="0.7"/>
<rect x="88.7" y="26.7" transform="matrix(0.4574 -0.8893 0.8893 0.4574 24.58 94.4476)" class="st1" width="2" height="0.7"/>
<rect x="90.3" y="28.4" transform="matrix(0.5886 -0.8084 0.8084 0.5886 14.3231 85.5781)" class="st1" width="1.9" height="0.7"/>
<rect x="91.7" y="30.4" transform="matrix(0.7153 -0.6988 0.6988 0.7153 4.8959 73.4789)" class="st1" width="1.8" height="0.7"/>
<rect x="93.1" y="32.3" transform="matrix(0.8282 -0.5605 0.5605 0.8282 -2.1406 58.2944)" class="st1" width="1.8" height="0.7"/>
<rect x="94.3" y="34.4" transform="matrix(0.9155 -0.4024 0.4024 0.9155 -5.9351 41.2471)" class="st1" width="1.8" height="0.7"/>
<rect x="95.3" y="36.5" transform="matrix(0.9717 -0.2363 0.2363 0.9717 -5.9836 23.7752)" class="st1" width="1.8" height="0.7"/>
<rect x="97.1" y="39.8" transform="matrix(0.9976 -6.982342e-02 6.982342e-02 0.9976 -2.5642 6.9444)" class="st1" width="1.9" height="0.7"/>
<rect x="97.6" y="40.2" transform="matrix(7.775873e-02 -0.997 0.997 7.775873e-02 49.2843 135.5833)" class="st1" width="0.7" height="2"/>
<rect x="98.1" y="42.4" transform="matrix(0.2108 -0.9775 0.9775 0.2108 35.2572 130.5475)" class="st1" width="0.7" height="2.1"/>
<rect x="98.6" y="44.4" transform="matrix(0.3259 -0.9454 0.9454 0.3259 23.6526 124.2885)" class="st1" width="0.7" height="2.3"/>
<rect x="98.9" y="46.4" transform="matrix(0.424 -0.9057 0.9057 0.424 14.0732 117.2699)" class="st1" width="0.7" height="2.4"/>
<rect x="95.9" y="47.7" transform="matrix(0.5026 -0.8645 0.8645 0.5026 4.4626 108.1744)" class="st1" width="0.7" height="5"/>
<rect x="98.9" y="50.2" transform="matrix(0.5797 -0.8148 0.8148 0.5797 -0.2911 102.5513)" class="st1" width="0.7" height="2.7"/>
<rect x="98.6" y="51.9" transform="matrix(0.6413 -0.7673 0.7673 0.6413 -5.4051 95.0525)" class="st1" width="0.7" height="2.8"/>
<rect x="98.2" y="53.5" transform="matrix(0.6949 -0.7191 0.7191 0.6949 -9.4452 87.649)" class="st1" width="0.7" height="2.9"/>
<rect x="97.6" y="54.9" transform="matrix(0.7419 -0.6706 0.6706 0.7419 -12.5248 80.2415)" class="st1" width="0.7" height="3"/>
<rect x="96.8" y="56.1" transform="matrix(0.7834 -0.6216 0.6216 0.7834 -14.7411 72.859)" class="st1" width="0.7" height="3"/>
<rect x="95.9" y="57.2" transform="matrix(0.8205 -0.5717 0.5717 0.8205 -16.2997 65.5732)" class="st1" width="0.7" height="3.1"/>
<rect x="94.8" y="58.1" transform="matrix(0.8536 -0.5209 0.5209 0.8536 -17.1403 58.2915)" class="st1" width="0.7" height="3.1"/>
<rect x="93.6" y="58.9" transform="matrix(0.8837 -0.4681 0.4681 0.8837 -17.3731 51.0105)" class="st1" width="0.7" height="3.1"/>
<rect x="92.3" y="59.3" transform="matrix(0.9105 -0.4134 0.4134 0.9105 -16.8679 43.7447)" class="st1" width="0.7" height="3.1"/>
<rect x="90.9" y="59.6" transform="matrix(0.9346 -0.3558 0.3558 0.9346 -15.7688 36.4667)" class="st1" width="0.7" height="3"/>
<rect x="89.4" y="59.6" transform="matrix(0.9557 -0.2944 0.2944 0.9557 -13.9936 29.1279)" class="st1" width="0.7" height="2.9"/>
<rect x="87.8" y="59.5" transform="matrix(0.9736 -0.2284 0.2284 0.9736 -11.5915 21.745)" class="st1" width="0.7" height="2.9"/>
<rect x="86.2" y="59.1" transform="matrix(0.9877 -0.1566 0.1566 0.9877 -8.4066 14.3003)" class="st1" width="0.7" height="2.8"/>
<rect x="84.5" y="58.5" transform="matrix(0.997 -7.775875e-02 7.775875e-02 0.997 -4.3932 6.7791)" class="st1" width="0.7" height="2.6"/>
<rect x="80.7" y="57.3" transform="matrix(3.839680e-03 -1 1 3.839680e-03 25.2182 140.5446)" class="st1" width="5" height="0.7"/>
<rect x="80.3" y="57.5" transform="matrix(0.1054 -0.9944 0.9944 0.1054 15.3533 132.7817)" class="st1" width="2.4" height="0.7"/>
<rect x="78.6" y="56.3" transform="matrix(0.213 -0.977 0.977 0.213 7.3762 122.4327)" class="st1" width="2.2" height="0.7"/>
<rect x="77.1" y="54.8" transform="matrix(0.3312 -0.9436 0.9436 0.3312 0.2183 110.6517)" class="st1" width="2.1" height="0.7"/>
<rect x="75.6" y="53.2" transform="matrix(0.4574 -0.8893 0.8893 0.4574 -6.0441 97.1801)" class="st1" width="2" height="0.7"/>
<rect x="74.1" y="51.4" transform="matrix(0.5881 -0.8088 0.8088 0.5881 -10.9574 81.9913)" class="st1" width="1.9" height="0.7"/>
<rect x="72.7" y="49.5" transform="matrix(0.7148 -0.6993 0.6993 0.7148 -13.8887 65.7071)" class="st1" width="1.8" height="0.7"/>
<rect x="71.4" y="47.5" transform="matrix(0.8278 -0.5611 0.5611 0.8278 -14.3954 48.7991)" class="st1" width="1.8" height="0.7"/>
<rect x="70.2" y="45.5" transform="matrix(0.9154 -0.4026 0.4026 0.9154 -12.4462 32.5036)" class="st1" width="1.8" height="0.7"/>
<rect x="69.2" y="43.3" transform="matrix(0.9717 -0.2363 0.2363 0.9717 -8.3286 17.8005)" class="st1" width="1.8" height="0.7"/>
<rect x="69.1" y="42.2" transform="matrix(0.9976 -6.982342e-02 6.982342e-02 0.9976 -2.8001 4.9952)" class="st1" width="1.9" height="0.7"/>
<rect x="68" y="38.4" transform="matrix(7.775873e-02 -0.997 0.997 7.775873e-02 23.7697 104.4674)" class="st1" width="0.7" height="2"/>
<rect x="67.4" y="36.2" transform="matrix(0.2108 -0.9775 0.9775 0.2108 17.0664 95.6356)" class="st1" width="0.7" height="2.1"/>
<rect x="67" y="33.9" transform="matrix(0.3259 -0.9454 0.9454 0.3259 12.2696 87.3128)" class="st1" width="0.7" height="2.3"/>
<rect x="66.7" y="31.7" transform="matrix(0.4242 -0.9056 0.9056 0.4242 8.7855 79.6213)" class="st1" width="0.7" height="2.4"/>
<rect x="67.7" y="29" transform="matrix(0.5039 -0.8637 0.8637 0.5039 6.5726 74.3634)" class="st1" width="0.7" height="5"/>
<rect x="66.7" y="27.8" transform="matrix(0.5796 -0.8149 0.8149 0.5796 4.4609 66.9234)" class="st1" width="0.7" height="2.7"/>
<rect x="66.7" y="24.8" transform="matrix(0.6392 -0.769 0.769 0.6392 4.053 61.0385)" class="st1" width="0.7" height="2.8"/>
<rect x="67.4" y="24.2" transform="matrix(0.6948 -0.7192 0.7192 0.6948 2.2141 56.5571)" class="st1" width="0.7" height="2.9"/>
<rect x="68.1" y="22.7" transform="matrix(0.7419 -0.6706 0.6706 0.7419 1.4545 52.1617)" class="st1" width="0.7" height="3"/>
<rect x="68.8" y="21.4" transform="matrix(0.7834 -0.6216 0.6216 0.7834 0.7402 47.9514)" class="st1" width="0.7" height="3"/>
<rect x="69.7" y="20.2" transform="matrix(0.8205 -0.5717 0.5717 0.8205 0.1365 43.944)" class="st1" width="0.7" height="3.1"/>
<rect x="70.8" y="19.3" transform="matrix(0.8538 -0.5206 0.5206 0.8538 -0.4481 40.0836)" class="st1" width="0.7" height="3.1"/>
<rect x="72" y="18.6" transform="matrix(0.8837 -0.4681 0.4681 0.8837 -1.0134 36.2072)" class="st1" width="0.7" height="3.1"/>
<rect x="73.3" y="18.2" transform="matrix(0.9106 -0.4133 0.4133 0.9106 -1.5798 32.206)" class="st1" width="0.7" height="3.1"/>
<rect x="74.7" y="18" transform="matrix(0.9346 -0.3558 0.3558 0.9346 -2.0287 27.9781)" class="st1" width="0.7" height="3"/>
<rect x="76.2" y="18" transform="matrix(0.9557 -0.2944 0.2944 0.9557 -2.3504 23.4005)" class="st1" width="0.7" height="3"/>
<rect x="77.8" y="18.2" transform="matrix(0.9736 -0.2284 0.2284 0.9736 -2.4224 18.3688)" class="st1" width="0.7" height="2.9"/>
<rect x="79.4" y="18.7" transform="matrix(0.9877 -0.1566 0.1566 0.9877 -2.1639 12.7367)" class="st1" width="0.7" height="2.8"/>
<rect x="81.1" y="19.5" transform="matrix(0.997 -7.775875e-02 7.775875e-02 0.997 -1.3708 6.3966)" class="st1" width="0.7" height="2.6"/>
<rect x="80.6" y="22.4" transform="matrix(4.886765e-03 -1 1 4.886765e-03 59.9788 105.743)" class="st1" width="5" height="0.7"/>
<path class="st0" d="M84.8,43.4c0,0.9-0.7,1.3-1.5,0.8c-0.9-0.6-1.4-1.5-1.5-2.6c0-0.9,0.7-1.3,1.5-0.9
	C84.1,41.4,84.7,42.4,84.8,43.4z"/>
<path class="st1" d="M83.9,44.9c-0.3,0-0.6-0.1-0.9-0.3c-1-0.7-1.7-1.8-1.7-3c-0.1-0.7,0.4-1.4,1.1-1.5c0.4-0.1,0.8,0,1.1,0.3
	c1,0.7,1.7,1.8,1.7,3c0,0.5-0.2,1.1-0.7,1.4C84.4,44.9,84.2,44.9,83.9,44.9z M82.6,41.1L82.6,41.1c-0.3,0.1-0.3,0.3-0.3,0.6
	c0.1,0.9,0.5,1.7,1.2,2.2c0.2,0.1,0.4,0.2,0.6,0.1c0.1-0.1,0.2-0.3,0.2-0.6c-0.1-0.9-0.5-1.7-1.2-2.2C82.9,41.1,82.8,41.1,82.6,41.1
	L82.6,41.1z"/>
<rect x="82.2" y="11.6" transform="matrix(0.8692 -0.4944 0.4944 0.8692 5.0613 43.2219)" class="st1" width="4.1" height="0.9"/>
<rect x="99" y="28.8" transform="matrix(0.8692 -0.4944 0.4944 0.8692 -1.2498 53.7762)" class="st1" width="4.1" height="0.9"/>
<rect x="75.3" y="9.2" transform="matrix(0.8692 -0.4944 0.4944 0.8692 5.3429 39.4949)" class="st1" width="4.1" height="0.9"/>
<path class="st1" d="M103.9,70.2l-0.4-0.8c2.2-1,4.1-2.6,5.5-4.6c1.9-2.9,4-8,3-16.1l0.9-0.1c1.1,8.3-1.1,13.7-3.1,16.7
	C108.3,67.4,106.3,69.1,103.9,70.2z"/>
<rect x="95" y="71.8" transform="matrix(0.9059 -0.4236 0.4236 0.9059 -21.3341 48.5253)" class="st1" width="7" height="0.9"/>
<path class="st1" d="M108.8,33.6C98.9,10.5,81.4,6.1,81.2,6.1l0.2-0.9c0.2,0,18.1,4.5,28.2,28.1L108.8,33.6z"/>
<path class="st1" d="M102.5,17.6c-1.1-1.2-2.1-2.4-3.2-3.5l0.7-0.7c1.1,1.1,2.2,2.3,3.3,3.5L102.5,17.6z"/>
<path class="st1" d="M97.8,12.7c-13.3-12.3-23-9.6-23.1-9.6l-0.3-0.9c0.4-0.1,10.4-3,24,9.8L97.8,12.7z"/>
<path class="st1" d="M98,8.7c-2.5-2.3-5.4-4.2-8.4-5.7L90,2.2c3.1,1.4,6,3.4,8.6,5.8L98,8.7z"/>
<path class="st1" d="M87.9,2.3c-1.5-0.6-3-1.1-4.5-1.4L83.5,0c1.6,0.3,3.2,0.8,4.7,1.4L87.9,2.3z"/>
<path class="st1" d="M2.5,127.5c1.2,1.6,2.7,3,4.5,3.9l126.5,73c6.8,4,17.2,4.4,23.1,1l55.4-32c2.5-1.4,3.8-3.4,4-5.4l0,0
	c0.3-2.4,0.2-4.8-0.3-7.1l-3.7,0.2l0,0c-0.5-0.4-1.1-0.8-1.6-1.1L83.8,87c-6.8-4-17.2-4.4-23.1-1L5.3,118l-4.2-0.2
	c-0.9,3.1-0.5,6.5,1.2,9.2v0.1C2.4,127.2,2.4,127.3,2.5,127.5L2.5,127.5z"/>
<path class="st1" d="M146.5,208.3c-4.7,0-9.3-1.1-13.4-3.3L6.7,132c-1.8-1-3.4-2.4-4.7-4.1l-0.1-0.1l-0.1-0.2
	c-1.8-3-2.2-6.5-1.3-9.9l0.2-0.4l4.5,0.2l55.2-31.9c6.1-3.5,16.8-3.1,23.8,1l126.5,73c0.5,0.3,1,0.6,1.5,0.9l4-0.2l0.1,0.5
	c0.6,2.4,0.7,4.9,0.3,7.4l0,0c-0.2,2.3-1.7,4.3-4.3,5.8l-55.4,32C153.7,207.6,150.1,208.4,146.5,208.3z M3,127.1L3,127.1
	c1.1,1.5,2.6,2.8,4.2,3.7l126.5,73c6.6,3.8,16.7,4.3,22.5,0.9l55.4-32c2.2-1.3,3.5-3,3.7-4.9l0.1-0.4c0.2-2,0.2-4.1-0.3-6.1
	l-2.7,0.1l-0.1,0.4l-0.7-0.5c-0.5-0.4-1-0.7-1.6-1l-126.5-73c-6.6-3.8-16.7-4.3-22.5-1L5.5,118.7l-3.9-0.2c-0.7,2.8-0.2,5.8,1.2,8.2
	L3,127.1l-0.5,0.4L3,127.1z"/>
<path class="st0" d="M5.1,112.5l55.4-32c5.9-3.4,16.3-3,23.1,1l126.5,73c6.8,3.9,7.6,9.9,1.7,13.3l-55.4,32
	c-5.9,3.4-16.3,3-23.1-0.9l-126.5-73C-0.1,121.9-0.8,115.9,5.1,112.5z"/>
<path class="st1" d="M146.2,202.8c-4.7,0-9.3-1.1-13.4-3.3l-126.5-73c-3.8-2.2-6-5.1-6-8.1c0-2.5,1.5-4.8,4.3-6.4L60,80
	c6.1-3.5,16.8-3.1,23.8,1l126.5,73c3.8,2.2,6,5.1,6,8.1c0,2.5-1.5,4.7-4.3,6.4l-55.4,32C153.4,202.1,149.8,202.9,146.2,202.8z
	 M70.5,78.9c-3.4-0.1-6.7,0.7-9.7,2.2l-55.4,32c-2.4,1.4-3.7,3.2-3.7,5.2c0,2.5,1.9,5,5.3,7l126.4,73c6.7,3.8,16.7,4.3,22.5,1
	l55.4-32c2.4-1.4,3.7-3.2,3.7-5.2c0-2.5-2-5-5.3-7l-126.5-73C79.3,79.9,75,78.8,70.5,78.9z"/>
<path class="st2" d="M61,84.9l-4.1,2.4c-1.3,0.8-1.3,2,0,2.8l0,0c1.3,0.8,1.3,2,0,2.8l-30.8,17.9c-1.5,0.8-3.3,0.8-4.8,0l0,0
	c-1.5-0.8-3.3-0.8-4.8,0l-8.6,5c-3,1.7-3,4.6,0,6.3l128,73.6c5.5,3.1,14.4,3.1,19.9,0l53.1-30.8c3-1.7,3-4.6,0-6.3L80.9,85
	C75.5,81.7,66.5,81.7,61,84.9z"/>
<path class="st1" d="M145.8,198.5c-3.6,0.1-7.1-0.8-10.2-2.4l-128-73.6c-2-0.8-3.1-3-2.3-5.1c0.4-1.1,1.2-1.9,2.3-2.3l8.6-5
	c1.7-0.9,3.8-0.9,5.5,0c1.3,0.7,2.9,0.7,4.2,0l30.8-17.8c0.4-0.2,0.7-0.6,0.7-0.8s-0.2-0.6-0.7-0.8c-1.1-0.4-1.6-1.7-1.2-2.7
	c0.2-0.5,0.6-0.9,1.2-1.2l4.1-2.4c5.7-3.3,14.9-3.3,20.6,0l128,73.6c2,0.8,3.1,3,2.3,5.1c-0.4,1.1-1.2,1.9-2.3,2.3l-53.1,30.8
	C152.9,197.8,149.4,198.6,145.8,198.5z M18.9,110.7c-0.7,0-1.5,0.2-2.1,0.5l-8.6,5c-1.4,0.4-2.2,1.9-1.8,3.4
	c0.3,0.9,0.9,1.5,1.8,1.8l128,73.6c5.3,3.1,14,3,19.3,0l53.2-30.8c1.4-0.4,2.2-1.9,1.8-3.4c-0.3-0.9-0.9-1.5-1.8-1.8l-128-73.6
	c-5.3-3.1-14-3-19.3,0l-4.1,2.4c-0.4,0.2-0.7,0.6-0.7,0.8s0.2,0.6,0.7,0.8c0.8,0.4,1.3,1.1,1.3,2s-0.5,1.6-1.3,2l-30.8,17.8
	c-1.7,0.9-3.8,0.9-5.5,0C20.4,111,19.6,110.8,18.9,110.7z"/>
<path class="st1" d="M46.3,93.9c-0.4-0.1-0.7-0.6-0.5-1c0.1-0.3,0.3-0.5,0.5-0.5c0.9-0.4,1.9-0.4,2.7,0c0.4,0.2,0.7,0.6,0.5,1.1
	c-0.1,0.2-0.3,0.4-0.5,0.5C48.2,94.4,47.2,94.4,46.3,93.9z"/>
<path class="st1" d="M26.2,104l16-9.3c0.8-0.4,1.8-0.3,2.5,0.1l0,0c0.8,0.4,0.8,1.1,0.2,1.5l-16,9.3c-0.8,0.4-1.8,0.3-2.5-0.1l0,0
	C25.6,105,25.5,104.3,26.2,104z"/>
<rect x="142" y="204.7" transform="matrix(1.047270e-02 -0.9999 0.9999 1.047270e-02 -62.102 347.3399)" class="st2" width="4.8" height="0.7"/>
<path class="st2" d="M212.7,172.8l-0.7-0.2c0.4-1.6,0.4-3.3,0-4.9l0.7-0.2C213.2,169.2,213.2,171.1,212.7,172.8z"/>
<path class="st2" d="M210.5,174.1l-0.7-0.2c0.4-1.6,0.4-3.3,0-4.9l0.7-0.2C210.9,170.5,210.9,172.4,210.5,174.1z"/>
<path class="st2" d="M6.9,131.7c-0.3-1.7-0.4-3.5-0.4-5.3h0.7c-0.1,1.7,0,3.4,0.3,5.1L6.9,131.7z"/>
<path class="st2" d="M4.5,130.3c-0.3-1.7-0.4-3.5-0.4-5.3h0.7c-0.1,1.7,0,3.4,0.3,5.1L4.5,130.3z"/>
<path class="st2" d="M43.5,151.4c-0.3,0-0.6-0.1-0.8-0.2l-7.8-4.5c-0.8-0.5-1.3-1.3-1.4-2.3v-0.2c-0.1-0.4,0.1-0.8,0.5-1
	s0.9-0.2,1.3,0.1l7.8,4.5c0.8,0.5,1.3,1.3,1.4,2.3v0.3C44.5,150.9,44.1,151.4,43.5,151.4C43.6,151.4,43.5,151.4,43.5,151.4
	L43.5,151.4z M34.5,143.9L34.5,143.9c-0.2,0.1-0.2,0.2-0.2,0.3v0.2c0.1,0.7,0.5,1.3,1.1,1.6l7.8,4.5c0.3,0.2,0.5,0.2,0.6,0.1
	s0.1-0.2,0.1-0.3v-0.2c-0.1-0.7-0.5-1.3-1.1-1.6L35,144C34.8,143.9,34.6,143.9,34.5,143.9L34.5,143.9z"/>
<path class="st2" d="M56,158.6c-0.3,0-0.6-0.1-0.8-0.2l-7.8-4.5c-0.8-0.5-1.3-1.3-1.4-2.3v-0.2c0-0.4,0.1-0.8,0.5-1s0.9-0.2,1.3,0.1
	l7.8,4.5c0.8,0.5,1.3,1.3,1.4,2.3v0.2c0.1,0.4-0.1,0.8-0.5,1C56.3,158.5,56.1,158.6,56,158.6z M47,151.1L47,151.1
	c-0.2,0.1-0.2,0.2-0.2,0.3v0.2c0.1,0.7,0.5,1.3,1.1,1.6l7.8,4.5c0.3,0.2,0.5,0.2,0.6,0.1s0.1-0.2,0.1-0.3v-0.1
	c-0.1-0.7-0.5-1.3-1.1-1.6l-7.8-4.5C47.3,151.1,47.1,151.1,47,151.1L47,151.1z"/>
<path class="st2" d="M178.7,190.9c-0.4-0.2-0.5-0.6-0.5-1v-0.2c0.1-0.9,0.6-1.8,1.4-2.3l7.8-4.5c0.4-0.3,0.9-0.3,1.3-0.1
	c0.4,0.2,0.5,0.6,0.5,1v0.2c-0.1,0.9-0.6,1.8-1.4,2.3l-7.8,4.5c-0.2,0.2-0.5,0.2-0.8,0.2C179,191,178.8,191,178.7,190.9z
	 M187.7,183.6l-7.8,4.5c-0.6,0.4-1,1-1.1,1.6v0.2c0,0.1,0,0.3,0.1,0.3c0.2,0.1,0.4,0,0.6-0.1l7.8-4.5c0.6-0.4,1-1,1.1-1.6v-0.2
	c0-0.1,0-0.3-0.1-0.3h-0.1C188,183.5,187.9,183.6,187.7,183.6L187.7,183.6z"/>
<path class="st2" d="M28.8,142.9c-0.3,0-0.6-0.1-0.8-0.2l-4.4-2.5c-0.8-0.5-1.3-1.3-1.4-2.3v-0.2c0-0.4,0.2-0.8,0.5-1
	c0.4-0.2,0.9-0.2,1.3,0.1l4.4,2.5c0.8,0.5,1.3,1.3,1.4,2.3v0.2c0.1,0.4-0.1,0.8-0.5,1C29.2,142.9,29,142.9,28.8,142.9z M23.2,137.3
	h-0.1c-0.1,0.1-0.1,0.2-0.1,0.3v0.2c0.1,0.7,0.5,1.3,1.1,1.6l4.4,2.5c0.3,0.2,0.5,0.2,0.6,0.1s0.1-0.2,0.1-0.3v-0.2
	c-0.1-0.7-0.5-1.3-1.1-1.6l-4.4-2.5C23.5,137.4,23.4,137.3,23.2,137.3z"/>
<path class="st2" d="M26,139.8v-0.2c0-0.7,0.6-0.9,1.2-0.5l1,0.6c0.7,0.4,1.2,1.2,1.2,2v0.2c0,0.7-0.6,0.9-1.2,0.5l-1-0.6
	C26.5,141.4,26,140.7,26,139.8z"/>
<path class="st2" d="M28.8,142.9c-0.3,0-0.6-0.1-0.8-0.2l-1-0.6c-0.8-0.5-1.3-1.3-1.4-2.3v-0.2c0-0.4,0.2-0.8,0.5-1
	c0.4-0.2,0.9-0.2,1.3,0.1l1,0.6c0.8,0.5,1.3,1.3,1.4,2.3v0.2c0.1,0.4-0.1,0.8-0.5,1C29.2,142.9,29,142.9,28.8,142.9z M26.4,139.8
	c0.1,0.7,0.5,1.3,1.1,1.6l1,0.6c0.3,0.2,0.5,0.2,0.6,0.1s0.1-0.2,0.1-0.3v-0.2c-0.1-0.7-0.5-1.3-1.1-1.6l-1-0.6
	c-0.3-0.2-0.5-0.2-0.6-0.1s-0.1,0.2-0.1,0.3V139.8z"/>
<rect x="146.7" y="202.6" transform="matrix(0.9999 -1.274104e-02 1.274104e-02 0.9999 -2.6012 1.8902)" class="st2" width="0.7" height="5"/>
<rect x="155.8" y="200.3" transform="matrix(0.9999 -1.274104e-02 1.274104e-02 0.9999 -2.5712 2.0059)" class="st2" width="0.7" height="5"/>
<rect x="135.1" y="203.3" transform="matrix(1.047270e-02 -0.9999 0.9999 1.047270e-02 -67.5945 339.018)" class="st2" width="4.8" height="0.7"/>
<rect x="123.8" y="197.3" transform="matrix(1.047270e-02 -0.9999 0.9999 1.047270e-02 -72.6909 321.7953)" class="st2" width="4.8" height="0.7"/>
<rect x="160.3" y="169.9" transform="matrix(0.5 -0.866 0.866 0.5 -67.4229 224.5695)" class="st0" width="1" height="1.5"/>
<path class="st0" d="M174.9,179.3l-2.3-1.3l0.5-0.9l2.3,1.3L174.9,179.3z M170.4,176.7l-2.3-1.3l0.5-0.9l2.3,1.3L170.4,176.7z
	 M165.8,174.1l-2.3-1.3l0.5-0.9l2.3,1.3L165.8,174.1z"/>
<rect x="178.2" y="177.6" transform="matrix(0.4983 -0.867 0.867 0.4983 -64.9834 244.3973)" class="st0" width="1" height="1.5"/>
<path class="st0" d="M178.7,160.4L140.9,182l-13.8-8l37.8-21.6L178.7,160.4z M140.9,181.1l36.1-20.7l-12.1-7.1L128.8,174
	L140.9,181.1z"/>
<polygon class="st1" points="177.9,157.5 140.9,178.7 128,171.2 165,150 "/>
<path class="st2" d="M150.6,167.6c-0.3,0.2-0.6,0.3-0.9,0.4c-0.3,0.1-0.7,0.1-1.1,0.1l0,0c0.3,0.1,0.5,0.3,0.8,0.4l1.8,1l-0.6,0.4
	l-6.2-3.6l0.5-0.3l0.7,0.3l0,0c-0.1-0.2,0-0.4,0.1-0.6c0.2-0.2,0.4-0.4,0.6-0.5c0.6-0.3,1.2-0.5,1.9-0.4s1.5,0.3,2.1,0.7
	c0.7,0.4,1.1,0.8,1.2,1.2C151.4,166.9,151.2,167.3,150.6,167.6z M146.6,165.4c-0.4,0.3-0.6,0.5-0.6,0.8s0.3,0.5,0.9,0.8l0.1,0.1
	c0.5,0.3,1,0.5,1.6,0.6c0.5,0,1-0.1,1.4-0.3s0.5-0.5,0.4-0.8c-0.2-0.4-0.5-0.7-0.9-0.9c-0.5-0.3-1-0.5-1.5-0.5
	C147.5,165.1,147,165.2,146.6,165.4L146.6,165.4z"/>
<path class="st2" d="M156.1,164.3l-0.7-0.3l0,0c0.1,0.2,0,0.5-0.1,0.7c-0.2,0.2-0.4,0.4-0.6,0.5c-0.4,0.2-0.9,0.4-1.3,0.4
	c-0.5,0-0.9-0.1-1.3-0.3c-0.9-0.5-0.6-1.2,0.7-2l0.7-0.4l-0.3-0.2c-0.3-0.2-0.6-0.3-1-0.3c-0.3,0-0.7,0.1-0.9,0.3
	c-0.4,0.2-0.7,0.5-0.9,0.9l-0.7-0.2c0.1-0.2,0.2-0.4,0.4-0.6c0.2-0.2,0.4-0.4,0.7-0.5c0.4-0.3,1-0.4,1.5-0.5c0.5,0,1,0.1,1.5,0.4
	l2.9,1.7L156.1,164.3z M154.2,164.9c0.4-0.2,0.6-0.5,0.6-0.7s-0.2-0.5-0.6-0.7l-0.4-0.2l-0.6,0.4c-0.4,0.2-0.7,0.5-0.9,0.8
	c-0.1,0.2,0,0.4,0.3,0.6c0.2,0.1,0.5,0.2,0.8,0.2C153.7,165.2,153.9,165.1,154.2,164.9L154.2,164.9z"/>
<path class="st2" d="M152.9,161.2l0.7-0.4l3.4,0.9c0.8,0.2,1.3,0.4,1.6,0.5l0,0c-0.2-0.2-0.3-0.3-0.5-0.5s-0.9-1-1.9-2.3l0.7-0.4
	l3,3.9c0.3,0.3,0.4,0.6,0.4,1c-0.1,0.3-0.3,0.6-0.6,0.7c-0.2,0.1-0.4,0.2-0.6,0.3l-0.5-0.3c0.2-0.1,0.4-0.2,0.5-0.2
	c0.3-0.1,0.5-0.4,0.4-0.7c0-0.1-0.1-0.2-0.2-0.3l-0.4-0.5L152.9,161.2z"/>
<path class="st0" d="M48.7,137.2c-0.8,0-1.5-0.2-2.2-0.6L29.7,127c-0.6-0.3-1-0.9-1.1-1.6c0-0.6,0.3-1,0.8-1.3l51.8-29.9
	c1.3-0.6,2.7-0.5,3.9,0.1l16.8,9.7c0.6,0.3,1,0.9,1.1,1.6c0,0.5-0.3,1-0.8,1.3l-51.9,29.9C49.9,137.1,49.3,137.3,48.7,137.2z
	 M83,94.8c-0.4,0-0.9,0.1-1.2,0.3L29.9,125c-0.1,0.1-0.4,0.2-0.4,0.4s0.2,0.4,0.6,0.7l16.8,9.7c0.9,0.5,2,0.5,2.9,0.1l51.9-29.9
	c0.1-0.1,0.3-0.2,0.3-0.4s-0.1-0.4-0.6-0.7l-16.8-9.7C84.2,94.9,83.6,94.8,83,94.8z"/>
<path class="st0" d="M59.4,143.4c-0.8,0-1.5-0.2-2.2-0.6l-3.6-2.1c-0.6-0.3-1-0.9-1.1-1.6c0-0.6,0.3-1,0.8-1.3l51.9-29.9
	c1.3-0.6,2.7-0.5,3.9,0.1l3.6,2.1c0.6,0.3,1,0.9,1.1,1.6c0,0.6-0.3,1-0.8,1.3l-51.8,30C60.6,143.3,60,143.5,59.4,143.4z
	 M106.9,108.6c-0.4,0-0.9,0.1-1.2,0.3l-51.9,29.9c-0.1,0.1-0.4,0.2-0.4,0.4s0.1,0.4,0.6,0.7l3.6,2.1c0.9,0.5,2,0.5,2.9,0.1
	l51.9-29.9c0.1-0.1,0.3-0.2,0.3-0.4s-0.1-0.4-0.6-0.7l-3.6-2.1C108.1,108.7,107.5,108.6,106.9,108.6L106.9,108.6z"/>
<path class="st0" d="M93.9,163.3c-0.8,0-1.5-0.2-2.2-0.6l-3.6-2.1c-0.6-0.3-1-0.9-1.1-1.6c0-0.6,0.3-1,0.8-1.3l51.9-29.9
	c1.3-0.6,2.7-0.5,3.9,0.1l3.6,2.1c0.6,0.3,1,0.9,1.1,1.6c0,0.6-0.3,1-0.8,1.3l-51.9,30C95.1,163.2,94.5,163.4,93.9,163.3z
	 M141.4,128.5c-0.4,0-0.9,0.1-1.2,0.3l-51.9,29.9c-0.1,0.1-0.3,0.2-0.3,0.4s0.1,0.4,0.6,0.7l3.6,2.1c0.9,0.5,2,0.6,2.9,0.1
	l51.9-29.9c0.1-0.1,0.4-0.2,0.4-0.4s-0.2-0.4-0.6-0.7l-3.6-2.1C142.6,128.6,142,128.5,141.4,128.5L141.4,128.5z"/>
<path class="st0" d="M104.5,169.5c-0.8,0-1.5-0.2-2.2-0.6l-11.5-6.5c-0.6-0.3-1-0.9-1.1-1.5c0-0.6,0.3-1,0.8-1.3l51.9-29.9
	c1.3-0.6,2.7-0.5,3.9,0.1l11.5,6.5c0.6,0.3,1,0.9,1.1,1.6c0,0.5-0.3,1-0.8,1.3l-51.9,29.9C105.7,169.4,105.1,169.5,104.5,169.5z
	 M144.2,130.2c-0.4,0-0.9,0.1-1.2,0.3l-51.9,29.9c-0.1,0.1-0.4,0.2-0.4,0.4s0.2,0.4,0.6,0.7l11.5,6.5c0.9,0.5,2,0.6,2.9,0.1
	l51.8-29.9c0.1-0.1,0.4-0.2,0.4-0.4s-0.2-0.4-0.6-0.7l-11.5-6.5C145.4,130.4,144.8,130.3,144.2,130.2z"/>
<path class="st0" d="M83,157.1c-0.8,0-1.5-0.2-2.2-0.6l-16.1-9.3c-0.6-0.3-1-0.9-1.1-1.5c0-0.6,0.3-1,0.8-1.3l22.4-13
	c1.3-0.6,2.7-0.5,3.9,0.1l16.1,9.3c0.6,0.3,1,0.9,1.1,1.6c0,0.5-0.3,1-0.8,1.3l-22.4,13C84.3,157,83.7,157.1,83,157.1z M88.7,132.1
	c-0.4,0-0.9,0.1-1.2,0.3L65,145.3c-0.1,0.1-0.3,0.2-0.3,0.4s0.1,0.4,0.6,0.7l16.1,9.3c0.9,0.5,2,0.5,2.9,0.1l22.4-13
	c0.1-0.1,0.4-0.2,0.4-0.4s-0.2-0.4-0.6-0.7l-16.1-9.3C89.9,132.2,89.3,132,88.7,132.1L88.7,132.1z"/>
<path class="st0" d="M112.5,140.1c-0.8,0-1.5-0.2-2.2-0.5l-16-9.3c-0.6-0.3-1-0.9-1.1-1.5c0-0.6,0.3-1,0.8-1.3l22.4-12.9
	c1.3-0.6,2.7-0.5,3.9,0.1l16.1,9.3c0.6,0.3,1,0.9,1.1,1.6c0,0.6-0.3,1-0.8,1.3l-22.4,13C113.7,140,113.1,140.1,112.5,140.1z
	 M118.1,115.1c-0.4,0-0.9,0.1-1.2,0.3l-22.4,13c-0.1,0.1-0.4,0.2-0.4,0.4s0.2,0.4,0.6,0.7l16.1,9.3c0.9,0.5,2,0.6,2.9,0.1l22.4-12.9
	c0.1-0.1,0.4-0.2,0.4-0.4s-0.2-0.4-0.6-0.7l-16.1-9.3C119.3,115.3,118.7,115.1,118.1,115.1L118.1,115.1z"/>
<path class="st0" d="M57.9,123.8l-1.5,0.9l-4.2-2.4l-0.7-0.4l-0.7-0.4c0,0.2,0,0.4,0,0.6l-0.2,0.9l-1.7-0.1l0.5-2.4l1.3-0.7
	L57.9,123.8z"/>
<path class="st0" d="M60.5,118.1c1.3,0.7,2,1.4,2.2,2s-0.1,1.1-1,1.6s-1.9,0.7-2.9,0.6c-1.2-0.2-2.4-0.6-3.5-1.3
	c-1.3-0.7-2-1.4-2.2-2s0.1-1.1,1-1.6s1.9-0.7,2.9-0.6C58.3,117.1,59.4,117.5,60.5,118.1z M56.9,120.2c0.7,0.4,1.4,0.8,2.2,1
	c0.5,0.1,0.9,0.1,1.4-0.1c0.4-0.2,0.4-0.5,0.2-0.8c-0.5-0.5-1.1-0.9-1.7-1.2c-0.7-0.4-1.4-0.8-2.2-1c-0.5-0.1-0.9-0.1-1.4,0.1
	c-0.4,0.2-0.4,0.5-0.2,0.8C55.7,119.4,56.3,119.9,56.9,120.2z"/>
<path class="st0" d="M66.4,114.7c1.3,0.7,2,1.4,2.2,2s-0.1,1.1-1,1.6s-1.9,0.7-2.9,0.6c-1.2-0.2-2.4-0.6-3.5-1.2
	c-1.3-0.7-2-1.4-2.2-2s0.1-1.1,1-1.6s1.9-0.7,2.9-0.6C64.1,113.7,65.3,114.1,66.4,114.7z M62.8,116.8c0.7,0.4,1.4,0.8,2.2,1
	c0.5,0.1,0.9,0.1,1.4-0.1c0.4-0.2,0.4-0.5,0.2-0.8c-0.5-0.5-1.1-0.9-1.7-1.2c-0.7-0.4-1.4-0.8-2.2-1c-0.5-0.1-0.9-0.1-1.4,0.1
	c-0.4,0.2-0.4,0.5-0.2,0.8C61.6,116.1,62.1,116.5,62.8,116.8z"/>
<path class="st0" d="M72.2,111.3c1.3,0.7,2,1.4,2.2,2s-0.1,1.1-1,1.6s-1.9,0.7-2.9,0.6c-1.2-0.2-2.4-0.6-3.5-1.2
	c-0.9-0.4-1.7-1.1-2.2-2c-0.2-0.6,0.1-1.1,1-1.6s1.9-0.7,2.9-0.6C70,110.3,71.2,110.7,72.2,111.3z M68.7,113.4
	c0.7,0.4,1.4,0.8,2.2,1c0.5,0.1,0.9,0.1,1.4-0.1c0.4-0.2,0.4-0.5,0.2-0.8c-0.5-0.5-1-0.9-1.7-1.2c-0.7-0.4-1.4-0.8-2.2-1
	c-0.5-0.1-0.9-0.1-1.4,0.1c-0.4,0.2-0.4,0.5-0.2,0.8C67.4,112.7,68,113.1,68.7,113.4L68.7,113.4z"/>
<path class="st0" d="M81.2,107.7c0.5,0.3,0.8,0.7,0.7,1.1c-0.2,0.5-0.5,1-1,1.3l1,0.6l-0.7,0.4l-1-0.6c-0.8,0.5-1.7,0.8-2.6,1
	l-1.3-0.8c0.5-0.1,1-0.2,1.4-0.4c0.4-0.1,0.9-0.3,1.3-0.5l-1.6-0.9l-0.5,0.1c-0.7,0.2-1.5,0.3-2.3,0.3c-0.5,0-1.1-0.1-1.5-0.4
	c-0.5-0.3-0.7-0.6-0.6-1c0.2-0.5,0.5-1,1-1.2l-0.8-0.4l0.7-0.4l0.7,0.4c0.8-0.4,1.7-0.7,2.5-0.9l0.7,1c-0.7,0.2-1.4,0.4-2,0.7
	l1.5,0.9c0.7-0.2,1.4-0.3,2-0.4c0.4-0.1,0.8-0.1,1.2,0C80.6,107.5,80.9,107.6,81.2,107.7z M74.8,108.1c0.2,0.1,0.3,0.1,0.5,0.1
	c0.3,0,0.5-0.1,0.8-0.1l-1.2-0.7C74.5,107.7,74.5,107.9,74.8,108.1L74.8,108.1z M79.8,108.7c-0.2-0.1-0.3-0.1-0.5-0.1
	c-0.3,0-0.5,0.1-0.8,0.1l1.2,0.7C80.1,109.1,80.1,108.8,79.8,108.7L79.8,108.7z"/>
<rect x="65.8" y="140.8" transform="matrix(0.8659 -0.5003 0.5003 0.8659 -59.8823 59.2791)" class="st0" width="29.6" height="1"/>
<rect x="95.3" y="123.6" transform="matrix(0.8659 -0.5003 0.5003 0.8659 -47.3215 71.7365)" class="st0" width="29.6" height="1"/>
<path class="st1" d="M182.7,171.6c0.9,0.8,0.2,1.9,0,2l0,0c1.1-0.3,2.4-0.3,3.5,0l0,0c-0.9-0.8-0.1-1.9,0-2l0,0
	C185,171.9,183.8,171.9,182.7,171.6C182.7,171.6,182.6,171.6,182.7,171.6z"/>
<path class="st1" d="M187.8,168.7c0.9,0.8,0.2,1.9,0,2l0,0c1.1-0.3,2.4-0.3,3.5,0l0,0c-0.9-0.8-0.1-1.9,0-2l0,0
	C190.1,169,188.9,169,187.8,168.7C187.7,168.7,187.7,168.7,187.8,168.7z"/>
<path class="st1" d="M192.9,165.8c0.9,0.8,0.2,1.8,0,2l0,0c1.1-0.3,2.4-0.3,3.5,0l0,0c-0.9-0.8-0.2-1.9,0-2l0,0
	C195.2,166.1,194,166.1,192.9,165.8C192.8,165.8,192.8,165.7,192.9,165.8z"/>
<path class="st1" d="M197.9,162.8c0.9,0.8,0.2,1.8,0,2l0,0c1.1-0.3,2.4-0.3,3.5,0l0,0c-0.9-0.8-0.2-1.9,0-2l0,0
	C200.3,163.1,199.1,163.1,197.9,162.8L197.9,162.8z"/>
<path class="st1" d="M203,159.9c0.9,0.8,0.2,1.8,0,2l0,0c1.1-0.3,2.4-0.3,3.5,0l0,0c-0.9-0.8-0.2-1.8,0-2l0,0
	C205.4,160.2,204.2,160.2,203,159.9L203,159.9z"/>
<path class="st1" d="M182.6,165.7c0.9,0.8,0.2,1.9,0,2l0,0c1.1-0.3,2.4-0.3,3.5,0l0,0c-0.9-0.8-0.1-1.9,0-2l0,0
	C185,166.1,183.8,166.1,182.6,165.7L182.6,165.7z"/>
<path class="st1" d="M187.7,162.8c0.9,0.8,0.2,1.9,0,2l0,0c1.2-0.3,2.4-0.3,3.5,0l0,0c-0.9-0.8-0.1-1.9,0-2l0,0
	C190.1,163.1,188.9,163.1,187.7,162.8L187.7,162.8z"/>
<path class="st1" d="M192.8,159.9c0.9,0.8,0.2,1.8,0,2l0,0c1.2-0.3,2.4-0.3,3.5,0l0,0c-0.9-0.8-0.2-1.9,0-2l0,0
	C195.2,160.2,194,160.2,192.8,159.9C192.8,159.9,192.8,159.8,192.8,159.9z"/>
<path class="st1" d="M197.9,156.9c0.9,0.8,0.2,1.8,0,2l0,0c1.2-0.3,2.4-0.3,3.5,0l0,0c-0.9-0.8-0.2-1.9,0-2l0,0
	C200.3,157.2,199.1,157.2,197.9,156.9L197.9,156.9z"/>
<path class="st2" d="M244.6,52.5L222.9,65c-8.3,4.8-14.6,12.5-17.7,21.6l-7.8,23.3c-4,12.1-12.4,22.3-23.5,28.7l-17.6,10.1
	l-69.2-40.3l18-10.4c10.8-6.3,19-16.3,23.1-28.1l8.2-23.9c3.1-8.9,9.3-16.5,17.4-21.2l20.9-12.2L244.6,52.5z"/>
<path class="st1" d="M156.4,149.4l-70.5-41l18.9-10.9c10.7-6.2,18.8-16.1,22.8-27.8l8.2-23.9c3.1-9.1,9.4-16.7,17.7-21.6l21.2-12.4
	l71.1,40.7l-22.6,13.1c-8.2,4.7-14.4,12.3-17.4,21.3l-7.8,23.3c-4.1,12.3-12.6,22.6-23.8,29L156.4,149.4z M88.4,108.4l68,39.5
	l17.3-9.9c11-6.3,19.2-16.4,23.2-28.3l7.8-23.3c3.1-9.3,9.5-17.1,18-22l20.7-11.9l-68.6-39.2l-20.6,12c-8,4.7-14.1,12.1-17.1,20.9
	l-8.2,23.9c-4.1,12-12.4,22.1-23.4,28.5L88.4,108.4z"/>
<path class="st2" d="M148,126.9c3.1-1.3,6.6-1.1,9.5,0.6c2.5,1.7,2.4,4.1-0.4,5.5c-3.1,1.3-6.6,1.1-9.5-0.6
	C145.1,130.7,145.3,128.3,148,126.9z"/>
<path class="st0" d="M146.4,126.1c3.1-1.3,6.6-1.1,9.5,0.6c2.5,1.7,2.4,4.1-0.4,5.5c-3.1,1.3-6.6,1.1-9.5-0.6
	C143.5,129.9,143.7,127.4,146.4,126.1z"/>
<path class="st1" d="M147.2,132.9c-1.8-0.8-2.5-2.8-1.8-4.6c0.4-0.9,1.2-1.6,2.2-1.9l0,0c3.4-1.4,7.2-1.2,10.4,0.7
	c1.8,0.8,2.5,2.8,1.8,4.6c-0.4,0.9-1.2,1.6-2.2,1.9c-1.4,0.6-2.9,1-4.4,0.9C151,134.5,149,134,147.2,132.9z M148,127.2L148,127.2
	c-1.4,0.3-2.3,1.7-2,3.1c0.2,0.9,0.8,1.6,1.7,1.9c2.9,1.7,6.4,1.9,9.5,0.6c1.4-0.3,2.3-1.7,2-3.1c-0.2-0.9-0.8-1.6-1.7-1.9
	c-1.6-1-3.5-1.5-5.4-1.5C150.7,126.3,149.3,126.6,148,127.2L148,127.2z"/>
<path class="st2" d="M153.3,127.9l0.5,2.1c0,0.2,0,0.3-0.1,0.4c-0.4,0.3-0.8,0.4-1.3,0.3l-3.5-0.6c-0.4-0.1-0.7-0.3-0.6-0.6l0,0
	c0.1-0.2,0.5-0.4,0.9-0.3l2.9,0.5l-0.5-1.7c-0.1-0.2,0.2-0.5,0.7-0.5l0,0C152.8,127.5,153.2,127.7,153.3,127.9z"/>
<path class="st1" d="M154.2,128.6l0.5,2.1c0,0.2,0,0.3-0.1,0.4c-0.4,0.3-0.8,0.4-1.3,0.3l-3.5-0.6c-0.4-0.1-0.7-0.3-0.6-0.6l0,0
	c0.1-0.2,0.5-0.4,0.9-0.3l2.9,0.5l-0.4-1.7c-0.1-0.2,0.2-0.5,0.7-0.5l0,0C153.8,128.1,154.2,128.3,154.2,128.6z"/>
<path class="st1" d="M161.4,132.1c0.7-1.4,0.5-3-0.4-4.2l-0.7,0.5c0.8,0.9,0.9,2.2,0.4,3.3L161.4,132.1z"/>
<path class="st1" d="M159.2,134.2c0.6-0.3,1.2-0.8,1.7-1.3l-0.6-0.6c-0.4,0.4-0.9,0.8-1.4,1.1L159.2,134.2z"/>
<polygon class="st0" points="225.2,59.5 169.9,27.8 173,26 228.3,57.7 "/>
<path class="st1" d="M225.2,60.2l-0.3-0.2l-56.2-32.3l4.4-2.5l0.3,0.2l56.2,32.3L225.2,60.2z M171.2,27.8l54,31l1.8-1l-54-31
	L171.2,27.8z"/>
<polygon class="st0" points="231.2,55.9 168.9,20 172,18.3 234.3,54.1 "/>
<path class="st1" d="M231.2,56.7L167.7,20l4.4-2.5l0.3,0.2l63.2,36.4L231.2,56.7z M170.2,20l61,35.1l1.8-1L172,19L170.2,20z"/>
<polygon class="st0" points="219.1,63.1 175.7,38.3 178.8,36.5 222.2,61.3 "/>
<path class="st1" d="M219.1,63.8l-44.7-25.5l4.4-2.5l44.7,25.5L219.1,63.8z M177,38.3l42.1,24l1.8-1l-42.1-24.1L177,38.3z"/>
<polygon class="st0" points="139.3,123.7 105.3,104.3 108.4,102.6 142.4,121.9 "/>
<path class="st1" d="M139.3,124.4l-0.3-0.2l-35-19.9l4.4-2.5l0.3,0.2l35,19.9L139.3,124.4z M106.6,104.3l32.8,18.6l1.8-1l-32.8-18.6
	L106.6,104.3z"/>
<path class="st0" d="M159.8,40c-0.7,0.8-1.4,1.5-2.1,2.3l50.7,28.9c0.7-0.8,1.4-1.6,2.1-2.3L159.8,40z"/>
<path class="st1" d="M208.6,72.1l-51.9-29.6l0.5-0.6c0.6-0.8,1.4-1.6,2.1-2.4l0.3-0.4l51.9,29.6l-0.6,0.6c-0.7,0.7-1.4,1.5-2.1,2.3
	L208.6,72.1z M158.7,42.2l49.6,28.3c0.4-0.5,0.8-0.9,1.2-1.4l-49.6-28.3C159.5,41.3,159.1,41.7,158.7,42.2z"/>
<path class="st0" d="M153.9,48.8l50.7,28.9c0.5-0.9,1-1.8,1.6-2.6l-50.7-28.9C154.9,47,154.4,47.9,153.9,48.8z"/>
<path class="st1" d="M204.8,78.6L153,49l0.3-0.6c0.5-0.9,1-1.8,1.6-2.7l0.4-0.5L207,74.9l-0.4,0.6c-0.6,0.9-1.1,1.7-1.6,2.6
	L204.8,78.6z M154.8,48.6l49.5,28.2c0.3-0.5,0.6-1,0.9-1.5L155.6,47C155.3,47.5,155,48,154.8,48.6L154.8,48.6z"/>
<path class="st0" d="M148.4,33.3c-0.7,0.8-1.4,1.5-2.1,2.3l2.9,1.8c0.7-0.8,1.4-1.6,2.1-2.3L148.4,33.3z"/>
<path class="st1" d="M149.3,38.3l-4-2.4l0.5-0.6c0.6-0.8,1.4-1.6,2.1-2.4l0.4-0.4l4.1,2.5l-0.6,0.6c-0.7,0.7-1.4,1.5-2.1,2.3
	L149.3,38.3z M147.2,35.6l1.8,1.1c0.4-0.5,0.8-0.9,1.2-1.4l-1.8-1.1C148.1,34.6,147.7,35.1,147.2,35.6z"/>
<path class="st0" d="M142.5,42.2l2.8,1.7c0.5-0.9,1-1.8,1.6-2.6l-2.8-1.7C143.5,40.4,142.9,41.3,142.5,42.2z"/>
<path class="st1" d="M145.5,44.8l-3.9-2.4l0.3-0.5c0.5-0.9,1-1.8,1.6-2.7l0.3-0.5l3.9,2.4l-0.4,0.6c-0.6,0.8-1.1,1.7-1.6,2.6
	L145.5,44.8z M143.3,42l1.7,1c0.3-0.5,0.6-1,1-1.5l-1.8-1C143.9,40.9,143.6,41.5,143.3,42z"/>
<polygon class="st0" points="147.7,65.5 197.8,94.2 198.8,91.3 148.7,62.5 "/>
<path class="st1" d="M198.2,95.2L147,65.8l1.4-4.2L199.6,91L198.2,95.2z M148.5,65.2l49,28.1l0.6-1.8l-49-28.1L148.5,65.2z"/>
<polygon class="st0" points="145.4,72.7 195.5,101.5 196.5,98.5 146.4,69.8 "/>
<path class="st1" d="M195.9,102.4L144.6,73l1.4-4.2l51.2,29.4L195.9,102.4z M146.2,72.4l49,28.1l0.6-1.8l-49-28.1L146.2,72.4z"/>
<polygon class="st0" points="142.9,79.5 193,108.3 194,105.3 143.9,76.5 "/>
<path class="st1" d="M193.3,109.2L142,79.8l1.5-4.2l51.2,29.4L193.3,109.2z M143.6,79.2l49,28.1l0.6-1.8l-49-28.1L143.6,79.2z"/>
<polygon class="st0" points="136.9,59.2 139.9,61 140.9,58 137.9,56.2 "/>
<path class="st1" d="M140.2,62l-4.1-2.6l1.5-4.2l4.1,2.5L140.2,62z M137.7,58.9l1.9,1.2l0.6-1.7l-1.9-1.2L137.7,58.9z"/>
<polygon class="st0" points="134.6,66.4 137.6,68.3 138.6,65.3 135.6,63.4 "/>
<path class="st1" d="M137.9,69.2l-4.1-2.5l1.4-4.2l4.1,2.5L137.9,69.2z M135.4,66.1l1.9,1.2l0.6-1.7l-1.8-1.2L135.4,66.1z"/>
<polygon class="st0" points="132.1,73.2 135,75.1 136,72.1 133.1,70.2 "/>
<path class="st1" d="M135.4,76l-4.1-2.6l1.5-4.2l4.1,2.5L135.4,76z M132.8,72.9l1.9,1.2l0.6-1.8l-1.8-1.1L132.8,72.9z"/>
<rect x="153.6" y="65.8" transform="matrix(0.5047 -0.8633 0.8633 0.5047 -14.98 185.5909)" class="st1" width="1.3" height="80.1"/>
<rect x="146" y="75.2" transform="matrix(0.503 -0.8643 0.8643 0.503 -19.453 179.8367)" class="st1" width="1.3" height="63.3"/>
<rect x="170" y="26.3" transform="matrix(0.5047 -0.8633 0.8633 0.5047 27.2183 180.1541)" class="st1" width="1.3" height="80.1"/>
<rect x="143" y="78" transform="matrix(0.503 -0.8643 0.8643 0.503 -23.3822 178.6216)" class="st1" width="1.3" height="63.3"/>
<rect x="156.2" y="61.7" transform="matrix(0.503 -0.8643 0.8643 0.503 -2.7261 182.0167)" class="st1" width="1.3" height="63.3"/>
<path class="st2" d="M5.1,190.5l43.4,25c1.9,0.8,4,0.8,5.8-0.2l26.1-15.1c1.7-1,1.9-2.5,0.4-3.4l-43.4-25c-1.9-0.8-4-0.8-5.8,0.2
	L5.5,187.2C3.8,188.1,3.6,189.7,5.1,190.5z"/>
<path class="st1" d="M51,216.5c-0.9,0-1.9-0.2-2.7-0.6l-43.4-25c-0.7-0.3-1.2-1-1.2-1.8c0.1-1,0.7-1.8,1.6-2.2l26.1-15.1
	c1.9-1.1,4.2-1.2,6.2-0.2l43.4,25c0.7,0.3,1.2,1,1.2,1.8c-0.1,1-0.7,1.8-1.6,2.2l-26.1,15.1C53.5,216.2,52.3,216.5,51,216.5z
	 M5.3,190.2l43.4,25c1.7,0.8,3.8,0.7,5.4-0.2l26.1-15c0.7-0.3,1.1-0.9,1.2-1.6c-0.1-0.5-0.4-0.9-0.8-1.1l-43.4-25
	c-1.8-0.8-3.8-0.7-5.5,0.2l-25.9,15c-0.8,0.4-1.2,1-1.2,1.6C4.6,189.6,4.9,190,5.3,190.2L5.3,190.2z"/>
<path class="st2" d="M5.1,188.8l43.4,25c1.9,0.8,4,0.8,5.8-0.2l26.1-15.1c1.7-1,1.9-2.5,0.4-3.4l-43.4-25c-1.9-0.8-4-0.8-5.8,0.2
	L5.5,185.5C3.8,186.5,3.6,188,5.1,188.8z"/>
<path class="st1" d="M51,214.8c-0.9,0-1.9-0.2-2.7-0.6l-43.4-25c-0.7-0.3-1.2-1-1.2-1.8c0.1-1,0.7-1.8,1.6-2.2l26.1-15.1
	c1.9-1.1,4.2-1.2,6.2-0.2l43.4,25c0.7,0.3,1.2,1,1.2,1.8c-0.1,1-0.7,1.8-1.6,2.2L54.5,214C53.4,214.5,52.2,214.8,51,214.8z
	 M5.3,188.5l43.4,25c1.7,0.8,3.8,0.7,5.4-0.2l26.1-15c0.8-0.4,1.2-1,1.2-1.6c-0.1-0.5-0.4-0.9-0.8-1.1l-43.4-25
	c-1.8-0.8-3.8-0.7-5.5,0.2l-25.9,15c-0.7,0.3-1.1,0.9-1.2,1.6C4.6,187.9,4.9,188.3,5.3,188.5L5.3,188.5z"/>
<path class="st2" d="M5.1,187.2l43.4,25c1.9,0.8,4,0.8,5.8-0.2l26.1-15.1c1.7-1,1.9-2.5,0.4-3.4l-43.4-25c-1.9-0.8-4-0.8-5.8,0.2
	L5.5,183.8C3.8,184.8,3.6,186.3,5.1,187.2z"/>
<path class="st1" d="M51,213.2c-0.9,0-1.9-0.2-2.7-0.6l-43.4-25c-0.7-0.3-1.2-1-1.2-1.8c0.1-1,0.7-1.8,1.6-2.2l26.1-15.1
	c1.9-1.1,4.2-1.2,6.2-0.2l43.4,25c0.7,0.3,1.2,1,1.2,1.8c-0.1,1-0.7,1.8-1.6,2.2l-26.1,15.1C53.4,212.9,52.2,213.2,51,213.2z
	 M5.3,186.8l43.4,25c1.7,0.8,3.8,0.7,5.4-0.2l26.1-15c0.8-0.5,1.2-1,1.2-1.6c-0.1-0.5-0.4-0.9-0.8-1.1l-43.4-25
	c-1.8-0.8-3.8-0.7-5.5,0.2L5.8,184.2c-0.8,0.5-1.2,1-1.2,1.6C4.6,186.2,4.9,186.7,5.3,186.8L5.3,186.8z"/>
<path class="st1" d="M51.2,216.2c1.1,0,2.1-0.3,3.1-0.8l26.1-15.1c1-0.5,1.5-1.7,1.1-2.8c0.4-0.5,0.4-1.2,0-1.7
	c0.5-0.7,0.3-1.7-0.4-2.2c-0.1-0.1-0.2-0.1-0.3-0.2l-9-5.2H51.2V216.2z"/>
<path class="st2" d="M5.1,185.5l43.4,25c1.9,0.8,4,0.8,5.8-0.2l26.1-15.1c1.7-1,1.9-2.5,0.4-3.4l-43.4-25c-1.9-0.8-4-0.8-5.8,0.2
	L5.5,182.1C3.8,183.1,3.6,184.6,5.1,185.5z"/>
<path class="st0" d="M36.1,169.6L10,184.8c-1.4,0.8-1.8,2-1.1,2.8L44.2,208c1.8,0.7,3.9,0.6,5.6-0.3L76,192.6c1.5-0.9,1.8-2.1,0.9-3
	l-35.1-20.2C39.9,168.6,37.9,168.7,36.1,169.6z"/>
<path class="st1" d="M51,211.5c-0.9,0-1.9-0.2-2.7-0.6l-43.4-25c-0.7-0.3-1.2-1-1.2-1.8c0.1-1,0.7-1.8,1.6-2.2l26.1-15.1
	c1.9-1.1,4.2-1.2,6.2-0.2l43.4,25c0.7,0.3,1.2,1,1.2,1.8c-0.1,1-0.7,1.8-1.6,2.2l-26.1,15.1C53.5,211.2,52.2,211.5,51,211.5z
	 M5.3,185.1l43.4,25c1.7,0.8,3.8,0.7,5.4-0.2l26.1-15c0.7-0.3,1.1-0.9,1.2-1.6c-0.1-0.5-0.4-0.9-0.8-1.1l-43.4-25
	c-1.8-0.8-3.8-0.7-5.5,0.2L5.8,182.5c-0.8,0.4-1.2,1-1.2,1.6C4.6,184.5,4.9,185,5.3,185.1L5.3,185.1z"/>
<rect x="43.8" y="197.6" transform="matrix(0.8658 -0.5005 0.5005 0.8658 -91.1784 56.1385)" class="st1" width="30.5" height="0.8"/>
<rect x="12.2" y="181.3" transform="matrix(0.8658 -0.5005 0.5005 0.8658 -86.8001 39.8374)" class="st1" width="37.3" height="0.8"/>
<rect x="13.4" y="180.3" transform="matrix(0.867 -0.4983 0.4983 0.867 -86.2262 38.3359)" class="st1" width="30.6" height="0.8"/>
<path class="st2" d="M51.8,213l-0.1-0.6c0.9-0.1,1.7-0.3,2.5-0.8l26.1-15.1c0.4-0.2,0.8-0.5,1-0.9l0.5,0.3c-0.3,0.5-0.8,0.9-1.2,1.1
	l-26.1,15.1C53.6,212.7,52.7,212.9,51.8,213z"/>
<path class="st2" d="M51.8,214.7l-0.1-0.6c0.9-0.1,1.7-0.3,2.5-0.8l26.1-15.1c0.4-0.2,0.8-0.5,1-0.9l0.5,0.3
	c-0.3,0.5-0.8,0.9-1.2,1.1l-26.1,15.1C53.6,214.4,52.7,214.7,51.8,214.7z"/>
<ellipse class="st2" cx="33.7" cy="170.5" rx="1.5" ry="0.9"/>
<path class="st1" d="M33.6,171.8c-0.4,0-0.9-0.1-1.3-0.3c-0.5-0.2-0.8-0.7-0.6-1.3c0.1-0.3,0.3-0.5,0.6-0.6l0,0
	c0.8-0.4,1.7-0.4,2.5,0c0.4,0.2,0.6,0.5,0.6,0.9s-0.3,0.8-0.6,1C34.5,171.7,34.1,171.8,33.6,171.8z M33.6,170
	c-0.3,0-0.6,0.1-0.9,0.2l0,0c-0.1,0.1-0.2,0.2-0.2,0.3s0.1,0.2,0.2,0.3c0.6,0.3,1.2,0.3,1.8,0c0.1-0.1,0.2-0.2,0.2-0.3
	s-0.1-0.2-0.2-0.3C34.3,170.1,34,170,33.6,170z"/>
<path class="st2" d="M28.1,172.4c-0.6,0.4-0.6,0.9,0,1.2c0.7,0.4,1.5,0.4,2.1,0c0.6-0.3,0.6-0.9,0-1.2
	C29.6,172.1,28.8,172.1,28.1,172.4z"/>
<path class="st1" d="M29.2,174.3c-0.4,0-0.9-0.1-1.3-0.3s-0.6-0.5-0.6-0.9s0.3-0.8,0.6-0.9c0.8-0.4,1.7-0.4,2.5,0
	c0.4,0.2,0.6,0.5,0.6,0.9s-0.3,0.8-0.6,0.9C30.1,174.2,29.7,174.3,29.2,174.3z M29.2,172.6c-0.3,0-0.6,0.1-0.9,0.2
	c-0.2,0.1-0.3,0.2-0.3,0.3s0.1,0.2,0.3,0.3c0.6,0.3,1.2,0.3,1.8,0c0.2-0.1,0.3-0.2,0.3-0.3s-0.1-0.2-0.3-0.3
	C29.9,172.6,29.6,172.6,29.2,172.6L29.2,172.6z"/>
<path class="st2" d="M23.7,175c-0.3,0.1-0.5,0.5-0.4,0.8c0.1,0.2,0.2,0.4,0.4,0.4c0.7,0.3,1.5,0.3,2.1,0c0.3-0.1,0.5-0.5,0.4-0.8
	c-0.1-0.2-0.2-0.3-0.4-0.4C25.2,174.6,24.4,174.6,23.7,175z"/>
<path class="st1" d="M24.8,176.9c-0.4,0-0.9-0.1-1.3-0.3s-0.6-0.5-0.6-0.9s0.2-0.8,0.6-1l0,0c0.8-0.4,1.7-0.4,2.5,0
	c0.4,0.2,0.6,0.6,0.6,1s-0.3,0.8-0.6,0.9C25.7,176.8,25.2,176.9,24.8,176.9z M24.8,175.1c-0.3,0-0.6,0.1-0.9,0.2l0,0
	c-0.2,0.1-0.3,0.2-0.3,0.3s0.1,0.2,0.3,0.3c0.6,0.3,1.2,0.3,1.8,0c0.2-0.1,0.3-0.2,0.3-0.3s-0.1-0.2-0.3-0.3
	C25.4,175.2,25.1,175.1,24.8,175.1z"/>
<ellipse class="st2" cx="20.4" cy="178.2" rx="1.5" ry="0.9"/>
<path class="st1" d="M20.4,179.4c-0.4,0-0.9-0.1-1.3-0.3s-0.6-0.6-0.6-1s0.3-0.8,0.6-0.9l0,0c0.8-0.4,1.7-0.4,2.5,0
	c0.4,0.2,0.6,0.5,0.6,0.9s-0.3,0.8-0.6,1C21.3,179.3,20.8,179.4,20.4,179.4z M19.5,177.9c-0.1,0.1-0.2,0.2-0.2,0.3s0.1,0.2,0.2,0.3
	c0.6,0.3,1.2,0.3,1.8,0c0.1-0.1,0.2-0.2,0.2-0.3s-0.1-0.2-0.2-0.3C20.7,177.6,20.1,177.6,19.5,177.9z"/>
<ellipse class="st2" cx="15.9" cy="180.7" rx="1.5" ry="0.9"/>
<path class="st1" d="M16,182c-0.4,0-0.9-0.1-1.3-0.3c-0.5-0.2-0.8-0.8-0.6-1.3c0.1-0.3,0.3-0.5,0.6-0.6c0.8-0.4,1.7-0.4,2.5,0
	c0.5,0.2,0.8,0.8,0.6,1.3c-0.1,0.3-0.3,0.5-0.6,0.6C16.8,181.9,16.4,182,16,182z M16,180.2c-0.3,0-0.6,0.1-0.9,0.2l0,0
	c-0.2,0.1-0.3,0.2-0.3,0.3s0.1,0.2,0.3,0.3c0.6,0.3,1.2,0.3,1.8,0c0.2-0.1,0.3-0.2,0.3-0.3s-0.1-0.2-0.3-0.3
	C16.6,180.3,16.3,180.2,16,180.2L16,180.2z"/>
<path class="st2" d="M10.5,182.6c-0.3,0.1-0.5,0.5-0.4,0.8c0.1,0.2,0.2,0.4,0.4,0.4c0.7,0.3,1.5,0.3,2.1,0c0.3-0.1,0.5-0.5,0.4-0.8
	c-0.1-0.2-0.2-0.3-0.4-0.4C11.9,182.3,11.1,182.3,10.5,182.6z"/>
<path class="st1" d="M11.5,184.5c-0.4,0-0.9-0.1-1.3-0.3c-0.4-0.2-0.6-0.5-0.6-0.9s0.2-0.8,0.6-1l0,0c0.8-0.4,1.7-0.4,2.5,0
	c0.4,0.2,0.6,0.6,0.6,1s-0.3,0.8-0.6,0.9C12.4,184.4,12,184.5,11.5,184.5z M11.5,182.8c-0.3,0-0.6,0.1-0.9,0.2l0,0
	c-0.2,0.1-0.3,0.2-0.3,0.3s0.1,0.2,0.3,0.3c0.6,0.3,1.2,0.3,1.8,0c0.2-0.1,0.3-0.2,0.3-0.3s-0.1-0.2-0.3-0.3
	C12.1,182.8,11.8,182.8,11.5,182.8z"/>
<path class="st1" d="M16.4,181.3l-1-0.1c0.2-1.4-0.2-2.9-1-4.1c-1.4-1.7-3.9-1.9-5.6-0.5c-0.1,0.1-0.3,0.2-0.4,0.3
	c-0.9,1.1-1.3,2.6-0.9,4l-1,0.2c-0.4-1.7,0-3.6,1.1-4.9c1-1.2,2.6-1.8,4.2-1.6c1.3,0.1,2.5,0.7,3.3,1.7
	C16.1,177.9,16.6,179.6,16.4,181.3z"/>
<path class="st1" d="M20.8,178.9l-1-0.1c0.1-1.4-0.2-2.9-1-4.1c-0.7-0.8-1.6-1.2-2.6-1.3c-1.2-0.2-2.5,0.3-3.3,1.2
	c-0.9,1.1-1.3,2.6-0.9,4l-1,0.2c-0.4-1.7,0-3.6,1.2-4.9c1.9-2,5-2.1,7.1-0.2c0.1,0.1,0.3,0.3,0.4,0.4
	C20.6,175.5,21,177.2,20.8,178.9z"/>
<path class="st1" d="M25.2,176.2l-1-0.1c0.1-1.4-0.2-2.9-1-4.1c-0.7-0.8-1.6-1.3-2.7-1.4c-1.2-0.2-2.5,0.3-3.3,1.2
	c-0.9,1.1-1.3,2.6-0.9,4l-1,0.2c-0.4-1.7,0-3.6,1.1-4.9c1.9-2,5-2.1,7.1-0.3c0.1,0.1,0.3,0.3,0.4,0.4
	C25,172.8,25.4,174.5,25.2,176.2z"/>
<path class="st1" d="M29.7,173.8l-1-0.1c0.1-1.4-0.2-2.9-1-4.1c-1.4-1.7-3.9-1.9-5.6-0.5c-0.1,0.1-0.3,0.2-0.4,0.3
	c-0.9,1.1-1.3,2.6-0.9,4l-1,0.2c-0.4-1.7,0-3.6,1.1-4.9c1-1.2,2.6-1.8,4.2-1.6c1.3,0.1,2.5,0.7,3.3,1.7
	C29.4,170.3,29.9,172.1,29.7,173.8z"/>
<path class="st1" d="M34.1,171.1l-1-0.1c0.1-1.4-0.2-2.9-1-4.1c-0.7-0.8-1.6-1.3-2.7-1.4c-1.2-0.2-2.5,0.3-3.3,1.2
	c-0.9,1.1-1.3,2.6-0.9,4l-1,0.2c-0.4-1.7,0-3.6,1.2-4.9c1.9-2,5-2.1,7.1-0.2c0.1,0.1,0.3,0.3,0.4,0.4
	C33.8,167.7,34.3,169.4,34.1,171.1z"/>
<path class="st1" d="M3.7,186.6c-1.7-1.7-2.2-4.4-1.1-6.6c1.3-2.4,4.3-3.4,6.7-2.1c0.6,0.3,1.1,0.7,1.5,1.2c1,1.4,1.4,3.1,1.2,4.8
	l-1-0.1c0.1-1.4-0.2-2.9-1-4.1c-1.4-1.7-4-1.9-5.6-0.4c-0.4,0.3-0.7,0.7-0.9,1.2c-0.9,1.8-0.5,4,1,5.4L3.7,186.6z"/>
<path class="st2" d="M7.5,178.3L7,178.1c0.1-0.3,0.2-0.6,0.4-0.9l0.5,0.3C7.7,177.8,7.6,178.1,7.5,178.3z"/>
<path class="st2" d="M12,175.8l-0.6-0.2c0.1-0.3,0.2-0.6,0.4-0.9l0.5,0.3C12.2,175.3,12,175.5,12,175.8z"/>
<path class="st2" d="M16.3,173.3l-0.6-0.2c0.1-0.3,0.3-0.6,0.4-0.9l0.5,0.3C16.5,172.7,16.4,173,16.3,173.3z"/>
<path class="st2" d="M20.8,170.7l-0.5-0.2c0.1-0.3,0.2-0.6,0.4-0.9l0.5,0.3C21,170.1,20.9,170.4,20.8,170.7z"/>
<path class="st2" d="M25.1,168.3l-0.5-0.2c0.1-0.3,0.2-0.6,0.4-0.9l0.5,0.3C25.3,167.8,25.2,168.1,25.1,168.3z"/>
<path class="st2" d="M49.9,193.9l-8.6,5l-1.8-1v-3.6c0-0.7,0-1.4-0.1-2.2c-0.1-0.3-0.2-0.6-0.4-0.9c-0.2-0.3-0.5-0.5-0.8-0.7
	c-0.5-0.3-1-0.4-1.5-0.4s-1,0.2-1.5,0.4c-0.4,0.2-0.8,0.6-1.1,1c-0.2,0.4-0.4,0.9-0.5,1.4l-3.1-0.1c0.1-0.5,0.2-1,0.4-1.5
	c0.2-0.4,0.5-0.7,0.8-1c0.4-0.4,0.9-0.7,1.4-1c0.8-0.4,1.6-0.8,2.5-0.9c0.8-0.2,1.7-0.2,2.6-0.1c0.8,0.1,1.5,0.3,2.2,0.7
	c0.5,0.3,0.9,0.7,1.3,1.1c0.3,0.4,0.5,0.9,0.6,1.4c0.1,0.9,0.1,1.7,0,2.6l-0.1,1.8l0.1,0.1l5.4-3.1L49.9,193.9z"/>
<path class="st1" d="M41.2,199.3L39,198v-3.8c0-0.7-0.1-1.4-0.1-2.1c-0.1-0.6-0.5-1.1-1-1.4c-0.4-0.2-0.8-0.4-1.3-0.4
	s-0.9,0.1-1.3,0.4c-0.4,0.2-0.7,0.5-0.9,0.9s-0.4,0.8-0.4,1.2l-0.1,0.3l-3.8-0.2v-0.4c0.1-0.6,0.2-1.1,0.5-1.6
	c0.2-0.4,0.5-0.8,0.9-1.1c0.4-0.4,0.9-0.8,1.5-1.1c0.8-0.5,1.7-0.8,2.6-1c0.9-0.2,1.8-0.2,2.7-0.1c0.8,0.1,1.6,0.4,2.4,0.8
	c0.6,0.3,1,0.7,1.4,1.2c0.3,0.5,0.6,1,0.7,1.6c0.1,0.9,0.1,1.8,0,2.7l-0.1,1.2l5.1-2.9l3,1.7L41.2,199.3z M39.8,197.6l1.4,0.8
	l7.9-4.5l-1.4-0.8l-5.4,3.1l-0.5-0.3l0.1-2c0.1-0.8,0.1-1.7,0-2.5c-0.1-0.5-0.3-0.9-0.5-1.3c-0.3-0.4-0.7-0.8-1.2-1
	c-0.6-0.4-1.4-0.6-2.1-0.7c-0.8-0.1-1.6-0.1-2.4,0.1c-0.8,0.2-1.6,0.5-2.4,0.9c-0.5,0.3-0.9,0.6-1.3,1c-0.6,0.5-0.9,1.2-1,1.9
	l2.4,0.1c0.1-0.4,0.2-0.8,0.5-1.2c0.3-0.5,0.7-0.9,1.2-1.1c0.5-0.3,1.1-0.5,1.6-0.5c0.6,0,1.2,0.1,1.7,0.5c0.3,0.2,0.6,0.4,0.9,0.8
	c0.2,0.3,0.4,0.7,0.5,1.1c0.1,0.7,0.2,1.5,0.2,2.2L39.8,197.6z"/>
<path class="st2" d="M50.2,182.6c0.6,0.3,1.1,0.8,1.3,1.5c0,0.7-0.3,1.4-0.9,1.8l0,0c1-0.5,2.1-0.7,3.2-0.8c0.9,0,1.9,0.2,2.7,0.7
	c1.2,0.7,1.7,1.5,1.5,2.3s-1.1,1.8-2.7,2.7c-1.3,0.8-2.7,1.3-4.2,1.7l-2.2-1.3c0.7-0.1,1.5-0.3,2.2-0.6c0.7-0.2,1.3-0.5,1.9-0.9
	c0.9-0.5,1.4-1,1.5-1.4s-0.1-0.8-0.8-1.2c-0.6-0.3-1.3-0.4-1.9-0.3c-0.9,0.2-1.8,0.6-2.6,1.1l-0.9,0.5l-2-1.1l1-0.6
	c0.7-0.3,1.3-0.8,1.7-1.4c0.2-0.4,0-0.8-0.6-1.1c-1-0.5-2.2-0.5-3.2,0.2c-0.4,0.2-0.7,0.5-1,0.8c-0.3,0.4-0.5,0.8-0.7,1.2l-3-0.3
	c0.5-1.3,1.5-2.4,2.8-3c1.2-0.7,2.5-1.1,3.8-1.3C48.1,181.8,49.2,182,50.2,182.6z"/>
<path class="st1" d="M51,192.9l-3.2-1.9l1-0.2c0.7-0.1,1.4-0.3,2.1-0.6c0.6-0.2,1.3-0.5,1.9-0.8c1-0.6,1.2-1,1.3-1.1
	s-0.3-0.6-0.6-0.7c-0.5-0.3-1.1-0.4-1.7-0.3c-0.9,0.2-1.7,0.6-2.5,1.1l-1.1,0.6l-2.8-1.6l1.5-0.9c1.2-0.7,1.5-1.1,1.6-1.3
	s0.1-0.3-0.5-0.6c-0.9-0.5-2-0.4-2.8,0.2c-0.4,0.2-0.7,0.5-0.9,0.8c-0.3,0.3-0.5,0.7-0.6,1.1l-0.1,0.3l-3.7-0.4l0.1-0.4
	c0.5-1.4,1.6-2.6,3-3.2c1.2-0.7,2.6-1.2,4-1.4c1.2-0.2,2.4,0.1,3.5,0.7l0,0c0.7,0.3,1.3,1,1.5,1.8c0,0.4,0,0.7-0.2,1.1
	c0.7-0.2,1.4-0.4,2.2-0.4c1,0,2,0.2,2.9,0.7c1.3,0.8,1.9,1.7,1.7,2.8s-1.2,2-2.9,2.9c-1.3,0.8-2.8,1.4-4.3,1.7L51,192.9z
	 M49.9,191.3l1.2,0.7c1.4-0.3,2.8-0.9,4-1.6c1.5-0.9,2.3-1.7,2.5-2.5c0.1-0.3,0.2-1.1-1.3-1.9c-0.8-0.4-1.6-0.7-2.5-0.6
	c-1,0-2.1,0.3-3,0.8l-0.2,0.1l-0.7-0.4l0.4-0.4c0.5-0.3,0.7-0.9,0.7-1.5c-0.1-0.6-0.5-1-1.1-1.3c-0.9-0.5-2-0.7-3-0.6
	c-1.3,0.2-2.5,0.6-3.6,1.2c-1,0.5-1.9,1.4-2.5,2.4L43,186c0.2-0.4,0.4-0.7,0.7-1.1c0.3-0.4,0.7-0.7,1.1-0.9c1-0.7,2.4-0.8,3.5-0.2
	c1,0.6,0.9,1.3,0.8,1.6c-0.5,0.7-1.2,1.3-2,1.6l-0.4,0.2l1.2,0.7l0.8-0.4c0.8-0.5,1.8-0.9,2.7-1.1c0.8-0.2,1.5,0,2.2,0.3
	c1,0.6,1.1,1.2,1,1.6s-0.7,1-1.6,1.6c-0.6,0.4-1.3,0.7-2,0.9C50.7,191.1,50.3,191.3,49.9,191.3z"/>
<path class="st1" d="M26.3,72.3l5.2-3.4v-0.1l-6.6-8c0,0-0.1-0.1-0.1,0l0,0l-1.1,4.9l0,0l-0.2,3.4c0,0,0,0,0,0.1l2.7,3.2
	C26.2,72.4,26.2,72.4,26.3,72.3L26.3,72.3z"/>
<path class="st1" d="M26.2,73c-0.2,0-0.5-0.1-0.6-0.3l-2.9-3.4V69l0.3-3.5l1.2-5.4l0.5-0.2c0.3-0.1,0.6,0,0.8,0.3l6.8,8.3V69
	c0,0.2-0.2,0.4-0.4,0.6L26.7,73C26.6,73,26.4,73,26.2,73z M24.2,68.8l2.2,2.5l4.1-2.7l-5.3-6.5l-0.8,3.6L24.2,68.8z"/>
<path class="st0" d="M46.1,48l-25-14.4c-0.5-0.3-1.1-0.4-1.6-0.2l0,0l-4.9,2.9c-0.1,0.1-0.1,0.1,0,0.2l0,0l5.8,6.2v0.1V53
	c0.1,1.8,1,3.4,2.6,4.4l3.7,2.2L27,60c0.7,3.5,2.8,6.7,5.8,8.7c0.2,0.1,0.3-0.1,0.2-0.3c-0.6-1.1-1.7-3.6-1.4-5.6l0.4-0.2l7.7,4.4
	l0.1,0.1l3.2,8.6c0,0.1,0.1,0.1,0.2,0.1l0,0l4.8-2.9l0,0c0.5-0.4,0.7-1,0.7-1.6v-19C48.5,50.6,47.6,48.9,46.1,48z"/>
<path class="st1" d="M43.2,76.5l-0.4-0.1c-0.2-0.1-0.4-0.3-0.5-0.5l-3.1-8.4l-6.9-4c0.1,1.5,0.6,3,1.4,4.4c0.2,0.4,0.2,0.9-0.2,1.2
	c-0.3,0.3-0.8,0.3-1.1,0c-3.1-2.1-5.3-5.3-6.1-9V60l-3.6-2.1c-1.7-1.1-2.8-3-2.9-5.1v-10l-5.7-6c-0.3-0.4-0.3-0.9,0-1.2
	c0,0,0.1-0.1,0.2-0.1l4.9-2.9c0.8-0.3,1.7-0.2,2.4,0.2l24.9,14.5c1.7,1.1,2.8,3,2.9,5v18.8c0.1,0.8-0.3,1.7-1,2.2L43.2,76.5z
	 M32,61.7l8.2,4.7l0.1,0.3l3,7.9l4.2-2.5c0.2-0.3,0.3-0.6,0.3-0.9V52.3c-0.1-1.5-0.9-2.9-2.2-3.8l-25-14.4c-0.3-0.2-0.7-0.3-1-0.2
	l-4.1,2.5l5.6,5.9v0.4v10.2c0.1,1.5,0.9,2.9,2.2,3.8l3.9,2.2l0.5,0.6v0.2c0.5,2.5,1.8,4.9,3.6,6.7c-0.5-1.2-0.6-2.5-0.5-3.8l0.1-0.4
	L32,61.7z"/>
<path class="st2" d="M41.2,51l-25-14.4c-1.4-0.8-2.5-0.2-2.5,1.4v18.9c0.1,1.8,1,3.4,2.5,4.3l3.9,2.2c0.1,0.1,0.2,0.2,0.2,0.3
	c0.7,3.6,2.8,6.7,5.8,8.7c0.2,0.1,0.3,0,0.2-0.3c-0.6-1.2-1.8-3.8-1.4-5.8c0-0.1,0.1-0.1,0.2-0.1l16.1,9.3c1.4,0.8,2.5,0.1,2.5-1.4
	V55.3C43.7,53.6,42.7,51.9,41.2,51z"/>
<path class="st1" d="M42.3,76.7c-0.5,0-1-0.2-1.5-0.4l-15.3-8.9c0.1,1.5,0.6,3.1,1.4,4.4c0.2,0.4,0.1,0.9-0.2,1.2
	c-0.3,0.3-0.8,0.3-1.1,0.1c-3.1-2.1-5.3-5.4-6.1-9.1l-3.7-2.1C14.1,60.8,13,59,12.9,57V38c-0.1-0.9,0.4-1.8,1.1-2.2
	c0.8-0.4,1.8-0.3,2.5,0.2l25,14.4c1.7,1.1,2.8,3,2.9,5v18.9c0.1,0.9-0.4,1.8-1.1,2.2C43,76.6,42.7,76.7,42.3,76.7z M25,65.5
	c0.2,0,0.3,0,0.5,0.1L41.6,75c0.3,0.3,0.8,0.4,1.1,0.1c0.3-0.2,0.4-0.6,0.2-0.9V55.3c-0.1-1.5-0.9-2.8-2.1-3.7l0,0l-25-14.4
	c-0.3-0.3-0.8-0.4-1.1-0.1c-0.3,0.2-0.4,0.6-0.2,0.9v18.8c0.1,1.5,0.9,2.8,2.1,3.7l3.8,2.2c0.3,0.2,0.5,0.5,0.5,0.8
	c0.5,2.6,1.8,4.9,3.6,6.7c-0.5-1.3-0.7-2.7-0.5-4.1l0.1-0.4l0.4-0.2C24.7,65.6,24.9,65.5,25,65.5z"/>
<rect x="42" y="49.2" transform="matrix(0.8547 -0.5191 0.5191 0.8547 -19.4552 30.3935)" class="st1" width="5.1" height="1.5"/>
<rect x="17.1" y="35.1" transform="matrix(0.853 -0.5219 0.5219 0.853 -15.8162 15.5287)" class="st1" width="5.1" height="1.5"/>
<rect x="43.3" y="54.1" transform="matrix(0.845 -0.5348 0.5348 0.845 -22.1707 33.189)" class="st1" width="5.7" height="1.5"/>
<polygon class="st1" points="48.7,56 43.7,59 43.7,75.3 48.5,72.7 48.7,71.5 "/>
<path class="st0" d="M33.5,60.5c0,0.9-0.3,1.5-0.9,1.8c-0.8,0.2-1.7,0-2.5-0.4v1.8l-1-0.6v-1.7c-1.2-0.7-2.3-1.6-3.3-2.6v-2.4
	c0.5,0.6,1,1.1,1.6,1.6c0.5,0.5,1.1,0.9,1.7,1.3v-2.7L28.7,56c-0.8-0.8-1.5-1.7-2.1-2.7C26.2,52.6,26,51.8,26,51
	c0-0.9,0.3-1.4,0.9-1.6c0.8-0.2,1.7,0,2.4,0.4v-1.4l1,0.6v1.3c1.2,0.7,2.2,1.6,3.1,2.6l-0.7,1.6c-0.7-0.8-1.5-1.5-2.4-2.1V55
	c0.8,0.7,1.5,1.5,2.1,2.4c0.4,0.5,0.7,1,0.9,1.6C33.5,59.5,33.6,60,33.5,60.5z M28.2,52.2c0,0.3,0.1,0.5,0.2,0.8
	c0.2,0.3,0.5,0.7,0.8,0.9v-2.1C28.5,51.6,28.2,51.7,28.2,52.2z M31.2,59.3c0-0.3-0.1-0.5-0.3-0.8c-0.2-0.4-0.5-0.7-0.8-1v2.2
	C30.9,60,31.2,59.9,31.2,59.3z"/>
<path class="st1" d="M32,60.9c0,0.9-0.3,1.5-0.9,1.7c-0.8,0.2-1.7,0.1-2.5-0.4V64l-1-0.6v-1.8c-1.2-0.7-2.3-1.6-3.3-2.6v-2.3
	c0.5,0.6,1,1.1,1.6,1.6c0.5,0.5,1.1,0.9,1.7,1.3v-2.7l-0.5-0.5c-0.8-0.8-1.5-1.7-2.1-2.7c-0.4-0.7-0.6-1.5-0.6-2.3s0.3-1.4,0.9-1.6
	c0.8-0.2,1.7,0,2.4,0.4v-1.3l1,0.6v1.3c1.2,0.7,2.2,1.6,3.1,2.6L31.1,55c-0.7-0.8-1.5-1.5-2.4-2.1v2.6c0.8,0.7,1.5,1.5,2.1,2.4
	c0.4,0.5,0.7,1,0.9,1.6C31.9,59.8,32,60.3,32,60.9z M26.7,52.5c0,0.3,0.1,0.5,0.2,0.8c0.2,0.4,0.5,0.7,0.8,1v-2.1
	C27,51.9,26.7,52,26.7,52.5z M29.7,59.6c0-0.3-0.1-0.5-0.3-0.8c-0.2-0.4-0.5-0.7-0.8-1V60C29.4,60.3,29.7,60.2,29.7,59.6z"/>
<path class="st1" d="M216.7,134.7l3.3-2.1v-0.1l-4.2-5.1c0,0,0,0-0.1,0l0,0l-0.7,3.1l0,0l-0.2,2.1l0,0L216.7,134.7
	C216.6,134.7,216.6,134.7,216.7,134.7C216.6,134.7,216.7,134.7,216.7,134.7z"/>
<path class="st1" d="M216.6,135.1c-0.1,0-0.2-0.1-0.3-0.1l-1.8-2.1v-0.2l0.2-2.1l0.7-3.4l0.3-0.1c0.2,0,0.3,0,0.4,0.1l4.3,5.2v0.2
	c0,0.1-0.1,0.2-0.2,0.3l-3.3,2.1C216.8,135,216.7,135.1,216.6,135.1z M215.2,132.6l1.5,1.7l2.8-1.8l-3.6-4.3l-0.5,2.5L215.2,132.6z"
	/>
<path class="st0" d="M229.1,119.4l-15.7-9c-0.3-0.2-0.7-0.3-1-0.1l0,0l-3.1,1.8v0.1l0,0l3.7,3.9c0,0,0,0,0,0.1v6.4
	c0.1,1.1,0.7,2.2,1.6,2.8l2.3,1.3l0.2,0.2c0.4,2.2,1.7,4.2,3.6,5.4c0.1,0.1,0.2,0,0.1-0.2c-0.6-1.1-0.9-2.3-0.9-3.5l0.2-0.1l4.8,2.8
	l0,0l2,5.4l0.1,0.1l0,0l3-1.8l0,0c0.3-0.2,0.5-0.6,0.4-1v-11.8C230.6,121.1,230,120,229.1,119.4z"/>
<path class="st1" d="M227.3,137.2l-0.2-0.1c-0.1,0-0.2-0.1-0.3-0.3l-2-5.3l-4.5-2.6c0,1.1,0.3,2.1,0.9,3c0.1,0.2,0.1,0.5-0.1,0.6
	c-0.2,0.1-0.4,0.1-0.5,0c-1.9-1.3-3.3-3.3-3.8-5.6l-0.1-0.1l-2.3-1.3c-1.1-0.7-1.7-1.8-1.8-3.1v-6.3l-3.6-3.8
	c-0.1-0.1-0.1-0.2-0.1-0.4c0-0.1,0.1-0.3,0.2-0.3l3.1-1.8c0.5-0.2,1-0.1,1.4,0.1l15.7,9c1.1,0.7,1.7,1.8,1.8,3.1v11.8
	c0,0.5-0.2,1-0.6,1.3L227.3,137.2z M220.3,128.1l5.1,2.9l0.1,0.2l1.9,5.1l2.8-1.6c0.2-0.2,0.3-0.4,0.2-0.7v-11.8
	c-0.1-1-0.6-1.9-1.4-2.5l-15.7-9c-0.2-0.1-0.5-0.2-0.7-0.1l-2.7,1.6l3.5,3.7v0.2v6.4c0.1,1,0.6,1.9,1.4,2.5l2.4,1.4l0.2,0.4
	c0.4,1.8,1.3,3.4,2.7,4.6c-0.4-0.9-0.6-1.8-0.5-2.8v-0.2L220.3,128.1z"/>
<path class="st2" d="M226,121.3l-15.7-9.1c-0.9-0.5-1.6-0.1-1.6,0.9V125c0.1,1.1,0.6,2.1,1.6,2.7l2.4,1.4c0.1,0,0.1,0.1,0.1,0.2
	c0.4,2.2,1.7,4.2,3.6,5.5c0.1,0.1,0.2,0,0.1-0.2c-0.7-1.1-1-2.4-0.8-3.6c0-0.1,0.1-0.1,0.1,0l10.1,5.9c0.9,0.5,1.6,0.1,1.6-0.9v-12
	C227.5,122.9,226.9,121.9,226,121.3z"/>
<path class="st1" d="M226.7,137.3c-0.3,0-0.6-0.1-0.9-0.3l-9.8-5.6c0,1.1,0.3,2.1,0.9,3c0.1,0.2,0.1,0.4-0.1,0.6
	c-0.2,0.1-0.4,0.1-0.5,0c-2-1.3-3.3-3.4-3.8-5.7l-2.4-1.4c-1-0.7-1.7-1.8-1.7-3v-11.8c0-0.5,0.2-1,0.6-1.3c0.5-0.2,1-0.2,1.5,0.1
	l15.7,9.1c1,0.7,1.7,1.8,1.7,3v11.9c0.1,0.5-0.2,1-0.6,1.3C227.1,137.3,226.9,137.3,226.7,137.3z M215.8,130.5c0.1,0,0.2,0,0.2,0.1
	l10.2,5.9c0.2,0.2,0.5,0.2,0.8,0.1c0.2-0.2,0.3-0.4,0.3-0.7V124c-0.1-1-0.6-1.9-1.4-2.4l-15.7-9.1c-0.2-0.2-0.5-0.2-0.8-0.1
	c-0.2,0.2-0.3,0.4-0.3,0.7V125c0.1,1,0.6,1.9,1.4,2.4l2.4,1.4c0.2,0.1,0.3,0.3,0.3,0.4c0.4,1.8,1.3,3.4,2.7,4.6
	c-0.4-0.9-0.6-1.9-0.4-2.9v-0.2l0.2-0.1C215.7,130.6,215.8,130.6,215.8,130.5L215.8,130.5z"/>
<rect x="226.5" y="120.3" transform="matrix(0.8545 -0.5195 0.5195 0.8545 -29.4824 136.0516)" class="st1" width="3.2" height="0.7"/>
<rect x="211.8" y="111.9" transform="matrix(0.8545 -0.5195 0.5195 0.8545 -27.2686 127.1935)" class="st1" width="3.2" height="0.7"/>
<rect x="227.3" y="123.4" transform="matrix(0.8448 -0.5351 0.5351 0.8448 -30.6563 141.7949)" class="st1" width="3.6" height="0.7"/>
<polygon class="st1" points="230.7,124.4 227.6,126.3 227.6,136.6 230.6,135 230.7,134.2 "/>
<rect x="212.1" y="105.3" transform="matrix(8.194454e-02 -0.9966 0.9966 8.194454e-02 90.9616 310.0486)" class="st1" width="3.4" height="0.7"/>
<rect x="210.2" y="103.8" transform="matrix(0.9159 -0.4015 0.4015 0.9159 -24.7416 93.4323)" class="st1" width="0.7" height="3.9"/>
<rect x="207.6" y="106.3" transform="matrix(0.4921 -0.8705 0.8705 0.4921 11.6732 235.8168)" class="st1" width="0.7" height="3.3"/>
<path class="st0" d="M218.3,129.9h-0.2c-0.2,0-0.3-0.1-0.4-0.3l-3.5-6.5c-0.1-0.2-0.1-0.5,0.1-0.6c0.1-0.1,0.4-0.2,0.5-0.1l1.1,0.6
	v-4c0-0.2,0.2-0.4,0.4-0.4c0.1,0,0.2,0,0.2,0.1l3.5,2c0.2,0.1,0.3,0.3,0.3,0.5v4.6l1.5,0.9c0.2,0.1,0.3,0.3,0.3,0.5
	s-0.1,0.3-0.2,0.4L218.3,129.9z M215.2,123.6l3,5.6l3-2l-1.3-0.8c-0.2-0.1-0.3-0.3-0.3-0.5v-4.6l-3-1.8v4.2c0,0.2-0.1,0.3-0.2,0.4
	c-0.1,0.1-0.3,0.1-0.5,0L215.2,123.6z"/>
<path class="st2" d="M219.4,206.3l-20.7-1.7l0,0l-3,2.1l0,0c-4.3,0.3-8.5,1.4-12.3,3.4c-1.1,0.6-2.2,1.4-3.2,2.2l0,0l-3.7-0.7l0,0
	v7.8l0,0c0,3.3,2.2,6.6,6.6,9.2c8.8,5.1,23,5.1,31.8,0c0.9-0.5,1.8-1.2,2.7-1.9l0,0V219l0,0l-9.8-1.8l0,0l11.7-3.1l0,0L219.4,206.3
	L219.4,206.3z"/>
<path class="st1" d="M175.9,211.3l0.4-0.3l0.3,0.1l3.4,0.6c0.9-0.8,2-1.5,3.1-2.1c3.9-2,8.1-3.2,12.4-3.5l3.1-2.1h0.2l21.2,1.8v8.7
	l-0.4,0.1l-9.4,2.5l7.8,1.4v8.5l-0.2,0.2c-0.9,0.7-1.8,1.4-2.8,2c-8.9,5.1-23.5,5.1-32.4,0c-4.3-2.5-6.7-5.8-6.8-9.3l0,0
	L175.9,211.3L175.9,211.3z M198.9,205.2l-3.1,2c-4.3,0.3-8.4,1.4-12.2,3.4c-1.1,0.6-2.1,1.3-3.1,2.1l-0.2,0.2l-0.3-0.1l-3-0.5v7.2
	c0,3.3,2.2,6.3,6.3,8.7c8.6,5,22.7,5,31.3,0c0.8-0.5,1.6-1,2.4-1.6v-7.1l-9.8-1.8v-0.9l0.4-0.1l11.3-3v-6.9L198.9,205.2z"/>
<path class="st0" d="M199,211.6l20.4-5.3l0,0c-1.8-2.1-4-3.8-6.5-4.8c-8.7-4-21.5-3.7-29.6,0.8c-9.1,5.1-9.2,13.4-0.4,18.6
	c8.9,5.1,23,5.1,31.9,0c0.9-0.5,1.8-1.2,2.7-1.9l0,0L199,211.6C199,211.7,199,211.6,199,211.6z"/>
<path class="st1" d="M177.4,206.7c1.5-2.1,3.4-3.8,5.7-4.9c8.2-4.5,21.1-4.9,30.1-0.8c2.6,1.1,4.9,2.8,6.7,5l0.2,0.2l-0.1,0.6
	l-0.3,0.1l-18.9,4.9l17.3,6.8l0.1,0.6l-0.2,0.2c-0.9,0.7-1.8,1.4-2.8,1.9c-8.9,5.1-23.5,5.1-32.4-0.1c-4.5-2.6-6.9-6-6.9-9.8
	C175.9,209.8,176.4,208.1,177.4,206.7z M218.4,206c-1.6-1.7-3.6-3.1-5.8-4c-8.7-4-21.1-3.6-29.1,0.8c-4.2,2.4-6.6,5.5-6.6,8.8
	s2.2,6.4,6.3,8.8c8.6,5,22.7,5,31.3,0.1c0.6-0.4,1.3-0.8,1.8-1.2l-18-7.1v-0.8l0.4-0.1L218.4,206z"/>
<path class="st0" d="M217.5,218.9l-18.5-7.3l0,0l6.4,12.5l0,0c3.3-0.5,6.6-1.6,9.5-3.3C215.8,220.3,216.7,219.7,217.5,218.9
	L217.5,218.9z"/>
<path class="st1" d="M198.2,211.6l0.5-0.6l0.4,0.2l18.8,7.4l0.1,0.6l-0.2,0.2c-0.8,0.7-1.8,1.4-2.7,1.9c-3,1.7-6.3,2.8-9.7,3.3
	l-0.4,0.1L198.2,211.6z M216.4,219.1l-16.3-6.4l5.5,10.8c3.1-0.5,6.2-1.6,8.9-3.1C215.2,220,215.8,219.6,216.4,219.1L216.4,219.1z"
	/>
<path class="st1" d="M199,211.7L199,211.7v13l0,0c2.1,0,4.3-0.2,6.4-0.5L199,211.7z"/>
<path class="st1" d="M213.3,221.7v7.7c1.6-0.7,3.1-1.6,4.4-2.8l-0.2-7.7L213.3,221.7z"/>
<path class="st1" d="M198.4,211.2l0.9-0.2l0.2,0.4l6.7,13.1l-0.8,0.1c-2.1,0.4-4.3,0.5-6.5,0.5h-0.6L198.4,211.2z M204.5,223.7
	l-5-9.7v10.1C201.1,224,202.8,223.9,204.5,223.7L204.5,223.7z"/>
<path class="st2" d="M199,224.6v-12.9l0,0l-4.6,12.6C195.9,224.5,197.4,224.6,199,224.6L199,224.6z"/>
<path class="st1" d="M198.6,211.1l1,0.2v0.5v13.5H199c-1.5,0-3.1-0.1-4.6-0.3l-0.7-0.1L198.6,211.1z M198.4,224.1v-9.2l-3.2,9
	C196.2,224,197.3,224.1,198.4,224.1z"/>
<rect x="201.4" y="227.5" transform="matrix(1.919865e-03 -1 1 1.919865e-03 -23.1268 432.9908)" class="st1" width="7.8" height="1.1"/>
<rect x="177" y="222.7" transform="matrix(1.745296e-03 -1 1 1.745296e-03 -42.583 403.8094)" class="st1" width="7.9" height="1.1"/>
<rect x="179.6" y="224.5" transform="matrix(1.745296e-03 -1 1 1.745296e-03 -41.8826 408.2088)" class="st1" width="7.9" height="1.1"/>
<rect x="210.7" y="211.1" transform="matrix(1.745296e-03 -1 1 1.745296e-03 2.5119 425.897)" class="st1" width="7.8" height="1.1"/>
<path class="st1" d="M210.2,233c3.3-0.7,6.4-2.1,9-4.2c0.7-0.6,1.2-1.4,1.3-2.4l0.2-2.6l1.1,0.1l-0.2,2.6c-0.1,1.2-0.7,2.4-1.7,3.2
	c-2.7,2.2-6,3.7-9.4,4.5L210.2,233z"/>
<rect x="203.6" y="233.9" transform="matrix(0.9904 -0.1381 0.1381 0.9904 -30.4065 30.6535)" class="st1" width="4.2" height="1.1"/>
<path class="st1" d="M198.7,194.9c3-0.2,6.1,0.1,9,1l-0.4,1.1c-2.8-0.9-5.6-1.2-8.5-1L198.7,194.9z"/>
<rect x="210.1" y="196" transform="matrix(0.366 -0.9306 0.9306 0.366 -50.4554 321.4414)" class="st1" width="1.1" height="3.5"/>
<path class="st2" d="M90,218.5l8.6,5.1c1.6,0.8,3.6,0.9,5.3,0.1l8.7-4.9c0.6-0.3,1-0.9,1.1-1.5v-3.9l0,0l-3.6,1.8l0,0l-3.1-5.9
	c-1.4-0.9-9-1.5-10.5-0.7l-3.8,6.4l0,0l-3.5-1.9 M89.1,213.1v4c0.1,0.6,0.4,1.2,1,1.5L89.1,213.1z M106.6,215.9
	C106.6,215.9,106.6,216,106.6,215.9l-1.9,1.1v0.9l-7.7-0.5v-0.9l-1.1-0.6l4-2.2c0.9-0.4,2-0.4,2.9,0L106.6,215.9z"/>
<path class="st1" d="M112.7,219.1L104,224c-1.8,0.9-3.9,0.9-5.7-0.1l-8.6-5.1c-0.7-0.4-1.2-1.1-1.3-1.9v-4v-0.3l0.5-0.2l3.4,1.8
	l3.6-6.2H96c1.6-0.9,9.4-0.2,10.9,0.7l0.1,0.1l3,5.7l3.2-1.6l0.3-0.1l0.4,0.3v4.1c0,0.4-0.1,0.9-0.4,1.2
	C113.4,218.7,113.1,219,112.7,219.1z M110.2,215.5l-0.2,0.1l-0.3-0.2l-3.1-5.9c-1.5-0.7-8.4-1.3-9.9-0.7l-3.8,6.4l-0.3,0.2l-3.2-1.7
	v3.3c0.1,0.5,0.4,0.9,0.9,1.1l8.6,5.1c1.5,0.8,3.3,0.8,4.8,0l8.7-4.9c0.5-0.2,0.8-0.6,0.9-1.2v-3.3L110.2,215.5z M105.2,217.2
	c0,0.1,0,0.1,0,0.2c0,0.6,0,0.6-0.1,0.7l-0.1,0.1l-7.9-0.5c-0.4,0-0.4-0.3-0.4-0.9v-0.1l-1.6-0.9l4.7-2.6c1-0.5,2.3-0.5,3.3,0l0,0
	l3.9,2.3l0.2,0.2v0.5L105.2,217.2z M97.2,216c0.3,0.1,0.3,0.3,0.3,0.8v0.1l6.9,0.5c0-0.6,0-0.7,0.2-0.8l1.3-0.6l-3.3-2l0,0
	c-0.8-0.4-1.7-0.4-2.4,0l-3.3,1.9L97.2,216z"/>
<path class="st0" d="M98.8,206.7l-8.7,4.9c-1.5,0.8-1.5,2.2,0,3l8.6,5.1c1.6,0.8,3.6,0.9,5.2,0.1l8.7-4.9c1.5-0.8,1.5-2.2,0-3
	l-8.6-5.1C102.4,205.9,100.4,205.9,98.8,206.7z M99.9,209.6c0.9-0.4,1.9-0.4,2.8,0l4.8,2.8c0.5,0.2,0.7,0.6,0.5,1.1
	c-0.1,0.3-0.3,0.5-0.5,0.5l-4.8,2.7c-0.9,0.4-1.9,0.4-2.8,0l-4.8-2.8c-0.5-0.2-0.7-0.6-0.5-1.1c0.1-0.3,0.3-0.5,0.5-0.5L99.9,209.6z
	"/>
<path class="st1" d="M112.8,215.2l-8.7,4.9c-1.8,0.9-3.9,0.9-5.6-0.1l-8.6-5.1c-1-0.4-1.6-1.5-1.2-2.6c0.2-0.5,0.6-1,1.2-1.2
	l8.7-4.9c1.8-0.9,3.9-0.9,5.7,0l8.6,5.1c0.7,0.3,1.2,1.1,1.3,1.9c0,0.4-0.2,0.8-0.4,1.1C113.4,214.8,113.1,215,112.8,215.2z
	 M103.8,207.1c-1.5-0.7-3.3-0.7-4.8,0l-8.7,4.9c-0.6,0.3-0.9,0.7-0.9,1.1c0.1,0.5,0.4,0.9,0.9,1.1l8.6,5.1c1.5,0.8,3.3,0.8,4.8,0.1
	l8.7-4.9c0.6-0.3,0.9-0.7,0.9-1.1c-0.1-0.5-0.4-0.9-0.9-1.1L103.8,207.1L103.8,207.1z M107.7,214.5l-4.8,2.7c-1,0.5-2.2,0.5-3.2,0
	l-4.7-2.8c-0.7-0.3-1-1-0.7-1.6c0.1-0.3,0.4-0.6,0.7-0.7l4.8-2.7c1-0.5,2.2-0.5,3.3,0l4.8,2.8c0.5,0.2,0.8,0.7,0.8,1.2
	c0,0.3-0.1,0.5-0.3,0.7C108.1,214.2,107.9,214.4,107.7,214.5L107.7,214.5z M95.3,212.7c-0.2,0.1-0.4,0.3-0.4,0.4s0.1,0.3,0.4,0.4
	l4.8,2.8c0.8,0.4,1.6,0.4,2.4,0l4.8-2.7c0.2-0.1,0.3-0.2,0.4-0.4c0-0.1-0.1-0.3-0.4-0.4l-4.8-2.8c-0.8-0.4-1.6-0.4-2.4,0L95.3,212.7
	l-0.2-0.4L95.3,212.7z"/>
<rect x="99.4" y="221.9" transform="matrix(9.947223e-03 -1 1 9.947223e-03 -122.0072 321.4772)" class="st1" width="3.9" height="0.9"/>
<rect x="99.3" y="210.8" transform="matrix(9.772712e-03 -1 1 9.772712e-03 -110.9609 310.4849)" class="st1" width="3.9" height="0.9"/>
<rect x="109.7" y="216.7" transform="matrix(9.772712e-03 -1 1 9.772712e-03 -106.6592 326.6714)" class="st1" width="3.9" height="0.9"/>
<rect x="89.6" y="216.9" transform="matrix(1.000050e-02 -0.9999 0.9999 1.000050e-02 -126.7059 306.7893)" class="st1" width="3.9" height="0.9"/>
<path class="st1" d="M108,213.7c0,0-2,1.3-2.1,1.4s-3.2-1.6-3.2-1.6l-1.3-0.4v-3.7l1.9,0.8c0,0,4.4,2.5,4.5,2.5S108,213.7,108,213.7
	z"/>
<path class="st1" d="M92.5,207l6.8-4c1.1-0.6,2.4-0.6,3.5,0l6.8,4l0.6-0.9l-6.9-4c-1.4-0.8-3.2-0.8-4.6,0l-6.8,4L92.5,207z"/>
</svg>
