<?xml version="1.0" encoding="utf-8"?>
<!-- Generator: Adobe Illustrator 25.2.3, SVG Export Plug-In . SVG Version: 6.00 Build 0)  -->
<svg version="1.1" id="beaa8f36-bfee-4bb5-b28a-a9ce14d4af55"
	 xmlns="http://www.w3.org/2000/svg" xmlns:xlink="http://www.w3.org/1999/xlink" x="0px" y="0px" viewBox="0 0 256.8 258"
	 style="enable-background:new 0 0 256.8 258;" xml:space="preserve">
<style type="text/css">
	.st0{fill:#0539F7;}
	.st1{fill:#150035;}
	.st2{fill:#FFFFFF;}
</style>
<path class="st0" d="M231,228.2l-21.2-1.7l0,0l-3.1,2.1l0,0c-4.4,0.3-8.7,1.5-12.6,3.5c-1.2,0.6-2.3,1.4-3.3,2.3l0,0l-3.8-0.7l0,0v8
	l0,0c0,3.4,2.2,6.8,6.7,9.4c9,5.2,23.6,5.2,32.7,0c1-0.6,1.9-1.2,2.8-1.9l0,0v-8l0,0l-10.1-1.8l0,0l12-3.1l0,0L231,228.2L231,228.2z
	"/>
<path class="st1" d="M186.3,233.4l0.5-0.3l0.3,0.1l3.5,0.6c1-0.8,2-1.5,3.1-2.1c3.9-2.1,8.3-3.3,12.7-3.6l3.2-2.1h0.2l21.8,1.8v8.9
	l-0.4,0.1l-9.6,2.5l8,1.4v8.7l-0.2,0.2c-0.9,0.7-1.9,1.4-2.9,2c-9.2,5.3-24.1,5.3-33.2,0c-4.4-2.5-6.9-5.9-7-9.6l0,0L186.3,233.4
	L186.3,233.4z M209.9,227.1l-3.1,2.1c-4.4,0.3-8.6,1.4-12.5,3.5c-1.1,0.6-2.2,1.3-3.1,2.2l-0.2,0.2l-0.3-0.1l-3.1-0.5v7.4
	c0,3.3,2.3,6.5,6.5,8.9c8.8,5.1,23.2,5.1,32.1,0c0.9-0.5,1.7-1.1,2.5-1.7v-7.3l-10.1-1.8v-0.9l0.4-0.1l11.6-3v-7.1L209.9,227.1z"/>
<path class="st2" d="M210,233.7l21-5.5l0,0c-1.8-2.2-4.1-3.9-6.7-5c-9-4.1-22.1-3.8-30.3,0.8c-9.4,5.2-9.5,13.8-0.4,19
	s23.6,5.2,32.7,0c1-0.6,1.9-1.2,2.7-1.9l0,0L210,233.7C210.1,233.7,210,233.7,210,233.7z"/>
<path class="st1" d="M187.9,228.7c1.5-2.1,3.5-3.9,5.8-5.1c8.4-4.6,21.7-5,30.8-0.8c2.7,1.1,5,2.9,6.9,5.1l0.2,0.2l-0.1,0.6
	l-0.3,0.1l-19.3,5l17.7,7l0.1,0.6l-0.3,0.2c-0.9,0.8-1.8,1.4-2.8,2c-9.2,5.3-24.1,5.3-33.2,0c-4.6-2.6-7.1-6.2-7-10
	C186.4,231.9,186.9,230.1,187.9,228.7z M230,227.9c-1.7-1.8-3.7-3.2-5.9-4.1c-8.9-4-21.7-3.7-29.8,0.8c-4.4,2.4-6.8,5.6-6.8,9
	s2.3,6.6,6.5,9c8.8,5.1,23.2,5.1,32.1,0c0.7-0.4,1.3-0.8,1.9-1.2l-18.5-7.3v-0.9l0.4-0.1L230,227.9z"/>
<path class="st2" d="M229,241.2l-19-7.5l0,0l6.5,12.8l0,0c3.4-0.5,6.7-1.7,9.8-3.4C227.2,242.6,228.1,242,229,241.2L229,241.2z"/>
<path class="st1" d="M209.3,233.7l0.5-0.6l0.4,0.2l19.3,7.6l0.1,0.7l-0.3,0.2c-0.9,0.7-1.8,1.4-2.8,1.9c-3.1,1.7-6.5,2.9-10,3.4
	l-0.4,0.1L209.3,233.7z M227.9,241.4l-16.7-6.6l5.7,11c3.2-0.5,6.3-1.6,9.2-3.2C226.6,242.3,227.3,241.9,227.9,241.4L227.9,241.4z"
	/>
<path class="st1" d="M210,233.8L210,233.8v13.3l0,0c2.2,0,4.4-0.2,6.6-0.5L210,233.8z"/>
<path class="st1" d="M224.7,244.1v7.9c1.6-0.7,3.2-1.7,4.5-2.8l-0.2-7.9L224.7,244.1z"/>
<path class="st1" d="M209.4,233.3l0.9-0.2l0.2,0.4l6.9,13.4l-0.8,0.1c-2.2,0.4-4.4,0.6-6.6,0.5h-0.6L209.4,233.3z M215.6,246.1
	l-5.1-10v10.4C212.2,246.5,213.9,246.3,215.6,246.1L215.6,246.1z"/>
<path class="st0" d="M210,247.1v-13.3l0,0l-4.7,13C206.9,247,208.4,247.1,210,247.1L210,247.1z"/>
<path class="st1" d="M209.6,233.2l1,0.2v0.5v13.8H210c-1.6,0-3.2-0.1-4.7-0.3l-0.7-0.1L209.6,233.2z M209.4,246.6v-9.4l-3.3,9.2
	C207.2,246.4,208.3,246.5,209.4,246.6L209.4,246.6z"/>
<rect x="212.5" y="250" transform="matrix(1.919865e-03 -1 1 1.919865e-03 -34.4315 466.6046)" class="st1" width="8" height="1.1"/>
<rect x="187.5" y="245.1" transform="matrix(1.745296e-03 -1 1 1.745296e-03 -54.4765 436.7798)" class="st1" width="8" height="1.1"/>
<rect x="190.2" y="247.1" transform="matrix(1.745296e-03 -1 1 1.745296e-03 -53.7969 441.399)" class="st1" width="8" height="1.1"/>
<rect x="222" y="233.2" transform="matrix(1.745296e-03 -1 1 1.745296e-03 -8.1553 459.3024)" class="st1" width="8" height="1.1"/>
<path class="st1" d="M221.6,255.7c3.4-0.7,6.5-2.2,9.2-4.3c0.7-0.6,1.2-1.5,1.3-2.4l0.2-2.7l1.1,0.1l-0.2,2.7
	c-0.1,1.3-0.7,2.4-1.7,3.2c-2.8,2.3-6.1,3.8-9.7,4.6L221.6,255.7z"/>
<rect x="214.7" y="256.5" transform="matrix(0.9904 -0.1381 0.1381 0.9904 -33.42 32.4168)" class="st1" width="4.4" height="1.1"/>
<path class="st1" d="M209.7,216.6c3.1-0.2,6.2,0.1,9.2,1l-0.4,1.1c-2.8-0.9-5.8-1.2-8.8-1V216.6z"/>
<rect x="221.4" y="217.7" transform="matrix(0.366 -0.9306 0.9306 0.366 -63.5541 345.7691)" class="st1" width="1.1" height="3.6"/>
<path class="st0" d="M25.1,229.7l8.6,5.1c1.6,0.9,3.6,0.9,5.3,0.1l8.7-4.9c0.6-0.3,1-0.9,1.1-1.5v-3.9 M48.6,224.5l-3.6,1.8l0,0
	l-3.1-5.9c-1.4-0.9-9-1.5-10.5-0.7l-3.8,6.4l0,0l-3.5-1.9 M24.1,224.2v4c0.1,0.7,0.5,1.2,1,1.5L24.1,224.2z M41.7,227.1
	C41.7,227.1,41.7,227.2,41.7,227.1l-1.9,1.1v0.9l-7.7-0.5v-0.9l-1.1-0.6l4-2.2c0.9-0.4,2-0.4,2.9,0L41.7,227.1z"/>
<path class="st1" d="M47.8,230.4l-8.7,4.9c-1.8,0.9-3.9,0.9-5.7-0.1l-8.6-5.1c-0.7-0.4-1.2-1.1-1.3-1.9v-4v-0.3l0.5-0.2l3.4,1.8
	l3.6-6.2h0.1c1.6-0.9,9.4-0.2,10.9,0.7l0.1,0.1l3,5.7l3.2-1.6l0.3-0.1l0.4,0.3v4.2c0,0.4-0.1,0.8-0.4,1.2
	C48.5,229.9,48.2,230.2,47.8,230.4z M45.3,226.7l-0.2,0.1l-0.3-0.2l-3.1-5.9c-1.5-0.7-8.4-1.3-9.9-0.7l-3.7,6.4l-0.3,0.2l-3.2-1.7
	v3.3c0.1,0.5,0.4,0.9,0.9,1.1l8.6,5.1c1.5,0.8,3.3,0.8,4.8,0.1l8.7-4.9c0.5-0.2,0.8-0.6,0.9-1.2v-3.3L45.3,226.7z M40.3,228.4
	c0,0.1,0,0.1,0,0.2c0,0.6,0,0.6-0.1,0.7l-0.1,0.1l-7.9-0.5c-0.4,0-0.4-0.3-0.4-0.9v-0.1l-1.6-0.9l4.7-2.6c1-0.5,2.3-0.5,3.3,0l0,0
	l3.9,2.3l0.2,0.2v0.5L40.3,228.4z M32.3,227.2c0.3,0.1,0.3,0.3,0.3,0.8v0.1l6.9,0.5c0-0.6,0-0.7,0.2-0.8l1.3-0.6l-3.3-2l0,0
	c-0.8-0.4-1.7-0.4-2.4,0l-3.3,1.9L32.3,227.2z"/>
<path class="st2" d="M33.9,217.9l-8.7,4.9c-1.5,0.8-1.5,2.2,0,3l8.6,5.1c1.6,0.8,3.6,0.9,5.2,0l8.7-4.9c1.5-0.8,1.5-2.2,0-3
	l-8.6-5.1C37.5,217.1,35.5,217.1,33.9,217.9z M35.1,220.8c0.9-0.4,1.9-0.4,2.8,0l4.8,2.8c0.5,0.2,0.7,0.6,0.5,1.1
	c-0.1,0.3-0.3,0.5-0.5,0.5l-4.8,2.7c-0.9,0.4-1.9,0.4-2.8,0l-4.8-2.8c-0.5-0.2-0.7-0.6-0.5-1.1c0.1-0.3,0.3-0.5,0.5-0.5L35.1,220.8z
	"/>
<path class="st1" d="M47.9,226.4l-8.7,4.9c-1.8,0.9-3.9,0.9-5.6-0.1l-8.6-5.1c-1-0.4-1.6-1.5-1.2-2.6c0.2-0.5,0.6-1,1.2-1.2l8.7-4.9
	c1.8-0.9,3.9-0.9,5.6,0.1l8.6,5.1c0.7,0.3,1.2,1.1,1.3,1.9c0,0.4-0.2,0.8-0.4,1.1C48.5,226,48.2,226.2,47.9,226.4z M38.9,218.3
	c-1.5-0.8-3.3-0.8-4.8-0.1l-8.7,4.9c-0.6,0.3-0.9,0.7-0.9,1.1c0.1,0.5,0.4,0.9,0.9,1.1l8.6,5.1c1.5,0.8,3.3,0.8,4.8,0l8.7-4.9
	c0.6-0.3,0.9-0.7,0.9-1.1c-0.1-0.5-0.4-0.9-0.9-1.1L38.9,218.3L38.9,218.3z M42.8,225.7l-4.8,2.7c-1,0.5-2.2,0.5-3.2,0l-4.8-2.8
	c-0.7-0.3-1-1-0.7-1.6c0.1-0.3,0.4-0.6,0.7-0.7l4.8-2.7c1-0.5,2.2-0.5,3.3,0l4.8,2.8c0.5,0.2,0.8,0.7,0.8,1.2c0,0.3-0.1,0.5-0.3,0.7
	C43.2,225.4,43,225.6,42.8,225.7L42.8,225.7z M30.4,223.9c-0.2,0.1-0.4,0.3-0.4,0.4s0.1,0.3,0.4,0.5l4.8,2.8c0.8,0.4,1.6,0.4,2.4,0
	l4.8-2.7c0.2-0.1,0.3-0.2,0.4-0.5c0-0.1-0.1-0.3-0.4-0.5l-4.8-2.8c-0.8-0.4-1.6-0.4-2.4,0L30.4,223.9l-0.2-0.3L30.4,223.9z"/>
<rect x="34.5" y="233.1" transform="matrix(9.947223e-03 -1 1 9.947223e-03 -197.4581 267.5981)" class="st1" width="3.9" height="0.9"/>
<rect x="34.6" y="222.1" transform="matrix(1.000050e-02 -0.9999 0.9999 1.000050e-02 -186.3341 256.8336)" class="st1" width="3.9" height="0.9"/>
<rect x="44.9" y="227.9" transform="matrix(9.772712e-03 -1 1 9.772712e-03 -182.039 272.961)" class="st1" width="3.9" height="0.9"/>
<rect x="24.9" y="228.1" transform="matrix(9.947223e-03 -1 1 9.947223e-03 -202.0352 253.1156)" class="st1" width="3.9" height="0.9"/>
<path class="st1" d="M43.1,224.9c0,0-2,1.3-2.1,1.4s-3.2-1.6-3.2-1.6l-1.3-0.4v-3.7l1.9,0.7c0,0,4.4,2.5,4.5,2.5
	S43.1,224.9,43.1,224.9z"/>
<path class="st1" d="M27.6,218.2l6.8-4c1.1-0.6,2.4-0.6,3.5,0l6.8,4l0.6-1l-6.9-4c-1.4-0.8-3.2-0.8-4.6,0l-6.8,4L27.6,218.2z"/>
<rect x="83.4" y="34.3" class="st1" width="1.1" height="28.8"/>
<rect x="83.4" y="22.5" class="st1" width="1.1" height="10.1"/>
<rect x="84" y="110.7" class="st1" width="1.1" height="10.1"/>
<path class="st1" d="M255.7,129.5h1.1V97.8c0-0.1,0.8-10.3-8.9-14.6l-0.5,1c8.9,4,8.3,13.2,8.2,13.6L255.7,129.5z"/>
<path class="st1" d="M118.3,161.4l6,0.1c0.1,0,0.2,0,0.3-0.1l23.1-13.3c1.5-0.8,3.3-0.9,4.8-0.2l52.4,30.3h0.1l17.4,5.9
	c0.2,0.1,0.4,0.3,0.4,0.6v4.4c0.1,0.6-0.2,1.3-1.1,1.8l-28.9,16.7c-1.5,0.8-3.3,0.9-4.8,0.2l-69.5-40.1c-0.5-0.2-0.8-0.7-0.8-1.2
	v-4.4C117.7,161.6,118,161.4,118.3,161.4L118.3,161.4z"/>
<path class="st1" d="M187.8,208.1L118.2,168c-0.6-0.3-1.1-1-1.1-1.7V162c0-0.3,0.1-0.6,0.3-0.8c0.2-0.2,0.5-0.3,0.8-0.3l6,0.1
	l23.1-13.3c1.6-0.9,3.6-1,5.3-0.2l52.4,30.3l17.4,5.9c0.5,0.1,0.8,0.6,0.8,1.1v4.3c0.1,1-0.5,2-1.4,2.4l-28.9,16.7
	c-0.9,0.5-2,0.8-3,0.8C189.3,208.7,188.5,208.5,187.8,208.1z M148.1,148.6L125,161.9c-0.2,0.1-0.4,0.2-0.6,0.1l-6-0.1v-0.6v4.9
	c0,0.3,0.2,0.6,0.5,0.7l69.4,40.2c1.4,0.6,2.9,0.5,4.2-0.2l28.9-16.7c0.6-0.4,1-0.8,0.9-1.2v-4.5l-17.4-5.8l-0.2-0.1l-52.5-30.3
	c-0.6-0.3-1.2-0.4-1.8-0.4C149.6,148,148.8,148.2,148.1,148.6z"/>
<path class="st2" d="M118.5,162.7l69.5,40.1c1.5,0.7,3.3,0.6,4.8-0.2l28.9-16.7c1.4-0.8,1.6-2.1,0.3-2.8L152.5,143
	c-1.5-0.7-3.3-0.6-4.8,0.2L118.9,160C117.5,160.8,117.3,162,118.5,162.7z"/>
<path class="st1" d="M187.8,203.3l-69.5-40.1c-0.6-0.3-1.1-1-1.1-1.7c0.1-0.9,0.6-1.6,1.5-2l28.9-16.7c1.6-0.9,3.6-1,5.3-0.2
	l69.5,40.1c0.6,0.3,1.1,1,1.1,1.7c-0.1,0.9-0.6,1.6-1.5,2l-28.9,16.7c-0.9,0.5-2,0.8-3,0.8C189.3,203.9,188.5,203.7,187.8,203.3z
	 M148.1,143.8l-28.9,16.7c-0.6,0.3-0.9,0.7-0.9,1.1c0,0.3,0.3,0.6,0.5,0.7l69.5,40.1c1.4,0.6,2.9,0.5,4.2-0.2l28.9-16.7
	c0.6-0.3,0.9-0.7,0.9-1.1c0-0.3-0.3-0.6-0.5-0.7l-69.5-40.1c-0.6-0.3-1.2-0.4-1.8-0.4C149.6,143.2,148.8,143.4,148.1,143.8z"/>
<rect x="189.7" y="203.7" class="st0" width="0.9" height="4.1"/>
<rect x="219.3" y="187.3" class="st0" width="0.9" height="4.1"/>
<rect x="120.4" y="164.2" class="st0" width="0.8" height="4.1"/>
<path class="st2" d="M89.1,3.8c-0.1-0.1,0-0.2,0-0.2l0,0l5.2-2.9c0.3-0.2,0.8-0.2,1.1,0l155.8,90c0.9,0.7,1.5,1.8,1.5,2.9v119.2
	c0,0.4-0.1,0.9-0.5,1.2l-5.4,3l-5.4-6.5l2.1-0.9L95.4,124c-0.9-0.7-1.5-1.8-1.5-2.9V10.2L89.1,3.8z"/>
<path class="st1" d="M240.5,210.3l1.8-0.8l-147.2-85c-1.1-0.8-1.8-2-1.8-3.4V10.5l-4.7-6.3c-0.1-0.2-0.2-0.4-0.1-0.6
	c0-0.2,0.2-0.4,0.3-0.5l5.1-2.8c0.5-0.4,1.2-0.4,1.7,0l155.8,90c1.1,0.8,1.8,2,1.8,3.4v119.2c0,0.6-0.2,1.3-0.7,1.7l-5.8,3.2
	L240.5,210.3z M94.5,1.2l-4.8,2.7l4.6,6.2v111c0,1,0.5,1.9,1.2,2.4l149.1,86.1l-2.5,1.1l4.6,5.6l5-2.8c0.2-0.2,0.3-0.5,0.2-0.7V93.6
	c0-1-0.5-1.9-1.2-2.4L95.1,1.2c-0.1-0.1-0.2-0.1-0.3-0.1C94.7,1.1,94.6,1.2,94.5,1.2z"/>
<path class="st1" d="M89.9,127.1l155.8,90c0.8,0.5,1.5,0,1.5-1.1V96.6c0-1.2-0.6-2.2-1.5-2.9L89.9,3.7c-0.8-0.5-1.5,0-1.5,1.2v119.3
	C88.4,125.3,89,126.4,89.9,127.1z"/>
<path class="st1" d="M245.4,217.5l-155.8-90c-1.1-0.8-1.8-2-1.8-3.4V4.9c-0.1-0.7,0.2-1.3,0.8-1.7c0.5-0.3,1.1-0.2,1.5,0.1l155.8,90
	c1.1,0.8,1.8,2,1.8,3.4v119.2c0.1,0.7-0.2,1.3-0.8,1.7c-0.2,0.1-0.4,0.2-0.7,0.2C246,217.7,245.7,217.6,245.4,217.5z M89.2,4.2
	C89.1,4.3,89,4.5,89,5v119.2c0,1,0.5,1.9,1.2,2.4l155.8,90c0.1,0,0.3,0.2,0.4,0.1s0.2-0.3,0.2-0.8V96.6c0-1-0.5-1.9-1.2-2.4
	L89.6,4.2C89.5,4.1,89.4,4.1,89.2,4.2C89.3,4.1,89.2,4.1,89.2,4.2z"/>
<path class="st0" d="M90.1,124.8l155.4,89.7c0.2,0.1,0.4,0,0.4-0.3V96c0-0.3-0.2-0.6-0.4-0.9L90.1,5.5c-0.2-0.2-0.4,0-0.4,0.3V124
	C89.7,124.3,89.9,124.6,90.1,124.8z"/>
<path class="st1" d="M245.2,215L89.9,125.3l0,0c-0.5-0.3-0.7-0.8-0.7-1.3V5.8c0-0.3,0.2-0.7,0.4-0.8c0.3-0.1,0.6-0.1,0.9,0
	l155.4,89.7c0.5,0.3,0.7,0.8,0.7,1.3v118.1c0,0.3-0.1,0.7-0.4,0.8c-0.1,0.1-0.3,0.1-0.4,0.1C245.5,215.1,245.3,215.1,245.2,215z
	 M90.2,124c0,0.1,0.1,0.3,0.2,0.4l155,89.5V96c0-0.1-0.1-0.3-0.2-0.4L90.2,6.2V124z"/>
<path class="st1" d="M88.4,124.3v-6.8l158.9,91.7v6.8c0,1-0.7,1.5-1.6,0.9L90.1,127.1C89.1,126.5,88.5,125.4,88.4,124.3z"/>
<path class="st1" d="M245.3,217.4L89.7,127.6c-1.1-0.7-1.8-2-1.9-3.3v-7.8l159.7,92.2l0.3,0.2v7.1c0,0.6-0.2,1.2-0.8,1.5
	c-0.2,0.1-0.5,0.2-0.7,0.2C246,217.7,245.6,217.6,245.3,217.4z M88.9,118.4v5.9c0.1,1,0.6,1.8,1.4,2.4l155.6,89.8
	c0.2,0.1,0.4,0.2,0.6,0.1c0.1-0.1,0.2-0.3,0.2-0.6v-6.5L88.9,118.4z"/>
<rect x="167.4" y="156.1" transform="matrix(0.5005 -0.8658 0.8658 0.5005 -61.309 229.1168)" class="st0" width="0.9" height="23.2"/>
<rect x="246.9" y="92.9" transform="matrix(0.8574 -0.5147 0.5147 0.8574 -12.4459 142.0016)" class="st1" width="6.2" height="1.1"/>
<rect x="98.3" y="6.7" transform="matrix(0.8574 -0.5147 0.5147 0.8574 10.7317 53.2249)" class="st1" width="6.2" height="1.1"/>
<rect x="246.9" y="205.8" transform="matrix(0.8574 -0.5147 0.5147 0.8574 -70.5512 158.0998)" class="st1" width="6.2" height="1.1"/>
<polygon class="st0" points="209.9,197.4 210.3,196.7 206.9,194.7 206.5,195.4 "/>
<path class="st1" d="M190.4,200.8c0.6,0,1.2-0.2,1.6-0.5l6-3.7l-0.6-0.9l-6,3.7c-0.6,0.4-1.4,0.4-2.1,0l-59.9-34.1l-0.5,1l59.9,34.1
	C189.3,200.7,189.9,200.8,190.4,200.8z"/>
<rect x="247.2" y="201.8" transform="matrix(0.8574 -0.5147 0.5147 0.8574 -68.4573 157.6924)" class="st1" width="6.2" height="1.1"/>
<rect x="101.7" y="8.7" transform="matrix(0.8574 -0.5147 0.5147 0.8574 10.1783 55.2579)" class="st1" width="6.2" height="1.1"/>
<rect x="247.2" y="98.6" transform="matrix(0.8574 -0.5147 0.5147 0.8574 -15.3362 142.9739)" class="st1" width="6.2" height="1.1"/>
<path class="st1" d="M187.9,168.5c0.3,1,0.8,1.9,1.5,2.6l0,0c-0.2,0-1.4-0.1-1.5,0.9l0,0c-0.3-1-0.8-1.9-1.5-2.7l0,0
	C186.5,169.3,187.7,169.5,187.9,168.5C187.8,168.4,187.9,168.4,187.9,168.5z"/>
<path class="st1" d="M183.4,165.9c0.2,1,0.8,1.9,1.5,2.7l0,0c-0.2,0-1.4-0.1-1.5,0.9l0,0c-0.3-1-0.8-1.9-1.5-2.7l0,0
	C182.1,166.8,183.3,166.9,183.4,165.9z"/>
<path class="st1" d="M179,163.4c0.3,1,0.8,1.9,1.5,2.6l0,0c-0.2,0-1.4-0.1-1.5,0.9l0,0c-0.3-1-0.8-1.9-1.5-2.6l0,0
	C177.7,164.2,178.8,164.4,179,163.4C179,163.3,179,163.3,179,163.4z"/>
<path class="st1" d="M174.6,160.8c0.3,1,0.8,1.9,1.5,2.6l0,0c-0.2,0-1.4-0.1-1.5,0.9l0,0c-0.3-1-0.8-1.9-1.5-2.7l0,0
	C173.2,161.7,174.4,161.8,174.6,160.8C174.5,160.8,174.6,160.8,174.6,160.8z"/>
<path class="st1" d="M170.1,158.2c0.3,1,0.8,1.9,1.5,2.7l0,0c-0.2,0-1.4-0.1-1.5,0.9l0,0c-0.3-1-0.8-1.9-1.5-2.7l0,0
	C168.8,159.1,170,159.3,170.1,158.2z"/>
<path class="st1" d="M165.7,155.7c0.3,1,0.8,1.9,1.5,2.6l0,0c-0.2,0-1.4-0.1-1.5,0.9l0,0c-0.3-1-0.8-1.9-1.5-2.6l0,0
	C164.4,156.6,165.5,156.7,165.7,155.7L165.7,155.7z"/>
<path class="st1" d="M161.3,153.1c0.2,1,0.8,1.9,1.5,2.7l0,0c-0.2,0-1.4-0.1-1.5,0.9l0,0c-0.3-1-0.8-1.9-1.5-2.7l0,0
	C160,154,161.1,154.2,161.3,153.1L161.3,153.1z"/>
<path class="st1" d="M156.9,150.6c0.2,1,0.8,1.9,1.5,2.7l0,0c-0.2,0-1.4-0.1-1.5,0.9l0,0c-0.3-1-0.8-1.9-1.5-2.7l0,0
	C155.5,151.5,156.7,151.6,156.9,150.6C156.8,150.6,156.9,150.6,156.9,150.6z"/>
<path class="st1" d="M152.4,148c0.3,1,0.8,1.9,1.5,2.6l0,0c-0.2,0-1.4-0.1-1.5,0.9l0,0c-0.3-1-0.8-1.9-1.5-2.6l0,0
	C151.1,148.9,152.3,149.1,152.4,148L152.4,148z"/>
<path class="st1" d="M148,145.5c0.3,1,0.8,1.9,1.5,2.7l0,0c-0.2,0-1.4-0.1-1.5,0.9l0,0c-0.3-1-0.8-1.9-1.5-2.7l0,0
	C146.7,146.3,147.8,146.5,148,145.5C148,145.4,148,145.4,148,145.5z"/>
<path class="st1" d="M232.1,194c0.3,1,0.8,1.9,1.5,2.6l0,0c-0.2,0-1.4-0.1-1.5,0.9l0,0c-0.3-1-0.8-1.9-1.5-2.6l0,0
	C230.8,194.9,232,195.1,232.1,194L232.1,194z"/>
<path class="st1" d="M227.7,191.5c0.2,1,0.8,1.9,1.5,2.6l0,0c-0.2,0-1.4-0.1-1.5,0.9l0,0c-0.3-1-0.8-1.9-1.5-2.7l0,0
	C226.4,192.4,227.5,192.5,227.7,191.5C227.7,191.4,227.7,191.5,227.7,191.5z"/>
<path class="st1" d="M223.3,188.9c0.3,1,0.8,1.9,1.5,2.7l0,0c-0.2,0-1.4-0.1-1.5,0.9l0,0c-0.2-1-0.8-1.9-1.5-2.7l0,0
	C222,189.8,223.1,190,223.3,188.9L223.3,188.9z"/>
<path class="st1" d="M218.9,186.4c0.3,1,0.8,1.9,1.5,2.6l0,0c-0.2,0-1.4-0.1-1.5,0.9l0,0c-0.3-1-0.8-1.9-1.5-2.6l0,0
	C217.5,187.3,218.7,187.4,218.9,186.4C218.8,186.3,218.9,186.3,218.9,186.4z"/>
<path class="st1" d="M214.4,183.8c0.3,1,0.8,1.9,1.5,2.6l0,0c-0.2,0-1.4-0.1-1.5,0.9l0,0c-0.3-1-0.8-1.9-1.5-2.7l0,0
	C213.1,184.7,214.2,184.8,214.4,183.8L214.4,183.8z"/>
<path class="st1" d="M210,181.2c0.3,1,0.8,1.9,1.5,2.7l0,0c-0.2,0-1.4-0.1-1.5,0.9l0,0c-0.3-1-0.8-1.9-1.5-2.7l0,0
	C208.7,182.1,209.8,182.3,210,181.2L210,181.2z"/>
<path class="st1" d="M205.6,178.7c0.2,1,0.8,1.9,1.5,2.6l0,0c-0.2,0-1.4-0.1-1.5,0.9l0,0c-0.3-1-0.8-1.9-1.5-2.6l0,0
	C204.2,179.6,205.4,179.7,205.6,178.7C205.5,178.7,205.6,178.7,205.6,178.7z"/>
<path class="st1" d="M201.1,176.1c0.3,1,0.8,1.9,1.5,2.6l0,0c-0.2,0-1.4-0.1-1.5,0.9l0,0c-0.2-1-0.8-1.9-1.5-2.7l0,0
	C199.8,177,201,177.2,201.1,176.1L201.1,176.1z"/>
<path class="st1" d="M196.7,173.6c0.3,1,0.8,1.9,1.5,2.7l0,0c-0.2,0-1.4-0.1-1.5,0.9l0,0c-0.3-1-0.8-1.9-1.5-2.7l0,0
	C195.4,174.5,196.5,174.6,196.7,173.6z"/>
<path class="st1" d="M192.3,171c0.3,1,0.8,1.9,1.5,2.6l0,0c-0.2,0-1.4-0.1-1.5,0.9l0,0c-0.3-1-0.8-1.9-1.5-2.6l0,0
	C190.9,171.9,192.1,172.1,192.3,171L192.3,171z"/>
<path class="st1" d="M187.9,163.3c0.3,1,0.8,1.9,1.5,2.6l0,0c-0.2,0-1.4-0.1-1.5,0.9l0,0c-0.3-1-0.8-1.9-1.5-2.6l0,0
	C186.5,164.2,187.7,164.4,187.9,163.3C187.8,163.3,187.9,163.3,187.9,163.3z"/>
<path class="st1" d="M183.4,160.8c0.2,1,0.8,1.9,1.5,2.6l0,0c-0.2,0-1.4-0.1-1.5,0.9l0,0c-0.3-1-0.8-1.9-1.5-2.7l0,0
	C182.1,161.7,183.3,161.8,183.4,160.8L183.4,160.8z"/>
<path class="st1" d="M179,158.2c0.2,1,0.8,1.9,1.5,2.7l0,0c-0.2,0-1.4-0.1-1.5,0.9l0,0c-0.3-1-0.8-1.9-1.5-2.7l0,0
	C177.7,159.1,178.8,159.3,179,158.2L179,158.2z"/>
<path class="st1" d="M174.6,155.7c0.3,1,0.8,1.9,1.5,2.6l0,0c-0.2,0-1.4-0.1-1.5,0.9l0,0c-0.3-1-0.8-1.9-1.5-2.6l0,0
	C173.2,156.6,174.4,156.7,174.6,155.7C174.5,155.6,174.6,155.6,174.6,155.7z"/>
<path class="st1" d="M170.1,153.1c0.3,1,0.8,1.9,1.5,2.6l0,0c-0.2,0-1.4-0.1-1.5,0.9l0,0c-0.3-1-0.8-1.9-1.5-2.7l0,0
	C168.8,154,170,154.1,170.1,153.1L170.1,153.1z"/>
<path class="st1" d="M165.7,150.6c0.3,1,0.8,1.9,1.5,2.7l0,0c-0.2,0-1.4-0.1-1.5,0.9l0,0c-0.3-1-0.8-1.9-1.5-2.7l0,0
	C164.4,151.4,165.5,151.6,165.7,150.6z"/>
<path class="st1" d="M161.3,148c0.2,1,0.8,1.9,1.5,2.6l0,0c-0.2,0-1.4-0.1-1.5,0.9l0,0c-0.3-1-0.8-1.9-1.5-2.6l0,0
	C160,148.9,161.1,149,161.3,148L161.3,148z"/>
<path class="st1" d="M156.9,145.4c0.2,1,0.8,1.9,1.5,2.6l0,0c-0.2,0-1.4-0.1-1.5,0.9l0,0c-0.3-1-0.8-1.9-1.5-2.7l0,0
	C155.5,146.3,156.7,146.5,156.9,145.4C156.8,145.4,156.9,145.4,156.9,145.4z"/>
<path class="st1" d="M152.4,142.9c0.3,1,0.8,1.9,1.5,2.7l0,0c-0.2,0-1.4-0.1-1.5,0.9l0,0c-0.3-1-0.8-1.9-1.5-2.7l0,0
	C151.1,143.8,152.3,143.9,152.4,142.9L152.4,142.9z"/>
<path class="st1" d="M148,140.3c0.3,1,0.8,1.9,1.5,2.6l0,0c-0.2,0-1.4-0.1-1.5,0.9l0,0c-0.3-1-0.8-1.9-1.5-2.6l0,0
	C146.7,141.2,147.8,141.4,148,140.3L148,140.3z"/>
<path class="st1" d="M232.1,188.9c0.3,1,0.8,1.9,1.5,2.7l0,0c-0.2,0-1.4-0.1-1.5,0.9l0,0c-0.3-1-0.8-1.9-1.5-2.7l0,0
	C230.8,189.8,232,189.9,232.1,188.9L232.1,188.9z"/>
<path class="st1" d="M227.7,186.3c0.2,1,0.8,1.9,1.5,2.7l0,0c-0.2,0-1.4-0.1-1.5,0.9l0,0c-0.3-1-0.8-1.9-1.5-2.7l0,0
	C226.4,187.2,227.5,187.4,227.7,186.3L227.7,186.3z"/>
<path class="st1" d="M223.3,183.8c0.3,1,0.8,1.9,1.5,2.6l0,0c-0.2,0-1.4-0.1-1.5,0.9l0,0c-0.2-1-0.8-1.9-1.5-2.7l0,0
	C222,184.7,223.1,184.8,223.3,183.8L223.3,183.8z"/>
<path class="st1" d="M218.9,181.2c0.3,1,0.8,1.9,1.5,2.7l0,0c-0.2,0-1.4-0.1-1.5,0.9l0,0c-0.3-1-0.8-1.9-1.5-2.7l0,0
	C217.5,182.1,218.7,182.3,218.9,181.2C218.8,181.2,218.9,181.2,218.9,181.2z"/>
<path class="st1" d="M214.4,178.7c0.3,1,0.8,1.9,1.5,2.6l0,0c-0.2,0-1.4-0.1-1.5,0.9l0,0c-0.3-1-0.8-1.9-1.5-2.7l0,0
	C213.1,179.6,214.2,179.7,214.4,178.7C214.4,178.6,214.4,178.7,214.4,178.7z"/>
<path class="st1" d="M210,176.1c0.3,1,0.8,1.9,1.5,2.6l0,0c-0.2,0-1.4-0.1-1.5,0.9l0,0c-0.3-1-0.8-1.9-1.5-2.7l0,0
	C208.7,177,209.8,177.2,210,176.1L210,176.1z"/>
<path class="st1" d="M205.6,173.6c0.2,1,0.8,1.9,1.5,2.7l0,0c-0.2,0-1.4-0.1-1.5,0.9l0,0c-0.3-1-0.8-1.9-1.5-2.7l0,0
	C204.2,174.5,205.4,174.6,205.6,173.6C205.5,173.5,205.6,173.5,205.6,173.6z"/>
<path class="st1" d="M201.1,171c0.3,1,0.8,1.9,1.5,2.6l0,0c-0.2,0-1.4-0.1-1.5,0.9l0,0c-0.2-1-0.8-1.9-1.5-2.6l0,0
	C199.8,171.9,201,172,201.1,171L201.1,171z"/>
<path class="st1" d="M196.7,168.4c0.3,1,0.8,1.9,1.5,2.6l0,0c-0.2,0-1.4-0.1-1.5,0.9l0,0c-0.3-1-0.8-1.9-1.5-2.7l0,0
	C195.4,169.3,196.5,169.5,196.7,168.4L196.7,168.4z"/>
<path class="st1" d="M192.3,165.9c0.3,1,0.8,1.9,1.5,2.7l0,0c-0.2,0-1.4-0.1-1.5,0.9l0,0c-0.3-1-0.8-1.9-1.5-2.7l0,0
	C190.9,166.8,192.1,166.9,192.3,165.9L192.3,165.9z"/>
<path class="st1" d="M187.9,158.2c0.3,1,0.8,1.9,1.5,2.7l0,0c-0.2,0-1.4-0.1-1.5,0.9l0,0c-0.3-1-0.8-1.9-1.5-2.7l0,0
	C186.5,159.1,187.7,159.3,187.9,158.2C187.8,158.2,187.9,158.2,187.9,158.2z"/>
<path class="st1" d="M183.4,155.6c0.2,1,0.8,1.9,1.5,2.6l0,0c-0.2,0-1.4-0.2-1.5,0.9l0,0c-0.3-1-0.8-1.9-1.5-2.7l0,0
	C182.1,156.5,183.3,156.7,183.4,155.6L183.4,155.6z"/>
<path class="st1" d="M179,153.1c0.2,1,0.8,1.9,1.5,2.6l0,0c-0.2,0-1.4-0.1-1.5,0.9l0,0c-0.3-1-0.8-1.9-1.5-2.7l0,0
	C177.7,154,178.8,154.1,179,153.1L179,153.1z"/>
<path class="st1" d="M174.6,150.5c0.2,1,0.8,2,1.5,2.7l0,0c-0.2,0-1.4-0.1-1.5,0.9l0,0c-0.2-1-0.7-1.9-1.5-2.7l0,0
	C173.3,151.4,174.4,151.6,174.6,150.5C174.5,150.5,174.6,150.5,174.6,150.5z"/>
<path class="st1" d="M170.1,148c0.3,1,0.8,1.9,1.5,2.6l0,0c-0.2,0-1.4-0.1-1.5,0.9l0,0c-0.3-1-0.8-1.9-1.5-2.6l0,0
	C168.8,148.9,170,149,170.1,148C170.1,147.9,170.1,148,170.1,148z"/>
<path class="st1" d="M165.7,145.4c0.3,1,0.8,1.9,1.5,2.6l0,0c-0.2,0-1.4-0.1-1.5,0.9l0,0c-0.3-1-0.8-1.9-1.5-2.7l0,0
	C164.4,146.3,165.5,146.5,165.7,145.4L165.7,145.4z"/>
<path class="st1" d="M161.3,142.9c0.2,1,0.8,1.9,1.5,2.7l0,0c-0.2,0-1.4-0.1-1.5,0.9l0,0c-0.3-1-0.8-1.9-1.5-2.7l0,0
	C160,143.8,161.1,143.9,161.3,142.9C161.3,142.8,161.3,142.8,161.3,142.9z"/>
<path class="st1" d="M156.9,140.3c0.3,1,0.8,1.9,1.5,2.6l0,0c-0.2,0-1.4-0.1-1.5,0.9l0,0c-0.3-1-0.8-1.9-1.5-2.6l0,0
	C155.5,141.2,156.7,141.3,156.9,140.3C156.8,140.3,156.9,140.3,156.9,140.3z"/>
<path class="st1" d="M152.4,137.8c0.3,1,0.8,1.9,1.5,2.6l0,0c-0.2,0-1.4-0.1-1.5,0.9l0,0c-0.3-1-0.8-1.9-1.5-2.7l0,0
	C151.1,138.6,152.3,138.8,152.4,137.8C152.4,137.7,152.4,137.7,152.4,137.8z"/>
<path class="st1" d="M148,135.2c0.3,1,0.8,1.9,1.5,2.7l0,0c-0.2,0-1.4-0.1-1.5,0.9l0,0c-0.3-1-0.8-1.9-1.5-2.7l0,0
	C146.7,136.1,147.8,136.3,148,135.2L148,135.2z"/>
<path class="st1" d="M232.1,183.8c0.3,1,0.8,1.9,1.5,2.6l0,0c-0.2,0-1.4-0.1-1.5,0.9l0,0c-0.3-1-0.8-1.9-1.5-2.6l0,0
	C230.8,184.7,232,184.8,232.1,183.8C232.1,183.7,232.1,183.8,232.1,183.8z"/>
<path class="st1" d="M227.7,181.2c0.2,1,0.8,1.9,1.5,2.6l0,0c-0.2,0-1.4-0.1-1.5,0.9l0,0c-0.3-1-0.8-1.9-1.5-2.7l0,0
	C226.4,182.1,227.5,182.3,227.7,181.2L227.7,181.2z"/>
<path class="st1" d="M223.3,178.6c0.3,1,0.8,1.9,1.5,2.7l0,0c-0.2,0-1.4-0.1-1.5,0.9l0,0c-0.2-1-0.8-1.9-1.5-2.7l0,0
	C222,179.5,223.1,179.7,223.3,178.6L223.3,178.6z"/>
<path class="st1" d="M218.9,176.1c0.3,1,0.8,1.9,1.5,2.6l0,0c-0.2,0-1.4-0.1-1.5,0.9l0,0c-0.3-1-0.8-1.9-1.5-2.6l0,0
	C217.5,177,218.7,177.1,218.9,176.1C218.8,176.1,218.9,176.1,218.9,176.1z"/>
<path class="st1" d="M214.4,173.5c0.3,1,0.8,1.9,1.5,2.6l0,0c-0.2,0-1.4-0.1-1.5,0.9l0,0c-0.3-1-0.8-1.9-1.5-2.7l0,0
	C213.1,174.4,214.2,174.6,214.4,173.5L214.4,173.5z"/>
<path class="st1" d="M210,171c0.3,1,0.8,1.9,1.5,2.7l0,0c-0.2,0-1.4-0.1-1.5,0.9l0,0c-0.3-1-0.8-1.9-1.5-2.7l0,0
	C208.7,171.9,209.8,172,210,171L210,171z"/>
<path class="st1" d="M205.6,168.4c0.2,1,0.8,1.9,1.5,2.6l0,0c-0.2,0-1.4-0.1-1.5,0.9l0,0c-0.3-1-0.8-1.9-1.5-2.6l0,0
	C204.3,169.3,205.4,169.5,205.6,168.4C205.5,168.4,205.6,168.4,205.6,168.4z"/>
<path class="st1" d="M201.1,165.9c0.3,1,0.8,1.9,1.5,2.7l0,0c-0.2,0-1.4-0.1-1.5,0.9l0,0c-0.2-1-0.8-1.9-1.5-2.7l0,0
	C199.8,166.8,201,166.9,201.1,165.9C201.1,165.8,201.1,165.8,201.1,165.9z"/>
<path class="st1" d="M196.7,163.3c0.3,1,0.8,1.9,1.5,2.7l0,0c-0.2,0-1.4-0.1-1.5,0.9l0,0c-0.3-1-0.8-1.9-1.5-2.7l0,0
	C195.4,164.2,196.5,164.3,196.7,163.3L196.7,163.3z"/>
<path class="st1" d="M192.3,160.8c0.3,1,0.8,1.9,1.5,2.6l0,0c-0.2,0-1.4-0.1-1.5,0.9l0,0c-0.3-1-0.8-1.9-1.5-2.7l0,0
	C190.9,161.6,192.1,161.8,192.3,160.8C192.3,160.7,192.3,160.7,192.3,160.8z"/>
<path class="st1" d="M187.9,153.1c0.3,1,0.8,1.9,1.5,2.6l0,0c-0.2,0-1.4-0.1-1.5,0.9l0,0c-0.3-1-0.8-1.9-1.5-2.6l0,0
	C186.5,154,187.7,154.1,187.9,153.1C187.8,153,187.9,153.1,187.9,153.1z"/>
<path class="st1" d="M183.4,150.5c0.2,1,0.8,1.9,1.5,2.6l0,0c-0.2,0-1.4-0.1-1.5,0.9l0,0c-0.3-1-0.8-1.9-1.5-2.7l0,0
	C182.1,151.4,183.3,151.5,183.4,150.5L183.4,150.5z"/>
<path class="st1" d="M179,147.9c0.2,1,0.8,1.9,1.5,2.7l0,0c-0.2,0-1.4-0.1-1.5,0.9l0,0c-0.3-1-0.8-1.9-1.5-2.7l0,0
	C177.7,148.8,178.8,149,179,147.9L179,147.9z"/>
<path class="st1" d="M174.6,145.4c0.3,1,0.8,1.9,1.5,2.6l0,0c-0.2,0-1.4-0.1-1.5,0.9l0,0c-0.3-1-0.8-1.9-1.5-2.6l0,0
	C173.2,146.3,174.4,146.4,174.6,145.4C174.5,145.4,174.6,145.4,174.6,145.4z"/>
<path class="st1" d="M170.1,142.8c0.2,1,0.8,1.9,1.5,2.6l0,0c-0.2,0-1.4-0.1-1.5,0.9l0,0c-0.3-1-0.8-1.9-1.5-2.7l0,0
	C168.8,143.7,170,143.9,170.1,142.8L170.1,142.8z"/>
<path class="st1" d="M165.7,140.3c0.3,1,0.8,1.9,1.5,2.7l0,0c-0.2,0-1.4-0.1-1.5,0.9l0,0c-0.3-1-0.8-1.9-1.5-2.7l0,0
	C164.4,141.2,165.5,141.3,165.7,140.3C165.7,140.2,165.7,140.2,165.7,140.3z"/>
<path class="st1" d="M161.3,137.7c0.2,1,0.8,1.9,1.5,2.6l0,0c-0.2,0-1.4-0.1-1.5,0.9l0,0c-0.3-1-0.8-1.9-1.5-2.6l0,0
	C160,138.6,161.1,138.8,161.3,137.7L161.3,137.7z"/>
<path class="st1" d="M156.9,135.2c0.2,1,0.8,1.9,1.5,2.7l0,0c-0.2,0-1.4-0.1-1.5,0.9l0,0c-0.3-1-0.8-1.9-1.5-2.7l0,0
	C155.5,136.1,156.7,136.2,156.9,135.2C156.8,135.1,156.9,135.1,156.9,135.2z"/>
<path class="st1" d="M152.4,132.6c0.3,1,0.8,1.9,1.5,2.6l0,0c-0.2,0-1.4-0.1-1.5,0.9l0,0c-0.3-1-0.8-1.9-1.5-2.7l0,0
	C151.1,133.5,152.3,133.6,152.4,132.6L152.4,132.6z"/>
<path class="st1" d="M148,130.1c0.3,1,0.8,1.9,1.5,2.6l0,0c-0.2,0-1.4-0.1-1.5,0.9l0,0c-0.3-1-0.8-1.9-1.5-2.7l0,0
	C146.7,130.9,147.8,131.1,148,130.1C148,130,148,130,148,130.1z"/>
<path class="st1" d="M143.6,142.9c0.3,1,0.8,1.9,1.5,2.6l0,0c-0.2,0-1.4-0.1-1.5,0.9l0,0c-0.3-1-0.8-1.9-1.5-2.7l0,0
	C142.2,143.8,143.4,143.9,143.6,142.9C143.5,142.9,143.6,142.9,143.6,142.9z"/>
<path class="st1" d="M139.1,140.3c0.3,1,0.8,1.9,1.5,2.6l0,0c-0.2,0-1.4-0.1-1.5,0.9l0,0c-0.3-1-0.8-1.9-1.5-2.7l0,0
	C137.8,141.2,139,141.4,139.1,140.3L139.1,140.3z"/>
<path class="st1" d="M134.7,137.8c0.2,1,0.8,1.9,1.5,2.7l0,0c-0.2,0-1.4-0.1-1.5,0.9l0,0c-0.3-1-0.8-1.9-1.5-2.7l0,0
	C133.4,138.7,134.6,138.8,134.7,137.8L134.7,137.8z"/>
<path class="st1" d="M130.3,135.2c0.3,1,0.8,1.9,1.5,2.6l0,0c-0.2,0-1.4-0.1-1.5,0.9l0,0c-0.3-1-0.8-1.9-1.5-2.7l0,0
	C129,136.1,130.1,136.3,130.3,135.2L130.3,135.2z"/>
<path class="st1" d="M143.6,137.8c0.3,1,0.8,1.9,1.5,2.6l0,0c-0.2,0-1.4-0.1-1.5,0.9l0,0c-0.3-1-0.8-1.9-1.5-2.7l0,0
	C142.2,138.6,143.4,138.8,143.6,137.8C143.5,137.7,143.6,137.8,143.6,137.8z"/>
<path class="st1" d="M139.1,135.2c0.3,1,0.8,1.9,1.5,2.7l0,0c-0.2,0-1.4-0.1-1.5,0.9l0,0c-0.3-1-0.8-1.9-1.5-2.7l0,0
	C137.8,136.1,139,136.3,139.1,135.2z"/>
<path class="st1" d="M134.7,132.7c0.3,1,0.8,1.9,1.5,2.6l0,0c-0.2,0-1.4-0.1-1.5,0.9l0,0c-0.3-1-0.8-1.9-1.5-2.6l0,0
	C133.4,133.5,134.6,133.7,134.7,132.7C134.7,132.6,134.7,132.6,134.7,132.7z"/>
<path class="st1" d="M130.3,130.1c0.3,1,0.8,1.9,1.5,2.6l0,0c-0.2,0-1.4-0.1-1.5,0.9l0,0c-0.3-1-0.8-1.9-1.5-2.7l0,0
	C129,131,130.1,131.1,130.3,130.1L130.3,130.1z"/>
<path class="st1" d="M143.6,132.6c0.3,1,0.8,1.9,1.5,2.6l0,0c-0.2,0-1.4-0.1-1.5,0.9l0,0c-0.3-1-0.8-1.9-1.5-2.6l0,0
	C142.2,133.5,143.4,133.7,143.6,132.6C143.5,132.6,143.6,132.6,143.6,132.6z"/>
<path class="st1" d="M139.1,130.1c0.3,1,0.8,1.9,1.5,2.6l0,0c-0.2,0-1.4-0.1-1.5,0.9l0,0c-0.3-1-0.8-1.9-1.5-2.7l0,0
	C137.8,131,139,131.1,139.1,130.1L139.1,130.1z"/>
<path class="st1" d="M134.7,127.5c0.2,1,0.8,1.9,1.5,2.7l0,0c-0.2,0-1.4-0.1-1.5,0.9l0,0c-0.3-1-0.8-1.9-1.5-2.7l0,0
	C133.4,128.4,134.6,128.6,134.7,127.5L134.7,127.5z"/>
<path class="st1" d="M130.3,125c0.3,1,0.8,1.9,1.5,2.6l0,0c-0.2,0-1.4-0.1-1.5,0.9l0,0c-0.3-1-0.8-1.9-1.5-2.6l0,0
	C129,125.9,130.1,126,130.3,125C130.3,124.9,130.3,124.9,130.3,125z"/>
<path class="st1" d="M143.6,127.5c0.3,1,0.8,1.9,1.5,2.7l0,0c-0.2,0-1.4-0.1-1.5,0.9l0,0c-0.3-1-0.8-1.9-1.5-2.7l0,0
	C142.2,128.4,143.4,128.5,143.6,127.5C143.5,127.5,143.6,127.5,143.6,127.5z"/>
<path class="st1" d="M139.1,124.9c0.3,1,0.8,1.9,1.5,2.6l0,0c-0.2,0-1.4-0.1-1.5,0.9l0,0c-0.3-1-0.8-1.9-1.5-2.7l0,0
	C137.8,125.8,139,126,139.1,124.9L139.1,124.9z"/>
<path class="st1" d="M134.7,122.4c0.2,1,0.8,1.9,1.5,2.6l0,0c-0.2,0-1.4-0.1-1.5,0.9l0,0c-0.3-1-0.8-1.9-1.5-2.7l0,0
	C133.4,123.3,134.6,123.4,134.7,122.4L134.7,122.4z"/>
<path class="st1" d="M130.3,119.8c0.3,1,0.8,1.9,1.5,2.7l0,0c-0.2,0-1.4-0.1-1.5,0.9l0,0c-0.3-1-0.8-1.9-1.5-2.7l0,0
	C129,120.7,130.1,120.9,130.3,119.8L130.3,119.8z"/>
<path class="st1" d="M232.1,178.6c0.3,1,0.8,1.9,1.5,2.7l0,0c-0.2,0-1.4-0.1-1.5,0.9l0,0c-0.3-1-0.8-1.9-1.5-2.7l0,0
	C230.8,179.5,232,179.7,232.1,178.6L232.1,178.6z"/>
<path class="st1" d="M227.7,176.1c0.3,1,0.8,1.9,1.5,2.6l0,0c-0.2,0-1.4-0.1-1.5,0.9l0,0c-0.3-1-0.8-1.9-1.5-2.6l0,0
	C226.4,177,227.5,177.1,227.7,176.1L227.7,176.1z"/>
<path class="st1" d="M223.3,173.5c0.3,1,0.8,1.9,1.5,2.6l0,0c-0.2,0-1.4-0.1-1.5,0.9l0,0c-0.2-1-0.8-1.9-1.5-2.7l0,0
	C222,174.4,223.1,174.6,223.3,173.5L223.3,173.5z"/>
<path class="st1" d="M218.9,171c0.3,1,0.8,1.9,1.5,2.7l0,0c-0.2,0-1.4-0.1-1.5,0.9l0,0c-0.3-1-0.8-1.9-1.5-2.7l0,0
	C217.5,171.8,218.7,172,218.9,171z"/>
<path class="st1" d="M214.4,168.4c0.3,1,0.8,1.9,1.5,2.6l0,0c-0.2,0-1.4-0.1-1.5,0.9l0,0c-0.3-1-0.8-1.9-1.5-2.6l0,0
	C213.1,169.3,214.2,169.4,214.4,168.4L214.4,168.4z"/>
<path class="st1" d="M210,165.8c0.3,1,0.8,1.9,1.5,2.6l0,0c-0.2,0-1.4-0.1-1.5,0.9l0,0c-0.3-1-0.8-1.9-1.5-2.7l0,0
	C208.7,166.7,209.8,166.9,210,165.8L210,165.8z"/>
<path class="st1" d="M205.6,163.3c0.2,1,0.8,1.9,1.5,2.7l0,0c-0.2,0-1.4-0.1-1.5,0.9l0,0c-0.3-1-0.8-1.9-1.5-2.6l0,0
	C204.3,164.2,205.4,164.4,205.6,163.3C205.5,163.2,205.6,163.3,205.6,163.3z"/>
<path class="st1" d="M201.1,160.7c0.3,1,0.8,1.9,1.5,2.6l0,0c-0.2,0-1.4-0.1-1.5,0.9l0,0c-0.2-1-0.8-1.9-1.5-2.6l0,0
	C199.8,161.6,201,161.8,201.1,160.7L201.1,160.7z"/>
<path class="st1" d="M196.7,158.2c0.3,1,0.8,1.9,1.5,2.6l0,0c-0.2,0-1.4-0.1-1.5,0.9l0,0c-0.3-1-0.8-1.9-1.5-2.7l0,0
	C195.4,159.1,196.5,159.3,196.7,158.2C196.7,158.1,196.7,158.2,196.7,158.2z"/>
<path class="st1" d="M192.3,155.6c0.3,1,0.8,1.9,1.5,2.7l0,0c-0.2,0-1.4-0.1-1.5,0.9l0,0c-0.3-1-0.8-1.9-1.5-2.7l0,0
	C190.9,156.5,192.1,156.7,192.3,155.6z"/>
<path class="st1" d="M187.9,70.1c0.3,1,0.8,1.9,1.5,2.7l0,0c-0.2,0-1.4-0.1-1.5,0.9l0,0c-0.3-1-0.8-1.9-1.5-2.7l0,0
	C186.5,71,187.7,71.2,187.9,70.1C187.8,70.1,187.9,70.1,187.9,70.1z"/>
<path class="st1" d="M183.4,67.6c0.2,1,0.8,1.9,1.5,2.7l0,0c-0.2,0-1.4-0.2-1.5,0.9l0,0c-0.3-1-0.8-1.9-1.5-2.7l0,0
	C182.1,68.5,183.3,68.6,183.4,67.6L183.4,67.6z"/>
<path class="st1" d="M179,65c0.2,1,0.8,1.9,1.5,2.7l0,0c-0.2,0-1.4-0.1-1.5,0.9l0,0c-0.3-1-0.8-1.9-1.5-2.7l0,0
	C177.7,65.9,178.8,66.1,179,65L179,65z"/>
<path class="st1" d="M174.6,62.5c0.2,1,0.8,1.9,1.5,2.7l0,0c-0.2,0-1.4-0.2-1.5,0.9l0,0c-0.3-1-0.8-1.9-1.5-2.7l0,0
	C173.2,63.4,174.4,63.5,174.6,62.5C174.5,62.5,174.6,62.5,174.6,62.5z"/>
<path class="st1" d="M170.1,59.9c0.3,1,0.8,1.9,1.5,2.7l0,0c-0.2,0-1.4-0.2-1.5,0.9l0,0c-0.3-1-0.8-1.9-1.5-2.7l0,0
	C168.8,60.8,170,61,170.1,59.9L170.1,59.9z"/>
<path class="st1" d="M165.7,57.4c0.3,1,0.8,1.9,1.5,2.7l0,0c-0.2,0-1.4-0.2-1.5,0.9l0,0c-0.3-1-0.8-2-1.6-2.7l0,0
	C164.4,58.2,165.5,58.4,165.7,57.4C165.7,57.3,165.7,57.3,165.7,57.4z"/>
<path class="st1" d="M161.3,54.8c0.2,1,0.8,1.9,1.5,2.7l0,0c-0.2,0-1.4-0.2-1.5,0.9l0,0c-0.3-1-0.8-1.9-1.5-2.7l0,0
	C160,55.7,161.1,55.9,161.3,54.8L161.3,54.8z"/>
<path class="st1" d="M156.9,52.2c0.2,1,0.8,1.9,1.5,2.7l0,0c-0.2,0-1.4-0.2-1.5,0.9l0,0c-0.3-1-0.8-1.9-1.5-2.7l0,0
	C155.5,53.1,156.7,53.3,156.9,52.2C156.8,52.2,156.9,52.2,156.9,52.2z"/>
<path class="st1" d="M152.4,49.7c0.3,1,0.8,1.9,1.5,2.7l0,0c-0.2,0-1.4-0.2-1.5,0.9l0,0c-0.3-1-0.8-1.9-1.5-2.7l0,0
	C151.1,50.6,152.3,50.7,152.4,49.7L152.4,49.7z"/>
<path class="st1" d="M148,47.1c0.3,1,0.8,1.9,1.5,2.7l0,0c-0.2,0-1.4-0.2-1.5,0.9l0,0c-0.3-1-0.8-1.9-1.5-2.7l0,0
	C146.7,48,147.8,48.2,148,47.1L148,47.1z"/>
<path class="st1" d="M232.1,95.7c0.3,1,0.8,1.9,1.5,2.6l0,0c-0.2,0-1.4-0.1-1.5,0.9l0,0c-0.3-1-0.8-1.9-1.5-2.7l0,0
	C230.8,96.6,232,96.7,232.1,95.7L232.1,95.7z"/>
<path class="st1" d="M227.7,93.1c0.2,1,0.8,1.9,1.5,2.7l0,0c-0.2,0-1.4-0.1-1.5,0.9l0,0c-0.3-1-0.8-1.9-1.5-2.7l0,0
	C226.4,94,227.5,94.2,227.7,93.1L227.7,93.1z"/>
<path class="st1" d="M223.3,90.6c0.3,1,0.8,1.9,1.5,2.6l0,0c-0.2,0-1.4-0.1-1.5,0.9l0,0c-0.2-1-0.8-1.9-1.5-2.6l0,0
	C222,91.5,223.1,91.6,223.3,90.6L223.3,90.6z"/>
<path class="st1" d="M218.9,88c0.3,1,0.8,1.9,1.5,2.6l0,0c-0.2,0-1.4-0.1-1.5,0.9l0,0c-0.3-1-0.8-1.9-1.5-2.7l0,0
	C217.5,88.9,218.7,89.1,218.9,88C218.8,88,218.9,88,218.9,88z"/>
<path class="st1" d="M214.4,85.5c0.3,1,0.8,1.9,1.5,2.7l0,0c-0.2,0-1.4-0.1-1.5,0.9l0,0c-0.3-1-0.8-1.9-1.5-2.7l0,0
	C213.1,86.4,214.2,86.5,214.4,85.5L214.4,85.5z"/>
<path class="st1" d="M210,82.9c0.3,1,0.8,1.9,1.5,2.7l0,0c-0.2,0-1.4-0.2-1.5,0.9l0,0c-0.3-1-0.8-1.9-1.5-2.7l0,0
	C208.7,83.8,209.8,84,210,82.9L210,82.9z"/>
<path class="st1" d="M205.6,80.4c0.2,1,0.8,1.9,1.5,2.7l0,0c-0.2,0-1.4-0.2-1.5,0.9l0,0c-0.2-1-0.8-1.9-1.5-2.7l0,0
	C204.3,81.2,205.4,81.4,205.6,80.4C205.5,80.3,205.6,80.4,205.6,80.4z"/>
<path class="st1" d="M201.1,77.8c0.3,1,0.8,1.9,1.5,2.7l0,0c-0.2,0-1.4-0.1-1.5,0.9l0,0c-0.2-1-0.8-1.9-1.5-2.7l0,0
	C199.8,78.7,201,78.9,201.1,77.8L201.1,77.8z"/>
<path class="st1" d="M196.7,75.2c0.3,1,0.8,1.9,1.5,2.7l0,0c-0.2,0-1.4-0.2-1.5,0.9l0,0c-0.3-1-0.8-1.9-1.5-2.7l0,0
	C195.4,76.1,196.5,76.3,196.7,75.2L196.7,75.2z"/>
<path class="st1" d="M192.3,72.7c0.3,1,0.8,1.9,1.5,2.7l0,0c-0.2,0-1.4-0.1-1.5,0.9l0,0c-0.3-1-0.8-1.9-1.5-2.7l0,0
	C190.9,73.6,192.1,73.8,192.3,72.7L192.3,72.7z"/>
<path class="st1" d="M187.9,65c0.3,1,0.8,1.9,1.5,2.7l0,0c-0.2,0-1.4-0.2-1.5,0.9l0,0c-0.3-1-0.8-1.9-1.5-2.7l0,0
	C186.5,65.9,187.7,66.1,187.9,65C187.8,65,187.9,65,187.9,65z"/>
<path class="st1" d="M183.4,62.5c0.2,1,0.8,1.9,1.5,2.7l0,0c-0.2,0-1.4-0.1-1.5,0.9l0,0c-0.3-1-0.8-1.9-1.5-2.7l0,0
	C182.1,63.3,183.3,63.5,183.4,62.5z"/>
<path class="st1" d="M179,59.9c0.3,1,0.8,1.9,1.5,2.7l0,0c-0.2,0-1.4-0.2-1.5,0.9l0,0c-0.3-1-0.8-1.9-1.5-2.7l0,0
	C177.7,60.8,178.8,60.9,179,59.9L179,59.9z"/>
<path class="st1" d="M174.6,57.3c0.2,1,0.8,1.9,1.5,2.7l0,0c-0.2,0-1.4-0.2-1.5,0.9l0,0c-0.2-1-0.8-1.9-1.5-2.7l0,0
	C173.3,58.2,174.4,58.4,174.6,57.3C174.5,57.3,174.6,57.3,174.6,57.3z"/>
<path class="st1" d="M170.1,54.8c0.3,1,0.8,1.9,1.5,2.7l0,0c-0.2,0-1.4-0.2-1.5,0.9l0,0c-0.3-1-0.8-1.9-1.5-2.7l0,0
	C168.8,55.7,170,55.8,170.1,54.8L170.1,54.8z"/>
<path class="st1" d="M165.7,52.2c0.3,1,0.8,1.9,1.5,2.7l0,0c-0.2,0-1.4-0.2-1.5,0.9l0,0c-0.3-1-0.8-1.9-1.5-2.7l0,0
	C164.4,53.1,165.5,53.3,165.7,52.2L165.7,52.2z"/>
<path class="st1" d="M161.3,49.7c0.2,1,0.8,1.9,1.5,2.7l0,0c-0.2,0-1.4-0.2-1.5,0.9l0,0c-0.3-1-0.8-1.9-1.5-2.7l0,0
	C160,50.6,161.1,50.7,161.3,49.7C161.3,49.6,161.3,49.6,161.3,49.7z"/>
<path class="st1" d="M156.9,47.1c0.2,1,0.8,1.9,1.5,2.7l0,0c-0.2,0-1.4-0.2-1.5,0.9l0,0c-0.3-1-0.8-1.9-1.5-2.7l0,0
	C155.5,48,156.7,48.1,156.9,47.1C156.8,47.1,156.9,47.1,156.9,47.1z"/>
<path class="st1" d="M152.4,44.6c0.3,1,0.8,1.9,1.5,2.7l0,0c-0.2,0-1.4-0.2-1.5,0.9l0,0c-0.3-1-0.8-1.9-1.5-2.7l0,0
	C151.1,45.5,152.3,45.6,152.4,44.6C152.4,44.5,152.4,44.5,152.4,44.6z"/>
<path class="st1" d="M148,42c0.3,1,0.8,1.9,1.5,2.7l0,0c-0.2,0-1.4-0.2-1.5,0.9l0,0c-0.3-1-0.8-1.9-1.5-2.7l0,0
	C146.7,42.9,147.8,43,148,42L148,42z"/>
<path class="st1" d="M232.1,90.6c0.3,1,0.8,1.9,1.5,2.6l0,0c-0.2,0-1.4-0.1-1.5,0.9l0,0c-0.3-1-0.8-1.9-1.5-2.6l0,0
	C230.8,91.5,232,91.6,232.1,90.6L232.1,90.6z"/>
<path class="st1" d="M227.7,88c0.2,1,0.8,1.9,1.5,2.6l0,0c-0.2,0-1.4-0.1-1.5,0.9l0,0c-0.3-1-0.8-1.9-1.5-2.7l0,0
	C226.4,88.9,227.5,89.1,227.7,88L227.7,88z"/>
<path class="st1" d="M223.3,85.5c0.3,1,0.8,1.9,1.5,2.7l0,0c-0.2,0-1.4-0.2-1.5,0.9l0,0c-0.2-1-0.8-1.9-1.5-2.7l0,0
	C222,86.4,223.1,86.5,223.3,85.5C223.3,85.4,223.3,85.4,223.3,85.5z"/>
<path class="st1" d="M218.9,82.9c0.3,1,0.8,1.9,1.5,2.6l0,0c-0.2,0-1.4-0.1-1.5,0.9l0,0c-0.3-1-0.8-1.9-1.5-2.6l0,0
	C217.5,83.8,218.7,83.9,218.9,82.9C218.8,82.9,218.9,82.9,218.9,82.9z"/>
<path class="st1" d="M214.4,80.4c0.3,1,0.8,1.9,1.5,2.6l0,0c-0.2,0-1.4-0.1-1.5,0.9l0,0c-0.3-1-0.8-1.9-1.6-2.7l0,0
	C213.1,81.2,214.2,81.4,214.4,80.4C214.4,80.3,214.4,80.3,214.4,80.4z"/>
<path class="st1" d="M210,77.8c0.3,1,0.8,1.9,1.5,2.7l0,0c-0.2,0-1.4-0.1-1.5,0.9l0,0c-0.3-1-0.8-1.9-1.5-2.7l0,0
	C208.7,78.7,209.8,78.8,210,77.8L210,77.8z"/>
<path class="st1" d="M205.6,75.2c0.2,1,0.8,1.9,1.5,2.7l0,0c-0.2,0-1.4-0.2-1.5,0.9l0,0c-0.3-1-0.8-1.9-1.5-2.7l0,0
	C204.2,76.1,205.4,76.3,205.6,75.2C205.5,75.2,205.6,75.2,205.6,75.2z"/>
<path class="st1" d="M201.1,72.7c0.3,1,0.8,1.9,1.5,2.7l0,0c-0.2,0-1.4-0.2-1.5,0.9l0,0c-0.2-1-0.8-1.9-1.5-2.7l0,0
	C199.8,73.6,201,73.7,201.1,72.7C201.1,72.6,201.1,72.7,201.1,72.7z"/>
<path class="st1" d="M196.7,70.1c0.3,1,0.8,1.9,1.5,2.7l0,0c-0.2,0-1.4-0.1-1.5,0.9l0,0c-0.3-1-0.8-1.9-1.5-2.7l0,0
	C195.4,71,196.5,71.2,196.7,70.1L196.7,70.1z"/>
<path class="st1" d="M192.3,67.6c0.3,1,0.8,1.9,1.5,2.7l0,0c-0.2,0-1.4-0.2-1.5,0.9l0,0c-0.3-1-0.8-1.9-1.5-2.7l0,0
	C190.9,68.5,192.1,68.6,192.3,67.6C192.3,67.5,192.3,67.6,192.3,67.6z"/>
<path class="st1" d="M143.6,44.6c0.2,1,0.8,1.9,1.5,2.7l0,0c-0.2,0-1.4-0.2-1.5,0.9l0,0c-0.2-1-0.7-1.9-1.5-2.6l0,0
	C142.3,45.5,143.4,45.6,143.6,44.6C143.5,44.5,143.6,44.6,143.6,44.6z"/>
<path class="st1" d="M139.1,42c0.3,1,0.8,1.9,1.5,2.7l0,0c-0.2,0-1.4-0.2-1.5,0.9l0,0c-0.3-1-0.8-1.9-1.5-2.7l0,0
	C137.8,42.9,139,43.1,139.1,42L139.1,42z"/>
<path class="st1" d="M134.7,39.5c0.3,1,0.8,1.9,1.5,2.7l0,0c-0.2,0-1.4-0.2-1.5,0.9l0,0c-0.3-1-0.8-1.9-1.5-2.7l0,0
	C133.4,40.4,134.6,40.5,134.7,39.5C134.7,39.4,134.7,39.5,134.7,39.5z"/>
<path class="st1" d="M130.3,36.9c0.3,1,0.8,1.9,1.5,2.7l0,0c-0.2,0-1.4-0.2-1.5,0.9l0,0c-0.3-1-0.8-1.9-1.5-2.7l0,0
	C129,37.8,130.1,38,130.3,36.9L130.3,36.9z"/>
<path class="st1" d="M143.6,39.5c0.2,1,0.8,1.9,1.5,2.7l0,0c-0.2,0-1.4-0.2-1.5,0.9l0,0c-0.2-1-0.7-1.9-1.5-2.7l0,0
	C142.3,40.3,143.4,40.5,143.6,39.5C143.5,39.4,143.6,39.4,143.6,39.5z"/>
<path class="st1" d="M139.1,36.9c0.3,1,0.8,1.9,1.5,2.7l0,0c-0.2,0-1.4-0.2-1.5,0.9l0,0c-0.3-1-0.8-1.9-1.5-2.7l0,0
	C137.8,37.8,139,37.9,139.1,36.9L139.1,36.9z"/>
<path class="st1" d="M134.7,34.3c0.2,1,0.8,1.9,1.5,2.7l0,0c-0.2,0-1.4-0.2-1.5,0.9l0,0c-0.3-1-0.8-1.9-1.6-2.7l0,0
	C133.4,35.2,134.5,35.4,134.7,34.3L134.7,34.3z"/>
<path class="st1" d="M130.3,31.8c0.3,1,0.8,1.9,1.5,2.7l0,0c-0.2,0-1.4-0.2-1.5,0.9l0,0c-0.3-1-0.8-1.9-1.5-2.7l0,0
	C129,32.7,130.1,32.8,130.3,31.8C130.3,31.7,130.3,31.8,130.3,31.8z"/>
<polygon class="st0" points="150.1,77.6 126.2,63.9 126.2,54.3 150.1,68 "/>
<path class="st1" d="M150.6,78.7l-25-14.4v-11l25,14.4V78.7z M126.8,63.5l22.6,13.1v-8.2l-22.6-13.1L126.8,63.5z"/>
<polygon class="st0" points="122.5,100.9 106.9,91.9 106.9,88 122.5,97 "/>
<path class="st1" d="M123.1,101.9l-16.8-9.7V87l16.8,9.7C123.1,96.7,123.1,101.9,123.1,101.9z M107.5,91.6l14.4,8.3v-2.5L107.5,89
	V91.6z"/>
<polygon class="st0" points="150.2,116.9 126.2,103.1 126.2,99.2 150.2,113 "/>
<path class="st1" d="M150.8,117.9l-25.1-14.5v-5.2l25.1,14.5V117.9z M126.8,102.7l22.8,13.2v-2.5l-22.8-13.1V102.7z"/>
<polygon class="st2" points="150.2,108.8 106.9,83.8 106.9,74.2 150.2,99.2 "/>
<path class="st1" d="M150.8,109.8l-44.4-25.7V73.2l44.4,25.6V109.8z M107.5,83.4l42.1,24.3v-8.2l-42.1-24.3
	C107.5,75.2,107.5,83.4,107.5,83.4z"/>
<polygon class="st0" points="150.1,94.7 106.9,69.8 106.9,65.6 150.1,90.5 "/>
<path class="st1" d="M150.6,95.7l-44.3-25.6v-5.5l44.3,25.6V95.7z M107.5,69.5l41.9,24.2v-2.8l-41.9-24.2
	C107.5,66.7,107.5,69.5,107.5,69.5z"/>
<polygon class="st0" points="150.1,86.1 126.2,72.3 126.2,68 150.1,81.8 "/>
<path class="st1" d="M150.6,87.1l-25-14.4V67l25,14.4V87.1z M126.8,72l22.7,13v-2.9L126.9,69L126.8,72z"/>
<polygon class="st2" points="106.9,61.2 122.5,70.2 122.5,52.2 106.9,43.1 "/>
<path class="st1" d="M123.1,71.2l-16.8-9.7V42.1l16.8,9.7C123.1,51.8,123.1,71.2,123.1,71.2z M107.5,60.9l14.4,8.3V52.5l-14.4-8.3
	V60.9z"/>
<polygon class="st0" points="175.9,131.9 158.1,121.7 158.1,116.5 175.9,126.8 "/>
<path class="st1" d="M176.5,133l-19-11v-6.6l18.9,10.9v6.7H176.5z M158.7,121.4l16.6,9.6v-3.8l-16.6-9.6V121.4z"/>
<polygon class="st0" points="158.1,103.9 228.1,144.1 228.1,134.2 158.1,94 "/>
<path class="st1" d="M228.7,145.1l-71.2-40.8V93l71.2,40.8V145.1z M158.7,103.6l68.8,39.5v-8.5l-68.8-39.5V103.6z"/>
<polygon class="st2" points="158.1,111.3 228.1,151.5 228.1,147.9 158.1,107.8 "/>
<path class="st1" d="M228.7,152.5l-71.2-40.8v-4.9l71.2,40.8V152.5z M158.7,111l68.8,39.5v-2.2l-68.8-39.5V111z"/>
<rect x="199.2" y="51.2" transform="matrix(0.5 -0.866 0.866 0.5 50.767 201.3753)" class="st1" width="1.2" height="11.1"/>
<rect x="225" y="51.9" transform="matrix(0.5 -0.866 0.866 0.5 50.726 231.1569)" class="st1" width="1.2" height="39.5"/>
<path class="st1" d="M246.8,221.6l-0.6-1l6.5-4c1.4-0.9,2.2-2.4,2.2-4v-25.9h1.2v25.9c0,2-1.1,3.9-2.8,5L246.8,221.6z"/>
<path class="st0" d="M226.6,161.9l-43.7-25.2c-1.4-1-2.2-2.6-2.2-4.3l0,0c0-1.6,1-2.4,2.2-1.7l43.7,25.2c1.4,1,2.2,2.6,2.2,4.2l0,0
	C228.8,161.9,227.8,162.6,226.6,161.9z"/>
<path class="st1" d="M227.5,162.8c-0.4,0-0.8-0.1-1.2-0.3l-43.7-25.2c-1.6-1.1-2.5-2.9-2.5-4.8c-0.1-0.9,0.3-1.8,1.1-2.3
	c0.6-0.3,1.4-0.3,2,0.1l43.7,25.2c1.6,1.1,2.5,2.9,2.5,4.8c0.1,0.9-0.3,1.8-1.1,2.3C228,162.7,227.8,162.8,227.5,162.8z
	 M182.1,131.1c-0.1,0-0.2,0-0.3,0.1c-0.4,0.3-0.5,0.8-0.5,1.3c0,1.5,0.7,2.9,1.9,3.8l43.7,25.2c0.3,0.2,0.6,0.2,0.9,0.1
	c0.4-0.3,0.5-0.8,0.5-1.3c0-1.5-0.7-2.9-1.9-3.7l-43.7-25.2C182.5,131.2,182.3,131.1,182.1,131.1z"/>
<path class="st0" d="M222.6,157.5l-21.5,12.4c-8.3,4.8-14.5,12.4-17.5,21.4l-7.7,23.1c-4,12-12.3,22.1-23.3,28.4l-17.5,10L101.4,233
	l17.8-10.3c10.7-6.2,18.9-16.1,22.9-27.9l8.1-23.7c3.1-8.8,9.2-16.3,17.3-21l20.8-12.1L222.6,157.5z"/>
<path class="st1" d="M135.1,253.5l-35-20.6l18.7-10.8c10.6-6.2,18.7-16,22.7-27.6l8.1-23.7c3.1-9,9.3-16.6,17.5-21.4l21-12.2
	l35.6,20.2l-22.4,12.9c-8.1,4.7-14.2,12.2-17.2,21.1l-7.7,23.1c-4.1,12.2-12.4,22.4-23.5,28.7L135.1,253.5z M102.5,233l32.6,19.2
	l17.1-9.8c10.9-6.2,19-16.2,23-28.1l7.8-23.2c3.1-9.2,9.4-16.9,17.8-21.8l20.6-11.9l-33.2-18.9l-20.5,11.9c-8,4.6-14,12-17,20.7
	l-8.1,23.7c-4.1,11.9-12.3,21.9-23.2,28.2L102.5,233z"/>
<path class="st0" d="M126.9,231.3c3.1-1.3,6.6-1.1,9.4,0.6c2.5,1.7,2.4,4.1-0.4,5.4c-3.1,1.3-6.6,1.1-9.4-0.6
	C124,235.1,124.1,232.6,126.9,231.3z"/>
<path class="st2" d="M125.2,230.4c3.1-1.3,6.6-1.1,9.4,0.6c2.5,1.7,2.3,4.1-0.4,5.4c-3.1,1.3-6.6,1.1-9.4-0.6
	C122.4,234.2,122.5,231.8,125.2,230.4z"/>
<path class="st1" d="M126.1,237.2c-1.7-0.7-2.5-2.8-1.8-4.5c0.4-0.9,1.2-1.7,2.2-1.9l0,0c3.3-1.4,7.2-1.2,10.3,0.7
	c1.7,0.8,2.5,2.8,1.7,4.5c-0.4,0.9-1.2,1.6-2.2,1.9c-1.4,0.6-2.9,0.9-4.4,0.9C129.9,238.9,127.8,238.3,126.1,237.2z M126.9,231.6
	L126.9,231.6c-1.4,0.3-2.2,1.7-1.9,3.1c0.2,0.8,0.8,1.5,1.6,1.8c2.9,1.7,6.4,1.9,9.4,0.6c1.4-0.3,2.3-1.7,1.9-3.1
	c-0.2-0.8-0.8-1.5-1.6-1.8c-1.6-1-3.5-1.5-5.4-1.5C129.5,230.7,128.1,231,126.9,231.6L126.9,231.6z"/>
<path class="st0" d="M132.1,232.3l0.5,2c0,0.2,0,0.3-0.1,0.4c-0.4,0.3-0.8,0.4-1.2,0.3l-3.5-0.6c-0.4-0.1-0.7-0.3-0.6-0.6l0,0
	c0.1-0.2,0.5-0.4,0.9-0.3l2.9,0.5l-0.4-1.7c-0.1-0.2,0.2-0.5,0.7-0.5l0,0C131.6,231.9,132.1,232,132.1,232.3z"/>
<path class="st1" d="M133.1,232.9l0.5,2c0,0.2,0,0.3-0.1,0.4c-0.4,0.3-0.8,0.4-1.2,0.3l-3.5-0.6c-0.4-0.1-0.7-0.3-0.6-0.6l0,0
	c0.1-0.2,0.5-0.4,0.9-0.3l2.9,0.5l-0.4-1.7c-0.1-0.2,0.2-0.5,0.7-0.5l0,0C132.6,232.5,133,232.7,133.1,232.9z"/>
<path class="st1" d="M140.1,236.5c0.7-1.4,0.5-3-0.4-4.2l-0.7,0.5c0.8,0.9,0.9,2.2,0.4,3.3L140.1,236.5z"/>
<path class="st1" d="M137.9,238.6c0.6-0.3,1.2-0.8,1.7-1.3l-0.6-0.6c-0.4,0.4-0.9,0.8-1.4,1.1L137.9,238.6z"/>
<polygon class="st2" points="203.3,164.4 183.4,153 186.5,151.2 206.4,162.6 "/>
<path class="st1" d="M203.3,165.1L182.2,153l4.2-2.4l21.1,12.1L203.3,165.1z M184.6,153l18.7,10.7l1.9-1.1l-18.7-10.7L184.6,153z"/>
<polygon class="st2" points="209.3,160.9 182.4,145.4 185.5,143.6 212.4,159.1 "/>
<path class="st1" d="M209.3,161.6l-0.3-0.2l-27.8-16l4.2-2.4l0.3,0.2l27.8,16L209.3,161.6z M183.6,145.4l25.7,14.8l1.9-1.1
	l-25.7-14.8L183.6,145.4z"/>
<polygon class="st2" points="197.4,168 184.8,160.8 187.8,159.1 200.4,166.2 "/>
<path class="st1" d="M197.4,168.7l-13.8-7.8l4.2-2.4l13.8,7.8L197.4,168.7z M185.9,160.8l11.4,6.5l1.9-1.1l-11.4-6.5L185.9,160.8z"
	/>
<path class="st2" d="M172.7,164.6c-0.7,0.8-1.4,1.5-2.1,2.3l16.2,9.1c0.7-0.8,1.4-1.6,2.1-2.3L172.7,164.6z"/>
<path class="st1" d="M186.9,176.9l-17.2-9.7l0.5-0.5c0.6-0.8,1.3-1.6,2.1-2.4l0.3-0.3l17.3,9.8l-0.5,0.6c-0.7,0.7-1.4,1.5-2.1,2.3
	L186.9,176.9z M171.5,166.8l15.1,8.6c0.4-0.5,0.9-1,1.3-1.4l-15.1-8.6C172.3,165.8,171.9,166.3,171.5,166.8z"/>
<path class="st2" d="M166.8,173.4l16.1,9.1c0.5-0.9,1-1.8,1.6-2.6l-16.1-9.1C167.8,171.6,167.2,172.5,166.8,173.4z"/>
<path class="st1" d="M183.1,183.2l-17.1-9.7l0.3-0.5c0.5-0.9,1-1.8,1.6-2.7l0.3-0.5l17.1,9.7l-0.4,0.5c-0.6,0.8-1.1,1.7-1.6,2.6
	L183.1,183.2z M167.6,173.1l15.1,8.5c0.3-0.5,0.6-1.1,1-1.6l-15.1-8.5C168.2,172.1,167.9,172.6,167.6,173.1z"/>
<path class="st2" d="M162.1,158.6c-0.7,0.8-1.4,1.5-2.1,2.3l2.9,1.8c0.7-0.8,1.4-1.6,2.1-2.3L162.1,158.6z"/>
<path class="st1" d="M163.1,163.4l-3.9-2.4l0.4-0.5c0.6-0.8,1.3-1.6,2.1-2.4l0.3-0.3l3.9,2.4l-0.5,0.5c-0.7,0.7-1.4,1.5-2.1,2.3
	L163.1,163.4z M161,160.8l1.9,1.1c0.4-0.5,0.9-1,1.3-1.4l-1.9-1.1C161.7,159.8,161.3,160.3,161,160.8L161,160.8z"/>
<path class="st2" d="M156.2,167.3l2.8,1.7c0.5-0.9,1-1.8,1.6-2.6l-2.8-1.7C157.2,165.6,156.7,166.4,156.2,167.3z"/>
<path class="st1" d="M159.2,169.9l-3.8-2.3l0.3-0.5c0.5-0.9,1-1.8,1.6-2.7l0.3-0.5l3.8,2.3l-0.3,0.5c-0.6,0.8-1.1,1.7-1.6,2.6
	L159.2,169.9z M157,167.1l1.8,1.1c0.3-0.5,0.6-1.1,1-1.6l-1.8-1.1C157.6,166,157.3,166.6,157,167.1z"/>
<polygon class="st2" points="160.6,189.9 176.2,198.9 177.2,195.9 161.7,187 "/>
<path class="st1" d="M176.5,199.8l-16.6-9.5l1.4-4.1l16.6,9.6L176.5,199.8z M161.4,189.7l14.5,8.4l0.6-1.8l-14.5-8.4L161.4,189.7z"
	/>
<polygon class="st2" points="158.4,197.1 173.9,206.1 174.9,203.1 159.4,194.1 "/>
<path class="st1" d="M174.3,206.9l-16.6-9.6l1.4-4.1l16.6,9.6L174.3,206.9z M159.1,196.8l14.5,8.4l0.6-1.8l-14.5-8.4L159.1,196.8z"
	/>
<polygon class="st2" points="155.9,203.8 171.4,212.8 172.4,209.8 156.9,200.9 "/>
<path class="st1" d="M171.8,213.7l-16.6-9.6l1.4-4.1l16.6,9.6L171.8,213.7z M156.6,203.6l14.5,8.4l0.6-1.8l-14.5-8.4L156.6,203.6z"
	/>
<polygon class="st2" points="150.7,184.2 153.6,186 154.6,183.1 151.7,181.2 "/>
<path class="st1" d="M154,186.9l-4-2.5l1.4-4.1l4,2.5L154,186.9z M151.4,183.9l1.9,1.2l0.6-1.8l-1.9-1.2L151.4,183.9z"/>
<polygon class="st2" points="148.4,191.3 151.3,193.2 152.3,190.2 149.4,188.4 "/>
<path class="st1" d="M151.7,194.1l-4-2.5l1.4-4.1l4,2.5L151.7,194.1z M149.1,191.1l1.9,1.2l0.6-1.8l-1.9-1.2L149.1,191.1z"/>
<polygon class="st2" points="145.9,198.1 148.8,199.9 149.8,196.9 146.9,195.1 "/>
<path class="st1" d="M149.1,200.8l-4-2.5l1.4-4.1l4,2.5L149.1,200.8z M146.6,197.8l1.9,1.2l0.6-1.8l-1.9-1.2L146.6,197.8z"/>
<rect x="149.9" y="200.8" transform="matrix(0.511 -0.8596 0.8596 0.511 -115.8205 237.1352)" class="st1" width="1.2" height="39.2"/>
<rect x="142.3" y="210.1" transform="matrix(0.511 -0.8596 0.8596 0.511 -120.4648 231.0911)" class="st1" width="1.2" height="22.6"/>
<rect x="166.2" y="161.7" transform="matrix(0.511 -0.8596 0.8596 0.511 -74.2362 232.0378)" class="st1" width="1.2" height="39.2"/>
<rect x="139.4" y="212.9" transform="matrix(0.511 -0.8596 0.8596 0.511 -124.2359 229.9637)" class="st1" width="1.2" height="22.6"/>
<rect x="152.5" y="196.7" transform="matrix(0.511 -0.8596 0.8596 0.511 -103.9082 233.2831)" class="st1" width="1.2" height="22.6"/>
<path class="st2" d="M164.3,87.4c-0.9-0.1-1.8-0.4-2.6-0.9c-1.2-0.7-2.3-1.6-3.3-2.7l-0.1-0.1v-3.6l0.6,0.6c0.6,0.7,1.2,1.3,1.9,1.9
	c0.4,0.4,0.9,0.7,1.4,1c0.6,0.3,0.9,0.3,1,0.3s0.2-0.3,0.2-0.5s-0.1-0.4-0.1-0.6c-0.1-0.3-0.3-0.6-0.5-0.8c-0.2-0.3-0.7-0.9-1.4-1.7
	c-0.6-0.6-1.1-1.3-1.6-2c-0.3-0.5-0.6-1.1-0.9-1.7c-0.2-0.6-0.3-1.2-0.3-1.9c0-1.3,0.4-2.1,1.2-2.4s1.8-0.1,3.1,0.7
	c0.6,0.4,1.2,0.8,1.7,1.2c0.6,0.5,1.2,1.1,1.7,1.7l0.1,0.2l-1.1,2.4l-0.3-0.4c-0.5-0.5-0.9-1-1.5-1.4c-0.3-0.3-0.7-0.6-1.1-0.8
	c-0.5-0.3-0.7-0.2-0.7-0.2c-0.1,0-0.1,0.2-0.1,0.4c0,0.2,0,0.4,0.1,0.6c0.1,0.3,0.2,0.5,0.4,0.7c0.2,0.3,0.7,0.9,1.5,1.8
	c0.9,0.9,1.6,1.9,2.2,3.1c0.4,0.8,0.6,1.7,0.6,2.6c0,1.3-0.4,2.2-1.3,2.5C164.8,87.4,164.5,87.4,164.3,87.4z M159,83.5
	c0.9,1,1.9,1.8,3,2.4c0.8,0.6,1.8,0.9,2.8,0.7c0.2-0.1,0.9-0.3,0.9-1.8c0-0.8-0.2-1.6-0.5-2.3c-0.6-1.1-1.3-2-2.1-2.9
	s-1.3-1.5-1.5-1.8s-0.4-0.6-0.5-0.9s-0.2-0.6-0.2-0.8c0-0.4,0.2-0.8,0.6-1c0.5-0.1,1,0,1.3,0.2c0.4,0.3,0.8,0.5,1.2,0.9
	c0.3,0.3,0.7,0.7,1.2,1.1l0.5-1c-0.5-0.5-1-1-1.5-1.4s-1-0.8-1.6-1.2c-0.7-0.5-1.6-0.8-2.5-0.6c-0.5,0.2-0.8,0.8-0.8,1.8
	c0,0.6,0.1,1.1,0.3,1.7s0.5,1.1,0.8,1.6c0.5,0.7,1,1.3,1.5,1.9c0.8,0.8,1.2,1.4,1.5,1.7c0.2,0.3,0.4,0.6,0.6,1
	c0.1,0.3,0.2,0.6,0.2,0.9c0,0.8-0.4,1-0.7,1.1c-0.5,0.1-1-0.1-1.5-0.4s-1-0.7-1.5-1.1c-0.4-0.3-0.9-0.8-1.4-1.3L159,83.5z"/>
<path class="st2" d="M173.2,92.6h-0.4c-0.8-0.1-1.6-0.4-2.3-0.8c-0.9-0.5-1.7-1.2-2.2-2.1s-0.7-2-0.7-3V82l-1.1-0.7v-1.6l1.4-0.2
	l0.8-1.9l2,1.2V81l2.4,1.4v2.8l-2.4-1.4V88c0,0.3,0.1,0.6,0.2,0.8c0.2,0.2,0.4,0.4,0.6,0.6l0,0c0.4,0.2,0.9,0.4,1.4,0.5l0.3,0.1
	V92.6z M167.3,81l1.1,0.7v5c0,0.9,0.2,1.8,0.7,2.6c0.5,0.8,1.1,1.4,1.9,1.9c0.5,0.3,1.1,0.5,1.6,0.7v-1.4c-0.5-0.1-0.9-0.3-1.3-0.5
	c-0.3-0.2-0.6-0.5-0.9-0.8c-0.2-0.4-0.3-0.8-0.3-1.2v-5.4l2.4,1.4v-1.2l-2.4-1.4v-2.1l-1-0.6l-0.6,1.5l-1.2,0.2V81z"/>
<path class="st2" d="M177.3,95.4l-3-1.7V83l2.4,1.4l0.3,1.5c0.3-0.2,0.6-0.4,0.9-0.4c0.6-0.1,1.2,0.1,1.7,0.4l0,0
	c0.3,0.2,0.6,0.4,0.8,0.6l0.1,0.1l-0.2,3.3l-0.5-0.5c-0.2-0.2-0.4-0.3-0.6-0.4c-0.6-0.4-1.1-0.5-1.4-0.3s-0.4,0.5-0.4,1.2
	L177.3,95.4z M175,93.3l1.7,1v-4.4c0-0.9,0.3-1.6,0.8-1.8c0.7-0.2,1.5-0.1,2.1,0.4l0.2,0.1l0.1-1.6c-0.2-0.1-0.4-0.3-0.6-0.4l0,0
	c-0.4-0.2-0.8-0.3-1.2-0.3c-0.4,0.1-0.7,0.3-0.9,0.6L177,87l-0.5-0.3l-0.3-1.9l-1.1-0.6L175,93.3z"/>
<path class="st2" d="M189.2,102.3l-2.3-1.3l-0.4-1.3c-0.3,0.2-0.7,0.3-1.1,0.3c-0.6-0.1-1.2-0.3-1.8-0.6c-1.8-1-2.9-2.9-2.8-5
	c0-1.5,0.7-2,1.2-2.1c1.1-0.1,2.2,0.2,3.1,0.9l1,0.5c0-0.8-0.5-1.5-1.2-1.8c-0.7-0.4-1.5-0.6-2.3-0.6h-0.2l-1-2.9h0.5
	c1.2,0,2.4,0.4,3.5,1s2.1,1.5,2.8,2.5s1,2.2,1,3.4V102.3z M187.5,100.5l1,0.6v-6c0-1.1-0.3-2.1-0.9-3c-0.7-1-1.5-1.7-2.5-2.3
	c-0.8-0.5-1.7-0.8-2.6-0.9l0.5,1.6c0.8,0.1,1.6,0.3,2.3,0.7c1,0.5,1.5,1.5,1.5,2.6v1l-2-1.1c-0.8-0.5-1.7-0.8-2.6-0.8
	c-0.2,0-0.7,0.1-0.7,1.4c0,0.9,0.2,1.8,0.7,2.6c0.4,0.8,1.1,1.4,1.8,1.8c0.4,0.3,0.9,0.5,1.5,0.6c0.4,0,0.7-0.1,1-0.4l0.2-0.2
	l0.3,0.2l0.1,0.2L187.5,100.5z M185.7,98.2c-0.4,0-0.8-0.1-1.1-0.4c-0.8-0.4-1.3-1.2-1.3-2.1s0.5-1.2,0.8-1.2c0.6,0,1.2,0.1,1.7,0.5
	l1.1,0.6v1c0.1,0.6-0.2,1.1-0.7,1.4C186,98.1,185.8,98.2,185.7,98.2L185.7,98.2z M184.3,95.2h-0.1c-0.1,0-0.2,0.1-0.2,0.6
	c0,0.7,0.4,1.2,1,1.5c0.3,0.2,0.7,0.4,1,0.2s0.3-0.4,0.3-0.9V96l-0.7-0.4C185.1,95.3,184.7,95.2,184.3,95.2L184.3,95.2z"/>
<path class="st2" d="M196.7,106.1h-0.4c-0.8-0.1-1.6-0.4-2.3-0.9c-0.9-0.5-1.7-1.2-2.2-2.1s-0.7-2-0.7-3v-4.6l-1.1-0.6v-1.6l1.4-0.2
	l0.8-1.9l2,1.2v2.1l2.4,1.4v2.8l-2.4-1.4v4.2c0,0.3,0.1,0.6,0.2,0.8c0.2,0.2,0.4,0.4,0.6,0.6l0,0c0.4,0.2,0.9,0.4,1.4,0.5l0.3,0.1
	V106.1z M190.7,94.5l1.1,0.6v5c0,0.9,0.2,1.8,0.6,2.7c0.4,0.8,1.1,1.4,1.9,1.9c0.5,0.3,1.1,0.5,1.6,0.7V104
	c-0.5-0.1-0.9-0.3-1.3-0.5l0,0c-0.3-0.2-0.6-0.5-0.9-0.8c-0.2-0.4-0.3-0.8-0.3-1.2v-5.4l2.4,1.4v-1.3l-2.4-1.4v-2.1l-1-0.6l-0.6,1.5
	l-1.2,0.1L190.7,94.5z"/>
<path class="st2" d="M205.3,110.8H205c-0.5,0-1-0.1-1.4-0.2c-0.6-0.2-1.2-0.5-1.8-0.8l0,0c-1.4-0.8-2.5-1.9-3.4-3.3
	c-0.8-1.4-1.2-3-1.2-4.6c0-1.8,0.4-3,1.2-3.5s2-0.4,3.3,0.4c1.3,0.7,2.3,1.7,3,3c0.7,1.2,1.1,2.6,1,4.1v1.9l-5.5-3.2
	c0.1,0.5,0.2,0.9,0.5,1.4c0.3,0.6,0.8,1.1,1.4,1.4c0.4,0.3,0.9,0.5,1.4,0.6c0.4,0.1,0.9,0.2,1.4,0.2h0.3L205.3,110.8z M202.1,109.1
	c0.5,0.3,1.1,0.6,1.6,0.8c0.3,0.1,0.6,0.2,0.9,0.2v-1.4c-0.4,0-0.8-0.1-1.2-0.2c-0.5-0.2-1-0.4-1.5-0.7c-0.7-0.4-1.3-1-1.7-1.7
	s-0.6-1.5-0.6-2.3v-0.6l5.5,3.2v-0.7c0-1.3-0.3-2.6-1-3.7c-0.6-1.1-1.6-2.1-2.7-2.7c-1.1-0.6-2-0.8-2.6-0.4s-0.9,1.4-0.9,3
	c0,1.5,0.4,2.9,1.1,4.2C199.7,107.4,200.8,108.5,202.1,109.1L202.1,109.1z M203.6,104.5l-4-2.3V102c0-0.6,0.2-1.1,0.6-1.5
	c0.5-0.3,1.1-0.2,1.5,0.1c0.6,0.3,1,0.8,1.3,1.4s0.5,1.3,0.5,2L203.6,104.5z M200.3,101.9l2.5,1.5c-0.1-0.4-0.2-0.7-0.4-1
	c-0.2-0.5-0.6-0.8-1-1.1c-0.4-0.2-0.6-0.3-0.8-0.1S200.4,101.3,200.3,101.9L200.3,101.9z"/>
<path class="st2" d="M213.1,119.7c-1.2-0.1-2.4-0.5-3.4-1.2c-1.1-0.6-2.1-1.4-2.9-2.4c-0.6-0.8-1-1.8-1-2.8
	c-0.1-0.6,0.2-1.1,0.6-1.5c0.2-0.2,0.5-0.2,0.8-0.2l0,0l-0.2-0.3c-0.2-0.4-0.3-0.8-0.3-1.2c0-0.4,0.1-0.8,0.4-1.1
	c0.1-0.1,0.3-0.2,0.4-0.2c-0.3-0.4-0.6-0.9-0.8-1.4c-0.3-0.7-0.4-1.4-0.4-2.1c0-1.2,0.4-2,1.1-2.3s1.7-0.1,2.9,0.6
	c0.3,0.2,0.6,0.4,0.9,0.6c0.3,0.2,0.5,0.4,0.6,0.5l3.1,1.8v2l-1.1-0.3c0.1,0.4,0.2,0.8,0.2,1.2c0,1.2-0.4,2-1.2,2.2
	c-1,0.2-2.1,0-3-0.7l-0.6-0.4v0.1c0,0,0.1,0.4,1.1,1l1.5,0.8c0.9,0.5,1.7,1.2,2.3,2.1c0.5,0.8,0.8,1.7,0.8,2.7
	c0,1.7-0.8,2.2-1.5,2.3C213.4,119.6,213.2,119.7,213.1,119.7z M207.3,112.2c-0.2,0-0.3,0-0.5,0.1c-0.3,0.2-0.4,0.6-0.3,0.9
	c0,0.9,0.3,1.7,0.9,2.4c0.7,0.9,1.6,1.7,2.6,2.2c1,0.7,2.2,1.1,3.4,1.1c0.4-0.1,1-0.3,1-1.6c0-0.8-0.2-1.6-0.7-2.3
	c-0.5-0.8-1.2-1.4-2-1.8l-1.5-0.8c-1-0.6-1.5-1.1-1.5-1.6c0-0.4,0.2-0.7,0.6-0.8l0.1-0.1l0.9,0.6c0.7,0.5,1.5,0.7,2.4,0.6
	c0.2-0.1,0.7-0.3,0.7-1.6c0-0.5-0.1-1.1-0.3-1.6l-0.3-0.6l1.6,0.4V107l-2.8-1.6l-0.7-0.5c-0.3-0.2-0.6-0.4-0.8-0.6
	c-0.7-0.5-1.5-0.7-2.3-0.6c-0.5,0.2-0.7,0.7-0.7,1.7c0,0.6,0.1,1.3,0.4,1.9c0.2,0.6,0.6,1.1,1,1.6l0.5,0.5l-0.7,0.1
	c-0.2,0-0.5,0.1-0.6,0.2s-0.2,0.3-0.1,0.5c0,0.3,0.1,0.6,0.2,0.9c0.2,0.3,0.3,0.6,0.6,0.9l0.9,0.9l-1.2-0.4
	C207.8,112.3,207.6,112.2,207.3,112.2z M212,117.5L212,117.5c-1.4-0.2-2.6-0.9-3.5-1.9c-0.3-0.4-0.5-0.9-0.5-1.4
	c-0.1-0.5,0.2-0.9,0.7-1s0.9,0,1.3,0.3l1.2,0.7c0.5,0.3,1,0.6,1.4,1c0.3,0.3,0.5,0.8,0.5,1.2c0,0.3-0.1,0.5-0.3,0.8
	C212.5,117.5,212.3,117.6,212,117.5L212,117.5z M208.8,113.9h-0.1c-0.1,0-0.2,0-0.2,0.3s0.2,0.7,0.4,0.9c0.3,0.4,0.7,0.7,1.2,1
	c0.5,0.4,1.2,0.6,1.8,0.7c0.1,0,0.2,0,0.3-0.1s0.1-0.2,0.1-0.3c0-0.3-0.1-0.6-0.3-0.8c-0.4-0.4-0.8-0.7-1.2-0.9l-1.2-0.7
	C209.3,114,209.1,113.9,208.8,113.9L208.8,113.9z M211,109.7c-0.3,0-0.6-0.1-0.8-0.2c-0.5-0.3-0.9-0.7-1.1-1.2
	c-0.2-0.5-0.4-1.1-0.4-1.6c0-0.8,0.2-1.3,0.6-1.5c0.4-0.2,0.9-0.1,1.2,0.1c1,0.6,1.5,1.7,1.4,2.8c0.1,0.5-0.1,1-0.4,1.4
	C211.4,109.6,211.2,109.7,211,109.7L211,109.7z M209.7,105.7C209.7,105.7,209.6,105.7,209.7,105.7c-0.1,0-0.3,0.3-0.3,0.9
	c0,0.5,0.1,0.9,0.3,1.3s0.5,0.7,0.8,0.9c0.3,0.2,0.5,0.2,0.6,0.1s0.2-0.3,0.2-0.9c0.1-0.9-0.3-1.8-1.1-2.2
	C210,105.8,209.9,105.8,209.7,105.7L209.7,105.7z"/>
<path class="st2" d="M219.4,123.6c-0.7,0-1.3-0.2-1.9-0.6c-0.4-0.3-0.8-0.5-1.2-0.9l-0.1-0.1v-3l0.5,0.5c0.3,0.2,0.6,0.4,0.9,0.6
	c0.2,0.2,0.5,0.2,0.8,0.2c0.3-0.1,0.5-0.4,0.5-0.7l0.1-0.3l-3.6-12.5l3.4,2l1.7,6.6c0,0.1,0,0.1,0,0.2l1.7-4.9l3.1,1.8l-3.7,9.4
	c-0.2,0.8-0.9,1.4-1.6,1.7C219.7,123.6,219.5,123.6,219.4,123.6z M216.8,121.7c0.3,0.3,0.7,0.5,1,0.7c0.6,0.4,1.2,0.6,1.9,0.4
	c0.6-0.2,1-0.7,1.2-1.3l3.5-8.8l-1.9-1.1l-1.5,4.3c-0.2,0.5-0.3,1-0.3,1.4l-0.1,0.5l-0.6-0.4l-0.1-0.2c0-0.6-0.1-1.2-0.3-1.8
	L218,109l-1.7-1l3.2,11.1l-0.2,0.5c-0.1,0.5-0.5,0.9-0.9,1.1c-0.5,0.1-1,0.1-1.4-0.2l-0.4-0.2L216.8,121.7z"/>
<path class="st1" d="M164.8,83.1c0,1.2-0.4,1.9-1.1,2.1s-1.7,0-3-0.7c-1.2-0.7-2.3-1.6-3.2-2.6v-2.6c0.8,0.8,1.4,1.5,1.9,1.9
	c0.4,0.4,0.9,0.8,1.4,1.1c0.3,0.3,0.8,0.4,1.2,0.3c0.3-0.1,0.4-0.3,0.4-0.8c0-0.3-0.1-0.5-0.2-0.8c-0.2-0.3-0.3-0.6-0.5-0.9
	s-0.7-0.9-1.5-1.7c-0.6-0.6-1.1-1.3-1.5-2c-0.3-0.5-0.6-1.1-0.8-1.7s-0.3-1.2-0.3-1.8c0-1.1,0.3-1.9,1-2.1c1-0.2,2,0,2.8,0.6
	c0.6,0.3,1.2,0.7,1.7,1.2s1.1,1,1.7,1.6l-0.8,1.7c-0.6-0.6-1.1-1.1-1.5-1.4s-0.7-0.6-1.2-0.8c-0.3-0.2-0.6-0.3-1-0.2
	c-0.2,0.1-0.4,0.3-0.4,0.7c0,0.2,0,0.5,0.1,0.7c0.1,0.3,0.3,0.5,0.5,0.8s0.7,0.9,1.5,1.8s1.6,1.9,2.2,3
	C164.6,81.4,164.8,82.2,164.8,83.1z"/>
<path class="st1" d="M170.2,87.8c0.5,0.3,1,0.4,1.5,0.5v2c-0.8-0.1-1.5-0.4-2.1-0.8c-0.8-0.5-1.5-1.2-2-2c-0.4-0.9-0.7-1.8-0.6-2.8
	V80l-1.1-0.7v-1.1l1.3-0.2l0.7-1.7l1.5,0.9v2.1l2.4,1.4v2l-2.4-1.4v4.8c0,0.4,0.1,0.7,0.3,1C169.7,87.4,170,87.7,170.2,87.8z"/>
<path class="st1" d="M178.2,84.4c0.3,0.2,0.5,0.3,0.8,0.5l-0.2,2.4c-0.2-0.2-0.4-0.3-0.7-0.5c-0.5-0.4-1.1-0.5-1.8-0.3
	c-0.4,0.2-0.6,0.7-0.6,1.5v5l-2.3-1.4v-9.9l1.8,1l0.4,1.9l0.1,0.1c0.2-0.4,0.6-0.6,1.1-0.7S177.8,84,178.2,84.4z"/>
<path class="st1" d="M186.1,98.9l-0.5-1.6h-0.1c-0.3,0.3-0.8,0.5-1.2,0.5c-0.6-0.1-1.1-0.3-1.6-0.6c-0.8-0.5-1.5-1.1-2-1.9
	s-0.7-1.8-0.7-2.7c0-1.1,0.3-1.6,1-1.8c1,0,2,0.3,2.9,0.8l1.5,0.8V92c0-1-0.5-1.8-1.3-2.3c-0.7-0.4-1.6-0.6-2.4-0.7l-0.8-2.3
	c1.2,0,2.3,0.4,3.3,1c1.1,0.6,2,1.4,2.6,2.4c0.6,0.9,0.9,2,0.9,3.2v6.6L186.1,98.9z M185.4,93.9l-0.9-0.5c-0.4-0.3-1-0.5-1.5-0.4
	c-0.3,0.1-0.5,0.4-0.5,0.9c0,0.8,0.4,1.5,1.1,1.8c0.4,0.3,0.9,0.4,1.3,0.2c0.3-0.2,0.5-0.6,0.5-1.1L185.4,93.9L185.4,93.9z"/>
<path class="st1" d="M193.7,101.4c0.5,0.2,1,0.4,1.5,0.5v2c-1.7-0.3-3.3-1.3-4.2-2.8c-0.4-0.9-0.7-1.8-0.6-2.8v-4.8l-1.1-0.6v-1.1
	l1.3-0.2l0.7-1.7l1.5,0.9v2.1l2.4,1.4v2l-2.4-1.4v4.8c0,0.4,0.1,0.7,0.3,1C193.1,100.9,193.4,101.2,193.7,101.4z"/>
<path class="st1" d="M200.8,107.6c-1.3-0.8-2.5-1.9-3.2-3.2c-0.8-1.3-1.2-2.9-1.2-4.4c0-1.7,0.4-2.7,1.1-3.2s1.7-0.4,3,0.4
	c1.2,0.7,2.2,1.6,2.8,2.8c0.7,1.2,1,2.5,1,3.9v1.4l-5.5-3.2c0,0.8,0.2,1.5,0.6,2.1c0.4,0.6,0.9,1.2,1.5,1.5c0.5,0.3,0.9,0.5,1.5,0.7
	c0.5,0.1,1,0.2,1.4,0.2v2.1c-0.4,0-0.9-0.1-1.3-0.2C201.9,108.3,201.3,108,200.8,107.6z M200.5,99.1c-0.5-0.3-0.9-0.3-1.2-0.1
	c-0.3,0.3-0.5,0.8-0.5,1.3l3.3,1.9c0-0.6-0.2-1.3-0.5-1.8C201.4,99.8,200.9,99.4,200.5,99.1z"/>
<path class="st1" d="M213.6,105v1.4l-1.3-0.4c0.2,0.5,0.4,1.1,0.4,1.7c0,1.1-0.3,1.7-1,1.9c-0.9,0.2-1.9-0.1-2.7-0.6l-0.4-0.3
	l-0.4-0.2c-0.2,0.1-0.4,0.3-0.4,0.5c0,0.4,0.4,0.8,1.3,1.3l1.5,0.9c0.9,0.5,1.6,1.1,2.1,1.9c0.5,0.7,0.7,1.6,0.7,2.5
	c0,1.2-0.4,1.8-1.2,2s-2-0.2-3.6-1.1c-1.1-0.6-2-1.4-2.8-2.3c-0.6-0.7-0.9-1.6-0.9-2.6c-0.1-0.5,0.1-0.9,0.5-1.2
	c0.5-0.2,1-0.2,1.4,0c-0.3-0.3-0.5-0.6-0.6-0.9c-0.2-0.3-0.3-0.7-0.3-1s0.1-0.6,0.3-0.8c0.2-0.2,0.5-0.3,0.8-0.3
	c-0.5-0.5-0.8-1.1-1.1-1.7s-0.4-1.3-0.4-2c0-1.1,0.3-1.7,0.9-2c0.9-0.2,1.9,0.1,2.6,0.6c0.2,0.1,0.5,0.3,0.9,0.6s0.5,0.4,0.6,0.5
	L213.6,105z M207.1,112.4c0,0.4,0.2,0.8,0.5,1.1c0.4,0.4,0.8,0.8,1.3,1.1c0.6,0.4,1.3,0.7,2,0.7c0.3,0.1,0.6-0.2,0.7-0.5
	c0-0.1,0-0.1,0-0.2c0-0.4-0.2-0.7-0.4-1c-0.4-0.4-0.8-0.7-1.3-1l-1.2-0.7c-0.3-0.2-0.7-0.3-1.1-0.3
	C207.2,111.8,207.1,112.1,207.1,112.4z M207.9,104.9c0,0.5,0.1,1,0.3,1.5c0.2,0.4,0.6,0.8,1,1s0.8,0.3,1,0.1
	c0.2-0.3,0.3-0.7,0.3-1.1c0.1-1-0.4-2-1.3-2.5C208.3,103.3,207.9,103.7,207.9,104.9L207.9,104.9z"/>
<path class="st1" d="M214.8,105.6l2.6,1.5l1.6,6.5c0.1,0.6,0.2,1.2,0.3,1.9l0,0c0-0.5,0.1-1,0.3-1.5l1.6-4.7l2.5,1.4l-3.6,9.1
	c-0.2,0.7-0.7,1.3-1.4,1.5c-0.8,0.1-1.5,0-2.2-0.5c-0.4-0.2-0.8-0.5-1.2-0.8v-2.1c0.3,0.2,0.6,0.5,0.9,0.6c0.3,0.2,0.7,0.3,1.1,0.2
	c0.4-0.2,0.6-0.5,0.7-0.9l0.1-0.4L214.8,105.6z"/>
<path class="st0" d="M31.5,43.2c0-0.3-0.1-0.6-0.1-0.9l2.8-2.6c0.1-0.1,0.1-0.2,0-0.2l0,0l-6.5-3.7l-0.5-0.3c-2.2-1.1-5-1.1-8.1,0.3
	C10.6,39.6,3.4,51.4,3.4,61c0,4.4,1.5,7.5,4,9l0,0l7.1,4.1c0.1,0,0.2,0,0.2-0.1l0,0l1.4-2.9l-1.3-0.8c0.9-0.3,1.8-0.8,2.7-1.2
	c0.2-0.1,0.5-0.3,0.7-0.4l0,0c0.7,1.4,0.7,3.9,0.5,6.3c0,0.5,0.1,0.8,0.4,0.9l6.6,3.8c0.1,0,0.2,0,0.2,0l0,0l0.7-1.8L26.3,70h-3.6
	l6.6-15l0,0C30.9,51.3,31.7,47.2,31.5,43.2z"/>
<path class="st1" d="M25.7,80.4c-0.1,0-0.3,0-0.4-0.1l-6.6-3.8c-0.6-0.2-0.9-0.9-0.8-1.5c0.3-1.8,0.2-3.6-0.2-5.4h-0.1
	c-0.5,0.3-1.1,0.6-1.6,0.8l0.8,0.4l-1.7,3.4c-0.1,0.2-0.3,0.3-0.5,0.4s-0.4,0-0.6-0.1l-7.1-4.1c-2.8-1.7-4.3-5.1-4.3-9.6
	c0-9.9,7.5-21.9,16-25.8c3.1-1.4,6.2-1.5,8.6-0.3c0,0,0.4,0.2,0.5,0.3l6.5,3.7c0.2,0.1,0.3,0.3,0.4,0.6c0,0.2-0.1,0.5-0.2,0.6
	l-2.5,2.4c0,0.2,0,0.4,0,0.6l0,0c0.2,4.1-0.6,8.2-2.3,12l-6.2,14.2h3.2l0.3,8.6l-0.7,1.9C26.1,79.8,26,80,25.7,80
	C25.9,80.4,25.8,80.4,25.7,80.4z M18.4,68l0.3,0.6c0.7,1.3,0.9,3.6,0.5,6.6c0,0.1,0,0.2,0,0.3h0.1l6.2,3.6l0.5-1.2l-0.3-7.2h-3.9
	l7-15.8c1.6-3.6,2.4-7.5,2.2-11.5c0-0.3,0-0.6-0.1-0.8v-0.3l2.6-2.4l-6-3.4c-0.2-0.1-0.5-0.3-0.5-0.3c-2.1-1.1-4.7-0.9-7.5,0.3
	C11.2,40,4,51.6,4,61c0,4.1,1.3,7.1,3.7,8.5c0.1,0.1,5,2.9,6.7,3.9l1-2l-2-1.1l1.2-0.4c0.9-0.3,1.8-0.7,2.6-1.2l0.6-0.4L18.4,68z"/>
<path class="st2" d="M28.9,56l0.4-0.9l0,0c1.7-3.7,2.4-7.7,2.2-11.8c0-0.3-0.1-0.6-0.1-0.9l2.8-2.6c0.1-0.1,0.1-0.2,0-0.2l0,0
	l-6.5-3.7l-0.5-0.3c-2.2-1.1-5-1.1-8.1,0.3c-4,2-7.4,5-9.9,8.7L28.9,56z"/>
<path class="st1" d="M29.2,56.8L8.4,44.7l0.4-0.5c2.5-3.8,6-6.8,10.1-8.9c3.1-1.4,6.2-1.5,8.6-0.3l0.6,0.3l6.5,3.7
	c0.2,0.1,0.3,0.3,0.4,0.6c0,0.2-0.1,0.5-0.2,0.6l-2.5,2.4c0,0.2,0,0.4,0.1,0.6c0.2,4.1-0.6,8.2-2.3,12L29.2,56.8z M10.1,44.4
	l18.5,10.8l0.1-0.3c1.6-3.6,2.4-7.5,2.2-11.5c0-0.3-0.1-0.6-0.1-0.8v-0.3l2.6-2.4l-6-3.4l-0.5-0.3c-2.1-1.1-4.7-0.9-7.5,0.3
	C15.6,38.2,12.4,41,10.1,44.4z"/>
<path class="st1" d="M36.1,59L36.1,59c1.7-3.7,2.4-7.7,2.2-11.7c-0.6-7.2-5.9-10.4-12.4-7.4C17.4,43.6,10.2,55.4,10.2,65
	c0,9,6.3,12.6,14.1,8.1l0.7-0.4l0,0c0.7,1.4,0.7,3.9,0.5,6.3c-0.1,1.3,1.3,1.1,1.9-0.3L36.1,59z"/>
<path class="st1" d="M26.1,80.6c-0.1,0-0.2,0-0.3,0c-0.6-0.2-1-0.9-0.9-1.5c0.3-1.8,0.2-3.6-0.2-5.4l-0.1,0.1c-4,2.3-7.7,2.6-10.6,1
	s-4.4-5.1-4.4-9.6c0-9.9,7.5-21.9,16-25.8c3.3-1.5,6.5-1.6,9-0.1s4,4.3,4.3,8c0.2,4.1-0.6,8.2-2.3,12l0,0L27.9,79
	C27.7,79.8,26.9,80.4,26.1,80.6z M25.2,71.9l0.3,0.6c0.7,1.3,0.9,3.6,0.5,6.6c0,0.1,0,0.2,0,0.3c0.4-0.2,0.6-0.5,0.8-0.9l8.7-19.8
	c1.7-3.6,2.4-7.6,2.2-11.5c-0.3-3.3-1.6-5.9-3.7-7.1s-4.9-1.2-7.9,0.2C18,44,10.8,55.5,10.8,65c0,4.1,1.4,7.2,3.8,8.6
	c2.5,1.4,5.8,1.1,9.4-1c0.2-0.1,0.4-0.2,0.6-0.4L25.2,71.9z"/>
<path class="st1" d="M19.5,59.8c-0.1,1.7-1,3.3-2.4,4.2c-1.3,0.8-2.4,0.2-2.4-1.4c0.1-1.7,1-3.2,2.4-4.2
	C18.4,57.6,19.5,58.2,19.5,59.8z"/>
<path class="st0" d="M16,64.9c-0.3,0-0.6-0.1-0.9-0.2c-0.7-0.5-1.1-1.3-1-2.1c0.1-1.9,1.1-3.7,2.7-4.7c0.7-0.5,1.6-0.5,2.3-0.2
	c0.7,0.5,1.1,1.2,1,2.1c-0.1,1.9-1.1,3.7-2.7,4.7C17,64.7,16.5,64.9,16,64.9z M18.1,58.6c-0.3,0-0.5,0.1-0.8,0.2
	c-1.2,0.8-2,2.2-2.1,3.7c-0.1,0.4,0.1,0.8,0.4,1.1c0.4,0.1,0.8,0.1,1.1-0.2c1.2-0.8,2-2.2,2.1-3.7c0-0.4-0.1-0.8-0.4-1.1
	C18.4,58.7,18.3,58.6,18.1,58.6z"/>
<path class="st1" d="M26.8,55.6c-0.1,1.7-1,3.3-2.4,4.2C23.1,60.6,22,60,22,58.4c0.1-1.7,1-3.2,2.4-4.1C25.7,53.4,26.8,54,26.8,55.6
	z"/>
<path class="st0" d="M23.3,60.7c-0.3,0-0.6-0.1-0.9-0.2c-0.7-0.5-1.1-1.2-1-2.1c0.1-1.9,1.1-3.7,2.7-4.7c0.8-0.7,2.1-0.7,2.8,0.1
	c0.4,0.5,0.6,1.1,0.5,1.8c-0.1,1.9-1.1,3.7-2.7,4.7C24.2,60.5,23.8,60.7,23.3,60.7z M25.4,54.4c-0.3,0-0.5,0.1-0.8,0.2
	c-1.3,0.8-2,2.2-2.1,3.7c0,0.4,0.1,0.8,0.4,1c0.4,0.1,0.8,0.1,1.1-0.1c1.2-0.8,2-2.2,2.1-3.7c0-0.4-0.1-0.8-0.4-1
	C25.7,54.5,25.6,54.4,25.4,54.4z"/>
<path class="st1" d="M34,51.4c-0.1,1.7-1,3.3-2.4,4.2c-1.3,0.8-2.4,0.2-2.4-1.4c0.1-1.7,1-3.3,2.4-4.2C32.9,49.2,34,49.9,34,51.4z"
	/>
<path class="st0" d="M30.5,56.5c-0.3,0-0.6-0.1-0.9-0.2c-0.7-0.5-1.1-1.2-1-2.1c0.1-1.9,1.1-3.7,2.7-4.7c0.8-0.7,2.1-0.7,2.8,0.1
	c0.4,0.5,0.6,1.1,0.5,1.8c-0.1,1.9-1.1,3.7-2.7,4.7C31.5,56.4,31,56.5,30.5,56.5z M32.7,50.2c-0.3,0-0.5,0.1-0.8,0.2
	c-1.3,0.8-2.1,2.2-2.1,3.8c0,0.4,0.1,0.8,0.4,1c0.4,0.1,0.8,0.1,1.1-0.2c1.2-0.8,2-2.2,2.1-3.7c0.1-0.4-0.1-0.8-0.4-1.1
	C32.9,50.3,32.8,50.2,32.7,50.2z"/>
<path class="st0" d="M3.6,63l6.9,3.9L3.6,63z"/>
<rect x="6.4" y="61" transform="matrix(0.4986 -0.8668 0.8668 0.4986 -52.7854 38.6373)" class="st1" width="1.2" height="7.9"/>
<path class="st0" d="M19.6,35.7l6.9,3.9L19.6,35.7z"/>
<rect x="22.4" y="33.7" transform="matrix(0.4986 -0.8668 0.8668 0.4986 -21.1255 38.8014)" class="st1" width="1.2" height="7.9"/>
<path class="st0" d="M70.1,89c0-0.1,0-0.2-0.1-0.2l-6.6-3.7c-0.2-0.2-0.8-0.4-0.8-0.4l0,0c-2.8-1.3-6.5-0.7-10.6,2.2
	c-6.3,4.4-11.4,13.3-12,21c-0.3,3.9,0.5,6.9,2.1,8.8l0,0l8.4,9.4c0.1,0.1,5.9,3.3,6.7,3.7h0.1l0,0l0.4-15.8c5-4.8,8.7-12.1,9.2-18.6
	l0.3-0.4L70.1,89z"/>
<path class="st1" d="M57.4,130.3c-0.1,0-0.2,0-0.3-0.1c-6.7-3.7-6.8-3.8-6.9-3.9l-8.6-9.6l0,0c-1.6-2.1-2.3-5.2-2-8.9
	c0.6-7.9,5.7-16.8,12.2-21.4c4.1-2.9,8.1-3.7,11.2-2.2c0,0,0.6,0.3,0.9,0.5l6.6,3.7c0.4,0.2,0.5,0.6,0.3,1l-2.8,6l-0.2,0.2
	c-0.6,6.5-4.2,13.8-9.2,18.7l-0.4,15.9l-0.3,0.2C57.6,130.3,57.5,130.3,57.4,130.3z M51.1,125.5c0.4,0.2,2.6,1.5,5.9,3.3l0.4-15.1
	l0.2-0.2c5-4.8,8.5-11.9,9-18.3V95l0.3-0.5l2.6-5.4l-6.3-3.5c-0.3-0.2-0.8-0.4-0.8-0.4c-2.6-1.2-6.3-0.5-10,2.1
	c-6.2,4.4-11.1,13-11.7,20.5c-0.3,3.6,0.4,6.5,2,8.4v0.1L51.1,125.5z"/>
<path class="st2" d="M64.4,103.9l0.4-0.8l0,0c1.6-3.4,2.3-7.2,2.1-11c0-0.3,0-0.5-0.1-0.8l2.6-2.4c0.1,0,0.1-0.1,0-0.2l0,0L63.3,85
	c-0.1-0.1-0.5-0.3-0.5-0.3c-2-1-4.6-1-7.5,0.3c-3.7,1.9-6.9,4.7-9.2,8.1L64.4,103.9z"/>
<path class="st1" d="M64.7,104.7L45.2,93.3l0.4-0.5c2.4-3.5,5.6-6.4,9.5-8.3c3-1.3,5.8-1.4,8.1-0.3l0.5,0.3l6.1,3.5
	c0.2,0.1,0.3,0.3,0.4,0.5c0,0.2-0.1,0.5-0.2,0.6l-2.4,2.2l0.1,0.5c0.2,3.9-0.5,7.8-2.1,11.3L64.7,104.7z M46.9,93l17.3,10l0.1-0.2
	c1.5-3.4,2.2-7,2-10.7l-0.1-0.8V91l2.4-2.2L63,85.5l-0.5-0.3c-1.9-1-4.4-0.9-7,0.3C52,87.3,49.1,89.8,46.9,93z"/>
<path class="st1" d="M49.1,120.4L49.1,120.4c-1.6-1.9-2.5-4.9-2.1-8.8c0.6-7.6,5.6-16.5,12-20.9c8.2-5.7,15.1-2.4,15.1,6.9
	c0,8.6-6.1,19.1-13.5,23.5l-0.6,0.4l0,0c-0.6,2.2-0.8,4.4-0.5,6.6c0.1,1.1-1.3,2.5-1.9,1.9L49.1,120.4z"/>
<path class="st1" d="M57.8,130.5c-0.3,0-0.6-0.1-0.8-0.4l-8.6-9.6l0,0c-1.6-2.1-2.3-5.2-2-8.9c0.6-7.8,5.7-16.8,12.2-21.4
	c4.2-2.9,8.4-3.7,11.5-2.1c2.9,1.5,4.5,4.9,4.5,9.4c0,8.8-6.2,19.6-13.8,24c-0.1,0.1-0.3,0.2-0.4,0.2c-0.5,2-0.7,4.1-0.4,6.1
	c0,1.1-0.5,2.1-1.5,2.6C58.2,130.5,58,130.5,57.8,130.5z M49.5,120.1l8.3,9.3c0.1-0.1,0.3-0.2,0.4-0.3c0.3-0.3,0.4-0.7,0.4-1.1
	c-0.3-2.3-0.1-4.6,0.5-6.9l0.1-0.2l0.2-0.1l0.6-0.3c7.3-4.2,13.2-14.5,13.2-22.9c0-4.1-1.4-7.1-3.9-8.4c-2.7-1.4-6.4-0.7-10.2,2
	c-6.2,4.4-11.1,13-11.7,20.5C47.2,115.2,47.9,118.1,49.5,120.1L49.5,120.1z"/>
<path class="st1" d="M65.1,102.7c0,1.5,1,2.1,2.3,1.3c1.4-0.9,2.2-2.4,2.3-4c0-1.5-1-2.1-2.3-1.3C66,99.6,65.2,101.1,65.1,102.7z"/>
<path class="st0" d="M66.3,105c-0.3,0-0.6-0.1-0.9-0.2c-0.7-0.4-1.1-1.2-1-2c0.1-1.8,1.1-3.5,2.6-4.5c0.7-0.5,1.5-0.5,2.2-0.2
	c0.7,0.4,1.1,1.2,1,2c-0.1,1.8-1.1,3.5-2.6,4.5C67.3,104.9,66.8,105,66.3,105z M68.4,99c-0.3,0-0.5,0.1-0.8,0.2
	c-1.2,0.8-1.9,2.1-2,3.5c-0.1,0.4,0.1,0.9,0.5,1.1c0.3,0.1,0.7,0,0.9-0.2c1.2-0.8,1.9-2.1,2-3.5c0.1-0.4-0.1-0.8-0.4-1
	C68.6,99,68.5,99,68.4,99L68.4,99z"/>
<path class="st1" d="M58.1,106.8c0,1.5,1,2.1,2.3,1.3c1.4-0.9,2.2-2.4,2.3-4c0-1.5-1-2.1-2.3-1.3C59,103.7,58.2,105.1,58.1,106.8z"
	/>
<path class="st0" d="M59.3,109c-0.3,0-0.6-0.1-0.9-0.2c-0.7-0.4-1.1-1.2-1-2c0.1-1.9,1.1-3.6,2.6-4.5c0.9-0.7,2.1-0.5,2.8,0.3
	c0.3,0.4,0.5,1,0.4,1.5c-0.1,1.8-1.1,3.5-2.6,4.5C60.2,108.9,59.8,109,59.3,109z M61.4,103c-0.3,0-0.5,0.1-0.7,0.2
	c-1.2,0.8-1.9,2.1-2,3.5c0,0.4,0.1,0.8,0.4,1c0.4,0.1,0.8,0.1,1-0.2c1.2-0.8,1.9-2.1,2-3.5c0-0.4-0.1-0.8-0.4-1
	C61.6,103,61.5,103,61.4,103z"/>
<path class="st1" d="M51.1,110.8c0,1.5,1,2.1,2.3,1.3c1.4-0.9,2.2-2.4,2.3-4c0-1.5-1-2.1-2.3-1.3C52,107.7,51.2,109.2,51.1,110.8z"
	/>
<path class="st0" d="M52.4,113c-0.3,0-0.6-0.1-0.9-0.2c-0.7-0.4-1.1-1.2-1-2c0.1-1.8,1.1-3.5,2.6-4.5c0.7-0.5,1.5-0.5,2.2-0.2
	c0.7,0.4,1.1,1.2,1,2c-0.1,1.8-1.1,3.5-2.6,4.5C53.3,112.9,52.8,113,52.4,113z M54.4,107c-0.3,0-0.5,0.1-0.8,0.2
	c-1.2,0.8-1.9,2.1-2,3.5c-0.1,0.4,0.1,0.8,0.4,1c0.4,0.1,0.8,0.1,1.1-0.2c1.2-0.8,1.9-2.1,2-3.5c0.1-0.4-0.1-0.8-0.4-1
	C54.7,107,54.6,107,54.4,107L54.4,107z"/>
<path class="st0" d="M41.8,115.9l8.5,4.8L41.8,115.9z"/>
<rect x="45.4" y="113.4" transform="matrix(0.4897 -0.8719 0.8719 0.4897 -79.6198 100.4015)" class="st1" width="1.2" height="9.7"/>
<path class="st0" d="M40.1,108.9l8.5,4.8L40.1,108.9z"/>
<rect x="43.7" y="106.4" transform="matrix(0.4897 -0.8719 0.8719 0.4897 -74.3657 95.4214)" class="st1" width="1.2" height="9.7"/>
<path class="st0" d="M55.1,84.9l8.5,4.8L55.1,84.9z"/>
<rect x="58.6" y="83.1" transform="matrix(0.4907 -0.8713 0.8713 0.4907 -46.4586 96.3837)" class="st1" width="1.2" height="9.7"/>
<path class="st0" d="M124,119.6h-19c-0.2,0-0.4,0.2-0.4,0.4l0,0v59.2l0,0c0.1,0.7,0.6,1.4,1.3,1.7l5.7,3.3c1.7,0.9,3.6,1,5.4,0.2
	l6.5-3.8c0.6-0.3,0.9-0.8,0.9-1.4l0,0V120C124.3,119.8,124.2,119.6,124,119.6z"/>
<path class="st1" d="M114.6,185.5c-1.2,0-2.3-0.3-3.3-0.8l-5.7-3.3c-0.7-0.3-1.2-0.9-1.5-1.6H104V120c0-0.6,0.4-1,1-1h19l0,0
	c0.3,0,0.5,0.1,0.7,0.3c0.2,0.2,0.3,0.4,0.3,0.7v59.8h-0.1c-0.2,0.6-0.6,1.1-1.1,1.4l-6.5,3.8C116.4,185.4,115.5,185.6,114.6,185.5z
	 M105.1,179.1L105.1,179.1c0.1,0.5,0.5,1,1,1.2l5.7,3.3c1.5,0.8,3.2,0.9,4.8,0.2l6.5-3.8c0.3-0.2,0.7-0.5,0.6-0.9v-0.6l0,0v-58.4
	h-18.6V179.1z"/>
<path class="st1" d="M124,119.6h-8.8v65.3c0.6,0,1.2-0.2,1.7-0.5l6.5-3.8c0.6-0.3,0.9-0.8,0.9-1.4l0,0V120
	C124.3,119.8,124.2,119.6,124,119.6z"/>
<path class="st2" d="M123.4,121.1l-6.5,3.8c-1.7,0.8-3.7,0.7-5.4-0.2l-5.7-3.3c-1.6-0.9-1.8-2.3-0.4-3.1l6.5-3.8
	c1.7-0.8,3.7-0.7,5.4,0.2l5.7,3.3C124.6,118.9,124.8,120.2,123.4,121.1z"/>
<path class="st1" d="M114.6,125.9c-1.2,0-2.3-0.3-3.3-0.8l-5.7-3.3c-0.9-0.4-1.5-1.3-1.6-2.3c0-0.8,0.5-1.5,1.2-1.9l6.5-3.8
	c1.9-0.9,4.2-0.8,6,0.2l5.7,3.3c0.9,0.4,1.5,1.3,1.6,2.3c0,0.8-0.5,1.5-1.2,1.9l-6.5,3.8C116.4,125.8,115.5,126,114.6,125.9z
	 M114.3,114.5c-0.7,0-1.4,0.1-2,0.5l-6.5,3.8c-0.3,0.2-0.6,0.5-0.6,0.8c0,0.4,0.4,0.9,1,1.2l5.7,3.3c1.5,0.8,3.2,0.9,4.8,0.2
	l6.5-3.8c0.3-0.2,0.6-0.5,0.6-0.8c0-0.4-0.4-0.9-1-1.2l-5.7-3.3C116.2,114.7,115.2,114.5,114.3,114.5z"/>
<rect x="111.6" y="124.9" class="st1" width="1.2" height="59.6"/>
<rect x="121.7" y="123.3" class="st0" width="0.9" height="56.4"/>
<path class="st0" d="M116.3,170h-19c-0.2,0-0.4,0.2-0.4,0.4l0,0v31.2l0,0c0.1,0.7,0.6,1.4,1.3,1.7l5.7,3.3c1.6,0.9,3.6,1,5.4,0.2
	l6.5-3.8c0.6-0.3,0.9-0.8,0.9-1.4l0,0v-31.2C116.7,170.1,116.5,170,116.3,170L116.3,170z"/>
<path class="st1" d="M106.9,207.9c-1.2,0-2.3-0.3-3.3-0.8l-5.7-3.3c-0.7-0.3-1.2-0.9-1.5-1.6h-0.1v-31.8c0-0.6,0.4-1,1-1h19
	c0.6,0,1,0.4,1,1v31.8h-0.1c-0.2,0.6-0.6,1-1.1,1.3l-6.5,3.8C108.7,207.7,107.8,207.9,106.9,207.9z M97.4,201.5L97.4,201.5
	c0.1,0.6,0.5,1,1,1.2l5.7,3.3c1.5,0.8,3.2,0.9,4.8,0.2l6.5-3.8c0.4-0.1,0.6-0.5,0.6-0.9V201l0,0v-30.4H97.4V201.5z"/>
<path class="st1" d="M116.3,170h-8.8v37.3c0.6,0,1.2-0.2,1.7-0.5l6.5-3.8c0.6-0.3,0.9-0.8,0.9-1.4l0,0v-31.2
	C116.7,170.2,116.5,170,116.3,170L116.3,170z"/>
<path class="st2" d="M115.7,171.4l-6.5,3.8c-1.7,0.8-3.7,0.7-5.4-0.2l-5.7-3.3c-1.6-0.9-1.8-2.3-0.4-3.1l6.5-3.8
	c1.7-0.8,3.7-0.7,5.4,0.2l5.7,3.3C117,169.2,117.1,170.6,115.7,171.4z"/>
<path class="st1" d="M106.9,176.3c-1.2,0-2.3-0.3-3.3-0.8l-5.7-3.3c-0.9-0.4-1.5-1.3-1.6-2.3c0-0.8,0.5-1.5,1.2-1.9l6.5-3.8
	c1.9-0.9,4.1-0.8,6,0.2l5.7,3.3c0.9,0.4,1.5,1.3,1.6,2.3c0,0.8-0.5,1.5-1.2,1.9l-6.5,3.8C108.7,176.1,107.8,176.3,106.9,176.3z
	 M106.6,164.9c-0.7,0-1.4,0.1-2,0.4l-6.5,3.8c-0.3,0.2-0.6,0.4-0.6,0.8s0.4,0.9,1,1.2l5.7,3.3c1.5,0.8,3.2,0.9,4.8,0.2l6.5-3.8
	c0.3-0.2,0.6-0.5,0.6-0.8c0-0.4-0.4-0.9-1-1.2l-5.7-3.3C108.5,165.1,107.6,164.8,106.6,164.9z"/>
<rect x="103.9" y="175.3" class="st1" width="1.2" height="31.6"/>
<rect x="114" y="173.7" class="st0" width="0.9" height="28.4"/>
<path class="st1" d="M85.6,234.9c0,0,1.1-0.7,1.4,4.1c0,0-2.5,2.3-4.7,1.2c-3.1-1.6-6.4-6.5-6.4-6.5s-0.8-1,0.8-1.8s6.7,1.5,6.7,1.5
	L85.6,234.9z"/>
<path class="st1" d="M83.6,241c-0.5,0-1.1-0.1-1.5-0.4c-3.2-1.6-6.5-6.5-6.6-6.7c-0.2-0.3-0.3-0.8-0.2-1.2c0.2-0.6,0.7-1.1,1.3-1.3
	c1.8-0.8,6.5,1.3,7.1,1.5l2.2,1.4c0.2,0,0.3,0,0.5,0.1c0.5,0.2,1.1,1,1.3,4.5v0.2l-0.2,0.2C86.2,240.3,84.9,240.9,83.6,241z
	 M77.6,232.2c-0.2,0-0.5,0-0.7,0.1c-0.4,0.2-0.7,0.4-0.7,0.6c0,0.1,0,0.3,0.1,0.4c0,0.1,3.3,4.9,6.3,6.4c1.6,0.8,3.4-0.5,4-1
	c-0.1-2.6-0.5-3.2-0.7-3.4l-0.2,0.1l-2.6-1.7C81.3,233,79.4,232.5,77.6,232.2L77.6,232.2z"/>
<path class="st1" d="M69.9,245.3c0.8,1.4,1.1,3,1.1,4.5c0,0-1.6,2.9-6.3,0.3c-0.4-0.2-0.8-0.4-1.2-0.5c-1.2-0.4-3.9-1.6-4.6-4.3
	c-0.9-3.5,6.4-0.3,6.4-0.3L69.9,245.3z"/>
<path class="st1" d="M68.2,251.7c-1.3-0.1-2.6-0.5-3.7-1.1c-0.4-0.2-0.7-0.3-1.1-0.5c-1.2-0.4-4.2-1.7-5-4.7
	c-0.3-0.6-0.1-1.4,0.4-1.9c1.4-1.2,5.5,0.5,6.5,0.9l4.8,0.3l0.1,0.2c0.8,1.5,1.2,3.1,1.1,4.8v0.1v0.1c-0.5,0.7-1.2,1.3-2,1.5
	C69,251.7,68.6,251.7,68.2,251.7z M60.2,244.1c-0.3,0-0.6,0.1-0.8,0.2c-0.2,0.1-0.2,0.4-0.1,0.8c0.6,2.5,3.2,3.6,4.3,4
	c0.4,0.1,0.9,0.3,1.3,0.5c3.8,2.1,5.2,0.4,5.5,0c0-1.4-0.3-2.7-0.9-3.9l-4.6-0.3C63.5,244.8,61.9,244.3,60.2,244.1z"/>
<path class="st1" d="M34.4,140.7l3.2-1.9c0.4-0.2,0.9,0.1,1,0.8l2.2,10.4c0.2,0.6,0,1.2-0.5,1.6l-3.1,1.9c-0.4,0.2-0.9-0.1-1-0.8
	l-2.3-10.3C33.8,141.7,33.9,141.1,34.4,140.7z"/>
<path class="st1" d="M37,154c-0.1,0-0.3,0-0.4-0.1c-0.4-0.2-0.8-0.7-0.8-1.1l-2.3-10.3c-0.2-0.8,0-1.7,0.7-2.2l3.2-1.9
	c0.3-0.2,0.6-0.2,0.9-0.1c0.4,0.2,0.8,0.7,0.8,1.2l2.2,10.4c0.2,0.8-0.1,1.6-0.7,2.2l-3.1,1.9C37.3,153.9,37.2,154,37,154z
	 M37.9,139.1l-3.2,2c-0.3,0.3-0.4,0.7-0.2,1.1l2.3,10.3c0.1,0.3,0.2,0.4,0.2,0.5l3.2-1.9c0.3-0.3,0.3-0.7,0.2-1.1l-2.2-10.4
	C38.1,139.3,37.9,139.1,37.9,139.1L37.9,139.1z"/>
<path class="st2" d="M34.8,140.4l3.2-1.9c0.4-0.2,0.9,0.1,1,0.8l2.2,10.4c0.2,0.6,0,1.2-0.5,1.6l-3.1,1.9c-0.4,0.2-0.9-0.1-1-0.8
	L34.3,142C34.2,141.5,34.4,140.9,34.8,140.4z"/>
<path class="st1" d="M37.4,153.8c-0.1,0-0.3,0-0.4-0.1c-0.5-0.2-0.8-0.7-0.8-1.2l-2.3-10.3c-0.2-0.8,0-1.7,0.7-2.2l3.2-1.9
	c0.3-0.2,0.6-0.2,0.9-0.1c0.5,0.2,0.8,0.7,0.8,1.2l2.2,10.4c0.2,0.8-0.1,1.6-0.7,2.2l-3.1,1.9C37.8,153.8,37.6,153.8,37.4,153.8z
	 M35.1,140.9c-0.3,0.3-0.3,0.7-0.2,1.1l2.3,10.4c0.1,0.3,0.2,0.4,0.2,0.5l3.2-1.9c0.3-0.3,0.4-0.7,0.2-1.1l-2.2-10.4
	c-0.1-0.3-0.2-0.5-0.3-0.5L35.1,140.9z"/>
<path class="st0" d="M88.1,219.9l-17.4-12.2c-0.6-0.4-1-1.1-1-1.8l-2-12.7c0-0.7,2.4-1.6,2.9-1.3L89.8,203c0.6,0.4,1,1.1,1,1.8V218
	C90.8,218.8,88.6,220.2,88.1,219.9z"/>
<path class="st1" d="M88.3,220.5c-0.2,0-0.3,0-0.4-0.1l0,0l-17.4-12.2c-0.7-0.5-1.2-1.3-1.2-2.2l-2-12.6c0-0.5,0.3-0.9,1-1.3
	s2-0.9,2.7-0.6l19.1,11c0.7,0.5,1.2,1.4,1.2,2.3v13.3c0,1-1.7,2-1.8,2C89.1,220.3,88.7,220.4,88.3,220.5z M68.3,193.2l2,12.6
	c0,0.6,0.3,1.1,0.7,1.5l17.4,12.2c0.8-0.3,1.5-0.8,2-1.5v-13.2c0-0.6-0.3-1.1-0.7-1.4l-19.2-11.1C69.6,192.4,68.9,192.7,68.3,193.2
	L68.3,193.2z"/>
<path class="st0" d="M87.8,219.8l-19.1-11.1c-0.6-0.4-1-1.1-1-1.8v-13.3c0-0.7,0.4-1,1-0.7L87.8,204c0.6,0.4,1,1.1,1,1.8v13.3
	C88.8,219.8,88.3,220.1,87.8,219.8z"/>
<path class="st1" d="M88.2,220.4c-0.2,0-0.4-0.1-0.6-0.2l0,0l-19.1-11c-0.7-0.5-1.2-1.4-1.2-2.3v-13.3c0-0.5,0.2-0.9,0.6-1.2
	c0.4-0.2,0.8-0.2,1.1,0.1l19.2,11.1c0.8,0.5,1.2,1.4,1.2,2.3v13.3c0,0.5-0.2,0.9-0.6,1.2C88.5,220.4,88.4,220.5,88.2,220.4z
	 M88,219.4L88,219.4c0.2-0.1,0.2-0.2,0.2-0.3v-13.3c0-0.6-0.3-1.1-0.7-1.4l-19.1-11.1h-0.1c0,0-0.1,0.1-0.1,0.3V207
	c0,0.6,0.3,1.1,0.7,1.4L88,219.4L88,219.4z"/>
<polygon class="st1" points="88.6,205.1 90.6,203.9 90.8,204.8 90.8,218.1 89.7,219.2 88.6,219.7 88.8,205.9 "/>
<path class="st0" d="M72.9,207.2c0,0,0.8,8.4,4,14.2c1.1,4.3,1.9,8.7,2.4,13.1c0,0.3,0.2,0.6,0.4,0.9c0.7,0.8,2.5,2.2,5.8,0.8
	c0.7-0.3,1.2-0.9,1.4-1.5l0,0c0.1-0.5,0.1-0.9,0-1.4l-2.5-8.3c0,0-0.7-6.1-1.7-10s1.8-12.2-0.2-20.2s-4-9.4-4-9.4l-6.9,13.5
	L72.9,207.2z"/>
<path class="st1" d="M82.8,237.2c-1.4,0-2.7-0.6-3.5-1.6c-0.3-0.3-0.5-0.7-0.5-1.2c-0.5-4.4-1.3-8.7-2.4-12.9
	c-3.1-5.7-4-13.8-4-14.3l-1.5-8.5l7.3-14.2l0.5,0.4c0.2,0.2,2.1,1.8,4.1,9.7c1.3,4.8,0.8,9.7,0.4,13.7c-0.3,2.6-0.5,5-0.1,6.5
	c1,4,1.7,10,1.7,10.1l2.5,8.2c0.2,0.6,0.2,1.2,0,1.7c-0.3,0.8-0.9,1.5-1.6,1.9C84.8,237,83.8,237.2,82.8,237.2z M72,198.9l1.4,8.2
	c0,0.1,0.9,8.4,3.9,14v0.1c1.1,4.3,1.9,8.7,2.4,13.1c0,0.2,0.1,0.4,0.3,0.6c0.7,0.8,2.3,2,5.2,0.7c0.5-0.2,0.9-0.7,1.1-1.2
	c0.1-0.4,0.1-0.8,0-1.1l-2.5-8.2c0-0.1-0.8-6.2-1.7-10.1c-0.4-1.7-0.2-4.1,0.1-6.8c0.4-3.9,0.9-8.7-0.4-13.3
	c-1.4-5.4-2.7-7.8-3.4-8.7L72,198.9z"/>
<path class="st0" d="M63.8,193.2c-0.3,0.1-0.6,0.4-0.6,0.8c-0.3,3.1-1.6,17.6-0.3,27.1c1.3,9.5,0.7,20.9,0.5,23.2
	c0,0.3,0.1,0.5,0.3,0.7c0.8,0.7,3.1,2.2,6.8,0.1c0.3-0.2,0.5-0.5,0.5-0.8v-1.8c-0.5-5.2,0.1-10.5,0.3-15.7c0.2-2.3-0.1-4.6-0.8-6.8
	c-0.1-0.2-0.1-0.4,0-0.6c0.6-1.7,3.5-10.9,4.2-17.7c0.4-3.6,0.4-7.3,0.1-10.9c0-0.5-0.5-0.9-1-0.8c-0.1,0-0.1,0-0.2,0L63.8,193.2z"
	/>
<path class="st1" d="M66.8,246.7c-1.3,0-2.5-0.5-3.5-1.3c-0.3-0.3-0.5-0.7-0.4-1.1c0.5-7.7,0.3-15.4-0.5-23.1
	c-1.3-9.6,0-24.4,0.3-27.2c0.1-0.6,0.5-1,1-1.2l0,0l9.8-3.1c0.4-0.1,0.9-0.1,1.2,0.2c0.3,0.2,0.6,0.6,0.6,1c0.3,3.7,0.3,7.3-0.1,11
	c-0.7,6.9-3.6,16-4.2,17.8c0,0.1,0,0.2,0,0.2c0.7,2.2,1,4.6,0.8,6.9c-0.1,1.4-0.1,2.7-0.2,4.1c-0.4,3.8-0.4,7.7-0.1,11.6v1.8
	c0,0.5-0.3,1-0.7,1.2C69.6,246.3,68.2,246.7,66.8,246.7z M63.9,193.7c-0.2,0-0.3,0.2-0.3,0.4c-0.3,2.8-1.6,17.5-0.3,27
	c0.9,7.7,1.1,15.5,0.5,23.3c0,0.1,0,0.2,0.1,0.3c0.7,0.7,2.8,2,6.2,0c0.1-0.1,0.2-0.2,0.2-0.4v-1.7c-0.3-3.9-0.3-7.8,0.1-11.8
	c0.1-1.4,0.2-2.7,0.2-4.1c0.2-2.2-0.1-4.5-0.8-6.6c-0.1-0.3-0.1-0.6,0-0.9c0.6-1.8,3.5-10.8,4.2-17.6c0.4-3.6,0.4-7.2,0.1-10.8
	c0-0.1-0.1-0.2-0.2-0.3s-0.3-0.1-0.4,0L63.9,193.7z"/>
<path class="st0" d="M37.6,155l-4.2-2.9c-0.4-0.3-0.7-0.7-0.7-1.2l-0.2-1.5c-0.1-0.8,0.4-1.6,1.1-1.9l0.6-0.2c0.5-0.2,1-0.1,1.4,0.3
	l1.1,1.1h0.1l0,0l0.5-1.2l0.4-0.1c0.4,0.8,0.7,1.7,0.7,2.6c0,1.2,0.5,2.4,1.5,3.1c1.9,1.2-0.8,2-0.8,2h-1.6L37.6,155z"/>
<path class="st1" d="M39.4,155.5h-1.8l-0.2-0.1l-4.2-3c-0.5-0.4-0.9-0.9-0.9-1.6l-0.2-1.5c-0.1-1,0.5-2,1.4-2.4l0.6-0.2
	c0.6-0.2,1.4-0.1,1.9,0.4l0.7,0.7l0.4-0.9l1-0.2l0.2,0.3c0.5,0.9,0.7,1.8,0.8,2.8c0,1.1,0.4,2.1,1.2,2.7c0.7,0.4,1,0.9,0.9,1.4
	C41.1,155,39.7,155.4,39.4,155.5L39.4,155.5z M37.8,154.5h1.4c0.4-0.1,0.7-0.3,1-0.6c0,0-0.1-0.2-0.5-0.4c-1.1-0.8-1.7-2.1-1.7-3.5
	c0-0.6-0.2-1.2-0.4-1.8l-0.4,1l-0.3,0.1c-0.2,0-0.4,0-0.5-0.2l-1.1-1.1c-0.2-0.2-0.5-0.3-0.8-0.2l-0.6,0.2c-0.5,0.2-0.9,0.8-0.8,1.3
	l0.2,1.5c0,0.4,0.2,0.7,0.5,0.9L37.8,154.5z"/>
<path class="st0" d="M40.7,157.6l-2.5-1.9c-0.4-0.3-0.7-0.9-0.6-1.5l0.3-1.7c0.1-0.7,0.7-1.2,1.4-1.2l0,0c0.4,0,0.7,0.1,1,0.4
	l3.5,3.3v0.1l0,0l-3,2.4C40.8,157.6,40.7,157.6,40.7,157.6z"/>
<path class="st1" d="M40.8,158.1c-0.1,0-0.3,0-0.4-0.1l0,0l-2.5-1.9c-0.6-0.5-0.9-1.2-0.8-1.9l0.3-1.7c0.2-1.1,1.2-1.8,2.2-1.6
	c0.4,0.1,0.7,0.2,1,0.5l3.7,3.5v0.3c0,0.2-0.1,0.3-0.2,0.4l-3,2.4C41,158,40.9,158.1,40.8,158.1z M39.3,151.8
	c-0.5,0-0.9,0.3-0.9,0.8l-0.3,1.7c-0.1,0.4,0.1,0.8,0.4,1l2.2,1.7l2.4-1.9l-3.2-3C39.8,151.9,39.6,151.8,39.3,151.8z"/>
<path class="st2" d="M41.7,152.9l8,5.4c0.4,0.2,0.8,0.3,1.2,0.3c3.8,0.5,10.9,0.5,14.5,1.1l8.9,0.8l3.1-3.5l1.1-0.9
	c0,0,3.1-2.2,5.4,3.2s-0.2,19.8-0.2,19.8l0.6,14.7l-1.2,2.2c-0.1,0.2-0.3,0.3-0.5,0.2c-0.1-0.1-0.2-0.1-0.2-0.2l-0.7-2.1
	c0,0-6.1,4.9-12.4,4.7s-7.5-4.3-7.5-4.3s2-9.8,1.1-15.7c-0.4-3-1.2-6-2.4-8.8c-0.3-0.6-0.8-1-1.4-1.1l-9.1-3.6
	c-0.2-0.1-0.3-0.2-0.5-0.2l-8.5-6.8c-1.2-0.8-1.9-2.3-1.6-3.7l0,0c0-0.9,0.8-1.5,1.6-1.5C41.3,152.7,41.5,152.8,41.7,152.9z"/>
<path class="st1" d="M69.6,198.9h-0.3c-6.6-0.2-7.9-4.4-7.9-4.6v-0.1v-0.1c0-0.1,1.9-9.8,1.1-15.6c-0.4-3-1.2-5.9-2.3-8.6
	c-0.2-0.4-0.6-0.7-1-0.8H59l-9.1-3.6c-0.2-0.1-0.4-0.2-0.6-0.3l-8.6-6.8c-1.4-0.9-2.1-2.6-1.8-4.2c0.1-1.1,1-2,2.2-1.9
	c0.2,0,0.5,0.1,0.7,0.2H42l8,5.4c0.3,0.1,0.6,0.2,1,0.2c1.8,0.2,4.4,0.4,6.9,0.5c2.8,0.1,5.7,0.3,7.6,0.6l8.6,0.7l3-3.3l1.2-1
	c0.8-0.5,1.8-0.7,2.7-0.4c1.4,0.4,2.6,1.7,3.5,3.9c2.3,5.4,0,18.9-0.1,20l0.6,14.7l-1.2,2.3c-0.2,0.3-0.5,0.5-0.9,0.5
	s-0.7-0.3-0.8-0.6l-0.5-1.5C79.8,195.7,74.8,198.9,69.6,198.9z M62.3,194.1c0.2,0.6,1.6,3.7,7,3.8h0.3c6,0,11.7-4.6,11.8-4.6
	l0.6-0.5l0.8,2.6l1-1.9L83.2,179l0,0c0-0.1,2.4-14.2,0.2-19.5c-0.8-1.9-1.7-3-2.8-3.3c-0.6-0.2-1.3-0.1-1.9,0.3l-1.1,0.9l-3.2,3.6
	l-9.1-0.8c-1.9-0.3-4.8-0.4-7.5-0.6c-2.5-0.1-5.1-0.2-7-0.5c-0.5,0-0.9-0.2-1.3-0.4l-8-5.4c-0.3-0.1-0.6-0.1-0.9,0
	c-0.3,0.2-0.5,0.6-0.6,1c-0.2,1.2,0.3,2.5,1.4,3.2l8.6,6.8l0.4,0.2l9,3.6c0.8,0.1,1.4,0.7,1.8,1.4c1.2,2.8,2,5.8,2.4,8.9
	C64.2,184,62.6,192.9,62.3,194.1z"/>
<path class="st1" d="M78.2,195.8c-0.8-2-1.2-6.8-1.4-10.5l1-0.1c0.2,5.2,0.7,8.7,1.3,10.2L78.2,195.8z"/>
<path class="st1" d="M76.8,183.5c-0.1-1.7-0.1-2.9-0.1-2.9h1c0,0,0,1.2,0.1,2.9H76.8z"/>
<path class="st1" d="M63.3,203.6c-0.3,0-0.7-0.1-1-0.2l0.3-1c0.3,0.1,0.5,0.1,0.8,0.2L63.3,203.6z"/>
<path class="st1" d="M64.3,203.7h-0.2v-1h0.2c0.4,0,0.8,0,1.2-0.1l0.2,1C65.2,203.7,64.8,203.7,64.3,203.7z M66.6,203.3l-0.4-0.9
	c0.4-0.2,0.8-0.4,1.1-0.7l0.7,0.7C67.6,202.8,67.1,203.1,66.6,203.3L66.6,203.3z M68.6,201.7l-0.8-0.6c0.3-0.4,0.5-0.8,0.6-1.2
	l0.9,0.3C69.2,200.8,68.9,201.3,68.6,201.7L68.6,201.7z"/>
<path class="st1" d="M69.6,199.4l-1-0.2c0.1-0.3,0.1-0.6,0.2-0.8l1,0.1C69.7,198.8,69.7,199.1,69.6,199.4z"/>
<path class="st1" d="M80.3,206.2c-0.4,0-0.8-0.1-1.2-0.2c-0.4,0-0.4-0.3-0.5-1l1-0.2c0,0.1,0,0.2,0,0.3c0.3,0.1,0.5,0.1,0.8,0.1
	L80.3,206.2z M81.3,206.2l-0.1-1c0.5,0,1-0.2,1.5-0.5l0.5,0.8C82.7,205.9,82,206.2,81.3,206.2L81.3,206.2z M78.5,204.1l-0.3-1.8
	l1-0.2l0.3,1.8L78.5,204.1z M78,201.4l-0.3-1.8l1-0.1l0.3,1.8L78,201.4z M79.2,199.6l-0.4-0.9c0.5-0.2,1.1-0.5,1.6-0.7l0.5,0.9
	C80.3,199.1,79.7,199.4,79.2,199.6L79.2,199.6z M81.7,198.4l-0.5-0.9c0.5-0.3,0.9-0.6,1.4-0.9l0.6,0.8
	C82.7,197.8,82.2,198.1,81.7,198.4L81.7,198.4z"/>
<path class="st1" d="M66.8,242.6c-0.3,0-0.6,0-0.9-0.1l0.1-1c0.5,0.1,1.1,0.1,1.6,0l0.1,1C67.5,242.5,67.2,242.6,66.8,242.6z
	 M68.8,242.3l-0.3-1c0.5-0.2,1.1-0.4,1.6-0.6l0.5,0.9C70,241.8,69.4,242.1,68.8,242.3L68.8,242.3z M65,242.3c-0.6-0.2-1.2-0.5-1.8-1
	l0.7-0.7l-0.4,0.3l0.4-0.3c0.4,0.3,0.9,0.6,1.4,0.8L65,242.3z"/>
<path class="st1" d="M81.9,233.9h-0.3v-1c0.5,0,1.1,0,1.6-0.2l0.3,1C83.1,233.8,82.5,233.9,81.9,233.9z M80.7,233.8
	c-0.6-0.1-1.3-0.3-1.9-0.6l0.5-0.9c0.5,0.2,1,0.4,1.6,0.5L80.7,233.8z M84.5,233.2l-0.5-0.9c0.5-0.3,0.9-0.6,1.2-1.1l0.8,0.6
	C85.6,232.4,85.1,232.9,84.5,233.2L84.5,233.2z"/>
<path class="st0" d="M61,245.9l-0.8-0.6c0.7-0.8,1.6-1.5,2.6-2l0.5,0.9C62.5,244.6,61.7,245.2,61,245.9z"/>
<path class="st0" d="M77.2,234l-0.7-0.7c0.6-0.5,1.3-0.8,2.1-1l0.3,1C78.3,233.4,77.7,233.6,77.2,234z"/>
<path class="st2" d="M64.4,146.3c-0.1,2.4,0.3,5.9,2.4,8.1l2.5,1c-0.2,1.2-0.9,2.2-1.9,2.7l5.1,2l4.4-1.1l-0.7-2.8
	c-1.3-1.9-1.6-4.4-0.8-6.5c1.2-4.1-4.7-8.9-4.7-8.9l-4.6,1l0,0C65,143.1,64.5,144.7,64.4,146.3z"/>
<path class="st1" d="M72.4,160.7l-6.3-2.5l1-0.5c0.8-0.4,1.4-1.1,1.6-2l-2.2-0.9l-0.1-0.1c-2.2-2.3-2.6-5.9-2.5-8.5l0,0
	c0-1.7,0.6-3.4,1.7-4.8l0.1-0.2l5.1-1l0.2,0.1c0.3,0.2,6.2,5.1,4.9,9.4c-0.7,2-0.5,4.3,0.7,6.1l0.1,0.1l0.9,3.4L72.4,160.7z
	 M68.4,158l4.1,1.6l3.8-0.9l-0.6-2.2c-1.3-2-1.6-4.6-0.8-6.9c1-3.3-3.4-7.4-4.4-8.2l-4.2,0.9c-0.9,1.2-1.3,2.6-1.4,4.1
	c-0.1,2.4,0.3,5.6,2.1,7.7l2.7,1.1v0.4C69.7,156.4,69.2,157.4,68.4,158L68.4,158z"/>
<path class="st1" d="M65.5,139.6c0.9-1.5,2.5-2.5,4.3-2.6c3-0.1,5,2.3,5,3.4s-7.2,1.4-7.2,1.4L65.5,139.6z"/>
<path class="st1" d="M63.1,142.6c0,0.3,0.1,0.7,0.2,1c1.1,3,4.3,4.7,7.4,4l1.5,0.1c0.1,1,0,2-0.4,3c-0.2,0.5-0.1,1.1,0.4,1.4
	c1.2,0.7,2.6,0.7,3.8,0c0,0,5.2-7.7-0.7-12.5c-1.2-0.9-2.8-1.2-4.2-0.8c-1.7,0.5-3.4,0.7-5.2,0.6c-0.5-0.1-0.9,0-1.4,0.2l0,0
	c-0.8,0.4-1.4,1.3-1.4,2.2L63.1,142.6z"/>
<path class="st1" d="M74.1,153.1c-0.7,0-1.4-0.2-2-0.6c-0.7-0.4-0.9-1.3-0.6-2s0.4-1.5,0.4-2.4l-1.1-0.1c-3.3,0.6-6.6-1.2-7.8-4.4
	c-0.2-0.4-0.2-0.8-0.2-1.2v-0.7c0-1.1,0.6-2.2,1.6-2.7c0.5-0.2,1.1-0.3,1.6-0.3c1.7,0.1,3.4-0.1,5-0.6s3.4-0.2,4.7,0.9
	c6.2,5,0.9,13.1,0.8,13.1l-0.1,0.1l-0.1,0.1C75.5,152.9,74.8,153.1,74.1,153.1z M70.7,147.1l2,0.2l0.1,0.4c0.1,1.1,0,2.2-0.4,3.3
	c-0.1,0.3-0.1,0.6,0.2,0.8c1,0.5,2.2,0.5,3.2,0c0.6-1,4.5-7.5-0.7-11.7c-1.1-0.8-2.5-1.1-3.8-0.7c-1.7,0.5-3.6,0.7-5.4,0.6
	c-0.4,0-0.8,0-1.1,0.2c-0.7,0.3-1.1,1-1.1,1.8v0.7c0,0.3,0.1,0.5,0.2,0.8C64.8,146.2,67.7,147.8,70.7,147.1L70.7,147.1z"/>
<path class="st1" d="M70.1,151.4l-0.5-0.8c0.2-0.1,0.4-0.4,0.5-0.6c0-0.2,0-0.5-0.2-0.7l0.8-0.6c0.3,0.4,0.4,0.9,0.4,1.4
	C70.9,150.7,70.5,151.1,70.1,151.4z"/>
<path class="st0" d="M67.4,140h-0.5v-1c1.8,0.1,3.6-0.2,5.4-0.8l0.4,0.9C70.9,139.8,69.1,140.1,67.4,140z"/>
<path class="st0" d="M75.5,151l-0.8-0.6c1.4-1.8,0.8-4.9,0.8-4.9l1-0.2C76.6,145.4,77.2,148.9,75.5,151z"/>
<path class="st0" d="M72.5,148.1l-0.6-0.8c0.5-0.4,0.7-1,0.6-1.6l1-0.2C73.7,146.5,73.3,147.5,72.5,148.1z"/>
<path class="st0" d="M65.3,159.7c0,0-0.1-1.5,3.1-1.4s6.8,0.3,7.6-2.9l-0.2-0.6c0,0,2.7-0.3,2.6,2s-1.9,4.3-5.7,4.3
	C70.1,161.2,67.6,160.7,65.3,159.7z"/>
<path class="st1" d="M72.4,161.7c-2.5,0-5-0.6-7.3-1.6l-0.3-0.1v-0.3c0-0.4,0.2-0.8,0.5-1.1c0.9-0.7,2-1,3.1-0.9h0.4
	c3.5,0.1,5.9,0,6.6-2.4l-0.4-1l0.6-0.1c0.9-0.1,1.8,0.1,2.5,0.7c0.5,0.5,0.8,1.2,0.7,1.9c-0.1,2.9-2.4,4.7-6.2,4.8L72.4,161.7z
	 M65.9,159.4c2.2,0.8,4.4,1.3,6.8,1.3c3.3-0.1,5.2-1.5,5.2-3.9c0-0.4-0.1-0.8-0.4-1.1c-0.3-0.2-0.6-0.4-1-0.4l0,0v0.1
	c-0.9,3.4-4.5,3.4-7.6,3.3h-0.4c-1.6,0-2.2,0.3-2.4,0.6L65.9,159.4z"/>
<rect x="81.4" y="192.6" transform="matrix(0.7543 -0.6566 0.6566 0.7543 -106.5674 101.4884)" class="st1" width="1.8" height="1"/>
<rect x="38.5" y="134.4" transform="matrix(0.2556 -0.9668 0.9668 0.2556 -100.8273 138.9328)" class="st1" width="2.6" height="1"/>
<rect x="40.5" y="136.5" transform="matrix(0.8544 -0.5197 0.5197 0.8544 -65.0839 41.7839)" class="st1" width="3" height="1"/>
<rect x="42.2" y="138.7" transform="matrix(0.1829 -0.9831 0.9831 0.1829 -102.793 156.4147)" class="st1" width="1" height="2.6"/>
<path class="st1" d="M5.2,200.5l-0.3,6.2c0,1.2,0.3,2.3,0.9,3.4l0.3,0.5c0.7,1.2,2,2.1,3.4,2.3l1.5,0.2c0.5,0.1,1,0,1.5-0.3l0,0
	c0.7-0.5,1-1.3,0.7-2.1l-1.4-4.4l0,0c-0.5-1.3-0.8-2.7-1-4.1l-0.4-2.6L5.2,200.5z"/>
<rect x="7.7" y="204.8" transform="matrix(0.9736 -0.2284 0.2284 0.9736 -46.6259 7.6185)" class="st0" width="3.8" height="0.9"/>
<rect x="8.4" y="206.6" transform="matrix(0.9736 -0.2284 0.2284 0.9736 -47.018 7.8252)" class="st0" width="3.8" height="0.9"/>
<path class="st1" d="M15.3,191c-0.7,1.4-1,3-0.6,4.5l0,0c1,0.6,2.1,1,3.3,1.1l8.3,0.4c0.7,0,1.5-0.1,2.2-0.4l0,0
	c0.7-0.3,1.3-0.9,1.6-1.7l0,0c0.2-0.7,0-1.4-0.7-1.7l-8.7-4.4L15.3,191z"/>
<rect x="23" y="190.7" transform="matrix(0.6374 -0.7705 0.7705 0.6374 -138.5358 87.891)" class="st0" width="2.2" height="0.9"/>
<rect x="24.5" y="191.9" transform="matrix(0.6374 -0.7705 0.7705 0.6374 -138.9464 89.4496)" class="st0" width="2.2" height="0.9"/>
<path class="st0" d="M13.8,169.2c0,0,1.4,12.1,2,21.3c0,0.4,0.2,0.7,0.6,0.9c1.9,0.9,4.2,0.8,6-0.5c0.5-0.3,0.8-0.9,0.8-1.5
	c-0.1-3.5-0.3-16.8,0.5-25.2c1-9.8-4.7-9.2-4.7-9.2l-6.8,7.5L13.8,169.2z"/>
<path class="st1" d="M19,192.5c-1,0-1.9-0.2-2.8-0.6c-0.5-0.2-0.8-0.7-0.9-1.3c-0.6-8.9-1.9-20.6-2-21.3l-1.7-6.9l7.1-7.8h0.2
	c1.3-0.1,2.5,0.4,3.5,1.4c1.6,1.6,2.2,4.4,1.8,8.4c-0.9,8.3-0.6,21.4-0.5,25.2c0,0.8-0.4,1.5-1,1.9C21.5,192.1,20.3,192.5,19,192.5z
	 M12.7,162.7l1.6,6.5c0,0.1,1.4,12.2,2,21.4c0,0.2,0.1,0.4,0.3,0.5c1.8,0.9,3.9,0.7,5.5-0.4c0.4-0.2,0.6-0.6,0.6-1.1
	c-0.1-3.8-0.3-16.9,0.5-25.3c0.4-3.6-0.1-6.2-1.5-7.6c-0.7-0.7-1.6-1.1-2.5-1.1L12.7,162.7z"/>
<path class="st0" d="M5.4,172.9c-0.8,5.4-1.1,10.8-0.8,16.2C5,193,5,197,4.6,200.9c-0.1,0.5,0.3,1.1,0.8,1.1h0.1
	c1.6,0.2,3.2,0,4.6-0.6c1.2-0.6,1.9-1.8,1.9-3.1c-0.1-4.2,1.8-17.6,5.1-28.5c4-13.3-8.4,0.4-8.4,0.4L5.4,172.9z"/>
<path class="st1" d="M6.9,202.6c-0.5,0-1,0-1.5-0.1c-0.8-0.1-1.5-0.8-1.4-1.6c0,0,0,0,0-0.1c0.4-3.9,0.4-7.8,0-11.7
	c-0.3-5.5-0.1-10.9,0.8-16.3v-0.2l3.5-2.8c1.1-1.2,6.8-7.4,9.1-6.1c1.1,0.6,1.1,2.6,0,6.2c-3.2,10.8-5.2,24.2-5,28.4
	c0,1.5-0.8,2.9-2.2,3.6C9.2,202.4,8,202.6,6.9,202.6z M5.8,173.2c-0.8,5.3-1,10.6-0.7,15.9c0.4,3.9,0.3,7.9,0,11.9
	c0,0.3,0.2,0.6,0.5,0.6c1.5,0.2,3,0,4.4-0.5c1-0.5,1.6-1.5,1.6-2.7c-0.1-4.3,1.8-17.7,5.1-28.7c1.3-4.3,0.6-5,0.4-5.1
	c-1-0.6-5,2.6-8,6L5.8,173.2z"/>
<path class="st2" d="M15.9,108.5c2.3-1.2,5-1.2,7.3,0c2.7,1.5,3,18.1,3,18.1s-1,4.9,0.7,16.7s-1,26.6-1,26.6s-4.5-4.9-5.3-20.6
	s-2.8-36.9-2.8-36.9L15.9,108.5z"/>
<path class="st1" d="M26.1,171l-0.6-0.7c-0.2-0.2-4.7-5.2-5.5-20.9c-0.8-15.1-2.6-35.4-2.8-36.8l-1.9-4.2l0.4-0.2
	c2.4-1.3,5.3-1.3,7.8,0c2.8,1.5,3.2,15.7,3.2,18.5v0.1c0,0-1,5,0.7,16.6c1.7,11.8-1,26.6-1,26.8L26.1,171z M16.5,108.8l1.6,3.6
	c0,0.2,2,21.4,2.8,36.9c0.6,11.8,3.3,17.4,4.6,19.4c0.6-3.7,2.2-15.6,0.9-25.4c-1.6-11.3-0.8-16.2-0.7-16.8
	c-0.1-6.3-0.9-16.6-2.7-17.6C20.9,107.9,18.6,107.8,16.5,108.8L16.5,108.8z"/>
<path class="st2" d="M5.1,133.4c0,0-0.8,31.2-3,42.7c0,0,12.9,3.6,17.1-10.9s1.7-30.8,1.7-30.8l-1.7-8.9L10.7,109l-6.5,4.1l-2.5,2.2
	L5.1,133.4z"/>
<path class="st1" d="M5.5,177c-1.2,0-2.4-0.1-3.6-0.4l-0.4-0.1l0.1-0.4c2.2-11.1,3-41.1,3-42.6L1,115.2l2.8-2.4l7-4.4l8.8,17.2
	l1.7,8.9c0,0.2,2.4,16.7-1.7,31.1C16.7,175.4,9.8,177,5.5,177z M2.7,175.8c2.2,0.5,12.4,1.9,16-10.6c4.1-14.2,1.7-30.5,1.7-30.6
	l-1.7-8.8l-8.2-16l-6.1,3.8l-2.3,2l3.5,17.9v0.1C5.6,133.8,4.8,164.1,2.7,175.8z"/>
<path class="st2" d="M7.8,106.6c0,0,1.1,1,0.4,3.7l-0.4,1.5c0,0,3.6,6.4,9.8,6.6c0,0-2.1-5.6-1.3-8.6s-5.1-3.3-5.1-3.3L7.8,106.6z"
	/>
<path class="st1" d="M18.3,119h-0.7c-6.4-0.3-10-6.6-10.2-6.9l-0.1-0.2l0.4-1.7c0.6-2.4-0.2-3.3-0.3-3.3l-0.8-0.8h4.6
	c0.2,0,4,0.3,5.3,2c0.4,0.5,0.5,1.2,0.3,1.9c-0.8,2.7,1.2,8.2,1.2,8.3L18.3,119z M8.3,111.8c0.6,0.9,3.7,5.6,8.6,6.2
	c-0.5-1.6-1.7-5.7-1-8.1c0.1-0.4,0.1-0.8-0.2-1.1c-0.8-1.1-3.5-1.6-4.5-1.6H8.7c0.4,1.1,0.4,2.3,0,3.4L8.3,111.8z"/>
<path class="st0" d="M15.4,116c0,0,0.8-1.6,0.4-5.6l2.7,0.1c0.7,2,0.8,4.3,0.2,6.3c-0.9,3.8,0.5,8.8,0.5,8.8
	C18.1,122.3,16.8,119.1,15.4,116z"/>
<path class="st1" d="M18.7,125.7c-1.1-3.2-2.3-6.4-3.8-9.5l-0.1-0.2l0.1-0.2c0,0,0.8-1.6,0.3-5.4l-0.1-0.6l3.5,0.1l0.1,0.3
	c0.8,2.1,0.9,4.5,0.2,6.6c-0.9,3.6,0.5,8.5,0.5,8.5L18.7,125.7z M15.9,115.9c0.7,1.5,1.4,3,2,4.6c-0.1-1.3,0-2.6,0.3-3.9
	c0.5-1.9,0.5-3.9-0.1-5.7l-1.8-0.1C16.6,112.6,16.4,114.3,15.9,115.9L15.9,115.9z"/>
<path class="st0" d="M8.5,110.1c0,0-0.7,4,6.9,5.9c0,0,3.1,5,3.8,9.6c0,0.1,0,0.1-0.1,0.1c0,0-0.1,0-0.1-0.1c-1.2-2.5-3-4.7-5.2-6.3
	c-0.3-0.2-0.5-0.5-0.6-0.8l-0.5-1.5c-0.1-0.2-0.2-0.3-0.4-0.2l-1.7,0.6c-0.2,0.1-0.5,0.1-0.7,0c-1-0.4-3.8-1.8-4.2-4
	c-0.6-2.7,0.6-4.6,2.8-4.9L8.5,110.1z"/>
<path class="st1" d="M19.1,126.2c-0.2,0-0.4-0.1-0.5-0.3c-1.1-2.4-2.9-4.5-5-6.1c-0.4-0.2-0.7-0.6-0.8-1l-0.5-1.3l-1.5,0.6
	c-0.3,0.1-0.7,0.1-1,0c-1.2-0.5-4-2-4.5-4.4c-0.4-1.3-0.1-2.7,0.6-3.9c0.6-0.9,1.6-1.4,2.6-1.6l0.5-0.1l0.1,2.1l0,0
	c0,0.2-0.5,3.6,6.5,5.3l0.2,0.1l0.1,0.2c0.1,0.2,3.2,5.2,3.9,9.8c0,0.3-0.1,0.6-0.4,0.6L19.1,126.2z M12.3,116.3
	c0.1,0,0.2,0,0.3,0.1c0.2,0.1,0.3,0.2,0.4,0.4l0.5,1.5c0.1,0.2,0.2,0.4,0.5,0.6c1.6,1.2,3,2.6,4.1,4.3c-0.8-2.4-1.8-4.7-3.1-6.9
	c-7.3-1.9-7.1-5.7-7-6.3v-0.9c-0.6,0.2-1.1,0.5-1.5,1.1c-0.6,0.9-0.7,2.1-0.4,3.1c0.4,2,3.1,3.3,3.9,3.7c0.1,0,0.2,0,0.3,0l1.7-0.6
	C12.1,116.4,12.2,116.3,12.3,116.3L12.3,116.3z"/>
<path class="st2" d="M8.9,107.4c0.5,1.4,2.3,3.7,8.4,3.7c0.5,0,1-0.4,1.2-0.9c1.1-3.7,1-7.7-0.3-11.4l-0.4-1.7L8.6,99l-0.7,4.1
	c0,0-2.1-0.2-1.5,2c0.3,1,0.9,1.3,1.4,1.4S8.8,106.9,8.9,107.4z"/>
<path class="st1" d="M17.1,111.6c-6.2,0-8-2.5-8.6-4l0,0c-0.1-0.3-0.4-0.5-0.8-0.5c-1.4-0.4-2.2-1.7-1.8-3.1
	c0.1-0.2,0.1-0.4,0.3-0.6c0.3-0.4,0.8-0.6,1.3-0.6l0.7-4.1l10-2.1l0.5,2.2c1.3,3.7,1.4,7.8,0.3,11.6c-0.2,0.7-0.9,1.2-1.6,1.2H17.1z
	 M9.4,107.2c0.5,1.3,2.2,3.4,7.9,3.4c0.3,0,0.6-0.2,0.7-0.5c1.1-3.6,1-7.5-0.3-11l-0.3-1.3L9,99.5l-0.7,4.3H7.9
	c-0.3,0-0.7,0.1-0.9,0.3c-0.2,0.4-0.2,0.8,0,1.1c0.3,1,0.8,1,1,1C8.6,106.2,9.2,106.6,9.4,107.2L9.4,107.2z"/>
<path class="st1" d="M7.1,99.6c-0.9-0.4-1.6-1.1-1.9-2c-0.6-1.3-0.3-2.8,0.7-3.8c0.6-0.6,1.3-1,2.1-1.2c2.7-0.6,4.9,2.3,7.6,0.9
	c3.4-1.7,0-3.1-1.2-2c0,0,2-2.4,4.3-0.4c2.9,2.5,1.1,7.6-3.2,7.8c-1.7,0-3.3,0.4-4.9,1c-0.9,0.4-2,0.4-2.9,0L7.1,99.6z"/>
<path class="st1" d="M4.6,103.4c-0.8-1.3-1.1-2.9-0.8-4.4c0.5-1.6,3.3-0.7,4.9-0.1c0.5,0.2,0.8,0.8,0.6,1.3l-0.9,2.6
	c-0.2,0.5-0.6,0.8-1.1,0.9l-1.9,0.1L4.6,103.4z"/>
<path class="st2" d="M4.1,113.1l-2.5,2.2c-0.6,0.6-1,1.4-1.1,2.2c-0.3,3.4-0.4,12.4,4.6,19.2c0.6,0.8,1.4,1.2,2.4,1.3l0,0
	c1.4,0.1,2.8-0.4,3.9-1.3c2.2-2.1,6.4-6,10-9.8c0.3-0.3,0.3-0.9,0-1.2l-2.3-2.4c-0.3-0.3-0.8-0.4-1.1-0.1l-8.7,7.7
	c-0.5-4.4-1.5-8.8-3.1-12.9L4.1,113.1z"/>
<path class="st1" d="M8,138.5H7.5c-1.1-0.1-2.1-0.7-2.7-1.5c-5-6.9-5-16-4.7-19.5c0.1-1,0.5-1.9,1.3-2.5l2.5-2.2l0.6,0.7L2,115.7
	c-0.5,0.5-0.9,1.2-0.9,1.9c-0.2,3.5-0.3,12.2,4.5,18.9c0.5,0.6,1.2,1.1,2,1.1c1.3,0.1,2.6-0.3,3.5-1.2c2.2-2,6.3-6,10-9.8
	c0.1-0.2,0.1-0.4,0-0.5l-2.3-2.4c-0.1-0.1-0.4-0.2-0.5-0.1L8.9,132l-0.1-1c-0.5-4.4-1.5-8.7-3-12.8l0.9-0.3c1.5,3.9,2.5,8,3,12.1
	l8-7.1c0.6-0.4,1.3-0.4,1.8,0.1l2.3,2.4c0.5,0.5,0.5,1.3,0,1.9c-3.7,3.7-7.8,7.7-10,9.7C10.8,138,9.4,138.5,8,138.5z"/>
<path class="st1" d="M10.4,124.5l0.2,0.7c0.1,0.3,0.3,0.4,0.6,0.3c0,0,0.1,0,0.1-0.1l2-1.2c0.4-0.2,0.6-0.6,0.5-1.1l-0.1-0.8
	c-0.1-0.3-0.3-0.4-0.6-0.4c-0.1,0-0.1,0-0.1,0.1l-2,1.2C10.5,123.6,10.3,124.1,10.4,124.5z"/>
<path class="st1" d="M11.1,126.1c-0.1,0-0.2,0-0.4-0.1c-0.3-0.1-0.5-0.4-0.5-0.6l-0.2-0.7c-0.2-0.6,0.1-1.3,0.7-1.6l2-1.2
	c0.3-0.2,0.6-0.2,0.9-0.1c0.3,0.1,0.5,0.4,0.5,0.7l0.1,0.8c0.1,0.6-0.2,1.2-0.7,1.5l-2,1.2C11.4,126,11.2,126.1,11.1,126.1z
	 M10.9,124.4l0.2,0.7l2-1.2c0.2-0.1,0.3-0.3,0.3-0.6l-0.1-0.8l-2,1.2C11,123.9,10.9,124.2,10.9,124.4z"/>
<path class="st1" d="M15.6,106.8l-0.3-0.9l1.1-0.3c0.1,0,0.2-0.2,0.2-0.3l0,0l-0.7-2l0.9-0.3l0.6,2c0.1,0.3,0.1,0.7-0.1,0.9
	c-0.2,0.3-0.4,0.5-0.8,0.6L15.6,106.8z"/>
<rect x="8.3" y="104.6" transform="matrix(0.3005 -0.9538 0.9538 0.3005 -94.1446 81.9741)" class="st1" width="1" height="1.2"/>
<path class="st1" d="M14.1,150.6c-1,0-1.9-0.8-2.1-1.8l-0.8-4.7c-0.1-0.4,0-0.7,0.2-1s0.5-0.4,0.8-0.5l4.1-0.4
	c0.3,0,0.7,0.1,0.9,0.3c0.3,0.3,0.4,0.6,0.4,1v4.8c0,1.1-0.8,2-1.9,2.1L14.1,150.6L14.1,150.6z M16.5,143.3L16.5,143.3l-4.1,0.4
	c-0.1,0-0.1,0-0.2,0.1c-0.1,0.1-0.1,0.2-0.1,0.2l0.8,4.7c0.1,0.6,0.6,1,1.2,1l1.5-0.1c0.6-0.1,1-0.6,1-1.2v-4.8
	C16.6,143.5,16.6,143.4,16.5,143.3C16.6,143.3,16.5,143.3,16.5,143.3L16.5,143.3z"/>
<rect x="12.6" y="138" transform="matrix(0.9918 -0.1281 0.1281 0.9918 -17.8965 2.8361)" class="st1" width="1" height="5.1"/>
<rect x="14.9" y="139.8" class="st1" width="1" height="3"/>
<path class="st1" d="M13.9,102.8c0.2,0.7,0.1,1.4-0.3,1.5s-0.9-0.3-1.2-1s-0.1-1.4,0.3-1.5S13.6,102.1,13.9,102.8z"/>
<path class="st1" d="M18.8,101.4c0.1,0.7-0.1,1.4-0.6,1.4s-0.9-0.5-1-1.2s0.1-1.4,0.6-1.4S18.7,100.6,18.8,101.4z"/>
<rect x="15.3" y="109.6" transform="matrix(0.9968 -7.974764e-02 7.974764e-02 0.9968 -8.7277 1.6625)" class="st1" width="2.3" height="1"/>
<path class="st1" d="M23.7,110.6l3.7-1c0.5-0.1,0.9,0.3,0.8,1l-0.3,10.3c0,0.6-0.3,1.2-0.9,1.4l-3.6,1c-0.5,0.1-0.9-0.3-0.8-1
	l0.2-10.3C22.8,111.4,23.1,110.8,23.7,110.6z"/>
<path class="st1" d="M23.3,123.7c-0.2,0-0.4-0.1-0.6-0.2c-0.4-0.3-0.5-0.8-0.5-1.2l0.2-10.3c0-0.8,0.5-1.6,1.2-1.9l0,0l3.7-1
	c0.3-0.1,0.6,0,0.9,0.2c0.4,0.3,0.5,0.8,0.5,1.3l-0.3,10.3c0,0.8-0.5,1.5-1.2,1.8l-3.6,1C23.4,123.7,23.4,123.7,23.3,123.7z
	 M23.8,111c-0.4,0.2-0.6,0.6-0.5,1L23,122.3c0,0.2,0,0.4,0.2,0.5h0.1l3.6-0.9c0.3-0.2,0.6-0.6,0.5-1l0.3-10.3c0-0.2,0-0.4-0.2-0.5
	h-0.1L23.8,111z"/>
<path class="st2" d="M24.2,110.5l3.7-1c0.5-0.1,0.9,0.3,0.8,1l-0.3,10.3c0,0.6-0.3,1.2-0.9,1.4l-3.6,1c-0.5,0.1-0.9-0.3-0.8-1
	l0.2-10.3C23.3,111.3,23.6,110.7,24.2,110.5z"/>
<path class="st1" d="M23.8,123.7c-0.2,0-0.4-0.1-0.6-0.2c-0.4-0.3-0.5-0.8-0.5-1.2l0.2-10.3c0-0.8,0.5-1.6,1.2-1.9l3.7-1
	c0.3-0.1,0.6,0,0.9,0.2c0.3,0.3,0.5,0.8,0.5,1.3l-0.3,10.3c0,0.8-0.5,1.5-1.2,1.8l-3.6,0.9C23.9,123.6,23.9,123.7,23.8,123.7z
	 M28.1,109.9L28.1,109.9l-3.7,1c-0.4,0.2-0.6,0.6-0.5,1l-0.2,10.3c0,0.2,0,0.4,0.2,0.5H24l3.6-1c0.4-0.2,0.6-0.6,0.5-1l0.3-10.3
	C28.4,110.2,28.4,110,28.1,109.9L28.1,109.9z"/>
<path class="st0" d="M20.5,122.3c0,0-0.3-3.1,1.3-4.3l0.7-0.3v2.6c0,0.3,0.3,0.6,0.6,0.6c0.1,0,0.2,0,0.3-0.1c1.2-0.8,2.2-1.8,3-3.1
	c0.9-1.9,2.1-0.3,1.8,2.3s-5,4.8-5,4.8L20.5,122.3z"/>
<path class="st1" d="M23.1,125.3l-3.1-2.8v-0.2c0-0.1-0.3-3.4,1.5-4.7h0.1l1.1-0.5v3.3c0.1,0.1,0.8-0.1,0.8-0.1
	c1-0.7,1.8-1.7,2.4-2.8c0.5-1.2,1.2-1.1,1.5-1.1c0.9,0.2,1.4,1.8,1.2,3.6c-0.3,2.9-5,5.1-5.2,5.2L23.1,125.3z M20.9,122.1l2.3,2.1
	c1.4-0.7,4.2-2.5,4.4-4.3s-0.3-2.5-0.5-2.6s-0.2,0.1-0.4,0.5c-0.8,1.3-1.8,2.4-3.1,3.2c-0.3,0.2-0.8,0.3-1.1,0.1
	c-0.4-0.2-0.6-0.5-0.6-0.9v-1.8C20.9,119.4,20.9,121.4,20.9,122.1L20.9,122.1z"/>
<path class="st0" d="M23,125.2l-1.1,0.9l-2.7-2.8l1.1-0.9c0.2-0.2,0.5-0.2,0.7,0l2.1,2.1c0.2,0.2,0.2,0.4,0.1,0.6
	C23,125.2,23,125.2,23,125.2z"/>
<path class="st1" d="M21.8,126.7l-3.3-3.5L20,122c0.4-0.3,0.9-0.3,1.3,0l2.1,2.1c0.2,0.2,0.3,0.5,0.3,0.7c0,0.3-0.2,0.5-0.4,0.7
	L21.8,126.7z M19.9,123.3l2,2.1l0.8-0.6l0.3,0.4l-0.3-0.4l-2.1-2.1L19.9,123.3z"/>
<rect x="25.9" y="107.2" transform="matrix(0.9823 -0.1874 0.1874 0.9823 -19.703 6.9869)" class="st1" width="2.4" height="1"/>
</svg>
