<?xml version="1.0" encoding="utf-8"?>
<!-- Generator: Adobe Illustrator 25.2.1, SVG Export Plug-In . SVG Version: 6.00 Build 0)  -->
<svg version="1.1" xmlns="http://www.w3.org/2000/svg" xmlns:xlink="http://www.w3.org/1999/xlink" x="0px" y="0px"
	 viewBox="0 0 3710 3710" enable-background="new 0 0 3710 3710" xml:space="preserve">
<g id="Background">
</g>
<g id="Illustration">
	<g>
		<linearGradient id="SVGID_1_" gradientUnits="userSpaceOnUse" x1="3668.3162" y1="3521.4563" x2="1484.7649" y2="1562.6804">
			<stop  offset="0" style="stop-color:#DAE3FE"/>
			<stop  offset="1" style="stop-color:#E9EFFD"/>
		</linearGradient>
		<path fill="url(#SVGID_1_)" d="M2940.7,2843.4c-73.6,75.8-89,86.8-139.4,120.4c-491.6,328.3-1203,248.9-1376.7,216.6
			c-280.3-52.2-418-70.6-621.3-254.3c-462-417.4-439.5-1288.1-86.5-1827.4c41.9-64,388.2-560.2,951.4-633.8
			c13.8-1.8,666.2-88,1106.5,280.9c63,52.8,164.4,148,258.5,293.3C3376.9,1570.2,3378,2392.7,2940.7,2843.4z"/>
		<g>
			<linearGradient id="SVGID_2_" gradientUnits="userSpaceOnUse" x1="1895.2029" y1="2596.0352" x2="1946.7272" y2="4172.7192">
				<stop  offset="0" style="stop-color:#09005D"/>
				<stop  offset="1" style="stop-color:#1A0F91"/>
			</linearGradient>
			<polygon fill="url(#SVGID_2_)" points="1642.4,2620 1586.1,3124.5 2238.8,3124.5 2153.8,2620 			"/>
			<linearGradient id="SVGID_3_" gradientUnits="userSpaceOnUse" x1="1879.439" y1="993.3561" x2="1817.6067" y2="2884.3577">
				<stop  offset="0" style="stop-color:#09005D"/>
				<stop  offset="1" style="stop-color:#1A0F91"/>
			</linearGradient>
			<path fill="url(#SVGID_3_)" d="M429.2,1388.5v1259.1c0,103.6,82.5,188.3,186.1,191c459.9,11.9,2068.4,40.6,2506.2,34.2
				c75.2-1.1,136.2-61.3,138.4-136.5c8.4-292.5,22.2-995.9-28.6-1322.5c-10.7-68.8-68.7-120.2-138.3-122.4
				c-385.3-12.3-2090.5-51.5-2528.1-41.6C489.5,1251.3,429.2,1313,429.2,1388.5z"/>
			<linearGradient id="SVGID_4_" gradientUnits="userSpaceOnUse" x1="2008.9843" y1="912.5984" x2="1594.2341" y2="3545.3523">
				<stop  offset="0" style="stop-color:#FDF53F"/>
				<stop  offset="1" style="stop-color:#D93C65"/>
			</linearGradient>
			<path fill="url(#SVGID_4_)" d="M508.2,1382.3v1196.3c0,60.5,48.5,109.8,109,110.7l2441.3,30.2c60,0.9,109.1-47.3,109.3-107.3
				l4.1-1185.6c0.2-42.9-34-78-76.9-79L595.6,1297C547.7,1295.9,508.2,1334.4,508.2,1382.3z"/>
			<path fill="#91B3FA" d="M3186.2,2768.3C3186.2,2768.3,3186.2,2768.3,3186.2,2768.3l-2678.1-45.6c-1.8,0-3.2-1.5-3.1-3.2
				c0-1.8,1.4-3,3.2-3.1l2678,45.6c1.8,0,3.2,1.5,3.1,3.2C3189.4,2766.9,3187.9,2768.3,3186.2,2768.3z"/>
			<linearGradient id="SVGID_5_" gradientUnits="userSpaceOnUse" x1="2008.9843" y1="912.5984" x2="1594.2341" y2="3545.3523">
				<stop  offset="0" style="stop-color:#FF928E"/>
				<stop  offset="1" style="stop-color:#FE7062"/>
			</linearGradient>
			<path fill="url(#SVGID_5_)" d="M508.2,1382.3v1196.3c0,60.5,48.5,109.8,109,110.7l2441.3,30.2c60,0.9,109.1-47.3,109.3-107.3
				l4.1-1185.6c0.2-42.9-34-78-76.9-79L595.6,1297C547.7,1295.9,508.2,1334.4,508.2,1382.3z"/>
			<g>
				<path fill="#91B3FA" d="M1873.6,2824c-17.1,0-31.1-13.9-31.1-31c0-17.1,13.9-31.1,31.1-31.1c17.1,0,31,13.9,31,31.1
					C1904.7,2810.1,1890.7,2824,1873.6,2824z M1873.6,2768.3c-13.6,0-24.7,11.1-24.7,24.7c0,13.6,11.1,24.7,24.7,24.7
					c13.6,0,24.7-11.1,24.7-24.7C1898.3,2779.3,1887.2,2768.3,1873.6,2768.3z"/>
			</g>
			<linearGradient id="SVGID_6_" gradientUnits="userSpaceOnUse" x1="1942.7245" y1="2458.7129" x2="1896.3519" y2="3293.4272">
				<stop  offset="0" style="stop-color:#09005D"/>
				<stop  offset="1" style="stop-color:#1A0F91"/>
			</linearGradient>
			<path fill="url(#SVGID_6_)" d="M2379.4,3227.8h-955.2c-26,0-45.4-18.5-40.4-38.3l12.3-48.5c3.7-14.6,19.7-25.3,38.8-25.9
				l920.9-28.7c19.9-0.6,37.5,9.9,41.9,25.1l22.1,77.2C2425.3,3208.7,2405.8,3227.8,2379.4,3227.8z"/>
			<path fill="#91B3FA" d="M1938.4,3128.3c-1.7,0-3.2-1.4-3.2-3.1c0-1.8,1.4-3.2,3.1-3.2l39.5-0.6c1.7,0,3.2,1.4,3.2,3.1
				c0,1.8-1.4,3.2-3.1,3.2L1938.4,3128.3L1938.4,3128.3z"/>
			<path fill="#91B3FA" d="M1419.1,3201.1c-0.2,0-0.3,0-0.5,0c-1.7-0.3-2.9-1.9-2.6-3.6l5.6-35.3c3-19,19.2-33,38.4-33.2l418.5-6.1
				c1.8,0.1,3.2,1.4,3.2,3.1c0,1.8-1.4,3.2-3.1,3.2l-418.5,6.1c-16.1,0.2-29.7,12-32.2,27.9l-5.6,35.3
				C1422,3200,1420.6,3201.1,1419.1,3201.1z"/>
		</g>
		<path opacity="0.5" fill="#FFFFFF" d="M2877.3,2689.4l-2107.8-24.3c-61.3-0.7-110.6-52.1-110.6-115.2v-778.5
			c0-64.4,51.2-116.2,113.7-115.2l2107.8,34.7c61.1,1,110.1,52.3,110.1,115.2v768C2990.4,2638.4,2939.5,2690.2,2877.3,2689.4z"/>
		<path opacity="0.78" fill="#FFFFFF" d="M2938.5,1635.8l-2225.7-21.4c-28-0.3-50.6-17-50.6-37.5v-76.6c0-21,23.4-37.8,52-37.5
			l2225.7,25.4c28,0.3,50.4,17,50.4,37.5v72.6C2990.4,1619.2,2967,1636.1,2938.5,1635.8z"/>
		<path opacity="0.78" fill="#FFFFFF" d="M2129.8,2584.2l-1264.9-17.6c-52.3-0.7-94.4-43.2-94.7-95.6l-2.6-625.5
			c-0.2-53.2,42.8-96.4,96-96.4h1267.6c53,0,96,43,96,96v643.1C2227.2,2541.7,2183.4,2584.9,2129.8,2584.2z"/>
		<path opacity="0.78" fill="#FFFFFF" d="M2875.3,2146.6h-519.9c-29.1,0-52.6-23.6-52.6-52.6v-291.1c0-29.5,24.3-53.3,53.8-52.6
			l519.9,11.4c28.6,0.6,51.5,24,51.5,52.6v279.7C2927.9,2123,2904.4,2146.6,2875.3,2146.6z"/>
		<path opacity="0.78" fill="#FFFFFF" d="M2877.5,2578.2h-524.4c-27.8,0-50.4-22.6-50.4-50.4v-296.7c0-27.8,22.6-50.4,50.4-50.4
			h524.4c27.8,0,50.4,22.6,50.4,50.4v296.7C2927.9,2555.7,2905.4,2578.2,2877.5,2578.2z"/>
		<g>
			<g>
				<linearGradient id="SVGID_7_" gradientUnits="userSpaceOnUse" x1="569.5227" y1="3211.5986" x2="678.6247" y2="3211.5986">
					<stop  offset="0" style="stop-color:#09005D"/>
					<stop  offset="1" style="stop-color:#1A0F91"/>
				</linearGradient>
				<path fill="url(#SVGID_7_)" d="M584.7,3173.2c0,0-12.1,19.1-15.2,72.6c-0.3,5,3.7,9.2,8.7,9.2H673c3.8,0,6.5-3.7,5.3-7.4
					c-5.6-16.4-22.4-56.5-59.8-79.4L584.7,3173.2z"/>
				<linearGradient id="SVGID_8_" gradientUnits="userSpaceOnUse" x1="580.5899" y1="3160.9001" x2="624.8382" y2="3160.9001">
					<stop  offset="0" style="stop-color:#FEBBBA"/>
					<stop  offset="1" style="stop-color:#FF928E"/>
				</linearGradient>
				<path fill="url(#SVGID_8_)" d="M580.6,3136.9l5.4,45c0.5,3.9,3.5,7,7.4,7.4c5.2,0.6,12.7,1,20-0.2c6.7-1.1,11.5-7,11.5-13.8
					v-43.4L580.6,3136.9z"/>
				<linearGradient id="SVGID_9_" gradientUnits="userSpaceOnUse" x1="801.5406" y1="3209.8542" x2="972.7255" y2="3209.8542">
					<stop  offset="0" style="stop-color:#09005D"/>
					<stop  offset="1" style="stop-color:#1A0F91"/>
				</linearGradient>
				<path fill="url(#SVGID_9_)" d="M819.3,3168.2c0,0-18.1,28.2-17.8,66.9c0.1,9.1,7.7,16.4,16.8,16.4h147.3c6.9,0,9.7-8.9,4.1-12.8
					c-27.9-19.6-82.6-56.1-122.3-70.5H819.3z"/>
				<linearGradient id="SVGID_10_" gradientUnits="userSpaceOnUse" x1="804.1412" y1="3141.2524" x2="848.1453" y2="3141.2524">
					<stop  offset="0" style="stop-color:#FEBBBA"/>
					<stop  offset="1" style="stop-color:#FF928E"/>
				</linearGradient>
				<path fill="url(#SVGID_10_)" d="M804.1,3119.6l11.4,55.5c1.3,6.2,7.4,10.4,13.5,9c3.8-0.8,8.2-2.4,12.9-5.4
					c4.5-2.8,6.8-8.2,5.9-13.4l-11.8-67.3L804.1,3119.6z"/>
				<linearGradient id="SVGID_11_" gradientUnits="userSpaceOnUse" x1="841.2356" y1="2622.22" x2="1459.5444" y2="1962.6907">
					<stop  offset="0" style="stop-color:#09005D"/>
					<stop  offset="1" style="stop-color:#1A0F91"/>
				</linearGradient>
				<path fill="url(#SVGID_11_)" d="M601.6,2347.5c0,0-39.8,35.1-47.3,77.3c-7.5,42.2,21.2,727.9,21.2,727.9s39.8,6.6,60.3-5.8
					c0,0,24.3-445,42.8-547.8c0,0,96.9,461,123.8,544.3c0,0,38.3,4.7,50.7-2.6c0,0-25.4-597.5-57.3-703.8L601.6,2347.5z"/>
				<linearGradient id="SVGID_12_" gradientUnits="userSpaceOnUse" x1="1308.6927" y1="1637.1289" x2="788.2825" y2="2348.1846">
					<stop  offset="0" style="stop-color:#09005D"/>
					<stop  offset="1" style="stop-color:#1A0F91"/>
				</linearGradient>
				<path fill="url(#SVGID_12_)" d="M677.5,2584.5c-1.9,0-3.7-1.3-4.2-3.2l-16.5-63.2l-35.1-22.5c-2-1.3-2.6-4-1.3-6
					c1.3-2,4-2.6,6-1.3l36.5,23.4c0.9,0.6,1.6,1.5,1.8,2.5l16.9,64.8c0.6,2.3-0.8,4.7-3.1,5.3
					C678.2,2584.5,677.8,2584.5,677.5,2584.5z"/>
				<linearGradient id="SVGID_13_" gradientUnits="userSpaceOnUse" x1="1389.4829" y1="1473.2996" x2="951.5134" y2="2004.0156">
					<stop  offset="0" style="stop-color:#4F52FF"/>
					<stop  offset="1" style="stop-color:#4042E2"/>
				</linearGradient>
				<path fill="url(#SVGID_13_)" d="M994.1,1951.3c-167.4-13.9-211.2,20.7-211.2,20.7l80.5,127c0,0,164.5-3.2,282.4-94.1
					c-22.1-23.8-37.4-50-47.2-70.5C1068.2,1947.1,1033.2,1954.5,994.1,1951.3z"/>
				<linearGradient id="SVGID_14_" gradientUnits="userSpaceOnUse" x1="1098.5577" y1="1852.757" x2="1262.0986" y2="1852.757">
					<stop  offset="0" style="stop-color:#FEBBBA"/>
					<stop  offset="1" style="stop-color:#FF928E"/>
				</linearGradient>
				<path fill="url(#SVGID_14_)" d="M1256.3,1705.5c-0.2-5.4-7.5-6.8-9.8-2l-21.4,45.6c-4.1,8.8-5.5,18.7-3.8,28.3l7.5,26.5
					c2.2,12.9-1.1,26.2-9.3,36.5c-19.6,24.5-61.4,69.4-121,94.1c9.8,20.4,25.1,46.7,47.2,70.5c43.3-33.3,80.2-78.5,100.5-139.6
					c9.7-3,16.2-12.1,15.8-22.3L1256.3,1705.5z"/>
				<linearGradient id="SVGID_15_" gradientUnits="userSpaceOnUse" x1="948.0944" y1="1808.8076" x2="858.5727" y2="2656.6345">
					<stop  offset="0" style="stop-color:#4F52FF"/>
					<stop  offset="1" style="stop-color:#4042E2"/>
				</linearGradient>
				<path fill="url(#SVGID_15_)" d="M1049.2,2024.9c-58.9-63.5-171.2-92.2-236.2-104c-28.5-5.2-56.5,10.7-66.6,37.8
					c-29.3,78.6-108.8,283.2-124.2,318.4c-12.7,28.8-25.9,57-34.3,74.6c-5,10.5-0.6,23.1,9.9,28.2c54.7,26.4,153.1,56.2,193,67.8
					c8.8,2.6,17.5-4,17.5-13.2c0-7.8,2.1-15.4,6.1-22l151.1-251.8c94.2,104.4,176.6,114,240,91.1c-10.7-32.9-17.6-65.9-21-99
					C1090.9,2136.9,1049.2,2024.9,1049.2,2024.9z"/>
				<linearGradient id="SVGID_16_" gradientUnits="userSpaceOnUse" x1="1468.8696" y1="1888.4111" x2="1115.5018" y2="2328.0347">
					<stop  offset="0" style="stop-color:#FEBBBA"/>
					<stop  offset="1" style="stop-color:#FF928E"/>
				</linearGradient>
				<path fill="url(#SVGID_16_)" d="M1339.2,2135.4l-16.9-22.5c-54.7,37.6-100.4,46.5-137.8,40c3.3,33,10.3,66,21,99
					C1288.9,2221.8,1339.2,2135.4,1339.2,2135.4z"/>
				<linearGradient id="SVGID_17_" gradientUnits="userSpaceOnUse" x1="1535.8657" y1="1942.2625" x2="1182.4983" y2="2381.8853">
					<stop  offset="0" style="stop-color:#FEBBBA"/>
					<stop  offset="1" style="stop-color:#FF928E"/>
				</linearGradient>
				<path fill="url(#SVGID_17_)" d="M1327.3,2135.8l95.2,3.7l87.6-48.9c-12.6-7.9-83.7,8.2-83.7,8.2s-74.3-11.2-94.5-11.3
					c-16.7,0-14.3,24-13,32.2c0.3,1.7,0.5,2.7,0.5,2.7L1327.3,2135.8z"/>
				<linearGradient id="SVGID_18_" gradientUnits="userSpaceOnUse" x1="1071.329" y1="1622.7269" x2="729.092" y2="2251.5537">
					<stop  offset="0" style="stop-color:#FEBBBA"/>
					<stop  offset="1" style="stop-color:#FF928E"/>
				</linearGradient>
				<path fill="url(#SVGID_18_)" d="M902.4,1804.3l-50.2,122.5c0,0,57.7,39.9,104.1,36.1l25.1-110.2L902.4,1804.3z"/>
				<g>
					
						<linearGradient id="SVGID_19_" gradientUnits="userSpaceOnUse" x1="613.7989" y1="4309.7349" x2="462.549" y2="4509.8262" gradientTransform="matrix(0.817 -0.5767 0.5767 0.817 -2023.4279 -1428.4956)">
						<stop  offset="0" style="stop-color:#FEBBBA"/>
						<stop  offset="1" style="stop-color:#FF928E"/>
					</linearGradient>
					<path fill="url(#SVGID_19_)" d="M987.2,1720.7c1.2,1.6,36.3,128.7,36.3,128.7l-73,18.5l-51.2-115.5
						C899.3,1752.5,968,1693.5,987.2,1720.7z"/>
					
						<linearGradient id="SVGID_20_" gradientUnits="userSpaceOnUse" x1="498.2876" y1="4358.0015" x2="678.9579" y2="4358.0015" gradientTransform="matrix(0.817 -0.5767 0.5767 0.817 -2023.4279 -1428.4956)">
						<stop  offset="0" style="stop-color:#09005D"/>
						<stop  offset="1" style="stop-color:#1A0F91"/>
					</linearGradient>
					<path fill="url(#SVGID_20_)" d="M926.8,1770.1L949,1833c0.3,0.8,0.7,1.6,1.2,2.3c3,4.3,14.5,18.3,28,5.7
						c12.3-11.4,23.7-21.7,34.3-23.5c4.7-0.8,9.3,2.1,10.6,6.7c3.2,11.5,9.9,37.7,12.3,61.3c0.5,4.8-2.8,9.1-7.6,10
						c-14.3,2.7-44.5,7.6-69.7,5.8c-3.4-0.2-6.4-2.3-7.9-5.4c-7-15.2-28.3-61.3-36.2-73.2c-7.4-11.2-25.7-10.9-33.3-10.2
						c-2.5,0.2-5-0.6-6.9-2.2c-6.7-5.9-19.4-20.8-1.5-38.8c3.7-3.8,3.6-9.8-0.2-13.4c-7.7-7.2-15.9-20.1-3.1-36
						c13-16.2,30.2-13.6,40.7-9.8c4.3,1.6,8.9-0.2,11.2-4.1c1.3-2.2,3.6-3.9,7.6-3.6c5.4,0.5,9.9-4,9.8-9.4
						c-0.2-10.4,3.5-23.4,21.5-29c31.9-9.9,51.8,20.9,53.7,43.9c2,23-33.2,31.8-53.9,30.2c-15.7-1.2-27.4,14.4-32.1,21.9
						C926.2,1764.5,925.9,1767.4,926.8,1770.1z"/>
					
						<linearGradient id="SVGID_21_" gradientUnits="userSpaceOnUse" x1="392.2774" y1="4468.1909" x2="513.592" y2="4343.7251" gradientTransform="matrix(0.817 -0.5767 0.5767 0.817 -2023.4279 -1428.4956)">
						<stop  offset="0" style="stop-color:#FEBBBA"/>
						<stop  offset="1" style="stop-color:#FF928E"/>
					</linearGradient>
					<path fill="url(#SVGID_21_)" d="M922.4,1845.4c0,0-5.1-39.9-21.7-41.9c-16.6-2-32.8,11.7-16.3,34.1
						C904.9,1865.4,922.4,1845.4,922.4,1845.4z"/>
				</g>
			</g>
			<g>
				<path fill="#91B3FA" d="M1297.5,1542.2l969.2-6.1c22.2-0.1,40.2,16.8,40,37.6l-4.1,502.8c-0.2,21-18.7,37.7-41,37.1l-958.7-27.1
					c-21.3-0.6-38.3-16.9-38.6-36.9l-6.4-469.6C1257.7,1559.4,1275.5,1542.4,1297.5,1542.2z"/>
				<g>
					<path fill="#BDD0FB" d="M2262.9,2083l-958.9-27.1c-3.7-0.1-6.7-3-6.7-6.6l-6.4-469.6c0-1.9,0.7-3.5,2-4.8
						c1.3-1.3,3-1.9,4.8-1.9l969.2-6.1c1.9,0,3.5,0.7,4.9,1.9c1.4,1.3,2.1,3,2.1,4.9l-4.1,502.8
						C2269.8,2080,2266.7,2083,2262.9,2083z M2267.4,1573.5l-969.6,5.9l5.9,469.9l0.4,0.2l958.8,27.1L2267.4,1573.5z"/>
				</g>
				<path fill="#BDD0FB" d="M1353.4,1642.5c0,16.2,10.1,29.4,22.5,29.4h824.3c12.4,0,22.5-13.1,22.5-29.4
					c0-16.2-10.1-29.4-22.5-29.4h-824.3C1363.5,1613.2,1353.4,1626.3,1353.4,1642.5z"/>
				<path fill="#BDD0FB" d="M1357.5,1702.9h347.1c12.3,0,22.2,9.4,22.2,20.9v269.1c0,11.8-10.3,21.2-22.9,20.9l-340-8.9
					c-11.8-0.3-21.3-9.2-21.6-20.4l-7.1-260.3C1334.9,1712.6,1345,1702.9,1357.5,1702.9z"/>
				<path fill="#BDD0FB" d="M1799.2,1709.5h387.4c8.4,0,15.3,7.9,15.3,17.6s-6.8,17.6-15.3,17.6h-387.4c-8.4,0-15.3-7.9-15.3-17.6
					S1790.8,1709.5,1799.2,1709.5z"/>
				<path fill="#BDD0FB" d="M1783.9,1802.5c0,9.7,6.8,17.6,15.2,17.6h387.5c8.4,0,15.2-7.9,15.2-17.6v-10.9c0-9.9-7-17.8-15.6-17.6
					l-387.5,10.9C1790.5,1785.2,1783.9,1793,1783.9,1802.5z"/>
			</g>
		</g>
		<g>
			
				<linearGradient id="SVGID_22_" gradientUnits="userSpaceOnUse" x1="-852.0619" y1="1418.0508" x2="-991.7596" y2="1846.2534" gradientTransform="matrix(0.7738 -0.6335 0.6335 0.7738 2385.0835 -47.8667)">
				<stop  offset="0" style="stop-color:#FEBBBA"/>
				<stop  offset="1" style="stop-color:#FF928E"/>
			</linearGradient>
			<path fill="url(#SVGID_22_)" d="M2574.2,1749.3c0,0,6.3,276,296.5,324.4l52.1-51.4c0,0-251.3-85.4-316.7-264l14-94.7l-9.8-62.7
				L2574.2,1749.3z"/>
			<g>
				<linearGradient id="SVGID_23_" gradientUnits="userSpaceOnUse" x1="3017.2852" y1="602.9776" x2="1450.9789" y2="2197.5581">
					<stop  offset="0" style="stop-color:#4F52FF"/>
					<stop  offset="1" style="stop-color:#4042E2"/>
				</linearGradient>
				<path fill="url(#SVGID_23_)" d="M3070.3,1644.2L1919,1672.4c-46.7,1.1-86.6-33.4-92.1-79.8l-91.4-768.1
					c-6.2-52.3,33.3-98.8,85.9-101.1l1223.3-53.3c50.6-2.2,93.2,37.6,94.4,88.2l19.4,793.1C3159.8,1601.5,3120.3,1643,3070.3,1644.2
					z"/>
				<path fill="#91B3FA" d="M3023.6,1603.8l-1063.2,26c-43.1,1.1-79.9-30.1-85-72l-84-693.3c-5.7-47.2,30.8-89.2,79.4-91.3
					l1129.7-48.7c46.7-2,86,33.9,87.1,79.6l17.5,716C3106.3,1565.2,3069.8,1602.7,3023.6,1603.8z"/>
				<linearGradient id="SVGID_24_" gradientUnits="userSpaceOnUse" x1="1737.3127" y1="778.012" x2="3143.1311" y2="778.012">
					<stop  offset="0" style="stop-color:#4F52FF"/>
					<stop  offset="1" style="stop-color:#4042E2"/>
				</linearGradient>
				<path fill="url(#SVGID_24_)" d="M1744.8,885l1398.4-62.7l-1.6-61.9c-1.2-50.6-43.8-91.4-94.4-89.2l-1223.3,52.8
					c-52.6,2.3-92.1,50.6-85.8,102.8L1744.8,885z"/>
				<path fill="#BDD0FB" d="M2270.2,1414.6l-316.3,14.2c-10.8,0.5-20.9-27.2-23.2-63.3l-18.5-287.4c-2.5-39.6,5.3-73.6,17.1-74.1
					l321.9-14.4c11.3-0.5,21.8,29.9,23.5,67.8l12.9,287.7C2289.2,1382.9,2281.4,1414.1,2270.2,1414.6z"/>
				<path fill="#BDD0FB" d="M3021.7,1015.9l-687.8,30.8c-11.6,0.5-21.4-8.4-21.9-20l-0.4-8.7c-0.5-11.6,8.4-21.4,20-21.9l687.8-30.8
					c11.6-0.5,21.4,8.4,21.9,20l0.4,8.7C3042.2,1005.6,3033.2,1015.4,3021.7,1015.9z"/>
				<path fill="#BDD0FB" d="M3033.3,1195.8l-687.8,30.8c-11.6,0.5-21.4-8.4-21.9-20l-0.4-8.7c-0.5-11.6,8.4-21.4,20-21.9l687.8-30.9
					c11.6-0.5,21.4,8.4,21.9,20l0.4,8.7C3053.8,1185.5,3044.9,1195.3,3033.3,1195.8z"/>
				<path fill="#BDD0FB" d="M2696.8,938.7L1934,972.9c-11.6,0.5-21.4-8.4-21.9-20l-0.4-8.7c-0.5-11.6,8.4-21.4,20-21.9l762.8-34.2
					c11.6-0.5,21.4,8.4,21.9,20l0.4,8.7C2717.3,928.4,2708.3,938.2,2696.8,938.7z"/>
				<path fill="#BDD0FB" d="M3025.6,1104.1l-687.8,30.8c-11.6,0.5-21.4-8.4-21.9-20l-0.4-8.7c-0.5-11.6,8.4-21.4,20-21.9l687.8-30.9
					c11.6-0.5,21.4,8.4,21.9,20l0.4,8.7C3046.1,1093.8,3037.2,1103.6,3025.6,1104.1z"/>
				<path fill="#BDD0FB" d="M3038.3,1288.9l-687.8,30.8c-11.6,0.5-21.4-8.4-21.9-20l-0.4-8.7c-0.5-11.6,8.4-21.4,20-21.9l687.8-30.8
					c11.6-0.5,21.4,8.4,21.9,20l0.4,8.7C3058.8,1278.6,3049.8,1288.4,3038.3,1288.9z"/>
				<path fill="#BDD0FB" d="M3049.9,1468.8l-687.8,30.8c-11.6,0.5-21.4-8.4-21.9-20l-0.4-8.7c-0.5-11.6,8.4-21.4,20-21.9l687.8-30.8
					c11.6-0.5,21.4,8.4,21.9,20l0.4,8.7C3070.4,1458.5,3061.5,1468.3,3049.9,1468.8z"/>
				<path fill="#BDD0FB" d="M3042.2,1377.2l-687.8,30.8c-11.6,0.5-21.4-8.4-21.9-20l-0.4-8.7c-0.5-11.6,8.4-21.4,20-21.9l687.8-30.8
					c11.6-0.5,21.4,8.4,21.9,20l0.4,8.7C3062.7,1366.9,3053.8,1376.7,3042.2,1377.2z"/>
				<circle fill="#BDD0FB" cx="1850.1" cy="808.4" r="25.6"/>
				
					<ellipse transform="matrix(0.6747 -0.7381 0.7381 0.6747 34.1854 1687.1)" fill="#BDD0FB" cx="1931.1" cy="804.8" rx="25.6" ry="25.6"/>
				<circle fill="#BDD0FB" cx="2023.9" cy="800.6" r="25.6"/>
			</g>
			
				<linearGradient id="SVGID_25_" gradientUnits="userSpaceOnUse" x1="-100.0241" y1="2932.5557" x2="157.3534" y2="2932.5557" gradientTransform="matrix(1 0 0 1 3169.7083 0)">
				<stop  offset="0" style="stop-color:#FEBBBA"/>
				<stop  offset="1" style="stop-color:#FF928E"/>
			</linearGradient>
			<path fill="url(#SVGID_25_)" d="M2854.8,2695c0,0,137.7,300.1,209.9,424.4c0,0,14.3,78.2,0,102.8l-12.2,5.4l57.1-1.7
				c0,0,5.1-105.2,1.1-111.1c-4-5.9-11.9-5.5-11.9-5.5s-24.5-193.9-95.3-235.2l-68.7-236.5L2854.8,2695z"/>
			
				<linearGradient id="SVGID_26_" gradientUnits="userSpaceOnUse" x1="38.8755" y1="2356.9814" x2="-88.5857" y2="3185.4756" gradientTransform="matrix(1 0 0 1 3169.7083 0)">
				<stop  offset="0" style="stop-color:#09005D"/>
				<stop  offset="1" style="stop-color:#1A0F91"/>
			</linearGradient>
			<path fill="url(#SVGID_26_)" d="M3028.1,3242.3c-0.1,1.4,44.6,0.7,68.8,0.3c9-0.2,16.6-6.5,18.5-15.2l18.3-96.2
				c1.7-9.1-4.1-18-13.1-20.1l-10.2-2.3c0,0-14.6,20-10,38.8c4.6,18.8,8.7,67.6-2.9,73.3c-11.6,5.7-45,6.7-45,6.7
				S3028.9,3229.9,3028.1,3242.3z"/>
			
				<linearGradient id="SVGID_27_" gradientUnits="userSpaceOnUse" x1="-230.8193" y1="2315.4927" x2="-358.2807" y2="3143.988" gradientTransform="matrix(1 0 0 1 3169.7083 0)">
				<stop  offset="0" style="stop-color:#09005D"/>
				<stop  offset="1" style="stop-color:#1A0F91"/>
			</linearGradient>
			<path fill="url(#SVGID_27_)" d="M2724.3,3244c-4.5,2.6-2.7,9.5,2.5,9.4c40.6-0.4,131.5-1.7,139.6-5.1
				c10.4-4.3-3.8-41.8-18.8-54.5l-82.7,27L2724.3,3244z"/>
			
				<linearGradient id="SVGID_28_" gradientUnits="userSpaceOnUse" x1="-216.618" y1="2951.6934" x2="-67.5754" y2="2951.6934" gradientTransform="matrix(1 0 0 1 3169.7083 0)">
				<stop  offset="0" style="stop-color:#FEBBBA"/>
				<stop  offset="1" style="stop-color:#FF928E"/>
			</linearGradient>
			<path fill="url(#SVGID_28_)" d="M2698.6,2675.8c0,0,89,430.4,114.1,514.4l-59.5,37.4c0,0,29.8-5.1,52-6.7
				c22.1-1.6,42.5-27,42.5-27l-7.1-11.4c0,0-22.3-428.1-16.9-476.7L2698.6,2675.8z"/>
			
				<linearGradient id="SVGID_29_" gradientUnits="userSpaceOnUse" x1="-792.1365" y1="1833.4823" x2="-500.3591" y2="1833.4823" gradientTransform="matrix(1 0 0 1 3169.7083 0)">
				<stop  offset="0" style="stop-color:#FEBBBA"/>
				<stop  offset="1" style="stop-color:#FF928E"/>
			</linearGradient>
			<path fill="url(#SVGID_29_)" d="M2477.8,1671.9c0,0-12.3,223.9,191.6,338.3l-49.1,111.9c0,0-184.6-111.6-177.7-416.1
				c0.2-8.7-3-17.2-8.7-23.8l-39.2-45.5c-14.9-17.3-20.5-40.9-15-63.1l5.2-20.6c1.7-6.9,9.6-10.2,15.8-6.7l4.1,2.4
				c13.1,7.6,23.4,19.1,29.6,32.9l19.3,43.1c7.2,16.1,23.8,25.8,41.3,24.3l11.9-1L2477.8,1671.9z"/>
			
				<linearGradient id="SVGID_30_" gradientUnits="userSpaceOnUse" x1="-602.8585" y1="1733.7109" x2="-55.8382" y2="2817.1296" gradientTransform="matrix(1 0 0 1 3169.7083 0)">
				<stop  offset="0" style="stop-color:#4F52FF"/>
				<stop  offset="1" style="stop-color:#4042E2"/>
			</linearGradient>
			<path fill="url(#SVGID_30_)" d="M2662.3,1993.4c34.1,9.5,149.6,39.9,221.8,38.6l-44.3,249.9l3.5,40.8l-144.4-0.6
				c0,0-40.6-94.4-72.7-141.5c-9.3-13.6-2.4-29.8,2.9-45.4l-7.2-4.8c-7.3-4.9-10.5-14.1-7.8-22.4l35.2-107.6
				C2651,1994.9,2656.7,1991.9,2662.3,1993.4z"/>
			<linearGradient id="SVGID_31_" gradientUnits="userSpaceOnUse" x1="2862.894" y1="2260.22" x2="2738.4871" y2="2923.7209">
				<stop  offset="0" style="stop-color:#09005D"/>
				<stop  offset="1" style="stop-color:#1A0F91"/>
			</linearGradient>
			<path fill="url(#SVGID_31_)" d="M2687.3,2300.7l2.8,24.7c0,0-40.8,122.2,20.4,407.6c0,0,132.6,37.6,241.5-52.3
				c0,0-30.7-269.4-39.1-281.9c-41.8-62.5-69.7-76.1-69.7-76.1l-1.3-27C2842,2295.7,2725.5,2316.8,2687.3,2300.7z"/>
			
				<linearGradient id="SVGID_32_" gradientUnits="userSpaceOnUse" x1="-425.8899" y1="1976.7313" x2="-334.6836" y2="1976.7313" gradientTransform="matrix(1 0 0 1 3169.7083 0)">
				<stop  offset="0" style="stop-color:#FEBBBA"/>
				<stop  offset="1" style="stop-color:#FF928E"/>
			</linearGradient>
			<path fill="url(#SVGID_32_)" d="M2743.8,2013.5c-0.5-0.7,30.1-92.5,30.1-92.5l43.9,4l17.2,104.2
				C2835,2029.2,2766.2,2043.1,2743.8,2013.5z"/>
			
				<linearGradient id="SVGID_33_" gradientUnits="userSpaceOnUse" x1="-280.9351" y1="1858.8671" x2="382.9241" y2="1904.0095" gradientTransform="matrix(1 0 0 1 3169.7083 0)">
				<stop  offset="0" style="stop-color:#FEBBBA"/>
				<stop  offset="1" style="stop-color:#FF928E"/>
			</linearGradient>
			<path fill="url(#SVGID_33_)" d="M2807.4,1776.1c-2.9,1.8-93.8,39.4-74.3,133.7c1.2,5.6,4.9,10.3,10.1,12.6
				c13.3,5.9,42.1,16.1,76.4,12.6c47.6-4.8,78.8-87.9,77.5-112.1C2895.7,1798.8,2836.4,1758.1,2807.4,1776.1z"/>
			
				<linearGradient id="SVGID_34_" gradientUnits="userSpaceOnUse" x1="-171.8199" y1="1818.8507" x2="-405.4979" y2="2286.2056" gradientTransform="matrix(1 0 0 1 3169.7083 0)">
				<stop  offset="0" style="stop-color:#09005D"/>
				<stop  offset="1" style="stop-color:#1A0F91"/>
			</linearGradient>
			<path fill="url(#SVGID_34_)" d="M2835,1739.4c-2.4,0.3-52.5,17.8-27.7,54.1c24.9,36.3,34.2,57.7,22.4,73.7
				c-10.7,14.5-34.4,6.3-32.4,36.5c0.4,6.1-2.2,11.9-7.2,15.3c-22.4,15.1-76.9,61.7-22.9,128.2c4.4,5.4,5.3,12.9,1.9,18.9
				c-15.8,28.4-49.1,111.6,71.3,157.7c119,45.6,161.9-32.2,173.9-63.3c2.6-6.7,9.2-10.8,16.4-10.5c13.1,0.6,31.6-1.6,30.7-19
				c-0.5-10.6-7.1-20.1-15-27.7c-7.7-7.5-6.2-20.8,3.2-26.1c7.1-4,13.4-10.3,16-20.2c7.2-26.7-7.2-106.6-83.8-120.1
				c-6.4-1.1-13.1-7.1-14-13.5c0-0.1,0-0.2,0-0.3c-1-6.2,1.1-12.6,6.1-16.3c12.2-9,27.9-27,15.2-56c-11.3-25.7-33-34.4-49.1-37.1
				c-9.4-1.6-15.7-10.6-13.7-19.9C2932.1,1768.2,2927.4,1727.3,2835,1739.4z"/>
		</g>
	</g>
	<g>
	</g>
	<g>
	</g>
	<g>
	</g>
	<g>
	</g>
	<g>
	</g>
	<g>
	</g>
	<g>
	</g>
	<g>
	</g>
	<g>
	</g>
	<g>
	</g>
	<g>
	</g>
	<g>
	</g>
	<g>
	</g>
	<g>
	</g>
	<g>
	</g>
</g>
</svg>
