<?xml version="1.0" encoding="utf-8"?>
<!-- Generator: Adobe Illustrator 25.2.1, SVG Export Plug-In . SVG Version: 6.00 Build 0)  -->
<svg version="1.1" xmlns="http://www.w3.org/2000/svg" xmlns:xlink="http://www.w3.org/1999/xlink" x="0px" y="0px"
	 viewBox="0 0 3710 3710" enable-background="new 0 0 3710 3710" xml:space="preserve">
<g id="Background">
</g>
<g id="Illustration">
	<g>
		<linearGradient id="SVGID_1_" gradientUnits="userSpaceOnUse" x1="3490.6545" y1="3663.1519" x2="1536.7682" y2="1583.2089">
			<stop  offset="0" style="stop-color:#DAE3FE"/>
			<stop  offset="1" style="stop-color:#E9EFFD"/>
		</linearGradient>
		<path fill="url(#SVGID_1_)" d="M2904,2828.7c-72.1,74.3-136.7,118.1-186.1,151c-481.9,321.8-1032.8,229-1203.1,197.3
			c-274.8-51.1-506.8-87.2-706-267.3C355.9,2500.6,377.9,1647.1,724,1118.4c41-62.7,386.5-574.9,938.6-647
			c13.5-1.8,23.6-2.8,32.4-3.7c85.4-9,614.6-56.8,1046.2,304.8c61.8,51.8,161.2,145.1,253.4,287.5
			C3331.6,1580.6,3332.7,2386.8,2904,2828.7z"/>
		<g>
			<g>
				<linearGradient id="SVGID_2_" gradientUnits="userSpaceOnUse" x1="2111.4978" y1="2832.6062" x2="2080.7288" y2="2223.384">
					<stop  offset="0" style="stop-color:#09005D"/>
					<stop  offset="1" style="stop-color:#1A0F91"/>
				</linearGradient>
				<polygon fill="url(#SVGID_2_)" points="1854.4,2141 1803.3,2599.3 2396.2,2599.3 2318.9,2141 				"/>
				<linearGradient id="SVGID_3_" gradientUnits="userSpaceOnUse" x1="822.6817" y1="1555.8123" x2="3258.0073" y2="1555.8123">
					<stop  offset="0" style="stop-color:#09005D"/>
					<stop  offset="1" style="stop-color:#1A0F91"/>
				</linearGradient>
				<path fill="url(#SVGID_3_)" d="M822.7,979v1080.1c0,88.9,70.8,161.5,159.6,163.8c394.5,10.2,1774.3,34.8,2149.9,29.3
					c64.5-1,116.8-52.6,118.7-117.1c7.2-250.9,19-854.3-24.5-1134.5c-9.2-59-59-103.1-118.6-105
					c-330.6-10.6-1793.3-44.2-2168.6-35.7C874.4,861.4,822.7,914.3,822.7,979z"/>
				<linearGradient id="SVGID_4_" gradientUnits="userSpaceOnUse" x1="2136.6089" y1="141.1608" x2="1950.6987" y2="2540.4714">
					<stop  offset="0" style="stop-color:#53D8FF"/>
					<stop  offset="1" style="stop-color:#3840F7"/>
				</linearGradient>
				<path fill="url(#SVGID_4_)" d="M890.5,973.8V2000c0,51.9,41.6,94.2,93.5,94.9l2094.2,25.9c51.4,0.8,93.6-40.6,93.8-92l3.5-1017
					c0.1-36.8-29.2-66.9-65.9-67.8L965.5,900.6C924.3,899.6,890.5,932.6,890.5,973.8z"/>
				<path opacity="0.65" fill="#FFFFFF" d="M3187.7,2163.3C3187.7,2163.3,3187.7,2163.3,3187.7,2163.3l-2297.3-39.1
					c-1.9,0-3.3-1.6-3.3-3.4c0-1.9,1.5-3.3,3.4-3.3l2297.3,39.1c1.9,0,3.3,1.6,3.3,3.4C3191.1,2161.8,3189.6,2163.3,3187.7,2163.3z"
					/>
				<linearGradient id="SVGID_5_" gradientUnits="userSpaceOnUse" x1="2113.4128" y1="2602.7222" x2="1830.3392" y2="3224.2527">
					<stop  offset="0" style="stop-color:#09005D"/>
					<stop  offset="1" style="stop-color:#1A0F91"/>
				</linearGradient>
				<path fill="url(#SVGID_5_)" d="M2523.9,2693.1h-867.7c-23.6,0-41.3-16.8-36.7-34.8l11.1-44c3.3-13.2,17.9-23,35.2-23.5
					l836.5-26.1c18.1-0.6,34.1,9,38,22.8l20.1,70.1C2565.6,2675.8,2547.8,2693.1,2523.9,2693.1z"/>
				<linearGradient id="SVGID_6_" gradientUnits="userSpaceOnUse" x1="2074.3298" y1="961.7743" x2="1842.8179" y2="3859.1855">
					<stop  offset="0" style="stop-color:#FF928E"/>
					<stop  offset="1" style="stop-color:#FE7062"/>
				</linearGradient>
				<path fill="url(#SVGID_6_)" d="M890.5,973.8V2000c0,51.9,41.6,94.2,93.5,94.9l2094.2,25.9c51.4,0.8,93.6-40.6,93.8-92l3.5-1017
					c0.1-36.8-29.2-66.9-65.9-67.8L965.5,900.6C924.3,899.6,890.5,932.6,890.5,973.8z"/>
				<linearGradient id="SVGID_7_" gradientUnits="userSpaceOnUse" x1="2098.4727" y1="152.9232" x2="2037.2751" y2="996.0865">
					<stop  offset="0" style="stop-color:#FF928E"/>
					<stop  offset="1" style="stop-color:#FE7062"/>
				</linearGradient>
				<path fill="url(#SVGID_7_)" d="M3175.1,1130.6l0.4-119.2c0.1-36.8-29.2-66.8-65.9-67.7L966,900.5c-41.1-1-74.4,32.1-74.4,73.2
					v156.9H3175.1z"/>
				<g>
					<circle opacity="0.74" fill="#FFFFFF" cx="1028.4" cy="1040.1" r="24.5"/>
					<circle opacity="0.74" fill="#FFFFFF" cx="1113.4" cy="1040.1" r="24.5"/>
					<circle opacity="0.74" fill="#FFFFFF" cx="1195.8" cy="1040.1" r="24.5"/>
				</g>
				<path opacity="0.42" fill="#FFFFFF" d="M3047.8,2064.6l-2013-29c-30.6-0.4-55.2-25.4-55.2-56v-201.5c0-28.5,23.3-51.5,51.7-51.1
					l2017.8,22.9c23.2,0.3,41.8,19.1,41.8,42.3v229.9C3090.9,2045.9,3071.5,2065,3047.8,2064.6z"/>
				<path opacity="0.42" fill="#FFFFFF" d="M2323.1,1701.9l-1286.8-18.5c-31.4-0.5-56.7-26.1-56.7-57.5v-398.4
					c0-22.5,18.2-40.7,40.7-40.7h1294.2c25.8,0,46.8,20.9,46.8,46.8v430.7C2361.3,1685.2,2344.1,1702.2,2323.1,1701.9z"/>
				<path opacity="0.42" fill="#FFFFFF" d="M3078.4,1702.4h-670.7c-6.4,0-11.5-5.2-11.5-11.5v-489.7c0-7.9,6.4-14.4,14.4-14.4h671.7
					c4.8,0,8.7,3.9,8.7,8.7v494.5C3090.9,1696.8,3085.3,1702.4,3078.4,1702.4z"/>
			</g>
		</g>
		<g>
			<linearGradient id="SVGID_8_" gradientUnits="userSpaceOnUse" x1="1415.4849" y1="1652.291" x2="1387.4229" y2="2945.4912">
				<stop  offset="0" style="stop-color:#09005D"/>
				<stop  offset="1" style="stop-color:#1A0F91"/>
			</linearGradient>
			<path fill="url(#SVGID_8_)" d="M582.3,2657.2c0,16.3,13.4,29.7,29.7,29.7h1605.8c16.3,0,29.7-13.4,29.7-29.7l13.4-922.8
				c0-16.3-19.2-48.2-54.5-45.8L637,1648c-20.5-0.5-40.3,7.4-54.8,21.8c-14.5,14.5-22.5,34.2-22,54.7L582.3,2657.2z"/>
			<linearGradient id="SVGID_9_" gradientUnits="userSpaceOnUse" x1="1432.6624" y1="1969.7782" x2="1016.4088" y2="4521.0957">
				<stop  offset="0" style="stop-color:#FF928E"/>
				<stop  offset="1" style="stop-color:#FE7062"/>
			</linearGradient>
			<path fill="url(#SVGID_9_)" d="M611.6,2628.7c0,15.5,12.6,28.1,28.1,28.1H2179c15.5,0,28.1-12.6,28.1-28.1l12.6-837.7
				c-1.5-50.4-45.7-68.5-72.5-67.5l-1504.1-40.4c-14.4-0.4-28.3,5.2-38.5,15.3c-10.2,10.2-15.8,24.1-15.4,38.5L611.6,2628.7z"/>
			<linearGradient id="SVGID_10_" gradientUnits="userSpaceOnUse" x1="1400.1427" y1="2668.2896" x2="1426.02" y2="1762.5955">
				<stop  offset="0" style="stop-color:#09005D"/>
				<stop  offset="1" style="stop-color:#1A0F91"/>
			</linearGradient>
			<path fill="url(#SVGID_10_)" d="M457.6,2763.5h1881.9c3.1,0,5.7-2.5,5.7-5.7V2688c0-3.1-2.5-5.7-5.7-5.7H457.6
				c-3.1,0-5.7,2.5-5.7,5.7v69.8C452,2760.9,454.5,2763.5,457.6,2763.5z"/>
			<linearGradient id="SVGID_11_" gradientUnits="userSpaceOnUse" x1="1446.655" y1="1083.3271" x2="1399.0576" y2="1885.6884">
				<stop  offset="0" style="stop-color:#FF928E"/>
				<stop  offset="1" style="stop-color:#FE7062"/>
			</linearGradient>
			<path fill="url(#SVGID_11_)" d="M2218.5,1875.5l1.3-83.9c-1.5-50.4-45.7-68.8-72.5-67.7l-1504.1-40.5
				c-14.4-0.4-28.3,5.1-38.5,15.3c-10.2,10.2-15.8,24.6-15.4,39l3.4,137.9H2218.5z"/>
			<g>
				<path fill="#FFFFFF" d="M2190.5,2230.8C2190.5,2230.8,2190.5,2230.8,2190.5,2230.8c-2.3,0-4.2-1.9-4.1-4.2l1-67.9
					c0-2.3,1.9-4.1,4.1-4.1c0,0,0,0,0.1,0c2.3,0,4.1,1.9,4.1,4.2l-1,67.9C2194.6,2229,2192.7,2230.8,2190.5,2230.8z"/>
				<path opacity="0.42" fill="#FFFFFF" d="M2192.9,2064.3C2192.9,2064.3,2192.9,2064.3,2192.9,2064.3c-2.3,0-4.2-1.9-4.1-4.2
					l3.8-260.2c-0.1-15.5-4.8-27.8-13.9-36.6c-17.1-16.4-44.4-15.6-45.5-15.5l-480.7-12.9c-2.3-0.1-4.1-2-4-4.2
					c0.1-2.3,1.8-4.2,4.2-4l480.5,12.9c3-0.2,32-0.7,51.3,17.8c10.9,10.4,16.4,24.7,16.5,42.6l-3.8,260.3
					C2197,2062.5,2195.2,2064.3,2192.9,2064.3z"/>
			</g>
			<path opacity="0.42" fill="#FFFFFF" d="M1565.3,2302.3H668.6c-6.2,0-11.2-5-11.2-11.2v-363.5c0-6.2,5-11.2,11.2-11.2h896.7
				c6.2,0,11.2,5,11.2,11.2v363.5C1576.4,2297.3,1571.4,2302.3,1565.3,2302.3z"/>
			<path opacity="0.42" fill="#FFFFFF" d="M2165.9,2302.3h-533.5c-4.4,0-8-3.6-8-8v-369.9c0-4.4,3.6-8,8-8h533.5c4.4,0,8,3.6,8,8
				v369.9C2173.9,2298.7,2170.4,2302.3,2165.9,2302.3z"/>
			<path opacity="0.42" fill="#FFFFFF" d="M2164.1,2620.3H667.2c-5.4,0-9.8-4.4-9.8-9.8v-242.2c0-5.4,4.4-9.8,9.8-9.8h1496.9
				c5.4,0,9.8,4.4,9.8,9.8v242.2C2173.9,2615.9,2169.5,2620.3,2164.1,2620.3z"/>
			
				<ellipse transform="matrix(0.1612 -0.9869 0.9869 0.1612 -1192.0363 2150.8857)" opacity="0.74" fill="#FFFFFF" cx="669.3" cy="1776.7" rx="19.3" ry="19.3"/>
			<circle opacity="0.74" fill="#FFFFFF" cx="733.7" cy="1778.5" r="19.3"/>
			<circle opacity="0.74" fill="#FFFFFF" cx="793.8" cy="1782.1" r="19.3"/>
		</g>
		<g>
			<path fill="#7D97F4" d="M2814,1321.8c2.6-11.1-13.1-18.5-22.6-10.8c-97.4,79-331.5,315.6-273.2,729
				c73.2,518.7-51.9,708-207.7,823.4c0,0,213.9-54.3,348.5-246.3C2989.4,2145.6,2767.5,1519.8,2814,1321.8z"/>
			<path fill="#FFFFFF" d="M2739.9,1483.8c-12.2,57.7-23.1,115.7-31.4,173.8c-8.7,58.1-15.4,116.5-20,174.9
				c-4.3,58.4-7.4,116.9-7.6,175.5c-0.5,58.5,2,117,4.6,175.7c2.3,58.7,5,117.8,0.7,177.3c-4.2,59.4-16.7,119.3-41.5,175.5
				c-6.2,14-12.7,28-20.1,41.4c-7.1,13.6-14.9,27-23,40.2c-16.3,26.4-34.8,51.8-55.3,76c-41.2,48.3-90.8,91.1-145.5,127.3
				c-5.8,3.8-14,2.9-18.4-2.1c-4.3-4.9-3.4-11.8,2.1-15.7l0,0c13-9.1,25.9-18.4,38.2-28.1c6.3-4.8,12.3-9.8,18.4-14.7
				c5.9-5.1,12-10,17.7-15.3c23.2-20.7,44.7-42.7,64.3-66c39.3-46.4,70.7-98.2,94.5-151.8c11.6-26.9,20.8-54.6,27.5-82.7
				c6.7-28.2,11-56.8,13.3-85.7c4.7-57.8,2.6-116.3,0.8-175c-1.7-58.7-3-117.7-1.4-176.7c0.7-29.5,2-58.9,3.9-88.4
				c0.9-14.7,2-29.4,3.2-44.1c1.3-14.7,2.7-29.4,4.3-44c6.3-58.7,14.7-117.2,25.2-175.3c10.8-58.1,23.5-116,38.7-173.3
				c0.4-1.6,2.3-2.7,4.2-2.3C2739,1480.7,2740.2,1482.2,2739.9,1483.8z"/>
		</g>
		<g>
			<g>
				<path fill="#91B3FA" d="M2561.6,2563.3c11.9,12.7,33,9,40.1-6.8c39.7-87.5,129.4-345.2-18.8-642
					c-125.1-250.6-169.2-398.4-184.5-466.9c-3.2-14.5-23.1-16.4-29.1-2.8C2303.3,1594.6,2128.8,2104.1,2561.6,2563.3z"/>
				<path fill="#FFFFFF" d="M2583.3,2554.1c0.4,0.1,0.9,0.1,1.3,0.1c3.8-0.1,6.8-3.1,6.7-6.9c-0.1-4.3-8.3-429.7-166.6-786.1
					c-1.5-3.4-5.5-5-9-3.5c-3.4,1.5-5,5.5-3.5,9c157.1,353.8,165.4,776.5,165.4,780.8C2577.8,2550.8,2580.2,2553.5,2583.3,2554.1z"
					/>
			</g>
		</g>
		<g>
			
				<linearGradient id="SVGID_12_" gradientUnits="userSpaceOnUse" x1="-1759.8699" y1="5650.96" x2="-1879.1786" y2="6473.7773" gradientTransform="matrix(0.2154 -0.9765 0.9765 0.2154 -2206.3413 -124.2187)">
				<stop  offset="0" style="stop-color:#4F52FF"/>
				<stop  offset="1" style="stop-color:#4042E2"/>
			</linearGradient>
			<path fill="url(#SVGID_12_)" d="M2704.4,3028.9c224.8-43.9,386.6-255.9,419.8-414.4l-57-57.7c-85.4,140.6-155.7,235.3-318.5,261
				c-8.8,1.4-15.9,8-17.9,16.7l-39.9,180.6C2689.3,3023.2,2696.4,3030.5,2704.4,3028.9z"/>
			
				<linearGradient id="SVGID_13_" gradientUnits="userSpaceOnUse" x1="-1462.9825" y1="5694.0156" x2="-1582.2858" y2="6516.7954" gradientTransform="matrix(0.2154 -0.9765 0.9765 0.2154 -2206.3413 -124.2187)">
				<stop  offset="0" style="stop-color:#4F52FF"/>
				<stop  offset="1" style="stop-color:#4042E2"/>
			</linearGradient>
			<path fill="url(#SVGID_13_)" d="M3209.1,2690.7l-74.5-232c-1.5-4.8-7.5-6.3-11.1-2.8l-123.7,118.6c-4.8,4.6-3.9,12.6,2,16
				l194.2,110.8C3203.2,2705.4,3211.6,2698.5,3209.1,2690.7z"/>
		</g>
		<g>
			
				<linearGradient id="SVGID_14_" gradientUnits="userSpaceOnUse" x1="1006.0607" y1="878.9763" x2="808.5817" y2="2310.7019" gradientTransform="matrix(1 -6.200000e-03 6.200000e-03 1 -221.2816 -190.4001)">
				<stop  offset="0" style="stop-color:#4F52FF"/>
				<stop  offset="1" style="stop-color:#4042E2"/>
			</linearGradient>
			<path fill="url(#SVGID_14_)" d="M509.8,902.5c89.7-210.8,330.7-324.9,492.6-324.5l44.6,67.7C891.7,700.1,784.4,749.1,725.5,903
				c-3.2,8.3-11.2,13.9-20.1,14l-185,1.4C512.2,918.4,506.5,910.1,509.8,902.5z"/>
			
				<linearGradient id="SVGID_15_" gradientUnits="userSpaceOnUse" x1="1252.9692" y1="913.0411" x2="1055.4763" y2="2344.8674" gradientTransform="matrix(1 -6.200000e-03 6.200000e-03 1 -221.2816 -190.4001)">
				<stop  offset="0" style="stop-color:#4F52FF"/>
				<stop  offset="1" style="stop-color:#4042E2"/>
			</linearGradient>
			<path fill="url(#SVGID_15_)" d="M945.6,479.2l232.8,57c16,3.9,20.5,24.4,7.7,34.7l-170.4,137.1c-5.5,3.8-13.2,1.1-15.2-5.2
				l-68-213C930,481.9,938.4,475.1,945.6,479.2z"/>
		</g>
		<g>
			<g>
				<g opacity="0.3">
					
						<linearGradient id="SVGID_16_" gradientUnits="userSpaceOnUse" x1="2911.3486" y1="6663.3818" x2="3311.0959" y2="8019.3867" gradientTransform="matrix(0.2646 -0.9644 0.9644 0.2646 -6493.4893 3471.7615)">
						<stop  offset="0" style="stop-color:#4F52FF"/>
						<stop  offset="1" style="stop-color:#4042E2"/>
					</linearGradient>
					<path fill="url(#SVGID_16_)" d="M1537.7,2195.9c5.2,0.3,9.4,4.5,9.6,9.8c0.5,11.6,0.6,23.3,0.1,35c-0.2,5.7-5,10.1-10.7,9.8
						c-0.1,0-0.1,0-0.2,0c-5.6-0.3-9.9-5.1-9.6-10.6c0.4-11.1,0.4-22.2-0.1-33.2c-0.3-5.7,4.1-10.5,9.8-10.7
						C1537,2195.9,1537.3,2195.9,1537.7,2195.9z M1531.7,2285.1c0.4,0,0.8,0.1,1.2,0.1c5.6,1,9.3,6.3,8.3,11.9
						c-2,11.5-4.6,22.9-7.6,34.1c-1.5,5.5-7.1,8.7-12.6,7.3c-5.5-1.5-8.7-7.1-7.3-12.6c2.8-10.6,5.3-21.5,7.2-32.4
						C1522,2288.3,1526.6,2284.8,1531.7,2285.1z M1506.3,2370.7c1.1,0.1,2.3,0.3,3.4,0.8c5.2,2.2,7.6,8.2,5.4,13.4
						c-4.5,10.7-9.6,21.3-15,31.6c-2.7,5-8.9,6.9-13.9,4.3c-5-2.7-6.9-8.9-4.3-13.9c5.2-9.7,10-19.8,14.3-30
						C1498,2372.8,1502.1,2370.4,1506.3,2370.7z M1462.4,2448.5c1.9,0.1,3.8,0.7,5.4,1.9c4.6,3.3,5.6,9.7,2.3,14.3
						c-6.8,9.4-14.1,18.6-21.7,27.4c-3.7,4.3-10.2,4.8-14.5,1.1c-4.3-3.7-4.8-10.2-1.1-14.5c7.2-8.3,14.1-17.1,20.6-26.1
						C1455.6,2449.8,1459,2448.3,1462.4,2448.5z M1402.2,2514.6c2.6,0.2,5.2,1.3,7.1,3.5c3.7,4.3,3.3,10.7-0.9,14.5
						c-8.7,7.6-17.9,15-27.2,21.9c-4.6,3.4-11,2.4-14.3-2.2c-3.4-4.6-2.4-11,2.2-14.3c8.9-6.6,17.6-13.6,25.9-20.8
						C1396.9,2515.3,1399.6,2514.4,1402.2,2514.6z M1328.9,2565.7c3.4,0.2,6.7,2.1,8.4,5.3c2.7,5,0.9,11.2-4.1,13.9
						c-10.2,5.5-20.8,10.7-31.4,15.4c-5.2,2.3-11.2-0.1-13.5-5.3c-2.3-5.2,0.1-11.2,5.3-13.5c10.1-4.4,20.2-9.3,29.8-14.6
						C1325.1,2566,1327,2565.6,1328.9,2565.7z M952.2,2567.9c1.4,0.1,2.8,0.5,4.2,1.2c9.7,5.1,19.8,9.9,30,14.2
						c5.2,2.2,7.7,8.2,5.5,13.4c-2.2,5.2-8.2,7.7-13.4,5.5c-10.7-4.5-21.4-9.6-31.6-15c-5-2.6-6.9-8.9-4.3-13.9
						C944.5,2569.7,948.4,2567.6,952.2,2567.9z M1246.1,2599.2c4.2,0.3,8.1,3.1,9.3,7.5c1.5,5.5-1.7,11.1-7.1,12.6
						c-11.2,3.1-22.6,5.8-34,8c-5.6,1-10.9-2.6-12-8.2c-1.1-5.6,2.6-10.9,8.2-12c10.8-2,21.7-4.6,32.3-7.6
						C1243.9,2599.3,1245,2599.2,1246.1,2599.2z M1035.5,2600.4c0.7,0,1.4,0.1,2,0.3c10.7,2.8,21.6,5.2,32.5,7.2
						c5.6,1,9.3,6.3,8.3,11.9c-1,5.6-6.3,9.3-11.9,8.3c-11.4-2-22.9-4.6-34.2-7.5c-5.5-1.5-8.7-7.1-7.3-12.5
						C1026.2,2603.2,1030.7,2600.1,1035.5,2600.4z M1158,2613.5c5.2,0.3,9.4,4.5,9.6,9.8c0.3,5.7-4.1,10.5-9.8,10.7
						c-11.6,0.5-23.4,0.6-35,0.2c-0.1,0-0.1,0-0.2,0c-5.6-0.3-9.9-5-9.6-10.6c0.2-5.7,5-10.1,10.6-9.9c11,0.4,22.2,0.4,33.2-0.2
						C1157.2,2613.5,1157.6,2613.5,1158,2613.5z"/>
					
						<linearGradient id="SVGID_17_" gradientUnits="userSpaceOnUse" x1="2795.9827" y1="6697.3989" x2="3195.72" y2="8053.3701" gradientTransform="matrix(0.2646 -0.9644 0.9644 0.2646 -6493.4893 3471.7615)">
						<stop  offset="0" style="stop-color:#4F52FF"/>
						<stop  offset="1" style="stop-color:#4042E2"/>
					</linearGradient>
					<path fill="url(#SVGID_17_)" d="M891.9,2528.6c2,0.1,4,0.8,5.7,2.2c4.2,3.3,8.4,6.5,12.8,9.6c4.6,3.3,5.6,9.7,2.3,14.3
						c-3.3,4.6-9.7,5.6-14.3,2.3c-4.5-3.3-9.1-6.7-13.4-10.1c-4.5-3.5-5.2-10-1.7-14.4C885.3,2529.8,888.6,2528.4,891.9,2528.6z"/>
				</g>
				<g opacity="0.3">
					
						<linearGradient id="SVGID_18_" gradientUnits="userSpaceOnUse" x1="3058.5046" y1="6620.0156" x2="3458.2366" y2="7975.9692" gradientTransform="matrix(0.2646 -0.9644 0.9644 0.2646 -6493.4893 3471.7615)">
						<stop  offset="0" style="stop-color:#4F52FF"/>
						<stop  offset="1" style="stop-color:#4042E2"/>
					</linearGradient>
					<path fill="url(#SVGID_18_)" d="M741.1,2254.6c4.9,0.3,9.1,4.1,9.6,9.2c0.5,5.3,1.2,10.6,1.9,15.9c0.8,5.6-3.1,10.8-8.7,11.6
						c-5.6,0.8-10.8-3.1-11.6-8.7c-0.8-5.5-1.5-11.2-2-16.7c-0.6-5.6,3.5-10.7,9.2-11.2C740,2254.6,740.6,2254.6,741.1,2254.6z"/>
					
						<linearGradient id="SVGID_19_" gradientUnits="userSpaceOnUse" x1="3299.6223" y1="6548.9351" x2="3699.3687" y2="7904.937" gradientTransform="matrix(0.2646 -0.9644 0.9644 0.2646 -6493.4893 3471.7615)">
						<stop  offset="0" style="stop-color:#4F52FF"/>
						<stop  offset="1" style="stop-color:#4042E2"/>
					</linearGradient>
					<path fill="url(#SVGID_19_)" d="M1161.8,1815.7c4.7,0.3,9.4,0.6,14.2,1.1c5.6,0.5,9.8,5.5,9.3,11.2c-0.5,5.6-5.6,9.8-11.2,9.3
						c-10.9-1-21.9-1.6-32.7-1.7c-5.7-0.1-10.2-4.7-10.2-10.4c0.1-5.7,4.7-10.2,10.4-10.2
						C1148.3,1815.1,1155.1,1815.3,1161.8,1815.7z M1229.4,1825.5c0.6,0,1.2,0.1,1.7,0.3c11.1,2.6,22.3,5.7,33.2,9.2
						c5.4,1.7,8.3,7.5,6.6,12.9c-1.7,5.4-7.5,8.4-12.9,6.6c-10.3-3.3-20.9-6.3-31.5-8.7c-5.5-1.3-9-6.8-7.7-12.3
						C1220,1828.5,1224.5,1825.2,1229.4,1825.5z M1087.7,1818.2c4.8,0.3,8.9,4,9.6,8.9c0.7,5.6-3.3,10.8-8.9,11.5
						c-10.7,1.4-21.6,3.2-32.2,5.5c-5.5,1.2-11-2.3-12.2-7.9c-1.2-5.5,2.3-11,7.9-12.2c11.2-2.4,22.6-4.4,33.9-5.8
						C1086.4,1818.2,1087.1,1818.2,1087.7,1818.2z M1312.4,1854.7c1.3,0.1,2.6,0.4,3.8,1c10.3,5,20.5,10.4,30.3,16.3
						c4.9,2.9,6.5,9.2,3.6,14c-2.9,4.9-9.2,6.5-14.1,3.6c-9.3-5.5-19-10.7-28.8-15.4c-5.1-2.5-7.2-8.6-4.8-13.7
						C1304.4,1856.6,1308.3,1854.5,1312.4,1854.7z M1002.3,1838.9c4,0.2,7.6,2.8,9,6.7c1.9,5.3-0.8,11.2-6.1,13.1
						c-10.2,3.7-20.3,7.9-30.2,12.5c-5.1,2.4-11.2,0.1-13.6-5c-2.4-5.1-0.1-11.2,5-13.6c10.4-4.8,21.1-9.2,31.8-13.1
						C999.6,1839,1001,1838.9,1002.3,1838.9z M923.5,1877.9c3.2,0.2,6.2,1.8,8,4.7c3.1,4.8,1.7,11.1-3.1,14.2
						c-9.2,5.9-18.2,12.2-26.8,18.8c-4.5,3.4-10.9,2.6-14.4-1.9c-3.4-4.5-2.6-10.9,1.9-14.4c9.1-6.9,18.6-13.6,28.2-19.7
						C919.3,1878.3,921.4,1877.8,923.5,1877.9z M855.1,1933.1c2.4,0.1,4.8,1.1,6.6,3c4,4,4,10.5,0,14.5
						c-7.7,7.7-15.1,15.8-22.1,24.1c-3.6,4.3-10.1,4.9-14.5,1.3c-4.3-3.6-4.9-10.1-1.3-14.5c7.3-8.7,15.2-17.3,23.2-25.4
						C849.4,1933.9,852.3,1932.9,855.1,1933.1z M800.3,2001.9c1.7,0.1,3.3,0.6,4.8,1.6c4.8,3,6.2,9.3,3.2,14.1
						c-5.8,9.2-11.2,18.7-16.2,28.4c-2.6,5-8.8,7-13.8,4.4c-5-2.6-7-8.8-4.4-13.8c5.2-10.1,11-20.2,17.1-29.9
						C793.1,2003.4,796.7,2001.7,800.3,2001.9z M762,2081.1c0.9,0.1,1.9,0.2,2.8,0.6c5.3,1.9,8.1,7.7,6.3,13.1
						c-3.6,10.2-6.8,20.7-9.6,31.2c-1.4,5.5-7,8.8-12.5,7.3c-5.5-1.4-8.8-7-7.3-12.5c2.9-11.1,6.3-22.1,10.1-32.9
						C753.3,2083.5,757.6,2080.8,762,2081.1z M742,2166.7c0.2,0,0.4,0,0.6,0.1c5.6,0.7,9.6,5.8,9,11.4c-1,7.9-1.7,16-2.2,24
						c-0.2,2.9-0.3,5.8-0.4,8.6c-0.2,5.7-5,10.1-10.6,9.9c-5.7-0.1-10.1-5-9.9-10.6c0.1-3,0.3-6,0.4-9.1c0.5-8.4,1.3-16.9,2.3-25.2
						C731.9,2170.3,736.7,2166.4,742,2166.7z"/>
					
						<linearGradient id="SVGID_20_" gradientUnits="userSpaceOnUse" x1="3388.0098" y1="6522.897" x2="3787.7461" y2="7878.8652" gradientTransform="matrix(0.2646 -0.9644 0.9644 0.2646 -6493.4893 3471.7615)">
						<stop  offset="0" style="stop-color:#4F52FF"/>
						<stop  offset="1" style="stop-color:#4042E2"/>
					</linearGradient>
					<path fill="url(#SVGID_20_)" d="M1387,1901.6c2,0.1,4.1,0.8,5.8,2.2c4.3,3.5,8.7,7.1,12.9,10.7c4.3,3.7,4.8,10.2,1.1,14.5
						c-3.7,4.3-10.2,4.8-14.5,1.1c-4-3.5-8.2-6.9-12.3-10.2c-4.4-3.5-5.2-10-1.6-14.4C1380.6,1902.8,1383.8,1901.4,1387,1901.6z"/>
				</g>
				<g>
					
						<linearGradient id="SVGID_21_" gradientUnits="userSpaceOnUse" x1="3094.6443" y1="6609.3623" x2="3494.3838" y2="7965.3413" gradientTransform="matrix(0.2646 -0.9644 0.9644 0.2646 -6493.4893 3471.7615)">
						<stop  offset="0" style="stop-color:#4F52FF"/>
						<stop  offset="1" style="stop-color:#4042E2"/>
					</linearGradient>
					<path fill="url(#SVGID_21_)" d="M1366.2,2019.6c-1.2-1.7-3.3-2.4-5.3-1.8l-55.9,16.9c-20.6-17.9-44.1-32.6-70.1-43.3l-10-57.4
						c-0.3-2-1.9-3.6-4-3.9l-69.1-11.2c-2-0.3-4,0.7-5,2.5l-27.5,51.4c-28,2-55,8.5-80.1,19l-47.7-33.6c-1.7-1.2-3.9-1.2-5.6,0
						l-56.7,41c-1.7,1.2-2.4,3.3-1.8,5.3l16.9,55.9c-17.9,20.6-32.6,44.1-43.3,70.1l-57.4,10c-2,0.3-3.6,1.9-3.9,4l-11.2,69.1
						c-0.3,2,0.7,4,2.5,5l51.4,27.5c2,28,8.5,55,19,80.1l-33.6,47.7c-1.2,1.7-1.2,3.9,0,5.6l41,56.7c1.2,1.7,3.3,2.4,5.3,1.8
						L970,2421c20.6,17.9,44.1,32.6,70.1,43.3l10,57.5c0.4,2,1.9,3.6,4,3.9l69.1,11.2c2,0.3,4-0.7,5-2.5l27.5-51.4
						c28-2,55-8.5,80.1-19l47.7,33.6c1.7,1.2,3.9,1.2,5.6,0l56.7-41c1.7-1.2,2.4-3.3,1.8-5.3l-16.9-55.9
						c17.9-20.6,32.6-44.1,43.3-70.1l57.4-10c2-0.3,3.6-1.9,3.9-4l11.2-69.1c0.3-2-0.7-4-2.5-5l-51.4-27.5c-2-28-8.5-55-19-80.1
						l33.6-47.7c1.2-1.7,1.2-3.9,0-5.6L1366.2,2019.6z"/>
					<path fill="#91B3FA" d="M1141.7,2157.6c34.2,2,62.8,28.9,65.9,64.1c3.4,38.6-25.3,72.8-64,76.2c-18.7,1.6-37-4.1-51.4-16.2
						c-14.4-12.1-23.2-29-24.9-47.8c-3.4-38.6,25.3-72.8,64-76.2C1134.9,2157.5,1138.4,2157.4,1141.7,2157.6z M1134.2,2281.7
						c2.6,0.2,5.3,0.1,8-0.1c29.6-2.6,51.6-28.8,49-58.4c-2.6-29.6-28.8-51.6-58.4-49c-29.6,2.6-51.6,28.8-49,58.4
						c1.3,14.4,8,27.4,19.1,36.6C1111.8,2276.7,1122.8,2281,1134.2,2281.7z"/>
					<path fill="#91B3FA" d="M1146.3,2056.1c5.9,0.3,11.8,1,17.7,1.9l0,0c1.9,0.3,3.7,0.6,5.6,1c9.1,1.8,18,4.3,26.7,7.4
						c0.1,0,0.2,0.1,0.4,0.1c0.3,0.1,0.7,0.2,1,0.4c0.6,0.2,1.3,0.5,1.9,0.7c1.7,0.7,2.7,2.3,2.6,4.1c0,0.4-0.1,0.8-0.3,1.3
						c-0.8,2.1-3.2,3.1-5.3,2.3c-10.9-4.2-22.3-7.3-33.9-9.2c-57.6-9.3-113.2,12.6-149.5,53.3c-20.1,22.6-34.3,51-39.5,83.1
						c-0.9,5.6-1.5,11.2-1.9,16.9c-2.2,37.7,8.5,74.8,30.9,105.9c25.8,35.7,63.9,59.2,107.3,66.2c89.7,14.5,174.4-46.7,188.9-136.4
						c0.9-5.5,1.5-11.1,1.8-16.6c1.4-24.1-2.4-48.2-11.4-70.6c-0.2-0.6-0.3-1.2-0.3-1.8c0.1-1.5,1-3,2.6-3.6
						c2.1-0.8,4.5,0.2,5.3,2.3c9.4,23.5,13.5,48.9,12,74.1c-0.3,5.8-1,11.7-1.9,17.5c-15.2,94.2-104.2,158.4-198.3,143.2
						c-45.6-7.4-85.6-32-112.7-69.5c-23.5-32.6-34.8-71.5-32.5-111.1c0.3-5.9,1-11.8,1.9-17.7c7.4-45.6,32-85.6,69.5-112.7
						C1067.8,2065,1106.7,2053.8,1146.3,2056.1z"/>
				</g>
			</g>
			<g>
				<g opacity="0.3">
					
						<linearGradient id="SVGID_22_" gradientUnits="userSpaceOnUse" x1="3336.8286" y1="6538.0137" x2="3736.5571" y2="7893.9546" gradientTransform="matrix(0.2646 -0.9644 0.9644 0.2646 -6493.4893 3471.7615)">
						<stop  offset="0" style="stop-color:#4F52FF"/>
						<stop  offset="1" style="stop-color:#4042E2"/>
					</linearGradient>
					<path fill="url(#SVGID_22_)" d="M1903,1946.7c2.7,0.2,5.2,2.1,5.8,4.9c1.2,5.2,2.3,10.6,3.2,15.9c0.6,3.4-1.7,6.7-5.2,7.3
						c-3.5,0.6-6.7-1.7-7.3-5.2c-0.9-5.1-1.9-10.2-3-15.2c-0.8-3.4,1.3-6.8,4.8-7.6C1901.9,1946.7,1902.5,1946.7,1903,1946.7z"/>
					
						<linearGradient id="SVGID_23_" gradientUnits="userSpaceOnUse" x1="3166.4614" y1="6588.1675" x2="3566.2114" y2="7944.1821" gradientTransform="matrix(0.2646 -0.9644 0.9644 0.2646 -6493.4893 3471.7615)">
						<stop  offset="0" style="stop-color:#4F52FF"/>
						<stop  offset="1" style="stop-color:#4042E2"/>
					</linearGradient>
					<path fill="url(#SVGID_23_)" d="M1909.6,1995c3.2,0.2,5.8,2.8,5.9,6.1c0.4,9.3,0.3,18.6-0.2,27.9c-0.1,1.9-0.3,3.9-0.4,5.9
						c-0.3,3.5-3.5,5.9-6.8,5.8c-3.5-0.3-6.1-3.3-5.8-6.8c0.2-1.9,0.3-3.7,0.4-5.6c0.5-8.8,0.6-17.8,0.2-26.6
						c-0.1-3.5,2.6-6.4,6.1-6.6C1909.2,1995,1909.4,1995,1909.6,1995z M1904.3,2060.6c0.3,0,0.6,0.1,0.9,0.1
						c3.4,0.7,5.6,4.1,4.9,7.5c-2.2,11-5.2,22-8.8,32.6c-1.1,3.3-4.7,5.1-8,4c-3.3-1.1-5.1-4.7-4-8c3.4-10.1,6.2-20.6,8.4-31.1
						C1898.4,2062.5,1901.2,2060.4,1904.3,2060.6z M1883.3,2122.9c0.8,0,1.6,0.3,2.4,0.6c3.2,1.5,4.5,5.3,3,8.5
						c-4.9,10.1-10.4,20-16.5,29.4c-1.9,2.9-5.8,3.8-8.8,1.9c-2.9-1.9-3.8-5.8-1.9-8.8c5.8-9,11.1-18.4,15.8-28.1
						C1878.4,2124.1,1880.8,2122.8,1883.3,2122.9z M1847.6,2178.2c1.3,0.1,2.6,0.6,3.7,1.5c2.7,2.2,3,6.2,0.8,8.9
						c-7.2,8.6-15,16.8-23.2,24.5c-2.6,2.4-6.6,2.2-9-0.3c-2.4-2.6-2.2-6.6,0.3-9c7.8-7.3,15.3-15.1,22.1-23.3
						C1843.7,2178.8,1845.7,2178.1,1847.6,2178.2z M1799.5,2223c1.8,0.1,3.6,1,4.8,2.6c2.1,2.8,1.4,6.8-1.4,8.8
						c-9.1,6.6-18.6,12.7-28.4,18.1c-3.1,1.7-6.9,0.6-8.6-2.5c-1.7-3.1-0.6-6.9,2.5-8.6c9.3-5.2,18.5-11,27.1-17.3
						C1796.6,2223.3,1798.1,2223,1799.5,2223z M1742,2254.9c2.4,0.1,4.6,1.6,5.5,4c1.3,3.2-0.3,6.9-3.5,8.2
						c-10.4,4.2-21.2,7.8-32,10.6c-3.4,0.9-6.8-1.1-7.7-4.5c-0.9-3.4,1.1-6.8,4.5-7.7c10.3-2.7,20.6-6.1,30.5-10.1
						C1740.1,2255,1741.1,2254.8,1742,2254.9z M1678.4,2271.7c3,0.2,5.5,2.4,5.9,5.5c0.5,3.5-2,6.7-5.4,7.1
						c-11.1,1.5-22.4,2.3-33.6,2.4c-3.5,0-6.4-2.8-6.4-6.3c0-3.5,2.8-6.4,6.3-6.4c10.7-0.1,21.5-0.9,32.1-2.3
						C1677.6,2271.6,1678,2271.6,1678.4,2271.7z M1580.2,2266.6c0.4,0,0.7,0.1,1.1,0.2c9,2.1,18.2,3.8,27.5,5
						c1.4,0.2,2.8,0.4,4.2,0.5c3.5,0.4,6,3.5,5.6,7c-0.4,3.5-3.5,6.1-7,5.6c-1.5-0.2-2.9-0.3-4.4-0.5c-9.7-1.2-19.4-3-28.8-5.3
						c-3.4-0.8-5.5-4.2-4.7-7.6C1574.4,2268.5,1577.2,2266.5,1580.2,2266.6z"/>
				</g>
				<g opacity="0.3">
					
						<linearGradient id="SVGID_24_" gradientUnits="userSpaceOnUse" x1="3485.9302" y1="6494.0176" x2="3885.6738" y2="7850.0107" gradientTransform="matrix(0.2646 -0.9644 0.9644 0.2646 -6493.4893 3471.7615)">
						<stop  offset="0" style="stop-color:#4F52FF"/>
						<stop  offset="1" style="stop-color:#4042E2"/>
					</linearGradient>
					<path fill="url(#SVGID_24_)" d="M1654.6,1739.7c3.5,0.2,6.1,3.2,6,6.6c-0.2,3.5-3.1,6.2-6.6,6c-10.5-0.5-21.2-0.3-31.6,0.5
						c-3.5,0.2-6.5-2.4-6.8-5.8c-0.3-3.5,2.4-6.5,5.8-6.8C1632.3,1739.4,1643.5,1739.2,1654.6,1739.7
						C1654.5,1739.7,1654.5,1739.7,1654.6,1739.7z M1686.8,1743.1c0.2,0,0.5,0,0.7,0.1c10.9,1.8,21.8,4.3,32.3,7.4
						c3.4,1,5.3,4.5,4.3,7.9c-1,3.4-4.5,5.3-7.9,4.3c-10.1-3-20.5-5.4-30.8-7.1c-3.4-0.6-5.8-3.8-5.2-7.3
						C1680.7,1745.2,1683.6,1743,1686.8,1743.1z M1590.1,1744.6c2.8,0.2,5.3,2.2,5.8,5.1c0.7,3.4-1.5,6.8-5,7.5
						c-10.3,2.1-20.6,4.8-30.6,8.1c-3.3,1.1-6.9-0.7-8-4c-1.1-3.3,0.7-6.9,4-8c10.4-3.5,21.2-6.3,32.1-8.5
						C1589,1744.6,1589.5,1744.5,1590.1,1744.6z M1748.9,1761.5c0.7,0,1.4,0.2,2.1,0.5c10.1,4.4,20.1,9.4,29.6,15
						c3,1.8,4,5.7,2.3,8.7c-1.8,3-5.7,4-8.7,2.3c-9.1-5.3-18.6-10.1-28.2-14.3c-3.2-1.4-4.7-5.1-3.3-8.3
						C1743.8,1762.8,1746.3,1761.3,1748.9,1761.5z M1528.7,1764.9c2.2,0.1,4.3,1.5,5.4,3.6c1.5,3.2,0.1,6.9-3,8.4
						c-9.5,4.5-18.8,9.6-27.7,15.2c-3,1.9-6.9,1-8.7-2c-1.9-3-1-6.9,2-8.7c9.3-5.9,19.1-11.2,29.1-15.9
						C1526.6,1765,1527.6,1764.8,1528.7,1764.9z M1473.9,1799.3c1.7,0.1,3.4,0.9,4.5,2.3c2.2,2.7,1.8,6.7-0.9,8.9
						c-8.2,6.7-16,13.9-23.3,21.4c-2.4,2.5-6.4,2.6-9,0.2c-2.5-2.4-2.6-6.4-0.2-9c7.6-7.9,15.9-15.5,24.4-22.4
						C1470.8,1799.7,1472.4,1799.2,1473.9,1799.3z M1429,1845.9c1.2,0.1,2.4,0.5,3.4,1.3c2.8,2.1,3.3,6.1,1.2,8.9
						c-6.4,8.4-12.2,17.3-17.5,26.4c-1.8,3-5.6,4.1-8.7,2.3c-3-1.8-4.1-5.6-2.3-8.7c5.5-9.5,11.7-18.8,18.3-27.7
						C1424.9,1846.7,1427,1845.8,1429,1845.9z"/>
					
						<linearGradient id="SVGID_25_" gradientUnits="userSpaceOnUse" x1="3487.259" y1="6493.6489" x2="3886.9944" y2="7849.6138" gradientTransform="matrix(0.2646 -0.9644 0.9644 0.2646 -6493.4893 3471.7615)">
						<stop  offset="0" style="stop-color:#4F52FF"/>
						<stop  offset="1" style="stop-color:#4042E2"/>
					</linearGradient>
					<path fill="url(#SVGID_25_)" d="M1804.9,1794.4c1.2,0.1,2.4,0.5,3.5,1.3c4.3,3.3,8.5,6.7,12.6,10.2c2.6,2.3,2.9,6.3,0.6,8.9
						c-2.3,2.6-6.3,2.9-8.9,0.6c-3.8-3.3-7.9-6.6-12-9.8c-2.8-2.1-3.3-6.1-1.2-8.9C1800.9,1795.1,1802.9,1794.3,1804.9,1794.4z"/>
				</g>
				<g>
					
						<linearGradient id="SVGID_26_" gradientUnits="userSpaceOnUse" x1="3289.4766" y1="6551.9321" x2="3689.217" y2="7907.9146" gradientTransform="matrix(0.2646 -0.9644 0.9644 0.2646 -6493.4893 3471.7615)">
						<stop  offset="0" style="stop-color:#4F52FF"/>
						<stop  offset="1" style="stop-color:#4042E2"/>
					</linearGradient>
					<path fill="url(#SVGID_26_)" d="M1794.8,1875.8c-0.8-1.1-2.2-1.6-3.5-1.2l-37.4,11.3c-13.8-12-29.5-21.8-46.9-28.9l-6.7-38.4
						c-0.2-1.3-1.3-2.4-2.6-2.6l-46.2-7.5c-1.4-0.2-2.7,0.4-3.3,1.7l-18.4,34.4c-18.7,1.3-36.8,5.7-53.6,12.7l-31.9-22.5
						c-1.1-0.8-2.6-0.8-3.7,0l-38,27.4c-1.1,0.8-1.6,2.2-1.2,3.5l11.3,37.4c-12,13.8-21.8,29.5-28.9,46.9l-38.4,6.7
						c-1.3,0.2-2.4,1.3-2.6,2.6l-7.5,46.2c-0.2,1.4,0.4,2.7,1.7,3.3l34.4,18.4c1.3,18.7,5.7,36.8,12.7,53.6l-22.5,31.9
						c-0.8,1.1-0.8,2.6,0,3.7l27.4,38c0.8,1.1,2.2,1.6,3.5,1.2l37.4-11.3c13.8,12,29.5,21.8,46.9,28.9l6.7,38.4
						c0.2,1.3,1.3,2.4,2.6,2.6l46.2,7.5c1.4,0.2,2.7-0.4,3.3-1.7l18.4-34.4c18.7-1.3,36.8-5.7,53.6-12.7l31.9,22.5
						c1.1,0.8,2.6,0.8,3.7,0l38-27.4c1.1-0.8,1.6-2.2,1.2-3.5l-11.3-37.4c12-13.8,21.8-29.5,28.9-46.9l38.4-6.7
						c1.3-0.2,2.4-1.3,2.6-2.6l7.5-46.2c0.2-1.4-0.4-2.7-1.7-3.3l-34.4-18.4c-1.3-18.7-5.7-36.8-12.7-53.6l22.5-31.9
						c0.8-1.1,0.8-2.6,0-3.7L1794.8,1875.8z"/>
					<path fill="#91B3FA" d="M1644.8,1967.3c10.2,0.6,19.9,4.4,27.9,11.1c9.8,8.2,15.8,19.8,16.9,32.5c2.3,26.3-17.2,49.6-43.6,51.9
						c-26.4,2.3-49.6-17.2-51.9-43.6c-1.1-12.8,2.8-25.2,11-35c8.2-9.8,19.8-15.8,32.5-16.9
						C1640.1,1967.2,1642.4,1967.2,1644.8,1967.3z M1639.7,2050.3c1.7,0.1,3.4,0.1,5.2-0.1c19.4-1.7,33.7-18.8,32-38.2
						c-0.8-9.4-5.2-17.9-12.5-23.9c-7.2-6.1-16.4-8.9-25.7-8.1l0,0c-9.4,0.8-17.9,5.2-23.9,12.5c-6.1,7.2-8.9,16.4-8.1,25.7
						C1608.3,2035.8,1622.6,2049.3,1639.7,2050.3z"/>
					<path fill="#91B3FA" d="M1648,1896.7c4,0.2,8,0.7,12.1,1.3c8,1.3,15.9,3.4,23.5,6.3c0.3,0.1,0.7,0.3,1,0.4c2.6,1,4.2,3.6,4,6.3
						c0,0.6-0.2,1.3-0.4,1.9c-1.3,3.3-4.9,4.9-8.2,3.6c-7-2.8-14.4-4.8-21.9-6l0,0c-0.4-0.1-0.8-0.1-1.2-0.2
						c-17.8-2.7-35.5-0.9-52,5.1c-8.9,3.2-17.5,7.7-25.4,13.3c-0.1,0-0.1,0.1-0.2,0.1c-0.2,0.1-0.4,0.3-0.6,0.4
						c-23.1,16.7-38.3,41.4-42.9,69.5c-0.6,3.6-1,7.3-1.2,10.9c-1.4,24.4,5.5,48.4,20,68.5c16.7,23.1,41.4,38.3,69.5,42.9
						c28.1,4.5,56.3-2.1,79.4-18.8c23.1-16.7,38.3-41.4,42.9-69.5c0.6-3.6,1-7.2,1.2-10.8c0.9-15.6-1.6-31.2-7.4-45.7
						c-0.4-0.9-0.5-1.8-0.4-2.7c0.1-2.4,1.6-4.6,4-5.5c3.3-1.3,6.9,0.3,8.2,3.5c6.5,16.2,9.3,33.7,8.3,51.1c-0.2,4-0.7,8-1.3,12.1
						c-5.1,31.5-22.1,59.1-48,77.7c-25.8,18.7-57.4,26.2-88.9,21.1c-31.5-5.1-59.1-22.1-77.7-48c-16.2-22.5-24-49.3-22.4-76.7
						c0.2-4.1,0.7-8.1,1.3-12.2C1533.1,1935.9,1587.7,1893.1,1648,1896.7z"/>
				</g>
			</g>
		</g>
		<g>
			<linearGradient id="SVGID_27_" gradientUnits="userSpaceOnUse" x1="1931.2076" y1="2530.3818" x2="2581.8813" y2="2530.3818">
				<stop  offset="0" style="stop-color:#09005D"/>
				<stop  offset="1" style="stop-color:#1A0F91"/>
			</linearGradient>
			<path fill="url(#SVGID_27_)" d="M1941.9,2074.8c-3.4,161.7-14.5,719.3-9.2,916.9c0.6,20.9,14.9,37.7,32.8,38.4
				c88.5,3.4,413,12,557.7,4.9c30.2-1.5,54.1-30.1,54.8-65.3c3-169.7,9.6-646.9-6.1-865.6c-1.9-26.2-19.5-47.1-41.8-49.7
				c-96.4-11.3-422.2-38.9-547.3-29.4C1960.1,2026.7,1942.4,2048.3,1941.9,2074.8z"/>
			<linearGradient id="SVGID_28_" gradientUnits="userSpaceOnUse" x1="2310.3452" y1="1948.5358" x2="2075.3257" y2="4221.5698">
				<stop  offset="0" style="stop-color:#FF928E"/>
				<stop  offset="1" style="stop-color:#FE7062"/>
			</linearGradient>
			<path fill="url(#SVGID_28_)" d="M1981.3,2124.4c-4.8,130.5-19.8,564.6-15,725.1c0.7,23.5,16.5,42.4,36.5,43.8
				c82.5,5.6,363.9,18.1,484.9,6.8c21.8-2,38.9-22.7,40.1-48.2c6.1-133.1,23.7-537.3,19.2-696c-0.7-25.3-17.5-46-39.1-48.3
				c-89.2-9.4-388.3-31.7-491.1-25.1C1997.5,2083.7,1982.2,2101.8,1981.3,2124.4z"/>
			<path opacity="0.5" fill="#FFFFFF" d="M2160.6,2053.3L2160.6,2053.3c0,5,3.3,9.1,7.5,9.3c20.9,1.3,79.8,4.9,106.1,6.7
				c5.2,0.4,9.3-5.1,8.3-11.1l-0.2-1c-0.7-4.1-3.6-7.1-7.1-7.5c-17.8-1.9-71.5-7.2-107-5.7
				C2163.9,2044.1,2160.6,2048.3,2160.6,2053.3z"/>
			<linearGradient id="SVGID_29_" gradientUnits="userSpaceOnUse" x1="2278.1428" y1="1471.937" x2="2242.4473" y2="3221.071">
				<stop  offset="0" style="stop-color:#FF928E"/>
				<stop  offset="1" style="stop-color:#FE7062"/>
			</linearGradient>
			<path fill="url(#SVGID_29_)" d="M2547.7,2205.2c-0.1-17.5-0.3-34.8-0.7-49.2c-0.7-25.3-17.5-46.1-39.1-48.3
				c-89.2-9.4-388.3-31.7-491.1-25.2c-19.3,1.2-34.6,19.5-35.5,42.1c-0.7,20.2-1.3,36.2-2.4,67.8L2547.7,2205.2z"/>
			<path opacity="0.42" fill="#FFFFFF" d="M2259.3,2483.3h-232.6c-13.7,0-24.9-11.5-24.9-25.6v-204.2c0-12.9,10.3-23.3,22.9-23
				l234.7,5.8c12.9,0.3,23.2,11.2,23.2,24.5v198.5C2282.7,2472.5,2272.2,2483.3,2259.3,2483.3z"/>
			<path opacity="0.42" fill="#FFFFFF" d="M2511.3,2483.3h-199.1c-5,0-9-4-9-9v-230.5c0-3.9,3.1-7,7-7h201.6c3.9,0,7.1,3.2,7.1,7.1
				v231.9C2518.9,2479.9,2515.5,2483.3,2511.3,2483.3z"/>
			<path opacity="0.42" fill="#FFFFFF" d="M2511.6,2683.4h-510.2c-4.4,0-8-3.6-8-8v-153.3c0-3.6,2.9-6.5,6.5-6.5h511.3
				c4.2,0,7.6,3.4,7.6,7.6v153C2518.9,2680.2,2515.6,2683.4,2511.6,2683.4z"/>
			<path opacity="0.42" fill="#FFFFFF" d="M2464.4,2872.8l-447.2-6.2c-13.3-0.2-23.9-9.9-23.9-21.7v-108.3
				c0-10.4,9.5-18.9,21.1-18.9h470.5c11.2,0,20.2,8.1,20.2,18.1l0.3,100.8C2505.5,2856.8,2487,2873.2,2464.4,2872.8z"/>
			
				<ellipse transform="matrix(0.7071 -0.7071 0.7071 0.7071 -927.7233 2064.2771)" opacity="0.74" fill="#FFFFFF" cx="2027.9" cy="2152" rx="15.8" ry="15.8"/>
			
				<ellipse transform="matrix(0.7071 -0.7071 0.7071 0.7071 -913.3882 2101.9282)" opacity="0.74" fill="#FFFFFF" cx="2080.6" cy="2153.5" rx="15.8" ry="15.8"/>
			
				<ellipse transform="matrix(0.2298 -0.9732 0.9732 0.2298 -458.3889 3733.689)" opacity="0.74" fill="#FFFFFF" cx="2129.7" cy="2156.4" rx="15.8" ry="15.8"/>
		</g>
	</g>
	<g>
	</g>
	<g>
	</g>
	<g>
	</g>
	<g>
	</g>
	<g>
	</g>
	<g>
	</g>
	<g>
	</g>
	<g>
	</g>
	<g>
	</g>
	<g>
	</g>
	<g>
	</g>
	<g>
	</g>
	<g>
	</g>
	<g>
	</g>
	<g>
	</g>
</g>
</svg>
