<?xml version="1.0" encoding="utf-8"?>
<!-- Generator: Adobe Illustrator 25.2.1, SVG Export Plug-In . SVG Version: 6.00 Build 0)  -->
<svg version="1.1" xmlns="http://www.w3.org/2000/svg" xmlns:xlink="http://www.w3.org/1999/xlink" x="0px" y="0px"
	 viewBox="0 0 3710 3710" enable-background="new 0 0 3710 3710" xml:space="preserve">
<g id="Background">
</g>
<g id="Illustration">
	<g>
		<linearGradient id="SVGID_1_" gradientUnits="userSpaceOnUse" x1="3410.0586" y1="3616.6582" x2="1365.9109" y2="1410.2761">
			<stop  offset="0" style="stop-color:#DAE3FE"/>
			<stop  offset="1" style="stop-color:#E9EFFD"/>
		</linearGradient>
		<path fill="url(#SVGID_1_)" d="M3129.9,2357.6c-281.9,654.4-1026.2,935.4-1609.3,887.5c-159.2-13.1-479.6-39.4-729.7-274.3
			c-480.4-451.1-406.4-1393.9,53.5-1949c59.2-71.5,469.1-550.4,1107.9-544c467.7,4.7,795.9,267,835.8,299.7
			c50.4,41.3,161.6,139.4,261.9,295C3285.4,1438.2,3306.1,1948.7,3129.9,2357.6z"/>
		<g opacity="0.77">
			<path fill="#91B3FA" d="M1252.9,2243.6c0,0,321.2-1000,180.1-1736.6c-9.5-49.5-69.8-69.1-106.4-34.4
				C1082.3,704.9,426.1,1460.8,1252.9,2243.6z"/>
			<path opacity="0.5" fill="#FFFFFF" d="M1199.8,2134.5c0.9,3.4-3.9,5-5.3,1.7c-48.7-119.1-195.2-648.3,67.3-1367.8
				c0.8-2.3,4.4-1.3,3.7,1.1C1218.4,944.6,1061.5,1600.4,1199.8,2134.5z"/>
		</g>
		<g>
			<path fill="#BDD0FB" d="M1251.9,2577.9c0,0-48.6-1273.7-463-2055.3c-27.9-52.5-95.6-49.8-119.4,4.9
				C510.6,893.8,133,2028.1,1251.9,2577.9z"/>
			<path opacity="0.5" fill="#FFFFFF" d="M1158.2,2475.5c2.1,3.5-2.1,7.3-4.6,4.2c-92.9-115.6-435.9-658.4-439.4-1587.9
				c0-3,3.9-3.2,4.1-0.3C735.9,1110.7,821.7,1923.8,1158.2,2475.5z"/>
		</g>
		<g>
			<g>
				
					<ellipse transform="matrix(4.385726e-02 -0.999 0.999 4.385726e-02 -238.5058 3808.6499)" fill="#7D97F4" cx="1870.5" cy="2028.9" rx="1220.7" ry="1317.6"/>
				<linearGradient id="SVGID_2_" gradientUnits="userSpaceOnUse" x1="757.1561" y1="2158.0657" x2="2120.7444" y2="2158.0657">
					<stop  offset="0" style="stop-color:#4F52FF"/>
					<stop  offset="1" style="stop-color:#4042E2"/>
				</linearGradient>
				<path fill="url(#SVGID_2_)" d="M876.5,1220.2c-28.9,46.4-51.2,98.7-47,153.2c4.8,63.2,36.8,122.3,38.5,185.6
					c2.8,107.4-80.1,197.3-106,301.5c-28.9,116.5,80.1,249.3,123.5,314.4c43.4,65,24.8-52.8,51.1-98.7
					c26.3-45.9,83.1,193.3,171.8,245.8c47.6,28.2,103.4,46.9,137.6,90.4c49.9,63.3,36.1,153.5,28.6,233.8
					c-7.5,80.3,3.7,178.2,76,213.9c42.6,21,96.7,13.9,135.1,41.8c67.5,49,35.2,155.8,62,234.8c29.1,85.9,86.7,87,175.9,105.2
					s-11.2-177.8,30.6-246.3c22-36,55.5-64.7,72.8-103.1c24-53.3,17.3-124.6,63.9-159.9c34.9-26.5,83.6-19.3,127.4-19.7
					c43.8-0.4,97.2-19.4,102.1-63c4.4-38.7-34.3-69.5-72.1-78.4c-37.9-9-78.2-4.7-115.4-16.1c-106.3-32.7-155.9-181.6-267-188.5
					c-94.9-6-174.4,100.6-267.7,82c-52-10.4-87.6-56.4-126.2-92.8c-49.6-46.7-111.1-81.8-150.5-137.3
					c-39.4-55.6-46.1-144.4,9.9-183.2c41.6-28.8,100.7-17.1,141.8,12.4c41.1,29.5,69.1,73.3,99.3,113.9
					c9.3,12.5,19.9,25.5,34.8,30.2c40.1,12.6,69.4-43.9,59.8-84.8c-9.6-40.9-38.5-77-39.9-119c-2.4-74.1,77.4-121.1,147.4-145.5
					c70-24.4,152.5-53.5,173-124.7c7.3-25.2,5.4-52.8,16.5-76.5c36.8-78.6,230.7-117.8,184.4-163.4
					c-46.4-45.6-193.5-55.5-222.2-147.3c-10.3-32.9-20.8-76.3-55.1-79.5c-55.8-5.2-87.7,63.9-134.5,75.8
					c-22.2,5.6-24.4,43.4-23.5,89.8c0.6,33.7-26.2,61.5-59.9,62.2c-33.7,0.6-61.5-26.2-62.2-59.9c-0.2-12.5,2-25.2,7.1-37.8
					c9-22.1,26.1-39.8,43.4-56.3c72-68.8,286.9-144.3,241.9-173.6c-45-29.3-261-110.1-293.2-65.5c-32.2,44.6,21.1,6.8,34.1,59.7
					c13,52.9-159.8,45.8-239.7,68.7c-13.2,3.8-27.8,7.5-40.2,1.5c-13.8-6.7-19.6-22.8-27.1-36.1c-40.1-71.7-173.6-25.2-173.6-25.2
					S902.4,1178.7,876.5,1220.2z"/>
				<linearGradient id="SVGID_3_" gradientUnits="userSpaceOnUse" x1="1476.1483" y1="964.0708" x2="2187.0801" y2="964.0708">
					<stop  offset="0" style="stop-color:#4F52FF"/>
					<stop  offset="1" style="stop-color:#4042E2"/>
				</linearGradient>
				<path fill="url(#SVGID_3_)" d="M1480.1,894.9c-19.4,36.2,38.3,35.6,44,76.2c51.9,5.7,73.3-76.2,124.6-85.8
					c29-5.4,57.1,15.4,72.8,40.3c15.7,24.9,23.1,54.2,36.4,80.5c29.9,58.9,91.7,100.3,157.5,105.7c14.3,1.2,30.1,0.3,40.9-9.2
					c31.3-27.6-13.5-79.4-1.8-119.5c13.3-45.8,79.3-38.8,123.9-55.6c12.3-4.6,107-29.9,108.5-42.9c2.7-23.2-41.2-37.9-90.3-50.5
					c-83.2-21.4-229.7-20.5-301.2-14C1700.2,828.6,1541.5,821.6,1480.1,894.9L1480.1,894.9z"/>
				<g opacity="0.56">
					<linearGradient id="SVGID_4_" gradientUnits="userSpaceOnUse" x1="2550.2117" y1="1971.4391" x2="3083.072" y2="1971.4391">
						<stop  offset="0" style="stop-color:#4F52FF"/>
						<stop  offset="1" style="stop-color:#4042E2"/>
					</linearGradient>
					<path fill="url(#SVGID_4_)" d="M3068.1,2450c21.6-135.1,19.8-273.8-5.3-408.3c-6.7-35.9-22.3-78.6-58.5-83.8
						c-41.8-6-92.9,42-119.1,8.9c-11.5-14.6-6.9-35.9-0.4-53.4c17.2-46,44.3-88.3,78.7-123.4c21.4-21.8,45.9-41.1,62.4-66.7
						c35.3-55,10.5-135.2-39.4-177.4c-49.9-42.1-114.3,33.4-166.7,3.4c-52.4-30-54.1-102.7-63.9-162.3
						c-7.3-44.1-39.8-163.7-75.8-105.5c-35.9,58.2,47.9,290.1,142.3,401.3c11.4,13.4,24,28.4,23,46c-2.3,41.9-63.4,40.1-104.5,48.7
						c-50.9,10.6-128.9-16.6-85.8,72.1c22.7,46.8,131.1,110.8,102,142.1c-29.1,31.3-118.7,122-160.7,195.3
						c-42,73.3-62.4,164.6-30.7,243s127,132.4,204.8,99.4c36.4-15.4,76.1-47.6,110-27.1c30.7,18.5,26.1,63,24.6,98.8
						c-1.5,35.8,19.1,83.3,53.9,74.9c11.5-2.8,20.5-11.5,28.2-20.3C3036.2,2599.3,3056.3,2523.7,3068.1,2450z"/>
				</g>
				<ellipse opacity="9.000000e-02" fill="#FFFFFF" cx="1799.2" cy="1940.9" rx="1033.9" ry="976.7"/>
				<g opacity="0.68">
					<path fill="#FFFFFF" d="M2238.1,2049.9c-0.3,215.2-15,430.9-52.8,643c-9.6,53-20.6,105.7-33.9,158
						c-13.3,52.2-28.6,104-47.3,154.6c-9.4,25.3-19.7,50.3-31.3,74.7c-11.6,24.4-24.4,48.3-39.4,70.9c-15,22.5-32,44.1-52.9,61.9
						c-10.5,8.8-22,16.6-34.6,22.3c-12.6,5.7-26.3,9.3-40.3,9.5c-13.9,0.4-27.9-2.3-40.7-7.5c-12.9-5.1-24.6-12.6-35.4-21.1
						c-21.4-17.2-38.8-38.5-54.1-60.9c-15.2-22.5-28.2-46.3-40-70.6c-11.7-24.4-22.1-49.3-31.6-74.5c-19-50.5-34.5-102.2-47.8-154.4
						c-13.4-52.2-24.5-104.9-34.2-157.9c-19.2-106-32.3-213-41.1-320.3c-8.7-107.3-13.1-215-13.5-322.6c-0.2-53.8,1.1-107.7,3-161.4
						c2-53.8,4.9-107.5,8.8-161.2c7.8-107.4,19.6-214.5,37.2-320.7c8.8-53.1,19.1-106,31.5-158.4c12.4-52.4,26.8-104.4,44.8-155.2
						c9-25.4,18.9-50.5,30.1-75.1c11.2-24.5,23.8-48.5,38.5-71.2c14.8-22.6,31.8-44.1,52.9-61.3c10.6-8.5,22.2-16,35-21
						c12.7-5.1,26.5-7.7,40.2-7.2c13.7,0.4,27.2,3.8,39.7,9.3c12.5,5.5,24,13.1,34.5,21.6c21.1,17.2,38.6,38.2,54.1,60.3
						c15.5,22.2,28.9,45.7,41.1,69.7c12.2,24.1,23.1,48.8,33.1,73.8c20,50.1,36.5,101.5,50.8,153.4c14.3,51.9,26.4,104.4,36.9,157.3
						C2220.7,1619,2237.5,1834.6,2238.1,2049.9z M2225.4,2049.9c0.2-107.3-4-214.7-12.9-321.6c-8.9-106.9-22.3-213.6-42.3-319
						c-10-52.7-21.6-105.1-35.4-157c-13.8-51.8-29.8-103.1-49.2-153c-9.8-25-20.3-49.6-32.2-73.6c-11.9-24-25-47.4-40.1-69.4
						c-15.1-22-32.2-42.8-52.7-59.8c-10.2-8.4-21.4-15.9-33.4-21.3c-12-5.4-25-8.9-38.2-9.3c-13.2-0.4-26.3,2.2-38.5,7.2
						c-12.2,5-23.5,12.2-33.7,20.6c-20.5,17-37,38.3-51.4,60.7c-14.4,22.5-26.6,46.4-37.5,70.8c-10.9,24.4-20.5,49.5-29.2,74.8
						c-17.4,50.7-31.3,102.6-43.2,154.9c-11.9,52.3-21.7,105.1-30,158.1c-16.6,106-27.4,212.9-34.3,320.1
						c-6.9,107.1-9.5,214.5-9.3,321.8c-0.2,107.3,3.5,214.7,11.5,321.7c8.1,107,20.5,213.7,39,319.4c9.3,52.8,20.1,105.4,33.1,157.4
						c13,52,28.1,103.5,46.6,153.8c9.3,25.1,19.5,49.9,30.9,74c11.5,24.1,24.2,47.7,39,69.8c14.8,22,31.7,43,52.2,59.6
						c10.2,8.2,21.4,15.4,33.5,20.3c12,4.9,25,7.6,38,7.2c13-0.3,25.7-3.7,37.6-9.2c11.9-5.5,22.8-13,32.8-21.5
						c20.1-17.2,36.6-38.4,51.1-60.6c14.5-22.3,27.1-46,38.4-70.2c11.3-24.2,21.3-49.1,30.5-74.2c18.3-50.3,33.2-101.9,46.1-153.9
						c12.8-52.1,23.5-104.6,32.7-157.5c18.4-105.7,30.6-212.5,38.7-319.5C2221.6,2264.6,2225.4,2157.2,2225.4,2049.9z"/>
					<path fill="#FFFFFF" d="M2781,2049.9c-0.3,69.3-4.6,138.5-13.9,207.2c-9.3,68.6-23,136.7-41.6,203.4
						c-37.5,133.3-94.2,261.6-171.3,376.8c-38.6,57.5-82.3,111.7-131.1,160.8c-48.8,49.1-102.9,93.1-161.5,130
						c-58.6,36.9-122,66.4-188.3,86.5c-66.4,19.9-135.6,30.3-204.9,30.2c-69.3,0.1-138.6-10.2-205-30.1
						c-66.4-20-129.7-49.6-188.4-86.4c-58.7-36.9-112.8-80.9-161.7-130c-48.9-49.1-92.7-103.2-131.3-160.8
						c-77.2-115.2-134-243.5-171.6-376.9c-18.6-66.8-32.6-134.8-41.8-203.5c-9.2-68.7-13.5-138-13.8-207.3
						c0.2-69.3,4.6-138.6,13.9-207.3c9.3-68.7,23.2-136.7,41.9-203.5c37.7-133.3,94.5-261.6,171.8-376.7
						c38.6-57.5,82.4-111.6,131.3-160.6c48.9-49,103-93,161.6-129.8c58.7-36.7,122-66.1,188.3-86.2c66.3-19.9,135.5-30.2,204.7-30.2
						c69.2,0,138.4,10.4,204.7,30.3c66.3,20.1,129.6,49.5,188.2,86.3c58.6,36.8,112.6,80.8,161.5,129.9
						c48.9,49.1,92.6,103.2,131.1,160.6c77.1,115.1,133.9,243.3,171.5,376.6c18.6,66.7,32.4,134.8,41.7,203.4
						C2776.3,1911.4,2780.7,1980.6,2781,2049.9z M2766.4,2049.9c0-68.6-4.2-137.3-13.1-205.4c-9-68-22.4-135.5-40.6-201.7
						c-36.4-132.3-91.3-260-166.9-374.7c-37.8-57.3-80.7-111.3-128.8-160.4c-48.1-49-101.2-93.2-159.2-130.1
						c-58-36.7-120.7-66.3-186.4-86.4c-65.8-19.9-134.4-30.2-203.1-30.3c-68.7,0.2-137.3,10.6-203,30.5
						c-65.7,20.1-128.3,49.8-186.3,86.5c-57.9,36.9-111,81.1-159,130.2c-48,49.1-90.8,103.1-128.6,160.4
						c-75.5,114.8-130.3,242.4-166.6,374.6c-36.1,132.4-53.6,269.6-53.6,406.8c0,137.2,17.6,274.4,53.8,406.8
						c36.3,132.2,91.2,259.7,166.8,374.4c37.7,57.3,80.6,111.3,128.6,160.3c48,49,101.1,93.2,159,130c58,36.7,120.5,66.2,186.2,86.3
						c65.6,19.9,134.1,30.4,202.8,30.6c68.6-0.2,137.2-10.6,202.8-30.4c65.6-20,128.3-49.5,186.3-86.2
						c58-36.8,111.1-80.9,159.2-129.9c48.1-49,91-103,128.8-160.3c75.6-114.7,130.6-242.3,167.1-374.5
						c18.2-66.2,31.7-133.6,40.7-201.7C2762.2,2187.2,2766.4,2118.5,2766.4,2049.9z"/>
					<path fill="#FFFFFF" d="M801.3,1576.9l274.6-1.8l274.6-1l549.2-0.8l549.2,0.9l274.6,1.1l274.6,1.9c0.4,0,0.6,0.3,0.6,0.6
						c0,0.4-0.3,0.6-0.6,0.6l-274.6,1.9l-274.6,1.1l-549.2,0.9l-549.2-0.8l-274.6-1l-274.6-1.8c-0.5,0-1-0.4-0.9-1
						C800.4,1577.4,800.8,1576.9,801.3,1576.9z"/>
					<path fill="#FFFFFF" d="M1119.9,1117l195-1.8l195-1c65-0.4,130-0.4,195-0.5l195-0.3l389.9,0.9l195,1.1l195,1.9
						c0.4,0,0.6,0.3,0.6,0.6c0,0.3-0.3,0.6-0.6,0.6l-195,1.9l-195,1.1l-389.9,0.9l-195-0.3c-65-0.1-130-0.1-195-0.5l-195-1l-195-1.8
						c-0.5,0-1-0.4-0.9-1C1119,1117.4,1119.4,1117,1119.9,1117z"/>
					<path fill="#FFFFFF" d="M705.9,2036.9l298.5-1.8l298.5-1l597-0.8l597,0.9l298.5,1.1l298.5,1.9c0.4,0,0.6,0.3,0.6,0.6
						c0,0.3-0.3,0.6-0.6,0.6l-298.5,1.9l-298.5,1.1l-597,0.9l-597-0.8l-298.5-1l-298.5-1.8c-0.5,0-1-0.4-0.9-1
						C704.9,2037.3,705.4,2036.9,705.9,2036.9z"/>
					<path fill="#FFFFFF" d="M801.3,2496.9l274.6-1.8l274.6-1l549.2-0.8l549.2,0.9l274.6,1.1l274.6,1.9c0.4,0,0.6,0.3,0.6,0.6
						c0,0.4-0.3,0.6-0.6,0.6l-274.6,1.9l-274.6,1.1l-549.2,0.9l-549.2-0.8l-274.6-1l-274.6-1.8c-0.5,0-1-0.4-0.9-1
						C800.4,2497.3,800.8,2496.9,801.3,2496.9z"/>
					<path fill="#FFFFFF" d="M2719,2961.1H1159.2c-1.9,0-3.3-1.5-3.3-3.3c0-1.9,1.5-3.3,3.3-3.3H2719c1.9,0,3.3,1.5,3.3,3.3
						C2722.3,2959.6,2720.8,2961.1,2719,2961.1z"/>
				</g>
			</g>
			<g>
				<defs>
					
						<ellipse id="SVGID_5_" transform="matrix(4.385798e-02 -0.999 0.999 4.385798e-02 -242.0247 3815.2986)" cx="1872.2" cy="2034.1" rx="1220.7" ry="1317.6"/>
				</defs>
				<clipPath id="SVGID_6_">
					<use xlink:href="#SVGID_5_"  overflow="visible"/>
				</clipPath>
				<linearGradient id="SVGID_7_" gradientUnits="userSpaceOnUse" x1="1750.6445" y1="1319.0306" x2="-180.9667" y2="2586">
					<stop  offset="0" style="stop-color:#FEBBBA"/>
					<stop  offset="1" style="stop-color:#FF928E"/>
				</linearGradient>
				<path clip-path="url(#SVGID_6_)" fill="url(#SVGID_7_)" d="M1843.3,1883.3c27.6-57.3-14.3-135-51.9-178.9
					c-12.4-14.5-26.2-23.2-36.6-38.8c-10.2-15.3-14.7-22.1-13.5-27.3c2.3-9.6,14.4-14.3,19.3-16.1c67.2-25.3,177.4-5,177.4-5
					c71.6,13.2,144.1,20.6,216,32.1c28.3,4.5,71.5,11.5,82-6.8c6.8-11.8-2.8-29.1-5.1-33.3c-24.7-44.5-87.8-44.5-170.8-65
					c-59.1-14.6-162.1-48-160.2-68.8c3.5-38.9,374.1-11.3,390-89.2c3.1-14.9-7.8-29.5-13.9-36.6c-57.6-2.8-120.5-3.4-188-0.3
					c-73.9,3.3-142.1,10.5-203.7,19.6c42.2-33.9,80.5-54.7,108.4-67.6c89.3-41.2,162-43.1,181.8-93.5c0.1-0.1,0.1-0.3,0.2-0.4
					c7.6-19.7-5.1-41.5-25.9-45c-1.4-0.2-2.9-0.5-4.4-0.7c-67.7-9.8-115.9,23.5-202.6,61.5c-27.7,12.2-70.3,29.6-125.1,47
					c7-41.9,76.4-55.6,107-77.1c24.6-17.2,87.9-57.7,93.8-91.3c8.7-49.5-43.9-27.9-69.2-15.4c-50.9,25.3-101.6,52.7-152.2,79
					c-64.3,33.5-111.1,49.4-179.9,70.1c-30.7,9.2-60.4,21.9-90.2,34.2c-39.7,16.4-71.6,46.9-89.6,86.4l-865.4,92.8l28.9,269l867-93
					c10,11.4,21.2,20.1,34.1,28.4c3.2,1.5,6.5,2.7,9.7,4.3c72,34.3,134.5,77.7,193.8,131.4C1742.7,1823.8,1784.3,1894,1843.3,1883.3
					z"/>
				<linearGradient id="SVGID_8_" gradientUnits="userSpaceOnUse" x1="1893.0018" y1="2464.6094" x2="2977.6472" y2="1808.4669">
					<stop  offset="0" style="stop-color:#A22B25"/>
					<stop  offset="1" style="stop-color:#C0423C"/>
				</linearGradient>
				<path clip-path="url(#SVGID_6_)" fill="url(#SVGID_8_)" d="M2093.3,1734.6c-32.5,52.6,0.1,132.1,32.1,178.4
					c10.5,15.2,23,25.1,31.5,41.2c8.3,15.8,12,22.9,10.3,27.8c-3.2,9-15.4,12.4-20.3,13.7c-67.6,17.6-172.2-13.2-172.2-13.2
					c-67.9-20-137.4-34.6-205.7-53c-27-7.3-68-18.4-80.1-1.8c-7.8,10.7-0.2,28.4,1.6,32.7c19.4,45.5,80.4,52,158.7,80.3
					c55.7,20.2,152,62.9,148.1,82.8c-7.4,37.3-363.2-27-386.5,46.8c-4.5,14.1,4.5,29.3,9.7,36.9c55.4,8.5,116.3,15.5,181.9,19.4
					c71.9,4.3,138.6,4.3,199.2,1.7c-44.3,28.5-83.5,44.8-111.8,54.4c-90.6,30.8-161.2,25.3-185.5,72c-0.1,0.1-0.1,0.3-0.2,0.4
					c-9.3,18.3,0.7,40.7,20.5,46.2c1.4,0.4,2.8,0.8,4.2,1.1c64.5,16.4,114.6-10.9,202.3-39c28-9,71-21.5,125.9-32.8
					c-11.1,39.8-79.6,46.1-111.3,63.7c-25.5,14.2-90.9,46.9-100,78.8c-13.4,47,39.7,31.4,65.4,21.9c51.9-19.3,103.7-40.7,155.3-61
					c65.6-25.9,112.6-36.5,181.2-49.5c30.6-5.8,60.7-13.6,90.7-22.6c40.1-11.9,74.1-37,95.5-73.1l847.1-1.9l-0.6-266.9l-848.6,1.9
					c-8.5-7.2-18.5-21.2-30.1-30.6c-3-1.7-6-3.1-8.9-4.9c-66.2-40.5-122.3-88.7-174.2-146.8
					C2184.6,1802.2,2151.4,1730.2,2093.3,1734.6z"/>
				<linearGradient id="SVGID_9_" gradientUnits="userSpaceOnUse" x1="1465.3507" y1="1515.0691" x2="1465.3507" y2="1785.053">
					<stop  offset="0" style="stop-color:#E1473D"/>
					<stop  offset="1" style="stop-color:#E9605A"/>
				</linearGradient>
				<path clip-path="url(#SVGID_6_)" fill="url(#SVGID_9_)" d="M1802.4,2443.5c31.2,50.5-0.1,126.8-30.7,171.2
					c-10.1,14.6-22,24.1-30.2,39.6c-8,15.2-11.5,22-9.8,26.7c3.1,8.6,14.8,11.9,19.5,13.1c64.9,16.9,165.2-12.7,165.2-12.7
					c65.2-19.2,131.8-33.3,197.4-51c25.9-7,65.3-17.7,76.9-1.7c7.5,10.3,0.2,27.3-1.5,31.4c-18.6,43.7-77.2,49.9-152.3,77.2
					c-53.4,19.4-145.8,60.5-142.1,79.6c7.1,35.8,348.5-26.1,371,44.7c4.3,13.6-4.3,28.1-9.3,35.4c-53.2,8.2-111.6,14.9-174.6,18.7
					c-69,4.2-133,4.2-191.1,1.8c42.5,27.4,80.1,42.9,107.3,52.2c87,29.6,154.7,24.2,178,69c0.1,0.1,0.1,0.3,0.2,0.4
					c9,17.6-0.7,39-19.7,44.4c-1.3,0.4-2.6,0.7-4,1.1c-61.9,15.7-110-10.4-194.2-37.3c-26.9-8.6-68.2-20.6-120.8-31.4
					c10.6,38.2,76.4,44.2,106.9,61.1c24.5,13.6,87.3,45,96,75.6c12.9,45.1-38.1,30.2-62.7,21c-49.8-18.5-99.6-39-149.1-58.5
					c-63-24.8-108-35-173.9-47.4c-29.4-5.6-58.2-14.4-87.1-22.9c-38.5-11.4-71.1-33.3-91.7-71.4l-812.4-1.4l0.4-252.7l813.8,1.4
					c8.2-10.4,17.7-20.8,28.9-29.8c2.8-1.7,5.7-3.2,8.6-4.9c63.5-38.9,117.3-85.3,167.1-141
					C1714.8,2508.6,1746.7,2439.4,1802.4,2443.5z"/>
			</g>
		</g>
		<g>
			<g>
				<path fill="#BDD0FB" d="M2339.2,3185.3c0,0,101.5-511,340.1-796.4c16-19.2,46.9-13.1,54.4,10.7
					C2783.7,2559.1,2886.2,3044.9,2339.2,3185.3z"/>
				<path opacity="0.5" fill="#FFFFFF" d="M2388.5,3150.8c-1.2,1.3,0.5,3.1,1.9,2c49.8-39.9,240.7-234.1,300.2-609.4
					c0.2-1.2-1.6-1.6-1.9-0.4C2667,2630.3,2577.1,2952.5,2388.5,3150.8z"/>
			</g>
			<g>
				<path fill="#91B3FA" d="M2339.1,3183.7c0,0,320.3-310.2,611-410.5c19.5-6.7,35.5,9.8,28,29.2
					C2928.2,2932,2746,3306.8,2339.1,3183.7z"/>
				<path opacity="0.5" fill="#FFFFFF" d="M2386.7,3179.8c-1.4,0.4-1.3,2.3,0.1,2.1c50.7-7.4,266.1-64.2,492-298
					c0.7-0.8-0.2-1.7-0.9-1C2820.6,2934.1,2602.7,3119.2,2386.7,3179.8z"/>
			</g>
		</g>
	</g>
	<g>
	</g>
	<g>
	</g>
	<g>
	</g>
	<g>
	</g>
	<g>
	</g>
	<g>
	</g>
	<g>
	</g>
	<g>
	</g>
	<g>
	</g>
	<g>
	</g>
	<g>
	</g>
	<g>
	</g>
	<g>
	</g>
	<g>
	</g>
	<g>
	</g>
</g>
</svg>
