<?xml version="1.0" encoding="utf-8"?>
<!-- Generator: Adobe Illustrator 25.2.1, SVG Export Plug-In . SVG Version: 6.00 Build 0)  -->
<svg version="1.1" xmlns="http://www.w3.org/2000/svg" xmlns:xlink="http://www.w3.org/1999/xlink" x="0px" y="0px"
	 viewBox="0 0 3710 3710" enable-background="new 0 0 3710 3710" xml:space="preserve">
<g id="Background">
	<g>
		<g>
			<rect fill="#FFFFFF" width="3710" height="3710"/>
		</g>
	</g>
</g>
<g id="Illustration">
	<g>
		<linearGradient id="SVGID_1_" gradientUnits="userSpaceOnUse" x1="3674.0728" y1="3522.3242" x2="747.6509" y2="1004.9729">
			<stop  offset="0" style="stop-color:#DAE3FE"/>
			<stop  offset="1" style="stop-color:#E9EFFD"/>
		</linearGradient>
		<path fill="url(#SVGID_1_)" d="M2895.7,2868.9c-72,74.2-136.5,117.9-185.8,150.8c-481.2,321.3-1031.3,228.7-1201.3,197
			c-274.4-51.1-506-87.1-705-266.9c-452.2-408.5-430.2-1260.8-84.7-1788.7c41-62.6,386-574,937.2-646.1c13.5-1.8,23.5-2.8,32.4-3.7
			c85.3-9,613.7-56.7,1044.6,304.3c61.7,51.7,160.9,144.9,253,287C3322.6,1622.7,3323.7,2427.7,2895.7,2868.9z"/>
		<g>
			<g>
				<g>
					<path fill="#91B3FA" d="M1278.9,2697.1c-5.5-0.2-9.8-4.9-9.6-10.4c0.4-10.7,0.4-21.6-0.1-32.4c-0.2-5.5,3.9-10.1,9.4-10.4
						c0.1,0,0.1,0,0.2,0c5.5-0.2,10.2,4,10.4,9.6c0.5,11.3,0.5,22.8,0.1,34.1c-0.2,5.2-4.3,9.3-9.3,9.6
						C1279.6,2697.1,1279.3,2697.1,1278.9,2697.1z M1263.3,2602c-1.9-10.6-4.4-21.2-7.2-31.6c-1.5-5.3,1.7-10.8,7-12.3
						c5.4-1.4,10.8,1.7,12.3,7c3,10.9,5.5,22.1,7.6,33.2c1,5.4-2.6,10.6-8,11.6c-0.4,0.1-0.8,0.1-1.2,0.1
						C1268.8,2610.5,1264.3,2607,1263.3,2602z M1238.8,2520.7c-4.2-9.9-9-19.7-14-29.2c-2.6-4.9-0.8-10.9,4.1-13.5
						c4.9-2.6,10.9-0.8,13.5,4.1c5.3,10,10.3,20.3,14.8,30.7c2.2,5.1-0.2,11-5.2,13.1c-1.1,0.5-2.2,0.7-3.3,0.8
						C1244.5,2527,1240.5,2524.7,1238.8,2520.7z M1196.7,2447c-6.4-8.7-13.2-17.2-20.2-25.3c-3.6-4.2-3.2-10.5,1-14.1
						c4.2-3.6,10.5-3.2,14.1,1c7.4,8.5,14.6,17.5,21.3,26.7c3.3,4.5,2.3,10.7-2.2,14c-1.6,1.2-3.4,1.8-5.3,1.9
						C1202.2,2451.3,1198.8,2449.8,1196.7,2447z M1139.3,2384.4c-8.1-7.1-16.6-13.9-25.3-20.2c-4.5-3.3-5.4-9.5-2.2-14
						c3.3-4.5,9.5-5.4,14-2.2c9.2,6.7,18.1,13.9,26.7,21.3c4.2,3.6,4.6,9.9,1,14.1c-1.8,2.1-4.3,3.3-6.9,3.4
						C1143.9,2387,1141.4,2386.2,1139.3,2384.4z M1069.4,2336.2c-9.5-5.1-19.3-9.8-29.2-14.1c-5.1-2.2-7.4-8.1-5.2-13.2
						c2.2-5.1,8.1-7.4,13.2-5.2c10.4,4.5,20.7,9.5,30.7,14.8c4.9,2.6,6.7,8.7,4.1,13.5c-1.7,3.2-4.9,5-8.2,5.2
						C1073,2337.5,1071.1,2337.1,1069.4,2336.2z M698,2331.5c-2.6-4.9-0.8-10.9,4.1-13.5c10-5.3,20.3-10.3,30.8-14.7
						c5.1-2.2,11,0.2,13.1,5.3c2.2,5.1-0.2,11-5.3,13.1c-9.9,4.2-19.7,8.9-29.2,14c-1.3,0.7-2.7,1.1-4.1,1.2
						C703.6,2337,699.9,2335.1,698,2331.5z M990.6,2304.6c-10.4-2.9-21-5.3-31.6-7.2c-5.4-1-9-6.2-8-11.7c1-5.4,6.2-9,11.7-8
						c11.1,2.1,22.3,4.6,33.2,7.6c5.3,1.5,8.5,7,7,12.3c-1.2,4.2-4.9,7.1-9,7.3C992.9,2305,991.7,2304.9,990.6,2304.6z
						 M778.2,2297.3c-1.4-5.3,1.7-10.8,7-12.3c10.9-3,22.1-5.5,33.3-7.5c5.4-1,10.6,2.6,11.6,8.1c1,5.4-2.6,10.6-8.1,11.6
						c-10.6,1.9-21.2,4.3-31.6,7.1c-0.7,0.2-1.3,0.3-2,0.3C783.8,2305,779.4,2302,778.2,2297.3z M906.8,2291.4
						c-10.7-0.5-21.6-0.5-32.4,0c-5.5,0.2-10.2-4-10.4-9.6c-0.2-5.4,3.9-10.1,9.4-10.4c0.1,0,0.1,0,0.2,0c11.3-0.5,22.8-0.5,34.1,0
						c5.5,0.2,9.8,4.9,9.6,10.4c-0.2,5.2-4.3,9.2-9.3,9.6C907.5,2291.5,907.2,2291.5,906.8,2291.4z"/>
					<path fill="#91B3FA" d="M648.7,2375.3c2-0.1,3.9-0.8,5.6-2.1c4-3.2,8.2-6.4,12.4-9.4c4.5-3.3,5.4-9.5,2.2-14
						c-3.3-4.5-9.5-5.4-14-2.2c-4.4,3.2-8.8,6.6-13.1,9.9c-4.3,3.4-5.1,9.7-1.6,14.1C642.3,2374.2,645.5,2375.5,648.7,2375.3z"/>
				</g>
				<g>
					<path fill="#91B3FA" d="M502.8,2643.2c4.8-0.3,8.8-4.1,9.3-9c0.5-5.1,1.1-10.3,1.8-15.5c0.8-5.5-3.1-10.5-8.5-11.3
						c-5.5-0.8-10.5,3.1-11.3,8.5c-0.7,5.4-1.4,10.9-1.9,16.3c-0.5,5.5,3.5,10.4,9,10.9C501.8,2643.2,502.3,2643.2,502.8,2643.2z"/>
					<path fill="#91B3FA" d="M895.3,3070.3c-5.5,0.1-10.1-4.3-10.1-9.9c-0.1-5.5,4.3-10.1,9.9-10.1c10.5-0.2,21.2-0.8,31.8-1.8
						c5.5-0.6,10.4,3.5,10.9,9c0.5,5.5-3.5,10.4-9,10.9c-4.6,0.4-9.2,0.8-13.8,1.1C908.4,3069.9,901.8,3070.2,895.3,3070.3z
						 M970.5,3052c-1.3-5.4,2.1-10.8,7.4-12c10.3-2.4,20.6-5.4,30.7-8.6c5.2-1.7,10.9,1.1,12.6,6.4c1.7,5.2-1.1,10.9-6.4,12.6
						c-10.6,3.5-21.5,6.5-32.3,9.1c-0.6,0.1-1.1,0.2-1.7,0.3C976.1,3060,971.7,3056.8,970.5,3052z M840.8,3067.3
						c-11-1.4-22.2-3.2-33.1-5.5c-5.4-1.1-8.9-6.4-7.7-11.9c1.1-5.4,6.4-8.9,11.8-7.7c10.4,2.2,21,3.9,31.4,5.2
						c5.5,0.7,9.4,5.7,8.7,11.2c-0.6,4.9-4.6,8.5-9.3,8.8C842.1,3067.4,841.5,3067.4,840.8,3067.3z M1052,3025.2
						c-2.4-5-0.4-11,4.6-13.4c9.5-4.6,18.9-9.8,28-15.2c4.7-2.8,10.9-1.3,13.7,3.5c2.8,4.7,1.3,10.9-3.5,13.7
						c-9.6,5.7-19.5,11.1-29.5,16c-1.2,0.6-2.5,0.9-3.8,1C1057.7,3031.1,1053.9,3029,1052,3025.2z M755.3,3046.9
						c-10.5-3.8-20.9-8-31.1-12.7c-5-2.3-7.2-8.2-4.9-13.3c2.3-5,8.2-7.2,13.3-4.9c9.6,4.4,19.6,8.5,29.5,12c5.2,1.9,7.9,7.6,6,12.8
						c-1.4,3.9-4.9,6.4-8.8,6.6C758,3047.6,756.6,3047.4,755.3,3046.9z M676.3,3008.3c-9.4-6-18.7-12.4-27.6-19.1
						c-4.4-3.3-5.3-9.6-1.9-14c3.3-4.4,9.6-5.3,14-1.9c8.4,6.4,17.2,12.5,26.2,18.2c4.7,3,6.1,9.1,3.1,13.8
						c-1.8,2.8-4.7,4.4-7.8,4.6C680.3,3010,678.2,3009.5,676.3,3008.3z M607.6,2953.4c-7.9-7.9-15.6-16.2-22.7-24.7
						c-3.6-4.2-3-10.5,1.2-14.1c4.2-3.6,10.5-3,14.1,1.2c6.8,8.1,14.1,16,21.6,23.4c3.9,3.9,3.9,10.2,0,14.1
						c-1.8,1.8-4.1,2.8-6.4,2.9C612.6,2956.5,609.8,2955.5,607.6,2953.4z M552.6,2884.8c-6-9.4-11.6-19.2-16.8-29.1
						c-2.6-4.9-0.7-10.9,4.2-13.5c4.9-2.6,10.9-0.7,13.5,4.2c4.9,9.4,10.3,18.7,15.9,27.6c3,4.7,1.6,10.8-3.1,13.8
						c-1.5,0.9-3.1,1.4-4.7,1.5C558.1,2889.6,554.6,2888,552.6,2884.8z M513.9,2805.7c-3.8-10.5-7.1-21.3-10-32
						c-1.4-5.3,1.8-10.8,7.1-12.2c5.3-1.4,10.8,1.8,12.2,7.1c2.7,10.2,5.9,20.5,9.5,30.4c1.9,5.2-0.8,10.9-6,12.8
						c-0.9,0.3-1.8,0.5-2.7,0.6C519.6,2812.6,515.4,2810,513.9,2805.7z M493.6,2720.2c-1-8.1-1.8-16.4-2.3-24.6
						c-0.2-3-0.3-5.9-0.5-8.9c-0.2-5.5,4-10.3,9.6-10.4c5.5-0.2,10.2,4.1,10.4,9.6c0.1,2.8,0.3,5.6,0.4,8.4
						c0.5,7.8,1.2,15.6,2.2,23.4c0.7,5.5-3.2,10.5-8.7,11.2c-0.2,0-0.4,0-0.6,0.1C498.9,2729.3,494.2,2725.5,493.6,2720.2z"/>
					<path fill="#91B3FA" d="M1134.3,2984.7c2-0.1,4-0.8,5.6-2.2c4.2-3.4,8.5-6.9,12.6-10.5c4.2-3.6,4.6-10,1-14.1
						c-3.6-4.2-9.9-4.6-14.1-1c-3.9,3.4-7.9,6.8-11.9,10c-4.3,3.5-5,9.8-1.5,14.1C1128,2983.7,1131.1,2984.9,1134.3,2984.7z"/>
				</g>
				<g>
					<linearGradient id="SVGID_2_" gradientUnits="userSpaceOnUse" x1="-61.6633" y1="1387.9075" x2="2125.2917" y2="4330.0693">
						<stop  offset="0" style="stop-color:#FF928E"/>
						<stop  offset="1" style="stop-color:#FE7062"/>
					</linearGradient>
					<path fill="url(#SVGID_2_)" d="M1153.2,2814.3c1.2-1.6,1.2-3.8,0-5.4l-33-46.4c10.1-24.6,16.4-50.9,18.2-78.2l50-27.1
						c1.8-1,2.7-2.9,2.4-4.9l-11.2-67.3c-0.3-2-1.9-3.5-3.8-3.8l-56.1-9.5c-10.5-25.2-25-48.2-42.5-68.2l16.2-54.5
						c0.6-1.9-0.1-4-1.8-5.1l-55.5-39.7c-1.6-1.2-3.8-1.2-5.4,0l-46.4,33c-24.6-10.1-50.9-16.4-78.2-18.2l-27.1-50
						c-1-1.8-2.9-2.7-4.9-2.4l-67.3,11.2c-2,0.3-3.5,1.9-3.8,3.8l-9.5,56.1c-25.2,10.5-48.2,25-68.2,42.5l-54.5-16.2
						c-1.9-0.6-4,0.1-5.1,1.8L626,2521c-1.2,1.6-1.2,3.8,0,5.4l33,46.4c-10.1,24.6-16.4,50.9-18.2,78.2l-50,27.1
						c-1.8,0.9-2.7,2.9-2.4,4.9l11.2,67.3c0.3,2,1.9,3.5,3.8,3.8l56.1,9.5c10.5,25.2,25,48.2,42.5,68.2l-16.2,54.5
						c-0.6,1.9,0.1,4,1.8,5.1l55.5,39.7c1.6,1.2,3.8,1.2,5.4,0l46.4-33c24.6,10.1,50.9,16.4,78.2,18.2l27.1,50
						c1,1.8,2.9,2.7,4.9,2.4l67.3-11.2c2-0.3,3.5-1.9,3.8-3.8l9.5-56.1c25.2-10.5,48.2-25,68.2-42.5l54.5,16.2
						c1.9,0.6,4-0.1,5.1-1.8L1153.2,2814.3z"/>
					<path opacity="0.56" fill="#FFFFFF" d="M883.9,2736c-37.7-3.1-65.8-36.4-62.7-74.1c1.5-18.3,10.1-34.8,24-46.7
						c14-11.8,31.7-17.5,50-16c37.7,3.1,65.8,36.4,62.7,74.1c-2.9,34.3-30.6,60.7-64,62.8C890.7,2736.3,887.3,2736.3,883.9,2736z
						 M855.6,2627.5c-10.7,9.1-17.3,21.8-18.4,35.8c-2.4,28.9,19.2,54.4,48.1,56.8c28.9,2.4,54.4-19.2,56.8-48.1
						c2.4-28.9-19.2-54.4-48.1-56.8c-2.6-0.2-5.2-0.2-7.8-0.1C874.9,2615.8,864.3,2620.1,855.6,2627.5z"/>
					<path opacity="0.56" fill="#FFFFFF" d="M898.9,2835.1c5.7-0.4,11.5-1,17.2-2l0,0c1.8-0.3,3.6-0.6,5.4-1
						c8.9-1.8,17.6-4.2,26-7.4c0.1,0,0.2-0.1,0.3-0.1c0.3-0.1,0.7-0.2,1-0.4c0.6-0.2,1.3-0.5,1.9-0.7c1.7-0.7,2.6-2.3,2.5-4
						c0-0.4-0.1-0.8-0.3-1.2c-0.8-2.1-3.1-3.1-5.2-2.2c-10.6,4.2-21.7,7.3-33,9.1c-56.2,9.3-110.5-11.8-146-51.4
						c-19.7-22-33.7-49.6-38.8-80.9c-0.9-5.5-1.5-11-1.9-16.4c-2.3-36.8,8-73,29.7-103.4c25-34.9,62.1-58,104.4-65
						c87.5-14.5,170.3,44.8,184.8,132.2c0.9,5.4,1.5,10.8,1.9,16.2c1.5,23.5-2.2,47-10.8,68.9c-0.2,0.6-0.3,1.2-0.3,1.7
						c0.1,1.5,1,2.9,2.5,3.5c2.1,0.8,4.4-0.2,5.2-2.3c9.1-23,12.9-47.7,11.4-72.3c-0.4-5.7-1-11.4-1.9-17
						c-15.2-91.8-102.3-154.1-194-138.8c-44.5,7.4-83.4,31.6-109.6,68.3c-22.8,31.9-33.7,69.9-31.2,108.5c0.4,5.7,1,11.5,2,17.2
						c7.4,44.5,31.6,83.4,68.3,109.6C822.2,2826.7,860.2,2837.6,898.9,2835.1z"/>
				</g>
			</g>
			<g>
				<g>
					<path fill="#91B3FA" d="M1637.4,2938.6c2.7-0.2,5-2.1,5.6-4.8c1.2-5.1,2.2-10.3,3-15.5c0.6-3.4-1.7-6.5-5.1-7.1
						c-3.4-0.6-6.5,1.7-7.1,5.1c-0.8,4.9-1.8,9.9-2.9,14.8c-0.8,3.3,1.3,6.6,4.7,7.4C1636.2,2938.6,1636.8,2938.6,1637.4,2938.6z"/>
					<path fill="#91B3FA" d="M1642.9,2891.5c-3.4-0.1-6.1-3-5.9-6.4c0.3-8.6,0.2-17.3-0.3-25.9c-0.1-1.8-0.3-3.6-0.4-5.5
						c-0.3-3.4,2.2-6.4,5.6-6.7c3.2-0.1,6.4,2.2,6.7,5.6c0.2,1.9,0.3,3.8,0.4,5.7c0.6,9,0.7,18.2,0.3,27.2c-0.1,3.2-2.7,5.7-5.8,5.9
						C1643.3,2891.5,1643.1,2891.5,1642.9,2891.5z M1631.7,2822.6c-2.1-10.2-4.9-20.4-8.3-30.3c-1.1-3.2,0.6-6.7,3.8-7.8
						c3.2-1.1,6.7,0.6,7.8,3.8c3.5,10.3,6.5,21,8.7,31.7c0.7,3.3-1.4,6.6-4.8,7.3c-0.3,0.1-0.6,0.1-0.9,0.1
						C1635.1,2827.7,1632.3,2825.7,1631.7,2822.6z M1611.4,2763.4c-4.6-9.4-9.8-18.6-15.5-27.3c-1.9-2.9-1.1-6.7,1.8-8.5
						c2.9-1.9,6.7-1.1,8.6,1.8c6,9.2,11.4,18.8,16.2,28.6c1.5,3.1,0.2,6.8-2.8,8.3c-0.7,0.4-1.5,0.6-2.3,0.6
						C1614.9,2767,1612.5,2765.7,1611.4,2763.4z M1577.2,2710.9c-6.7-8-14-15.6-21.7-22.7c-2.5-2.3-2.7-6.2-0.3-8.7
						c2.3-2.5,6.2-2.7,8.7-0.3c8,7.4,15.7,15.4,22.7,23.8c2.2,2.6,1.9,6.5-0.7,8.7c-1.1,0.9-2.3,1.4-3.6,1.4
						C1580.4,2713.2,1578.5,2712.5,1577.2,2710.9z M1531.2,2668.4c-8.5-6.1-17.4-11.7-26.5-16.7c-3-1.6-4.1-5.4-2.4-8.4
						c1.6-3,5.4-4.1,8.4-2.4c9.6,5.2,18.9,11.1,27.8,17.5c2.8,2,3.4,5.9,1.4,8.6c-1.1,1.6-2.8,2.4-4.6,2.6
						C1533.8,2669.6,1532.4,2669.3,1531.2,2668.4z M1476.3,2638.3c-9.7-3.8-19.7-7.1-29.8-9.7c-3.3-0.9-5.3-4.2-4.4-7.5
						c0.9-3.3,4.2-5.3,7.5-4.4c10.6,2.7,21.1,6.2,31.2,10.2c3.2,1.3,4.7,4.9,3.5,8c-0.9,2.3-3,3.7-5.4,3.9
						C1478.1,2638.8,1477.2,2638.7,1476.3,2638.3z M1415.7,2622.6c-10.3-1.3-20.8-2.1-31.3-2.1c-3.4,0-6.2-2.8-6.1-6.2
						c0-3.4,2.8-6.1,6.2-6.1c11,0.1,22,0.8,32.8,2.2c3.4,0.4,5.8,3.5,5.3,6.9c-0.4,3-2.8,5.2-5.7,5.4
						C1416.5,2622.7,1416.1,2622.6,1415.7,2622.6z M1314.7,2623.2c-0.8-3.3,1.2-6.7,4.5-7.5c9.2-2.2,18.6-4,28.1-5.3
						c1.4-0.2,2.9-0.4,4.3-0.5c3.4-0.5,6.5,2,6.8,5.4c0.4,3.4-2,6.5-5.4,6.8c-1.3,0.2-2.7,0.3-4.1,0.5c-9,1.2-18.1,2.9-26.8,5
						c-0.4,0.1-0.7,0.1-1.1,0.2C1318.2,2628.1,1315.5,2626.2,1314.7,2623.2z"/>
				</g>
				<g>
					<path fill="#91B3FA" d="M1395.8,3141.5c-10.8,0.5-21.6,0.4-32.3-0.3c-3.4-0.2-6-3.2-5.7-6.6c0.2-3.4,3.2-5.9,6.6-5.7
						c10.2,0.7,20.6,0.8,30.8,0.3c3.4-0.2,6.3,2.5,6.5,5.9C1401.8,3138.4,1399.3,3141.3,1395.8,3141.5
						C1395.9,3141.5,1395.8,3141.5,1395.8,3141.5z M1420.8,3132.9c-0.6-3.4,1.7-6.6,5-7.1c10.1-1.7,20.2-4.1,30.1-7.1
						c3.3-1,6.7,0.9,7.7,4.2c1,3.3-0.9,6.7-4.1,7.7c-10.3,3.1-20.9,5.6-31.5,7.4c-0.2,0-0.4,0.1-0.7,0.1
						C1424.2,3138.3,1421.4,3136.1,1420.8,3132.9z M1331.4,3137c-10.6-2.1-21.1-4.8-31.3-8.1c-3.2-1.1-5-4.5-4-7.8
						c1.1-3.2,4.5-5,7.8-4c9.7,3.2,19.8,5.8,29.9,7.8c3.3,0.7,5.5,3.9,4.9,7.2c-0.6,2.8-2.9,4.8-5.7,5
						C1332.5,3137.1,1331.9,3137.1,1331.4,3137z M1481.7,3116.3c-1.4-3.1,0.1-6.8,3.2-8.1c9.4-4.1,18.6-8.9,27.5-14.1
						c2.9-1.7,6.7-0.8,8.5,2.2c1.7,2.9,0.8,6.7-2.2,8.5c-9.2,5.5-18.9,10.5-28.8,14.8c-0.7,0.3-1.4,0.5-2.1,0.5
						C1485.3,3120.1,1482.8,3118.7,1481.7,3116.3z M1270,3117c-9.7-4.5-19.3-9.7-28.4-15.4c-2.9-1.8-3.8-5.6-2-8.5
						c1.8-2.9,5.6-3.8,8.5-2c8.7,5.4,17.8,10.4,27.1,14.7c3.1,1.4,4.4,5.1,3,8.2c-1,2.1-3,3.4-5.2,3.6
						C1272,3117.6,1271,3117.4,1270,3117z M1215.2,3082.8c-8.4-6.8-16.4-14.1-23.9-21.8c-2.4-2.4-2.3-6.4,0.1-8.7
						c2.4-2.4,6.4-2.3,8.7,0.1c7.1,7.3,14.8,14.3,22.8,20.8c2.7,2.1,3.1,6,0.9,8.7c-1.1,1.4-2.8,2.2-4.4,2.3
						C1218,3084.3,1216.4,3083.8,1215.2,3082.8z M1170.1,3036.5c-6.5-8.6-12.6-17.6-18-26.9c-1.7-2.9-0.7-6.7,2.2-8.5
						c2.9-1.7,6.7-0.7,8.5,2.2c5.2,8.8,10.9,17.5,17.2,25.6c2.1,2.7,1.5,6.6-1.2,8.7c-1,0.8-2.2,1.2-3.3,1.3
						C1173.4,3039,1171.4,3038.2,1170.1,3036.5z"/>
					<path fill="#91B3FA" d="M1542.3,3087.6c1.2-0.1,2.4-0.5,3.4-1.3c4.2-3.2,8.3-6.6,12.2-10c2.6-2.2,2.8-6.1,0.6-8.7
						c-2.2-2.6-6.1-2.8-8.7-0.6c-3.7,3.3-7.7,6.5-11.6,9.6c-2.7,2.1-3.2,6-1.1,8.7C1538.3,3086.9,1540.3,3087.7,1542.3,3087.6z"/>
				</g>
				<g>
					<linearGradient id="SVGID_3_" gradientUnits="userSpaceOnUse" x1="157.41" y1="1225.0667" x2="2344.3665" y2="4167.2305">
						<stop  offset="0" style="stop-color:#FF928E"/>
						<stop  offset="1" style="stop-color:#FE7062"/>
					</linearGradient>
					<path fill="url(#SVGID_3_)" d="M1558.7,2971.1c0.8-1.1,0.8-2.5,0-3.6l-22.1-31c6.8-16.4,11-34.1,12.2-52.3l33.5-18.1
						c1.2-0.6,1.8-1.9,1.6-3.3l-7.5-45.1c-0.2-1.3-1.2-2.4-2.6-2.6l-37.5-6.4c-7-16.9-16.7-32.2-28.4-45.6l10.9-36.5
						c0.4-1.3-0.1-2.7-1.2-3.4l-37.1-26.6c-1.1-0.8-2.5-0.8-3.6,0l-31,22.1c-16.4-6.8-34.1-11-52.3-12.2l-18.1-33.5
						c-0.6-1.2-1.9-1.8-3.3-1.6l-45.1,7.5c-1.3,0.2-2.3,1.2-2.6,2.6l-6.4,37.5c-16.9,7-32.2,16.7-45.6,28.4l-36.5-10.9
						c-1.3-0.4-2.7,0.1-3.4,1.2l-26.6,37.1c-0.8,1.1-0.8,2.5,0,3.6l22.1,31c-6.8,16.4-11,34.1-12.2,52.3l-33.5,18.1
						c-1.2,0.6-1.8,1.9-1.6,3.3l7.5,45.1c0.2,1.3,1.2,2.3,2.6,2.6l37.5,6.4c7,16.9,16.7,32.2,28.4,45.6l-10.9,36.5
						c-0.4,1.3,0.1,2.7,1.2,3.4l37.1,26.6c1.1,0.8,2.5,0.8,3.6,0l31-22.1c16.4,6.8,34.1,11,52.3,12.2l18.1,33.5
						c0.6,1.2,1.9,1.8,3.3,1.6l45.1-7.5c1.3-0.2,2.4-1.2,2.6-2.6l6.4-37.5c16.9-7,32.2-16.7,45.6-28.4l36.5,10.9
						c1.3,0.4,2.7-0.1,3.4-1.2L1558.7,2971.1z"/>
					<path opacity="0.56" fill="#FFFFFF" d="M1378.4,2919.5c-12.4-1-23.7-6.8-31.8-16.4c-8.1-9.5-11.9-21.6-10.9-34.1
						c2.1-25.7,24.7-44.8,50.4-42.7c25.7,2.1,44.8,24.8,42.7,50.4c-1,12.4-6.8,23.7-16.4,31.8c-7.7,6.6-17.2,10.3-27.1,11
						C1383.1,2919.8,1380.8,2919.7,1378.4,2919.5z M1348.1,2870.1c-0.8,9.2,2.1,18.1,8,25.1c5.9,7,14.2,11.3,23.4,12l0,0
						c9.2,0.7,18.1-2.1,25.1-8c7-5.9,11.3-14.2,12-23.4c1.6-18.9-12.5-35.5-31.4-37.1c-1.7-0.1-3.4-0.2-5,0
						C1363.4,2839.7,1349.5,2852.9,1348.1,2870.1z"/>
					<path opacity="0.56" fill="#FFFFFF" d="M1388.9,2988.5c3.9-0.2,7.8-0.7,11.8-1.3c7.8-1.3,15.5-3.4,22.9-6.2
						c0.3-0.1,0.7-0.3,1-0.4c2.6-1,4.1-3.5,3.9-6.1c0-0.6-0.2-1.3-0.4-1.9c-1.3-3.2-4.8-4.7-8-3.5c-6.9,2.7-14,4.7-21.3,5.9h0
						c-0.4,0.1-0.8,0.1-1.2,0.2c-17.3,2.7-34.7,1-50.7-4.8c-8.7-3.1-17.1-7.4-24.9-12.9c-0.1,0-0.1-0.1-0.2-0.1
						c-0.2-0.1-0.4-0.3-0.6-0.4c-22.6-16.2-37.6-40.2-42.1-67.6c-0.6-3.5-1-7.1-1.2-10.6c-1.5-23.8,5.2-47.2,19.2-66.9
						c16.2-22.6,40.2-37.5,67.6-42.1c27.4-4.5,55,1.9,77.6,18c22.6,16.2,37.6,40.2,42.1,67.6c0.6,3.5,1,7,1.2,10.5
						c1,15.2-1.4,30.4-7,44.6c-0.3,0.9-0.5,1.8-0.4,2.7c0.1,2.3,1.6,4.5,3.9,5.4c3.2,1.2,6.8-0.3,8-3.5c6.3-15.9,8.9-32.9,7.8-49.9
						c-0.2-3.9-0.7-7.8-1.3-11.7c-5.1-30.7-21.8-57.5-47.1-75.6c-25.3-18.1-56.1-25.3-86.8-20.2c-30.7,5.1-57.5,21.8-75.6,47.1
						c-15.8,22-23.2,48.2-21.5,74.9c0.3,4,0.7,7.9,1.4,11.9C1276.6,2950.8,1330,2992.2,1388.9,2988.5z"/>
				</g>
			</g>
		</g>
		<g>
			<g>
				<g>
					<path fill="#91B3FA" d="M2478.7,1151.2c3.8-4,10.2-4.1,14.1-0.3c7.7,7.4,15.9,14.7,24.3,21.5c4.2,3.4,4.9,9.6,1.6,13.9
						c0,0.1-0.1,0.1-0.1,0.2c-3.5,4.3-9.8,4.9-14.1,1.5c-8.8-7.2-17.4-14.8-25.6-22.6c-3.7-3.6-4.1-9.4-1-13.3
						C2478.3,1151.8,2478.5,1151.5,2478.7,1151.2z M2560.2,1202.7c9.2,5.6,18.8,10.8,28.4,15.6c4.9,2.4,7,8.4,4.5,13.4
						c-2.5,5-8.5,7-13.4,4.5c-10.1-5-20.2-10.5-29.9-16.4c-4.7-2.9-6.2-9-3.4-13.7c0.2-0.3,0.4-0.7,0.7-1
						C2550.2,1201.2,2555.9,1200.1,2560.2,1202.7z M2637.3,1238.3c10.2,3.4,20.7,6.4,31.2,8.9c5.4,1.3,8.7,6.7,7.4,12.1
						c-1.3,5.4-6.7,8.7-12.1,7.4c-11-2.6-22.1-5.8-32.8-9.3c-5.2-1.7-8.1-7.4-6.3-12.6c0.4-1.1,0.9-2.1,1.6-3
						C2628.8,1238.4,2633.2,1237,2637.3,1238.3z M2720.4,1255.8c10.7,1,21.6,1.6,32.4,1.7c5.5,0.1,10,4.6,9.9,10.1
						c-0.1,5.5-4.6,10-10.1,9.9c-11.3-0.1-22.8-0.7-34.1-1.8c-5.5-0.5-9.5-5.4-9-10.9c0.2-2,0.9-3.7,2.1-5.2
						C2713.6,1257,2716.9,1255.5,2720.4,1255.8z M2805.3,1254.3c10.7-1.4,21.4-3.2,31.9-5.5c5.4-1.2,10.7,2.3,11.9,7.7
						c1.2,5.4-2.3,10.7-7.7,11.9c-11.1,2.4-22.4,4.4-33.6,5.8c-5.5,0.7-10.5-3.2-11.2-8.6c-0.4-2.8,0.4-5.4,2-7.4
						C2800.3,1256.1,2802.6,1254.7,2805.3,1254.3z M2887.8,1234.1c10.1-3.7,20.2-7.9,29.9-12.5c5-2.3,11-0.2,13.3,4.8
						c2.3,5,0.2,11-4.8,13.3c-10.3,4.8-20.9,9.2-31.5,13.1c-5.2,1.9-10.9-0.8-12.8-5.9c-1.2-3.4-0.5-7,1.5-9.6
						C2884.5,1235.9,2886,1234.7,2887.8,1234.1z M3137.8,959.3c5.4,1.3,8.7,6.7,7.4,12.1c-2.6,11-5.8,22-9.4,32.8
						c-1.7,5.2-7.4,8.1-12.7,6.3c-5.2-1.7-8.1-7.4-6.3-12.7c3.4-10.2,6.4-20.7,8.9-31.2c0.3-1.4,1-2.7,1.8-3.8
						C3129.9,959.9,3133.8,958.3,3137.8,959.3z M2963.7,1196.1c9-5.9,17.9-12.2,26.4-18.8c4.4-3.4,10.6-2.6,14,1.7
						c3.4,4.4,2.6,10.6-1.7,14c-8.9,7-18.3,13.6-27.8,19.8c-4.6,3-10.8,1.7-13.8-2.9c-2.4-3.7-2.1-8.3,0.5-11.6
						C2961.9,1197.5,2962.7,1196.7,2963.7,1196.1z M3110.1,1042c4.9,2.5,7,8.5,4.5,13.4c-5,10.1-10.6,20.2-16.5,29.9
						c-2.9,4.7-9,6.2-13.7,3.3c-4.7-2.9-6.2-9-3.3-13.7c5.6-9.2,10.9-18.8,15.7-28.4c0.3-0.6,0.7-1.2,1.1-1.7
						C3100.6,1041.1,3105.8,1039.8,3110.1,1042z M3029.1,1142.1c7.5-7.7,14.7-15.9,21.5-24.2c3.5-4.3,9.8-4.9,14.1-1.4
						c4.2,3.4,4.9,9.6,1.6,13.9c0,0.1-0.1,0.1-0.1,0.2c-7.2,8.8-14.8,17.4-22.6,25.5c-3.8,4-10.2,4.1-14.1,0.2
						c-3.7-3.6-4-9.4-0.9-13.3C3028.7,1142.6,3028.9,1142.4,3029.1,1142.1z"/>
					<path fill="#91B3FA" d="M3137.7,893.3c-1.2,1.6-2,3.5-2.1,5.6c-0.3,5.2-0.7,10.4-1.2,15.5c-0.5,5.5,3.5,10.4,9,10.9
						c5.5,0.5,10.4-3.5,10.9-9c0.5-5.4,0.9-10.9,1.2-16.4c0.3-5.5-3.9-10.2-9.4-10.5C3142.7,889.3,3139.6,890.9,3137.7,893.3z"/>
				</g>
				<g>
					<path fill="#91B3FA" d="M3034.1,606.5c-3,3.8-2.8,9.3,0.6,13c3.5,3.8,7,7.7,10.4,11.6c3.6,4.2,9.9,4.7,14.1,1.1
						c4.2-3.6,4.7-9.9,1.1-14.1c-3.6-4.1-7.2-8.3-10.9-12.2c-3.8-4-10.1-4.3-14.1-0.5C3034.8,605.7,3034.4,606.1,3034.1,606.5z"/>
					<path fill="#91B3FA" d="M2454.2,616.6c3.6-4.2,9.9-4.7,14.1-1c4.2,3.6,4.6,9.9,1,14.1c-6.9,8-13.5,16.4-19.8,25
						c-3.2,4.5-9.5,5.5-14,2.2c-4.5-3.2-5.5-9.5-2.2-14c2.7-3.8,5.5-7.4,8.3-11.1C2445.7,626.7,2449.9,621.6,2454.2,616.6z
						 M2417.9,685c4.9,2.6,6.7,8.7,4.1,13.5c-5,9.3-9.7,19-13.9,28.7c-2.2,5.1-8.1,7.4-13.2,5.2c-5.1-2.2-7.4-8.1-5.2-13.2
						c4.4-10.2,9.4-20.4,14.6-30.2c0.3-0.5,0.6-1,0.9-1.4C2408.2,683.9,2413.6,682.7,2417.9,685z M2492.5,577.9
						c8.3-7.4,17.1-14.5,26.1-21.1c4.4-3.3,10.7-2.4,14,2.1c3.3,4.4,2.4,10.7-2.1,14c-8.5,6.3-16.9,13.1-24.8,20
						c-4.1,3.7-10.5,3.3-14.1-0.9c-3.2-3.7-3.3-9-0.4-12.8C2491.6,578.8,2492,578.3,2492.5,577.9z M2383.9,763.8
						c5.3,1.5,8.4,7,7,12.3c-2.8,10.2-5.3,20.6-7.2,31c-1,5.4-6.3,9-11.7,8c-5.4-1-9-6.3-8-11.7c2.1-11,4.6-22,7.6-32.7
						c0.4-1.3,1-2.5,1.7-3.5C2375.7,764.2,2379.8,762.7,2383.9,763.8z M2564.5,527.4c9.8-5.3,19.9-10.3,30.1-14.8
						c5.1-2.2,11,0,13.2,5.1c2.2,5.1,0,11-5.1,13.2c-9.7,4.3-19.3,9-28.6,14.1c-4.8,2.7-10.9,0.9-13.6-4c-2-3.6-1.5-7.9,0.9-11
						C2562.2,529,2563.3,528.1,2564.5,527.4z M2645.8,494c10.7-3.1,21.7-5.8,32.6-7.9c5.4-1.1,10.7,2.4,11.8,7.9
						c1.1,5.4-2.4,10.7-7.9,11.8c-10.4,2.1-20.8,4.6-31,7.5c-5.3,1.5-10.9-1.5-12.4-6.8c-0.9-3.2-0.2-6.5,1.7-8.9
						C2642,495.8,2643.7,494.6,2645.8,494z M2732.5,479c11.1-0.7,22.4-0.9,33.6-0.6c5.5,0.1,9.9,4.7,9.8,10.2
						c-0.1,5.5-4.7,9.9-10.2,9.8c-10.6-0.2-21.3,0-31.9,0.6c-5.5,0.3-10.3-3.9-10.6-9.4c-0.2-2.5,0.6-4.9,2.1-6.8
						C2726.9,480.7,2729.5,479.2,2732.5,479z M2820.4,483.3c11,1.8,22.1,4,32.9,6.7c5.4,1.3,8.6,6.8,7.3,12.1
						c-1.3,5.4-6.8,8.6-12.1,7.3c-10.3-2.6-20.8-4.7-31.2-6.4c-5.5-0.9-9.2-6-8.3-11.5c0.3-1.7,1-3.3,2-4.6
						C2813,484.3,2816.6,482.7,2820.4,483.3z M2905.2,506.9c10.3,4.1,20.6,8.8,30.6,13.8c4.9,2.5,6.9,8.5,4.4,13.4
						c-2.5,4.9-8.5,6.9-13.4,4.4c-9.5-4.8-19.2-9.2-29-13.1c-5.1-2.1-7.6-7.9-5.6-13c0.4-0.9,0.8-1.7,1.4-2.4
						C2896.2,506.6,2900.9,505.2,2905.2,506.9z M2982.7,548.4c6.8,4.6,13.5,9.5,19.9,14.6c2.3,1.8,4.6,3.7,6.9,5.5
						c4.3,3.5,5,9.8,1.4,14.1c-3.5,4.3-9.8,4.9-14.1,1.4c-2.2-1.8-4.4-3.5-6.6-5.3c-6.1-4.8-12.5-9.4-18.9-13.9
						c-4.6-3.1-5.7-9.4-2.6-13.9c0.1-0.2,0.2-0.3,0.4-0.5C2972.3,546.4,2978.3,545.4,2982.7,548.4z"/>
					<path fill="#91B3FA" d="M2359.6,852.2c-1.2,1.6-2,3.5-2.1,5.6c-0.3,5.4-0.4,10.9-0.5,16.4c0,5.5,4.4,10,9.9,10.1
						c5.5,0,10-4.4,10.1-9.9c0-5.2,0.2-10.4,0.4-15.6c0.3-5.5-4-10.2-9.5-10.5C2364.6,848.2,2361.5,849.7,2359.6,852.2z"/>
				</g>
				<g>
					
						<linearGradient id="SVGID_4_" gradientUnits="userSpaceOnUse" x1="5331.1094" y1="4282.1133" x2="7518.0562" y2="7224.2642" gradientTransform="matrix(-0.6636 0.7481 -0.7481 -0.6636 11088.9434 -129.423)">
						<stop  offset="0" style="stop-color:#FF928E"/>
						<stop  offset="1" style="stop-color:#FE7062"/>
					</linearGradient>
					<path fill="url(#SVGID_4_)" d="M2474.5,979.4c0.4,1.9,2.1,3.4,4.1,3.6l56.6,6.1c11.7,23.9,27.2,46.1,46.4,65.5l-12.9,55.4
						c-0.5,1.9,0.4,4,2.1,5l57.8,36.3c1.7,1.1,3.9,0.9,5.4-0.3l44.3-35.6c25.9,8.9,52.6,13.3,79.2,13.5l30,48.3
						c1.1,1.7,3.1,2.5,5,2.1l66.6-15.2c1.9-0.4,3.4-2.1,3.6-4.1l6.1-56.6c23.9-11.7,46.1-27.2,65.5-46.4l55.4,12.9
						c1.9,0.5,4-0.4,5-2.1l36.3-57.8c1.1-1.7,0.9-3.9-0.3-5.4l-35.6-44.3c8.9-25.9,13.3-52.6,13.4-79.2l48.3-30
						c1.7-1.1,2.5-3.1,2.1-5l-15.2-66.6c-0.4-1.9-2.1-3.4-4.1-3.6l-56.6-6.1c-11.7-23.9-27.2-46.1-46.4-65.5l12.9-55.4
						c0.5-1.9-0.4-4-2.1-5l-57.8-36.3c-1.7-1.1-3.9-0.9-5.4,0.3l-44.3,35.6c-25.9-8.9-52.6-13.3-79.2-13.5l-30-48.3
						c-1.1-1.7-3.1-2.5-5-2.1l-66.6,15.2c-1.9,0.4-3.4,2.1-3.6,4.1l-6.1,56.6c-23.9,11.7-46.1,27.2-65.5,46.4l-55.4-12.9
						c-1.9-0.5-4,0.4-5,2.1l-36.3,57.8c-1.1,1.7-0.9,3.9,0.3,5.4l35.6,44.3c-8.9,25.9-13.3,52.6-13.4,79.2l-48.3,30
						c-1.7,1.1-2.5,3.1-2.1,5L2474.5,979.4z"/>
					<path opacity="0.56" fill="#FFFFFF" d="M2711.8,829.9c27.4-26.1,70.9-25.1,97,2.3c12.7,13.3,19.4,30.6,19,49
						c-0.4,18.3-8,35.4-21.2,48c-27.4,26.1-70.9,25.1-97-2.2c-23.8-24.9-25.1-63.2-4.5-89.5C2707.1,834.8,2709.3,832.3,2711.8,829.9
						z M2811.8,880.8c0.3-14-4.8-27.4-14.5-37.5c-20-21-53.4-21.8-74.4-1.7c-21,20-21.8,53.4-1.7,74.4c20,21,53.4,21.8,74.4,1.7
						c1.9-1.8,3.6-3.7,5.2-5.8C2807.6,903,2811.5,892.2,2811.8,880.8z"/>
					<path opacity="0.56" fill="#FFFFFF" d="M2627.7,775.4c-3.5,4.5-6.9,9.3-10,14.2l0,0c-1,1.6-1.9,3.1-2.9,4.7
						c-4.6,7.8-8.5,16-11.7,24.3c0,0.1-0.1,0.2-0.1,0.3c-0.1,0.3-0.2,0.6-0.4,1c-0.2,0.6-0.5,1.3-0.7,1.9c-0.6,1.7,0,3.5,1.3,4.5
						c0.3,0.3,0.7,0.5,1.1,0.6c2.1,0.8,4.4-0.3,5.1-2.4c3.9-10.7,9-21,15.1-30.7c30.3-48.2,82.2-74.8,135.3-75.1
						c29.5-0.2,59.5,7.8,86.3,24.6c4.7,3,9.2,6.1,13.5,9.5c29.1,22.7,49.3,54.4,57.6,90.8c9.5,41.9,2.2,84.9-20.6,121.3
						c-47.2,75-146.6,97.7-221.6,50.5c-4.6-2.9-9.1-6-13.4-9.4c-18.5-14.5-33.7-32.8-44.4-53.8c-0.3-0.5-0.7-1-1.1-1.3
						c-1.2-0.9-2.8-1.1-4.3-0.4c-2,1-2.8,3.4-1.8,5.4c11.2,22,27.1,41.3,46.6,56.5c4.5,3.5,9.2,6.8,14,9.8
						c78.8,49.5,183.1,25.7,232.6-53c24-38.1,31.7-83.4,21.7-127.3c-8.7-38.3-29.9-71.6-60.5-95.4c-4.5-3.5-9.3-6.9-14.2-10
						c-38.2-24-83.4-31.7-127.3-21.7C2684.8,723.6,2651.5,744.8,2627.7,775.4z"/>
				</g>
			</g>
			<g>
				<g>
					<path fill="#91B3FA" d="M2060.2,1259.2c-1.6,2.1-1.8,5.1-0.1,7.4c3.1,4.3,6.3,8.5,9.6,12.6c2.2,2.6,6,3,8.7,0.9
						c2.7-2.1,3-6,0.9-8.7c-3.2-3.9-6.2-7.9-9.2-12c-2-2.8-5.8-3.4-8.6-1.4C2061,1258.3,2060.6,1258.7,2060.2,1259.2z"/>
					<path fill="#91B3FA" d="M2091.8,1294.6c2.4-2.5,6.3-2.5,8.7-0.2c6.2,6,12.8,11.7,19.6,17c1.4,1.1,2.9,2.2,4.3,3.3
						c2.7,2,3.3,5.9,1.3,8.6c-2,2.5-5.9,3.3-8.7,1.3c-1.5-1.1-3-2.3-4.5-3.5c-7.1-5.6-14-11.5-20.6-17.8c-2.3-2.2-2.5-5.8-0.6-8.3
						C2091.5,1294.9,2091.7,1294.7,2091.8,1294.6z M2150.7,1331.9c9.1,5.2,18.5,9.9,28.1,13.9c3.1,1.3,4.6,4.9,3.3,8.1
						c-1.3,3.1-4.9,4.6-8.1,3.3c-10.1-4.2-20-9.1-29.5-14.5c-3-1.7-4-5.5-2.3-8.4c0.1-0.3,0.3-0.5,0.5-0.7
						C2144.7,1331,2148,1330.3,2150.7,1331.9z M2208.5,1356c10,2.8,20.4,5,30.7,6.5c3.4,0.5,5.7,3.6,5.2,7c-0.5,3.4-3.6,5.7-7,5.2
						c-10.8-1.6-21.7-3.9-32.2-6.8c-3.3-0.9-5.2-4.3-4.3-7.6c0.2-0.8,0.6-1.5,1.1-2.1C2203.5,1356.3,2206,1355.3,2208.5,1356z
						 M2270.5,1365.2c10.4,0.3,21-0.1,31.3-1.2c3.4-0.3,6.4,2.1,6.8,5.5c0.3,3.4-2.1,6.4-5.5,6.8c-10.9,1.1-21.9,1.5-32.9,1.2
						c-3.4-0.1-6.1-2.9-6-6.3c0-1.4,0.5-2.6,1.3-3.6C2266.6,1366.1,2268.4,1365.2,2270.5,1365.2z M2332.8,1359.1
						c10.2-2.3,20.3-5.2,30.1-8.8c3.2-1.2,6.7,0.5,7.9,3.7c1.2,3.2-0.5,6.8-3.7,7.9c-10.3,3.7-20.9,6.8-31.6,9.2
						c-3.3,0.7-6.6-1.3-7.4-4.7c-0.4-1.9,0.1-3.8,1.2-5.2C2330.1,1360.2,2331.4,1359.4,2332.8,1359.1z M2391.8,1337.9
						c9.3-4.7,18.4-10,27.1-15.8c2.8-1.9,6.7-1.1,8.6,1.7c1.9,2.8,1.2,6.7-1.7,8.6c-9.1,6.1-18.6,11.7-28.4,16.6
						c-3,1.5-6.8,0.3-8.3-2.7c-1.1-2.2-0.8-4.8,0.6-6.6C2390.2,1338.9,2390.9,1338.3,2391.8,1337.9z M2443.7,1303
						c7.8-6.8,15.4-14.2,22.4-22c2.3-2.5,6.2-2.7,8.7-0.5c2.5,2.3,2.7,6.1,0.5,8.7c-7.3,8.2-15.2,15.9-23.4,23.1
						c-2.6,2.2-6.5,2-8.7-0.6c-2-2.3-2-5.6-0.2-7.8C2443.1,1303.6,2443.4,1303.3,2443.7,1303z M2510.3,1227.1c3,1.6,4.2,5.3,2.6,8.3
						c-4.4,8.4-9.4,16.6-14.7,24.5c-0.8,1.2-1.6,2.4-2.4,3.6c-1.9,2.8-5.8,3.5-8.6,1.5c-2.8-2-3.5-5.8-1.5-8.6
						c0.8-1.1,1.5-2.2,2.3-3.4c5.1-7.6,9.8-15.4,14-23.4c0.2-0.3,0.4-0.6,0.6-0.9C2504.3,1226.4,2507.6,1225.7,2510.3,1227.1z"/>
				</g>
				<g>
					<path fill="#91B3FA" d="M2068.7,943.8c6.7-8.4,14-16.5,21.7-24c2.4-2.4,6.4-2.3,8.7,0.1c2.4,2.4,2.3,6.3-0.1,8.7
						c-7.3,7.2-14.3,14.9-20.7,22.9c-2.1,2.7-6,3.1-8.7,1C2067,950.3,2066.6,946.5,2068.7,943.8
						C2068.7,943.8,2068.7,943.8,2068.7,943.8z M2058.5,968.2c2.9,1.8,3.8,5.6,2,8.5c-5.4,8.7-10.3,17.9-14.7,27.2
						c-1.4,3.1-5.1,4.4-8.2,3c-3.1-1.4-4.4-5.1-3-8.2c4.5-9.7,9.7-19.3,15.4-28.5c0.1-0.2,0.2-0.4,0.4-0.6
						C2052.3,967.2,2055.8,966.5,2058.5,968.2z M2114.9,898.6c8.6-6.5,17.6-12.6,26.9-18c2.9-1.7,6.7-0.7,8.5,2.2
						c1.7,2.9,0.7,6.7-2.2,8.5c-8.8,5.2-17.5,11-25.6,17.2c-2.7,2.1-6.6,1.5-8.7-1.2c-1.7-2.3-1.6-5.4,0-7.5
						C2114.1,899.3,2114.4,898.9,2114.9,898.6z M2030.6,1024.8c3.2,1,5,4.5,4,7.8c-3.2,9.8-5.7,19.8-7.7,29.9
						c-0.6,3.3-3.9,5.5-7.2,4.9c-3.4-0.6-5.5-3.9-4.9-7.2c2-10.6,4.7-21.1,8.1-31.4c0.2-0.7,0.6-1.3,1-1.9
						C2025.4,1024.9,2028.1,1024,2030.6,1024.8z M2170.6,866c9.9-4.3,20.1-8,30.4-11c3.3-1,6.7,0.9,7.7,4.2c1,3.3-0.9,6.7-4.2,7.7
						c-9.8,2.9-19.6,6.4-29,10.5c-3.1,1.4-6.8-0.1-8.1-3.2c-0.9-2.1-0.5-4.5,0.8-6.3C2168.8,867,2169.6,866.4,2170.6,866z
						 M2232.5,847.6c10.6-1.8,21.4-2.9,32.2-3.4c3.4-0.2,6.3,2.5,6.5,5.9c0.2,3.4-2.5,6.3-5.9,6.5c-10.2,0.5-20.6,1.6-30.7,3.3
						c-3.4,0.6-6.6-1.7-7.1-5.1c-0.3-1.8,0.2-3.5,1.2-4.8C2229.6,848.8,2230.9,847.9,2232.5,847.6z M2297.1,844.7
						c10.7,0.8,21.5,2.3,32.1,4.4c3.3,0.7,5.5,3.9,4.9,7.3c-0.7,3.3-3.9,5.5-7.3,4.9c-10-2-20.3-3.4-30.6-4.2
						c-3.4-0.3-6-3.2-5.7-6.6c0.1-1.3,0.6-2.4,1.3-3.3C2292.9,845.4,2294.9,844.5,2297.1,844.7z"/>
					<path fill="#91B3FA" d="M2011.9,1089.2c-0.7,0.9-1.2,2.1-1.3,3.4c-0.4,5.3-0.6,10.6-0.6,15.8c0,3.4,2.7,6.2,6.1,6.2
						c3.4,0,6.2-2.7,6.2-6.1c0-5,0.2-10,0.6-15.1c0.2-3.4-2.3-6.4-5.7-6.6C2015,1086.7,2013.1,1087.6,2011.9,1089.2z"/>
				</g>
				<g>
					
						<linearGradient id="SVGID_5_" gradientUnits="userSpaceOnUse" x1="5550.1733" y1="4119.2856" x2="7737.1216" y2="7061.438" gradientTransform="matrix(-0.6636 0.7481 -0.7481 -0.6636 11088.9434 -129.423)">
						<stop  offset="0" style="stop-color:#FF928E"/>
						<stop  offset="1" style="stop-color:#FE7062"/>
					</linearGradient>
					<path fill="url(#SVGID_5_)" d="M2088.1,1178.7c0.3,1.3,1.4,2.3,2.7,2.4l37.9,4.1c7.8,16,18.2,30.8,31.1,43.8l-8.6,37.1
						c-0.3,1.3,0.3,2.6,1.4,3.4l38.7,24.3c1.1,0.7,2.6,0.6,3.6-0.2l29.7-23.9c17.3,6,35.2,8.9,53,9l20.1,32.3
						c0.7,1.1,2.1,1.7,3.4,1.4l44.5-10.2c1.3-0.3,2.3-1.4,2.4-2.7l4.1-37.9c16-7.8,30.8-18.2,43.9-31.1l37.1,8.6
						c1.3,0.3,2.6-0.3,3.4-1.4l24.3-38.7c0.7-1.1,0.6-2.6-0.2-3.6l-23.9-29.7c6-17.3,8.9-35.2,9-53l32.3-20.1
						c1.1-0.7,1.7-2.1,1.4-3.4l-10.2-44.5c-0.3-1.3-1.4-2.3-2.7-2.4l-37.9-4.1c-7.8-16-18.2-30.8-31.1-43.8l8.6-37.1
						c0.3-1.3-0.3-2.6-1.4-3.4L2366,930c-1.1-0.7-2.6-0.6-3.6,0.2l-29.7,23.9c-17.3-6-35.2-8.9-53-9l-20.1-32.3
						c-0.7-1.1-2.1-1.7-3.4-1.4l-44.5,10.2c-1.3,0.3-2.3,1.4-2.4,2.7l-4.1,37.9c-16,7.8-30.8,18.2-43.9,31.1l-37.1-8.6
						c-1.3-0.3-2.6,0.3-3.4,1.4l-24.3,38.7c-0.7,1.1-0.6,2.6,0.2,3.6l23.9,29.7c-6,17.3-8.9,35.2-9,53l-32.3,20.1
						c-1.1,0.7-1.7,2.1-1.4,3.4L2088.1,1178.7z"/>
					<path opacity="0.56" fill="#FFFFFF" d="M2246.3,1078.1c9-8.6,20.9-13.2,33.4-12.9c12.5,0.3,24.1,5.4,32.7,14.5
						c17.8,18.6,17.1,48.2-1.5,66.1c-18.6,17.8-48.3,17.1-66.1-1.5c-8.6-9-13.2-20.9-12.9-33.4c0.2-10.1,3.7-19.7,9.8-27.6
						C2243.1,1081.4,2244.6,1079.7,2246.3,1078.1z M2303.4,1088.2c-6.3-6.6-14.9-10.4-24.1-10.6c-9.2-0.2-17.9,3.2-24.5,9.5l0,0
						c-6.6,6.3-10.4,14.9-10.6,24.1c-0.2,9.2,3.2,17.9,9.5,24.5c13.1,13.7,34.9,14.2,48.6,1.1c1.2-1.2,2.4-2.4,3.4-3.7
						C2316,1119.8,2315.4,1100.6,2303.4,1088.2z"/>
					<path opacity="0.56" fill="#FFFFFF" d="M2187.8,1040.1c-2.4,3.1-4.7,6.3-6.8,9.7c-4.2,6.7-7.8,13.8-10.5,21.2
						c-0.1,0.3-0.2,0.7-0.4,1c-0.9,2.6-0.1,5.4,2,7c0.5,0.4,1.1,0.7,1.7,0.9c3.2,1.2,6.7-0.5,7.9-3.7c2.5-6.9,5.8-13.6,9.7-19.9l0,0
						c0.2-0.3,0.4-0.7,0.7-1c9.5-14.7,22.3-26.6,37.2-34.8c8.1-4.5,16.9-7.8,26.2-10c0.1,0,0.2,0,0.2-0.1c0.2-0.1,0.5-0.1,0.7-0.2
						c27.1-6.2,55-1.4,78.5,13.4c3,1.9,6,4,8.8,6.1c18.8,14.7,31.9,35.2,37.3,58.8c6.2,27.1,1.4,55-13.4,78.5
						c-14.8,23.5-37.9,39.9-65,46.1c-27.1,6.2-55,1.4-78.5-13.4c-3-1.9-5.9-3.9-8.7-6.1c-12-9.4-21.8-21.3-28.7-34.8
						c-0.4-0.8-1-1.5-1.7-2.1c-1.8-1.4-4.4-1.8-6.6-0.6c-3,1.6-4.3,5.3-2.7,8.3c7.7,15.2,18.7,28.5,32.1,39c3.1,2.4,6.3,4.7,9.7,6.8
						c26.3,16.6,57.5,21.9,87.8,14.9c30.3-6.9,56.1-25.2,72.7-51.5c16.6-26.3,21.9-57.5,14.9-87.8c-6-26.4-20.7-49.4-41.7-65.8
						c-3.1-2.4-6.4-4.7-9.8-6.9C2290.5,981.2,2224,993.6,2187.8,1040.1z"/>
				</g>
			</g>
		</g>
		<g>
			<g>
				<g>
					<linearGradient id="SVGID_6_" gradientUnits="userSpaceOnUse" x1="564.3325" y1="844.3226" x2="4335.124" y2="4185.0625">
						<stop  offset="0" style="stop-color:#4F52FF"/>
						<stop  offset="1" style="stop-color:#4042E2"/>
					</linearGradient>
					<path fill="url(#SVGID_6_)" d="M467.8,1210.3l-20.8,90.9c-7,30.5,6.1,62,32.6,78.5l62.8,39.2c17,10.6,27.5,28.9,28.6,48.9
						c2.7,50.3,11.2,99.6,24.9,147c5.6,19.3,1.7,40-10.9,55.6l-46.5,57.7c-19.6,24.3-21.6,58.4-5,84.9l49.5,79
						c16.6,26.5,48.2,39.5,78.6,32.4l72.2-16.8c19.5-4.5,39.9,1,54.8,14.4c36.7,33,77.4,62.1,121.5,86.5c17.5,9.7,29.4,27.1,31.6,47
						l7.9,73.6c3.3,31.1,26,56.6,56.5,63.6l90.9,20.8c30.5,7,62-6.1,78.5-32.6l39.2-62.8c10.6-17,28.9-27.5,48.9-28.6
						c50.3-2.7,99.6-11.2,147-24.9c19.3-5.6,40-1.7,55.6,10.9l57.7,46.5c24.3,19.6,58.4,21.6,84.9,5l79-49.5
						c26.5-16.6,39.5-48.2,32.4-78.6l-16.8-72.2c-4.5-19.5,1-39.9,14.4-54.8c33-36.7,62.1-77.4,86.5-121.5
						c9.7-17.5,27.1-29.4,47-31.6l73.6-7.9c31.1-3.3,56.6-26,63.6-56.4l20.8-90.9c7-30.5-6.1-62-32.6-78.5l-62.8-39.2
						c-17-10.6-27.5-28.9-28.6-48.9c-2.7-50.3-11.2-99.6-24.9-147c-5.6-19.3-1.7-40,10.9-55.6l46.5-57.7c19.6-24.3,21.6-58.4,5-84.9
						l-49.5-79c-16.6-26.5-48.2-39.5-78.6-32.4l-72.2,16.8c-19.5,4.5-39.9-1-54.8-14.4c-36.7-33-77.4-62.1-121.5-86.5
						c-17.5-9.7-29.4-27.1-31.6-47l-7.9-73.6c-3.3-31.1-26-56.6-56.5-63.6l-90.9-20.8c-30.5-7-62,6.1-78.5,32.6l-39.2,62.8
						c-10.6,17-28.9,27.5-48.9,28.6c-50.3,2.7-99.6,11.2-147,24.9c-19.3,5.6-40,1.7-55.6-10.9l-57.7-46.5
						c-24.3-19.6-58.4-21.6-84.9-5l-79,49.6c-26.5,16.6-39.5,48.2-32.4,78.6l16.8,72.2c4.5,19.5-1,39.9-14.4,54.8
						c-33,36.7-62.1,77.4-86.5,121.5c-9.7,17.5-27.1,29.4-47,31.6l-73.6,7.9C500.3,1157.2,474.8,1179.8,467.8,1210.3z M714,1258.5
						c96.1-283.9,404.1-436.2,688.1-340.2c283.9,96.1,436.2,404.1,340.2,688.1c-96.1,283.9-404.1,436.2-688.1,340.2
						C770.2,1850.5,617.9,1542.4,714,1258.5z"/>
				</g>
			</g>
			<g>
				<g>
					<defs>
						<circle id="SVGID_7_" cx="1212.4" cy="1385.9" r="591.5"/>
					</defs>
					<clipPath id="SVGID_8_">
						<use xlink:href="#SVGID_7_"  overflow="visible"/>
					</clipPath>
					<linearGradient id="SVGID_9_" gradientUnits="userSpaceOnUse" x1="1450.3602" y1="1067.0958" x2="857.7319" y2="2273.3298">
						<stop  offset="0" style="stop-color:#090056"/>
						<stop  offset="1" style="stop-color:#020039"/>
					</linearGradient>
					<path clip-path="url(#SVGID_8_)" fill="url(#SVGID_9_)" d="M1047.8,2019.5c0,0-245.8-508-40.3-1021.5
						c0,0,266.2-66.8,631.4,138.4c0,0-223.8,297.6-149.4,821.5C1489.5,1957.9,1167.5,2072.8,1047.8,2019.5z"/>
				</g>
				
					<linearGradient id="SVGID_10_" gradientUnits="userSpaceOnUse" x1="1549.2135" y1="1110.2711" x2="1814.4523" y2="1110.2711" gradientTransform="matrix(0.9792 -0.203 0.203 0.9792 -512.3422 192.2253)">
					<stop  offset="0" style="stop-color:#FEB3B1"/>
					<stop  offset="1" style="stop-color:#FF928E"/>
				</linearGradient>
				<path fill="url(#SVGID_10_)" d="M1353.2,794.2l-107.3,197.4c-10.1,18.6-5.1,41.7,11.8,54.4c29.3,22,78.5,48.2,132.1,30.1
					c17.5-5.9,31-20.1,36.6-37.7l54-173L1353.2,794.2z"/>
				<linearGradient id="SVGID_11_" gradientUnits="userSpaceOnUse" x1="1168.6899" y1="928.71" x2="576.0609" y2="2134.9453">
					<stop  offset="0" style="stop-color:#090056"/>
					<stop  offset="1" style="stop-color:#020039"/>
				</linearGradient>
				<path fill="url(#SVGID_11_)" d="M903.5,1902.7c0,0-137.8-464.9,150.4-675.2L1007.5,998c0,0-480.7,326-162.1,888.8L903.5,1902.7z
					"/>
				
					<linearGradient id="SVGID_12_" gradientUnits="userSpaceOnUse" x1="984.9319" y1="2010.5027" x2="1183.0913" y2="2010.5027" gradientTransform="matrix(0.9792 -0.203 0.203 0.9792 -512.3422 192.2253)">
					<stop  offset="0" style="stop-color:#FEB3B1"/>
					<stop  offset="1" style="stop-color:#FF928E"/>
				</linearGradient>
				<path fill="url(#SVGID_12_)" d="M845.5,1886.7c0,0,4.4,74.6,75,68.6c74.4-6.4,81.9,85.9,143.8,52.6c4.5-2.4,6.9-7.7,5.4-12.6
					c-9-30.5-50-136.9-181.8-132.3L845.5,1886.7z"/>
				<linearGradient id="SVGID_13_" gradientUnits="userSpaceOnUse" x1="1929.1892" y1="1302.3467" x2="1336.5612" y2="2508.5801">
					<stop  offset="0" style="stop-color:#090056"/>
					<stop  offset="1" style="stop-color:#020039"/>
				</linearGradient>
				<path fill="url(#SVGID_13_)" d="M1638.9,1136.4c0,0,230.6,357,559,349.3l22.9,46.9c0,0-437.8,138.9-709.6-203.6L1638.9,1136.4z"
					/>
				
					<linearGradient id="SVGID_14_" gradientUnits="userSpaceOnUse" x1="2379.9636" y1="1850.6284" x2="2650.1826" y2="1850.6284" gradientTransform="matrix(0.9792 -0.203 0.203 0.9792 -512.3422 192.2253)">
					<stop  offset="0" style="stop-color:#FEB3B1"/>
					<stop  offset="1" style="stop-color:#FF928E"/>
				</linearGradient>
				<path fill="url(#SVGID_14_)" d="M2194.7,1514.9c-12.4-19.3-1-45.6,21.7-48.6c1.1-0.1,2.3-0.3,3.5-0.4
					c38.4-3,76.5-13.3,89.7-24.8c4.4-3.8,11.2-3.7,14.8,0.9c4.7,5.9,2.8,17.2-31.6,37.1c0,0,83.8,22,144.8-16.1
					c59.5-37.2-13.2,131.7-213.5,77.7c-10.1-2.7-18.7-9.2-24.4-18L2194.7,1514.9z"/>
				
					<linearGradient id="SVGID_15_" gradientUnits="userSpaceOnUse" x1="1887.6232" y1="1021.2549" x2="1661.322" y2="760.9345" gradientTransform="matrix(0.9792 -0.203 0.203 0.9792 -512.3422 192.2253)">
					<stop  offset="0" style="stop-color:#FEB3B1"/>
					<stop  offset="1" style="stop-color:#FF928E"/>
				</linearGradient>
				<path fill="url(#SVGID_15_)" d="M1531.5,618.2c0,0,80.2,244-19.8,297.5c-99.9,53.6-197.2-178.9-197.2-178.9
					S1333.1,487.2,1531.5,618.2z"/>
				<linearGradient id="SVGID_16_" gradientUnits="userSpaceOnUse" x1="2017.2385" y1="25.2763" x2="1545.2351" y2="481.5466">
					<stop  offset="0" style="stop-color:#090056"/>
					<stop  offset="1" style="stop-color:#020039"/>
				</linearGradient>
				<path fill="url(#SVGID_16_)" d="M1353.2,794.2c-2.9,5.3-52.1,49.6-94.9-0.4c-42.8-50-19.6-92.5,30.3-105.5
					c0,0-34.5-13.6-17.4-43.8c17.2-30.2,45-14.1,45-14.1s-21.6-192,144.3-174.2c165.9,17.8,148.9,113.7,140.3,143
					c-8.6,29.3-81,78.7-175.5,46.3c0,0,25.3,22.7,4.5,54.6c-20.8,31.9-86.2,52.5-86.2,52.5L1353.2,794.2z"/>
				
					<linearGradient id="SVGID_17_" gradientUnits="userSpaceOnUse" x1="1819.0916" y1="1080.8315" x2="1592.7903" y2="820.5109" gradientTransform="matrix(0.9792 -0.203 0.203 0.9792 -512.3422 192.2253)">
					<stop  offset="0" style="stop-color:#FEB3B1"/>
					<stop  offset="1" style="stop-color:#FF928E"/>
				</linearGradient>
				<path fill="url(#SVGID_17_)" d="M1388.8,792.8c0,0-25.2-75.3-61.7-44.5c-47.1,39.7,44,71.4,44,71.4L1388.8,792.8z"/>
			</g>
		</g>
		<g>
			<g>
				
					<linearGradient id="SVGID_18_" gradientUnits="userSpaceOnUse" x1="-1923.5051" y1="582.2626" x2="1847.2925" y2="3923.0081" gradientTransform="matrix(-0.9684 -0.2493 -0.2493 0.9684 2901.6458 344.8383)">
					<stop  offset="0" style="stop-color:#4F52FF"/>
					<stop  offset="1" style="stop-color:#4042E2"/>
				</linearGradient>
				<path fill="url(#SVGID_18_)" d="M1712.1,2391.5l-5.7,90.5c-1.9,30.3,15.6,58.5,43.7,70.2l66.4,27.7c18,7.5,30.9,23.4,35.1,42.4
					c10.5,47.8,26.4,93.8,47,137.1c8.4,17.6,7.9,38.1-1.7,55.1l-35.6,62.7c-15,26.4-11.6,59.4,8.5,82.2l60,68
					c20.1,22.8,52.4,30.3,80.5,18.7l66.6-27.4c18-7.4,38.4-5.3,54.9,5.2c40.4,25.9,84,47.4,130.2,63.8c18.3,6.5,32.5,21.4,37.7,40.1
					l19.1,69.4c8.1,29.3,33.8,50.2,64.1,52.1l90.5,5.7c30.3,1.9,58.5-15.6,70.2-43.7l27.7-66.4c7.5-18,23.4-30.9,42.4-35.1
					c47.8-10.5,93.8-26.4,137.1-47c17.6-8.4,38.1-7.9,55.1,1.7l62.7,35.6c26.4,15,59.4,11.6,82.2-8.5l68-60
					c22.8-20.1,30.3-52.4,18.7-80.5l-27.4-66.6c-7.4-18-5.3-38.4,5.2-54.9c25.9-40.4,47.4-84,63.8-130.2
					c6.5-18.3,21.4-32.5,40.1-37.7l69.4-19.2c29.3-8.1,50.2-33.8,52.1-64.1l5.7-90.5c1.9-30.3-15.6-58.5-43.7-70.2l-66.4-27.7
					c-18-7.5-30.9-23.4-35.1-42.4c-10.5-47.8-26.4-93.8-47-137.1c-8.4-17.6-7.9-38.1,1.7-55.1l35.6-62.7c15-26.4,11.6-59.4-8.5-82.2
					l-60-68c-20.1-22.8-52.4-30.3-80.5-18.7l-66.6,27.4c-18,7.4-38.4,5.3-54.9-5.2c-40.4-25.9-84-47.4-130.2-63.8
					c-18.3-6.5-32.5-21.4-37.7-40.1l-19.1-69.4c-8.1-29.3-33.8-50.2-64.1-52.1l-90.5-5.7c-30.3-1.9-58.5,15.6-70.2,43.7l-27.7,66.4
					c-7.5,18-23.4,30.9-42.4,35.1c-47.8,10.5-93.8,26.4-137.1,47c-17.6,8.4-38.1,7.9-55.1-1.7l-62.7-35.6
					c-26.4-15-59.4-11.6-82.2,8.5l-68,60c-22.8,20.1-30.3,52.4-18.7,80.5l27.4,66.6c7.4,18,5.3,38.4-5.2,54.9
					c-25.9,40.4-47.4,84-63.8,130.2c-6.5,18.3-21.4,32.5-40.1,37.7l-69.4,19.1C1734.9,2335.4,1714,2361.2,1712.1,2391.5z
					 M1955.8,2399c47.5-287.5,319-482,606.5-434.5c287.5,47.5,482,319,434.5,606.5c-47.5,287.5-319,482-606.5,434.5
					C2102.9,2958,1908.3,2686.4,1955.8,2399z"/>
			</g>
			<g>
				<defs>
					<path id="SVGID_19_" d="M2592.1,2999.8c-221.4,46.9-456.5-48.8-588.2-214.9c-53.5-67.5-639.9-294.8-659-384.8
						c-66-311.4,659.9-736.4,971.3-802.5c311.4-66,735.7,348.1,801.8,659.5c29.5,138.9-131.8,358.9-194.3,474.9
						C2846.1,2875.9,2764.6,2963.2,2592.1,2999.8z"/>
				</defs>
				<clipPath id="SVGID_20_">
					<use xlink:href="#SVGID_19_"  overflow="visible"/>
				</clipPath>
				<g clip-path="url(#SVGID_20_)">
					<linearGradient id="SVGID_21_" gradientUnits="userSpaceOnUse" x1="2067.5442" y1="1735.8781" x2="3239.6885" y2="2640.5532">
						<stop  offset="0" style="stop-color:#090056"/>
						<stop  offset="1" style="stop-color:#020039"/>
					</linearGradient>
					<path fill="url(#SVGID_21_)" d="M2254,1918.8c0,0-90.2-164.2,124.4-176.2c0,0,93-44.3,124.7,46.3c0,0,75,23.2,52.1,116.3
						c0,0,166-126.6,295.1,13.6c129.2,140.2,80.5,252.2,8.8,298.5c0,0,72.9,13.4,63.8,94.3c-9.1,80.9-146.8,176.1-262.4,114.6
						c0,0-246.4,108.4-294-74.1c0,0-141.6-42.3-59.9-228.3C2388.3,1937.8,2254,1918.8,2254,1918.8z"/>
					<linearGradient id="SVGID_22_" gradientUnits="userSpaceOnUse" x1="1750.1833" y1="2812.1013" x2="2033.1322" y2="2665.5742">
						<stop  offset="0" style="stop-color:#FEB3B1"/>
						<stop  offset="1" style="stop-color:#FF928E"/>
					</linearGradient>
					<path fill="url(#SVGID_22_)" d="M1974.1,2536.2c0,0,60,197.9,227.3,194.6c167.3-3.3,186-330.7,186-330.7l92.1,313.6
						c0,0-63.6,177.6-297.9,145.3c-234.4-32.3-283.9-284.1-283.9-284.1s-123.1,26.3-137.2-102c-1-8.8,9.4-14.2,16.1-8.5
						c24.9,21.3,73.2,55.2,121.2,46.7C1966.4,2498.6,1974.1,2536.2,1974.1,2536.2z"/>
					<linearGradient id="SVGID_23_" gradientUnits="userSpaceOnUse" x1="3380.7842" y1="3022.7048" x2="2444.6384" y2="2625.4326">
						<stop  offset="0" style="stop-color:#FF928E"/>
						<stop  offset="1" style="stop-color:#FE7062"/>
					</linearGradient>
					<path fill="url(#SVGID_23_)" d="M2361.3,2329c36.9-23.9,148-80.5,290-9.7c24.1,12,39.6,36.4,40.1,63.2
						c2.1,119.4,17.9,469.4,128.6,590.6c0,0-83.2,170.7-248.6,100.8c0,0-136-244-248-335.9c-77.3-63.5-0.1-322.7,20.2-385.8
						C2346.6,2342.6,2352.9,2334.4,2361.3,2329z"/>
					<linearGradient id="SVGID_24_" gradientUnits="userSpaceOnUse" x1="2409.0972" y1="2431.7087" x2="2442.7815" y2="2192.5496">
						<stop  offset="0" style="stop-color:#FEB3B1"/>
						<stop  offset="1" style="stop-color:#FF928E"/>
					</linearGradient>
					<path fill="url(#SVGID_24_)" d="M2408.9,2076.7c0,0,108.9,151.7,135.1,224.9c0,0-57.3,49.2-134.3,16.7
						c0,0-55.7-166.9-73.9-194.4L2408.9,2076.7z"/>
					<linearGradient id="SVGID_25_" gradientUnits="userSpaceOnUse" x1="2254.6802" y1="1919.2579" x2="2569.6296" y2="2281.3655">
						<stop  offset="0" style="stop-color:#FEB3B1"/>
						<stop  offset="1" style="stop-color:#FF928E"/>
					</linearGradient>
					<path fill="url(#SVGID_25_)" d="M2258.8,1870.3c0,0-92.7,264.2,19.3,300.6c111.9,36.4,178-151.5,178-151.5
						s1.4-130.3-48.3-159.9C2358,1830,2258.8,1870.3,2258.8,1870.3z"/>
					<linearGradient id="SVGID_26_" gradientUnits="userSpaceOnUse" x1="2121.1355" y1="1666.4423" x2="3293.2808" y2="2571.1184">
						<stop  offset="0" style="stop-color:#090056"/>
						<stop  offset="1" style="stop-color:#020039"/>
					</linearGradient>
					<path fill="url(#SVGID_26_)" d="M2316,1797c0,0-66.9,37.9-67.5,73.3c-0.6,35.4,120,33,151.8,25.3l63.4,123.8
						c0,0,38.8-145.1-11.5-207.7S2316,1797,2316,1797z"/>
					<linearGradient id="SVGID_27_" gradientUnits="userSpaceOnUse" x1="2333.3694" y1="1850.8163" x2="2648.3184" y2="2212.9236">
						<stop  offset="0" style="stop-color:#FEB3B1"/>
						<stop  offset="1" style="stop-color:#FF928E"/>
					</linearGradient>
					<path fill="url(#SVGID_27_)" d="M2421.1,2012.1c0,0,40.3-88.2,77.9-49.3c37.6,38.9-31.4,96.4-65.3,81.8L2421.1,2012.1z"/>
					<linearGradient id="SVGID_28_" gradientUnits="userSpaceOnUse" x1="1693.7977" y1="2623.4316" x2="1932.9562" y2="2315.2205">
						<stop  offset="0" style="stop-color:#090056"/>
						<stop  offset="1" style="stop-color:#020039"/>
					</linearGradient>
					<path fill="url(#SVGID_28_)" d="M1505.8,2400l528.5,200c4.2,1.6,8.8,0.9,12.4-1.7l116-86.7c7.6-5.7,6.8-17.3-1.6-21.8
						c-71.4-38.5-341.5-179.2-516.7-204.9c-3.2-0.5-6.5,0.3-9.2,2.2l-132,90.1C1494.4,2383.1,1495.9,2396.3,1505.8,2400z"/>
					<linearGradient id="SVGID_29_" gradientUnits="userSpaceOnUse" x1="1746.1046" y1="2539.8767" x2="1863.9999" y2="2384.9285">
						<stop  offset="0" style="stop-color:#4F52FF"/>
						<stop  offset="1" style="stop-color:#4042E2"/>
					</linearGradient>
					<path fill="url(#SVGID_29_)" d="M1510.5,2365.4l523.7,217.5c4.1,1.7,8.9,1.2,12.5-1.4l121.5-86.1c8.2-5.8,7-18.3-2.1-22.4
						c-86.9-39.2-422.7-189.7-512.9-215.3c-3.5-1-7.3-0.5-10.4,1.5l-134.1,83.2C1499.6,2347.9,1500.7,2361.3,1510.5,2365.4z"/>
					<linearGradient id="SVGID_30_" gradientUnits="userSpaceOnUse" x1="1851.5728" y1="2322.2576" x2="1811.1512" y2="2913.4177">
						<stop  offset="0" style="stop-color:#090056"/>
						<stop  offset="1" style="stop-color:#020039"/>
					</linearGradient>
					<path fill="url(#SVGID_30_)" d="M1527.8,2312.7l509.9,254.7c4.3,2.2,9.5,1.7,13.4-1.1l117.3-83.9c8.1-5.8,6.9-18.3-2.2-22.4
						l-512.7-232.7c-3.7-1.7-8-1.5-11.6,0.4l-114.5,61.9C1518.2,2294.7,1518.4,2308,1527.8,2312.7z"/>
					<linearGradient id="SVGID_31_" gradientUnits="userSpaceOnUse" x1="2179.0359" y1="2835.2473" x2="3017.78" y2="1718.6078">
						<stop  offset="0" style="stop-color:#FEB3B1"/>
						<stop  offset="1" style="stop-color:#FF928E"/>
					</linearGradient>
					<path fill="url(#SVGID_31_)" d="M1865.4,2536.2c0,0,41.8,18.5,55.1,10.5c34.4-21,100.5-53.3,140.7-42.4
						c55.6,15.1,135.2,112.6,219.9,181.4c84.6,68.7,278.1,96.9,351.1,6.8c73-90.1-69.8-277.8,16.7-332.6
						c86.4-54.8,167.6,230.6,159.8,298.8c-7.8,68.2-84.7,265.1-339.4,234.4c-254.6-30.7-401.8-294-401.8-294s-72.6,8.8-113.6,6.2
						C1912.8,2602.6,1865.4,2536.2,1865.4,2536.2z"/>
				</g>
			</g>
		</g>
	</g>
	<g>
	</g>
	<g>
	</g>
	<g>
	</g>
	<g>
	</g>
	<g>
	</g>
	<g>
	</g>
	<g>
	</g>
	<g>
	</g>
	<g>
	</g>
	<g>
	</g>
	<g>
	</g>
	<g>
	</g>
	<g>
	</g>
	<g>
	</g>
	<g>
	</g>
</g>
</svg>
