<?xml version="1.0" encoding="utf-8"?>
<!-- Generator: Adobe Illustrator 25.2.1, SVG Export Plug-In . SVG Version: 6.00 Build 0)  -->
<svg version="1.1" xmlns="http://www.w3.org/2000/svg" xmlns:xlink="http://www.w3.org/1999/xlink" x="0px" y="0px"
	 viewBox="0 0 3710 3710" enable-background="new 0 0 3710 3710" xml:space="preserve">
<g id="Background">
</g>
<g id="Illustration">
	<g>
		<linearGradient id="SVGID_1_" gradientUnits="userSpaceOnUse" x1="3598.125" y1="3528.8279" x2="1466.851" y2="1616.9479">
			<stop  offset="0" style="stop-color:#DAE3FE"/>
			<stop  offset="1" style="stop-color:#E9EFFD"/>
		</linearGradient>
		<path fill="url(#SVGID_1_)" d="M2887.9,2867.1c-71.7,73.9-135.9,117.4-185.1,150.2c-479.3,320-1027.2,227.8-1196.6,196.3
			c-273.3-50.9-504-86.7-702.2-265.8C353.7,2540.8,375.6,1692,719.8,1166.1c40.8-62.3,384.4-571.7,933.5-643.5
			c13.4-1.8,23.4-2.8,32.2-3.7c84.9-9,611.3-56.5,1040.5,303.1c61.4,51.5,160.3,144.3,252,285.9
			C3313.2,1625.7,3314.2,2427.6,2887.9,2867.1z"/>
		<g>
			<g>
				<g opacity="0.3">
					<path fill="#91B3FA" d="M911.6,762.8c-4.7-1.8-7.4-6.9-6.1-11.9c2.9-10.9,6.3-21.8,10.1-32.4c1.9-5.2,7.6-7.9,12.7-6
						c0.1,0,0.1,0,0.2,0.1c5.1,1.9,7.7,7.6,5.8,12.7c-3.6,10.1-6.9,20.5-9.6,30.8c-1.4,5.3-6.9,8.5-12.2,7.1
						C912.3,763,911.9,762.9,911.6,762.8z M943.2,681.9c-0.4-0.1-0.7-0.3-1.1-0.5c-4.9-2.6-6.8-8.6-4.2-13.4c5.2-10,11-19.9,17-29.4
						c3-4.6,9.1-6,13.8-3.1c4.6,3,6,9.1,3,13.8c-5.7,9-11.2,18.4-16.2,27.9C953.2,681.8,947.8,683.7,943.2,681.9z M991.7,610
						c-1-0.4-2-1-2.9-1.7c-4.2-3.6-4.7-9.9-1.1-14c7.3-8.6,15.1-16.9,23.2-24.9c3.9-3.9,10.2-3.8,14.1,0.1
						c3.9,3.9,3.8,10.2-0.1,14.1c-7.6,7.5-15,15.5-22,23.6C1000.1,610.5,995.6,611.5,991.7,610z M1055.2,550.8
						c-1.7-0.7-3.3-1.8-4.4-3.4c-3.3-4.4-2.4-10.7,2.1-13.9c9.1-6.7,18.5-13.1,28.1-19.1c4.7-2.9,10.8-1.4,13.7,3.2
						c2.9,4.7,1.4,10.8-3.2,13.7c-9.1,5.6-18.1,11.7-26.7,18.1C1061.8,551.6,1058.3,551.9,1055.2,550.8z M1130.2,507.1
						c-2.4-0.9-4.4-2.8-5.6-5.3c-2.2-5,0.1-10.9,5.1-13.1c10.3-4.5,21-8.7,31.6-12.4c5.2-1.8,10.9,1,12.7,6.2
						c1.8,5.2-1,10.9-6.2,12.7c-10.2,3.5-20.3,7.4-30.1,11.7C1135.3,508,1132.6,508,1130.2,507.1z M1213.1,481.2
						c-3.1-1.2-5.6-3.9-6.2-7.4c-1-5.4,2.5-10.6,7.9-11.7c11.1-2.1,22.4-3.9,33.6-5.1c5.5-0.6,10.4,3.4,11,8.8
						c0.6,5.5-3.4,10.4-8.8,11c-10.7,1.1-21.4,2.8-31.9,4.8C1216.6,482,1214.8,481.8,1213.1,481.2z M1562.7,589.2
						c-1.3-0.5-2.5-1.3-3.5-2.3c-7.5-7.6-15.5-15-23.7-22c-4.2-3.6-4.7-9.9-1.1-14c3.6-4.2,9.9-4.7,14-1.1
						c8.6,7.3,17,15.1,24.9,23.1c3.9,3.9,3.8,10.2-0.1,14.1C1570.4,589.8,1566.2,590.6,1562.7,589.2z M1299.6,474.3
						c-3.9-1.5-6.5-5.3-6.4-9.6c0.2-5.5,4.8-9.8,10.3-9.6c11.3,0.4,22.7,1.2,33.9,2.6c5.5,0.7,9.4,5.6,8.7,11.1
						c-0.6,5.5-5.6,9.4-11.1,8.7c-10.6-1.3-21.5-2.1-32.2-2.4C1301.6,474.9,1300.6,474.7,1299.6,474.3z M1495.1,534.8
						c-0.6-0.2-1.2-0.5-1.8-0.9c-9-5.7-18.5-11.2-28-16.1c-4.9-2.5-6.8-8.6-4.2-13.4c2.5-4.9,8.6-6.8,13.4-4.2
						c10,5.2,19.9,10.9,29.4,17c4.6,2.9,6,9.1,3.1,13.8C1504.5,534.9,1499.4,536.4,1495.1,534.8z M1385.4,486.8
						c-4.7-1.8-7.4-6.9-6.1-11.8c1.4-5.3,6.9-8.5,12.2-7.1c10.9,2.9,21.8,6.3,32.4,10.1c0.1,0,0.1,0,0.2,0.1
						c5.1,1.9,7.7,7.5,5.8,12.7c-1.9,5.2-7.6,7.9-12.7,6c-10.1-3.6-20.5-6.8-30.8-9.6C1386.1,487.1,1385.7,487,1385.4,486.8z"/>
					<path fill="#91B3FA" d="M1607.2,643.2c-1.8-0.7-3.5-1.9-4.7-3.7c-2.9-4.2-5.9-8.5-9-12.6c-3.3-4.4-2.4-10.7,2.1-13.9
						c4.4-3.3,10.7-2.4,13.9,2.1c3.2,4.4,6.4,8.8,9.5,13.3c3.1,4.5,1.9,10.7-2.6,13.8C1613.5,644,1610.1,644.3,1607.2,643.2z"/>
				</g>
				<g opacity="0.3">
					<path fill="#91B3FA" d="M1666.8,941.1c-4.5-1.7-7.2-6.5-6.2-11.3c1-5,2-10.2,2.9-15.3c0.9-5.4,6-9.1,11.5-8.2
						c5.5,0.9,9.1,6,8.2,11.5c-0.9,5.4-1.9,10.8-3,16.1c-1.1,5.4-6.4,8.8-11.8,7.7C1667.8,941.4,1667.2,941.3,1666.8,941.1z"/>
					<path fill="#91B3FA" d="M1148.8,1224.8c-4.3-1.6-8.6-3.3-12.8-5.1c-5.1-2.1-7.5-8-5.3-13c2.1-5.1,8-7.5,13-5.3
						c9.8,4.1,19.8,7.9,29.8,11.1c5.2,1.7,8.1,7.3,6.4,12.6c-1.7,5.2-7.3,8.1-12.6,6.4C1161.1,1229.4,1154.9,1227.2,1148.8,1224.8z
						 M1089,1196c-0.5-0.2-1-0.4-1.5-0.7c-9.6-5.7-19-11.8-28-18.2c-4.5-3.2-5.5-9.4-2.4-13.9c3.2-4.5,9.4-5.5,13.9-2.4
						c8.6,6.1,17.6,11.9,26.6,17.3c4.7,2.8,6.3,8.9,3.5,13.6C1098.6,1196,1093.5,1197.7,1089,1196z M1218.1,1244.2
						c-4.4-1.7-7.1-6.3-6.2-11.1c1-5.4,6.2-9,11.6-8c10.4,1.9,20.9,3.3,31.5,4.3c5.5,0.5,9.5,5.4,9,10.9c-0.5,5.5-5.4,9.5-10.9,9
						c-11.1-1-22.2-2.6-33.1-4.5C1219.3,1244.6,1218.7,1244.4,1218.1,1244.2z M1020.7,1144.7c-1.2-0.5-2.3-1.1-3.3-2.1
						c-8.1-7.6-15.9-15.7-23.4-23.9c-3.7-4.1-3.3-10.4,0.8-14.1c4.1-3.7,10.4-3.3,14.1,0.8c7,7.8,14.5,15.5,22.2,22.7
						c4,3.8,4.2,10.1,0.4,14.1C1028.6,1145.3,1024.3,1146.1,1020.7,1144.7z M1303.3,1249.9c-3.6-1.4-6.2-4.8-6.4-8.9
						c-0.2-5.5,4-10.1,9.5-10.4c10.5-0.5,21.2-1.4,31.6-2.7c5.5-0.7,10.5,3.2,11.2,8.6c0.7,5.5-3.2,10.4-8.6,11.1
						c-11,1.4-22.2,2.4-33.3,2.9C1305.9,1250.6,1304.6,1250.4,1303.3,1249.9z M1387.7,1236.9c-2.9-1.1-5.2-3.5-6.1-6.7
						c-1.4-5.3,1.7-10.8,7-12.2c10.2-2.8,20.4-6,30.3-9.6c5.2-1.9,10.9,0.8,12.8,6c1.9,5.2-0.8,10.9-6,12.8
						c-10.4,3.8-21.2,7.2-31.9,10C1391.7,1237.7,1389.6,1237.6,1387.7,1236.9z M1467.2,1205.7c-2.2-0.8-4.1-2.4-5.3-4.7
						c-2.6-4.9-0.7-10.9,4.2-13.5c9.4-4.9,18.6-10.3,27.5-15.9c4.6-3,10.8-1.6,13.8,3.1c3,4.6,1.6,10.8-3.1,13.8
						c-9.4,6-19.1,11.6-28.9,16.8C1472.8,1206.6,1469.8,1206.7,1467.2,1205.7z M1538.1,1157.9c-1.5-0.6-2.9-1.5-4-2.9
						c-3.6-4.2-3-10.5,1.2-14c8.1-6.8,15.9-14.1,23.3-21.6c3.9-3.9,10.2-3.9,14.1,0c3.9,3.9,3.9,10.2,0,14.1
						c-7.8,7.9-16.1,15.5-24.6,22.7C1545.2,1158.7,1541.3,1159.2,1538.1,1157.9z M1596.7,1095.8c-0.9-0.3-1.7-0.8-2.4-1.4
						c-4.4-3.3-5.3-9.6-2-14c6.3-8.4,12.4-17.2,18-26.2c2.9-4.7,9.1-6.1,13.7-3.1c4.7,2.9,6.1,9.1,3.1,13.7
						c-5.9,9.4-12.3,18.7-18.9,27.5C1605.5,1096.1,1600.7,1097.3,1596.7,1095.8z M1640.2,1022.3c-0.2-0.1-0.4-0.2-0.6-0.2
						c-5-2.3-7.2-8.2-5-13.2c3.2-7.1,6.2-14.3,9-21.6c1-2.6,2-5.3,2.9-7.9c1.9-5.2,7.6-7.9,12.7-6c5.3,1.8,7.9,7.5,6,12.7
						c-1,2.8-2,5.5-3.1,8.3c-2.9,7.6-6.1,15.3-9.5,22.7C1650.7,1021.9,1645.1,1024.2,1640.2,1022.3z"/>
					<path fill="#91B3FA" d="M965.2,1079.4c-1.9-0.7-3.5-2-4.7-3.7c-3-4.5-6-9.1-8.9-13.7c-2.9-4.7-1.4-10.8,3.3-13.7
						c4.7-2.9,10.8-1.4,13.7,3.3c2.7,4.4,5.5,8.8,8.4,13c3.1,4.6,1.9,10.8-2.7,13.8C971.5,1080.3,968.1,1080.5,965.2,1079.4z"/>
				</g>
				<g>
					<path fill="#91B3FA" d="M1019,976.2c0.6,1.9,2.4,3.2,4.4,3.2l56.7,0.7c13.8,22.6,31.4,43.1,52.3,60.5l-7.5,56.1
						c-0.3,2,0.8,3.9,2.5,4.8l60.8,30.5c1.8,0.9,3.9,0.6,5.3-0.8l40.5-39.6c26.5,6.4,53.4,8.2,79.8,5.8l34.4,45.1
						c1.2,1.6,3.3,2.2,5.2,1.6l64.5-21.4c1.9-0.6,3.2-2.4,3.2-4.4l0.7-56.7c22.6-13.8,43.1-31.4,60.5-52.3l56.1,7.5
						c2,0.3,3.9-0.7,4.8-2.5l30.5-60.8c0.9-1.8,0.6-3.9-0.8-5.3l-39.6-40.5c6.4-26.5,8.2-53.4,5.8-79.8l45.1-34.4
						c1.6-1.2,2.2-3.3,1.6-5.2l-21.4-64.5c-0.6-1.9-2.4-3.2-4.4-3.2l-56.7-0.7c-13.8-22.6-31.4-43.1-52.3-60.5l7.5-56.1
						c0.3-2-0.7-3.9-2.5-4.8l-60.8-30.5c-1.8-0.9-3.9-0.6-5.3,0.8l-40.5,39.6c-26.5-6.4-53.4-8.2-79.8-5.8l-34.4-45.1
						c-1.2-1.6-3.3-2.2-5.2-1.6l-64.5,21.4c-1.9,0.6-3.2,2.4-3.2,4.4l-0.7,56.7c-22.6,13.8-43.1,31.4-60.5,52.3l-56.1-7.5
						c-2-0.3-3.9,0.7-4.8,2.5l-30.5,60.8c-0.9,1.8-0.6,3.9,0.8,5.3l39.6,40.5c-6.4,26.5-8.2,53.4-5.8,79.8l-45.1,34.4
						c-1.6,1.2-2.2,3.3-1.6,5.2L1019,976.2z"/>
					<g>
						<path fill="#BDD0FB" d="M1267.2,913.9c-31.1-11.9-49.7-45.2-42.3-78.6c8.2-36.8,44.7-60.1,81.5-51.9c17.8,3.9,33,14.6,42.8,30
							c9.8,15.4,13,33.7,9.1,51.5c-8.2,36.8-44.7,60.1-81.5,51.9C1273.5,916.1,1270.3,915.1,1267.2,913.9z M1310.4,801.2
							c-2.4-0.9-4.9-1.7-7.4-2.2c-28.2-6.3-56.2,11.6-62.5,39.8c-6.3,28.2,11.6,56.3,39.8,62.5c28.2,6.3,56.2-11.6,62.5-39.8
							c3-13.7,0.6-27.7-7-39.5C1329.7,812.4,1320.9,805.2,1310.4,801.2z"/>
					</g>
					<path fill="#BDD0FB" d="M1233.4,1006.7c-5.3-2-10.6-4.4-15.8-7l0,0c-1.6-0.8-3.2-1.7-4.9-2.5c-7.9-4.3-15.5-9.2-22.6-14.7
						c-0.1-0.1-0.2-0.1-0.3-0.2c-0.3-0.2-0.5-0.4-0.8-0.6c-0.5-0.4-1.1-0.8-1.6-1.3c-1.4-1.1-1.8-3-1.2-4.5c0.1-0.4,0.4-0.7,0.6-1.1
						c1.4-1.7,3.9-2,5.6-0.6c8.8,7.1,18.5,13.3,28.7,18.4c50.7,25.5,108.6,21.4,154-5.7c25.3-15.1,46.7-37.3,60.8-65.5
						c2.5-4.9,4.7-10,6.6-15.1c13.1-34.3,14-71.8,2.3-107.1c-13.4-40.6-41.9-73.5-80.1-92.7c-78.9-39.6-175.3-7.7-214.9,71.2
						c-2.4,4.9-4.6,9.8-6.6,14.9c-8.3,21.9-11.8,45.4-10.1,68.7c0,0.6,0,1.2-0.3,1.7c-0.5,1.4-1.8,2.4-3.4,2.6
						c-2.2,0.2-4.1-1.5-4.3-3.7c-1.8-24.6,1.8-49.2,10.6-72.2c2-5.3,4.3-10.5,6.9-15.6c41.6-82.8,142.8-116.3,225.6-74.7
						c40.1,20.1,70,54.7,84.1,97.3c12.3,37.1,11.4,76.4-2.4,112.4c-2,5.4-4.4,10.6-7,15.8c-20.2,40.1-54.7,70-97.3,84.1
						C1308.7,1021.3,1269.4,1020.4,1233.4,1006.7z"/>
				</g>
			</g>
			<g>
				<g opacity="0.3">
					<path fill="#91B3FA" d="M500.3,886.9c-2.5-0.9-4.2-3.4-3.9-6.2c0.4-5.2,1-10.5,1.7-15.7c0.5-3.4,3.6-5.7,6.9-5.2
						c3.4,0.5,5.7,3.6,5.2,6.9c-0.7,4.9-1.2,10-1.6,14.9c-0.3,3.4-3.2,5.9-6.6,5.6C501.4,887.2,500.8,887.1,500.3,886.9z"/>
					<path fill="#91B3FA" d="M508.4,840.2c-2.9-1.1-4.6-4.3-3.7-7.3c2.3-8.7,5.1-17.4,8.4-25.8c0.7-1.8,1.4-3.5,2.1-5.3
						c1.3-3.2,5-4.5,8-3.4c3.1,1.3,4.7,4.9,3.4,8c-0.7,1.7-1.4,3.4-2,5.1c-3.1,8-5.7,16.3-8,24.6c-0.9,3.3-4.3,5.2-7.5,4.3
						C508.8,840.4,508.6,840.3,508.4,840.2z M532.4,781c-0.3-0.1-0.5-0.2-0.8-0.4c-3-1.7-4-5.4-2.4-8.4c5.3-9.5,11.2-18.8,17.6-27.6
						c2-2.7,5.9-3.3,8.6-1.3c2.7,2,3.3,5.9,1.3,8.6c-6.1,8.4-11.8,17.2-16.8,26.3C538.5,781,535.2,782.1,532.4,781z M570.1,729.4
						c-0.7-0.3-1.4-0.7-2-1.3c-2.5-2.3-2.6-6.2-0.3-8.7c7.5-7.9,15.5-15.5,23.9-22.4c2.6-2.2,6.5-1.8,8.7,0.8
						c2.2,2.6,1.8,6.5-0.8,8.7c-8,6.6-15.7,13.8-22.8,21.4C575,729.8,572.3,730.3,570.1,729.4z M619.3,688.7c-1.2-0.5-2.2-1.3-3-2.4
						c-1.8-2.9-1-6.7,1.9-8.5c9.2-5.9,18.8-11.2,28.7-15.9c3.1-1.5,6.7-0.1,8.2,2.9c1.5,3.1,0.2,6.7-2.9,8.2
						c-9.4,4.5-18.6,9.6-27.3,15.2C623.1,689.2,621.1,689.3,619.3,688.7z M677,661.2c-1.7-0.6-3-2-3.6-3.8c-1.1-3.2,0.7-6.7,3.9-7.8
						c10.3-3.4,21-6.3,31.6-8.5c3.3-0.7,6.6,1.5,7.3,4.8c0.7,3.3-1.5,6.6-4.8,7.3c-10.2,2.1-20.3,4.8-30.2,8.1
						C679.7,661.7,678.3,661.6,677,661.2z M739.6,648.5c-2.2-0.8-3.8-2.8-3.9-5.3c-0.3-3.4,2.3-6.3,5.7-6.6
						c10.9-0.8,21.9-1,32.7-0.5c3.4,0.2,6,3,5.9,6.4c-0.2,3.4-3,6-6.4,5.9c-10.4-0.5-20.9-0.3-31.2,0.5
						C741.3,648.9,740.4,648.8,739.6,648.5z M803.4,651.5c-2.7-1-4.4-3.8-3.9-6.8c0.6-3.3,3.8-5.6,7.1-5c10.7,1.9,21.4,4.4,31.9,7.6
						c3.2,1,5.1,4.4,4.1,7.7c-1,3.3-4.4,5.1-7.7,4.1c-10-3-20.2-5.5-30.4-7.2C804.1,651.7,803.7,651.6,803.4,651.5z M892.9,684.8
						c-0.3-0.1-0.7-0.3-1-0.5c-7.7-4.6-15.8-8.9-24-12.7c-1.2-0.6-2.5-1.1-3.7-1.7c-3.1-1.4-4.5-5-3.1-8.1c1.4-3.1,5.1-4.6,8.1-3.1
						c1.3,0.6,2.6,1.2,3.9,1.8c8.6,4,17.1,8.5,25.2,13.3c2.9,1.7,3.9,5.5,2.1,8.4C898.8,684.8,895.7,685.9,892.9,684.8z"/>
				</g>
				<g opacity="0.3">
					<path fill="#91B3FA" d="M670,1151.3c-3.1-1.2-4.7-4.7-3.6-7.9c1.2-3.2,4.7-4.8,7.9-3.7c9.6,3.5,19.5,6.5,29.4,8.8
						c3.3,0.8,5.4,4.1,4.6,7.4c-0.8,3.3-4.1,5.4-7.4,4.6C690.6,1158.1,680.2,1155,670,1151.3C670.1,1151.3,670.1,1151.3,670,1151.3z
						 M641.2,1138.7c-0.2-0.1-0.4-0.2-0.6-0.3c-9.5-4.9-18.9-10.4-27.8-16.3c-2.8-1.9-3.6-5.7-1.7-8.5c1.9-2.8,5.7-3.6,8.5-1.7
						c8.5,5.7,17.4,10.9,26.5,15.6c3,1.5,4.2,5.2,2.7,8.3C647.4,1138.6,644.1,1139.8,641.2,1138.7z M731.2,1165.6
						c-2.5-1-4.2-3.6-3.9-6.4c0.4-3.4,3.4-5.8,6.8-5.5c10.2,1.1,20.5,1.6,30.7,1.4c3.4,0,6.2,2.7,6.2,6.1c0,3.4-2.7,6.2-6.1,6.2
						c-10.7,0.1-21.5-0.4-32.2-1.5C732.2,1165.9,731.7,1165.8,731.2,1165.6z M589,1103.6c-0.7-0.2-1.3-0.6-1.8-1.1
						c-8.1-7-15.8-14.6-23-22.6c-2.3-2.5-2.1-6.4,0.4-8.7c2.5-2.3,6.4-2.1,8.7,0.4c6.8,7.6,14.2,14.8,22,21.5
						c2.6,2.2,2.8,6.1,0.6,8.7C594.1,1103.9,591.4,1104.5,589,1103.6z M794,1164.8c-2-0.8-3.6-2.6-3.9-4.9c-0.5-3.4,1.9-6.5,5.3-6.9
						c10.1-1.4,20.3-3.4,30.1-6c3.3-0.9,6.7,1.1,7.5,4.4c0.9,3.3-1.1,6.7-4.4,7.5c-10.4,2.7-21,4.8-31.6,6.3
						C796,1165.2,795,1165.1,794,1164.8z M854.8,1148.8c-1.6-0.6-2.9-1.8-3.5-3.5c-1.3-3.2,0.3-6.7,3.5-8c9.5-3.8,18.9-8.2,27.9-13
						c3-1.6,6.7-0.5,8.3,2.5c1.6,3,0.5,6.7-2.5,8.3c-9.4,5.1-19.2,9.7-29.2,13.7C857.8,1149.4,856.2,1149.4,854.8,1148.8z
						 M910.1,1118.8c-1.1-0.4-2.1-1.1-2.8-2.2c-2-2.8-1.3-6.6,1.4-8.6c8.3-5.9,16.4-12.4,23.9-19.3c2.5-2.3,6.4-2.1,8.7,0.4
						c2.3,2.5,2.1,6.4-0.4,8.7c-7.9,7.2-16.3,14-25.1,20.3C914.1,1119.3,911.9,1119.5,910.1,1118.8z"/>
					<path fill="#91B3FA" d="M546.7,1056.7c-1.1-0.4-2.1-1.2-2.8-2.2c-3-4.3-5.9-8.7-8.7-13.1c-1.8-2.9-0.9-6.7,2-8.5
						c2.9-1.8,6.7-0.9,8.5,2c2.6,4.2,5.4,8.4,8.3,12.5c2,2.8,1.3,6.6-1.5,8.6C550.7,1057.2,548.6,1057.4,546.7,1056.7z"/>
				</g>
				<g>
					<path fill="#91B3FA" d="M579.8,984.2c0.4,1.3,1.6,2.1,2.9,2.1l37.9,0.5c9.3,15.1,21,28.8,35,40.5l-5,37.6
						c-0.2,1.3,0.5,2.6,1.7,3.2l40.7,20.4c1.2,0.6,2.6,0.4,3.6-0.6l27.1-26.5c17.7,4.3,35.7,5.5,53.4,3.9l23,30.1
						c0.8,1.1,2.2,1.5,3.5,1.1l43.2-14.3c1.3-0.4,2.1-1.6,2.1-2.9l0.5-37.9c15.1-9.3,28.8-21,40.5-35l37.6,5
						c1.3,0.2,2.6-0.5,3.2-1.7l20.4-40.7c0.6-1.2,0.4-2.6-0.6-3.6L924,938.5c4.3-17.7,5.5-35.7,3.9-53.4l30.2-23
						c1.1-0.8,1.5-2.2,1.1-3.5l-14.3-43.2c-0.4-1.3-1.6-2.1-2.9-2.1l-37.9-0.5c-9.3-15.1-21-28.8-35-40.5l5-37.6
						c0.2-1.3-0.5-2.6-1.7-3.2l-40.7-20.4c-1.2-0.6-2.6-0.4-3.6,0.6l-27.1,26.5c-17.7-4.3-35.7-5.5-53.4-3.9l-23-30.1
						c-0.8-1.1-2.2-1.5-3.5-1.1l-43.2,14.3c-1.3,0.4-2.1,1.6-2.1,2.9l-0.5,37.9c-15.1,9.3-28.8,21-40.5,35l-37.6-5
						c-1.3-0.2-2.6,0.5-3.2,1.7l-20.4,40.7c-0.6,1.2-0.4,2.6,0.6,3.6l26.5,27.1c-4.3,17.7-5.5,35.7-3.9,53.4l-30.1,23
						c-1.1,0.8-1.5,2.2-1.1,3.5L579.8,984.2z"/>
					<g>
						<path fill="#BDD0FB" d="M745.6,943.3c-9.3-3.5-17.1-9.9-22.6-18.5c-6.7-10.5-8.9-22.9-6.2-35.1c5.6-25.1,30.5-40.9,55.5-35.4
							c25.1,5.6,40.9,30.5,35.4,55.5c-2.7,12.1-9.9,22.5-20.4,29.2c-10.5,6.7-23,8.9-35.1,6.2C750,944.8,747.7,944.1,745.6,943.3z
							 M774.5,867.8c-1.5-0.6-3.2-1.1-4.8-1.4c-18.4-4.1-36.8,7.6-40.8,26c-2,8.9-0.4,18.1,4.5,25.8c4.9,7.7,12.5,13,21.5,15l0,0
							c8.9,2,18.1,0.4,25.8-4.5c7.7-4.9,13.1-12.5,15-21.5C799.5,890.5,790.1,873.8,774.5,867.8z"/>
					</g>
					<path fill="#BDD0FB" d="M721.9,1007.8c-3.6-1.4-7.2-3-10.8-4.8c-7.1-3.5-13.8-7.8-19.9-12.7c-0.3-0.2-0.6-0.4-0.8-0.7
						c-2.1-1.7-2.8-4.6-1.9-7c0.2-0.6,0.5-1.2,1-1.7c2.1-2.6,6-3,8.7-0.9c5.7,4.6,12,8.6,18.6,11.9l0,0c0.4,0.2,0.7,0.4,1.1,0.5
						c15.7,7.7,32.7,11.2,49.7,10.5c9.2-0.4,18.4-2,27.5-4.9c0.1,0,0.1,0,0.2-0.1c0.2-0.1,0.4-0.1,0.7-0.2
						c26.3-8.7,47.6-27.1,60-51.9c1.6-3.2,3-6.5,4.3-9.8c8.5-22.2,9-46.5,1.5-69.3c-8.7-26.3-27.1-47.6-51.9-60
						c-24.7-12.4-52.8-14.5-79.1-5.8c-26.3,8.7-47.6,27.1-60,51.9c-1.6,3.1-3,6.4-4.2,9.6c-5.4,14.2-7.6,29.4-6.5,44.5
						c0.1,0.9-0.1,1.8-0.4,2.7c-0.8,2.2-2.8,3.8-5.3,3.9c-3.4,0.2-6.3-2.3-6.6-5.7c-1.3-16.9,1.2-33.9,7.3-49.8
						c1.4-3.7,3-7.3,4.7-10.8c13.9-27.7,37.7-48.3,67.1-58c29.4-9.7,60.8-7.5,88.5,6.5c27.7,13.9,48.3,37.7,58,67.1
						c8.5,25.6,7.8,52.7-1.6,77.6c-1.4,3.7-3,7.3-4.8,10.9C839.9,1005.1,776.8,1028.7,721.9,1007.8z"/>
				</g>
			</g>
		</g>
		<g>
			<linearGradient id="SVGID_2_" gradientUnits="userSpaceOnUse" x1="3008.6794" y1="1018.5867" x2="689.6998" y2="2784.2739">
				<stop  offset="0" style="stop-color:#09005D"/>
				<stop  offset="1" style="stop-color:#1A0F91"/>
			</linearGradient>
			<path fill="url(#SVGID_2_)" d="M567.4,934.3l2510.3-48.1c101.1-1.9,182.2,96.4,176.2,213.5l-86.4,1685.1
				c-4.7,92.2-70.1,164.5-149.7,165.4l-2413,27.1c-59.6,0.7-108.8-53.8-111.1-123l-57.7-1758.7C433,1008.5,492.4,935.8,567.4,934.3z
				"/>
			<linearGradient id="SVGID_3_" gradientUnits="userSpaceOnUse" x1="2974.0408" y1="1043.839" x2="734.3093" y2="2749.1863">
				<stop  offset="0" style="stop-color:#4F52FF"/>
				<stop  offset="1" style="stop-color:#4042E2"/>
			</linearGradient>
			<path fill="url(#SVGID_3_)" d="M605.8,977.3l2444.8-45.8c98.4-1.8,177.4,91.7,171.6,203.1l-84.2,1603.2
				c-4.6,87.7-68.3,156.5-145.8,157.3l-2350,25.7c-58,0.6-106-51.2-108.2-117l-56.2-1673.3C475,1047.9,532.8,978.6,605.8,977.3z"/>
			<path opacity="0.18" fill="#FFFFFF" d="M651.6,1032.5l2328-43.6c93.7-1.8,169,87.3,163.4,193.4L3062.9,2709
				c-4.4,83.6-65,149-138.9,149.8l-2237.8,24.5c-55.3,0.6-100.9-48.8-103-111.4l-53.5-1593.3C527,1099.7,582,1033.8,651.6,1032.5z"
				/>
			<path fill="#91B3FA" d="M1423.4,2878.1c-4.5,0-8.2-4.1-8.2-9.3V1043.7c0-5.1,3.7-9.3,8.2-9.3c4.5,0,8.2,4.1,8.2,9.3v1825.1
				C1431.6,2873.9,1427.9,2878.1,1423.4,2878.1z"/>
			<path fill="#91B3FA" d="M2380.6,2880.8c-4.5,0-8.1-4.1-8.2-9.1l-19.9-1825.1c-0.1-5.1,3.6-9.3,8.1-9.4c4.6-0.2,8.2,4,8.3,9.1
				l19.9,1825.1c0.1,5.1-3.6,9.3-8.1,9.4C2380.7,2880.8,2380.6,2880.8,2380.6,2880.8z"/>
		</g>
		<g>
			<g>
				<path fill="#91B3FA" d="M2540.7,3255c6.6,0,12.4-4.2,13.5-10.2l213.3-1129.4c1.3-6.7-3.8-13-11.2-14.1
					c-7.5-1.1-14.5,3.4-15.8,10l-213.3,1129.4c-1.3,6.7,3.8,13,11.2,14.1C2539.2,3254.9,2540,3255,2540.7,3255z"/>
				<path fill="#91B3FA" d="M3260.5,3255c0.9,0,1.8-0.1,2.7-0.2c7.4-1.3,12.2-7.8,10.7-14.4l-251.5-1114.7c-1.5-6.6-8.7-11-16.2-9.6
					c-7.4,1.3-12.2,7.8-10.7,14.4l251.5,1114.7C3248.4,3251,3254.1,3255,3260.5,3255z"/>
				<path fill="#91B3FA" d="M2703.5,2394.5h364.6c7.6,0,13.7-5.5,13.7-12.3s-6.1-12.3-13.7-12.3h-364.6c-7.6,0-13.7,5.5-13.7,12.3
					S2696,2394.5,2703.5,2394.5z"/>
				<path fill="#91B3FA" d="M2710.1,2394.5h351.4c7.3,0,13.2-5.5,13.2-12.3s-5.9-12.3-13.2-12.3h-351.4c-7.3,0-13.2,5.5-13.2,12.3
					S2702.8,2394.5,2710.1,2394.5z"/>
				<path fill="#91B3FA" d="M2703.5,2598.7h364.6c7.6,0,13.7-5.5,13.7-12.3c0-6.8-6.1-12.3-13.7-12.3h-364.6
					c-7.6,0-13.7,5.5-13.7,12.3C2689.8,2593.2,2696,2598.7,2703.5,2598.7z"/>
				<path fill="#91B3FA" d="M2670.4,2598.7h442c7.6,0,13.7-5.5,13.7-12.3c0-6.8-6.1-12.3-13.7-12.3h-442c-7.6,0-13.7,5.5-13.7,12.3
					C2656.7,2593.2,2662.9,2598.7,2670.4,2598.7z"/>
				<path fill="#91B3FA" d="M2703.5,2802.9h364.6c7.6,0,13.7-5.5,13.7-12.3c0-6.8-6.1-12.3-13.7-12.3h-364.6
					c-7.6,0-13.7,5.5-13.7,12.3C2689.8,2797.4,2696,2802.9,2703.5,2802.9z"/>
				<path fill="#91B3FA" d="M2628.2,2802.9h529.1c7.6,0,13.7-5.5,13.7-12.3c0-6.8-6.1-12.3-13.7-12.3h-529.1
					c-7.6,0-13.7,5.5-13.7,12.3C2614.5,2797.4,2620.6,2802.9,2628.2,2802.9z"/>
				<path fill="#91B3FA" d="M2703.5,3007.1h496.3c7.6,0,13.7-5.5,13.7-12.3c0-6.8-6.1-12.3-13.7-12.3h-496.3
					c-7.6,0-13.7,5.5-13.7,12.3C2689.8,3001.6,2696,3007.1,2703.5,3007.1z"/>
				<path fill="#91B3FA" d="M2594.1,3007.1h605.8c7.6,0,13.7-5.5,13.7-12.3c0-6.8-6.1-12.3-13.7-12.3h-605.8
					c-7.6,0-13.7,5.5-13.7,12.3C2580.3,3001.6,2586.5,3007.1,2594.1,3007.1z"/>
			</g>
			<g>
				
					<linearGradient id="SVGID_4_" gradientUnits="userSpaceOnUse" x1="-3296.2131" y1="2548.5449" x2="-3218.3369" y2="2548.5449" gradientTransform="matrix(-1 0 0 1 -300.2549 0)">
					<stop  offset="0" style="stop-color:#09005D"/>
					<stop  offset="1" style="stop-color:#1A0F91"/>
				</linearGradient>
				<path fill="url(#SVGID_4_)" d="M2985.1,2521.1c0,0,8.7,13.6,10.8,51.8c0.2,3.6-2.6,6.6-6.2,6.6h-67.7c-2.7,0-4.7-2.7-3.8-5.2
					c4-11.7,16-40.4,42.7-56.7L2985.1,2521.1z"/>
				
					<linearGradient id="SVGID_5_" gradientUnits="userSpaceOnUse" x1="-3288.313" y1="2512.3569" x2="-3256.7295" y2="2512.3569" gradientTransform="matrix(-1 0 0 1 -300.2549 0)">
					<stop  offset="0" style="stop-color:#FEBBBA"/>
					<stop  offset="1" style="stop-color:#FF928E"/>
				</linearGradient>
				<path fill="url(#SVGID_5_)" d="M2988.1,2495.2l-3.8,32.1c-0.3,2.8-2.5,5-5.3,5.3c-3.7,0.4-9.1,0.7-14.3-0.1
					c-4.8-0.8-8.2-5-8.2-9.8v-31L2988.1,2495.2z"/>
				
					<linearGradient id="SVGID_6_" gradientUnits="userSpaceOnUse" x1="-3130.6001" y1="2547.2998" x2="-3008.4099" y2="2547.2998" gradientTransform="matrix(-1 0 0 1 -300.2549 0)">
					<stop  offset="0" style="stop-color:#09005D"/>
					<stop  offset="1" style="stop-color:#1A0F91"/>
				</linearGradient>
				<path fill="url(#SVGID_6_)" d="M2817.7,2517.6c0,0,13,20.1,12.7,47.8c-0.1,6.5-5.5,11.7-12,11.7h-105.1c-4.9,0-6.9-6.3-2.9-9.2
					c19.9-14,59-40.1,87.3-50.3H2817.7z"/>
				
					<linearGradient id="SVGID_7_" gradientUnits="userSpaceOnUse" x1="-3128.7441" y1="2498.3323" x2="-3097.3342" y2="2498.3323" gradientTransform="matrix(-1 0 0 1 -300.2549 0)">
					<stop  offset="0" style="stop-color:#FEBBBA"/>
					<stop  offset="1" style="stop-color:#FF928E"/>
				</linearGradient>
				<path fill="url(#SVGID_7_)" d="M2828.5,2482.9l-8.2,39.6c-0.9,4.4-5.3,7.4-9.7,6.4c-2.7-0.6-5.9-1.7-9.2-3.9
					c-3.2-2-4.8-5.8-4.2-9.6l8.4-48L2828.5,2482.9z"/>
				
					<linearGradient id="SVGID_8_" gradientUnits="userSpaceOnUse" x1="-3307.9377" y1="2219.7183" x2="-3093.8057" y2="2219.7183" gradientTransform="matrix(-1 0 0 1 -300.2549 0)">
					<stop  offset="0" style="stop-color:#09005D"/>
					<stop  offset="1" style="stop-color:#1A0F91"/>
				</linearGradient>
				<path fill="url(#SVGID_8_)" d="M2973.1,1931.7c0,0,28.4,25,33.7,55.1c5.3,30.1-15.1,519.6-15.1,519.6s-28.4,4.7-43-4.1
					c0,0-17.4-317.6-30.6-391c0,0-69.2,329-88.4,388.5c0,0-27.4,3.3-36.2-1.9c0,0,18.1-426.5,40.9-502.4L2973.1,1931.7z"/>
				<linearGradient id="SVGID_9_" gradientUnits="userSpaceOnUse" x1="3624.8647" y1="2416.3484" x2="3149.2546" y2="2174.0139">
					<stop  offset="0" style="stop-color:#4F52FF"/>
					<stop  offset="1" style="stop-color:#4042E2"/>
				</linearGradient>
				<path fill="url(#SVGID_9_)" d="M2918.9,2100.9c1.3,0,2.6-0.9,2.9-2.3l11.8-45.1l25.1-16.1c1.4-0.9,1.8-2.8,0.9-4.2
					c-0.9-1.4-2.8-1.8-4.2-0.9l-26.1,16.7c-0.6,0.4-1.1,1-1.3,1.8l-12.1,46.3c-0.4,1.6,0.5,3.3,2.2,3.7
					C2918.4,2100.8,2918.7,2100.9,2918.9,2100.9z"/>
				<linearGradient id="SVGID_10_" gradientUnits="userSpaceOnUse" x1="3042.5801" y1="2014.1112" x2="2750.4199" y2="1712.8917">
					<stop  offset="0" style="stop-color:#FF928E"/>
					<stop  offset="1" style="stop-color:#FE7062"/>
				</linearGradient>
				<path fill="url(#SVGID_10_)" d="M2692.9,1648.9c119.5-9.9,150.7,14.8,150.7,14.8l-57.4,90.7c0,0-117.4-2.3-201.6-67.2
					c15.7-17,26.7-35.7,33.7-50.3C2640,1646,2665,1651.2,2692.9,1648.9z"/>
				<linearGradient id="SVGID_11_" gradientUnits="userSpaceOnUse" x1="2560.1477" y1="1605.52" x2="2433.3188" y2="1422.0714">
					<stop  offset="0" style="stop-color:#FEBBBA"/>
					<stop  offset="1" style="stop-color:#FF928E"/>
				</linearGradient>
				<path fill="url(#SVGID_11_)" d="M2505.7,1473.5c0.2-3.8,5.4-4.9,7-1.4l15.3,32.5c2.9,6.3,3.9,13.3,2.7,20.2l-5.3,18.9
					c-1.6,9.2,0.8,18.7,6.7,26c14,17.5,43.9,49.5,86.3,67.2c-7,14.6-18,33.3-33.7,50.3c-30.9-23.8-57.3-56-71.7-99.6
					c-6.9-2.1-11.6-8.7-11.3-15.9L2505.7,1473.5z"/>
				<linearGradient id="SVGID_12_" gradientUnits="userSpaceOnUse" x1="2892.3774" y1="1469.3121" x2="2729.3123" y2="2003.8053">
					<stop  offset="0" style="stop-color:#FF928E"/>
					<stop  offset="1" style="stop-color:#FE7062"/>
				</linearGradient>
				<path fill="url(#SVGID_12_)" d="M2653.6,1701.5c42.1-45.3,122.2-65.8,168.6-74.2c20.3-3.7,40.4,7.6,47.6,27
					c20.9,56.1,77.7,202.2,88.7,227.3c9,20.6,18.5,40.7,24.5,53.3c3.6,7.5,0.5,16.5-7,20.1c-39,18.8-109.3,40.1-137.8,48.4
					c-6.3,1.8-12.5-2.9-12.5-9.4c0-5.5-1.5-11-4.4-15.7l-107.8-179.7c-67.2,74.5-126.1,81.4-171.3,65c7.6-23.5,12.6-47,15-70.6
					C2623.8,1781.4,2653.6,1701.5,2653.6,1701.5z"/>
				
					<linearGradient id="SVGID_13_" gradientUnits="userSpaceOnUse" x1="-2654.2661" y1="1604.0635" x2="-2906.4971" y2="1917.8632" gradientTransform="matrix(-1 0 0 1 -300.2549 0)">
					<stop  offset="0" style="stop-color:#FEBBBA"/>
					<stop  offset="1" style="stop-color:#FF928E"/>
				</linearGradient>
				<path fill="url(#SVGID_13_)" d="M2446.6,1780.4l12.1-16.1c39,26.8,71.7,33.2,98.4,28.6c-2.4,23.6-7.4,47.1-15,70.6
					C2482.5,1842,2446.6,1780.4,2446.6,1780.4z"/>
				
					<linearGradient id="SVGID_14_" gradientUnits="userSpaceOnUse" x1="-2606.4446" y1="1642.5024" x2="-2858.675" y2="1956.3014" gradientTransform="matrix(-1 0 0 1 -300.2549 0)">
					<stop  offset="0" style="stop-color:#FEBBBA"/>
					<stop  offset="1" style="stop-color:#FF928E"/>
				</linearGradient>
				<path fill="url(#SVGID_14_)" d="M2455.1,1780.7l-67.9,2.6l-62.5-34.9c9-5.6,59.7,5.9,59.7,5.9s53.1-8,67.4-8
					c11.9,0,10.2,17.1,9.3,23c-0.2,1.2-0.3,1.9-0.3,1.9L2455.1,1780.7z"/>
				
					<linearGradient id="SVGID_15_" gradientUnits="userSpaceOnUse" x1="-2938.0273" y1="1414.4197" x2="-3182.314" y2="1863.2722" gradientTransform="matrix(-1 0 0 1 -300.2549 0)">
					<stop  offset="0" style="stop-color:#FEBBBA"/>
					<stop  offset="1" style="stop-color:#FF928E"/>
				</linearGradient>
				<path fill="url(#SVGID_15_)" d="M2758.4,1544l35.8,87.5c0,0-41.2,28.5-74.3,25.8l-17.9-78.6L2758.4,1544z"/>
				<g>
					
						<linearGradient id="SVGID_16_" gradientUnits="userSpaceOnUse" x1="-2497.1477" y1="1818.244" x2="-2605.1086" y2="1961.0675" gradientTransform="matrix(-0.817 -0.5767 -0.5767 0.817 1723.173 -1428.4956)">
						<stop  offset="0" style="stop-color:#FEBBBA"/>
						<stop  offset="1" style="stop-color:#FF928E"/>
					</linearGradient>
					<path fill="url(#SVGID_16_)" d="M2697.8,1484.4c-0.8,1.2-25.9,91.9-25.9,91.9l52.1,13.2l36.6-82.4
						C2760.5,1507.1,2711.6,1464.9,2697.8,1484.4z"/>
					
						<linearGradient id="SVGID_17_" gradientUnits="userSpaceOnUse" x1="-2579.5991" y1="1852.6964" x2="-2450.6377" y2="1852.6964" gradientTransform="matrix(-0.817 -0.5767 -0.5767 0.817 1723.173 -1428.4956)">
						<stop  offset="0" style="stop-color:#09005D"/>
						<stop  offset="1" style="stop-color:#1A0F91"/>
					</linearGradient>
					<path fill="url(#SVGID_17_)" d="M2740.9,1519.6l-15.9,44.9c-0.2,0.6-0.5,1.1-0.8,1.6c-2.2,3.1-10.3,13-20,4
						c-8.8-8.2-16.9-15.5-24.5-16.8c-3.4-0.6-6.7,1.5-7.6,4.8c-2.3,8.2-7.1,26.9-8.8,43.8c-0.3,3.4,2,6.5,5.4,7.2
						c10.2,1.9,31.7,5.4,49.8,4.1c2.4-0.2,4.6-1.6,5.6-3.9c5-10.8,20.2-43.8,25.8-52.3c5.3-8,18.3-7.8,23.8-7.3
						c1.8,0.2,3.5-0.4,4.9-1.6c4.8-4.2,13.9-14.9,1.1-27.7c-2.7-2.7-2.6-7,0.2-9.6c5.5-5.2,11.4-14.3,2.2-25.7
						c-9.3-11.5-21.6-9.7-29.1-7c-3,1.1-6.4-0.2-8-3c-0.9-1.6-2.6-2.8-5.4-2.5c-3.8,0.3-7.1-2.9-7-6.7c0.1-7.4-2.5-16.7-15.3-20.7
						c-22.8-7.1-36.9,14.9-38.4,31.3c-1.4,16.4,23.7,22.7,38.5,21.6c11.2-0.8,19.6,10.3,22.9,15.7
						C2741.4,1515.6,2741.6,1517.7,2740.9,1519.6z"/>
					
						<linearGradient id="SVGID_18_" gradientUnits="userSpaceOnUse" x1="-2655.2686" y1="1931.3488" x2="-2568.6748" y2="1842.5059" gradientTransform="matrix(-0.817 -0.5767 -0.5767 0.817 1723.173 -1428.4956)">
						<stop  offset="0" style="stop-color:#FEBBBA"/>
						<stop  offset="1" style="stop-color:#FF928E"/>
					</linearGradient>
					<path fill="url(#SVGID_18_)" d="M2744.1,1573.3c0,0,3.7-28.5,15.5-29.9c11.8-1.4,23.4,8.3,11.6,24.3
						C2756.6,1587.7,2744.1,1573.3,2744.1,1573.3z"/>
				</g>
			</g>
			<g>
				<linearGradient id="SVGID_19_" gradientUnits="userSpaceOnUse" x1="1253.9657" y1="1999.5398" x2="2262.8896" y2="1067.0504">
					<stop  offset="0" style="stop-color:#FF928E"/>
					<stop  offset="1" style="stop-color:#FE7062"/>
				</linearGradient>
				<path fill="url(#SVGID_19_)" d="M2426.2,1751.1h-923.5c-37.4,0-68.7-28.5-72.2-65.8l-58.2-617.5c-4-42,28.7-78.6,70.9-79.4
					l981.7-18.7c40.6-0.8,73.9,31.9,73.9,72.6v636.2C2498.7,1718.7,2466.2,1751.1,2426.2,1751.1z"/>
				<path opacity="0.87" fill="#FFFFFF" d="M1431.2,1122.9l41.3,534c1.8,23.2,21,41.2,44.3,41.4l886.4,9.3
					c25,0.3,45.4-19.9,45.4-44.9v-574.9c0-25.4-21-45.7-46.4-44.9l-927.7,31.6C1448.9,1075.5,1429.2,1097.4,1431.2,1122.9z"/>
				<linearGradient id="SVGID_20_" gradientUnits="userSpaceOnUse" x1="2068.2837" y1="1234.495" x2="2363.8262" y2="327.4842">
					<stop  offset="0" style="stop-color:#FEBBBA"/>
					<stop  offset="1" style="stop-color:#FF928E"/>
				</linearGradient>
				<path fill="url(#SVGID_20_)" d="M1531.7,1610.4h797.7c23.5,0,42.5-19.2,42.2-42.7l-4-372.2l-67.8,85.8l-54.9,7
					c0,0-49.2,1.8-62.4,3.5c-13.2,1.8-74,15.8-74,15.8l-58.7,29.8l-13.8,37.9l-40.3,23.1l-43.7,25.7h-88.9l-109.3-48.8h-37.1
					l-67.4,39.3l-63.1,73.2L1531.7,1610.4z"/>
				<linearGradient id="SVGID_21_" gradientUnits="userSpaceOnUse" x1="1363.8893" y1="1976.9456" x2="3175.7117" y2="-1494.8737">
					<stop  offset="0" style="stop-color:#FF928E"/>
					<stop  offset="1" style="stop-color:#FE7062"/>
				</linearGradient>
				<path fill="url(#SVGID_21_)" d="M1540.4,1153.6l499.8-15c5.1-0.2,9.4,4,9.4,9.1v8c0,5-4,9-9,9.1l-499.8,6.9
					c-5.1,0.1-9.2-4-9.2-9.1l0,0C1531.6,1157.7,1535.5,1153.7,1540.4,1153.6z"/>
				<linearGradient id="SVGID_22_" gradientUnits="userSpaceOnUse" x1="1383.1967" y1="1987.0209" x2="3195.0305" y2="-1484.8199">
					<stop  offset="0" style="stop-color:#FF928E"/>
					<stop  offset="1" style="stop-color:#FE7062"/>
				</linearGradient>
				<path fill="url(#SVGID_22_)" d="M1531.6,1204.6v3.4c0,5,4.1,9.1,9.1,9.1h499.8c5,0,9.1-4.1,9.1-9.1v-3.4c0-5-4.1-9.1-9.1-9.1
					h-499.8C1535.7,1195.5,1531.6,1199.5,1531.6,1204.6z"/>
				<linearGradient id="SVGID_23_" gradientUnits="userSpaceOnUse" x1="1707.896" y1="2166.3071" x2="1886.2405" y2="1585.4136">
					<stop  offset="0" style="stop-color:#FF928E"/>
					<stop  offset="1" style="stop-color:#FE7062"/>
				</linearGradient>
				<path fill="url(#SVGID_23_)" d="M1534.4,1610.4c-2.2,0-4.5-0.4-6.6-1.4c-8.6-3.7-12.7-13.6-9-22.3
					c57.6-135.8,122.4-209.7,197.9-225.9c52.1-11.2,92.3,9.5,127.8,27.7c37.8,19.4,70.5,36.2,115.2,19.3
					c33.8-12.7,52.3-36.2,71.9-61c24.4-31,49.7-63,103.1-72c26.7-4.5,47.6-1,66.1,2.1c22.3,3.8,39.9,6.7,64.4-5.1
					c28.7-13.9,53.8-41.7,74.7-82.8c4.2-8.4,14.5-11.7,22.8-7.5c8.4,4.2,11.7,14.5,7.5,22.8c-24.3,47.8-54.6,80.8-90.2,98
					c-34.2,16.5-59.9,12.2-84.8,8c-17.3-2.9-33.7-5.7-54.8-2.1c-40.6,6.9-59.8,31.3-82.1,59.6c-20.6,26.1-43.9,55.7-86.5,71.8
					c-58.9,22.2-103.4-0.7-142.7-20.8c-33.4-17.2-65-33.4-105.2-24.7c-63.1,13.6-121.6,82.9-173.8,206
					C1547.3,1606.5,1541,1610.4,1534.4,1610.4z"/>
			</g>
		</g>
		<g>
			<path fill="#91B3FA" d="M653.9,1823l33.3,277.3c2.1,17.3,19.4,30.7,40.5,31.3l506.5,14.8c21.1,0.6,39.4-11.7,43.1-28.8
				c13.1-61.9,39.5-206.3,24-300.5c-2.6-15.9-17.9-28.3-37.2-30c-202.7-18.6-395.5-21.8-573.8-1.9
				C667.8,1787.6,651.7,1804.3,653.9,1823z"/>
			<path fill="#BDD0FB" d="M686,1837.3l30.7,255.4c1.9,15.9,17.8,28.3,37.3,28.8l466.6,13.7c19.4,0.6,36.3-10.7,39.7-26.5
				c12-57,36.4-190.1,22.1-276.8c-2.4-14.6-16.5-26-34.2-27.7c-186.7-17.2-364.4-20.1-528.6-1.8
				C698.7,1804.8,683.9,1820.2,686,1837.3z"/>
			<path fill="#FFFFFF" d="M1240.4,1984.2c-0.8,0-1.6-0.1-2.4-0.2c-155.4-28.1-470.5-22.7-473.7-22.6c-7.6,0.3-13.7-5.8-13.8-13.3
				c-0.1-7.5,5.8-13.7,13.3-13.8c13-0.2,321-5.5,479,23c7.4,1.3,12.3,8.4,10.9,15.8C1252.6,1979.6,1246.9,1984.2,1240.4,1984.2z"/>
			<path fill="#FFFFFF" d="M1107.4,2099.4c-1.1,0-2.2-0.1-3.3-0.4c-111.2-27.9-337.4-22.5-339.7-22.4c-0.1,0-0.2,0-0.4,0
				c-7.3,0-13.4-5.9-13.6-13.2c-0.2-7.5,5.7-13.7,13.2-13.9c9.4-0.2,232.2-5.5,347,23.2c7.3,1.8,11.7,9.2,9.9,16.5
				C1119,2095.2,1113.5,2099.4,1107.4,2099.4z"/>
			<path fill="#FFFFFF" d="M1240.4,2046.3c-0.8,0-1.6-0.1-2.4-0.2c-155.4-28.1-470.5-22.7-473.7-22.6c-7.6,0.3-13.7-5.8-13.8-13.3
				c-0.1-7.5,5.8-13.7,13.3-13.8c13-0.2,321-5.5,479,23c7.4,1.3,12.3,8.4,10.9,15.8C1252.6,2041.7,1246.9,2046.3,1240.4,2046.3z"/>
		</g>
		<g>
			<path fill="#91B3FA" d="M613.8,1259.5l35.6,359.1c2.2,22.4,20.7,39.7,43.2,40.5l540.5,19.2c22.5,0.8,42.1-15.1,45.9-37.3
				c13.9-80.2,42.1-267.2,25.6-389.2c-2.8-20.5-19.1-36.6-39.7-38.9c-216.3-24.1-422.1-28.2-612.4-2.5
				C628.5,1213.7,611.4,1235.3,613.8,1259.5z"/>
			<path fill="#BDD0FB" d="M648,1278.1l32.8,330.8c2,20.7,19,36.6,39.8,37.3l497.9,17.7c20.7,0.7,38.8-13.9,42.3-34.3
				c12.8-73.9,38.8-246.2,23.6-358.5c-2.6-18.9-17.6-33.7-36.5-35.8c-199.2-22.2-388.8-26-564.1-2.3
				C661.6,1235.9,645.8,1255.9,648,1278.1z"/>
			<path fill="#FFFFFF" d="M744.8,1357.4c-9.7,0-18-7.5-18.8-17.4c-0.8-10.4,6.9-19.4,17.3-20.2c14.9-1.2,365.4-28.4,441.9-18.1
				c10.3,1.4,17.6,10.9,16.2,21.2c-1.4,10.3-10.9,17.5-21.2,16.2c-72.5-9.7-430.3,18.1-433.9,18.4
				C745.8,1357.4,745.3,1357.4,744.8,1357.4z"/>
			<path fill="#FFFFFF" d="M749.9,1450.2c-10,0-18.4-7.9-18.8-18c-0.4-10.4,7.6-19.2,18-19.6l342.9-14.4c10.4-0.5,19.2,7.6,19.6,18
				c0.4,10.4-7.6,19.2-18,19.6l-342.9,14.4C750.4,1450.2,750.2,1450.2,749.9,1450.2z"/>
			<path fill="#FFFFFF" d="M754.2,1528.8c-10.2,0-18.6-8.2-18.8-18.4c-0.2-10.4,8-19,18.4-19.2l152.2-3.3c0.1,0,0.3,0,0.4,0
				c10.2,0,18.6,8.2,18.8,18.4c0.2,10.4-8,19-18.4,19.2l-152.2,3.3C754.5,1528.8,754.3,1528.8,754.2,1528.8z"/>
		</g>
		<g>
			
				<linearGradient id="SVGID_24_" gradientUnits="userSpaceOnUse" x1="-3991.5354" y1="2216.9646" x2="-4010.5081" y2="2923.3186" gradientTransform="matrix(-1 0 0 1 -3228.738 0)">
				<stop  offset="0" style="stop-color:#09005D"/>
				<stop  offset="1" style="stop-color:#1A0F91"/>
			</linearGradient>
			<path fill="url(#SVGID_24_)" d="M685.7,2981.3c17-171.6,59.6-597.8,68.9-660.1c11.7-78.3,107.6-61,107.6-61l20.5,792.3H748.9
				c-18,0-35.1-7.8-47.2-21.3C689.7,3017.5,683.8,2999.5,685.7,2981.3z"/>
			
				<linearGradient id="SVGID_25_" gradientUnits="userSpaceOnUse" x1="-3811.9512" y1="-963.7332" x2="-4831.8389" y2="375.861" gradientTransform="matrix(-2.120000e-02 -0.9997 -0.9997 2.120000e-02 762.4539 -1525.9956)">
				<stop  offset="0" style="stop-color:#09005D"/>
				<stop  offset="1" style="stop-color:#1A0F91"/>
			</linearGradient>
			<path fill="url(#SVGID_25_)" d="M1767.9,3072.4c41.8-0.9,74.9-35.5,74-77.2l-13.6-643.2c-0.8-35.5-29.2-64.2-64.7-65.2
				l-933.5-27.7c-27.8-0.8-50.7,21.5-50.6,49.3l2.2,737.5c0.1,26.1,21.6,47.1,47.6,46.5L1767.9,3072.4z"/>
			<g>
				<linearGradient id="SVGID_26_" gradientUnits="userSpaceOnUse" x1="815.6152" y1="2668.1028" x2="1849.7085" y2="2668.1028">
					<stop  offset="0" style="stop-color:#FF928E"/>
					<stop  offset="1" style="stop-color:#FE7062"/>
				</linearGradient>
				<path fill="url(#SVGID_26_)" d="M1828.1,3018.4c13.4-0.2,23.5-12.2,21.4-25.4c-13.8-87.6-57-388.8-43.1-639
					c0.6-11.4-8.2-21.1-19.6-21.5l-937.7-29.9c-12.9-0.4-23.6,9.6-24.1,22.5c-4,105.2-18.8,538.2,0.6,692.2
					c1.2,9.4,9.2,16.3,18.7,16.2L1828.1,3018.4z"/>
				<path opacity="0.6" fill="#FFFFFF" d="M1804.4,3008.6c12.9-0.2,22.6-11.7,20.6-24.4c-13.3-84.3-54.9-374.2-41.5-614.9
					c0.6-11-7.9-20.3-18.9-20.7l-902.4-28.8c-12.4-0.4-22.7,9.3-23.2,21.6c-3.8,101.2-18.1,518,0.6,666.1c1.1,9,8.9,15.7,18,15.6
					L1804.4,3008.6z"/>
			</g>
			<path opacity="0.72" fill="#FFFFFF" d="M1249.7,2501.5l1.4,65c0.2,9.9-7.7,18.1-17.7,18.1l-66.7,0.4c-9.7,0.1-17.7-7.7-17.9-17.4
				l-1.4-68.3c-0.2-10.3,8.3-18.6,18.6-18.1l66.7,3C1242.1,2484.6,1249.5,2492.2,1249.7,2501.5z"/>
			<path opacity="0.72" fill="#FFFFFF" d="M1482.8,2584.1l-66.7,0.4c-9.7,0.1-17.7-7.7-17.9-17.4l-1.2-58.1
				c-0.2-10.2,8.2-18.5,18.4-18.1l66.7,2.4c9.4,0.3,16.9,8,17.1,17.4l1.2,55.3C1500.7,2575.9,1492.7,2584.1,1482.8,2584.1z"/>
			<path opacity="0.72" fill="#FFFFFF" d="M1424.4,2873.6l63.4-0.6c10.6-0.1,19.4,8.4,19.6,19l1.3,59.4c0.2,10.5-8,19.3-18.6,19.8
				l-63.4,2.7c-10.9,0.5-20-8.1-20.2-19l-1.3-61.5C1404.9,2882.6,1413.6,2873.7,1424.4,2873.6z"/>
			<path opacity="0.72" fill="#FFFFFF" d="M1531.1,2949.9l-1.2-58.1c-0.2-10.6,8.3-19.4,18.9-19.5l64.1-0.6
				c10.4-0.1,19,8.2,19.2,18.7l1.2,56c0.2,10.4-7.9,19-18.2,19.4l-64,2.7C1540.2,2969,1531.3,2960.6,1531.1,2949.9z"/>
			<path opacity="0.72" fill="#FFFFFF" d="M1525.5,2687.8l-1-47.7c-0.2-11.5,9-21,20.5-20.9l61.2,0.1c11.1,0,20.2,8.9,20.5,20.1
				l1,45.6c0.2,11.2-8.6,20.6-19.8,20.9l-61.1,2C1535.3,2708.2,1525.7,2699.2,1525.5,2687.8z"/>
			<path opacity="0.72" fill="#FFFFFF" d="M1528.4,2826.3l-1.5-72.9c-0.2-10.4,8-19.1,18.4-19.5l62.6-2c11.4-0.4,20.9,8.6,21.2,20.1
				l1.6,73.5c0.2,10.7-8.4,19.5-19.1,19.5l-64.1,0C1537.1,2845,1528.6,2836.7,1528.4,2826.3z"/>
			<path opacity="0.72" fill="#FFFFFF" d="M1358.1,2584.8l-66.7,0.4c-9.7,0.1-17.7-7.7-17.9-17.4l-1.3-63.3
				c-0.2-10.2,8.2-18.5,18.4-18.1l66.7,2.4c9.4,0.3,16.9,8,17.1,17.4l1.3,60.5C1376,2576.6,1368,2584.8,1358.1,2584.8z"/>
			<path opacity="0.72" fill="#FFFFFF" d="M1403.7,2826l-1.4-68.2c-0.2-10.6,8.1-19.4,18.8-19.8l63.4-2.1c10.8-0.4,19.8,8.2,20,19
				l1.5,70.3c0.2,10.9-8.5,19.8-19.4,19.8l-63.4,0C1412.6,2845,1404,2836.5,1403.7,2826z"/>
			<path opacity="0.72" fill="#FFFFFF" d="M1289.7,2618.7l72.8,0.1c8,0,14.5,6.4,14.7,14.4l1.4,65.6c0.2,8.1-6.2,14.7-14.2,15
				l-72.7,2.4c-8.2,0.3-15-6.2-15.2-14.4l-1.4-68.1C1274.8,2625.5,1281.5,2618.7,1289.7,2618.7z"/>
			<path opacity="0.72" fill="#FFFFFF" d="M1252.6,2636.7l1.3,62.4c0.2,10.1-7.8,18.5-17.9,18.9l-65.2,2.1
				c-10.3,0.3-18.9-7.8-19.1-18.1l-1.4-64.7c-0.2-10.4,8.1-18.9,18.5-18.9l65.2,0.1C1244.2,2618.6,1252.4,2626.7,1252.6,2636.7z"/>
			<path opacity="0.72" fill="#FFFFFF" d="M1488.9,2709.8l-72.7,2.4c-8.2,0.3-15-6.2-15.2-14.4l-1.4-63.8c-0.2-8.3,6.5-15,14.7-15
				l72.8,0.1c8,0,14.5,6.4,14.7,14.4l1.3,61.3C1503.3,2702.8,1497,2709.5,1488.9,2709.8z"/>
			<path opacity="0.72" fill="#FFFFFF" d="M1296.4,2742.1l63.4-2.1c10.8-0.4,19.8,8.2,20,19l1.4,66.2c0.2,10.9-8.5,19.8-19.4,19.8
				l-63.4,0c-10.6,0-19.2-8.4-19.4-19l-1.4-64.1C1277.5,2751.3,1285.8,2742.4,1296.4,2742.1z"/>
			<path opacity="0.72" fill="#FFFFFF" d="M1169.7,2746.2l67.8-2.2c9.6-0.3,17.5,7.2,17.7,16.8l1.4,66.6c0.2,9.6-7.5,17.5-17.2,17.5
				l-67.9,0c-9.3,0-17-7.5-17.2-16.8l-1.4-64.4C1152.8,2754.4,1160.3,2746.6,1169.7,2746.2z"/>
			<path opacity="0.72" fill="#FFFFFF" d="M1598.1,2582.6l-50.6,0.3c-13.5,0.1-24.5-10.7-24.8-24.1l-0.9-41.7
				c-0.3-12.6,10.1-22.9,22.7-22.4l56.3,2c12.8,0.5,23,10.8,23.2,23.6l0.7,34.9C1625.2,2570.1,1613.2,2582.5,1598.1,2582.6z"/>
			<path opacity="0.72" fill="#FFFFFF" d="M1654.5,2892.1c-0.2-11.4,8.9-20.8,20.3-20.9l22-0.2c16.8-0.2,30.4,10.9,30.7,24.9
				l0.9,40.4c0.3,13.8-12.7,25.4-29.3,26.1l-23.7,1c-10.7,0.5-19.6-8-19.9-18.6L1654.5,2892.1z"/>
			<path opacity="0.72" fill="#FFFFFF" d="M945.8,2878.2l43.3-0.4c10.6-0.1,19.4,8.4,19.6,19l1.6,75.6c0.2,10.6-8,19.4-18.6,19.8
				l-43.1,1.8c-17.2,0.7-31.6-10.5-31.9-24.8l-1.4-64.8C915,2890.2,928.7,2878.4,945.8,2878.2z"/>
			<path opacity="0.72" fill="#FFFFFF" d="M1695.1,2844.9l-21.5,0c-11.2,0-20.3-8.9-20.5-20.1l-1.6-74.1
				c-0.2-11.2,8.6-20.6,19.8-20.9l21.7-0.7c17.1-0.6,31.3,10.6,31.6,24.8l1.4,64.8C1726.3,2833.1,1712.3,2844.9,1695.1,2844.9z"/>
			<path opacity="0.72" fill="#FFFFFF" d="M1693.3,2703.1l-27.1,0.9c-8.6,0.3-15.8-6.5-16-15.2l-1.1-53.5
				c-0.2-8.7,6.8-15.9,15.5-15.8l27.3,0.1c16.6,0,30,11,30.3,24.9l0.7,32.6C1723.3,2690.9,1710,2702.5,1693.3,2703.1z"/>
			<path opacity="0.72" fill="#FFFFFF" d="M938.9,2472.9l43.5,1.6c9.8,0.4,17.6,8.3,17.8,18.1l1.6,74.7c0.2,10.3-8.1,18.8-18.4,18.9
				l-44.8,0.3c-16.7,0.1-30.3-11-30.6-24.9l-1.3-62.5C906.4,2484.2,921.1,2472.2,938.9,2472.9z"/>
			<path opacity="0.72" fill="#FFFFFF" d="M1299.7,2874.8l63.4-0.6c10.6-0.1,19.4,8.4,19.6,19l1.3,63.4c0.2,10.5-8,19.3-18.6,19.8
				l-63.4,2.7c-10.9,0.5-20-8.1-20.2-19l-1.4-65.5C1280.3,2883.8,1288.9,2874.9,1299.7,2874.8z"/>
			<path opacity="0.72" fill="#FFFFFF" d="M940.7,2618.1l44.1,0.1c10,0,18.2,8.1,18.4,18.1l1.5,71c0.2,10.1-7.8,18.5-17.9,18.9
				l-44.2,1.4c-17.1,0.6-31.3-10.6-31.6-24.8l-1.2-58.5C909.4,2629.9,923.4,2618.1,940.7,2618.1z"/>
			<path opacity="0.72" fill="#FFFFFF" d="M942.3,2753.7l46-1.5c9.6-0.3,17.5,7.2,17.7,16.8l1.2,58.5c0.2,9.6-7.5,17.5-17.2,17.5
				l-46.2,0c-16.6,0-30.1-11-30.4-24.9l-0.9-40.4C912.3,2765.9,925.5,2754.2,942.3,2753.7z"/>
			<path opacity="0.72" fill="#FFFFFF" d="M1130.6,2764.9l1.3,62.6c0.2,9.6-7.5,17.5-17.2,17.5l-67.9,0c-9.3,0-17-7.5-17.2-16.8
				l-1.3-60.4c-0.2-9.4,7.2-17.2,16.6-17.5l67.8-2.2C1122.4,2747.8,1130.4,2755.3,1130.6,2764.9z"/>
			<path opacity="0.72" fill="#FFFFFF" d="M1050.4,2877.2l63.4-0.6c10.6-0.1,19.4,8.4,19.6,19l1.5,71.5c0.2,10.6-8,19.4-18.6,19.8
				l-63.3,2.7c-10.9,0.5-20-8.1-20.2-19l-1.6-73.6C1031,2886.2,1039.6,2877.3,1050.4,2877.2z"/>
			<path opacity="0.72" fill="#FFFFFF" d="M1689.7,2582.1l-26.5,0.1c-8.5,0-15.4-6.7-15.6-15.2l-1.1-52.4
				c-0.2-8.9,7.2-16.2,16.1-15.8l28.1,1c16.1,0.6,28.8,11.4,29.1,24.8l0.7,31.2C1720.7,2570.2,1706.9,2582,1689.7,2582.1z"/>
			<path opacity="0.72" fill="#FFFFFF" d="M1175.1,2876l62.3-0.6c11.2-0.1,20.4,8.8,20.7,20.1l1.4,66.4c0.2,10.6-8,19.4-18.6,19.8
				l-63.3,2.7c-10.9,0.5-20-8.1-20.2-19l-1.5-69.5C1155.6,2885,1164.3,2876.1,1175.1,2876z"/>
			<path opacity="0.72" fill="#FFFFFF" d="M1124.9,2497l1.5,69.5c0.2,10.3-8.1,18.8-18.4,18.9l-65.2,0.4c-10.1,0.1-18.4-8-18.6-18.1
				l-1.5-72.2c-0.2-10.6,8.5-19.2,19.1-18.9l65.3,2.3C1116.9,2479.3,1124.7,2487.2,1124.9,2497z"/>
			<path opacity="0.72" fill="#FFFFFF" d="M1127.9,2636.5l1.4,66.7c0.2,10.1-7.8,18.5-17.9,18.9l-65.2,2.1
				c-10.3,0.3-18.9-7.8-19.1-18.1l-1.5-69c-0.2-10.4,8.1-18.9,18.5-18.9l65.2,0.1C1119.5,2618.4,1127.7,2626.5,1127.9,2636.5z"/>
			<path fill="#FFFFFF" d="M1697,2443.6l-3,22c-1,7-6.9,12.3-14,12.5l-1,0c-8,0.2-14.6-6.2-14.8-14.1l-0.5-22.5
				c-0.2-8.7,7.4-15.6,16-14.7l4.5,0.5C1692.3,2428.1,1698.1,2435.5,1697,2443.6z"/>
			<path fill="#FFFFFF" d="M1594.8,2437.9l-3,22c-1,7-6.9,12.3-14,12.5l-1,0c-8,0.2-14.6-6.2-14.8-14.1l-0.5-22.5
				c-0.2-8.7,7.4-15.6,16-14.7l4.5,0.5C1590.2,2422.5,1595.9,2429.8,1594.8,2437.9z"/>
			<path fill="#FFFFFF" d="M1469.1,2439.6l-3,22c-1,7-6.9,12.3-14,12.5l-1,0c-8,0.2-14.6-6.2-14.8-14.1l-0.5-22.5
				c-0.2-8.7,7.4-15.6,16-14.7l4.5,0.5C1464.5,2424.2,1470.2,2431.6,1469.1,2439.6z"/>
			<path fill="#FFFFFF" d="M1346.7,2434.1l-3,22c-1,7-6.9,12.3-14,12.5l-1,0c-8,0.2-14.6-6.2-14.8-14.1l-0.5-22.5
				c-0.2-8.7,7.4-15.6,16-14.7l4.5,0.5C1342,2418.7,1347.8,2426.1,1346.7,2434.1z"/>
			<path fill="#FFFFFF" d="M1220.9,2418.2l-3,22c-1,7-6.9,12.3-14,12.5l-1,0c-8,0.2-14.6-6.2-14.8-14.1l-0.5-22.5
				c-0.2-8.7,7.4-15.6,16-14.7l4.5,0.5C1216.2,2402.7,1222,2410.1,1220.9,2418.2z"/>
			<path fill="#FFFFFF" d="M1087.7,2421l-3,22c-1,7-6.9,12.3-14,12.5l-1,0c-8,0.2-14.6-6.2-14.8-14.1l-0.5-22.5
				c-0.2-8.7,7.4-15.6,16-14.7l4.5,0.5C1083,2405.5,1088.8,2412.9,1087.7,2421z"/>
			<path fill="#FFFFFF" d="M975.2,2418.6l-3,22c-1,7-6.9,12.3-14,12.5l-1,0c-8,0.2-14.6-6.2-14.8-14.1l-0.5-22.5
				c-0.2-8.7,7.4-15.6,16-14.7l4.5,0.5C970.5,2403.2,976.3,2410.6,975.2,2418.6z"/>
			<g>
				
					<linearGradient id="SVGID_27_" gradientUnits="userSpaceOnUse" x1="700.9901" y1="-9440.8438" x2="493.7609" y2="-8982.2207" gradientTransform="matrix(-1 0 0 1 -3228.738 0)">
					<stop  offset="0" style="stop-color:#FF928E"/>
					<stop  offset="1" style="stop-color:#FE7062"/>
				</linearGradient>
				<path fill="url(#SVGID_27_)" d="M1408.7,2415.4c0.3-4.8,5.2-6.8,8.9-3.9c10.3,8.1,14.5,20.8,19.6,32.6
					c5.9,13.7,11.6,27.6,16.7,41.7c5.3,14.9,9.9,30,13.3,45.3c6.9-18.3,14.8-36.2,24.9-53.2c2.7-4.5,10.3-1.9,8.8,3.5
					c-8.7,31.1-19.5,61.5-27.7,92.8c-2.9,11-18,8.4-19.1-2.2c-3.1-28.9-10.1-56.6-20-83.9c-4.7-13-10-25.8-15.4-38.5
					C1413.9,2438.4,1408,2427.9,1408.7,2415.4z"/>
				
					<linearGradient id="SVGID_28_" gradientUnits="userSpaceOnUse" x1="723.6594" y1="-9430.5811" x2="516.4304" y2="-8971.959" gradientTransform="matrix(-1 0 0 1 -3228.738 0)">
					<stop  offset="0" style="stop-color:#FF928E"/>
					<stop  offset="1" style="stop-color:#FE7062"/>
				</linearGradient>
				<path fill="url(#SVGID_28_)" d="M1394.5,2438.5c9-1.7,12.3,9.8,4,13.5c-54.6,24-61.7,91.6-22.3,132.6
					c18.2,18.9,42.4,33.6,65.3,46.3c23.2,12.8,49.2,22.6,76.1,19.9c62.5-6.3,71-69.9,52.3-119c-18-47.2-56.5-83.6-103.6-101.1
					c-6.1-2.3-3.7-12.2,2.5-9.9c44.2,15.9,81.8,47.1,105.1,88c21.4,37.6,34.3,90.7,6.2,128.5c-29,39.1-84.2,39.8-125.7,23.5
					c-45.7-17.9-102.6-51.2-120.8-99.5C1314.8,2510.8,1338.3,2449,1394.5,2438.5z"/>
			</g>
			<g>
				<path fill="#91B3FA" d="M779.5,3040.3c1.3,0,2.4-1,2.4-2.4l2.9-415.3c0-1.3-1-2.4-2.4-2.4c0,0,0,0,0,0c-1.3,0-2.4,1-2.4,2.4
					l-2.9,415.3C777.1,3039.2,778.1,3040.2,779.5,3040.3C779.5,3040.3,779.5,3040.3,779.5,3040.3z"/>
				<path fill="#91B3FA" d="M783,2529.6c1.3,0,2.4-1,2.4-2.4l1-145c0-1.3-1-2.4-2.4-2.4c0,0,0,0,0,0c-1.3,0-2.4,1-2.4,2.4l-1,145
					C780.6,2528.6,781.7,2529.6,783,2529.6C783,2529.6,783,2529.6,783,2529.6z"/>
			</g>
			
				<linearGradient id="SVGID_29_" gradientUnits="userSpaceOnUse" x1="-4866.355" y1="2316.2507" x2="-4927.3604" y2="2434.6016" gradientTransform="matrix(-1 0 0 1 -3228.738 0)">
				<stop  offset="0" style="stop-color:#E1473D"/>
				<stop  offset="1" style="stop-color:#E9605A"/>
			</linearGradient>
			<circle fill="url(#SVGID_29_)" cx="1671.8" cy="2382.6" r="25.3"/>
			
				<linearGradient id="SVGID_30_" gradientUnits="userSpaceOnUse" x1="-4659.0459" y1="2314.304" x2="-4720.0518" y2="2432.6548" gradientTransform="matrix(-1 0 0 1 -3228.738 0)">
				<stop  offset="0" style="stop-color:#E1473D"/>
				<stop  offset="1" style="stop-color:#E9605A"/>
			</linearGradient>
			<circle fill="url(#SVGID_30_)" cx="1464.5" cy="2380.6" r="25.3"/>
			
				<linearGradient id="SVGID_31_" gradientUnits="userSpaceOnUse" x1="-4449.7905" y1="2307.4912" x2="-4510.7959" y2="2425.8418" gradientTransform="matrix(-1 0 0 1 -3228.738 0)">
				<stop  offset="0" style="stop-color:#E1473D"/>
				<stop  offset="1" style="stop-color:#E9605A"/>
			</linearGradient>
			<circle fill="url(#SVGID_31_)" cx="1255.2" cy="2373.8" r="25.3"/>
			
				<linearGradient id="SVGID_32_" gradientUnits="userSpaceOnUse" x1="-4242.4814" y1="2297.7583" x2="-4303.4873" y2="2416.1091" gradientTransform="matrix(-1 0 0 1 -3228.738 0)">
				<stop  offset="0" style="stop-color:#E1473D"/>
				<stop  offset="1" style="stop-color:#E9605A"/>
			</linearGradient>
			<circle fill="url(#SVGID_32_)" cx="1047.9" cy="2364.1" r="25.3"/>
			<g>
				
					<linearGradient id="SVGID_33_" gradientUnits="userSpaceOnUse" x1="-4134.2939" y1="2040.0264" x2="-4355.7539" y2="2469.6584" gradientTransform="matrix(-1 0 0 1 -3228.738 0)">
					<stop  offset="0" style="stop-color:#FEBBBA"/>
					<stop  offset="1" style="stop-color:#FF928E"/>
				</linearGradient>
				<path fill="url(#SVGID_33_)" d="M1028.7,2188.8c42.6,9.3,38.6,121.3,35.1,166.8c-0.8,10.7-9.7,19-20.5,19c-3,0-5.8-1.3-7.8-3.5
					c-2-2.2-2.9-5.2-2.6-8.1c3.7-34.4,11.5-133.4-19.8-138.7c0,0-22.5-4-26.3,39.6h-24.3C962.5,2263.8,975.2,2177.1,1028.7,2188.8z"
					/>
				
					<linearGradient id="SVGID_34_" gradientUnits="userSpaceOnUse" x1="-4341.5898" y1="2045.724" x2="-4563.1172" y2="2475.4871" gradientTransform="matrix(-1 0 0 1 -3228.738 0)">
					<stop  offset="0" style="stop-color:#FEBBBA"/>
					<stop  offset="1" style="stop-color:#FF928E"/>
				</linearGradient>
				<path fill="url(#SVGID_34_)" d="M1236,2194.5c42.6,9.3,38.6,121.3,35.1,166.8c-0.8,10.7-9.7,19-20.5,19c-3,0-5.8-1.3-7.8-3.5
					c-2-2.2-2.9-5.2-2.6-8.1c3.7-34.4,11.5-133.4-19.8-138.7c0,0-22.5-3.1-26.3,39.5h-24.3C1169.8,2269.5,1182.5,2182.8,1236,2194.5
					z"/>
				
					<linearGradient id="SVGID_35_" gradientUnits="userSpaceOnUse" x1="-4548.8901" y1="2051.4705" x2="-4770.4619" y2="2481.3193" gradientTransform="matrix(-1 0 0 1 -3228.738 0)">
					<stop  offset="0" style="stop-color:#FEBBBA"/>
					<stop  offset="1" style="stop-color:#FF928E"/>
				</linearGradient>
				<path fill="url(#SVGID_35_)" d="M1443.3,2200.3c42.6,9.3,38.6,121.4,35.1,166.9c-0.8,10.7-9.7,19-20.5,19c-3,0-5.8-1.3-7.8-3.5
					c-2-2.2-2.9-5.2-2.6-8.1c3.7-34.4,11.5-133.5-19.8-138.8c0,0-22.5-2.5-26.3,40.3l-24.3-0.8
					C1377.1,2275.2,1389.8,2188.6,1443.3,2200.3z"/>
				
					<linearGradient id="SVGID_36_" gradientUnits="userSpaceOnUse" x1="-4756.1792" y1="2058.0688" x2="-4977.853" y2="2488.1155" gradientTransform="matrix(-1 0 0 1 -3228.738 0)">
					<stop  offset="0" style="stop-color:#FEBBBA"/>
					<stop  offset="1" style="stop-color:#FF928E"/>
				</linearGradient>
				<path fill="url(#SVGID_36_)" d="M1650.6,2207c42.6,9.3,38.6,121.4,35.1,166.9c-0.8,10.7-9.7,19-20.5,19c-3,0-5.8-1.3-7.8-3.5
					c-2-2.2-2.9-5.2-2.6-8.1c3.7-34.4,11.5-133.6-19.8-138.9c0,0-22.5-3.3-26.3,39.3h-24.3C1584.4,2281.8,1597.1,2195.3,1650.6,2207
					z"/>
			</g>
		</g>
		<g>
			
				<linearGradient id="SVGID_37_" gradientUnits="userSpaceOnUse" x1="7127.0513" y1="3289.1392" x2="7131.7104" y2="3149.3611" gradientTransform="matrix(1 0 0 1 -4857.9399 0)">
				<stop  offset="0" style="stop-color:#09005D"/>
				<stop  offset="1" style="stop-color:#1A0F91"/>
			</linearGradient>
			<path fill="url(#SVGID_37_)" d="M2316.2,3053c0-0.6,0-1.2-0.2-1.8c-8.9-35.3-45.4-53.5-45.4-53.5l-17.5,1.4
				c-10.1,31.2-16.6,46.4-15,54.9c0,0.2,0.1,0.5,0.2,0.7C2252.8,3056,2282.5,3056.8,2316.2,3053z"/>
			
				<linearGradient id="SVGID_38_" gradientUnits="userSpaceOnUse" x1="7132.8511" y1="2862.238" x2="7128.3213" y2="2488.5459" gradientTransform="matrix(1 0 0 1 -4857.9399 0)">
				<stop  offset="0" style="stop-color:#4F52FF"/>
				<stop  offset="1" style="stop-color:#4042E2"/>
			</linearGradient>
			<path fill="url(#SVGID_38_)" d="M2238.3,3054.7c0.8,2.8,2.9,5.1,5.6,5.6c20.6,4.3,53.3,0.8,67-1c3-0.4,5.2-3.2,5.3-6.4
				C2282.5,3056.8,2252.8,3056,2238.3,3054.7z"/>
			
				<linearGradient id="SVGID_39_" gradientUnits="userSpaceOnUse" x1="-2448.0063" y1="2934.8657" x2="-2463.6382" y2="3071.2905" gradientTransform="matrix(-1 0 0 1 -184.4432 0)">
				<stop  offset="0" style="stop-color:#FEBBBA"/>
				<stop  offset="1" style="stop-color:#FF928E"/>
			</linearGradient>
			<path fill="url(#SVGID_39_)" d="M2285.1,2970.4l-7.7,37c-0.6,2.7-2.6,4.7-5.2,5c-3.1,0.3-7.5,0.5-11.9-0.2c-4-0.6-6.7-4.6-6-8.9
				l5.3-32.8H2285.1z"/>
			
				<linearGradient id="SVGID_40_" gradientUnits="userSpaceOnUse" x1="-2248.6255" y1="3317.5549" x2="-2253.1555" y2="2943.8569" gradientTransform="matrix(-1 0 0 1 -184.4432 0)">
				<stop  offset="0" style="stop-color:#4F52FF"/>
				<stop  offset="1" style="stop-color:#4042E2"/>
			</linearGradient>
			<path fill="url(#SVGID_40_)" d="M2089.3,3054.4c18.7-0.5,28.4-2.7,33.4-4.8c0,1.9,0,3.8-0.1,5.7c-0.1,2.1-1.6,3.8-3.5,3.8
				l-102.8-0.7c-3.3,0-5.2-3.8-3.8-6.8C2026,3052.7,2060.4,3055.2,2089.3,3054.4z"/>
			
				<linearGradient id="SVGID_41_" gradientUnits="userSpaceOnUse" x1="-2262.9329" y1="3375.5781" x2="-2258.2734" y2="3235.7986" gradientTransform="matrix(-1 0 0 1 -184.4432 0)">
				<stop  offset="0" style="stop-color:#09005D"/>
				<stop  offset="1" style="stop-color:#1A0F91"/>
			</linearGradient>
			<path fill="url(#SVGID_41_)" d="M2012.5,3051.6c0.1-0.3,0.2-0.5,0.4-0.8c9.1-12.7,32.2-38,77.9-48.9l21.9-0.7
				c0,0,9.8,17,9.9,48.4c-5,2-14.7,4.3-33.4,4.8C2060.4,3055.2,2026,3052.7,2012.5,3051.6z"/>
			
				<linearGradient id="SVGID_42_" gradientUnits="userSpaceOnUse" x1="-2283.3352" y1="2952.3191" x2="-2297.958" y2="3079.9368" gradientTransform="matrix(-1 0 0 1 -184.4432 0)">
				<stop  offset="0" style="stop-color:#FEBBBA"/>
				<stop  offset="1" style="stop-color:#FF928E"/>
			</linearGradient>
			<path fill="url(#SVGID_42_)" d="M2116.8,2968c-0.2,1.6-3.2,26.5-4.4,36.1c-0.3,2.3-1.9,4.1-4,4.3c-3.7,0.4-9.8,0.9-15.1-0.2
				c-2.9-0.6-4.9-3.3-4.9-6.5v-39L2116.8,2968z"/>
			
				<linearGradient id="SVGID_43_" gradientUnits="userSpaceOnUse" x1="-4185.4414" y1="2948.2388" x2="-4167.8994" y2="2398.6028" gradientTransform="matrix(-1 0 0 1 -1996.2784 0)">
				<stop  offset="0" style="stop-color:#09005D"/>
				<stop  offset="1" style="stop-color:#1A0F91"/>
			</linearGradient>
			<path fill="url(#SVGID_43_)" d="M2270.4,2485.1c0,0,35.1,311.9,15.6,506.8c0,0-23.4,0-35.1-3.9c0,0-36.5-304.9-48.3-392.2
				c-0.4-3.3-5.1-3.4-5.8-0.2c-14.6,73.4-71.7,361.3-78.5,388.5c0,0-19.5,7.8-35.1,0c0,0,31.2-417.1,54.6-491.2L2270.4,2485.1z"/>
			<linearGradient id="SVGID_44_" gradientUnits="userSpaceOnUse" x1="2396.8232" y1="1890.4991" x2="2172.6182" y2="2308.3352">
				<stop  offset="0" style="stop-color:#FF928E"/>
				<stop  offset="1" style="stop-color:#FE7062"/>
			</linearGradient>
			<path fill="url(#SVGID_44_)" d="M2340.6,2122.6c0,0-148.1-23.4-265.1,7.8l7.8,120.8c0,0,31.2,167.6,54.6,241.7
				c0,0,89.7,15.6,132.5-7.8c0,0,35.1-210.5,54.6-241.7C2325,2243.4,2344.5,2161.5,2340.6,2122.6z"/>
			<linearGradient id="SVGID_45_" gradientUnits="userSpaceOnUse" x1="2292.0825" y1="2303.2979" x2="2193.5635" y2="2017.9323">
				<stop  offset="0" style="stop-color:#FEBBBA"/>
				<stop  offset="1" style="stop-color:#FF928E"/>
			</linearGradient>
			<path fill="url(#SVGID_45_)" d="M2237.7,2016l14.8,99.8c0,0-41.2,18.9-70.1-0.8l6.2-70.4L2237.7,2016z"/>
			<g>
				
					<linearGradient id="SVGID_46_" gradientUnits="userSpaceOnUse" x1="3452.6592" y1="-3163.75" x2="3575.4602" y2="-3193.6379" gradientTransform="matrix(-0.8757 -0.4828 -0.4828 0.8757 -2129.9531 1095.1436)">
					<stop  offset="0" style="stop-color:#FEBBBA"/>
					<stop  offset="1" style="stop-color:#FF928E"/>
				</linearGradient>
				<path fill="url(#SVGID_46_)" d="M2174.1,1951c-0.5,0.8-9.4,51.2-14.8,82.3c-2.3,12.9,7.2,24.8,20.2,25.6l11.9,0.7
					c21.9,1.3,41.3-14.3,44.6-36.1l8.6-56.4C2244.7,1967.2,2185.4,1930.6,2174.1,1951z"/>
				
					<linearGradient id="SVGID_47_" gradientUnits="userSpaceOnUse" x1="-4284.1865" y1="-1338.0911" x2="-4157.7012" y2="-1338.0911" gradientTransform="matrix(-0.8757 -0.4828 -0.4828 0.8757 -2129.9531 1095.1436)">
					<stop  offset="0" style="stop-color:#09005D"/>
					<stop  offset="1" style="stop-color:#1A0F91"/>
				</linearGradient>
				<path fill="url(#SVGID_47_)" d="M2257.6,1967.3c4.6-5.7,8.6-14.9-1.2-24.6c-9.9-9.8-21.1-7.4-28.2-4.1c-3.1,1.5-7,0.8-9.3-1.8
					c-1-1.2-2.5-2-4.7-1.7c-4.1,0.5-7.8-2.3-8.3-6.4c-0.8-7.1-4.6-15.4-17.1-17.8c-22.9-4.4-34.4,18.5-34,34.7
					c0.4,16.1,25.6,19.5,39.8,16.9c10.5-2,19.5,7.2,23.6,12.3c1.5,1.8,2,4.2,1.5,6.5l-3.6,15.6c2.5,4.8,5,9.8,8.5,13.9
					c2.5,3,5.3,4.6,8.3,5.3c4.3-8,16.2-9.3,21.8-9.5c2.1-0.1,4.1-1,5.5-2.6c4.2-4.8,10.8-15.5-1.8-26.1
					C2255.4,1975.2,2255,1970.5,2257.6,1967.3z"/>
				
					<linearGradient id="SVGID_48_" gradientUnits="userSpaceOnUse" x1="3448.3347" y1="-3181.5393" x2="3571.1362" y2="-3211.4275" gradientTransform="matrix(-0.8757 -0.4828 -0.4828 0.8757 -2129.9531 1095.1436)">
					<stop  offset="0" style="stop-color:#FEBBBA"/>
					<stop  offset="1" style="stop-color:#FF928E"/>
				</linearGradient>
				<path fill="url(#SVGID_48_)" d="M2228.9,2032.7c0,0,0.5-28.2,11.9-30.8c11.4-2.6,23.7,5.6,13.9,22.5
					C2242.6,2045.3,2228.9,2032.7,2228.9,2032.7z"/>
			</g>
			<linearGradient id="SVGID_49_" gradientUnits="userSpaceOnUse" x1="2533.165" y1="1963.6583" x2="2308.9604" y2="2381.4932">
				<stop  offset="0" style="stop-color:#FF928E"/>
				<stop  offset="1" style="stop-color:#FE7062"/>
			</linearGradient>
			<path fill="url(#SVGID_49_)" d="M2340.6,2122.6c0,0,230,249.5-40.9,345v-19.5c0,0,101.4-85.8,23.4-202.7
				C2323,2245.4,2332.8,2134.2,2340.6,2122.6z"/>
			
				<linearGradient id="SVGID_50_" gradientUnits="userSpaceOnUse" x1="-4231.6406" y1="2427.7292" x2="-4356.3872" y2="2534.2837" gradientTransform="matrix(-1 0 0 1 -1996.2784 0)">
				<stop  offset="0" style="stop-color:#FEBBBA"/>
				<stop  offset="1" style="stop-color:#FF928E"/>
			</linearGradient>
			<path fill="url(#SVGID_50_)" d="M2297.7,2450c0,0-35.1-23.4-50.7-15.6c-15.6,7.8-15.6,19.5-15.6,19.5s7.8,15.6,19.5,11.7
				c11.7-3.9,39,3.9,50.7,0C2301.6,2465.6,2305.5,2450,2297.7,2450z"/>
			<g>
				<linearGradient id="SVGID_51_" gradientUnits="userSpaceOnUse" x1="2223.1689" y1="1797.318" x2="1998.9646" y2="2215.1528">
					<stop  offset="0" style="stop-color:#FF928E"/>
					<stop  offset="1" style="stop-color:#FE7062"/>
				</linearGradient>
				<path fill="url(#SVGID_51_)" d="M1896.1,2210.7c74.3,11.1,116-39.6,152-68c47.6-37.5,91.4-15.4,91.4-15.4l-46.9,109.4
					c-75.8,71.5-157.5,43.2-206.5,20C1885.4,2237.9,1890.4,2222.3,1896.1,2210.7z"/>
				<linearGradient id="SVGID_52_" gradientUnits="userSpaceOnUse" x1="1835.6506" y1="2213.187" x2="1964.7449" y2="2147.5076">
					<stop  offset="0" style="stop-color:#FEBBBA"/>
					<stop  offset="1" style="stop-color:#FF928E"/>
				</linearGradient>
				<path fill="url(#SVGID_52_)" d="M1791.8,2166.4l24.6,13.3c29.5,18,56,27.5,79.7,31.1c-5.7,11.6-10.7,27.2-10,46
					c-31.2-14.7-50.8-32.5-50.8-32.5C1779.6,2190.9,1791.8,2166.4,1791.8,2166.4z"/>
			</g>
			<linearGradient id="SVGID_53_" gradientUnits="userSpaceOnUse" x1="1823.923" y1="2155.7246" x2="1654.0625" y2="2228.1982">
				<stop  offset="0" style="stop-color:#FEBBBA"/>
				<stop  offset="1" style="stop-color:#FF928E"/>
			</linearGradient>
			<path fill="url(#SVGID_53_)" d="M1719.2,2201.1c1.6-5.3,5.5-9.6,10.6-11.6l50-20.1c0,0,0.8-6.4-10.6-10.8
				c-11.3-4.4-8.7-17-8.7-17s15.5,7.1,38.1,18.2c12.9,6.4,20.2,17.7,24.1,26.2l-12.9,16.9c-30.8,9.3-62,11-93.4,7.4L1719.2,2201.1z"
				/>
		</g>
		<g>
			<g>
				<path fill="#91B3FA" d="M889.8,3022.8c0,0-118,130.1-216.5,75.1c-79.2-44.2,33.3-32.6,128.7-53.5c7.5-1.6,5.5-12.8-2.1-11.8
					c-74.7,9.9-188.6,18-208.4-20.9c-29.9-58.8-0.9-39.7,90-31.2c90.9,8.5,108.4-14,49.1-27.9c-59.3-14-153.8,16.9-175.7-11.8
					c-22-28.8-34-85.8-42.8-110.4c-8.8-24.6,113.2-61.4,146.1-29.2c33,32.2,59.7,104.2,98.9,117.3c39.1,13.1-3-50.5-28.9-83.3
					c-25.9-32.8-36.2-57.3,15.6-49.4c51.8,7.8,79.2,71.1,84.7,118.3c5.5,47.2,23.7,73.6,22.9,50.3c-0.8-23.4-9.3-95-25.9-116.6
					C809,2816.1,927.3,2842.4,889.8,3022.8z"/>
				<linearGradient id="SVGID_54_" gradientUnits="userSpaceOnUse" x1="604.8302" y1="2945.6392" x2="881.2178" y2="2945.6392">
					<stop  offset="0" style="stop-color:#DAE3FE"/>
					<stop  offset="1" style="stop-color:#E9EFFD"/>
				</linearGradient>
				<path fill="url(#SVGID_54_)" d="M880.2,3024c-0.5,0.2-1.1,0.1-1.6-0.3c-101.3-88.6-271.1-153-272.8-153.6
					c-0.8-0.3-1.2-1.2-0.9-2c0.3-0.8,1.2-1.2,2-0.9c1.7,0.6,172.1,65.2,273.8,154.2c0.6,0.6,0.7,1.5,0.1,2.2
					C880.7,3023.8,880.4,3024,880.2,3024z"/>
			</g>
			<g>
				<path fill="#BDD0FB" d="M961,3105.9c0,0-215.5,7.1-251.2-126.7c-28.7-107.6,57.2,1.5,157.2,67.8c7.8,5.2,16-6.1,8.7-11.9
					c-72.5-57.4-177-150.9-159.6-201.6c26.3-76.5,34.2-34.7,104.4,52.7s104.9,83.7,66.6,19.4c-38.4-64.3-146.3-121.1-139.7-165
					c6.6-44,46.6-103.3,60.8-132c14.2-28.7,150.8,47.3,150.6,103.9c-0.2,56.6-40.8,141.7-19,187.4c21.8,45.7,42-45.8,48.8-96.7
					c6.8-50.9,19.5-80.9,56.9-28.5c37.4,52.4,5,130.6-32,175.8c-37,45.2-44.7,83.8-24.8,63.1c19.9-20.7,75.8-89.4,80.7-122.4
					C1074.2,2858.1,1152.1,2984.8,961,3105.9z"/>
				<linearGradient id="SVGID_55_" gradientUnits="userSpaceOnUse" x1="852.8682" y1="2910.5366" x2="954.46" y2="2910.5366">
					<stop  offset="0" style="stop-color:#DAE3FE"/>
					<stop  offset="1" style="stop-color:#E9EFFD"/>
				</linearGradient>
				<path fill="url(#SVGID_55_)" d="M951.8,3098.5c-0.6-0.3-1.1-0.9-1.1-1.6c-8.4-165-96.7-369.7-97.6-371.7c-0.4-1,0-2.1,1-2.5
					c1-0.4,2.1,0,2.5,1c0.9,2.1,89.5,207.4,97.9,373.1c0.1,1-0.8,1.9-1.8,2C952.3,3098.7,952,3098.6,951.8,3098.5z"/>
			</g>
		</g>
	</g>
	<g>
	</g>
	<g>
	</g>
	<g>
	</g>
	<g>
	</g>
	<g>
	</g>
	<g>
	</g>
	<g>
	</g>
	<g>
	</g>
	<g>
	</g>
	<g>
	</g>
	<g>
	</g>
	<g>
	</g>
	<g>
	</g>
	<g>
	</g>
	<g>
	</g>
</g>
</svg>
