<?xml version="1.0" encoding="utf-8"?>
<!-- Generator: Adobe Illustrator 25.2.1, SVG Export Plug-In . SVG Version: 6.00 Build 0)  -->
<svg version="1.1" xmlns="http://www.w3.org/2000/svg" xmlns:xlink="http://www.w3.org/1999/xlink" x="0px" y="0px"
	 viewBox="0 0 3710 3710" enable-background="new 0 0 3710 3710" xml:space="preserve">
<g id="Background">
</g>
<g id="Illustration">
	<g>
		<linearGradient id="SVGID_1_" gradientUnits="userSpaceOnUse" x1="3373.4575" y1="3609.0535" x2="1372.302" y2="1449.0758">
			<stop  offset="0" style="stop-color:#DAE3FE"/>
			<stop  offset="1" style="stop-color:#E9EFFD"/>
		</linearGradient>
		<path fill="url(#SVGID_1_)" d="M3094.6,2378.2c-275,642.7-1000.8,918.8-1569.5,871.7c-155.3-12.9-467.7-38.7-711.7-269.4
			c-468.5-443-396.3-1369.1,52.1-1914.3C923.3,996,1323.1,525.6,1946,531.9c456.1,4.6,776.2,262.3,815.1,294.3
			c49.2,40.5,157.6,136.9,255.4,289.8C3246.2,1475.1,3266.4,1976.5,3094.6,2378.2z"/>
		<g>
			<g>
				<g opacity="0.3">
					<path fill="#91B3FA" d="M785.8,867.5c-4.3-0.8-7.4-4.7-7-9.1c0.7-9.7,1.9-19.5,3.5-29.2c0.8-4.7,5.2-7.9,9.9-7.1
						c0.1,0,0.1,0,0.2,0c4.6,0.8,7.7,5.2,7,9.9c-1.5,9.2-2.6,18.5-3.3,27.7c-0.4,4.7-4.5,8.3-9.2,7.9
						C786.4,867.6,786.1,867.6,785.8,867.5z M799.8,793.8c-0.3-0.1-0.7-0.1-1-0.2c-4.5-1.4-7.1-6.2-5.7-10.8
						c2.9-9.3,6.2-18.7,9.8-27.7c1.8-4.4,6.8-6.5,11.2-4.8c4.4,1.8,6.6,6.8,4.8,11.2c-3.5,8.6-6.6,17.4-9.3,26.3
						C808.3,792,804.1,794.5,799.8,793.8z M829.7,724.9c-0.9-0.2-1.9-0.5-2.8-1c-4.1-2.4-5.5-7.6-3.2-11.8
						c4.9-8.5,10.2-16.8,15.7-24.8c2.7-3.9,8.1-4.9,12-2.2c3.9,2.7,4.9,8.1,2.2,12c-5.3,7.6-10.3,15.5-14.9,23.6
						C836.8,724,833.2,725.6,829.7,724.9z M874.2,664.5c-1.6-0.3-3.1-1-4.3-2.2c-3.5-3.2-3.7-8.7-0.5-12.2
						c6.6-7.2,13.7-14.1,20.9-20.7c3.5-3.2,9-2.9,12.2,0.6c3.2,3.5,2.9,9-0.6,12.2c-6.9,6.2-13.5,12.8-19.8,19.6
						C880,664.1,877,665,874.2,664.5z M931.1,615.5c-2.2-0.4-4.2-1.6-5.6-3.6c-2.7-3.9-1.7-9.3,2.3-12c8-5.5,16.4-10.7,24.9-15.5
						c4.1-2.3,9.4-0.9,11.7,3.3c2.3,4.1,0.9,9.4-3.3,11.7c-8.1,4.6-16.1,9.5-23.7,14.8C935.5,615.4,933.2,615.9,931.1,615.5z
						 M997.4,580.3c-2.8-0.5-5.3-2.4-6.5-5.3c-1.7-4.4,0.4-9.4,4.8-11.2c9.1-3.6,18.4-6.8,27.8-9.6c4.6-1.4,9.4,1.2,10.7,5.8
						c1.4,4.6-1.2,9.4-5.8,10.7c-8.9,2.7-17.7,5.7-26.4,9.1C1000.5,580.4,998.9,580.6,997.4,580.3z M1311.7,616.6
						c-1.2-0.2-2.3-0.7-3.4-1.4c-7.6-5.3-15.5-10.3-23.6-14.9c-4.1-2.4-5.6-7.6-3.2-11.8c2.4-4.1,7.6-5.6,11.8-3.2
						c8.5,4.9,16.8,10.1,24.9,15.7c3.9,2.7,4.9,8.1,2.2,12C1318.3,615.9,1314.9,617.2,1311.7,616.6z M1069.8,560.7
						c-3.5-0.6-6.4-3.4-7-7.2c-0.7-4.7,2.5-9.1,7.2-9.8c9.6-1.5,19.5-2.6,29.2-3.2c4.7-0.3,8.9,3.3,9.2,8c0.3,4.7-3.3,8.9-8,9.2
						c-9.2,0.6-18.6,1.6-27.7,3C1071.6,560.8,1070.7,560.8,1069.8,560.7z M1245.6,581c-0.6-0.1-1.1-0.3-1.7-0.5
						c-8.6-3.4-17.5-6.6-26.3-9.3c-4.6-1.4-7.1-6.2-5.7-10.8c1.4-4.6,6.2-7.1,10.8-5.7c9.3,2.8,18.7,6.1,27.7,9.7
						c4.4,1.8,6.6,6.8,4.8,11.2C1253.5,579.6,1249.5,581.7,1245.6,581z M1144.7,557.7c-4.3-0.8-7.4-4.7-7-9.1c0.3-4.7,4.5-8.3,9.2-8
						c9.7,0.7,19.5,1.9,29.2,3.4c0.1,0,0.1,0,0.2,0c4.6,0.8,7.7,5.2,7,9.8c-0.8,4.7-5.2,7.9-9.9,7.1c-9.2-1.5-18.5-2.6-27.7-3.2
						C1145.3,557.8,1145,557.8,1144.7,557.7z"/>
					<path fill="#91B3FA" d="M1358.1,655.4c-1.7-0.3-3.3-1.1-4.6-2.4c-3.1-3.1-6.4-6.3-9.7-9.3c-3.5-3.2-3.7-8.7-0.5-12.2
						c3.2-3.5,8.7-3.7,12.2-0.5c3.5,3.2,6.9,6.5,10.2,9.8c3.4,3.4,3.3,8.8,0,12.2C1363.6,655.1,1360.7,655.9,1358.1,655.4z"/>
				</g>
				<g opacity="0.3">
					<path fill="#91B3FA" d="M1456,899.1c-4.1-0.7-7.2-4.4-7.1-8.7c0.1-4.4,0.1-9,0-13.4c-0.1-4.8,3.7-8.7,8.4-8.8
						c4.8-0.1,8.7,3.7,8.8,8.4c0.1,4.7,0.1,9.5,0,14.1c-0.1,4.8-4,8.5-8.8,8.4C1456.9,899.3,1456.5,899.2,1456,899.1z"/>
					<path fill="#91B3FA" d="M1060.8,1222.6c-3.9-0.7-7.8-1.5-11.7-2.3c-4.6-1-7.6-5.6-6.6-10.2c1-4.7,5.6-7.6,10.2-6.6
						c9,2,18.1,3.5,27.1,4.7c4.7,0.6,8,4.9,7.4,9.7c-0.6,4.7-4.9,8-9.7,7.4C1072,1224.5,1066.4,1223.6,1060.8,1222.6z
						 M1005.4,1207.6c-0.5-0.1-0.9-0.2-1.4-0.4c-9-3.3-18-7-26.7-11c-4.3-2-6.2-7.1-4.2-11.4c2-4.3,7.1-6.2,11.4-4.2
						c8.3,3.8,16.8,7.3,25.4,10.5c4.5,1.6,6.8,6.6,5.1,11C1013.6,1206.1,1009.5,1208.3,1005.4,1207.6z M1122.8,1228
						c-4-0.7-7-4.2-7.1-8.4c0-4.8,3.8-8.6,8.6-8.7c9.1-0.1,18.3-0.5,27.4-1.3c4.7-0.4,8.9,3.1,9.4,7.8c0.4,4.7-3.1,8.9-7.8,9.4
						c-9.6,0.9-19.3,1.3-28.9,1.4C1123.9,1228.1,1123.4,1228.1,1122.8,1228z M939.2,1174.8c-1.1-0.2-2.1-0.6-3.1-1.2
						c-8.1-5.2-16-10.8-23.7-16.6c-3.8-2.9-4.5-8.3-1.6-12.1c2.9-3.8,8.3-4.5,12.1-1.6c7.2,5.6,14.8,10.9,22.5,15.8
						c4,2.6,5.2,7.9,2.6,11.9C946.1,1174,942.5,1175.4,939.2,1174.8z M1196.2,1219.4c-3.3-0.6-6.1-3.1-6.9-6.5
						c-1.1-4.6,1.8-9.3,6.4-10.3c8.9-2.1,17.8-4.5,26.5-7.3c4.5-1.5,9.4,1,10.8,5.6c1.5,4.5-1,9.4-5.6,10.8
						c-9.1,3-18.5,5.6-27.9,7.7C1198.5,1219.5,1197.3,1219.6,1196.2,1219.4z M1265.8,1194.8c-2.6-0.5-5-2.2-6.2-4.7
						c-2.1-4.3-0.3-9.4,4-11.5c8.2-4,16.4-8.3,24.2-12.9c4.1-2.4,9.4-1.1,11.8,3.1c2.4,4.1,1,9.4-3.1,11.8
						c-8.3,4.9-16.8,9.4-25.5,13.6C1269.4,1194.9,1267.5,1195.2,1265.8,1194.8z M1328.4,1155.7c-2-0.4-3.9-1.4-5.2-3.1
						c-2.9-3.7-2.3-9.2,1.4-12.1c7.2-5.7,14.2-11.7,20.8-17.9c3.5-3.2,8.9-3.1,12.2,0.4c3.2,3.5,3.1,8.9-0.4,12.2
						c-7,6.5-14.4,12.9-21.9,18.8C1333.3,1155.6,1330.8,1156.2,1328.4,1155.7z M1381.1,1103.9c-1.4-0.3-2.7-0.8-3.9-1.8
						c-3.7-3-4.3-8.4-1.3-12.1c5.8-7.1,11.3-14.5,16.4-22c2.7-3.9,8-4.9,12-2.3c3.9,2.7,5,8,2.3,12c-5.4,7.9-11.2,15.7-17.3,23.2
						C1387.2,1103.4,1384.1,1104.4,1381.1,1103.9z M1421,1041.7c-0.8-0.1-1.5-0.4-2.3-0.8c-4.3-2.1-6-7.3-3.9-11.5
						c4-8.2,7.8-16.6,11.1-25.1c1.7-4.4,6.8-6.6,11.2-4.9c4.4,1.7,6.6,6.8,4.9,11.2c-3.5,8.9-7.5,17.8-11.7,26.4
						C1428.5,1040.6,1424.7,1042.4,1421,1041.7z M1446.4,972.4c-0.2,0-0.3-0.1-0.5-0.1c-4.6-1.1-7.4-5.8-6.3-10.4
						c1.6-6.5,3-13.2,4.2-19.8c0.4-2.4,0.8-4.8,1.2-7.2c0.8-4.7,5.2-7.9,9.9-7.2c4.8,0.7,7.9,5.2,7.2,9.9c-0.4,2.5-0.8,5-1.3,7.5
						c-1.3,6.9-2.8,13.9-4.4,20.8C1455.2,970.4,1450.8,973.2,1446.4,972.4z"/>
					<path fill="#91B3FA" d="M881.7,1128.1c-1.7-0.3-3.3-1.1-4.6-2.4c-3.3-3.3-6.5-6.8-9.7-10.3c-3.2-3.5-2.9-9,0.6-12.2
						c3.5-3.2,9-2.9,12.2,0.6c3,3.3,6.1,6.6,9.2,9.7c3.3,3.4,3.3,8.8-0.1,12.2C887.2,1127.8,884.4,1128.6,881.7,1128.1z"/>
				</g>
				<g>
					<g>
						<path fill="#91B3FA" d="M911,1031.9c0.8,1.5,2.5,2.3,4.2,2l48.3-8.4c15.3,17,33.5,31.6,54.1,43.2l2.5,48.9
							c0.1,1.7,1.3,3.2,2.9,3.7l56.5,16.3c1.7,0.5,3.4-0.1,4.4-1.6l28.2-40.1c23.5,1.2,46.7-1.5,68.7-7.7l36.4,32.8
							c1.3,1.2,3.1,1.4,4.6,0.5l51.5-28.4c1.5-0.8,2.3-2.5,2-4.2l-8.4-48.3c17-15.3,31.6-33.5,43.2-54.1l48.9-2.5
							c1.7-0.1,3.2-1.3,3.7-2.9l16.3-56.5c0.5-1.7-0.1-3.4-1.6-4.4l-40.1-28.2c1.2-23.5-1.5-46.7-7.7-68.7l32.8-36.4
							c1.1-1.3,1.4-3.1,0.5-4.6l-28.4-51.5c-0.8-1.5-2.5-2.3-4.2-2l-48.3,8.4c-15.3-17-33.5-31.6-54.1-43.2l-2.5-48.9
							c-0.1-1.7-1.3-3.2-2.9-3.7l-56.5-16.3c-1.7-0.5-3.4,0.1-4.4,1.6l-28.2,40.1c-23.5-1.2-46.7,1.5-68.7,7.7l-36.4-32.8
							c-1.3-1.2-3.1-1.4-4.6-0.5l-51.5,28.4c-1.5,0.8-2.3,2.5-2,4.2l8.4,48.3c-17,15.3-31.6,33.5-43.2,54.1l-48.9,2.5
							c-1.7,0.1-3.2,1.3-3.7,2.9l-16.3,56.5c-0.5,1.7,0.1,3.4,1.6,4.4l40.1,28.2c-1.2,23.5,1.5,46.7,7.7,68.7l-32.8,36.4
							c-1.2,1.3-1.4,3.1-0.5,4.6L911,1031.9z"/>
					</g>
					<g>
						<path fill="#BDD0FB" d="M1112.1,939.5c-28.3-5.2-49.4-30.5-48.5-60.1c1.1-32.6,28.5-58.2,61-57.1c15.8,0.5,30.4,7.2,41.2,18.7
							c10.8,11.5,16.4,26.6,15.9,42.3c-1.1,32.6-28.5,58.2-61,57.1C1117.8,940.3,1114.9,940,1112.1,939.5z M1130.9,836.8
							c-2.2-0.4-4.4-0.6-6.7-0.7c-25-0.8-46,18.8-46.8,43.8c-0.8,25,18.8,46,43.8,46.8c25,0.8,46-18.8,46.8-43.8
							c0.4-12.1-3.9-23.6-12.2-32.5C1149.1,843.2,1140.4,838.5,1130.9,836.8z"/>
					</g>
					<path fill="#BDD0FB" d="M1098.1,1023.7c-4.9-0.9-9.7-2-14.5-3.4l0,0c-1.5-0.4-3-0.9-4.5-1.4c-7.4-2.4-14.6-5.4-21.5-8.9
						c-0.1,0-0.2-0.1-0.3-0.1c-0.3-0.1-0.5-0.3-0.8-0.4c-0.5-0.3-1-0.5-1.5-0.8c-1.3-0.7-2-2.2-1.8-3.6c0.1-0.3,0.2-0.7,0.4-1
						c0.9-1.7,3-2.3,4.7-1.4c8.6,4.6,17.8,8.4,27.3,11.1c47.1,13.6,95.7,0.9,130-29.3c19.1-16.8,33.8-39.1,41.3-65.3
						c1.3-4.6,2.4-9.2,3.3-13.9c5.7-31.2,0.5-63.2-15.1-91.4c-17.9-32.4-47.3-55.8-82.8-66.1c-73.4-21.1-150.2,21.3-171.3,94.6
						c-1.3,4.5-2.4,9.1-3.2,13.7c-3.6,19.9-2.8,40.4,2.4,60c0.1,0.5,0.1,1,0.1,1.5c-0.2,1.3-1.2,2.4-2.5,2.7
						c-1.8,0.5-3.7-0.6-4.2-2.4c-5.5-20.6-6.3-42.1-2.5-63c0.9-4.8,2-9.6,3.4-14.4c22.2-77,102.9-121.5,179.9-99.4
						c37.3,10.8,68.2,35.4,86.9,69.4c16.3,29.6,21.8,63.2,15.8,96c-0.9,4.9-2,9.7-3.4,14.6c-10.8,37.3-35.4,68.2-69.4,86.9
						C1164.4,1024.2,1130.9,1029.7,1098.1,1023.7z"/>
				</g>
			</g>
			<g>
				<g opacity="0.3">
					<path fill="#91B3FA" d="M456,1038.3c-2.3-0.4-4.1-2.3-4.3-4.7c-0.5-4.5-0.8-9.1-1-13.6c-0.1-2.9,2.1-5.4,5.1-5.6
						c2.9-0.1,5.4,2.1,5.6,5.1c0.2,4.3,0.5,8.7,1,12.9c0.3,2.9-1.8,5.5-4.7,5.9C457,1038.4,456.4,1038.4,456,1038.3z"/>
					<path fill="#91B3FA" d="M455.4,997.4c-2.7-0.5-4.6-2.9-4.3-5.6c0.6-7.8,1.6-15.6,3-23.2c0.3-1.6,0.6-3.2,0.9-4.8
						c0.6-2.9,3.5-4.6,6.3-4.2c2.9,0.6,4.7,3.4,4.2,6.3c-0.3,1.5-0.6,3.1-0.9,4.6c-1.3,7.3-2.3,14.7-2.9,22.1
						c-0.2,2.9-2.8,5.1-5.7,4.9C455.8,997.4,455.6,997.4,455.4,997.4z M466.4,943.2c-0.2,0-0.5-0.1-0.7-0.2
						c-2.8-0.9-4.3-3.9-3.4-6.7c3-8.9,6.6-17.8,10.6-26.3c1.3-2.7,4.5-3.8,7.1-2.5c2.7,1.3,3.8,4.4,2.5,7.1
						c-3.9,8.1-7.3,16.5-10.1,25.1C471.6,942.2,469,943.7,466.4,943.2z M490.3,893.4c-0.7-0.1-1.3-0.4-1.9-0.8
						c-2.5-1.6-3.2-4.9-1.6-7.4c5.1-7.9,10.7-15.6,16.8-22.9c1.9-2.3,5.2-2.6,7.5-0.7c2.3,1.9,2.6,5.2,0.7,7.5
						c-5.8,6.9-11.1,14.2-16,21.8C494.5,892.9,492.3,893.8,490.3,893.4z M525.6,850.9c-1.1-0.2-2.1-0.7-2.9-1.6
						c-2-2.1-1.9-5.5,0.2-7.5c6.9-6.4,14.2-12.5,21.8-18.1c2.4-1.7,5.7-1.2,7.4,1.2c1.7,2.4,1.2,5.7-1.2,7.4
						c-7.2,5.3-14.3,11.1-20.8,17.2C528.9,850.8,527.2,851.2,525.6,850.9z M570.3,818.4c-1.5-0.3-2.9-1.2-3.7-2.7
						c-1.4-2.6-0.5-5.8,2.1-7.2c8.2-4.6,16.8-8.7,25.6-12.2c2.7-1.1,5.8,0.2,6.9,2.9c1.1,2.7-0.2,5.8-2.9,6.9
						c-8.3,3.4-16.5,7.3-24.4,11.7C572.7,818.4,571.4,818.6,570.3,818.4z M621.5,797.7c-2-0.4-3.6-1.8-4.2-3.9
						c-0.8-2.8,0.9-5.8,3.8-6.5c9.1-2.4,18.4-4.3,27.8-5.6c2.9-0.4,5.6,1.6,6,4.5c0.4,2.9-1.6,5.6-4.5,6c-8.9,1.2-17.8,3-26.5,5.3
						C623,797.8,622.2,797.8,621.5,797.7z M676.2,790.1c-2.5-0.4-4.3-2.6-4.4-5.2c0-2.9,2.3-5.4,5.3-5.4c9.4-0.1,18.9,0.3,28.3,1.4
						c2.9,0.4,5,3,4.7,5.9c-0.3,2.9-3,5-5.9,4.7c-9-1-18-1.4-27-1.3C676.8,790.2,676.5,790.2,676.2,790.1z M757.6,804.2
						c-0.3-0.1-0.6-0.1-0.9-0.2c-7.3-2.7-14.8-5.1-22.4-7c-1.2-0.3-2.3-0.6-3.4-0.8c-2.9-0.7-4.6-3.5-4-6.4c0.7-2.9,3.6-4.7,6.4-4
						c1.2,0.3,2.4,0.6,3.6,0.9c8,2,15.9,4.5,23.5,7.3c2.8,1,4.2,4.1,3.1,6.8C762.6,803.3,760.1,804.7,757.6,804.2z"/>
				</g>
				<g opacity="0.3">
					<path fill="#91B3FA" d="M642.2,1236.1c-2.9-0.5-4.8-3.2-4.3-6.1c0.5-2.9,3.2-4.9,6.1-4.4c8.7,1.5,17.6,2.4,26.4,2.8
						c2.9,0.2,5.2,2.6,5.1,5.6c-0.1,2.9-2.6,5.2-5.6,5.1C660.7,1238.6,651.4,1237.6,642.2,1236.1
						C642.3,1236.1,642.2,1236.1,642.2,1236.1z M615.7,1230c-0.2,0-0.4-0.1-0.6-0.1c-8.9-2.6-17.7-5.8-26.2-9.5
						c-2.7-1.2-3.9-4.3-2.8-7c1.2-2.7,4.3-3.9,7-2.8c8.1,3.5,16.5,6.5,25,9c2.8,0.8,4.4,3.8,3.6,6.6
						C620.9,1228.9,618.3,1230.4,615.7,1230z M696.5,1238.6c-2.3-0.4-4.2-2.4-4.4-4.8c-0.2-2.9,2-5.5,4.9-5.7
						c8.8-0.7,17.7-1.9,26.3-3.7c2.9-0.6,5.7,1.3,6.3,4.2c0.6,2.9-1.3,5.7-4.2,6.3c-9.1,1.8-18.3,3.1-27.6,3.8
						C697.4,1238.7,696.9,1238.6,696.5,1238.6z M565.8,1208.4c-0.6-0.1-1.2-0.3-1.7-0.6c-8-4.7-15.8-9.9-23.2-15.5
						c-2.3-1.8-2.8-5.1-1-7.5c1.8-2.3,5.1-2.8,7.5-1c7,5.4,14.5,10.3,22.1,14.8c2.5,1.5,3.4,4.7,1.9,7.3
						C570.1,1207.8,567.9,1208.8,565.8,1208.4z M749.7,1227.8c-1.9-0.3-3.5-1.7-4.1-3.6c-0.9-2.8,0.6-5.8,3.4-6.7
						c8.4-2.8,16.7-6.1,24.7-9.9c2.7-1.3,5.8-0.1,7.1,2.5c1.3,2.7,0.1,5.8-2.5,7.1c-8.4,4-17.1,7.4-25.9,10.4
						C751.5,1227.9,750.6,1228,749.7,1227.8z M798.9,1204.7c-1.4-0.3-2.7-1.1-3.6-2.4c-1.6-2.5-0.8-5.8,1.7-7.3
						c7.5-4.7,14.8-9.9,21.6-15.5c2.3-1.9,5.6-1.5,7.5,0.8c1.9,2.3,1.5,5.6-0.8,7.5c-7.2,5.8-14.8,11.3-22.6,16.2
						C801.5,1204.7,800.2,1204.9,798.9,1204.7z M841.1,1170.4c-1-0.2-2-0.6-2.7-1.4c-2.1-2-2.2-5.4-0.1-7.5
						c6.1-6.4,12-13.2,17.3-20.2c1.8-2.3,5.1-2.8,7.5-1c2.3,1.8,2.8,5.1,1.1,7.5c-5.6,7.4-11.7,14.5-18.1,21.2
						C844.6,1170.2,842.8,1170.7,841.1,1170.4z"/>
					<path fill="#91B3FA" d="M522.4,1175.3c-1-0.2-2-0.7-2.8-1.4c-3.3-3.2-6.4-6.5-9.4-9.8c-2-2.2-1.8-5.5,0.4-7.5
						c2.2-2,5.5-1.8,7.5,0.4c2.9,3.2,5.9,6.3,9,9.3c2.1,2.1,2.1,5.4,0.1,7.5C525.8,1175.1,524,1175.6,522.4,1175.3z"/>
				</g>
				<g>
					<g>
						<path fill="#91B3FA" d="M539,1108.4c0.6,1,1.7,1.5,2.8,1.4l32.3-5.6c10.3,11.4,22.4,21.2,36.2,28.9l1.7,32.7
							c0.1,1.1,0.8,2.1,1.9,2.5l37.8,10.9c1.1,0.3,2.3-0.1,3-1l18.9-26.8c15.7,0.8,31.3-1,46-5.2l24.3,22c0.9,0.8,2.1,0.9,3.1,0.4
							l34.4-19c1-0.6,1.5-1.7,1.4-2.8l-5.6-32.3c11.4-10.3,21.2-22.4,28.9-36.2l32.7-1.7c1.1-0.1,2.1-0.8,2.5-1.9l10.9-37.8
							c0.3-1.1-0.1-2.3-1-3l-26.8-18.9c0.8-15.7-1-31.3-5.2-46l22-24.3c0.8-0.9,0.9-2.1,0.4-3.1l-19-34.4c-0.6-1-1.7-1.5-2.8-1.4
							l-32.3,5.6c-10.3-11.4-22.4-21.2-36.2-28.9l-1.7-32.7c-0.1-1.1-0.8-2.1-1.9-2.5l-37.8-10.9c-1.1-0.3-2.3,0.1-3,1l-18.9,26.8
							c-15.7-0.8-31.3,1-46,5.2l-24.3-22c-0.9-0.8-2.1-0.9-3.1-0.4L580,866c-1,0.6-1.5,1.7-1.4,2.8l5.6,32.3
							c-11.4,10.3-21.2,22.4-28.9,36.2l-32.7,1.7c-1.1,0.1-2.1,0.8-2.4,1.9l-10.9,37.8c-0.3,1.1,0.1,2.3,1,3l26.8,18.9
							c-0.8,15.7,1,31.3,5.2,46l-22,24.3c-0.8,0.9-0.9,2.1-0.4,3.1L539,1108.4z"/>
					</g>
					<g>
						<path fill="#BDD0FB" d="M673.4,1047.3c-8.4-1.5-16.1-5.7-22.1-12.1c-7.3-7.9-11.2-18.1-10.8-28.8
							c0.7-22.2,19.4-39.6,41.6-38.9c22.2,0.8,39.6,19.4,38.9,41.6c-0.4,10.7-4.9,20.7-12.7,28.1c-7.9,7.3-18.1,11.2-28.8,10.8
							C677.3,1047.9,675.4,1047.6,673.4,1047.3z M686,978.6c-1.4-0.3-2.9-0.4-4.3-0.5c-16.3-0.5-30,12.3-30.6,28.6
							c-0.3,7.9,2.6,15.4,8,21.2c5.4,5.8,12.7,9.1,20.6,9.4l0,0c7.9,0.3,15.4-2.6,21.2-8c5.8-5.4,9.1-12.7,9.4-20.6
							C710.8,993.8,700.2,981.1,686,978.6z"/>
					</g>
					<path fill="#BDD0FB" d="M663.5,1105.9c-3.3-0.6-6.6-1.4-9.9-2.3c-6.6-1.9-12.9-4.4-19-7.6c-0.3-0.1-0.5-0.3-0.8-0.4
						c-2.1-1.1-3.1-3.4-2.7-5.6c0.1-0.5,0.3-1.1,0.6-1.6c1.4-2.6,4.6-3.5,7.2-2.2c5.6,3,11.5,5.4,17.7,7.2l0,0
						c0.3,0.1,0.7,0.2,1,0.3c14.5,4,29.5,4.3,43.9,1c7.8-1.8,15.4-4.7,22.6-8.5c0.1,0,0.1-0.1,0.2-0.1c0.2-0.1,0.4-0.2,0.5-0.3
						c20.9-11.6,36.1-30.6,42.8-53.6c0.9-3,1.6-6,2.1-9c3.7-20.2,0.3-40.9-9.8-59.2c-11.6-21-30.6-36.1-53.6-42.8
						c-23-6.6-47.2-3.9-68.2,7.7c-20.9,11.6-36.1,30.6-42.8,53.6c-0.8,2.9-1.5,5.9-2.1,8.9c-2.3,12.9-1.8,26.2,1.5,38.9
						c0.2,0.8,0.2,1.6,0.1,2.3c-0.4,2-1.8,3.6-3.9,4.2c-2.8,0.7-5.8-0.9-6.5-3.8c-3.8-14.2-4.3-29-1.7-43.5c0.6-3.3,1.4-6.6,2.3-9.9
						c7.4-25.7,24.4-47,47.9-60c23.4-12.9,50.5-16,76.2-8.6c25.7,7.4,47,24.4,60,47.9c11.3,20.4,15,43.6,10.9,66.2
						c-0.6,3.4-1.4,6.7-2.4,10C763.3,1084.8,713.5,1115,663.5,1105.9z"/>
				</g>
			</g>
		</g>
		<g>
			<path fill="#91B3FA" d="M2859.6,469.1c0.9-12.8-15.4-19.1-23.5-9.2c-82.5,101.1-273.9,396.3-155.9,852.2
				c148,572,55.1,800.3-78.5,949.7c0,0,199-88.3,300.7-320.9C3152,1369.9,2844.1,697,2859.6,469.1z"/>
			<path fill="#FFFFFF" d="M2812,660.2c-3.2,66.3-5.1,132.6-4.6,198.9c0.2,66.3,2.4,132.5,6.6,198.6c4.5,66.1,10.3,132,18.8,197.7
				c8.2,65.7,19.3,130.9,30.6,196.4c11,65.5,22.4,131.4,27.1,198.7c4.7,67.1,1.6,135.9-14.1,202.1c-3.9,16.5-8.2,33-13.3,49
				c-4.9,16.2-10.5,32.1-16.3,48c-11.9,31.7-25.9,62.6-42.2,92.3c-32.7,59.4-74.3,113.8-121.9,161.4c-5,5-13.1,5-18.1,0
				c-4.9-4.9-5-12.8-0.3-17.9l0,0c11.2-11.9,22.3-23.9,32.8-36.4c5.4-6.2,10.4-12.5,15.6-18.8c4.9-6.5,10.1-12.8,14.9-19.4
				c19.4-26.2,36.9-53.6,52.4-82.3c31.1-57.1,53.8-119.1,68.9-182.3c7.2-31.7,12-63.8,14.4-96.3c2.3-32.4,2.1-65.1,0.1-97.7
				c-4.1-65.4-14.8-130.7-25.3-196.3c-10.4-65.6-20.4-131.6-27.7-197.9c-3.7-33.1-6.9-66.3-9.4-99.6c-1.4-16.6-2.4-33.2-3.5-49.9
				c-0.9-16.6-1.7-33.3-2.4-49.9c-2.6-66.6-3.2-133.2-1.7-199.8c1.8-66.5,5.5-133,11.6-199.2c0.2-1.9,1.9-3.3,3.7-3.1
				C2810.7,656.8,2812.1,658.4,2812,660.2z"/>
		</g>
		<g>
			<g>
				<path fill="#BDD0FB" d="M2942.6,2134.4c9.3,20.9,37,25.5,52.8,8.9c87.2-91.5,310.5-372.5,255.4-805.4
					c-46.6-365.6-37.1-568.3-26.4-660c2.3-19.4-21.6-30.4-34.9-16.1C3042.4,819.2,2604.4,1376.2,2942.6,2134.4z"/>
				<path fill="#FFFFFF" d="M2973.5,2132.4c0.5,0.3,1,0.5,1.6,0.7c4.7,1.6,9.8-1,11.3-5.7c1.8-5.3,176.2-537.3,134.4-1048.6
					c-0.4-4.9-4.7-8.6-9.6-8.2c-4.9,0.4-8.6,4.7-8.2,9.6c41.5,507.5-131.8,1036.2-133.5,1041.5
					C2968.1,2125.9,2969.9,2130.3,2973.5,2132.4z"/>
			</g>
		</g>
		<g>
			<linearGradient id="SVGID_2_" gradientUnits="userSpaceOnUse" x1="1751.4938" y1="3020.426" x2="2553.6191" y2="1139.8149">
				<stop  offset="0" style="stop-color:#09005D"/>
				<stop  offset="1" style="stop-color:#1A0F91"/>
			</linearGradient>
			<polygon fill="url(#SVGID_2_)" points="1604.9,2438.7 1546.6,2840.9 2222.8,2840.9 2134.7,2438.7 			"/>
			<linearGradient id="SVGID_3_" gradientUnits="userSpaceOnUse" x1="1821.4406" y1="875.0643" x2="1814.7003" y2="2459.0977">
				<stop  offset="0" style="stop-color:#09005D"/>
				<stop  offset="1" style="stop-color:#1A0F91"/>
			</linearGradient>
			<path fill="url(#SVGID_3_)" d="M469.1,1151v1197c0,98.5,78.5,179,176.9,181.5c437.2,11.3,1966.4,38.6,2382.6,32.5
				c71.5-1.1,129.5-58.3,131.5-129.8c8-278.1,21.1-946.8-27.2-1257.3c-10.2-65.4-65.3-114.3-131.5-116.4
				c-366.3-11.7-1987.4-48.9-2403.4-39.6C526.4,1020.6,469.1,1079.2,469.1,1151z"/>
			<path fill="#91B3FA" d="M544.2,1145.2v1137.3c0,57.5,46.2,104.3,103.6,105.2l2320.9,28.7c57,0.9,103.7-45,103.9-102l3.9-1127.1
				c0.2-40.8-32.3-74.2-73.1-75.1l-2376.2-48C581.8,1063,544.2,1099.6,544.2,1145.2z"/>
			<linearGradient id="SVGID_4_" gradientUnits="userSpaceOnUse" x1="1873.6086" y1="2136.0391" x2="1873.6086" y2="2965.1257">
				<stop  offset="0" style="stop-color:#09005D"/>
				<stop  offset="1" style="stop-color:#1A0F91"/>
			</linearGradient>
			<path fill="url(#SVGID_4_)" d="M2368.4,2947.9h-989.6c-26.9,0-47.1-19.1-41.9-39.7l12.7-50.2c3.8-15.1,20.4-26.2,40.2-26.8
				l954-29.8c20.6-0.6,38.9,10.3,43.4,26l22.9,80C2416,2928.1,2395.7,2947.9,2368.4,2947.9z"/>
			<linearGradient id="SVGID_5_" gradientUnits="userSpaceOnUse" x1="1510.3918" y1="5678.2764" x2="1975.5305" y2="-1278.6348">
				<stop  offset="0" style="stop-color:#4042E2"/>
				<stop  offset="1" style="stop-color:#4F52FF"/>
			</linearGradient>
			<path fill="url(#SVGID_5_)" d="M3076.2,1285.5l0.3-101.2c0.2-40.8-32.3-74.4-73.1-75.4l-2378-48.1c-45.6-1.1-83.6,35.4-83.6,81
				v143.7H3076.2z"/>
			<path opacity="0.36" fill="#FFFFFF" d="M1312.5,2343.8H620c-8.1,0-14.6-6.5-14.6-14.6v-976.5c0-8.1,6.5-14.6,14.6-14.6h692.5
				c8.1,0,14.6,6.5,14.6,14.6v976.5C1327.1,2337.2,1320.6,2343.8,1312.5,2343.8z"/>
			<linearGradient id="SVGID_6_" gradientUnits="userSpaceOnUse" x1="1430.861" y1="1622.668" x2="2957.9668" y2="1622.668">
				<stop  offset="0" style="stop-color:#4042E2"/>
				<stop  offset="1" style="stop-color:#4F52FF"/>
			</linearGradient>
			<path fill="url(#SVGID_6_)" d="M2939.4,1904.1h-1490c-10.2,0-18.5-8.3-18.5-18.5v-525.8c0-10.2,8.3-18.5,18.5-18.5h1490
				c10.2,0,18.5,8.3,18.5,18.5v525.8C2958,1895.8,2949.7,1904.1,2939.4,1904.1z"/>
			<path opacity="0.57" fill="#FFFFFF" d="M1892.7,2347.1h-446.3c-8.6,0-15.6-7-15.6-15.6v-365.1c0-8.6,7-15.6,15.6-15.6h446.3
				c8.6,0,15.6,7,15.6,15.6v365.1C1908.3,2340.2,1901.3,2347.1,1892.7,2347.1z"/>
			<path opacity="0.57" fill="#FFFFFF" d="M2417.9,2347.1h-450.7c-7.4,0-13.4-6-13.4-13.4v-369.5c0-7.4,6-13.4,13.4-13.4h450.7
				c7.4,0,13.4,6,13.4,13.4v369.5C2431.3,2341.1,2425.3,2347.1,2417.9,2347.1z"/>
			<path opacity="0.57" fill="#FFFFFF" d="M2944.4,2347.1h-450.2c-7.5,0-13.6-6.1-13.6-13.6v-369c0-7.5,6.1-13.6,13.6-13.6h450.2
				c7.5,0,13.6,6.1,13.6,13.6v369C2958,2341,2951.9,2347.1,2944.4,2347.1z"/>
			
				<ellipse transform="matrix(0.2269 -0.9739 0.9739 0.2269 -640.2823 1577.8042)" fill="#91B3FA" cx="673.7" cy="1192.2" rx="29.2" ry="29.2"/>
			
				<ellipse transform="matrix(0.2269 -0.9739 0.9739 0.2269 -566.3147 1670.9868)" fill="#91B3FA" cx="769.4" cy="1192.2" rx="29.2" ry="29.2"/>
			
				<ellipse transform="matrix(0.7071 -0.7071 0.7071 0.7071 -590.309 959.2842)" fill="#91B3FA" cx="862.8" cy="1192.2" rx="29.2" ry="29.2"/>
			<rect x="677.1" y="1401.6" opacity="0.64" fill="#FFFFFF" width="575.2" height="274.7"/>
			<rect x="677.1" y="1711.1" opacity="0.64" fill="#FFFFFF" width="575.2" height="274.7"/>
			<rect x="677.1" y="2020.6" opacity="0.64" fill="#FFFFFF" width="575.2" height="274.7"/>
			<rect x="1430.9" y="1429.3" fill="#7D97F4" width="1527.1" height="125.8"/>
		</g>
		<g>
			
				<linearGradient id="SVGID_7_" gradientUnits="userSpaceOnUse" x1="12372.6953" y1="2730.3992" x2="12092.1445" y2="3075.2966" gradientTransform="matrix(0.9922 -0.1247 0.1247 0.9922 -10881.5 715.4178)">
				<stop  offset="0" style="stop-color:#FEBBBA"/>
				<stop  offset="1" style="stop-color:#FF928E"/>
			</linearGradient>
			<path fill="url(#SVGID_7_)" d="M1708.4,1979.3c-1.8-3.5-7-2.9-8,0.9c-3.9,14.1-13.4,38.6-33.2,47.3c-1,0.4-1.9,0.9-2.9,1.3
				c-0.9-2.7-0.9-5.8,1.2-9.1c6.2-9.4-5-22.3-5-22.3s-0.7,11.3-9.4,18.5c-7.4,6.1-11,19.8-5.9,31c10.7,41.7,26.8,96.8-35.8,137.1
				c-62.6,40.3-150.8-76-150.8-76l43.8,138.7c0,0,67.5,49.8,146.1-20.2c78.6-70.1,26.5-172.1,26.5-172.1
				S1735.1,2030.2,1708.4,1979.3z"/>
			
				<linearGradient id="SVGID_8_" gradientUnits="userSpaceOnUse" x1="-11806.4453" y1="4528.1973" x2="-11990.415" y2="4746.7969" gradientTransform="matrix(-0.9602 0.2794 0.2794 0.9602 -11519.9043 797.6744)">
				<stop  offset="0" style="stop-color:#09005D"/>
				<stop  offset="1" style="stop-color:#1A0F91"/>
			</linearGradient>
			<path fill="url(#SVGID_8_)" d="M1447.8,1904.2c0,0,18.1-81.4-75.1-59.8c0,0-45.2-7.4-47.5,35.3c0,0-29.2,19.2-7.8,56.2
				c0,0-86.7-33.5-124.4,42.5c-37.8,76-3.1,117.7,33.3,128.6c0,0-29.5,14.8-15.5,48.2c14,33.4,84.6,57,126.4,16.3
				c0,0,118.8,15.7,116.4-68.2c0,0,55.2-35.7-2.8-105C1392.8,1928.9,1447.8,1904.2,1447.8,1904.2z"/>
			
				<linearGradient id="SVGID_9_" gradientUnits="userSpaceOnUse" x1="-3777.4751" y1="-1043.7378" x2="-3821.2888" y2="-497.7542" gradientTransform="matrix(-1 0 0 1 -2616.9751 0)">
				<stop  offset="0" style="stop-color:#FF928E"/>
				<stop  offset="1" style="stop-color:#FE7062"/>
			</linearGradient>
			<path fill="url(#SVGID_9_)" d="M1453,2092.7c-18.7-5.6-73.3-16-125.1,31.9c-8.8,8.1-12.4,20.5-9.3,32
				c13.9,51.3,50.7,202.8,18.5,268.4c0,0,56.8,62.6,118.7,12.1c0,0,27.8-121.2,64.2-174.3c25.1-36.7-40.1-137.9-56.6-162.3
				C1460.9,2096.7,1457.2,2094,1453,2092.7z"/>
			
				<linearGradient id="SVGID_10_" gradientUnits="userSpaceOnUse" x1="-12072.8447" y1="4913.6055" x2="-12057.8564" y2="4807.1875" gradientTransform="matrix(-0.9602 0.2794 0.2794 0.9602 -11519.9043 797.6744)">
				<stop  offset="0" style="stop-color:#FEBBBA"/>
				<stop  offset="1" style="stop-color:#FF928E"/>
			</linearGradient>
			<path fill="url(#SVGID_10_)" d="M1401.2,1990.8c0,0-27.7,78.3-29.8,112.9c0,0,30.6,13.9,59.5-9.6c0,0,3-78.2,7.4-92.3
				L1401.2,1990.8z"/>
			
				<linearGradient id="SVGID_11_" gradientUnits="userSpaceOnUse" x1="-12141.5605" y1="4685.582" x2="-12001.415" y2="4846.7119" gradientTransform="matrix(-0.9602 0.2794 0.2794 0.9602 -11519.9043 797.6744)">
				<stop  offset="0" style="stop-color:#FEBBBA"/>
				<stop  offset="1" style="stop-color:#FF928E"/>
			</linearGradient>
			<path fill="url(#SVGID_11_)" d="M1439.7,1884c0,0,72.4,101.4,29.1,130.8c-43.3,29.4-94.9-42.6-94.9-42.6s-16.8-55.5,0.8-74.3
				C1392.3,1879.1,1439.7,1884,1439.7,1884z"/>
			
				<linearGradient id="SVGID_12_" gradientUnits="userSpaceOnUse" x1="-11894.5586" y1="4454.0464" x2="-12078.5312" y2="4672.6504" gradientTransform="matrix(-0.9602 0.2794 0.2794 0.9602 -11519.9043 797.6744)">
				<stop  offset="0" style="stop-color:#09005D"/>
				<stop  offset="1" style="stop-color:#1A0F91"/>
			</linearGradient>
			<path fill="url(#SVGID_12_)" d="M1406.2,1859.8c0,0,33.3,7.9,37.9,22.9c4.7,15.1-47.2,29-61.7,29.7l-11.7,60.8
				c0,0-34.6-57.2-20.9-90.2C1363.5,1850,1406.2,1859.8,1406.2,1859.8z"/>
			
				<linearGradient id="SVGID_13_" gradientUnits="userSpaceOnUse" x1="-12106.5469" y1="4655.1245" x2="-11966.4023" y2="4816.2539" gradientTransform="matrix(-0.9602 0.2794 0.2794 0.9602 -11519.9043 797.6744)">
				<stop  offset="0" style="stop-color:#FEBBBA"/>
				<stop  offset="1" style="stop-color:#FF928E"/>
			</linearGradient>
			<path fill="url(#SVGID_13_)" d="M1388,1964.8c0,0-28.2-32.7-39.4-11.4c-11.2,21.3,25.4,37.3,38,26.8L1388,1964.8z"/>
			
				<linearGradient id="SVGID_14_" gradientUnits="userSpaceOnUse" x1="11790.6201" y1="3417.9805" x2="12124.9756" y2="2827.771" gradientTransform="matrix(1 -9.500000e-03 9.500000e-03 1 -10625.3945 56.9446)">
				<stop  offset="0" style="stop-color:#FEBBBA"/>
				<stop  offset="1" style="stop-color:#FF928E"/>
			</linearGradient>
			<path fill="url(#SVGID_14_)" d="M1528.1,2691.5c-0.2,5.5,9.4,49.1,14.7,72.4c2.1,9.4,0.6,19.2-4.1,27.5l-182,306.3
				c-2.2,3.7-3.8,7.7-4.8,11.9c-3.3,14.4-10.3,49.6-6.6,81.7l9.4,19.6l-40.7-9.2l-8.9-109.4l11.5-7c10-6.1,17.7-15.1,22.2-25.9
				c16.5-40,57.3-141.7,67.9-191.3c12-56.4,74.6-102.1,74.6-102.1l-11-26L1528.1,2691.5z"/>
			
				<linearGradient id="SVGID_15_" gradientUnits="userSpaceOnUse" x1="11863.5068" y1="3209.3076" x2="11961.2402" y2="3209.3076" gradientTransform="matrix(1 -9.500000e-03 9.500000e-03 1 -10625.3945 56.9446)">
				<stop  offset="0" style="stop-color:#09005D"/>
				<stop  offset="1" style="stop-color:#1A0F91"/>
			</linearGradient>
			<path fill="url(#SVGID_15_)" d="M1268.7,3163.9c0,0,22-34.9,24.6-48.4c2.6-13.6,9.8-37.5,23.3-30.3c0,0,6.4,65.9,4.2,91.7
				c-2.2,25.8,29.1,24.9,29.1,24.9s8.6,1.2,15,7.5c4.4,4.4,1.2,11.9-4.9,12.3c-10.2,0.7-26.5,0.8-43.6-2.5
				c-6-1.2-10.4-6.2-10.8-12.3l-4.5-75.9l-27.7,35L1268.7,3163.9z"/>
			
				<linearGradient id="SVGID_16_" gradientUnits="userSpaceOnUse" x1="12169.5273" y1="2981.3584" x2="11669.4854" y2="3141.2556" gradientTransform="matrix(1 -9.500000e-03 9.500000e-03 1 -10625.3945 56.9446)">
				<stop  offset="0" style="stop-color:#FEBBBA"/>
				<stop  offset="1" style="stop-color:#FF928E"/>
			</linearGradient>
			<path fill="url(#SVGID_16_)" d="M1419.4,2740.3c0,0-6.4,274-7.3,312.9c-0.9,38.9,6.1,125.2,45.2,150.9l-17,12.6
				c0,0-21.2-18-41.9-52.7c-23.3-39-30.3-46.1-30.3-46.1l7.7-15.8c3.4-6.9,4.4-14.8,2.8-22.3c-8.4-40.8-36.5-176.5-44.2-205.7
				c-9.1-34.5-9.7-80.6,21.8-119.1C1387.7,2716.3,1419.4,2740.3,1419.4,2740.3z"/>
			
				<linearGradient id="SVGID_17_" gradientUnits="userSpaceOnUse" x1="11954.1191" y1="3226.9595" x2="12070.626" y2="3226.9595" gradientTransform="matrix(1 -9.500000e-03 9.500000e-03 1 -10625.3945 56.9446)">
				<stop  offset="0" style="stop-color:#09005D"/>
				<stop  offset="1" style="stop-color:#1A0F91"/>
			</linearGradient>
			<path fill="url(#SVGID_17_)" d="M1383.4,3229c-1.2,0-2.2-0.9-2.4-2.1c-1.3-9.1-6.7-45.8-11.1-55.2c-5.1-10.9-21.6-56.6,0-60.5
				c0,0,53.8,78.5,64.1,89.1c10.3,10.6,23.3,3.7,23.3,3.7s10.1,3,17.6,12.7c3.6,4.6,0.2,11.4-5.6,11.4l-36.2,0.3
				c-10.5,0.1-20-6.3-23.9-16.1c-6.4-15.9-17.3-39.3-30.1-49.6l6.6,63.5C1385.9,3227.8,1384.8,3229,1383.4,3229z"/>
			
				<linearGradient id="SVGID_18_" gradientUnits="userSpaceOnUse" x1="-4175.8013" y1="2973.2378" x2="-3749.1094" y2="1975.3308" gradientTransform="matrix(-1 0 0 1 -2616.9751 0)">
				<stop  offset="0" style="stop-color:#E1473D"/>
				<stop  offset="1" style="stop-color:#E9605A"/>
			</linearGradient>
			<path fill="url(#SVGID_18_)" d="M1464.4,2407.6c0,0-8.2,26,4.4,68.8l77.8,271.5c1.2,4.3-1.1,8.7-5.3,10.2
				c-23.3,8.3-99.7,31.9-204.1,24.7c-5.3-0.4-9.7-4.1-10.8-9.2c-6.9-31-30.3-136.6-35.2-158.3c-18.4-82.7-39-171.9,51.5-225.8
				C1384.3,2407.5,1423.2,2418,1464.4,2407.6z"/>
			
				<linearGradient id="SVGID_19_" gradientUnits="userSpaceOnUse" x1="11800.1914" y1="3228.6934" x2="12354.8486" y2="2594.2473" gradientTransform="matrix(0.9922 -0.1247 0.1247 0.9922 -10881.5 715.4178)">
				<stop  offset="0" style="stop-color:#FEBBBA"/>
				<stop  offset="1" style="stop-color:#FF928E"/>
			</linearGradient>
			<path fill="url(#SVGID_19_)" d="M1320.4,2134.8c0,0-88.5,73.5-110.4,174c-22,100.5,129.3,111.2,129.3,111.2s20.5-22.9,44.9-14.8
				s1.9-40-26.6-39.9c-28.5,0.1-15.3,22.7-55.7,4.4c-39.3-17.8-63.6-72.9,36.7-156.3c5.8-4.8,10.5-11,13.2-18
				C1371.3,2146.4,1355.8,2114.2,1320.4,2134.8z"/>
		</g>
		<g>
			
				<linearGradient id="SVGID_20_" gradientUnits="userSpaceOnUse" x1="-101.5595" y1="3126.0596" x2="-580.9744" y2="3647.5291" gradientTransform="matrix(-1 9.500000e-03 9.500000e-03 1 2356.9758 -63.4747)">
				<stop  offset="0" style="stop-color:#09005D"/>
				<stop  offset="1" style="stop-color:#1A0F91"/>
			</linearGradient>
			<path fill="url(#SVGID_20_)" d="M2640.1,3099c0,0,5.2,28.1,7.9,55.9c1.1,10.9-7.2,20.4-18.1,20.9c-37,1.9-116.3,5.7-144.7,4.7
				c-4.3-0.2-7.1-4.5-5.6-8.5l0,0c1.3-3.3,3.8-6.1,7.1-7.6l130.3-61.4L2640.1,3099z"/>
			
				<linearGradient id="SVGID_21_" gradientUnits="userSpaceOnUse" x1="-257.1703" y1="3164.7852" x2="-214.5861" y2="3164.7852" gradientTransform="matrix(-1 9.500000e-03 9.500000e-03 1 2356.9758 -63.4747)">
				<stop  offset="0" style="stop-color:#FEBBBA"/>
				<stop  offset="1" style="stop-color:#FF928E"/>
			</linearGradient>
			<path fill="url(#SVGID_21_)" d="M2644.1,3082.5l-3.7,33.7c0,0-22.8,10.9-38.6-1l9.1-37.6L2644.1,3082.5z"/>
			
				<linearGradient id="SVGID_22_" gradientUnits="userSpaceOnUse" x1="-63.7845" y1="2536.2942" x2="-471.7482" y2="3089.2366" gradientTransform="matrix(-1 9.500000e-03 9.500000e-03 1 2356.9758 -63.4747)">
				<stop  offset="0" style="stop-color:#E1473D"/>
				<stop  offset="1" style="stop-color:#E9605A"/>
			</linearGradient>
			<path fill="url(#SVGID_22_)" d="M2635,2450.4c1.8,8.8,13.4,438.1-30.6,630.9c-0.7,3.1,0.9,6.4,3.9,7.6c7.1,2.8,20.9,6.8,37.5,7.2
				c5.1,0.1,9.7-3.2,11.1-8.2c12.7-44.8,73.4-269,79.6-482.8c6.9-238.8-0.1-8.1-0.1-8.1l-6.8-147.5L2635,2450.4z"/>
			
				<linearGradient id="SVGID_23_" gradientUnits="userSpaceOnUse" x1="-209.1084" y1="3027.167" x2="-688.543" y2="3548.658" gradientTransform="matrix(-1 9.500000e-03 9.500000e-03 1 2356.9758 -63.4747)">
				<stop  offset="0" style="stop-color:#09005D"/>
				<stop  offset="1" style="stop-color:#1A0F91"/>
			</linearGradient>
			<path fill="url(#SVGID_23_)" d="M2790.9,3112.2c0,0,8,14.1,16.1,51.7c1.4,6.8-3.2,13.4-10.2,14.1c-12.2,1.3-31,3-46.1,3.1
				c-7,0-12.4-6-11.7-12.9c1.5-13.8,6.5-36.4,22.4-54.2L2790.9,3112.2z"/>
			
				<linearGradient id="SVGID_24_" gradientUnits="userSpaceOnUse" x1="-410.6479" y1="3162.5952" x2="-373.8813" y2="3162.5952" gradientTransform="matrix(-1 9.500000e-03 9.500000e-03 1 2356.9758 -63.4747)">
				<stop  offset="0" style="stop-color:#FEBBBA"/>
				<stop  offset="1" style="stop-color:#FF928E"/>
			</linearGradient>
			<path fill="url(#SVGID_24_)" d="M2797.4,3068.9l-8.8,50.9c0,0-9.2,6.9-27.4,2.1l3.9-54.7L2797.4,3068.9z"/>
			
				<linearGradient id="SVGID_25_" gradientUnits="userSpaceOnUse" x1="-136.4945" y1="2482.6492" x2="-544.4539" y2="3035.5857" gradientTransform="matrix(-1 9.500000e-03 9.500000e-03 1 2356.9758 -63.4747)">
				<stop  offset="0" style="stop-color:#E1473D"/>
				<stop  offset="1" style="stop-color:#E9605A"/>
			</linearGradient>
			<path fill="url(#SVGID_25_)" d="M2816.8,2461.8c39.7,226.2-2.8,560-17.6,625.4c-0.9,4-4.1,7.1-8.1,7.8
				c-6.9,1.2-18.2,2.2-29.4-0.9c-3.9-1.1-6.6-4.5-6.8-8.5c-2.6-52.7-1.9-376.6-38.1-504.3c-1.8-6.5-5.8-12.1-11.4-15.9l-68.3-47.6
				l-5.9-78L2816.8,2461.8z"/>
			<g>
				
					<linearGradient id="SVGID_26_" gradientUnits="userSpaceOnUse" x1="-4971.5444" y1="-1139.5601" x2="-5015.3584" y2="-593.5756" gradientTransform="matrix(-1 0 0 1 -2616.9751 0)">
					<stop  offset="0" style="stop-color:#FF928E"/>
					<stop  offset="1" style="stop-color:#FE7062"/>
				</linearGradient>
				<path fill="url(#SVGID_26_)" d="M2573.5,2034.9c112.5-2.9,236.9,27.3,236.9,27.3c35.4,195.3,9.9,421.3,9.9,421.3
					c-86.9,23.7-185.5-12.2-185.5-12.2c-15.3-81.6-85-311.1-85-311.1c-55-6.3-100.5-21.7-137.9-42.3c28.1-33.2,41.1-75.3,46.7-100.2
					C2498.5,2029.6,2538.8,2035.8,2573.5,2034.9z"/>
				
					<linearGradient id="SVGID_27_" gradientUnits="userSpaceOnUse" x1="-81.887" y1="2053.7891" x2="135.6808" y2="2053.7891" gradientTransform="matrix(-1 9.500000e-03 9.500000e-03 1 2356.9758 -63.4747)">
					<stop  offset="0" style="stop-color:#FEBBBA"/>
					<stop  offset="1" style="stop-color:#FF928E"/>
				</linearGradient>
				<path fill="url(#SVGID_27_)" d="M2239.7,1872.4c10.9-13.5,25-7.3,25-7.3c17.2,69.8,104.6,125.6,194,152.5
					c-5.6,24.9-18.6,66.9-46.7,100.2C2263.1,2036,2239.7,1872.4,2239.7,1872.4z"/>
			</g>
			<g>
				
					<linearGradient id="SVGID_28_" gradientUnits="userSpaceOnUse" x1="10359.5186" y1="2016.3925" x2="10505.5088" y2="2348.553" gradientTransform="matrix(1 -9.500000e-03 9.500000e-03 1 -8089.75 36.7017)">
					<stop  offset="0" style="stop-color:#FEBBBA"/>
					<stop  offset="1" style="stop-color:#FF928E"/>
				</linearGradient>
				<path fill="url(#SVGID_28_)" d="M2242.4,1875.7c-1.1,3.7,12.3,9.2,20.1-6c0.2-7.2,4.3-38.1-0.1-43.9
					c-23.2-31-68.1-69.8-68.1-69.8c-7.4,7.5-1.2,14.7-1.2,14.7l21.8,22.3c-4.4,8.2-9.9,15.1-12.4,25c-1.9,7.5-0.6,15.5,3.2,22.2
					c3.9,6.8,9.1,15.6,14,22.5C2229.2,1875.8,2242.4,1875.7,2242.4,1875.7z"/>
				
					<linearGradient id="SVGID_29_" gradientUnits="userSpaceOnUse" x1="134.6379" y1="1906.7035" x2="195.5544" y2="1813.0442" gradientTransform="matrix(-1 9.500000e-03 9.500000e-03 1 2356.9758 -63.4747)">
					<stop  offset="0" style="stop-color:#FEBBBA"/>
					<stop  offset="1" style="stop-color:#FF928E"/>
				</linearGradient>
				<path fill="url(#SVGID_29_)" d="M2224.5,1807.5l19.8,16.5l6.3,16.5l-17.3,19.6c0,0-6.2-32.9-10.7-39.9
					C2218.2,1813.1,2220.4,1809.6,2224.5,1807.5z"/>
			</g>
			
				<linearGradient id="SVGID_30_" gradientUnits="userSpaceOnUse" x1="-5199.061" y1="-1157.8193" x2="-5242.875" y2="-611.8361" gradientTransform="matrix(-1 0 0 1 -2616.9751 0)">
				<stop  offset="0" style="stop-color:#FF928E"/>
				<stop  offset="1" style="stop-color:#FE7062"/>
			</linearGradient>
			<path fill="url(#SVGID_30_)" d="M2768.3,2171.5l42.1-109.3c0,0,105.8,70.4,123.9,160.7c-19.8,1.7-55.9,7.2-91.1,25.4
				C2835,2205.6,2768.3,2171.5,2768.3,2171.5z"/>
			
				<linearGradient id="SVGID_31_" gradientUnits="userSpaceOnUse" x1="-557.9689" y1="2361.9385" x2="-282.6436" y2="2361.9385" gradientTransform="matrix(-1 9.500000e-03 9.500000e-03 1 2356.9758 -63.4747)">
				<stop  offset="0" style="stop-color:#FEBBBA"/>
				<stop  offset="1" style="stop-color:#FF928E"/>
			</linearGradient>
			<path fill="url(#SVGID_31_)" d="M2677.5,2274.9c0,0,118.6,65.5,157.9,8.2c8.2-11.9,10-23.7,7.9-34.8
				c35.2-18.2,71.3-23.7,91.1-25.4c5.5,27.2,3,56.3-12.8,85.8c-68.5,128.2-259.4-4.6-259.4-4.6L2677.5,2274.9z"/>
			
				<linearGradient id="SVGID_32_" gradientUnits="userSpaceOnUse" x1="-346.5476" y1="2067.6042" x2="-237.6885" y2="2067.6042" gradientTransform="matrix(-1 9.500000e-03 9.500000e-03 1 2356.9758 -63.4747)">
				<stop  offset="0" style="stop-color:#FEBBBA"/>
				<stop  offset="1" style="stop-color:#FF928E"/>
			</linearGradient>
			<path fill="url(#SVGID_32_)" d="M2686.6,1942.5l36.8,103.2c0.6,1.7-0.1,3.6-1.7,4.5c-9.7,5.5-44.7,21.4-87.3-5
				c-4.4-2.8-7.5-7.3-8.2-12.5l-12.4-89.5L2686.6,1942.5z"/>
			<g>
				
					<linearGradient id="SVGID_33_" gradientUnits="userSpaceOnUse" x1="-5848.0107" y1="-1464.3683" x2="-5888.6895" y2="-1598.5374" gradientTransform="matrix(-0.7523 -0.6588 -0.6588 0.7523 -2776.4272 -818.1582)">
					<stop  offset="0" style="stop-color:#FEBBBA"/>
					<stop  offset="1" style="stop-color:#FF928E"/>
				</linearGradient>
				<path fill="url(#SVGID_33_)" d="M2607.8,1847.4c0,0-38.6,74.4-33.3,104.2c5.3,29.8,54,27.2,96.3,2.5l29-80.2L2607.8,1847.4z"/>
				
					<linearGradient id="SVGID_34_" gradientUnits="userSpaceOnUse" x1="-5884.7085" y1="-1698.1382" x2="-5850.6812" y2="-1504.0564" gradientTransform="matrix(-0.7523 -0.6588 -0.6588 0.7523 -2776.4272 -818.1582)">
					<stop  offset="0" style="stop-color:#09005D"/>
					<stop  offset="1" style="stop-color:#1A0F91"/>
				</linearGradient>
				<path fill="url(#SVGID_34_)" d="M2668.6,1914.9c-1.7-0.7-2.4-2.9-1.4-4.5c3.1-4.8,8.9-14.7,10.7-23.3c0,0,7-4.6-18.1-10.3
					c-25.1-5.8-62.6-14.7-70.6-36c-7.9-20.7,11.8-73.2,44.2-31.8c1.2,1.6,3.6,1.6,4.8,0c5.2-6.9,18.9-21.2,38.2-12.8
					c18,7.9,20.2,21,20,27.7c-0.1,2,1.7,3.5,3.6,3.1c9.1-1.8,30.9-3.5,41.2,18.8c8.6,18.3,3.2,28.8-1.7,34c-1.6,1.7-0.9,4.4,1.3,5
					c6,1.8,13.7,6.8,13.1,20.8c-0.9,19.3-22.5,17.9-28.7,17c-1-0.1-2,0.2-2.7,1c-5.2,5.9-28.8,30.9-54.5,34.2c-2.2,0.3-4-1.9-3.3-4
					l10.8-32.5c0.5-1.5-0.2-3.2-1.7-3.8L2668.6,1914.9z"/>
				
					<linearGradient id="SVGID_35_" gradientUnits="userSpaceOnUse" x1="-5889.5938" y1="-1464.9945" x2="-5926.1934" y2="-1585.7089" gradientTransform="matrix(-0.7523 -0.6588 -0.6588 0.7523 -2776.4272 -818.1582)">
					<stop  offset="0" style="stop-color:#FEBBBA"/>
					<stop  offset="1" style="stop-color:#FF928E"/>
				</linearGradient>
				<path fill="url(#SVGID_35_)" d="M2664.2,1919.5c0,0,27.8-19.5,30-3.3c2.2,16.1-25,23.7-38.5,17.8L2664.2,1919.5z"/>
			</g>
			<g>
				<g>
					
						<linearGradient id="SVGID_36_" gradientUnits="userSpaceOnUse" x1="-499.5438" y1="2118.2207" x2="-347.6198" y2="2751.239" gradientTransform="matrix(-1 0 0 1 2088.687 0)">
						<stop  offset="0" style="stop-color:#09005D"/>
						<stop  offset="1" style="stop-color:#1A0F91"/>
					</linearGradient>
					<path fill="url(#SVGID_36_)" d="M2701.7,2378.5l-64.6-225.6c-0.7-2.6-2.9-4.4-5.6-4.7c-11.7-1.4-45.6-5.2-84.8-8.5
						c-47.2-4-102-7.2-134.7-4.5c-4.7,0.4-7.5,5.3-5.4,9.5c18.6,37.7,95.2,190.9,133.5,241.1c1.3,1.7,3.2,2.6,5.3,2.6l149.9-1.4
						C2699.8,2386.8,2702.9,2382.6,2701.7,2378.5z"/>
					
						<linearGradient id="SVGID_37_" gradientUnits="userSpaceOnUse" x1="-603.6467" y1="2285.6877" x2="-517.5699" y2="2285.6877" gradientTransform="matrix(-1 0 0 1 2088.687 0)">
						<stop  offset="0" style="stop-color:#FEBBBA"/>
						<stop  offset="1" style="stop-color:#FF928E"/>
					</linearGradient>
					<path fill="url(#SVGID_37_)" d="M2686.1,2323.9c0,0,9-37,5.4-50.1c-3.6-13.1-10.7-30-34.1-26.3c-23.4,3.8-51.1,13.6-51.1,13.6
						s1.4,17.1,19.2,11.6l-11.1,8.6c0,0,1.6,13.7,16.6,6.4l-10.3,11.3c0,0,6.5,11.2,17.5,4
						C2649.4,2295.8,2654.7,2328.4,2686.1,2323.9z"/>
				</g>
				<path fill="#7D97F4" d="M2551.1,2206.9c0,10.5-8.5,19-19,19c-10.5,0-19-8.5-19-19c0-10.5,8.5-19,19-19
					C2542.6,2188,2551.1,2196.5,2551.1,2206.9z"/>
				<path fill="#91B3FA" d="M2629.8,2219.4l4.8-1.4l-13.2-44.6c-2.1-7.3-8-12.7-15.3-14.2c-41.7-8.7-151.5-10.5-156.2-10.6l-0.1,5
					c1.1,0,114,1.8,155.2,10.4c5.5,1.1,9.9,5.3,11.5,10.7L2629.8,2219.4z"/>
			</g>
		</g>
		<g>
			
				<linearGradient id="SVGID_38_" gradientUnits="userSpaceOnUse" x1="1924.6666" y1="2238.7327" x2="1833.6818" y2="2375.2097" gradientTransform="matrix(1 0 0 1 -772.8065 0)">
				<stop  offset="0" style="stop-color:#FEBBBA"/>
				<stop  offset="1" style="stop-color:#FF928E"/>
			</linearGradient>
			<path fill="url(#SVGID_38_)" d="M1024.8,2458.2l100.5,1.2l-35.2-33.1c-8.7-8.2-22.1-9.6-32.2-3c-5.9,3.8-12.3,9-17.9,15.9
				c0,0-62.7-22.9-93.1-74.2c-9.5,14.1-20.5,33.2-30.1,57C944.2,2438.1,979.5,2450.6,1024.8,2458.2z"/>
			
				<linearGradient id="SVGID_39_" gradientUnits="userSpaceOnUse" x1="1776.5706" y1="3182.5293" x2="1932.7687" y2="3182.5293" gradientTransform="matrix(1 0 0 1 -772.8065 0)">
				<stop  offset="0" style="stop-color:#4042E2"/>
				<stop  offset="1" style="stop-color:#4F52FF"/>
			</linearGradient>
			<path fill="url(#SVGID_39_)" d="M1155.6,3175c-26.8,2.3-73.2,6.1-109.8,7.7c-22,1-34.7-1.2-42-4.1c0,0.8,0,1.6,0.1,2.3
				c0.2,3.9,3.3,6.9,7.2,7.2c69.2,3.9,124.2,1.3,143.8,0.1c4.1-0.2,6.5-4.6,4.4-8.1C1158.2,3178.3,1156.9,3176.6,1155.6,3175z"/>
			
				<linearGradient id="SVGID_40_" gradientUnits="userSpaceOnUse" x1="1811.5476" y1="3525.8352" x2="1850.3059" y2="3192.1787" gradientTransform="matrix(1 0 0 1 -772.8065 0)">
				<stop  offset="0" style="stop-color:#09005D"/>
				<stop  offset="1" style="stop-color:#1A0F91"/>
			</linearGradient>
			<path fill="url(#SVGID_40_)" d="M1045.7,3182.7c36.6-1.6,83.1-5.4,109.8-7.7c-26.3-32.3-109.8-54-109.8-54h-23.6
				c-16.2,23.4-18.6,45.6-18.4,57.6C1011.1,3181.5,1023.7,3183.6,1045.7,3182.7z"/>
			
				<linearGradient id="SVGID_41_" gradientUnits="userSpaceOnUse" x1="1790.9915" y1="3109.1765" x2="1834.9893" y2="3109.1765" gradientTransform="matrix(1 0 0 1 -772.8065 0)">
				<stop  offset="0" style="stop-color:#FEBBBA"/>
				<stop  offset="1" style="stop-color:#FF928E"/>
			</linearGradient>
			<path fill="url(#SVGID_41_)" d="M1018.2,3082.4l2.2,43.7c0.2,4.7,3.8,8.7,8.5,9.4c4.7,0.7,11,0.8,17.7-1.5
				c4.1-1.4,7.2-4.8,7.9-9.1l7.6-42.5H1018.2z"/>
			<g>
				
					<linearGradient id="SVGID_42_" gradientUnits="userSpaceOnUse" x1="1497.7777" y1="3208.8284" x2="1557.6356" y2="3208.8284" gradientTransform="matrix(1 0 0 1 -772.8065 0)">
					<stop  offset="0" style="stop-color:#4042E2"/>
					<stop  offset="1" style="stop-color:#4F52FF"/>
				</linearGradient>
				<path fill="url(#SVGID_42_)" d="M744.5,3212.5c-11.6-1.9-16.9-8.9-19.1-16.4c0,0.1,0,0.1,0,0.2c-1.7,7.9,2.3,16.1,10.2,20
					c9.6,4.7,20,5.5,28.1,5.1c8.7-0.4,16.7-4.6,21.1-11.3l0.1-0.1C776.1,3215.1,763.8,3215.7,744.5,3212.5z"/>
				
					<linearGradient id="SVGID_43_" gradientUnits="userSpaceOnUse" x1="1503.7805" y1="3490.0845" x2="1542.5387" y2="3156.4282" gradientTransform="matrix(1 0 0 1 -772.8065 0)">
					<stop  offset="0" style="stop-color:#09005D"/>
					<stop  offset="1" style="stop-color:#1A0F91"/>
				</linearGradient>
				<path fill="url(#SVGID_43_)" d="M799.2,3095.9h-19.4c-29.6-0.7-48.2,72-54.3,100.2c2.2,7.5,7.5,14.5,19.1,16.4
					c19.4,3.1,31.6,2.5,40.4-2.5c16-24.5,23.9-60.4,27.8-81.4C816.9,3104.8,799.2,3095.9,799.2,3095.9z"/>
			</g>
			
				<linearGradient id="SVGID_44_" gradientUnits="userSpaceOnUse" x1="1543.881" y1="3086.2336" x2="1596.463" y2="3086.2336" gradientTransform="matrix(1 0 0 1 -772.8065 0)">
				<stop  offset="0" style="stop-color:#FEBBBA"/>
				<stop  offset="1" style="stop-color:#FF928E"/>
			</linearGradient>
			<path fill="url(#SVGID_44_)" d="M782.2,3055.4l-10.8,43c-1.3,5.3,1.2,10.7,6.1,13.2c6,3.1,14.5,6.4,22.4,5.4
				c3.7-0.4,6.7-3,7.9-6.5l15.9-45.2L782.2,3055.4z"/>
			<linearGradient id="SVGID_45_" gradientUnits="userSpaceOnUse" x1="985.6292" y1="2508.3928" x2="956.9822" y2="2944.8433">
				<stop  offset="0" style="stop-color:#09005D"/>
				<stop  offset="1" style="stop-color:#1A0F91"/>
			</linearGradient>
			<path fill="url(#SVGID_45_)" d="M1162.1,2489.6c0,0-96.5,603.3-94.9,606.6c0,0-26.7,12.1-55.7,1.5c0,0,8.7-322.5,29.2-446.2
				c0,0-164.7,288.3-217,431.9c0,0-27.3-3.3-49.9-18.1c0,0,177.4-518.8,224.7-587.9L1162.1,2489.6z"/>
			
				<linearGradient id="SVGID_46_" gradientUnits="userSpaceOnUse" x1="-3132.3623" y1="1534.0046" x2="-3510.8796" y2="2263.5093" gradientTransform="matrix(-1 0 0 1 -2616.9751 0)">
				<stop  offset="0" style="stop-color:#4042E2"/>
				<stop  offset="1" style="stop-color:#4F52FF"/>
			</linearGradient>
			<path opacity="0.54" fill="url(#SVGID_46_)" d="M1044.5,2650.3c-0.8,0-1.7-0.2-2.5-0.7c-2.2-1.4-2.8-4.2-1.5-6.4l36.1-57.6
				c0.7-1.1,1.8-1.8,3-2.1l26.5-5.3c2.5-0.5,5,1.1,5.5,3.7c0.5,2.5-1.1,5-3.7,5.5l-24.6,4.9l-35,55.9
				C1047.6,2649.5,1046.1,2650.3,1044.5,2650.3z"/>
			<linearGradient id="SVGID_47_" gradientUnits="userSpaceOnUse" x1="1556.9015" y1="1642.557" x2="1248.5361" y2="2026.7504">
				<stop  offset="0" style="stop-color:#FF928E"/>
				<stop  offset="1" style="stop-color:#FE7062"/>
			</linearGradient>
			<path fill="url(#SVGID_47_)" d="M1172,2099.8c-16.2-34-156.4-37.6-259.1-3.7c-21.6,7.1-39.1,23.1-48.1,43.8
				c-27.8,63.7-72.7,208.9,52.1,282.2c9.6-23.8,20.7-43,30.1-57c-20.1-33.9-26.1-80.2,9.6-140.5c26,70.2,38.2,172.7,40.8,218.1
				c0.8,14.9-1.8,29.8-7.6,43.6l-0.6,1.5c-1.3,2.9,0.5,6.3,3.6,7c70.3,15.8,143.4,11.5,165.2,9.7c3.9-0.3,7.1-3.1,8-6.9
				C1200.2,2353.6,1196.5,2151,1172,2099.8z"/>
			
				<linearGradient id="SVGID_48_" gradientUnits="userSpaceOnUse" x1="1802.928" y1="2153.7607" x2="1825.7112" y2="2034.1489" gradientTransform="matrix(1 0 0 1 -772.8065 0)">
				<stop  offset="0" style="stop-color:#FEBBBA"/>
				<stop  offset="1" style="stop-color:#FF928E"/>
			</linearGradient>
			<path fill="url(#SVGID_48_)" d="M1018.6,1984.5c0,0-7.1,75.2-13.4,97.4c-0.9,3.4,0.5,6.9,3.6,8.7c10.6,6.1,36.1,16,71-1.1
				c5.6-2.8,9-8.7,8.8-14.9l-3.1-72.6L1018.6,1984.5z"/>
			<g>
				
					<linearGradient id="SVGID_49_" gradientUnits="userSpaceOnUse" x1="1864.576" y1="1934.3105" x2="1734.5837" y2="2033.7744" gradientTransform="matrix(1 0 0 1 -772.8065 0)">
					<stop  offset="0" style="stop-color:#FEBBBA"/>
					<stop  offset="1" style="stop-color:#FF928E"/>
				</linearGradient>
				<path fill="url(#SVGID_49_)" d="M1087,1888.3c0,0,22.7,52.2,24.3,79.7c1.5,27.4,7.4,45.2-24.3,50.7
					c-31.7,5.5-58.4-10.3-72.9-37.6c0,0-22.7-42.1-17.6-59.3C1001.6,1904.6,1087,1888.3,1087,1888.3z"/>
				
					<linearGradient id="SVGID_50_" gradientUnits="userSpaceOnUse" x1="1773.0673" y1="1855.5568" x2="1894.1348" y2="2011.431" gradientTransform="matrix(1 0 0 1 -772.8065 0)">
					<stop  offset="0" style="stop-color:#09005D"/>
					<stop  offset="1" style="stop-color:#1A0F91"/>
				</linearGradient>
				<path fill="url(#SVGID_50_)" d="M1025,1961.5l1.8-0.8c2.3-1,3.3-3.7,2.1-6c-4.5-8.6-13.2-28.4-1.9-33c14.5-6,72-17.7,84.4-38.1
					c11.9-19.6,1.4-44.9-14.5-52.1c-1.1-0.5-2.3-0.1-2.9,0.9l-1.3,2.5c-0.9,1.7-3.4,1.5-4-0.4l0,0c-0.5-1.8-2.9-2.1-3.9-0.6
					c-3.8,6.1-14.1,16-41.6,21.1c-39.1,7.2-65,23-65.6,50.1c0,1.7-1.9,2.7-3.3,1.8c-2.9-1.8-7.5-2.6-13.7,2.6
					c-10.7,9-6.3,32.5,17.2,51.7c1.1,0.9,1.1,2.7-0.1,3.5c-4.3,2.8-10.6,9.4,5.9,18.2c17.1,9.1,29.8,8.4,34.7,7.6
					c1.2-0.2,2-1.4,1.7-2.6l-5.2-23.8c-0.3-1.3,0.7-2.6,2.1-2.6H1025z"/>
				
					<linearGradient id="SVGID_51_" gradientUnits="userSpaceOnUse" x1="1848.452" y1="1913.2378" x2="1718.4602" y2="2012.7013" gradientTransform="matrix(1 0 0 1 -772.8065 0)">
					<stop  offset="0" style="stop-color:#FEBBBA"/>
					<stop  offset="1" style="stop-color:#FF928E"/>
				</linearGradient>
				<path fill="url(#SVGID_51_)" d="M1025.9,1966.5c0,0-8.7-33.4-23.6-24c-15,9.4,7.8,37.4,19.8,38.6L1025.9,1966.5z"/>
			</g>
			
				<linearGradient id="SVGID_52_" gradientUnits="userSpaceOnUse" x1="1816.24" y1="2391.5217" x2="1756.2657" y2="2481.4832" gradientTransform="matrix(1 0 0 1 -772.8065 0)">
				<stop  offset="0" style="stop-color:#FEBBBA"/>
				<stop  offset="1" style="stop-color:#FF928E"/>
			</linearGradient>
			<path fill="url(#SVGID_52_)" d="M982.7,2417.7c0,0,8.6-14.3,28.5-14.3s42.8,37.1,42.8,37.1s-31.4,14.3-42.8,25.7
				C999.8,2477.6,982.7,2440.5,982.7,2417.7z"/>
		</g>
	</g>
	<g>
	</g>
	<g>
	</g>
	<g>
	</g>
	<g>
	</g>
	<g>
	</g>
	<g>
	</g>
	<g>
	</g>
	<g>
	</g>
	<g>
	</g>
	<g>
	</g>
	<g>
	</g>
	<g>
	</g>
	<g>
	</g>
	<g>
	</g>
	<g>
	</g>
</g>
</svg>
