<?xml version="1.0" encoding="utf-8"?>
<!-- Generator: Adobe Illustrator 25.2.1, SVG Export Plug-In . SVG Version: 6.00 Build 0)  -->
<svg version="1.1" xmlns="http://www.w3.org/2000/svg" xmlns:xlink="http://www.w3.org/1999/xlink" x="0px" y="0px"
	 viewBox="0 0 3710 3710" enable-background="new 0 0 3710 3710" xml:space="preserve">
<g id="Background">
</g>
<g id="Illustration">
	<g>
		<linearGradient id="SVGID_1_" gradientUnits="userSpaceOnUse" x1="3587.6313" y1="4012.6267" x2="1143.4146" y2="977.0626">
			<stop  offset="0" style="stop-color:#DAE3FE"/>
			<stop  offset="1" style="stop-color:#E9EFFD"/>
		</linearGradient>
		<path fill="url(#SVGID_1_)" d="M2915.2,2815.5c-56.1,59.1-109.3,97.2-151.2,127.3c-493.4,354-1077.1,250.8-1201.2,225.6
			c-183.2-37.2-537.3-109.1-793.4-410.2C382,2302.7,442.4,1585,742.8,1111.3c55-86.7,345.3-567.6,935.3-644.7
			c357.1-46.7,773.4,47.5,1074.8,300C3385.7,1296.7,3340.7,2367.6,2915.2,2815.5z"/>
		<g opacity="0.9">
			<path fill="#91B3FA" d="M1356.9,3162.4c0,0-166.5-838.2-557.8-1306.5c-26.3-31.5-77-21.6-89.2,17.6
				C627.7,2135.3,459.5,2932.2,1356.9,3162.4z"/>
			<path fill="#BDD0FB" d="M1276,3105.8c2,2.1-0.8,5.1-3.1,3.3c-81.6-65.5-394.9-384-492.4-999.6c-0.3-2,2.6-2.6,3.1-0.7
				C819.2,2252,966.7,2780.5,1276,3105.8z"/>
		</g>
		<g>
			<path fill="#BDD0FB" d="M1269.4,3242.2c0,0-318.1-662.8-744.4-969.2c-28.7-20.6-68.8-1.5-70.6,33.7
				C442.1,2542.4,472.5,3242.4,1269.4,3242.2z"/>
			<path opacity="0.5" fill="#FFFFFF" d="M1190,3212.3c2.1,1.3,0.4,4.4-1.8,3.4c-82-37.1-411.2-235.5-624.2-727.5
				c-0.7-1.6,1.6-2.7,2.4-1.2C626.6,2598.6,862.6,3007.4,1190,3212.3z"/>
		</g>
		<g>
			<g>
				
					<linearGradient id="SVGID_2_" gradientUnits="userSpaceOnUse" x1="855.7874" y1="1923.719" x2="2711.3855" y2="1923.719" gradientTransform="matrix(0.9998 -2.190000e-02 2.190000e-02 0.9998 28.2232 -27.654)">
					<stop  offset="0" style="stop-color:#09005D"/>
					<stop  offset="1" style="stop-color:#1A0F91"/>
				</linearGradient>
				<path fill="url(#SVGID_2_)" d="M1059.9,493.5C988,499.8,932.8,560,932.6,632.2c-1.3,441.6-3.3,1965,25.5,2504.1
					c3,57.1,49.9,102,107.1,102.6c282.9,3,1096.7,8.6,1558.7-20.9c96.2-6.2,171.1-85.8,171-182.3c-0.6-463.5-8-1767.1-71.5-2362.9
					c-7.6-71.4-65-127.1-136.6-132.7C2278.2,516.2,1458.9,458.8,1059.9,493.5z"/>
				<path fill="#FFFFFF" d="M1046.2,748c-5.6,377.8-21.4,1634.5,6.2,2098.3c4,67.8,56.7,121.3,121.7,123.6
					c267.7,9.3,954.3,27.4,1345.5-15.7c70.4-7.8,124.3-68.8,126.2-142.7c9.8-385.5,36.2-1556,9.4-2014.7
					c-4.3-73.2-60.2-131.5-130.3-136.3C2235,641,1490.6,596,1158,623.7C1095.5,628.9,1047.1,682.6,1046.2,748z"/>
				<linearGradient id="SVGID_3_" gradientUnits="userSpaceOnUse" x1="1840.1659" y1="648.3783" x2="1865.5168" y2="-20.8742">
					<stop  offset="0" style="stop-color:#4042E2"/>
					<stop  offset="1" style="stop-color:#4F52FF"/>
				</linearGradient>
				<path fill="url(#SVGID_3_)" d="M1693,559.2c0.2,10.4,8.6,18.9,19,19.2c51.5,1.6,196.6,6,261.5,8.3c12.8,0.5,22.6-11.2,19.9-23.8
					c-0.2-0.4-1.9-16.4-18.3-17.6c-43.9-3.1-176.3-11.3-263.7-6.2C1693.4,540.2,1692.5,560.6,1693,559.2z"/>
			</g>
		</g>
		<path fill="#91B3FA" d="M1758.4,2140.1h-540.3c-38.6,0-69.9-31.3-69.9-69.9v-445.8c0-35,28.3-63.3,63.3-63.3h543.4
			c29.1,0,52.8,23.6,52.8,52.8v477C1807.7,2118.1,1785.6,2140.1,1758.4,2140.1z"/>
		<path fill="#91B3FA" d="M2460.7,2831.5l-1228.2,30.8c-46.2,1.2-84.2-36-84.2-82.2v-489.6c0-46,37.3-83.2,83.2-83.2h1259.6
			c38.4,0,69.5,31.1,69.5,69.5v452.2C2560.6,2784.7,2516.3,2830.1,2460.7,2831.5z"/>
		<path fill="#91B3FA" d="M2481.2,1011.2l-1261.5,18.4c-29.6,0.4-53.8-23.4-53.8-53V765.8c0-45,37.3-81,82.2-79.5l1205.6,40.4
			c52.1,1.7,93.4,44.5,93.4,96.6v121C2547.1,980.8,2517.7,1010.6,2481.2,1011.2z"/>
		<linearGradient id="SVGID_4_" gradientUnits="userSpaceOnUse" x1="1295.2949" y1="539.375" x2="2028.0424" y2="1502.4144">
			<stop  offset="0" style="stop-color:#FE7062"/>
			<stop  offset="1" style="stop-color:#FF928E"/>
		</linearGradient>
		<path fill="url(#SVGID_4_)" d="M2475.7,1453.6l-1222,17.8c-45.3,0.7-82.5-35.9-82.5-81.3v-196.8c0-37.5,30.1-68.2,67.6-68.9
			l1238.7-22.8c41.1-0.8,74.9,32.4,74.9,73.5v200.4C2552.5,1418.3,2518.3,1453,2475.7,1453.6z"/>
		<path fill="#91B3FA" d="M2492.2,2125.4h-537.6c-32.4,0-58.7-26.3-58.7-58.7v-458.9c0-33.9,27.5-61.3,61.3-61.3h539.2
			c32.5,0,58.9,26.3,58.9,58.9v457.1C2555.2,2097.2,2527,2125.4,2492.2,2125.4z"/>
		<g>
			
				<linearGradient id="SVGID_5_" gradientUnits="userSpaceOnUse" x1="-5796.2881" y1="3089.0728" x2="-6447.9902" y2="3797.9421" gradientTransform="matrix(-1 0 0 1 -3159.3877 0)">
				<stop  offset="0" style="stop-color:#4042E2"/>
				<stop  offset="1" style="stop-color:#4F52FF"/>
			</linearGradient>
			<path fill="url(#SVGID_5_)" d="M2842.9,3141.9c0,0,6.7,38.2,10.1,76c1.3,14.8-10.1,27.6-24.9,28.2c-50.4,2.1-158.1,6.2-196.8,4.5
				c-5.8-0.3-9.6-6.2-7.5-11.6l0,0c1.8-4.5,5.3-8.2,9.7-10.2l178-81.8L2842.9,3141.9z"/>
			
				<linearGradient id="SVGID_6_" gradientUnits="userSpaceOnUse" x1="-6007.8208" y1="3141.7217" x2="-5949.9336" y2="3141.7217" gradientTransform="matrix(-1 0 0 1 -3159.3877 0)">
				<stop  offset="0" style="stop-color:#A22B25"/>
				<stop  offset="1" style="stop-color:#C0423C"/>
			</linearGradient>
			<path fill="url(#SVGID_6_)" d="M2848.4,3119.4l-5.4,45.7c0,0-31.2,14.5-52.5-1.8l12.9-50.9L2848.4,3119.4z"/>
			
				<linearGradient id="SVGID_7_" gradientUnits="userSpaceOnUse" x1="-6145.0854" y1="2699.0957" x2="-5953.6812" y2="2699.0957" gradientTransform="matrix(-1 0 0 1 -3159.3877 0)">
				<stop  offset="0" style="stop-color:#09005D"/>
				<stop  offset="1" style="stop-color:#1A0F91"/>
			</linearGradient>
			<path fill="url(#SVGID_7_)" d="M2844.4,2260.2c2.3,11.9,12.6,595.6-49.8,857.1c-1,4.3,1.1,8.7,5.2,10.3
				c9.6,3.9,28.3,9.6,50.8,10.3c7,0.2,13.2-4.3,15.2-11c17.8-60.7,103.3-364.7,114.4-655.2c12.5-324.5,0-11.1,0-11.1l-7.3-200.6
				L2844.4,2260.2z"/>
			
				<linearGradient id="SVGID_8_" gradientUnits="userSpaceOnUse" x1="-5942.4868" y1="2954.6641" x2="-6594.1895" y2="3663.5347" gradientTransform="matrix(-1 0 0 1 -3159.3877 0)">
				<stop  offset="0" style="stop-color:#4042E2"/>
				<stop  offset="1" style="stop-color:#4F52FF"/>
			</linearGradient>
			<path fill="url(#SVGID_8_)" d="M3047.6,3161.8c0,0,10.7,19.3,21.1,70.5c1.9,9.3-4.6,18.1-14,19c-16.6,1.6-42.2,3.7-62.7,3.6
				c-9.5-0.1-16.8-8.3-15.7-17.7c2.3-18.7,9.3-49.4,31.2-73.3L3047.6,3161.8z"/>
			
				<linearGradient id="SVGID_9_" gradientUnits="userSpaceOnUse" x1="-6216.4468" y1="3138.7529" x2="-6166.4663" y2="3138.7529" gradientTransform="matrix(-1 0 0 1 -3159.3877 0)">
				<stop  offset="0" style="stop-color:#A22B25"/>
				<stop  offset="1" style="stop-color:#C0423C"/>
			</linearGradient>
			<path fill="url(#SVGID_9_)" d="M3057.1,3103l-12.7,69.1c0,0-12.5,9.3-37.3,2.6l6-74.4L3057.1,3103z"/>
			
				<linearGradient id="SVGID_10_" gradientUnits="userSpaceOnUse" x1="-6270.3179" y1="2692.833" x2="-5998.585" y2="2692.833" gradientTransform="matrix(-1 0 0 1 -3159.3877 0)">
				<stop  offset="0" style="stop-color:#09005D"/>
				<stop  offset="1" style="stop-color:#1A0F91"/>
			</linearGradient>
			<path fill="url(#SVGID_10_)" d="M3091.3,2278.1c51,307.9-11.1,761.1-32,849.8c-1.3,5.4-5.7,9.6-11.2,10.5
				c-9.3,1.5-24.7,2.8-39.9-1.6c-5.2-1.5-8.9-6.2-9.1-11.7c-2.8-71.7,2.2-511.9-45.3-685.9c-2.4-8.8-7.8-16.5-15.2-21.8l-92.3-65.6
				l-7.1-106L3091.3,2278.1z"/>
			<g>
				
					<linearGradient id="SVGID_11_" gradientUnits="userSpaceOnUse" x1="11130.6396" y1="-15111.4531" x2="10251.7793" y2="-14239.3525" gradientTransform="matrix(-1 0 0 1 -3159.3877 0)">
					<stop  offset="0" style="stop-color:#FE7062"/>
					<stop  offset="1" style="stop-color:#FF928E"/>
				</linearGradient>
				<path fill="url(#SVGID_11_)" d="M2766.2,1694.6c152.9-2.5,321.6,40.1,321.6,40.1c45.6,266,8,572.7,8,572.7
					c-118.4,31-251.9-19-251.9-19c-19.7-111.2-111.5-424-111.5-424c-74.7-9.3-136.3-30.8-186.9-59.3
					c38.7-44.8,56.9-101.8,64.8-135.5C2664.3,1686.5,2719,1695.4,2766.2,1694.6z"/>
				
					<linearGradient id="SVGID_12_" gradientUnits="userSpaceOnUse" x1="-5603.9834" y1="1631.5116" x2="-5308.2471" y2="1631.5116" gradientTransform="matrix(-1 0 0 1 -3159.3877 0)">
					<stop  offset="0" style="stop-color:#A22B25"/>
					<stop  offset="1" style="stop-color:#C0423C"/>
				</linearGradient>
				<path fill="url(#SVGID_12_)" d="M2314.5,1469.4c15-18.1,34-9.6,34-9.6c22.5,95.1,140.5,172.1,261.7,209.8
					c-7.9,33.7-26.1,90.7-64.8,135.5C2344.3,1692.1,2314.5,1469.4,2314.5,1469.4z"/>
			</g>
			<g>
				
					<linearGradient id="SVGID_13_" gradientUnits="userSpaceOnUse" x1="15987.5371" y1="1581.9393" x2="16185.9834" y2="2033.449" gradientTransform="matrix(1 0 0 1 -13607.166 0)">
					<stop  offset="0" style="stop-color:#A22B25"/>
					<stop  offset="1" style="stop-color:#C0423C"/>
				</linearGradient>
				<path fill="url(#SVGID_13_)" d="M2318.1,1474c-1.6,5,16.6,12.6,27.3-7.8c0.4-9.8,6.3-51.8,0.5-59.7
					c-31.2-42.5-91.6-95.8-91.6-95.8c-10.2,10.1-1.8,20-1.8,20l29.3,30.5c-6.1,11.1-13.6,20.4-17.1,33.8c-2.7,10.2-1,21,4.1,30.2
					c5.1,9.3,12.2,21.3,18.8,30.8C2300.2,1473.9,2318.1,1474,2318.1,1474z"/>
				<linearGradient id="SVGID_14_" gradientUnits="userSpaceOnUse" x1="2638.0215" y1="1146.1505" x2="1941.6914" y2="1703.8903">
					<stop  offset="0" style="stop-color:#A22B25"/>
					<stop  offset="1" style="stop-color:#C0423C"/>
				</linearGradient>
				<path fill="url(#SVGID_14_)" d="M2294.7,1381l26.7,22.6l8.4,22.5l-23.8,26.4c0,0-8-44.7-14-54.4
					C2286.1,1388.6,2289.2,1383.9,2294.7,1381z"/>
			</g>
			
				<linearGradient id="SVGID_15_" gradientUnits="userSpaceOnUse" x1="10982.0605" y1="-15261.1416" x2="10103.2002" y2="-14389.041" gradientTransform="matrix(-1 0 0 1 -3159.3877 0)">
				<stop  offset="0" style="stop-color:#FE7062"/>
				<stop  offset="1" style="stop-color:#FF928E"/>
			</linearGradient>
			<path fill="url(#SVGID_15_)" d="M3029.1,1882.9l58.6-148.1c0,0,142.8,97,166.3,220.1c-27,2-76.1,9-124.2,33.3
				C3119.4,1930.1,3029.1,1882.9,3029.1,1882.9z"/>
			
				<linearGradient id="SVGID_16_" gradientUnits="userSpaceOnUse" x1="-6416.7471" y1="2050.4141" x2="-6042.4902" y2="2050.4141" gradientTransform="matrix(-1 0 0 1 -3159.3877 0)">
				<stop  offset="0" style="stop-color:#A22B25"/>
				<stop  offset="1" style="stop-color:#C0423C"/>
			</linearGradient>
			<path fill="url(#SVGID_16_)" d="M2904.3,2022.2c0,0,160.4,90.6,214.5,13.2c11.2-16.1,13.9-32,11.2-47.3
				c48.1-24.3,97.2-31.3,124.2-33.3c7.1,37.1,3.3,76.5-18.5,116.4c-94.8,173.4-352.5-9.6-352.5-9.6L2904.3,2022.2z"/>
			<g>
				<linearGradient id="SVGID_17_" gradientUnits="userSpaceOnUse" x1="2522.9873" y1="1977.9657" x2="2923.9421" y2="1977.9657">
					<stop  offset="0" style="stop-color:#DAE3FE"/>
					<stop  offset="1" style="stop-color:#E9EFFD"/>
				</linearGradient>
				<path fill="url(#SVGID_17_)" d="M2923.6,2136.8l-87.5-305.6c-1-3.5-4-6-7.5-6.4c-15.9-1.8-61.8-7-114.9-11.5
					c-63.9-5.4-138.1-9.8-182.5-6.1c-6.3,0.5-10.1,7.2-7.3,12.9c25.2,51,128.9,258.5,180.9,326.5c1.7,2.3,4.4,3.6,7.2,3.5l203.1-1.9
					C2921,2148.2,2925.2,2142.5,2923.6,2136.8z"/>
				<path fill="#91B3FA" d="M2704.6,1786.8l-63.5-10.6c-3.4-0.6-6.1,2.7-5.1,5.9l6.3,19c0.5,1.7,2,2.9,3.7,3.1l61.1,8.2
					c3.2,0.4,5.8-2.4,5-5.6l-3.9-16.6C2707.9,1788.4,2706.4,1787.1,2704.6,1786.8z"/>
				<path fill="#91B3FA" d="M2752.1,1840.5l-5.2-27.2c-0.5-2.7-2.8-4.8-5.5-5.1l-128.2-13c-4.3-0.4-7.8,3.5-6.8,7.7l8.1,33.9
					c0.7,2.7,3,4.7,5.8,4.8l125.2,6.3C2749.7,1848.1,2752.9,1844.5,2752.1,1840.5z"/>
				
					<linearGradient id="SVGID_18_" gradientUnits="userSpaceOnUse" x1="-6070.2773" y1="2011.1735" x2="-5953.6812" y2="2011.1735" gradientTransform="matrix(-1 0 0 1 -3159.3877 0)">
					<stop  offset="0" style="stop-color:#A22B25"/>
					<stop  offset="1" style="stop-color:#C0423C"/>
				</linearGradient>
				<path fill="url(#SVGID_18_)" d="M2902.4,2063c0,0,12.2-50.1,7.3-67.9c-4.9-17.8-14.4-40.7-46.2-35.6
					c-31.8,5.1-69.2,18.5-69.2,18.5s1.9,23.2,26,15.7l-15,11.6c0,0,2.1,18.5,22.5,8.6l-13.9,15.4c0,0,8.8,15.2,23.8,5.5
					C2852.7,2024.9,2859.9,2069,2902.4,2063z"/>
			</g>
			<linearGradient id="SVGID_19_" gradientUnits="userSpaceOnUse" x1="2871.4551" y1="1559.1361" x2="2959.3411" y2="1947.8636">
				<stop  offset="0" style="stop-color:#A22B25"/>
				<stop  offset="1" style="stop-color:#C0423C"/>
			</linearGradient>
			<path fill="url(#SVGID_19_)" d="M2921,1570.5l48.7,140.7c0.8,2.3-0.2,4.9-2.3,6.1c-13.3,7.3-61,28.5-118.6-8
				c-6-3.8-10.1-10-11-17l-15.8-121.8H2921z"/>
			<g>
				
					<linearGradient id="SVGID_20_" gradientUnits="userSpaceOnUse" x1="-8918.4746" y1="-7201.5278" x2="-8769.7402" y2="-7441.5317" gradientTransform="matrix(-0.746 -0.6659 -0.6659 0.746 -8285.7227 -803.1727)">
					<stop  offset="0" style="stop-color:#A22B25"/>
					<stop  offset="1" style="stop-color:#C0423C"/>
				</linearGradient>
				<path fill="url(#SVGID_20_)" d="M2815.2,1440.2c0,0-53.4,100.6-46.6,141.2c6.8,40.6,73.1,37.7,130.9,4.7l40.4-108.6
					L2815.2,1440.2z"/>
				
					<linearGradient id="SVGID_21_" gradientUnits="userSpaceOnUse" x1="-9881.6953" y1="-5931.2358" x2="-9835.4424" y2="-5667.4209" gradientTransform="matrix(-0.746 -0.6659 -0.6659 0.746 -8285.7227 -803.1727)">
					<stop  offset="0" style="stop-color:#09005D"/>
					<stop  offset="1" style="stop-color:#1A0F91"/>
				</linearGradient>
				<path fill="url(#SVGID_21_)" d="M2896.9,1532.8c-2.3-1-3.2-3.9-1.8-6.1c4.3-6.5,12.3-19.9,14.9-31.6c0,0,9.6-6.2-24.4-14.3
					c-34-8.2-84.8-20.8-95.5-49.8c-10.4-28.3,16.9-99.3,60.6-42.7c1.7,2.2,4.9,2.2,6.6,0c7.2-9.3,26-28.6,52.1-16.9
					c24.4,11,27.2,28.9,26.8,37.9c-0.1,2.7,2.3,4.7,4.9,4.2c12.3-2.4,42-4.4,55.8,26c11.4,25,4,39.2-2.8,46.1
					c-2.2,2.2-1.2,5.9,1.8,6.9c8.1,2.5,18.6,9.4,17.5,28.4c-1.5,26.3-30.8,24-39.2,22.8c-1.4-0.2-2.8,0.3-3.7,1.3
					c-7.2,7.9-39.5,41.7-74.5,45.7c-3,0.4-5.4-2.6-4.4-5.5l15.1-44c0.7-2-0.3-4.3-2.3-5.2L2896.9,1532.8z"/>
				
					<linearGradient id="SVGID_22_" gradientUnits="userSpaceOnUse" x1="-8965.4941" y1="-7230.7085" x2="-8816.7568" y2="-7470.7153" gradientTransform="matrix(-0.746 -0.6659 -0.6659 0.746 -8285.7227 -803.1727)">
					<stop  offset="0" style="stop-color:#A22B25"/>
					<stop  offset="1" style="stop-color:#C0423C"/>
				</linearGradient>
				<path fill="url(#SVGID_22_)" d="M2890.8,1539c0,0,38-26.1,40.8-4.1c2.8,22-34.3,31.8-52.6,23.6L2890.8,1539z"/>
			</g>
		</g>
	</g>
	<g>
	</g>
	<g>
	</g>
	<g>
	</g>
	<g>
	</g>
	<g>
	</g>
	<g>
	</g>
	<g>
	</g>
	<g>
	</g>
	<g>
	</g>
	<g>
	</g>
	<g>
	</g>
	<g>
	</g>
	<g>
	</g>
	<g>
	</g>
	<g>
	</g>
</g>
</svg>
