<?xml version="1.0" encoding="utf-8"?>
<!-- Generator: Adobe Illustrator 25.2.1, SVG Export Plug-In . SVG Version: 6.00 Build 0)  -->
<svg version="1.1" xmlns="http://www.w3.org/2000/svg" xmlns:xlink="http://www.w3.org/1999/xlink" x="0px" y="0px"
	 viewBox="0 0 3710 3710" enable-background="new 0 0 3710 3710" xml:space="preserve">
<g id="Background">
</g>
<g id="Illustration">
	<g>
		<linearGradient id="SVGID_1_" gradientUnits="userSpaceOnUse" x1="3423.394" y1="3604.4326" x2="1371.9663" y2="1390.1929">
			<stop  offset="0" style="stop-color:#DAE3FE"/>
			<stop  offset="1" style="stop-color:#E9EFFD"/>
		</linearGradient>
		<path fill="url(#SVGID_1_)" d="M3137.5,2342.6c-281.9,658.9-1026,941.9-1609,893.6c-159.2-13.2-479.5-39.7-729.5-276.2
			c-480.3-454.2-406.3-1403.5,53.5-1962.4c59.2-72,469-554.2,1107.6-547.7c467.6,4.7,795.7,268.8,835.6,301.7
			c50.4,41.6,161.6,140.3,261.8,297C3293,1416.9,3313.7,1930.9,3137.5,2342.6z"/>
		<g>
			<g>
				<path fill="#91B3FA" d="M2350.7,2398.4c-0.9,0-1.8-0.3-2.5-0.8c-1.8-1.4-2.2-4-0.8-5.9c3.4-4.5,6.9-8.9,10.4-13.3
					c1.5-1.8,4.1-2,5.9-0.6c1.8,1.5,2.1,4.1,0.6,5.9c-3.5,4.2-6.9,8.6-10.2,13C2353.2,2397.8,2351.9,2398.4,2350.7,2398.4z"/>
				<path fill="#91B3FA" d="M3131.6,2577.2c-2,0-3.7-1.4-4.1-3.4c-2.2-11.1-4.9-22.2-8-33.1c-0.6-2.2,0.7-4.5,2.9-5.2
					c2.2-0.7,4.5,0.7,5.2,2.9c3.1,11.1,5.9,22.4,8.1,33.7c0.5,2.3-1,4.5-3.3,4.9C3132.1,2577.2,3131.9,2577.2,3131.6,2577.2z
					 M3105,2491.2c-1.6,0-3.2-1-3.8-2.5c-4.4-10.4-9.3-20.7-14.6-30.7c-1.1-2-0.3-4.6,1.8-5.6c2-1.1,4.6-0.3,5.6,1.8
					c5.3,10.2,10.3,20.8,14.9,31.3c0.9,2.1-0.1,4.6-2.2,5.5C3106.1,2491.1,3105.5,2491.2,3105,2491.2z M3061.4,2412.5
					c-1.3,0-2.6-0.6-3.4-1.8c-6.5-9.3-13.3-18.4-20.5-27.2c-1.5-1.8-1.2-4.4,0.6-5.9c1.8-1.5,4.4-1.2,5.9,0.6
					c7.3,8.9,14.3,18.2,20.9,27.7c1.3,1.9,0.8,4.5-1,5.8C3063,2412.2,3062.2,2412.5,3061.4,2412.5z M2399,2344.4
					c-1.1,0-2.2-0.4-3-1.3c-1.6-1.7-1.5-4.3,0.2-5.9c8.4-7.9,17.1-15.6,26.1-22.8c1.8-1.5,4.4-1.2,5.9,0.6c1.4,1.8,1.2,4.4-0.6,5.9
					c-8.8,7.1-17.4,14.6-25.6,22.4C2401.1,2344,2400,2344.4,2399,2344.4z M3002.7,2344.2c-1,0-2.1-0.4-2.9-1.1
					c-8.2-7.8-16.8-15.3-25.6-22.4c-1.8-1.5-2.1-4.1-0.6-5.9c1.4-1.8,4.1-2.1,5.9-0.6c9,7.2,17.7,14.9,26.1,22.8
					c1.7,1.6,1.7,4.2,0.2,5.9C3004.9,2343.7,3003.8,2344.2,3002.7,2344.2z M2470.4,2289.6c-1.4,0-2.8-0.7-3.6-2
					c-1.2-2-0.6-4.5,1.4-5.7c9.8-6.1,20-11.8,30.2-17.1c2.1-1.1,4.6-0.3,5.6,1.8c1.1,2.1,0.3,4.6-1.8,5.6c-10,5.2-20,10.8-29.6,16.8
					C2471.9,2289.4,2471.2,2289.6,2470.4,2289.6z M2931.4,2289.4c-0.7,0-1.5-0.2-2.2-0.6c-9.6-5.9-19.6-11.5-29.6-16.7
					c-2.1-1-2.9-3.6-1.8-5.6c1.1-2.1,3.6-2.9,5.6-1.8c10.3,5.3,20.4,11,30.2,17c2,1.2,2.6,3.8,1.4,5.7
					C2934.1,2288.7,2932.8,2289.4,2931.4,2289.4z M2551.5,2250.3c-1.7,0-3.3-1.1-3.9-2.8c-0.8-2.2,0.3-4.6,2.5-5.4
					c10.8-3.9,21.9-7.5,33-10.5c2.2-0.6,4.5,0.7,5.1,2.9c0.6,2.2-0.7,4.5-2.9,5.1c-10.9,3-21.8,6.5-32.4,10.3
					C2552.4,2250.2,2551.9,2250.3,2551.5,2250.3z M2850.3,2250.3c-0.5,0-0.9-0.1-1.4-0.2c-10.6-3.8-21.5-7.3-32.4-10.3
					c-2.2-0.6-3.5-2.9-2.9-5.1c0.6-2.2,2.9-3.5,5.1-2.9c11.1,3.1,22.2,6.6,33,10.5c2.2,0.8,3.3,3.2,2.5,5.3
					C2853.6,2249.3,2852,2250.3,2850.3,2250.3z M2762.9,2228.6c-0.2,0-0.4,0-0.6,0c-11.2-1.6-22.5-2.8-33.8-3.5
					c-2.3-0.1-4-2.1-3.9-4.4c0.1-2.3,2.2-4,4.4-3.9c11.5,0.7,23.1,1.9,34.5,3.6c2.3,0.3,3.9,2.4,3.5,4.7
					C2766.8,2227.1,2765,2228.6,2762.9,2228.6z M2638.8,2228.5c-2,0-3.8-1.5-4.1-3.6c-0.3-2.3,1.3-4.4,3.5-4.7
					c11.4-1.6,23-2.8,34.5-3.5c2.3,0,4.3,1.6,4.4,3.9c0.1,2.3-1.6,4.3-3.9,4.4c-11.3,0.7-22.7,1.9-33.8,3.5
					C2639.2,2228.5,2639,2228.5,2638.8,2228.5z"/>
				<path fill="#91B3FA" d="M3139.8,2649.4c-2.2,0-4.1-1.8-4.2-4.1c-0.2-5.5-0.4-11-0.8-16.5c-0.2-2.3,1.6-4.3,3.9-4.5
					c2.3,0,4.3,1.6,4.5,3.9c0.4,5.6,0.7,11.3,0.8,16.8c0.1,2.3-1.7,4.2-4.1,4.3C3139.9,2649.4,3139.9,2649.4,3139.8,2649.4z"/>
			</g>
			<g>
				<path fill="#91B3FA" d="M3016.2,2968.8c-1,0-2.1-0.4-2.9-1.2c-1.7-1.6-1.7-4.3-0.1-5.9c3.9-4,7.7-8,11.3-12.1
					c1.5-1.7,4.2-1.8,5.9-0.3c1.7,1.5,1.9,4.2,0.3,5.9c-3.7,4.1-7.6,8.3-11.5,12.3C3018.4,2968.4,3017.3,2968.8,3016.2,2968.8z"/>
				<path fill="#91B3FA" d="M2701.4,3102.2l-3.8,0c-2.3,0-4.2-1.9-4.1-4.2c0-2.3,1.9-4.1,4.2-4.1c0,0,0,0,0,0l3.7,0
					c9.9,0,19.9-0.3,29.8-1c2.3,0,4.3,1.6,4.5,3.9c0.2,2.3-1.6,4.3-3.9,4.5C2721.7,3101.9,2711.5,3102.2,2701.4,3102.2z
					 M2642.9,3098.3c-0.2,0-0.4,0-0.6,0c-11.2-1.5-22.5-3.5-33.6-5.8c-2.3-0.5-3.7-2.7-3.2-5c0.5-2.3,2.7-3.7,5-3.2
					c10.9,2.3,22,4.2,33,5.7c2.3,0.3,3.9,2.4,3.6,4.7C2646.8,3096.8,2645,3098.3,2642.9,3098.3z M2785.9,3094c-2,0-3.7-1.4-4.1-3.4
					c-0.4-2.3,1-4.5,3.3-4.9c10.9-2.1,21.9-4.7,32.6-7.7c2.2-0.6,4.5,0.7,5.1,2.9c0.6,2.2-0.7,4.5-2.9,5.1
					c-10.9,3-22.1,5.7-33.2,7.9C2786.4,3094,2786.1,3094,2785.9,3094z M2556.7,3077.8c-0.5,0-0.9-0.1-1.4-0.2
					c-10.7-3.7-21.4-7.9-31.8-12.4c-2.1-0.9-3.1-3.4-2.2-5.5c0.9-2.1,3.4-3.1,5.5-2.2c10.2,4.4,20.7,8.5,31.2,12.2
					c2.2,0.8,3.3,3.1,2.6,5.3C2560.1,3076.7,2558.5,3077.8,2556.7,3077.8z M2870.6,3068.2c-1.6,0-3.2-1-3.9-2.6
					c-0.9-2.1,0.1-4.6,2.2-5.5c10.2-4.3,20.4-9,30.3-14.1c2-1.1,4.6-0.2,5.6,1.8c1.1,2.1,0.2,4.6-1.8,5.6
					c-10.1,5.2-20.5,10.1-30.9,14.4C2871.7,3068.1,2871.1,3068.2,2870.6,3068.2z M2476.4,3040.5c-0.7,0-1.5-0.2-2.1-0.6
					c-9.7-5.8-19.4-12-28.6-18.5c-1.9-1.3-2.3-3.9-1-5.8c1.3-1.9,3.9-2.3,5.8-1c9.1,6.4,18.5,12.5,28.1,18.2c2,1.2,2.6,3.7,1.5,5.7
					C2479.2,3039.8,2477.8,3040.5,2476.4,3040.5z M2948.4,3025.8c-1.3,0-2.6-0.6-3.5-1.8c-1.3-1.9-0.8-4.5,1.1-5.8
					c9.2-6.3,18.2-13,26.9-19.9c1.8-1.4,4.4-1.1,5.9,0.7c1.4,1.8,1.1,4.4-0.7,5.9c-8.8,7.1-18.1,13.9-27.4,20.3
					C2950.1,3025.6,2949.2,3025.8,2948.4,3025.8z M2405.2,2987.8c-1,0-2-0.4-2.8-1.1c-8.3-7.6-16.5-15.7-24.3-23.9
					c-1.6-1.7-1.5-4.3,0.2-5.9c1.7-1.6,4.3-1.5,5.9,0.2c7.6,8.1,15.6,16,23.8,23.5c1.7,1.6,1.8,4.2,0.3,5.9
					C2407.5,2987.3,2406.4,2987.8,2405.2,2987.8z M2346.2,2921.8c-1.3,0-2.6-0.6-3.4-1.7c-5.2-7.2-10.3-14.7-15.2-22.2
					c-1.3-2-2.6-4.1-3.8-6.1c-1.2-2-0.6-4.5,1.4-5.7c2-1.2,4.5-0.6,5.7,1.4c1.2,2,2.5,4,3.8,6c4.7,7.4,9.7,14.7,14.9,21.8
					c1.4,1.9,0.9,4.5-0.9,5.8C2347.9,2921.5,2347,2921.8,2346.2,2921.8z M2301.5,2845.3c-1.6,0-3.1-0.9-3.8-2.4
					c-4.7-10.3-9.1-20.9-13-31.6c-0.8-2.2,0.3-4.6,2.5-5.4c2.2-0.8,4.6,0.3,5.4,2.5c3.8,10.4,8.1,20.9,12.7,31c1,2.1,0,4.6-2.1,5.5
					C2302.6,2845.2,2302.1,2845.3,2301.5,2845.3z M2273,2761.4c-1.9,0-3.6-1.3-4.1-3.2c-2.5-11-4.7-22.3-6.3-33.5
					c-0.3-2.3,1.2-4.4,3.5-4.7c2.3-0.3,4.4,1.2,4.7,3.5c1.6,11,3.7,22.1,6.2,32.9c0.5,2.2-0.9,4.5-3.1,5
					C2273.6,2761.4,2273.3,2761.4,2273,2761.4z"/>
				<path fill="#91B3FA" d="M2262,2673.3c-2.3,0-4.1-1.8-4.2-4.1c-0.1-5.6-0.1-11.2-0.1-16.9c0-2.3,2-4.1,4.2-4.1
					c2.3,0,4.1,1.9,4.1,4.2c-0.1,5.5-0.1,11.1,0.1,16.5C2266.3,2671.3,2264.4,2673.3,2262,2673.3
					C2262.1,2673.3,2262.1,2673.3,2262,2673.3z"/>
			</g>
			<g>
				<path fill="#91B3FA" d="M2367.1,2611.5c-0.6,2.2,0.3,4.5,2.2,5.7l53.6,35.2c-0.5,29.9,3.7,60.2,13,89.6l-41.4,49
					c-1.5,1.7-1.7,4.2-0.5,6.1l39.4,66.1c1.2,1.9,3.4,2.9,5.6,2.5l62.7-13.1c21.4,22.2,46,40.3,72.6,54.1l5.4,63.9
					c0.2,2.2,1.8,4.1,4,4.7l74.6,18.9c2.2,0.6,4.5-0.3,5.7-2.2l35.2-53.6c29.9,0.5,60.2-3.7,89.6-13l49,41.4
					c1.7,1.5,4.2,1.7,6.1,0.5l66.1-39.4c1.9-1.2,2.9-3.4,2.5-5.6l-13.1-62.7c22.2-21.4,40.3-46,54.1-72.6l63.9-5.4
					c2.2-0.2,4.1-1.8,4.7-4l18.9-74.6c0.6-2.2-0.3-4.5-2.2-5.7l-53.6-35.2c0.5-29.9-3.7-60.2-13-89.6l41.4-49
					c1.4-1.7,1.7-4.2,0.5-6.1l-39.4-66.1c-1.1-1.9-3.4-2.9-5.6-2.5l-62.7,13.1c-21.4-22.2-46-40.3-72.6-54.1l-5.4-63.9
					c-0.2-2.2-1.8-4.1-4-4.7l-74.6-18.9c-2.2-0.6-4.5,0.3-5.7,2.2l-35.2,53.6c-29.9-0.5-60.2,3.7-89.6,13l-49-41.4
					c-1.7-1.5-4.2-1.7-6.1-0.5l-66.1,39.4c-1.9,1.1-2.9,3.4-2.5,5.6l13.1,62.7c-22.2,21.4-40.3,46-54.1,72.6l-63.9,5.4
					c-2.2,0.2-4.1,1.8-4.7,4L2367.1,2611.5z"/>
				<g>
					<path fill="#BDD0FB" d="M2703.9,2731.8C2703.9,2731.8,2703.9,2731.8,2703.9,2731.8c-20,0-38.7-7.8-52.8-21.9
						c-14.1-14.1-21.8-32.8-21.8-52.7c0-19.9,7.8-38.6,21.9-52.7c29.1-29.1,76.4-29,105.5,0.1c14.1,14.1,21.8,32.8,21.8,52.7
						c0,19.9-7.8,38.6-21.9,52.7C2742.5,2724,2723.8,2731.8,2703.9,2731.8z M2703.9,2595.1c-16.5,0-32.1,6.4-43.8,18.1
						c-11.7,11.7-18.2,27.3-18.2,43.8c0,16.6,6.4,32.2,18.1,43.9c11.7,11.7,27.3,18.2,43.8,18.2c0,0,0,0,0.1,0
						c16.6,0,32.1-6.4,43.8-18.1c11.7-11.7,18.2-27.3,18.2-43.8c0-16.6-6.4-32.2-18.1-43.9
						C2736.1,2601.6,2720.6,2595.2,2703.9,2595.1L2703.9,2595.1z"/>
				</g>
				<path fill="#BDD0FB" d="M2705.9,2849.3c-65.5,0-129.3-33.4-165.2-93.6c-7-11.8-12.8-24.2-17.1-37.1l11.9-4
					c4,12,9.4,23.7,16,34.7c39.8,66.7,116.4,98.3,188.6,84.2c0.1,0,0.3-0.1,0.4-0.1c0.1,0,0.3-0.1,0.4-0.1
					c19.4-3.9,38.5-11.1,56.5-21.8c41.2-24.5,70.3-63.6,82.1-110c3.7-14.7,5.6-29.6,5.6-44.4c0-31.9-8.6-63.3-25.3-91.4
					c-50.6-85-160.9-112.9-245.9-62.3c-27.9,16.6-50.8,40.5-66.1,69l-11-5.9c16.4-30.5,40.8-56,70.7-73.8
					c90.9-54.1,208.9-24.2,263,66.7c17.9,30.1,27.1,63.7,27.1,97.8c0,15.8-2,31.8-6,47.5c-12.6,49.7-43.8,91.5-87.8,117.7
					C2773,2840.6,2739.2,2849.3,2705.9,2849.3z"/>
			</g>
		</g>
		<g>
			<g>
				<path fill="#91B3FA" d="M665.2,668.3c-1,0-2.1-0.3-3-1c-2.2-1.6-2.6-4.7-1-6.9c4-5.3,8.1-10.5,12.3-15.6
					c1.7-2.1,4.8-2.4,6.9-0.7c2.1,1.7,2.4,4.8,0.7,6.9c-4.1,5-8.2,10.2-12.1,15.4C668.2,667.7,666.7,668.3,665.2,668.3z"/>
				<path fill="#91B3FA" d="M1587,879.4c-2.3,0-4.4-1.6-4.8-4c-2.6-13.1-5.8-26.2-9.4-39c-0.7-2.6,0.8-5.3,3.4-6.1
					c2.6-0.8,5.3,0.8,6.1,3.4c3.7,13.1,6.9,26.5,9.6,39.8c0.5,2.7-1.2,5.3-3.9,5.8C1587.6,879.4,1587.3,879.4,1587,879.4z
					 M1555.6,777.9c-1.9,0-3.7-1.1-4.5-3c-5.2-12.2-11-24.4-17.2-36.3c-1.3-2.4-0.3-5.4,2.1-6.7c2.4-1.3,5.4-0.3,6.7,2.1
					c6.3,12.1,12.2,24.5,17.5,37c1.1,2.5-0.1,5.4-2.6,6.5C1556.9,777.8,1556.2,777.9,1555.6,777.9z M1504.1,685
					c-1.6,0-3.1-0.7-4.1-2.1c-7.6-11-15.8-21.8-24.2-32.1c-1.7-2.1-1.4-5.2,0.7-6.9c2.1-1.7,5.2-1.4,6.9,0.7
					c8.6,10.5,16.9,21.5,24.6,32.7c1.6,2.2,1,5.3-1.2,6.9C1506,684.7,1505,685,1504.1,685z M722.3,604.6c-1.3,0-2.6-0.5-3.6-1.5
					c-1.9-2-1.8-5.1,0.2-7c9.9-9.3,20.2-18.4,30.8-26.9c2.1-1.7,5.2-1.4,6.9,0.7c1.7,2.1,1.4,5.2-0.7,6.9
					c-10.4,8.4-20.6,17.3-30.2,26.4C724.7,604.2,723.5,604.6,722.3,604.6z M1434.9,604.3c-1.2,0-2.4-0.4-3.4-1.4
					c-9.7-9.2-19.8-18.1-30.2-26.4c-2.1-1.7-2.4-4.8-0.7-6.9c1.7-2.1,4.8-2.4,6.9-0.7c10.6,8.5,20.9,17.6,30.8,26.9
					c2,1.9,2.1,5,0.2,7C1437.5,603.8,1436.2,604.3,1434.9,604.3z M806.6,539.9c-1.7,0-3.3-0.8-4.2-2.3c-1.4-2.3-0.7-5.4,1.6-6.8
					c11.6-7.2,23.6-13.9,35.6-20.1c2.4-1.3,5.4-0.3,6.6,2.1c1.2,2.4,0.3,5.4-2.1,6.6c-11.8,6.1-23.6,12.7-35,19.8
					C808.3,539.7,807.4,539.9,806.6,539.9z M1350.6,539.7c-0.9,0-1.8-0.2-2.6-0.7c-11.3-7-23.1-13.6-35-19.7
					c-2.4-1.2-3.4-4.2-2.1-6.6c1.2-2.4,4.2-3.4,6.6-2.1c12.1,6.2,24.1,13,35.7,20.1c2.3,1.4,3,4.5,1.6,6.8
					C1353.9,538.8,1352.3,539.7,1350.6,539.7z M902.2,493.6c-2,0-3.9-1.2-4.6-3.2c-0.9-2.6,0.4-5.4,3-6.3c12.8-4.6,25.9-8.8,39-12.4
					c2.6-0.7,5.3,0.8,6.1,3.4c0.7,2.6-0.8,5.3-3.4,6.1c-12.8,3.5-25.7,7.7-38.3,12.2C903.3,493.5,902.8,493.6,902.2,493.6z
					 M1254.9,493.6c-0.6,0-1.1-0.1-1.7-0.3c-12.5-4.5-25.4-8.6-38.3-12.1c-2.6-0.7-4.2-3.4-3.4-6.1c0.7-2.6,3.4-4.2,6.1-3.4
					c13.1,3.6,26.2,7.8,39,12.4c2.6,0.9,3.9,3.7,3,6.3C1258.8,492.3,1256.9,493.6,1254.9,493.6z M1151.8,467.9c-0.2,0-0.5,0-0.7,0
					c-13.2-1.9-26.6-3.3-39.9-4.1c-2.7-0.2-4.8-2.5-4.6-5.2c0.2-2.7,2.6-4.7,5.2-4.6c13.6,0.9,27.3,2.3,40.7,4.2
					c2.7,0.4,4.6,2.9,4.2,5.6C1156.3,466.1,1154.2,467.9,1151.8,467.9z M1005.3,467.8c-2.4,0-4.5-1.8-4.9-4.2
					c-0.4-2.7,1.5-5.2,4.2-5.6c13.5-1.9,27.2-3.3,40.7-4.2c2.8,0,5.1,1.9,5.2,4.6c0.2,2.7-1.9,5.1-4.6,5.2
					c-13.3,0.8-26.7,2.2-39.9,4.1C1005.8,467.8,1005.5,467.8,1005.3,467.8z"/>
				<path fill="#91B3FA" d="M1596.7,964.6c-2.7,0-4.8-2.1-4.9-4.8c-0.2-6.5-0.5-13-1-19.5c-0.2-2.7,1.9-5.1,4.6-5.3
					c2.7-0.1,5.1,1.9,5.3,4.6c0.5,6.6,0.8,13.3,1,19.9c0.1,2.7-2.1,5-4.8,5.1C1596.8,964.6,1596.7,964.6,1596.7,964.6z"/>
			</g>
			<g>
				<path fill="#91B3FA" d="M1450.8,1341.6c-1.2,0-2.5-0.5-3.4-1.4c-2-1.9-2-5-0.1-7c4.5-4.7,9-9.5,13.3-14.3c1.8-2,4.9-2.2,7-0.4
					c2,1.8,2.2,4.9,0.4,7c-4.4,4.9-9,9.8-13.6,14.5C1453.4,1341.1,1452.1,1341.6,1450.8,1341.6z"/>
				<path fill="#91B3FA" d="M1079.2,1499.1l-4.5,0c-2.7,0-4.9-2.3-4.9-5c0-2.7,2.2-4.9,4.9-4.9h0l4.4,0c11.6,0,23.5-0.4,35.1-1.2
					c2.7-0.1,5.1,1.9,5.3,4.6c0.2,2.7-1.9,5.1-4.6,5.3C1103.1,1498.7,1091.1,1499.1,1079.2,1499.1z M1010.1,1494.5
					c-0.2,0-0.4,0-0.7,0c-13.2-1.8-26.6-4.1-39.7-6.9c-2.7-0.6-4.4-3.2-3.8-5.9c0.6-2.7,3.2-4.3,5.9-3.8c12.8,2.7,25.9,5,38.9,6.7
					c2.7,0.4,4.6,2.8,4.2,5.5C1014.7,1492.7,1012.6,1494.5,1010.1,1494.5z M1178.9,1489.4c-2.3,0-4.4-1.6-4.8-4
					c-0.5-2.7,1.2-5.3,3.9-5.8c12.9-2.5,25.8-5.6,38.4-9.1c2.6-0.7,5.3,0.8,6.1,3.4c0.7,2.6-0.8,5.3-3.4,6.1
					c-12.9,3.6-26.1,6.7-39.2,9.3C1179.5,1489.4,1179.2,1489.4,1178.9,1489.4z M908.4,1470.3c-0.5,0-1.1-0.1-1.6-0.3
					c-12.7-4.4-25.3-9.3-37.5-14.7c-2.5-1.1-3.6-4-2.5-6.5c1.1-2.5,4-3.6,6.5-2.6c12,5.2,24.4,10.1,36.8,14.4c2.6,0.9,3.9,3.7,3,6.3
					C912.4,1469,910.5,1470.3,908.4,1470.3z M1278.9,1458.9c-1.9,0-3.8-1.1-4.5-3c-1.1-2.5,0.1-5.4,2.6-6.5
					c12-5.1,24.1-10.7,35.8-16.7c2.4-1.2,5.4-0.3,6.6,2.1c1.2,2.4,0.3,5.4-2.1,6.6c-11.9,6.1-24.2,11.9-36.5,17
					C1280.2,1458.8,1279.5,1458.9,1278.9,1458.9z M813.6,1426.2c-0.9,0-1.7-0.2-2.5-0.7c-11.5-6.8-22.8-14.2-33.8-21.9
					c-2.2-1.6-2.8-4.6-1.2-6.9c1.6-2.2,4.6-2.8,6.9-1.2c10.7,7.6,21.9,14.8,33.1,21.5c2.3,1.4,3.1,4.4,1.7,6.8
					C816.9,1425.4,815.3,1426.2,813.6,1426.2z M1370.8,1408.9c-1.6,0-3.1-0.8-4.1-2.2c-1.5-2.2-1-5.3,1.3-6.9
					c10.8-7.4,21.5-15.3,31.8-23.5c2.1-1.7,5.2-1.4,6.9,0.8c1.7,2.1,1.4,5.2-0.8,6.9c-10.4,8.3-21.3,16.4-32.4,23.9
					C1372.7,1408.6,1371.7,1408.9,1370.8,1408.9z M729.6,1364c-1.2,0-2.4-0.4-3.3-1.3c-9.9-9-19.5-18.5-28.7-28.3
					c-1.9-2-1.8-5.1,0.2-7c2-1.9,5.1-1.8,7,0.2c9,9.6,18.5,18.9,28.1,27.7c2,1.8,2.2,5,0.3,7C732.3,1363.5,731,1364,729.6,1364z
					 M659.9,1286.1c-1.5,0-3-0.7-4-2c-6.2-8.5-12.2-17.3-17.9-26.2c-1.5-2.4-3-4.8-4.5-7.2c-1.4-2.3-0.7-5.4,1.6-6.8
					c2.3-1.4,5.4-0.7,6.8,1.6c1.5,2.4,2.9,4.7,4.4,7.1c5.6,8.7,11.5,17.4,17.6,25.7c1.6,2.2,1.1,5.3-1.1,6.9
					C661.9,1285.8,660.9,1286.1,659.9,1286.1z M607.1,1195.8c-1.9,0-3.7-1.1-4.5-2.9c-5.6-12.2-10.7-24.7-15.3-37.2
					c-0.9-2.6,0.4-5.4,2.9-6.3c2.6-0.9,5.4,0.4,6.3,2.9c4.5,12.3,9.6,24.6,15,36.5c1.1,2.5,0,5.4-2.4,6.5
					C608.5,1195.7,607.8,1195.8,607.1,1195.8z M573.5,1096.8c-2.2,0-4.3-1.5-4.8-3.8c-3-13-5.5-26.3-7.5-39.6
					c-0.4-2.7,1.5-5.2,4.2-5.6c2.7-0.4,5.2,1.5,5.6,4.2c1.9,13,4.4,26.1,7.3,38.8c0.6,2.7-1,5.3-3.7,5.9
					C574.2,1096.8,573.9,1096.8,573.5,1096.8z"/>
				<path fill="#91B3FA" d="M560.6,992.8c-2.7,0-4.9-2.1-4.9-4.8c-0.1-6.6-0.2-13.3-0.1-19.9c0-2.7,2.3-4.8,5-4.9
					c2.7,0,4.9,2.3,4.9,5c-0.1,6.5-0.1,13.1,0.1,19.5c0.1,2.7-2.1,5-4.8,5C560.7,992.8,560.6,992.8,560.6,992.8z"/>
			</g>
			<g>
				<path fill="#91B3FA" d="M684.6,919.9c-0.7,2.6,0.4,5.3,2.6,6.7l63.3,41.5c-0.6,35.3,4.3,71,15.3,105.7l-48.8,57.8
					c-1.7,2-2,4.9-0.6,7.2l46.5,78c1.4,2.3,4,3.4,6.6,2.9l74.1-15.4c25.3,26.2,54.3,47.6,85.6,63.8l6.3,75.4
					c0.2,2.6,2.1,4.9,4.7,5.5l88,22.3c2.6,0.7,5.3-0.4,6.7-2.6l41.5-63.3c35.3,0.6,71-4.3,105.7-15.3l57.8,48.8c2,1.7,4.9,2,7.2,0.6
					l78-46.5c2.3-1.4,3.4-4,2.9-6.6l-15.4-74.1c26.2-25.3,47.6-54.3,63.8-85.6l75.4-6.3c2.6-0.2,4.9-2.1,5.5-4.7l22.3-88
					c0.7-2.6-0.4-5.3-2.6-6.7l-63.3-41.5c0.6-35.3-4.3-71-15.3-105.7l48.8-57.8c1.7-2,1.9-4.9,0.6-7.2l-46.5-78
					c-1.4-2.3-4-3.4-6.6-2.9l-74.1,15.4c-25.3-26.2-54.3-47.6-85.7-63.8l-6.3-75.4c-0.2-2.6-2.1-4.9-4.7-5.5l-88-22.3
					c-2.6-0.7-5.3,0.4-6.7,2.6l-41.5,63.3c-35.3-0.6-71,4.3-105.7,15.3l-57.8-48.8c-2-1.7-4.9-1.9-7.2-0.6l-78,46.5
					c-2.3,1.4-3.4,4-2.9,6.6l15.4,74.1c-26.2,25.3-47.6,54.3-63.8,85.6l-75.4,6.3c-2.6,0.2-4.9,2.1-5.5,4.7L684.6,919.9z"/>
				<g>
					<path fill="#BDD0FB" d="M1082.2,1061.8C1082.2,1061.8,1082.1,1061.8,1082.2,1061.8c-23.6,0-45.7-9.2-62.3-25.8
						c-16.6-16.6-25.7-38.8-25.7-62.3c0-23.5,9.2-45.6,25.8-62.2c34.3-34.3,90.2-34.2,124.5,0.1c16.6,16.6,25.7,38.8,25.7,62.3
						c0,23.5-9.2,45.6-25.8,62.2C1127.7,1052.7,1105.7,1061.8,1082.2,1061.8z M1082.2,900.6c-19.5,0-37.9,7.6-51.7,21.4
						c-13.8,13.8-21.5,32.2-21.5,51.8c0,19.6,7.6,38,21.4,51.8c13.8,13.8,32.2,21.5,51.8,21.5c0,0,0,0,0,0
						c19.6,0,37.9-7.6,51.7-21.4c13.8-13.8,21.5-32.2,21.5-51.8c0-19.6-7.6-38-21.4-51.8C1120.2,908.2,1101.8,900.6,1082.2,900.6
						C1082.2,900.6,1082.2,900.6,1082.2,900.6z"/>
				</g>
				<path fill="#BDD0FB" d="M1084.5,1200.5c-77.3,0-152.6-39.5-195-110.5c-8.3-13.9-15.1-28.6-20.2-43.8l14-4.7
					c4.8,14.2,11.1,28,18.9,40.9c46.9,78.8,137.3,116.1,222.6,99.4c0.2,0,0.3-0.1,0.5-0.1c0.2,0,0.3-0.1,0.5-0.1
					c22.9-4.6,45.5-13.1,66.7-25.7c48.6-28.9,83-75.1,96.9-129.9c4.4-17.4,6.6-35,6.6-52.4c0-37.6-10.1-74.7-29.9-107.9
					c-59.7-100.3-189.9-133.3-290.2-73.5c-33,19.6-60,47.8-78,81.4l-13-7c19.3-36,48.2-66.1,83.5-87.1
					c107.3-63.9,246.6-28.6,310.5,78.7c21.1,35.5,32,75.2,32,115.5c0,18.7-2.3,37.5-7,56.1c-14.9,58.6-51.7,108-103.6,138.9
					C1163.7,1190.3,1123.9,1200.5,1084.5,1200.5z"/>
			</g>
		</g>
		<g>
			<linearGradient id="SVGID_2_" gradientUnits="userSpaceOnUse" x1="1901.8027" y1="3185.1096" x2="1872.1577" y2="2598.1462">
				<stop  offset="0" style="stop-color:#09005D"/>
				<stop  offset="1" style="stop-color:#1A0F91"/>
			</linearGradient>
			<polygon fill="url(#SVGID_2_)" points="1654.1,2518.8 1604.8,2960.3 2176.1,2960.3 2101.7,2518.8 			"/>
			<linearGradient id="SVGID_3_" gradientUnits="userSpaceOnUse" x1="455.822" y1="1860.6542" x2="3194.6694" y2="1860.6542">
				<stop  offset="0" style="stop-color:#09005D"/>
				<stop  offset="1" style="stop-color:#1A0F91"/>
			</linearGradient>
			<path fill="url(#SVGID_3_)" d="M455.8,1212v1214.8c0,99.9,79.6,181.6,179.5,184.2c443.7,11.4,1995.5,39.2,2417.8,33
				c72.6-1.1,131.4-59.2,133.5-131.7c8.1-282.2,21.4-960.8-27.6-1275.9c-10.3-66.3-66.3-116-133.4-118.1
				c-371.8-11.9-2016.8-49.7-2438.9-40.2C514,1079.7,455.8,1139.1,455.8,1212z"/>
			<linearGradient id="SVGID_4_" gradientUnits="userSpaceOnUse" x1="3380.8801" y1="1022.788" x2="-2560.2822" y2="3993.3755">
				<stop  offset="0" style="stop-color:#4F52FF"/>
				<stop  offset="1" style="stop-color:#4042E2"/>
			</linearGradient>
			<path fill="url(#SVGID_4_)" d="M532,1206v1154.1c0,58.3,46.8,105.9,105.2,106.8l2355.2,29.1c57.8,0.9,105.2-45.7,105.5-103.5
				l3.9-1143.8c0.2-41.4-32.8-75.2-74.1-76.3l-2411.3-48.7C570.1,1122.6,532,1159.8,532,1206z"/>
			<path fill="#91B3FA" d="M3115.6,2543.4L3115.6,2543.4l-2583.6-44c-1.9,0-3.4-1.6-3.3-3.4c0-1.9,1.6-3.2,3.4-3.3l2583.6,44
				c1.9,0,3.4,1.6,3.3,3.4C3119,2541.9,3117.5,2543.4,3115.6,2543.4z"/>
			<path fill="#91B3FA" d="M1849.3,2597.2c-16.7,0-30.3-13.6-30.3-30.3c0-16.7,13.6-30.3,30.3-30.3s30.3,13.6,30.3,30.3
				C1879.6,2583.6,1866,2597.2,1849.3,2597.2z M1849.3,2543.4c-13,0-23.5,10.5-23.5,23.5c0,13,10.5,23.5,23.5,23.5
				c13,0,23.5-10.5,23.5-23.5C1872.8,2554,1862.3,2543.4,1849.3,2543.4z"/>
			<linearGradient id="SVGID_5_" gradientUnits="userSpaceOnUse" x1="1903.6478" y1="2963.625" x2="1630.9166" y2="3562.4475">
				<stop  offset="0" style="stop-color:#09005D"/>
				<stop  offset="1" style="stop-color:#1A0F91"/>
			</linearGradient>
			<path fill="url(#SVGID_5_)" d="M2299.1,3050.7h-836c-22.7,0-39.8-16.2-35.4-33.5l10.7-42.4c3.2-12.8,17.3-22.1,33.9-22.6
				l806-25.1c17.4-0.5,32.8,8.7,36.6,22l19.3,67.6C2339.3,3034,2322.2,3050.7,2299.1,3050.7z"/>
			<path fill="#91B3FA" d="M1913.1,2964.2c-1.8,0-3.3-1.5-3.4-3.3c0-1.9,1.5-3.4,3.3-3.4l34.5-0.5h0c1.8,0,3.3,1.5,3.4,3.3
				c0,1.9-1.5,3.4-3.3,3.4L1913.1,2964.2L1913.1,2964.2z"/>
			<path fill="#91B3FA" d="M1458.6,3027.9c-0.2,0-0.4,0-0.5,0c-1.8-0.3-3.1-2-2.8-3.9l4.9-30.9c2.7-16.9,17.1-29.3,34.2-29.6
				l366.3-5.4c1.9-0.1,3.4,1.5,3.4,3.3c0,1.9-1.5,3.4-3.3,3.4l-366.3,5.4c-13.8,0.2-25.4,10.3-27.6,23.9l-4.9,30.9
				C1461.7,3026.8,1460.3,3027.9,1458.6,3027.9z"/>
			<path opacity="3.000000e-02" fill="#FFFFFF" d="M2927.9,1225.7L677.1,1198c-35.5-0.4-64.3,28.6-64.8,64.9L597.8,2311
				c-0.5,35.8,27.2,65.5,62.2,66.7l2263.5,80.1c31.5,1.1,61-10.9,83.7-33.3c22.7-22.4,34.4-53.3,34.4-85.5v-994.5
				C3041.6,1279.5,2991.5,1226.5,2927.9,1225.7z"/>
		</g>
		<g>
			<g>
				<path fill="#7D97F4" d="M659.7,1168.7h1150.6c31.4,0,56.6,31.7,56.1,70.4l-16.2,1101.1c-0.8,51.8-35.3,93.2-77.3,92.5
					l-1114.4-17.3c-30.7-0.5-55.4-31.3-55.4-69.2l0.5-1108.5C603.6,1199.6,628.7,1168.7,659.7,1168.7z"/>
				<path fill="#91B3FA" d="M677.9,1201.2h1104.9c30.1,0,54.4,30.4,53.8,67.5L1821.1,2324c-0.7,49.7-33.9,89.3-74.3,88.7
					l-1070.1-16.5c-29.5-0.5-53.2-30-53.2-66.3l0.5-1062.4C624.1,1230.8,648.2,1201.2,677.9,1201.2z"/>
			</g>
			<g>
				<path fill="#FFFFFF" d="M1438.6,1328.3c-0.1,0-0.2,0-0.3,0l-729.7-8.1c-19.9-0.2-36-15.9-36-35l0-28.6c0-7.5,3.1-14.6,8.6-19.9
					c5.5-5.2,12.8-8.1,20.5-8.1h741.9c7.9,0,15.4,3.2,20.6,8.9c5,5.4,7.5,12.4,6.9,19.6l-3.5,45.4
					C1466.4,1317,1453.7,1328.3,1438.6,1328.3z M701.6,1238.7c-5.1,0-9.9,1.9-13.5,5.3c-3.5,3.4-5.5,7.8-5.5,12.6l0,28.6
					c0,13.6,11.7,24.7,26,24.9l729.7,8.1c0.1,0,0.2,0,0.2,0c9.9,0,18.1-7.2,18.8-16.5l3.5-45.4c0.3-4.4-1.2-8.6-4.2-12
					c-3.3-3.6-8.1-5.6-13.2-5.6H701.6z"/>
				<path opacity="0.4" fill="#FFFFFF" d="M1429.7,1313l-707.8-6c-16.7-0.1-30.1-9.9-30.1-21.9l0-21c0-9.3,10.4-16.8,23.3-16.8
					h719.7c12.7,0,22.7,7.8,21.8,16.9l-3.4,33.3C1452.2,1306.3,1442,1313.1,1429.7,1313z"/>
				<path opacity="0.59" fill="#FFFFFF" d="M1672,1435.8H677.9c-6.6,0-11.9-5.9-11.9-13.2v-35.2c0-7.3,5.4-13.2,12-13.2l994.2,9.7
					c6.6,0.1,11.8,5.9,11.8,13.2v25.5C1684,1429.9,1678.6,1435.8,1672,1435.8z"/>
				<path opacity="0.4" fill="#FFFFFF" d="M1750.7,1675.6l-1047-14c-18.6-0.2-33.6-15.4-33.6-34v-143.8c0-19.1,15.6-34.6,34.8-34.4
					l1043.9,11.2c20.6,0.2,37.2,17,37.2,37.6v142.6C1786,1660.2,1770.2,1675.9,1750.7,1675.6z"/>
				<path opacity="0.59" fill="#FFFFFF" d="M1581.7,1782.7H676.4c-6,0-10.9-5.9-10.9-13.2v-35.2c0-7.3,4.9-13.2,11-13.2l905.3,9.7
					c6,0.1,10.8,5.9,10.8,13.2v25.5C1592.6,1776.8,1587.7,1782.7,1581.7,1782.7z"/>
				<path opacity="0.4" fill="#FFFFFF" d="M1750.3,2043.9l-1047-15.3c-18.6-0.3-33.6-16.9-33.6-37.3V1834c0-21,15.6-37.9,34.8-37.7
					l1043.9,12.2c20.6,0.2,37.2,18.6,37.2,41.1v156.1C1785.6,2027,1769.7,2044.2,1750.3,2043.9z"/>
				<path opacity="0.59" fill="#FFFFFF" d="M1777.1,2156.9H680.8c-7.3,0-13.2-5.9-13.2-13.2v-35.2c0-7.3,6-13.2,13.3-13.2
					l1096.3,9.7c7.2,0.1,13.1,5.9,13.1,13.2v25.5C1790.3,2151,1784.4,2156.9,1777.1,2156.9z"/>
				<path opacity="0.4" fill="#FFFFFF" d="M1752.4,2385.7l-1047-13.3c-18.6-0.2-33.6-14.7-33.6-32.4v-136.8
					c0-18.2,15.6-32.9,34.8-32.7l1043.9,10.6c20.6,0.2,37.2,16.2,37.2,35.7v135.7C1787.8,2371,1771.9,2386,1752.4,2385.7z"/>
			</g>
		</g>
		<g>
			<g>
				<path fill="#7D97F4" d="M2053.3,870.9H3181c30.7,0,55.5,31.4,55,69.6L3220.1,2029c-0.7,51.2-34.6,92.1-103.9,91.4l-1049.8-16.4
					c-36.5-0.6-67-29.1-68.5-65.6c0-1.2-0.1-2.3-0.1-3.5l0.5-1095.8C1998.4,901.5,2023,870.9,2053.3,870.9z"/>
				<path fill="#BDD0FB" d="M2078.2,900.3H3161c29.5,0,53.3,29.8,52.8,66.2l-15.2,1034.3c-0.7,48.7-33.2,87.5-72.8,86.9L2077,2071.5
					c-28.9-0.4-52.1-29.4-52.1-65l0.5-1041.2C2025.4,929.4,2049.1,900.3,2078.2,900.3z"/>
			</g>
			<g>
				<path fill="#7D97F4" d="M3107.8,1109.5h-991.4c-12.1,0-22-9.8-22-22V1034c0-12.7,10.3-23.1,23.1-23.1H3104
					c12.4,0,22.5,10.1,22.5,22.5v57.4C3126.5,1101.2,3118.1,1109.5,3107.8,1109.5z"/>
				<path opacity="0.27" fill="#FFFFFF" d="M3042.9,1079.5h-378.2c-6.2,2.3-11.3-3.3-11.3-10.2v-18.5c0-6.9,5.1-12.5,11.3-12.5
					h378.2c6.2,0,11.3,5.6,11.3,12.5v18.5C3054.2,1076.3,3049.1,1081.9,3042.9,1079.5z"/>
				<path fill="#7D97F4" d="M2836.2,1599.1c0,25.9-21,47-46.9,47l-658.7,1.4c-17.2,0-31.2-14.3-31.2-31.9v-349.9
					c0-17.8,14.3-32.2,31.7-31.9l674.5,10.7c17,0.3,30.7,14.5,30.7,31.9V1599.1z"/>
				<path fill="#91B3FA" d="M2751.9,2029.9l-281.8-2.3c-9.5-0.1-17.2-7.9-17.1-17.4l2.3-282.3c0.1-9.4,7.6-16.9,16.9-17.1l278.3,5.3
					c11.8,0.2,21.2,9.9,21.1,21.7l-2.4,275C2769.2,2022.3,2761.4,2030,2751.9,2029.9z"/>
				<path fill="#91B3FA" d="M2393.4,2029.9l-281.8-2.3c-9.5-0.1-17.2-7.9-17.1-17.4l2.3-282.3c0.1-9.4,7.6-16.9,16.9-17.1l278.3,5.3
					c11.8,0.2,21.2,9.9,21.1,21.7l-2.4,275C2410.7,2022.3,2402.9,2030,2393.4,2029.9z"/>
				<path fill="#91B3FA" d="M3106.7,2036.6l-281.8-2.3c-9.5-0.1-17.2-7.9-17.1-17.4l2.3-282.3c0.1-9.4,7.6-16.9,16.9-17.1l278.3,5.3
					c11.8,0.2,21.2,9.9,21.1,21.7l-2.4,275C3124,2029,3116.2,2036.7,3106.7,2036.6z"/>
				<path fill="#91B3FA" d="M3102.8,1663.2H2899c-13.1,0-23.7-10.7-23.7-23.9v-372.3c0-11.1,8.6-20.1,19.3-20.1l209.3-1.2
					c12.7,0.6,22.7,11.1,22.7,23.8v369.8C3126.5,1652.6,3115.8,1663.2,3102.8,1663.2z"/>
				<g>
					<path fill="#FFFFFF" d="M2331.1,989.7c-18.3,0-33.1-14.9-33.1-33.1c0-18.3,14.9-33.1,33.1-33.1s33.1,14.9,33.1,33.1
						C2364.2,974.9,2349.4,989.7,2331.1,989.7z M2331.1,930.2c-14.5,0-26.4,11.8-26.4,26.4c0,14.6,11.8,26.4,26.4,26.4
						s26.4-11.8,26.4-26.4C2357.5,942,2345.7,930.2,2331.1,930.2z"/>
					<path fill="#FFFFFF" d="M2228.1,992.1c-18.3,0-33.1-14.9-33.1-33.1c0-18.3,14.9-33.1,33.1-33.1c18.3,0,33.1,14.9,33.1,33.1
						C2261.2,977.3,2246.4,992.1,2228.1,992.1z M2228.1,932.6c-14.5,0-26.4,11.8-26.4,26.4s11.8,26.4,26.4,26.4s26.4-11.8,26.4-26.4
						S2242.6,932.6,2228.1,932.6z"/>
					<path fill="#FFFFFF" d="M2129.1,992.1c-18.3,0-33.1-14.9-33.1-33.1c0-18.3,14.9-33.1,33.1-33.1c18.3,0,33.1,14.9,33.1,33.1
						C2162.2,977.3,2147.4,992.1,2129.1,992.1z M2129.1,932.6c-14.6,0-26.4,11.8-26.4,26.4s11.8,26.4,26.4,26.4
						c14.5,0,26.4-11.8,26.4-26.4S2143.7,932.6,2129.1,932.6z"/>
				</g>
			</g>
			<g>
				<path fill="#FFFFFF" d="M2483.1,1509.9c-43.8,0-79.4-35.6-79.4-79.4c0-43.8,35.6-79.4,79.4-79.4c43.8,0,79.4,35.6,79.4,79.4v0.1
					C2562.4,1474.3,2526.8,1509.9,2483.1,1509.9z M2483.1,1355.8c-41.3,0-74.8,33.5-74.8,74.7c0,41.3,33.5,74.8,74.7,74.8
					c41.3,0,74.8-33.5,74.8-74.7v-0.1C2557.8,1389.3,2524.3,1355.8,2483.1,1355.8z"/>
				<path fill="#FFFFFF" d="M2461.2,1470.4c-2.2,0-4-1.8-4.1-4l-1.9-70.1c-0.1-2.3,1.1-4.4,3-5.7c1.9-1.3,4.3-1.4,6.4-0.5l69.2,32.4
					c2.3,1.1,3.7,3.3,3.8,5.8c0.1,2.5-1.3,4.8-3.5,6l-61.1,32.6c-2,1.1-4.5,0.3-5.6-1.7c-1.1-2-0.3-4.5,1.7-5.6l58.3-31.1l-64-29.9
					l1.8,67.5c0.1,2.3-1.7,4.2-4,4.2C2461.2,1470.4,2461.2,1470.4,2461.2,1470.4z"/>
			</g>
		</g>
		<g>
			
				<linearGradient id="SVGID_6_" gradientUnits="userSpaceOnUse" x1="822.7739" y1="1628.1981" x2="1146.725" y2="1300.8722" gradientTransform="matrix(0.9854 0.1705 -0.1705 0.9854 66.439 -38.0066)">
				<stop  offset="0" style="stop-color:#FF928E"/>
				<stop  offset="1" style="stop-color:#FE7062"/>
			</linearGradient>
			<path fill="url(#SVGID_6_)" d="M1582.4,915.6c107.3-163.8,327.3-223.5,463.4-198.6l27.3,63.7c-138.8,22.3-236.5,47.3-309.3,167.9
				c-3.9,6.5-11.5,10-19,8.7l-155.8-26.7C1582,929.3,1578.5,921.4,1582.4,915.6z"/>
			
				<linearGradient id="SVGID_7_" gradientUnits="userSpaceOnUse" x1="849.5925" y1="1654.7418" x2="1173.5426" y2="1327.4167" gradientTransform="matrix(0.9854 0.1705 -0.1705 0.9854 66.439 -38.0066)">
				<stop  offset="0" style="stop-color:#FF928E"/>
				<stop  offset="1" style="stop-color:#FE7062"/>
			</linearGradient>
			<path fill="url(#SVGID_7_)" d="M2012.9,625.2l187.2,83.1c12.8,5.7,13.6,23.7,1.3,30.4l-164.1,89.6c-5.2,2.3-11.2-1-12-6.7
				l-25.1-189.5C1999.4,625.1,2007.5,620.7,2012.9,625.2z"/>
		</g>
		<g>
			<g>
				
					<rect x="1105.9" y="2808.2" transform="matrix(-1 -1.224647e-16 1.224647e-16 -1 2244.9827 5975.6245)" fill="#91B3FA" width="33.2" height="359.2"/>
				<path fill="#91B3FA" d="M977,3174.3h290.9v-19.7c0-1-0.8-1.9-1.9-1.9h-287c-1.1,0-2,0.9-2,2V3174.3z"/>
				<path fill="#91B3FA" d="M922,2795c0,20.9,17.1,38,38,38h312.8c20.9,0,38-17.1,38-38v-34.3c0-20.9-17.1-38-38-38H960
					c-20.9,0-38,17.1-38,38V2795z"/>
			</g>
			<g>
				<linearGradient id="SVGID_8_" gradientUnits="userSpaceOnUse" x1="1388.3188" y1="3034.8667" x2="1329.6884" y2="3150.1733">
					<stop  offset="0" style="stop-color:#09005D"/>
					<stop  offset="1" style="stop-color:#1A0F91"/>
				</linearGradient>
				<path fill="url(#SVGID_8_)" d="M1307.5,3103.8c0,0,94.8,68.4,78.4,114.3c0,0-103.8-44.8-116.3-80c-12.5-35.3,2.1-50.8,2.1-50.8
					L1307.5,3103.8z"/>
				<linearGradient id="SVGID_9_" gradientUnits="userSpaceOnUse" x1="1276.8287" y1="3080.7537" x2="1335.2354" y2="3080.7537">
					<stop  offset="0" style="stop-color:#FEBBBA"/>
					<stop  offset="1" style="stop-color:#FF928E"/>
				</linearGradient>
				<path fill="url(#SVGID_9_)" d="M1293.2,3046.5l-15.5,44.8c-2.3,6.8,0,14.5,6.1,18.3c3,1.9,7.2,3.7,12.8,5
					c8,1.8,16.2-1.9,20.1-9.1l18.6-34.9L1293.2,3046.5z"/>
				<linearGradient id="SVGID_10_" gradientUnits="userSpaceOnUse" x1="1196.0045" y1="2926.2131" x2="1444.2061" y2="2578.3398">
					<stop  offset="0" style="stop-color:#09005D"/>
					<stop  offset="1" style="stop-color:#1A0F91"/>
				</linearGradient>
				<path fill="url(#SVGID_10_)" d="M1142.3,2643c0,0,194.8,33.8,278.4,111c83.6,77.2-76.7,323.4-76.7,323.4s-26.3-0.2-58.1-27.4
					c0,0,95-185.2,13.1-239.2c-92.1-60.7-198.2-74.4-198.2-74.4l39.6-87.4L1142.3,2643z"/>
				<linearGradient id="SVGID_11_" gradientUnits="userSpaceOnUse" x1="1354.2936" y1="3151.4497" x2="1151.0408" y2="3417.2412">
					<stop  offset="0" style="stop-color:#09005D"/>
					<stop  offset="1" style="stop-color:#1A0F91"/>
				</linearGradient>
				<path fill="url(#SVGID_11_)" d="M1369.4,3192.7c-20.9-9.7-79.9-51-89.9-52.8c-10-1.8-27.2,9.9-27.2,9.9s-4.2,7.6,0.3,20.7
					c13.9,16.8,44.6,48.7,86,60.7c30.4,8.8,51.7,0.6,65-9C1396.3,3211,1383.3,3199.1,1369.4,3192.7z"/>
				<linearGradient id="SVGID_12_" gradientUnits="userSpaceOnUse" x1="1252.5751" y1="3209.0144" x2="1409.6279" y2="3209.0144">
					<stop  offset="0" style="stop-color:#4F52FF"/>
					<stop  offset="1" style="stop-color:#4042E2"/>
				</linearGradient>
				<path fill="url(#SVGID_12_)" d="M1338.6,3231.1c-41.4-11.9-72.2-43.9-86-60.7c3,8.9,10,20.4,25,33.8
					c37.1,33.3,107.9,45.4,123,43c12.1-1.9,10.9-13,3-25.2C1390.3,3231.7,1369,3239.9,1338.6,3231.1z"/>
				<linearGradient id="SVGID_13_" gradientUnits="userSpaceOnUse" x1="1234.5938" y1="3134.6541" x2="1289.4098" y2="3134.6541">
					<stop  offset="0" style="stop-color:#FEBBBA"/>
					<stop  offset="1" style="stop-color:#FF928E"/>
				</linearGradient>
				<path fill="url(#SVGID_13_)" d="M1234.6,3120.5c0.2,5.7,12,25.5,18.8,36.5c3.3,5.3,9,8.5,15.2,8.5c3.9,0,8.4-0.3,12.5-1.5
					c6.1-1.8,9.6-8.3,7.8-14.5l-13.4-45.8L1234.6,3120.5z"/>
				<linearGradient id="SVGID_14_" gradientUnits="userSpaceOnUse" x1="1106.5426" y1="3099.5627" x2="1120.2231" y2="2634.4277">
					<stop  offset="0" style="stop-color:#09005D"/>
					<stop  offset="1" style="stop-color:#1A0F91"/>
				</linearGradient>
				<path fill="url(#SVGID_14_)" d="M954.8,2584.5c0,0-43.3,115.7,0,150.9c43.3,35.2,146.5,74.8,169.5,144.9s62.2,206.2,114.5,254.5
					c0,0,36.8-3.6,50.6-18.2c0,0-29.8-203.3-49.5-255.4c-17-45.2-42.1-110.4-90.2-146.8c-13.8-10.4-11.4-27-5-43l11.6-29.2
					L954.8,2584.5z"/>
				<linearGradient id="SVGID_15_" gradientUnits="userSpaceOnUse" x1="1422.0157" y1="1602.5405" x2="1347.7738" y2="2311.2131">
					<stop  offset="0" style="stop-color:#FF928E"/>
					<stop  offset="1" style="stop-color:#FE7062"/>
				</linearGradient>
				<path fill="url(#SVGID_15_)" d="M1406,2493.8c-72.5,4.4-49.9-111.5-48.6-116.1l-110.1,77.8c0,0,5.8,62,97.4,94.5
					c23.2,8.2,44.3,8.6,63,4.6C1399.7,2531.2,1401.3,2510.3,1406,2493.8z"/>
				<linearGradient id="SVGID_16_" gradientUnits="userSpaceOnUse" x1="1551.817" y1="2172.8154" x2="1497.6714" y2="2525.9368">
					<stop  offset="0" style="stop-color:#FEBBBA"/>
					<stop  offset="1" style="stop-color:#FF928E"/>
				</linearGradient>
				<path fill="url(#SVGID_16_)" d="M1546.3,2458.9c-27-18.8-57.7,0-57.7,0c-36.1,23.6-62.9,33.7-82.6,34.9
					c-4.7,16.5-6.3,37.4,1.7,60.7c40.5-8.7,69.5-38,82-53c4.5-5.4,12.6-6.4,18.1-2c5.6,4.4,11.1,10.5,10.1,16.9
					c-2,12.6,12.7,16.6,13.8,12.1c1.1-4.6-5-31.7-5-31.7s29.3,29.5,40.8,40.8c11.4,11.3,25.8,0,25.8,0S1573.3,2477.7,1546.3,2458.9z
					"/>
				<linearGradient id="SVGID_17_" gradientUnits="userSpaceOnUse" x1="1255.9982" y1="1585.1504" x2="1181.7565" y2="2293.821">
					<stop  offset="0" style="stop-color:#FF928E"/>
					<stop  offset="1" style="stop-color:#FE7062"/>
				</linearGradient>
				<path fill="url(#SVGID_17_)" d="M1067.8,2198.7c0,0,105.5-42.3,301.9,119.9c0,0,16.4,34-1.5,64.2
					c-17.9,30.2-188.4,177.5-211.8,259.2c0,0-101.6,33-206.6-45.3C949.7,2596.7,959,2369.4,1067.8,2198.7z"/>
				<linearGradient id="SVGID_18_" gradientUnits="userSpaceOnUse" x1="1219.6398" y1="2220.3364" x2="1346.5099" y2="2220.3364">
					<stop  offset="0" style="stop-color:#FEBBBA"/>
					<stop  offset="1" style="stop-color:#FF928E"/>
				</linearGradient>
				<path fill="url(#SVGID_18_)" d="M1276.4,2161l-51.9,63c-5.2,6.3-6.3,15-2.7,22.2c7.2,14.7,24.3,36.1,62.3,33.2
					c11.3-0.9,21.3-7.7,26.2-17.9l36.3-75.1L1276.4,2161z"/>
				<linearGradient id="SVGID_19_" gradientUnits="userSpaceOnUse" x1="1063.4167" y1="1564.9736" x2="989.1749" y2="2273.6453">
					<stop  offset="0" style="stop-color:#FF928E"/>
					<stop  offset="1" style="stop-color:#FE7062"/>
				</linearGradient>
				<path fill="url(#SVGID_19_)" d="M986.1,2468.4c-12.3-49.9,111.8-161.1,111.8-161.1l-30.1-108.6c0,0-268,178.4-199.7,321.8
					c9.8,20.6,22.8,35,37.9,44.6C927.5,2507.1,961.9,2480.4,986.1,2468.4z"/>
				<linearGradient id="SVGID_20_" gradientUnits="userSpaceOnUse" x1="1001.5912" y1="2181.9656" x2="1025.2136" y2="2296.7031">
					<stop  offset="0" style="stop-color:#E1473D"/>
					<stop  offset="1" style="stop-color:#E9605A"/>
				</linearGradient>
				<path fill="url(#SVGID_20_)" d="M986,2461.2c-1.3,0-2.5-0.9-2.8-2.2c-12.5-51,107.6-159.4,112.7-164c1.2-1.1,3.1-1,4.1,0.2
					c1.1,1.2,1,3.1-0.2,4.1c-1.2,1.1-122.6,110.6-111,158.2c0.4,1.6-0.6,3.2-2.1,3.5C986.4,2461.2,986.2,2461.2,986,2461.2z"/>
				<linearGradient id="SVGID_21_" gradientUnits="userSpaceOnUse" x1="1133.1234" y1="2504.8381" x2="647.3968" y2="3348.8879">
					<stop  offset="0" style="stop-color:#FEBBBA"/>
					<stop  offset="1" style="stop-color:#FF928E"/>
				</linearGradient>
				<path fill="url(#SVGID_21_)" d="M1174,2464.2c0,0-147.1,57.1-183,14.2c-2.4-2.9-4-6.2-4.9-9.9c-24.1,12-58.5,38.6-80.1,96.7
					c77.4,49.4,209.6-27.5,245.4-50.2c5.9-3.7,12.9-5,19.8-3.6c13.8,2.9,37.6,7.1,50.5,5.1c18.8-2.9,45.8,63.4,76.3,43
					C1297.9,2559.4,1271.8,2444.1,1174,2464.2z"/>
				<g>
					
						<linearGradient id="SVGID_22_" gradientUnits="userSpaceOnUse" x1="11780.2373" y1="2105.7576" x2="11773.1748" y2="2312.9148" gradientTransform="matrix(0.8667 0.4989 -0.4989 0.8667 -8374.8066 -4673.8311)">
						<stop  offset="0" style="stop-color:#FEBBBA"/>
						<stop  offset="1" style="stop-color:#FF928E"/>
					</linearGradient>
					<path fill="url(#SVGID_22_)" d="M1401.8,2104.7c0,0-7.6,68-22.5,97.4c-14.8,29.4-19.3,51.5-55.6,38.3
						c-36.3-13.2-54.6-45.7-53.3-82.8c0,0,1.6-57.4,17.2-72.3C1303.3,2070.5,1401.8,2104.7,1401.8,2104.7z"/>
					
						<linearGradient id="SVGID_23_" gradientUnits="userSpaceOnUse" x1="11750.4912" y1="958.2776" x2="11891.8203" y2="1140.2384" gradientTransform="matrix(0.8667 0.4989 -0.4989 0.8667 -8374.8066 -4673.8311)">
						<stop  offset="0" style="stop-color:#09005D"/>
						<stop  offset="1" style="stop-color:#1A0F91"/>
					</linearGradient>
					<path fill="url(#SVGID_23_)" d="M1293.5,2143.7l4.2,2.4c0,0,3.1-45.1,21.8-42.6c18.7,2.5,85.5,24.7,110.6,10.9
						c24.2-13.3,28.3-46.1,16-63.1c-0.8-1.1-2.3-1.3-3.4-0.6l-2.9,1.8c-2,1.2-4.4-0.5-3.9-2.8l0,0c0.5-2.1-1.7-4-3.7-2.9
						c-7.6,4.1-24.2,8.2-56-3c-45-15.9-81.4-14.9-98.3,12.8c-1.1,1.8-3.5,1.6-4.5-0.2c-2-3.6-6.3-7.2-15.8-5.5
						c-16.6,3-26,30-13.1,64.1c0.6,1.6-0.4,3.4-2.2,3.5c-6.1,0.3-16.7,3.4-4.8,22.5c12.1,19.5,23.1,24.4,27.6,25.7
						c1.2,0.3,2.5-0.2,3-1.3l12.8-25.8c0.7-1.3,2.3-1.8,3.6-1.1L1293.5,2143.7z"/>
					
						<linearGradient id="SVGID_24_" gradientUnits="userSpaceOnUse" x1="11729.1201" y1="2104.0278" x2="11722.0576" y2="2311.188" gradientTransform="matrix(0.8667 0.4989 -0.4989 0.8667 -8374.8066 -4673.8311)">
						<stop  offset="0" style="stop-color:#FEBBBA"/>
						<stop  offset="1" style="stop-color:#FF928E"/>
					</linearGradient>
					<path fill="url(#SVGID_24_)" d="M1291.5,2149.5c0,0,11-39.9-10.2-39.1c-21.2,0.8-14.3,43.6-2.6,52.1L1291.5,2149.5z"/>
				</g>
			</g>
			<g>
				
					<linearGradient id="SVGID_25_" gradientUnits="userSpaceOnUse" x1="12378.582" y1="3165.1069" x2="12129.8721" y2="3233.2717" gradientTransform="matrix(-0.9988 -4.940000e-02 -4.940000e-02 0.9988 13717.0957 -55.0327)">
					<stop  offset="0" style="stop-color:#09005D"/>
					<stop  offset="1" style="stop-color:#1A0F91"/>
				</linearGradient>
				<path fill="url(#SVGID_25_)" d="M1249.4,2576.8c0.2,0,0.5,0,0.7,0l308.7-0.3c7.6,0,13.8-6.2,13.8-13.8c0-7.6-6.2-13.9-13.8-13.8
					l-308.7,0.3c-7.6,0-13.8,6.2-13.8,13.8C1236.3,2570.4,1242.1,2576.4,1249.4,2576.8z"/>
				
					<linearGradient id="SVGID_26_" gradientUnits="userSpaceOnUse" x1="12141.998" y1="2334.1055" x2="11965.5273" y2="2520.6243" gradientTransform="matrix(-1 0 0 1 13675.626 0)">
					<stop  offset="0" style="stop-color:#09005D"/>
					<stop  offset="1" style="stop-color:#1A0F91"/>
				</linearGradient>
				<path fill="url(#SVGID_26_)" d="M1836.3,2296.5h-257.1c-19,0-36.2,10.9-44.3,28.1l-118.8,252h319.5c12.2,0,23.2-7.5,27.7-18.8
					l92.2-233.2C1860.7,2311.1,1850.8,2296.5,1836.3,2296.5z"/>
				
					<linearGradient id="SVGID_27_" gradientUnits="userSpaceOnUse" x1="12035.3135" y1="2380.5474" x2="11955.2422" y2="2501.1255" gradientTransform="matrix(-1 0 0 1 13675.626 0)">
					<stop  offset="0" style="stop-color:#53D8FF"/>
					<stop  offset="1" style="stop-color:#3840F7"/>
				</linearGradient>
				<path fill="url(#SVGID_27_)" d="M1655.2,2425.7c-5.6,17.3-1.5,34.1,9.2,37.5c10.6,3.4,23.8-7.8,29.4-25.1
					c5.6-17.3,1.5-34.1-9.2-37.5C1673.9,2397.2,1660.7,2408.4,1655.2,2425.7z"/>
			</g>
			<g>
				<g>
					<path fill="#7D97F4" d="M1794.6,3238.9c1.7,0,3.4-0.3,5.1-1c6.6-2.7,9.6-10.1,6.8-16.5l-272.1-612.3c-2.8-6.4-10.5-9.3-17-6.6
						c-6.6,2.7-9.6,10.1-6.8,16.5l272.1,612.3C1784.8,3236,1789.6,3238.9,1794.6,3238.9z"/>
					<path fill="#7D97F4" d="M1488.1,3238.9c5,0,9.8-2.8,11.9-7.6l272.1-612.3c2.8-6.4-0.2-13.8-6.8-16.5c-6.6-2.7-14.2,0.2-17,6.6
						l-272.1,612.3c-2.8,6.4,0.2,13.8,6.8,16.5C1484.7,3238.5,1486.4,3238.9,1488.1,3238.9z"/>
					<path fill="#7D97F4" d="M952.5,3238.9c1.7,0,3.4-0.3,5.1-1c6.6-2.7,9.6-10.1,6.8-16.5l-272.1-612.3c-2.8-6.4-10.5-9.3-17-6.6
						c-6.6,2.7-9.6,10.1-6.8,16.5l272.1,612.3C942.7,3236,947.5,3238.9,952.5,3238.9z"/>
					<path fill="#7D97F4" d="M646,3238.9c5,0,9.8-2.8,11.9-7.6L930,2619c2.8-6.4-0.2-13.8-6.8-16.5c-6.6-2.7-14.2,0.2-17,6.6
						l-272.1,612.3c-2.8,6.4,0.2,13.8,6.8,16.5C642.6,3238.5,644.3,3238.9,646,3238.9z"/>
				</g>
				<path fill="#7D97F4" d="M614.1,2590.2c-0.7-4,0.3-8.2,2.6-11.3c2.3-3.2,5.8-5,9.4-5h1237.6c4.8,0,9.3,2.7,11.9,7.3
					c2.6,4.5,2.9,10.2,0.9,15.1l-13.4,32.5c-3.1,7.4-9.7,12.2-17,12.2H634.6c-6.8,0-12.7-5.4-14-12.9L614.1,2590.2z"/>
			</g>
		</g>
	</g>
	<g>
	</g>
	<g>
	</g>
	<g>
	</g>
	<g>
	</g>
	<g>
	</g>
	<g>
	</g>
	<g>
	</g>
	<g>
	</g>
	<g>
	</g>
	<g>
	</g>
	<g>
	</g>
	<g>
	</g>
	<g>
	</g>
	<g>
	</g>
	<g>
	</g>
</g>
</svg>
