<?xml version="1.0" encoding="utf-8"?>
<!-- Generator: Adobe Illustrator 25.2.1, SVG Export Plug-In . SVG Version: 6.00 Build 0)  -->
<svg version="1.1" xmlns="http://www.w3.org/2000/svg" xmlns:xlink="http://www.w3.org/1999/xlink" x="0px" y="0px"
	 viewBox="0 0 3710 3710" enable-background="new 0 0 3710 3710" xml:space="preserve">
<g id="Background">
</g>
<g id="Illustration">
	<g>
		
			<linearGradient id="SVGID_1_" gradientUnits="userSpaceOnUse" x1="-1038.6871" y1="1350.7047" x2="-3119.1045" y2="-894.8252" gradientTransform="matrix(-0.9748 -0.1323 0.1345 -0.9909 -654.8552 1069.4224)">
			<stop  offset="0" style="stop-color:#DAE3FE"/>
			<stop  offset="1" style="stop-color:#E9EFFD"/>
		</linearGradient>
		<path fill="url(#SVGID_1_)" d="M649.9,1174.7C1018.4,550.5,1792.6,366,2362.3,492.7c155.6,34.6,468.6,104.2,683.5,375.4
			c412.8,520.8,210.2,1464.9-320.5,1964.8c-68.3,64.4-539.2,494-1169.7,401.8c-461.6-67.5-749.9-376.9-784.9-415.4
			c-44.2-48.5-140.6-162.7-218.3-333.6C369.9,2084.1,419.6,1564.9,649.9,1174.7z"/>
		<g>
			<g>
				<path fill="#91B3FA" d="M2455.7,2218.9c0,0-9.1-382.6,167.1-485c176.2-102.4,511.3-166.4,523.8-715.8
					c7.4-321.6,15.3-462.2,20.6-523.6c2.1-23.9-19.2-43.2-42.8-38.8c-166.9,31.4-709,160.8-822.7,530.9
					C2167.1,1425.4,2455.7,2218.9,2455.7,2218.9z"/>
				<path opacity="0.27" fill="#FFFFFF" d="M2995.5,608.7c-183.2,163.4-395,452.5-507.9,741.7c-14.5,47.7-56.9,149-75.3,329.1
					c-16.4,150.2-8.3,308.9,11.7,413.9c1.3,6.6,7.7,11,14.3,9.7c11.4-2.2,9.9-14.4,9.8-14.1c-22.8-179.5-13.3-402.8,38.9-604.4
					c66.7-247.5,215.3-487.4,369.1-690.9l15.8-20c119.1-153,144.2-154.1,133.1-164.8C3002.3,606.3,2998.1,606.3,2995.5,608.7z"/>
			</g>
			<g>
				<path fill="#BDD0FB" d="M2172.5,2954.5c-23.8,11.7,225.7-302.1,303.9-795c36.8-232.2,37.3-523.2,169.6-635.4
					c110.1-93.3,484.8-34.4,607.4-12c15.3,2.8,20.5,22.1,8.6,32.2c-58.8,49.4-184.6,165.8-217.3,283.2
					c-43.2,154.7-190.3,253.1-321.9,279.7c-131.7,26.6-204.9,52.5-269.1,263.1C2389.5,2580.9,2240.3,2921.3,2172.5,2954.5z"/>
				<path opacity="0.27" fill="#FFFFFF" d="M3081,1577.5c-156.4,6.6-324.3,77.9-409.5,211.7l-8,12.8
					c-18.6,29.9-123.8,242.8-182.3,419.3c-0.7,2.2,0.5,4.6,2.7,5.3c3.7,1.2,5.6-2.9,5.3-2.5c40.7-99.7,99.2-226.1,145.8-320.6
					c50-103.1,84.9-173,198.9-239.9c126.9-72.1,248-79.5,247.7-79.4c1.8-0.2,3.2-1.8,3-3.7C3084.3,1578.7,3082.8,1577.4,3081,1577.5
					z"/>
			</g>
		</g>
		<g>
			
				<linearGradient id="SVGID_2_" gradientUnits="userSpaceOnUse" x1="-4081.3682" y1="16674.498" x2="-3907.4822" y2="15723.2441" gradientTransform="matrix(-2.580000e-02 -0.9997 -0.9997 2.580000e-02 4378.0654 902.5956)">
				<stop  offset="0" style="stop-color:#FF928E"/>
				<stop  offset="1" style="stop-color:#FE7062"/>
			</linearGradient>
			<path fill="url(#SVGID_2_)" d="M925,2976.5c-225.7-91.3-351.6-345.1-354.2-517.1l71.1-48.7c60.7,164,114.9,276.9,279.5,336.6
				c8.9,3.2,15,11.6,15.2,21.1l5.1,196.5C941.9,2973.6,933.1,2979.8,925,2976.5z"/>
			
				<linearGradient id="SVGID_3_" gradientUnits="userSpaceOnUse" x1="-3758.0002" y1="16733.8164" x2="-3584.1118" y2="15782.5479" gradientTransform="matrix(-2.580000e-02 -0.9997 -0.9997 2.580000e-02 4378.0654 902.5956)">
				<stop  offset="0" style="stop-color:#FF928E"/>
				<stop  offset="1" style="stop-color:#FE7062"/>
			</linearGradient>
			<path fill="url(#SVGID_3_)" d="M523.5,2520c-7.2,2.4-14-4.6-11.4-11.7l79.3-213.7c2.6-4.7,9.1-5,12.2-0.7l105,148.7
				c4.1,5.8,1.5,14-5.3,16.2L523.5,2520z"/>
		</g>
		<g>
			
				<linearGradient id="SVGID_4_" gradientUnits="userSpaceOnUse" x1="-4574.5166" y1="11337.1191" x2="-4231.8516" y2="10370.498" gradientTransform="matrix(-4.710000e-02 0.9989 -0.9989 -4.710000e-02 6657.5078 3413.3613)">
				<stop  offset="0" style="stop-color:#FF928E"/>
				<stop  offset="1" style="stop-color:#FE7062"/>
			</linearGradient>
			<path fill="url(#SVGID_4_)" d="M2687.1,983.1c218.6,107.1,326.1,369.3,316.4,541.1l-74.4,43.5
				c-48.8-167.9-94.8-284.4-254.8-355.7c-8.7-3.9-14.1-12.6-13.7-22.1l9-196.4C2670.1,984.8,2679.3,979.2,2687.1,983.1z"/>
			
				<linearGradient id="SVGID_5_" gradientUnits="userSpaceOnUse" x1="-4388.2617" y1="11403.165" x2="-4045.5952" y2="10436.54" gradientTransform="matrix(-4.710000e-02 0.9989 -0.9989 -4.710000e-02 6657.5078 3413.3613)">
				<stop  offset="0" style="stop-color:#FF928E"/>
				<stop  offset="1" style="stop-color:#FE7062"/>
			</linearGradient>
			<path fill="url(#SVGID_5_)" d="M3111.7,1469.5l-73.7,243.8c-5.1,16.7-27.1,20.4-37.3,6.2L2864.8,1531c-3.7-6.1-0.5-14,6.4-15.8
				l229.9-60.1C3109.6,1452.8,3116.4,1462.2,3111.7,1469.5z"/>
		</g>
		<g>
			<g>
				<linearGradient id="SVGID_6_" gradientUnits="userSpaceOnUse" x1="1705.4897" y1="386.723" x2="1280.9871" y2="2683.1289">
					<stop  offset="0" style="stop-color:#E1473D"/>
					<stop  offset="1" style="stop-color:#E9605A"/>
				</linearGradient>
				<path fill="url(#SVGID_6_)" d="M551,699.9h1958.4c53.4,0,96.4,36.3,95.4,80.5l-27.6,1259.2c-1.3,59.3-60.1,106.5-180.5,105.8
					l-1823.2-19c-63.3-0.7-116.4-33.7-118.9-75.9c-0.1-1.3-0.1-2.7-0.1-4L455.5,779C455.6,735.3,498.3,699.9,551,699.9z"/>
				<linearGradient id="SVGID_7_" gradientUnits="userSpaceOnUse" x1="1577.1318" y1="764.9022" x2="1388.1653" y2="2938.0359">
					<stop  offset="0" style="stop-color:#FEBBBA"/>
					<stop  offset="1" style="stop-color:#FF928E"/>
				</linearGradient>
				<path fill="url(#SVGID_7_)" d="M594.2,734h1880.6c51.3,0,92.6,34.5,91.7,76.5L2539.9,2007c-1.2,56.3-57.7,101.2-126.4,100.5
					l-1821.4-18.7c-50.2-0.5-90.5-34-90.5-75.2l0.9-1204.4C502.6,767.7,543.6,734,594.2,734z"/>
			</g>
			<linearGradient id="SVGID_8_" gradientUnits="userSpaceOnUse" x1="1553.1129" y1="749.3659" x2="1450.8223" y2="1680.2074">
				<stop  offset="0" style="stop-color:#FF928E"/>
				<stop  offset="1" style="stop-color:#FE7062"/>
			</linearGradient>
			<path fill="url(#SVGID_8_)" d="M2582.9,894.5l2-88.1c0.9-42-40.8-75.6-92.5-75.6H594.2c-51.1,0-92.5,32.6-92.5,74.1l-0.1,89.5
				H2582.9z"/>
			<path opacity="0.27" fill="#FFFFFF" d="M2015.1,854.7h-808.9c-13.3,3.8-24.1-5.2-24.1-16.3v-29.7c0-11.1,10.8-20,24.1-20h808.9
				c13.3,0,24.1,9,24.1,20v29.7C2039.3,849.5,2028.5,858.4,2015.1,854.7z"/>
			<linearGradient id="SVGID_9_" gradientUnits="userSpaceOnUse" x1="1312.0492" y1="257.6346" x2="1162.9287" y2="1565.3118">
				<stop  offset="0" style="stop-color:#FF928E"/>
				<stop  offset="1" style="stop-color:#FE7062"/>
			</linearGradient>
			<path fill="url(#SVGID_9_)" d="M1778.3,1614c0,41.6-33.7,75.3-75.2,75.4l-1055.9,2.2c-27.6,0-50-22.9-50-51.1v-560.9
				c0-28.5,22.8-51.5,50.7-51.1l1081.2,17.2c27.3,0.4,49.2,23.2,49.2,51.1V1614z"/>
			<path opacity="0.27" fill="#FFFFFF" d="M1787.6,2077.6l-513.2-4.3c-17.3-0.1-31.3-8.7-31.2-19.1l2.6-308.7
				c0.1-10.2,13.7-18.5,30.7-18.6l506.8,7.5c21.5,0.3,38.7,11,38.5,23.8l-2.7,300.8C1819,2069.4,1804.9,2077.8,1787.6,2077.6z"/>
			<path opacity="0.27" fill="#FFFFFF" d="M1134.9,2075.4l-513.2-4.3c-17.3-0.1-31.3-8.7-31.2-19.1l2.6-308.7
				c0.1-10.2,13.7-18.5,30.7-18.6l506.8,7.5c21.5,0.3,38.7,11,38.5,23.8l-2.7,300.8C1166.3,2067.3,1152.2,2075.6,1134.9,2075.4z"/>
			<path opacity="0.27" fill="#FFFFFF" d="M2433.7,2087.1l-513.2-4.3c-17.3-0.1-31.3-8.7-31.2-19.1l2.6-308.7
				c0.1-10.2,13.7-18.5,30.7-18.6l506.8,7.5c21.5,0.3,38.7,11,38.5,23.8l-2.7,300.8C2465.1,2078.9,2451,2087.2,2433.7,2087.1z"/>
			<path opacity="0.27" fill="#FFFFFF" d="M2396.7,1686.4h-496c-31.9,0-57.7-16.8-57.7-37.6V1062c0-17.4,20.9-31.6,46.9-31.7
				l509.3-1.9c30.8,0.9,55.2,17.4,55.2,37.6v582.8C2454.3,1669.6,2428.5,1686.4,2396.7,1686.4z"/>
			<g>
				<path fill="#FFFFFF" d="M922.7,839.4c-23.4,0-42.4-19-42.4-42.4c0-23.4,19-42.4,42.4-42.4c23.4,0,42.4,19,42.4,42.4
					C965.2,820.4,946.1,839.4,922.7,839.4z M922.7,761.3c-19.6,0-35.6,16-35.6,35.6s16,35.6,35.6,35.6c19.6,0,35.6-16,35.6-35.6
					S942.4,761.3,922.7,761.3z"/>
				<path fill="#FFFFFF" d="M787.6,842.6c-23.4,0-42.4-19-42.4-42.4c0-23.4,19-42.4,42.4-42.4c23.4,0,42.4,19,42.4,42.4
					C830.1,823.5,811,842.6,787.6,842.6z M787.6,764.5c-19.6,0-35.6,16-35.6,35.6c0,19.6,16,35.6,35.6,35.6
					c19.6,0,35.6-16,35.6-35.6C823.3,780.5,807.3,764.5,787.6,764.5z"/>
				<path fill="#FFFFFF" d="M657.8,842.6c-23.4,0-42.4-19-42.4-42.4c0-23.4,19-42.4,42.4-42.4c23.4,0,42.4,19,42.4,42.4
					C700.3,823.5,681.2,842.6,657.8,842.6z M657.8,764.5c-19.6,0-35.6,16-35.6,35.6c0,19.6,16,35.6,35.6,35.6s35.6-16,35.6-35.6
					C693.5,780.5,677.5,764.5,657.8,764.5z"/>
			</g>
			<g opacity="0.91">
				<path fill="#FFFFFF" d="M1220.3,1472.3c-57.5,0-104.2-46.7-104.2-104.1c0-57.5,46.7-104.2,104.1-104.2
					c57.5,0,104.2,46.7,104.2,104.1v0.1C1324.4,1425.6,1277.7,1472.3,1220.3,1472.3z M1220.3,1270.2c-54.1,0-98,43.9-98,97.9
					c0,54.1,43.9,98,97.9,98c54.1,0,98-43.9,98-97.9v-0.1C1318.2,1314.1,1274.3,1270.2,1220.3,1270.2z"/>
				<path fill="#FFFFFF" d="M1191.5,1420.5c-2.9,0-5.3-2.3-5.4-5.2l-2.5-91.9c-0.1-3,1.4-5.8,3.9-7.5c2.5-1.7,5.7-1.9,8.4-0.6
					l90.8,42.5c3,1.4,4.9,4.3,5,7.6c0.1,3.3-1.7,6.3-4.6,7.9l-80.2,42.7c-2.6,1.4-5.9,0.4-7.3-2.2c-1.4-2.6-0.4-5.9,2.2-7.3
					l76.4-40.8l-83.9-39.3l2.4,88.5c0.1,3-2.3,5.5-5.2,5.5C1191.6,1420.5,1191.6,1420.5,1191.5,1420.5z"/>
			</g>
		</g>
		<g>
			<g>
				<linearGradient id="SVGID_10_" gradientUnits="userSpaceOnUse" x1="3119.7197" y1="1369.194" x2="1385.9087" y2="3384.302">
					<stop  offset="0" style="stop-color:#4F52FF"/>
					<stop  offset="1" style="stop-color:#4042E2"/>
				</linearGradient>
				<path fill="url(#SVGID_10_)" d="M1163.1,1809.5h1958.4c53.4,0,96.4,36.3,95.4,80.5l-27.6,1259.2
					c-1.3,59.3-60.1,106.5-180.5,105.8l-1823.2-19c-63.3-0.7-116.4-33.7-118.9-75.9c-0.1-1.3-0.1-2.7-0.1-4l0.9-1267.6
					C1067.6,1844.9,1110.4,1809.5,1163.1,1809.5z"/>
				<path fill="#91B3FA" d="M1206.3,1843.6h1880.6c51.3,0,92.6,34.5,91.7,76.5L3152,3116.5c-1.2,56.3-57.7,101.2-126.4,100.5
					l-1821.4-18.7c-50.2-0.5-90.5-34-90.5-75.2l0.9-1204.4C1114.6,1877.2,1155.7,1843.6,1206.3,1843.6z"/>
			</g>
			<linearGradient id="SVGID_11_" gradientUnits="userSpaceOnUse" x1="1209.3022" y1="2469.5679" x2="2390.3921" y2="2469.5679">
				<stop  offset="0" style="stop-color:#4F52FF"/>
				<stop  offset="1" style="stop-color:#4042E2"/>
			</linearGradient>
			<path fill="url(#SVGID_11_)" d="M2390.4,2723.6c0,41.6-33.7,75.3-75.2,75.4l-1055.9,2.2c-27.6,0-50-22.9-50-51.1v-560.9
				c0-28.5,22.8-51.5,50.7-51.1l1081.2,17.2c27.3,0.4,49.2,23.2,49.2,51.1V2723.6z"/>
			<path opacity="0.27" fill="#FFFFFF" d="M2399.6,3187.2l-513.2-4.3c-17.3-0.1-31.3-8.7-31.2-19.1l2.6-308.7
				c0.1-10.2,13.7-18.5,30.7-18.6l506.8,7.5c21.5,0.3,38.7,11,38.5,23.8l-2.7,300.8C2431.1,3179,2417,3187.3,2399.6,3187.2z"/>
			<path opacity="0.27" fill="#FFFFFF" d="M1746.9,3185l-513.2-4.3c-17.3-0.1-31.3-8.7-31.2-19.1l2.6-308.7
				c0.1-10.2,13.7-18.5,30.7-18.6l506.8,7.5c21.5,0.3,38.7,11,38.5,23.8l-2.7,300.8C1778.4,3176.8,1764.3,3185.1,1746.9,3185z"/>
			<path opacity="0.27" fill="#FFFFFF" d="M3045.7,3196.6l-513.2-4.3c-17.3-0.1-31.3-8.7-31.2-19.1l2.6-308.7
				c0.1-10.2,13.7-18.5,30.7-18.6l506.8,7.5c21.5,0.3,38.7,11,38.5,23.8l-2.7,300.8C3077.2,3188.4,3063.1,3196.8,3045.7,3196.6z"/>
			<path opacity="0.27" fill="#FFFFFF" d="M3008.7,2795.9h-496c-31.9,0-57.7-16.8-57.7-37.6v-586.8c0-17.4,20.9-31.6,46.9-31.7
				l509.3-1.9c30.8,0.9,55.2,17.4,55.2,37.6v582.8C3066.4,2779.1,3040.6,2795.9,3008.7,2795.9z"/>
			<g>
				<g>
					<path fill="#BDD0FB" d="M1832.4,2581.8c-57.5,0-104.2-46.7-104.2-104.1c0-57.5,46.7-104.2,104.1-104.2
						c57.5,0,104.2,46.7,104.2,104.1v0.1C1936.4,2535.2,1889.8,2581.8,1832.4,2581.8z M1832.4,2379.7c-54.1,0-98,43.9-98,97.9
						c0,54.1,43.9,98,97.9,98c54.1,0,98-43.9,98-97.9v-0.1C1930.3,2423.7,1886.4,2379.7,1832.4,2379.7z"/>
				</g>
				<path fill="#BDD0FB" d="M1803.6,2530c-2.9,0-5.3-2.3-5.4-5.2l-2.5-91.9c-0.1-3,1.4-5.8,3.9-7.5c2.5-1.7,5.7-1.9,8.4-0.6
					l90.8,42.5c3,1.4,4.9,4.3,5,7.6c0.1,3.3-1.7,6.3-4.6,7.9l-80.2,42.7c-2.6,1.4-5.9,0.4-7.3-2.2c-1.4-2.6-0.4-5.9,2.2-7.3
					l76.4-40.8l-83.9-39.3l2.4,88.5c0.1,3-2.3,5.5-5.2,5.5C1803.7,2530,1803.7,2530,1803.6,2530z"/>
			</g>
			<linearGradient id="SVGID_12_" gradientUnits="userSpaceOnUse" x1="2409.428" y1="615.3774" x2="2036.0674" y2="2574.2361">
				<stop  offset="0" style="stop-color:#4F52FF"/>
				<stop  offset="1" style="stop-color:#4042E2"/>
			</linearGradient>
			<path fill="url(#SVGID_12_)" d="M3196.6,1992.4l2-88.1c0.9-42-40.8-75.6-92.5-75.6H1208c-51.1,0-92.5,32.6-92.5,74.1l-0.1,89.5
				H3196.6z"/>
			<path fill="#7D97F4" d="M2628.9,1952.7H1820c-13.3,3.8-24.1-5.2-24.1-16.3v-29.7c0-11.1,10.8-20,24.1-20h808.9
				c13.3,0,24.1,9,24.1,20v29.7C2653.1,1947.4,2642.2,1956.4,2628.9,1952.7z"/>
			<g>
				<path fill="#BDD0FB" d="M1536.5,1937.4c-23.4,0-42.4-19-42.4-42.4c0-23.4,19-42.4,42.4-42.4c23.4,0,42.4,19,42.4,42.4
					C1578.9,1918.3,1559.9,1937.4,1536.5,1937.4z M1536.5,1859.3c-19.6,0-35.6,16-35.6,35.6c0,19.6,16,35.6,35.6,35.6
					c19.6,0,35.6-16,35.6-35.6C1572.1,1875.3,1556.1,1859.3,1536.5,1859.3z"/>
				<path fill="#BDD0FB" d="M1401.4,1940.5c-23.4,0-42.4-19-42.4-42.4c0-23.4,19-42.4,42.4-42.4c23.4,0,42.4,19,42.4,42.4
					C1443.8,1921.5,1424.8,1940.5,1401.4,1940.5z M1401.4,1862.5c-19.6,0-35.6,16-35.6,35.6c0,19.6,16,35.6,35.6,35.6
					c19.6,0,35.6-16,35.6-35.6C1437,1878.5,1421,1862.5,1401.4,1862.5z"/>
				<path fill="#BDD0FB" d="M1271.6,1940.5c-23.4,0-42.4-19-42.4-42.4c0-23.4,19-42.4,42.4-42.4c23.4,0,42.4,19,42.4,42.4
					C1314,1921.5,1295,1940.5,1271.6,1940.5z M1271.6,1862.5c-19.6,0-35.6,16-35.6,35.6c0,19.6,16,35.6,35.6,35.6s35.6-16,35.6-35.6
					C1307.2,1878.5,1291.2,1862.5,1271.6,1862.5z"/>
			</g>
		</g>
	</g>
	<g>
	</g>
	<g>
	</g>
	<g>
	</g>
	<g>
	</g>
	<g>
	</g>
	<g>
	</g>
	<g>
	</g>
	<g>
	</g>
	<g>
	</g>
	<g>
	</g>
	<g>
	</g>
	<g>
	</g>
	<g>
	</g>
	<g>
	</g>
	<g>
	</g>
</g>
</svg>
