<?xml version="1.0" encoding="utf-8"?>
<!-- Generator: Adobe Illustrator 25.2.1, SVG Export Plug-In . SVG Version: 6.00 Build 0)  -->
<svg version="1.1" xmlns="http://www.w3.org/2000/svg" xmlns:xlink="http://www.w3.org/1999/xlink" x="0px" y="0px"
	 viewBox="0 0 3710 3710" enable-background="new 0 0 3710 3710" xml:space="preserve">
<g id="Background">
</g>
<g id="Illustration">
	<linearGradient id="SVGID_1_" gradientUnits="userSpaceOnUse" x1="3420.5264" y1="3604.6101" x2="1373.0994" y2="1394.6887">
		<stop  offset="0" style="stop-color:#DAE3FE"/>
		<stop  offset="1" style="stop-color:#E9EFFD"/>
	</linearGradient>
	<path fill="url(#SVGID_1_)" d="M3135.2,2345.3c-281.3,657.6-1024,940-1605.8,891.9c-158.9-13.1-478.5-39.6-728.1-275.6
		C322,2508.2,395.8,1560.8,854.6,1002.9c59.1-71.8,468.1-553.1,1105.5-546.7c466.6,4.7,794.2,268.3,834,301.2
		c50.3,41.5,161.3,140.1,261.3,296.5C3290.4,1421.3,3311,1934.3,3135.2,2345.3z"/>
	<g>
		<linearGradient id="SVGID_2_" gradientUnits="userSpaceOnUse" x1="2346.343" y1="663.1387" x2="2339.6064" y2="-448.5135">
			<stop  offset="0" style="stop-color:#E1473D"/>
			<stop  offset="1" style="stop-color:#E9605A"/>
		</linearGradient>
		<rect x="1563.2" y="1117.5" fill="url(#SVGID_2_)" width="1579.9" height="1323.9"/>
		<g>
			<linearGradient id="SVGID_3_" gradientUnits="userSpaceOnUse" x1="2045.9099" y1="-1558.5095" x2="2241.291" y2="132.5499">
				<stop  offset="0" style="stop-color:#FF928E"/>
				<stop  offset="1" style="stop-color:#FE7062"/>
			</linearGradient>
			<path fill="url(#SVGID_3_)" d="M3197.9,945.7l-1690.5,10.6c-22.9,0.1-41.8,16.9-41.8,37.5v252.2c0,19.8,17.8,35.9,39.9,36.1
				l1692.5,10.6c25.1,0.2,46.2-16.9,46.2-38V983.7C3244.1,962.6,3223,945.5,3197.9,945.7z"/>
			<g>
				<linearGradient id="SVGID_4_" gradientUnits="userSpaceOnUse" x1="2924.1672" y1="-386.2959" x2="2499.7383" y2="634.3537">
					<stop  offset="0" style="stop-color:#FEBBBA"/>
					<stop  offset="1" style="stop-color:#FF928E"/>
				</linearGradient>
				<path fill="url(#SVGID_4_)" d="M3197.1,945.7l-1691.7,10.6c-22.1,0.1-39.9,16.3-39.9,36.1l1777.1-8.7
					C3242.6,962.6,3222.2,945.5,3197.1,945.7z"/>
				<linearGradient id="SVGID_5_" gradientUnits="userSpaceOnUse" x1="2849.3237" y1="-74.3875" x2="2485.5286" y2="900.7847">
					<stop  offset="0" style="stop-color:#FEBBBA"/>
					<stop  offset="1" style="stop-color:#FF928E"/>
				</linearGradient>
				<path fill="url(#SVGID_5_)" d="M1505.4,1282.1l1691.7,10.6c25.1,0.2,45.5-16.9,45.5-38l-1777.1-8.7
					C1465.4,1265.8,1483.3,1282,1505.4,1282.1z"/>
			</g>
		</g>
		<g>
			<linearGradient id="SVGID_6_" gradientUnits="userSpaceOnUse" x1="1995.838" y1="-1552.7203" x2="2191.2192" y2="138.3392">
				<stop  offset="0" style="stop-color:#FF928E"/>
				<stop  offset="1" style="stop-color:#FE7062"/>
			</linearGradient>
			<path fill="url(#SVGID_6_)" d="M3199.2,1366.3l-1691.8-3.5c-23.7,0-43.2,17.1-43.5,38.2l-3.2,260.4c-0.2,20.5,18,37.2,40.8,37.4
				l1697.7,14.8c24.4,0.2,45-16.8,45-38v-271.1C3244.1,1383.5,3223.6,1366.4,3199.2,1366.3z"/>
			<g>
				<linearGradient id="SVGID_7_" gradientUnits="userSpaceOnUse" x1="2536.856" y1="1020.0089" x2="2284.2209" y2="1540.4377">
					<stop  offset="0" style="stop-color:#FEBBBA"/>
					<stop  offset="1" style="stop-color:#FF928E"/>
				</linearGradient>
				<path fill="url(#SVGID_7_)" d="M3198.4,1366.3l-1693-3.5c-22.8,0-41.4,16.4-41.7,36.8l1778.8,5
					C3242.6,1383.5,3222.8,1366.4,3198.4,1366.3z"/>
				<linearGradient id="SVGID_8_" gradientUnits="userSpaceOnUse" x1="2927.7937" y1="330.4636" x2="2281.0449" y2="1836.1743">
					<stop  offset="0" style="stop-color:#FEBBBA"/>
					<stop  offset="1" style="stop-color:#FF928E"/>
				</linearGradient>
				<path fill="url(#SVGID_8_)" d="M1501.4,1698.8l1696.9,14.8c24.4,0.2,44.2-16.8,44.2-38l-1782-14.3
					C1460.3,1681.9,1478.6,1698.6,1501.4,1698.8z"/>
			</g>
		</g>
		<g>
			<linearGradient id="SVGID_9_" gradientUnits="userSpaceOnUse" x1="1949.3359" y1="-1547.3523" x2="2144.7168" y2="143.7051">
				<stop  offset="0" style="stop-color:#FF928E"/>
				<stop  offset="1" style="stop-color:#FE7062"/>
			</linearGradient>
			<path fill="url(#SVGID_9_)" d="M3199.9,1787.8H1509.7c-24.4,0-44.2,18-44.2,40v269.6c0,21.2,19,37.4,42.6,37.4h1691.9
				c23.5,0,44.2-16.2,44.2-37.4v-271.1C3244.1,1805.2,3223.5,1787.8,3199.9,1787.8z"/>
			<g>
				<linearGradient id="SVGID_10_" gradientUnits="userSpaceOnUse" x1="2918.6516" y1="493.4827" x2="2201.1628" y2="2181.0938">
					<stop  offset="0" style="stop-color:#FEBBBA"/>
					<stop  offset="1" style="stop-color:#FF928E"/>
				</linearGradient>
				<path fill="url(#SVGID_10_)" d="M3199.9,1787.8H1508.1c-23.5,0-42.6,16.8-42.6,37.1h1777.1
					C3242.6,1804.7,3223.5,1787.8,3199.9,1787.8z"/>
				<linearGradient id="SVGID_11_" gradientUnits="userSpaceOnUse" x1="2879.3206" y1="1093.3247" x2="2439.7354" y2="1937.1271">
					<stop  offset="0" style="stop-color:#FEBBBA"/>
					<stop  offset="1" style="stop-color:#FF928E"/>
				</linearGradient>
				<path fill="url(#SVGID_11_)" d="M1508.1,2134.8h1691.9c23.5,0,42.6-16.8,42.6-37.1H1465.4
					C1465.4,2118,1484.5,2134.8,1508.1,2134.8z"/>
			</g>
		</g>
		<g>
			<linearGradient id="SVGID_12_" gradientUnits="userSpaceOnUse" x1="1900.6627" y1="-1541.7278" x2="2096.0437" y2="149.3305">
				<stop  offset="0" style="stop-color:#FF928E"/>
				<stop  offset="1" style="stop-color:#FE7062"/>
			</linearGradient>
			<path fill="url(#SVGID_12_)" d="M3201.7,2216.2l-1691.2-6.6c-24.9-0.1-45.1,17.6-45.1,39.6v269.6c0,21.1,19.4,38.3,43.4,38.3
				l1692,0.6c23.1,0,41.9-16.8,42-37.6l0.7-266.2C3243.6,2233.2,3224.9,2216.3,3201.7,2216.2z"/>
			<g>
				<linearGradient id="SVGID_13_" gradientUnits="userSpaceOnUse" x1="2861.5615" y1="1039.5048" x2="2411.8696" y2="2110.6816">
					<stop  offset="0" style="stop-color:#FEBBBA"/>
					<stop  offset="1" style="stop-color:#FF928E"/>
				</linearGradient>
				<path fill="url(#SVGID_13_)" d="M3201.7,2216.2l-1692.9-6.6c-24-0.1-43.4,17-43.4,38.2l1778.1,6.3
					C3243.6,2233.2,3224.9,2216.3,3201.7,2216.2z"/>
				<linearGradient id="SVGID_14_" gradientUnits="userSpaceOnUse" x1="2910.1238" y1="1422.0203" x2="2379.5898" y2="2472.9824">
					<stop  offset="0" style="stop-color:#FEBBBA"/>
					<stop  offset="1" style="stop-color:#FF928E"/>
				</linearGradient>
				<path fill="url(#SVGID_14_)" d="M1508.8,2557.1l1692,0.6c23.1,0,41.9-16.8,42-37.6l-1777.3-1.4
					C1465.4,2539.9,1484.9,2557,1508.8,2557.1z"/>
			</g>
		</g>
	</g>
	<g>
		<g>
			<g opacity="0.3">
				<path fill="#91B3FA" d="M2335.4,980.6c-5.7-1-9.8-6.1-9.4-12c0.9-12.9,2.3-25.9,4.3-38.7c1-6.2,6.8-10.5,13-9.6
					c0.1,0,0.1,0,0.2,0c6.1,1.1,10.3,6.8,9.3,13c-1.9,12.2-3.2,24.5-4,36.8c-0.4,6.3-5.9,11.1-12.2,10.6
					C2336.2,980.8,2335.8,980.7,2335.4,980.6z M2353.1,882.8c-0.4-0.1-0.9-0.2-1.3-0.3c-6-1.8-9.5-8.2-7.7-14.2
					c3.7-12.4,7.9-24.8,12.7-36.8c2.3-5.9,8.9-8.8,14.8-6.5c5.9,2.3,8.8,8.9,6.5,14.8c-4.5,11.4-8.5,23.2-12,35
					C2364.3,880.4,2358.7,883.7,2353.1,882.8z M2391.8,791.2c-1.3-0.2-2.5-0.6-3.7-1.3c-5.5-3.1-7.4-10.1-4.3-15.6
					c6.3-11.3,13.3-22.4,20.6-33.1c3.6-5.2,10.7-6.5,15.9-3c5.2,3.6,6.5,10.7,3,15.9c-6.9,10.1-13.5,20.7-19.5,31.4
					C2401.3,789.9,2396.5,792,2391.8,791.2z M2450.1,710.7c-2.1-0.4-4.1-1.3-5.7-2.8c-4.7-4.2-5-11.5-0.8-16.1
					c8.7-9.6,17.9-18.9,27.4-27.6c4.6-4.3,11.8-4,16.1,0.6c4.3,4.6,4,11.8-0.6,16.1c-9,8.3-17.8,17.2-26.1,26.2
					C2457.8,710.1,2453.8,711.3,2450.1,710.7z M2524.9,645.1c-2.9-0.5-5.6-2.1-7.4-4.7c-3.6-5.2-2.3-12.3,2.8-15.9
					c10.6-7.4,21.6-14.4,32.8-20.9c5.5-3.2,12.4-1.3,15.6,4.2c3.2,5.5,1.3,12.4-4.2,15.6c-10.7,6.1-21.2,12.8-31.2,19.8
					C2530.8,645,2527.8,645.6,2524.9,645.1z M2612.3,597.7c-3.8-0.6-7.1-3.2-8.6-7c-2.4-5.8,0.4-12.5,6.3-14.9
					c12-4.9,24.3-9.3,36.7-13.1c6-1.9,12.4,1.5,14.3,7.5c1.9,6-1.5,12.4-7.5,14.3c-11.7,3.6-23.4,7.8-34.8,12.4
					C2616.5,597.9,2614.4,598.1,2612.3,597.7z M3029.1,642.2c-1.6-0.3-3.1-0.9-4.5-1.8c-10.1-6.9-20.7-13.5-31.4-19.5
					c-5.5-3.1-7.5-10-4.4-15.5c3.1-5.5,10-7.5,15.5-4.4c11.3,6.3,22.4,13.2,33.1,20.5c5.2,3.5,6.6,10.6,3,15.9
					C3037.9,641.2,3033.4,642.9,3029.1,642.2z M2708,570.9c-4.7-0.8-8.5-4.5-9.3-9.4c-1-6.2,3.2-12.1,9.4-13.1
					c12.8-2.1,25.8-3.6,38.6-4.6c6.3-0.4,11.8,4.2,12.2,10.5c0.5,6.3-4.2,11.8-10.5,12.2c-12.2,0.9-24.6,2.4-36.7,4.3
					C2710.5,571.1,2709.2,571.1,2708,570.9z M2941.1,595.8c-0.7-0.1-1.5-0.3-2.2-0.6c-11.4-4.5-23.2-8.5-35-12
					c-6-1.8-9.5-8.1-7.7-14.2c1.8-6,8.1-9.5,14.2-7.7c12.4,3.7,24.8,7.9,36.8,12.6c5.9,2.3,8.8,8.9,6.5,14.8
					C2951.7,593.9,2946.4,596.8,2941.1,595.8z M2807.3,566.1c-5.7-1-9.8-6.1-9.4-12c0.4-6.3,5.8-11.1,12.1-10.7
					c12.9,0.8,25.9,2.2,38.7,4.2c0.1,0,0.2,0,0.2,0c6.1,1.1,10.3,6.8,9.3,13c-0.9,6.2-6.8,10.5-13,9.6c-12.2-1.8-24.5-3.2-36.8-4
					C2808.1,566.2,2807.7,566.2,2807.3,566.1z"/>
				<path fill="#91B3FA" d="M3091,693.1c-2.2-0.4-4.3-1.4-6.1-3.1c-4.2-4.1-8.5-8.2-12.9-12.2c-4.7-4.2-5-11.5-0.8-16.1
					c4.2-4.7,11.5-5,16.1-0.8c4.6,4.2,9.2,8.5,13.6,12.9c4.5,4.4,4.5,11.7,0.1,16.1C3098.4,692.6,3094.6,693.7,3091,693.1z"/>
			</g>
			<g opacity="0.3">
				<path fill="#91B3FA" d="M3223.6,1014.9c-5.4-0.9-9.5-5.7-9.5-11.4c0.1-5.9,0-11.9-0.1-17.8c-0.2-6.3,4.8-11.6,11.1-11.7
					c6.3-0.2,11.6,4.8,11.7,11.1c0.2,6.2,0.2,12.5,0.2,18.7c-0.1,6.3-5.3,11.3-11.6,11.3C3224.8,1015,3224.2,1015,3223.6,1014.9z"/>
				<path fill="#91B3FA" d="M2703.8,1447.9c-5.2-0.9-10.4-1.9-15.5-3c-6.2-1.3-10.1-7.3-8.9-13.5c1.3-6.2,7.4-10.2,13.5-8.9
					c12,2.5,24,4.5,35.9,5.9c6.3,0.8,10.7,6.5,9.9,12.7c-0.8,6.3-6.5,10.7-12.7,9.9C2718.6,1450.2,2711.1,1449.1,2703.8,1447.9z
					 M2630.2,1428.6c-0.6-0.1-1.3-0.3-1.9-0.5c-12-4.3-24-9.1-35.5-14.3c-5.7-2.6-8.3-9.4-5.7-15.1c2.6-5.7,9.4-8.3,15.1-5.7
					c11,5,22.4,9.5,33.8,13.6c5.9,2.1,9.1,8.6,6.9,14.6C2641,1426.5,2635.6,1429.6,2630.2,1428.6z M2786,1454.3
					c-5.3-0.9-9.4-5.5-9.5-11.1c-0.1-6.3,4.9-11.5,11.2-11.6c12.1-0.2,24.3-0.9,36.3-2.1c6.3-0.6,11.9,4,12.5,10.2
					c0.6,6.3-4,11.9-10.2,12.5c-12.7,1.3-25.5,2-38.2,2.2C2787.4,1454.5,2786.7,1454.4,2786,1454.3z M2542.1,1386
					c-1.4-0.2-2.8-0.8-4.1-1.6c-10.8-6.8-21.4-14.1-31.5-21.8c-5-3.8-6-11-2.2-16c3.8-5,11-6,16-2.2c9.6,7.3,19.7,14.2,29.9,20.7
					c5.3,3.4,6.9,10.4,3.6,15.7C2551.2,1384.9,2546.5,1386.8,2542.1,1386z M2883,1442c-4.3-0.8-8.1-4-9.2-8.6
					c-1.5-6.1,2.3-12.3,8.4-13.8c11.7-2.8,23.5-6.2,35-10c6-2,12.4,1.2,14.4,7.2c2,6-1.2,12.4-7.2,14.4c-12.1,4-24.5,7.6-36.8,10.5
					C2886,1442.3,2884.5,1442.3,2883,1442z M2975,1408.8c-3.5-0.6-6.6-2.8-8.3-6.2c-2.8-5.7-0.5-12.5,5.2-15.3
					c10.8-5.3,21.6-11.2,31.9-17.4c5.4-3.3,12.4-1.5,15.7,3.9c3.2,5.4,1.5,12.4-3.9,15.7c-10.9,6.5-22.2,12.7-33.6,18.3
					C2979.7,1408.9,2977.3,1409.2,2975,1408.8z M3057.5,1356.2c-2.6-0.5-5.1-1.8-7-4.1c-3.9-4.9-3.2-12.1,1.8-16
					c9.4-7.6,18.7-15.6,27.4-23.9c4.6-4.3,11.8-4.2,16.1,0.4c4.3,4.6,4.2,11.8-0.4,16.1c-9.2,8.7-18.9,17.2-28.8,25.2
					C3064,1356,3060.6,1356.8,3057.5,1356.2z M3126.6,1287c-1.8-0.3-3.6-1.1-5.2-2.3c-4.9-3.9-5.7-11.1-1.8-16
					c7.5-9.5,14.8-19.3,21.5-29.4c3.5-5.2,10.6-6.6,15.8-3.1c5.2,3.5,6.7,10.6,3.1,15.8c-7.1,10.6-14.7,21-22.6,30.9
					C3134.8,1286.2,3130.6,1287.6,3126.6,1287z M3178.9,1204.2c-1-0.2-2.1-0.5-3-1c-5.7-2.7-8-9.6-5.3-15.2
					c5.3-10.9,10.1-22.1,14.5-33.4c2.3-5.9,8.9-8.8,14.8-6.6c5.9,2.3,8.8,8.9,6.6,14.8c-4.6,11.9-9.7,23.7-15.2,35.1
					C3188.8,1202.6,3183.8,1205,3178.9,1204.2z M3211.6,1112c-0.2,0-0.5-0.1-0.7-0.1c-6.1-1.4-9.9-7.6-8.5-13.7
					c2-8.7,3.9-17.5,5.4-26.2c0.5-3.2,1.1-6.3,1.5-9.5c0.9-6.2,6.8-10.5,13-9.6c6.3,0.8,10.5,6.8,9.6,13c-0.5,3.3-1,6.7-1.6,10
					c-1.6,9.2-3.5,18.5-5.6,27.6C3223.3,1109.3,3217.5,1113,3211.6,1112z"/>
				<path fill="#91B3FA" d="M2465.4,1324.8c-2.2-0.4-4.4-1.4-6.1-3.2c-4.4-4.4-8.7-8.9-13-13.5c-4.3-4.6-4-11.9,0.6-16.1
					c4.6-4.3,11.8-4,16.1,0.6c4,4.4,8.2,8.7,12.3,12.8c4.5,4.4,4.5,11.7,0,16.1C2472.7,1324.3,2468.9,1325.4,2465.4,1324.8z"/>
			</g>
			<g>
				<path fill="#91B3FA" d="M2503.1,1197c1.1,2,3.4,3,5.6,2.6l63.9-11.7c20.5,22.3,44.7,41.5,72.1,56.6l3.9,64.8
					c0.1,2.3,1.7,4.2,3.9,4.8l75,20.9c2.2,0.6,4.5-0.2,5.8-2.1l36.9-53.4c31.2,1.3,61.9-2.6,91-11.1l48.6,43.1
					c1.7,1.5,4.2,1.8,6.2,0.7l67.8-38.2c2-1.1,3-3.4,2.6-5.6l-11.7-63.9c22.3-20.5,41.5-44.8,56.6-72.1l64.8-3.9
					c2.3-0.1,4.2-1.7,4.8-3.9l20.9-75c0.6-2.2-0.2-4.5-2.1-5.8l-53.4-36.9c1.3-31.2-2.6-61.9-11.1-91l43.1-48.6
					c1.5-1.7,1.8-4.2,0.7-6.2l-38.2-67.8c-1.1-2-3.4-3-5.6-2.6l-63.9,11.7c-20.5-22.3-44.7-41.5-72.1-56.6l-3.9-64.8
					c-0.1-2.3-1.7-4.2-3.9-4.8l-75-20.9c-2.2-0.6-4.5,0.2-5.8,2.1l-36.9,53.4c-31.2-1.3-61.9,2.6-91,11.1l-48.6-43.1
					c-1.7-1.5-4.2-1.8-6.2-0.7l-67.8,38.2c-2,1.1-3,3.4-2.6,5.6l11.7,63.9c-22.3,20.5-41.5,44.8-56.6,72.1l-64.8,3.9
					c-2.3,0.1-4.2,1.7-4.8,3.9l-20.9,75c-0.6,2.2,0.2,4.5,2.1,5.8l53.4,36.9c-1.3,31.2,2.6,61.9,11.1,91l-43.1,48.6
					c-1.5,1.7-1.8,4.2-0.7,6.2L2503.1,1197z"/>
				<g>
					<path fill="#BDD0FB" d="M2768.5,1072.3c-37.6-6.5-65.9-39.8-64.9-79.1c1.1-43.2,37.1-77.4,80.2-76.3
						c20.9,0.5,40.4,9.1,54.8,24.3c14.4,15.1,22.1,35,21.5,55.9c-1.1,43.2-37.1,77.4-80.2,76.3
						C2776,1073.3,2772.2,1072.9,2768.5,1072.3z M2792.2,936c-2.9-0.5-5.9-0.8-8.9-0.9c-33.1-0.8-60.7,25.4-61.5,58.5
						c-0.8,33.1,25.4,60.7,58.5,61.5c33.1,0.8,60.7-25.4,61.5-58.5c0.4-16-5.5-31.3-16.5-42.9C2816.4,944.3,2804.8,938.2,2792.2,936
						z"/>
				</g>
				<path fill="#BDD0FB" d="M2750.8,1184c-6.5-1.1-12.9-2.6-19.3-4.3l0,0c-2-0.6-4-1.2-6-1.8c-9.8-3.1-19.4-7-28.6-11.5
					c-0.1-0.1-0.2-0.1-0.4-0.2c-0.4-0.2-0.7-0.4-1.1-0.5c-0.7-0.3-1.4-0.7-2.1-1.1c-1.8-0.9-2.7-2.9-2.4-4.8
					c0.1-0.5,0.2-0.9,0.5-1.4c1.2-2.2,3.9-3.1,6.2-1.9c11.5,6,23.7,10.9,36.3,14.4c62.6,17.5,126.8,0.1,171.9-40.3
					c25.1-22.5,44.3-52.2,54-87c1.7-6.1,3.1-12.2,4.2-18.4c7.2-41.5-0.1-83.8-21-120.9c-24-42.7-63.3-73.4-110.4-86.6
					c-97.4-27.2-198.7,29.9-225.9,127.3c-1.7,6-3,12.1-4.1,18.2c-4.6,26.4-3.3,53.6,3.8,79.5c0.2,0.7,0.2,1.3,0.1,2
					c-0.3,1.7-1.5,3.1-3.3,3.6c-2.4,0.7-4.9-0.8-5.6-3.2c-7.5-27.2-8.8-55.7-4-83.5c1.1-6.4,2.5-12.8,4.3-19.1
					c28.5-102.2,134.9-162.2,237.2-133.7c49.5,13.8,90.7,46.1,116,90.9c22,39,29.6,83.4,22.1,126.9c-1.1,6.5-2.6,12.9-4.4,19.3
					c-13.8,49.5-46.1,90.7-90.9,116C2838.8,1183.9,2794.3,1191.5,2750.8,1184z"/>
			</g>
		</g>
		<g>
			<g opacity="0.3">
				<path fill="#91B3FA" d="M1900.3,1210.7c-3-0.5-5.4-3-5.8-6.1c-0.7-5.9-1.2-12-1.5-18c-0.2-3.9,2.8-7.2,6.7-7.4
					c3.9-0.2,7.2,2.8,7.4,6.7c0.3,5.7,0.8,11.5,1.4,17.1c0.4,3.9-2.3,7.4-6.2,7.8C1901.7,1210.8,1901,1210.8,1900.3,1210.7z"/>
				<path fill="#91B3FA" d="M1899.1,1156.5c-3.5-0.6-6.1-3.8-5.8-7.4c0.7-10.3,2-20.6,3.7-30.8c0.4-2.1,0.8-4.3,1.2-6.4
					c0.7-3.8,4.6-6.1,8.3-5.6c3.8,0.7,6.3,4.4,5.6,8.3c-0.4,2-0.8,4.1-1.1,6.1c-1.7,9.7-2.9,19.6-3.6,29.4c-0.3,3.9-3.6,6.8-7.5,6.5
					C1899.6,1156.5,1899.4,1156.5,1899.1,1156.5z M1913.1,1084.6c-0.3-0.1-0.7-0.1-1-0.2c-3.7-1.2-5.7-5.2-4.5-8.9
					c3.9-11.9,8.5-23.6,13.8-34.9c1.6-3.5,5.9-5,9.4-3.4c3.5,1.7,5.1,5.8,3.4,9.4c-5,10.8-9.4,22-13.1,33.3
					C1919.9,1083.2,1916.5,1085.2,1913.1,1084.6z M1944.1,1018.3c-0.9-0.2-1.7-0.5-2.6-1c-3.3-2.1-4.3-6.4-2.2-9.7
					c6.6-10.6,14-20.8,21.9-30.5c2.5-3,6.9-3.5,9.9-1c3,2.5,3.5,6.9,1,9.9c-7.5,9.2-14.6,19-20.9,29.1
					C1949.7,1017.6,1946.8,1018.8,1944.1,1018.3z M1990.5,961.6c-1.4-0.2-2.8-0.9-3.9-2.1c-2.7-2.8-2.6-7.3,0.2-10
					c9-8.6,18.7-16.8,28.7-24.2c3.1-2.3,7.5-1.7,9.9,1.5c2.3,3.1,1.7,7.5-1.5,9.9c-9.5,7.1-18.8,14.8-27.4,23.1
					C1994.9,961.4,1992.6,962,1990.5,961.6z M2049.3,918c-2-0.3-3.9-1.6-4.9-3.5c-1.9-3.4-0.7-7.7,2.7-9.6
					c10.9-6.2,22.2-11.7,33.7-16.5c3.6-1.5,7.7,0.2,9.2,3.8c1.5,3.6-0.2,7.7-3.8,9.2c-11,4.6-21.8,9.8-32.2,15.7
					C2052.5,918,2050.8,918.3,2049.3,918z M2116.8,890c-2.6-0.4-4.8-2.4-5.6-5.1c-1-3.7,1.2-7.6,4.9-8.7c12-3.3,24.4-5.9,36.7-7.7
					c3.9-0.6,7.4,2.1,8,6c0.6,3.8-2.1,7.4-5.9,8c-11.8,1.7-23.5,4.2-35,7.4C2118.9,890.1,2117.8,890.2,2116.8,890z M2189.2,879.3
					c-3.3-0.6-5.8-3.4-5.8-6.8c-0.1-3.9,3-7.1,6.9-7.2c12.4-0.3,25.1,0.2,37.5,1.5c3.9,0.5,6.7,3.9,6.3,7.7
					c-0.4,3.9-3.9,6.7-7.7,6.3c-11.9-1.2-23.9-1.7-35.8-1.4C2190.1,879.5,2189.6,879.4,2189.2,879.3z M2297.2,897.1
					c-0.4-0.1-0.8-0.2-1.2-0.3c-9.7-3.5-19.7-6.5-29.8-9c-1.5-0.4-3-0.7-4.5-1.1c-3.8-0.9-6.2-4.6-5.3-8.4c0.9-3.8,4.7-6.3,8.4-5.3
					c1.6,0.4,3.2,0.7,4.8,1.1c10.6,2.6,21.1,5.8,31.2,9.4c3.7,1.3,5.6,5.4,4.2,9C2303.9,895.8,2300.5,897.7,2297.2,897.1z"/>
			</g>
			<g opacity="0.3">
				<path fill="#91B3FA" d="M2149.3,1470.6c-3.8-0.7-6.4-4.2-5.8-8.1c0.6-3.8,4.2-6.5,8.1-5.9c11.6,1.8,23.4,3,35,3.4
					c3.9,0.2,6.9,3.4,6.8,7.3c-0.1,3.9-3.4,6.9-7.3,6.8C2173.9,1473.7,2161.6,1472.5,2149.3,1470.6
					C2149.4,1470.6,2149.4,1470.6,2149.3,1470.6z M2114.1,1462.7c-0.3,0-0.5-0.1-0.7-0.2c-11.8-3.4-23.5-7.5-34.8-12.2
					c-3.6-1.5-5.3-5.6-3.8-9.2c1.5-3.6,5.7-5.3,9.2-3.8c10.8,4.5,22,8.5,33.2,11.7c3.7,1.1,5.9,5,4.8,8.7
					C2121.1,1461.2,2117.6,1463.3,2114.1,1462.7z M2221.3,1473.2c-3.1-0.5-5.5-3.1-5.8-6.3c-0.3-3.9,2.5-7.3,6.4-7.6
					c11.7-1,23.4-2.7,34.8-5.1c3.8-0.8,7.5,1.6,8.3,5.5c0.8,3.8-1.6,7.5-5.5,8.4c-12,2.5-24.3,4.3-36.5,5.4
					C2222.5,1473.3,2221.9,1473.3,2221.3,1473.2z M2047.8,1434.8c-0.8-0.1-1.6-0.4-2.3-0.8c-10.7-6.1-21-12.9-30.9-20.3
					c-3.1-2.3-3.7-6.8-1.4-9.9c2.3-3.1,6.8-3.7,9.9-1.4c9.4,7,19.3,13.5,29.4,19.4c3.4,1.9,4.5,6.2,2.6,9.6
					C2053.6,1434,2050.6,1435.3,2047.8,1434.8z M2291.7,1458.4c-2.5-0.4-4.6-2.1-5.5-4.7c-1.3-3.7,0.7-7.7,4.4-9
					c11.1-3.8,22-8.3,32.6-13.4c3.5-1.7,7.7-0.2,9.4,3.3c1.7,3.5,0.2,7.7-3.3,9.4c-11.1,5.3-22.5,10-34.1,14
					C2294,1458.5,2292.8,1458.6,2291.7,1458.4z M2356.5,1427.1c-1.9-0.3-3.6-1.4-4.7-3.1c-2.1-3.3-1.2-7.6,2.1-9.7
					c9.9-6.3,19.4-13.3,28.4-20.8c3-2.5,7.5-2.1,9.9,0.9c2.5,3,2.1,7.4-0.9,9.9c-9.4,7.8-19.5,15.1-29.8,21.8
					C2360,1427.1,2358.2,1427.4,2356.5,1427.1z M2412,1381.2c-1.3-0.2-2.6-0.8-3.6-1.8c-2.8-2.7-2.9-7.1-0.3-10
					c8.1-8.5,15.7-17.6,22.6-27c2.3-3.1,6.7-3.8,9.9-1.5c3.1,2.3,3.8,6.7,1.5,9.9c-7.3,9.8-15.3,19.4-23.7,28.3
					C2416.7,1380.9,2414.3,1381.6,2412,1381.2z"/>
				<path fill="#91B3FA" d="M1989.9,1391.4c-1.3-0.2-2.6-0.9-3.7-1.9c-4.3-4.2-8.6-8.5-12.6-12.9c-2.6-2.9-2.5-7.3,0.4-10
					c2.9-2.6,7.3-2.5,10,0.4c3.8,4.2,7.9,8.3,12,12.3c2.8,2.7,2.9,7.2,0.2,10C1994.5,1391,1992.1,1391.7,1989.9,1391.4z"/>
			</g>
			<g>
				<path fill="#91B3FA" d="M2011.2,1302.6c0.7,1.3,2.3,2,3.8,1.8l42.7-7.8c13.7,14.9,29.9,27.8,48.2,37.8l2.6,43.3
					c0.1,1.5,1.1,2.8,2.6,3.2l50.2,14c1.5,0.4,3-0.2,3.9-1.4l24.7-35.7c20.9,0.9,41.4-1.7,60.9-7.4l32.5,28.8c1.1,1,2.8,1.2,4.1,0.4
					l45.4-25.6c1.3-0.7,2-2.3,1.8-3.8l-7.8-42.7c14.9-13.7,27.8-29.9,37.8-48.2l43.3-2.6c1.5-0.1,2.8-1.1,3.2-2.6l14-50.2
					c0.4-1.5-0.2-3-1.4-3.9l-35.7-24.7c0.9-20.9-1.7-41.4-7.4-60.9l28.8-32.5c1-1.1,1.2-2.8,0.4-4.1l-25.6-45.4
					c-0.7-1.3-2.3-2-3.8-1.8l-42.7,7.8c-13.7-14.9-29.9-27.8-48.2-37.8l-2.6-43.3c-0.1-1.5-1.1-2.8-2.6-3.2l-50.2-14
					c-1.5-0.4-3,0.2-3.9,1.4l-24.7,35.7c-20.9-0.9-41.4,1.7-60.9,7.4l-32.5-28.8c-1.1-1-2.8-1.2-4.1-0.4l-45.4,25.6
					c-1.3,0.7-2,2.3-1.8,3.8l7.8,42.7c-14.9,13.7-27.8,29.9-37.8,48.2l-43.3,2.6c-1.5,0.1-2.8,1.1-3.2,2.6l-14,50.2
					c-0.4,1.5,0.2,3,1.4,3.9l35.7,24.7c-0.9,20.9,1.7,41.4,7.4,60.9l-28.8,32.5c-1,1.1-1.2,2.8-0.4,4.1L2011.2,1302.6z"/>
				<g>
					<path fill="#BDD0FB" d="M2188.5,1220.1c-11.2-1.9-21.5-7.4-29.4-15.8c-9.8-10.3-15-23.8-14.7-38.1c0.7-29.4,25.2-52.7,54.6-52
						c29.4,0.8,52.7,25.2,52,54.6c-0.4,14.2-6.2,27.5-16.5,37.3c-10.3,9.8-23.8,15-38.1,14.7
						C2193.7,1220.8,2191.1,1220.5,2188.5,1220.1z M2204.4,1128.9c-1.9-0.3-3.8-0.5-5.7-0.6c-21.6-0.5-39.6,16.6-40.2,38.2
						c-0.3,10.5,3.6,20.4,10.8,28c7.2,7.6,17,11.9,27.4,12.2l0,0c10.5,0.3,20.4-3.6,28-10.8c7.6-7.2,11.9-17,12.2-27.4
						C2237.4,1148.9,2223.3,1132.2,2204.4,1128.9z"/>
				</g>
				<path fill="#BDD0FB" d="M2176.1,1297.8c-4.4-0.8-8.8-1.8-13.2-3c-8.7-2.4-17.2-5.7-25.2-9.9c-0.4-0.2-0.7-0.4-1.1-0.6
					c-2.8-1.5-4.2-4.5-3.7-7.4c0.1-0.7,0.4-1.4,0.7-2.1c1.8-3.4,6.1-4.7,9.5-3c7.4,3.9,15.4,7.1,23.5,9.3l0,0
					c0.4,0.1,0.9,0.2,1.3,0.4c19.3,5.2,39.2,5.4,58.1,0.8c10.3-2.5,20.3-6.3,29.8-11.6c0.1,0,0.2-0.1,0.2-0.1
					c0.2-0.1,0.5-0.3,0.7-0.4c27.6-15.6,47.5-41,56-71.5c1.1-4,2-7.9,2.7-11.9c4.6-26.8-0.1-54.2-13.6-78.3
					c-15.6-27.6-41-47.5-71.5-56c-30.5-8.5-62.6-4.6-90.2,10.9c-27.6,15.6-47.5,41-56,71.5c-1.1,3.9-2,7.8-2.7,11.8
					c-3,17.1-2.1,34.7,2.5,51.5c0.3,1,0.3,2.1,0.1,3.1c-0.5,2.6-2.4,4.9-5.1,5.6c-3.8,1-7.6-1.2-8.7-4.9
					c-5.2-18.8-6.1-38.4-2.8-57.6c0.8-4.4,1.8-8.8,3-13.2c9.5-34.2,31.8-62.6,62.7-80c30.9-17.4,66.7-21.8,100.9-12.2
					c34.2,9.5,62.6,31.8,80,62.7c15.2,26.9,20.4,57.5,15.2,87.6c-0.8,4.5-1.8,8.9-3,13.3C2308.1,1268.8,2242.4,1309.3,2176.1,1297.8
					z"/>
			</g>
		</g>
	</g>
	<g>
		
			<linearGradient id="SVGID_15_" gradientUnits="userSpaceOnUse" x1="-724.6317" y1="2802.6926" x2="-239.5307" y2="1347.3857" gradientTransform="matrix(-1 0 0 1 1155.7772 0)">
			<stop  offset="0" style="stop-color:#09005D"/>
			<stop  offset="1" style="stop-color:#1A0F91"/>
		</linearGradient>
		<path fill="url(#SVGID_15_)" d="M627.8,2855.5c0,20.9,17.1,37.9,38,37.9h2054c20.9,0,38-17.1,38-37.9l17.1-1180.4
			c0-20.9-24.6-61.6-69.7-58.6l-2007.4-51.9c-26.2-0.7-51.6,9.4-70.1,27.9s-28.7,43.8-28.1,70L627.8,2855.5z"/>
		<linearGradient id="SVGID_16_" gradientUnits="userSpaceOnUse" x1="636.7046" y1="2232.3169" x2="2722.312" y2="2232.3169">
			<stop  offset="0" style="stop-color:#4F52FF"/>
			<stop  offset="1" style="stop-color:#4042E2"/>
		</linearGradient>
		<path fill="url(#SVGID_16_)" d="M665.3,2819.1c0,19.8,16.2,35.9,35.9,35.9h1969c19.8,0,35.9-16.2,35.9-35.9l16.1-1071.5
			c-1.9-64.5-58.4-87.7-92.7-86.3l-1923.9-51.6c-18.4-0.5-36.2,6.6-49.3,19.6c-13,13-20.2,30.8-19.8,49.2L665.3,2819.1z"/>
		<g>
			<path fill="#7D97F4" d="M2684.9,2310C2684.9,2310,2684.9,2310,2684.9,2310c-3,0-5.3-2.4-5.3-5.3l1.3-86.9c0-2.9,2.4-5.2,5.3-5.2
				c0,0,0.1,0,0.1,0c2.9,0,5.3,2.4,5.2,5.3l-1.3,86.9C2690.1,2307.7,2687.8,2310,2684.9,2310z"/>
			<path fill="#7D97F4" d="M2688,2097.1C2688,2097.1,2688,2097.1,2688,2097.1c-3,0-5.3-2.4-5.3-5.3l4.9-332.8
				c-0.1-19.8-6.1-35.6-17.8-46.8c-21.9-21-56.7-19.9-58.2-19.9l-614.9-16.5c-2.9-0.1-5.2-2.5-5.1-5.4c0.1-2.9,2.3-5.4,5.4-5.1
				l614.5,16.5c3.8-0.2,40.9-0.9,65.6,22.8c13.9,13.3,21,31.6,21.1,54.5l-4.9,332.9C2693.3,2094.8,2690.9,2097.1,2688,2097.1z"/>
		</g>
		
			<linearGradient id="SVGID_17_" gradientUnits="userSpaceOnUse" x1="404.3717" y1="2715.6384" x2="-1756.3593" y2="3241.2214" gradientTransform="matrix(-1 0 0 1 1155.7772 0)">
			<stop  offset="0" style="stop-color:#09005D"/>
			<stop  offset="1" style="stop-color:#1A0F91"/>
		</linearGradient>
		<path fill="url(#SVGID_17_)" d="M466.9,2991.4h2410.2c3.1,0,5.7-2.5,5.7-5.7v-92.4c0-3.1-2.5-5.7-5.7-5.7H466.9
			c-3.1,0-5.7,2.5-5.7,5.7v92.4C461.2,2988.9,463.8,2991.4,466.9,2991.4z"/>
		<g>
			
				<rect x="1124.2" y="1683.2" transform="matrix(3.903452e-05 -1 1 3.903452e-05 -855.2009 3147.0789)" fill="#7D97F4" width="43.6" height="635.8"/>
			
				<rect x="1121.2" y="1392.2" transform="matrix(3.903452e-05 -1 1 3.903452e-05 -567.1206 2853.0198)" fill="#7D97F4" width="43.6" height="635.8"/>
			
				<rect x="1211.8" y="1555.4" transform="matrix(3.903613e-05 -1 1 3.903613e-05 -551.056 3018.1184)" fill="#7D97F4" width="43.5" height="458.5"/>
			
				<rect x="918.5" y="1748.1" transform="matrix(3.903604e-05 -1 1 3.903604e-05 -840.8446 2721.3457)" fill="#7D97F4" width="43.5" height="66"/>
			
				<rect x="1211.4" y="1628.2" transform="matrix(3.903613e-05 -1 1 3.903613e-05 -624.3143 3090.4546)" fill="#7D97F4" width="43.5" height="458.5"/>
			
				<rect x="918.2" y="1820.9" transform="matrix(3.903613e-05 -1 1 3.903613e-05 -913.9724 2793.8125)" fill="#7D97F4" width="43.5" height="66"/>
			
				<rect x="1209.7" y="1700.8" transform="matrix(3.903604e-05 -1 1 3.903604e-05 -698.6768 3161.4465)" fill="#7D97F4" width="43.5" height="458.5"/>
			
				<rect x="914.3" y="1893.6" transform="matrix(3.673989e-05 -1 1 3.673989e-05 -990.5695 2862.5725)" fill="#7D97F4" width="43.5" height="66"/>
			
				<rect x="1121.2" y="1986.3" transform="matrix(3.673837e-05 -1 1 3.673837e-05 -1161.269 3447.1157)" fill="#7D97F4" width="43.6" height="635.8"/>
			
				<rect x="1208.8" y="1858.4" transform="matrix(3.673980e-05 -1 1 3.673980e-05 -857.124 3318.1548)" fill="#7D97F4" width="43.5" height="458.5"/>
			
				<rect x="915.5" y="2051.2" transform="matrix(3.903604e-05 -1 1 3.903604e-05 -1146.9154 3021.3774)" fill="#7D97F4" width="43.5" height="66"/>
			
				<rect x="1208.3" y="1931.2" transform="matrix(3.673980e-05 -1 1 3.673980e-05 -930.3823 3390.4912)" fill="#7D97F4" width="43.5" height="458.5"/>
			
				<rect x="915.2" y="2124" transform="matrix(3.673980e-05 -1 1 3.673980e-05 -1220.041 3093.8491)" fill="#7D97F4" width="43.5" height="66"/>
			
				<rect x="1206.7" y="2003.9" transform="matrix(3.673989e-05 -1 1 3.673989e-05 -1004.7448 3461.4832)" fill="#7D97F4" width="43.5" height="458.5"/>
			
				<rect x="911.3" y="2196.7" transform="matrix(3.903604e-05 -1 1 3.903604e-05 -1296.6425 3162.5996)" fill="#7D97F4" width="43.5" height="66"/>
			
				<rect x="1121.2" y="2289" transform="matrix(3.673837e-05 -1 1 3.673837e-05 -1463.9351 3749.7705)" fill="#7D97F4" width="43.6" height="635.8"/>
			
				<rect x="1208.8" y="2161.1" transform="matrix(3.673980e-05 -1 1 3.673980e-05 -1159.79 3620.8096)" fill="#7D97F4" width="43.5" height="458.5"/>
			
				<rect x="915.5" y="2353.8" transform="matrix(3.903613e-05 -1 1 3.903613e-05 -1449.5813 3324.0315)" fill="#7D97F4" width="43.5" height="66"/>
			
				<rect x="1208.3" y="2233.9" transform="matrix(3.673980e-05 -1 1 3.673980e-05 -1233.0482 3693.146)" fill="#7D97F4" width="43.5" height="458.5"/>
			
				<rect x="915.2" y="2426.6" transform="matrix(3.673989e-05 -1 1 3.673989e-05 -1522.707 3396.5039)" fill="#7D97F4" width="43.5" height="66"/>
			
				<rect x="1206.7" y="2306.6" transform="matrix(3.673980e-05 -1 1 3.673980e-05 -1307.4108 3764.1382)" fill="#7D97F4" width="43.5" height="458.5"/>
			
				<rect x="911.3" y="2499.3" transform="matrix(3.903604e-05 -1 1 3.903604e-05 -1599.3085 3465.2537)" fill="#7D97F4" width="43.5" height="66"/>
			
				<rect x="1211.8" y="2456.6" transform="matrix(3.903613e-05 -1 1 3.903613e-05 -1452.2935 3919.3206)" fill="#7D97F4" width="43.5" height="458.5"/>
			
				<rect x="918.5" y="2649.4" transform="matrix(3.903613e-05 -1 1 3.903613e-05 -1742.082 3622.5481)" fill="#7D97F4" width="43.5" height="66"/>
			
				<rect x="1208.2" y="2529.4" transform="matrix(3.903604e-05 -1 1 3.903604e-05 -1528.7201 3988.4885)" fill="#7D97F4" width="43.5" height="458.5"/>
			
				<rect x="915" y="2722.2" transform="matrix(3.903613e-05 -1 1 3.903613e-05 -1818.3782 3691.8464)" fill="#7D97F4" width="43.5" height="66"/>
		</g>
		<g>
			
				<rect x="2153.8" y="2314.7" transform="matrix(4.757148e-05 -1 1 4.757148e-05 -367.7462 4719.3467)" fill="#7D97F4" width="44.1" height="457.7"/>
			
				<rect x="2110.1" y="2098.5" transform="matrix(4.757061e-05 -1 1 4.757061e-05 -337.7159 4601.8525)" fill="#7D97F4" width="44.1" height="742.5"/>
			
				<rect x="2273.9" y="2098.5" transform="matrix(4.530627e-05 -1 1 4.530627e-05 -100.2178 4691.9673)" fill="#7D97F4" width="44.1" height="595.2"/>
			
				<rect x="2146" y="2152.7" transform="matrix(4.530442e-05 -1 1 4.530442e-05 -154.3753 4490.3345)" fill="#7D97F4" width="44.1" height="339.4"/>
			
				<rect x="2281.4" y="1951.3" transform="matrix(4.757148e-05 -1 1 4.757148e-05 54.8829 4551.9141)" fill="#7D97F4" width="44.1" height="594.5"/>
			
				<rect x="2182.2" y="1923.7" transform="matrix(4.304008e-05 -1 1 4.304008e-05 29.3052 4378.9575)" fill="#7D97F4" width="44.1" height="502.3"/>
			
				<rect x="2007" y="1832.8" transform="matrix(4.757148e-05 -1 1 4.757148e-05 -71.9542 4129.9424)" fill="#7D97F4" width="44.1" height="536.3"/>
			
				<rect x="2284.2" y="1721.3" transform="matrix(4.756954e-05 -1 1 4.756954e-05 278.958 4333.4316)" fill="#7D97F4" width="44.1" height="611.9"/>
			
				<rect x="2288" y="1643.7" transform="matrix(4.757148e-05 -1 1 4.757148e-05 356.5161 4263.4707)" fill="#7D97F4" width="44.1" height="619.5"/>
			
				<rect x="2289.3" y="1574.6" transform="matrix(4.757061e-05 -1 1 4.757061e-05 431.601 4191.0366)" fill="#7D97F4" width="44.1" height="610.3"/>
			
				<rect x="2123.7" y="1556" transform="matrix(4.530617e-05 -1 1 4.530617e-05 339.732 3951.6272)" fill="#7D97F4" width="44.1" height="500"/>
			
				<rect x="1624.8" y="1960.5" transform="matrix(4.757158e-05 -1 1 4.757158e-05 -378.5328 3672.1902)" fill="#7D97F4" width="44.1" height="129.6"/>
			
				<rect x="1624.8" y="2036.4" transform="matrix(4.757148e-05 -1 1 4.757148e-05 -454.4038 3748.0576)" fill="#7D97F4" width="44.1" height="129.6"/>
			
				<rect x="1624.8" y="2109.2" transform="matrix(4.757148e-05 -1 1 4.757148e-05 -527.1721 3820.8225)" fill="#7D97F4" width="44.1" height="129.6"/>
			
				<rect x="1624.8" y="2183.2" transform="matrix(4.757158e-05 -1 1 4.757158e-05 -601.1982 3894.845)" fill="#7D97F4" width="44.1" height="129.6"/>
			
				<rect x="1624.8" y="2259.1" transform="matrix(4.757148e-05 -1 1 4.757148e-05 -677.0693 3970.7126)" fill="#7D97F4" width="44.1" height="129.6"/>
			
				<rect x="1624.8" y="2331.9" transform="matrix(4.757148e-05 -1 1 4.757148e-05 -749.8376 4043.4773)" fill="#7D97F4" width="44.1" height="129.6"/>
			
				<rect x="1631.4" y="2404.4" transform="matrix(4.757148e-05 -1 1 4.757148e-05 -815.8026 4122.5913)" fill="#7D97F4" width="44.1" height="129.6"/>
			
				<rect x="1631.4" y="2480.3" transform="matrix(4.757148e-05 -1 1 4.757148e-05 -891.6736 4198.4585)" fill="#7D97F4" width="44.1" height="129.6"/>
			
				<rect x="1631.4" y="2553" transform="matrix(4.757148e-05 -1 1 4.757148e-05 -964.442 4271.2236)" fill="#7D97F4" width="44.1" height="129.6"/>
			
				<rect x="1631.4" y="2627.3" transform="matrix(4.757158e-05 -1 1 4.757158e-05 -1038.6738 4345.4517)" fill="#7D97F4" width="44.1" height="129.6"/>
			
				<rect x="1631.4" y="2703.1" transform="matrix(4.757148e-05 -1 1 4.757148e-05 -1114.5448 4421.3193)" fill="#7D97F4" width="44.1" height="129.6"/>
			
				<rect x="1624.8" y="1888.6" transform="matrix(4.757158e-05 -1 1 4.757158e-05 -306.6063 3600.2671)" fill="#7D97F4" width="44.1" height="129.6"/>
			
				<rect x="1624.8" y="1814.9" transform="matrix(4.757158e-05 -1 1 4.757158e-05 -232.8986 3526.563)" fill="#7D97F4" width="44.1" height="129.6"/>
			
				<rect x="1624.8" y="1741.1" transform="matrix(4.757158e-05 -1 1 4.757158e-05 -159.0916 3452.7595)" fill="#7D97F4" width="44.1" height="129.6"/>
			
				<rect x="1624.8" y="1667.4" transform="matrix(4.757158e-05 -1 1 4.757158e-05 -85.3373 3379.0085)" fill="#7D97F4" width="44.1" height="129.6"/>
			<path fill="#7D97F4" d="M1760.9,1710.1l0,44.1l621.7,0c0-24.4-20-44.1-44.7-44.1L1760.9,1710.1z"/>
			
				<rect x="2295.7" y="2457.4" transform="matrix(4.757061e-05 -1 1 4.757061e-05 -453.2016 5088.4961)" fill="#7D97F4" width="44.1" height="626.9"/>
			
				<rect x="2290" y="2387.1" transform="matrix(4.530617e-05 -1 1 4.530617e-05 -382.8895 5006.8057)" fill="#7D97F4" width="44.1" height="615.5"/>
			<path fill="#7D97F4" d="M2004.3,2600.2l0,44.1l391.5,0c0-24.4-12.6-44.1-28.2-44.1L2004.3,2600.2z"/>
		</g>
		<path fill="#7D97F4" d="M1522.6,2822.6h0.7c3.3,0,6-2.7,6-6V1685.8c0-3.3-2.7-6-6-6h-0.7c-3.3,0-6,2.7-6,6v1130.8
			C1516.7,2819.9,1519.3,2822.6,1522.6,2822.6z"/>
	</g>
	<g>
		<path fill="#91B3FA" d="M1459.1,1035.5c-4.1-0.1-7.4-3.4-7.4-7.6c-0.8-42.4-13.8-252.9-196.9-296.9
			c-203.9-49-297.2,160.9-297.2,160.9s-252.2-98-300.6,164.4c-158.2,38.4-199.3,247.5-96.4,349.7c16.3,16.2,38.3,25.4,61.1,25.6
			l990.5,9c29.1,0.3,54.8-19,63.1-47.2C1706.2,1287.8,1746.8,1042.3,1459.1,1035.5z"/>
		<path fill="#BDD0FB" d="M1436.4,1040c-4.1-0.1-7.4-3.4-7.4-7.6c-0.8-40.7-13.7-235.9-186.2-276.8c-192.8-45.7-281,150.3-281,150.3
			s-238.5-91.5-284.3,153.5c-148.1,35.5-187.7,227.4-93.9,323.8c16.4,16.9,38.8,26.5,62.2,26.7l932.4,8.4
			c29.1,0.3,55-19.1,63.2-47.4C1670.5,1270.6,1705,1046.5,1436.4,1040z"/>
	</g>
	<g>
		<g>
			<path fill="#7D97F4" d="M509.3,2820.6c-8.5,12.5-42.1,296-47.3,400.6c-0.4,7.1,5.3,13,12.4,13l0,0c6.1,0,11.3-4.5,12.3-10.5
				l61.5-394.1L509.3,2820.6z"/>
			<path fill="#7D97F4" d="M779.6,2820.6c8.5,12.5,42.1,296,47.3,400.6c0.4,7.1-5.3,13-12.4,13l0,0c-6.1,0-11.3-4.5-12.3-10.5
				l-61.5-394.1L779.6,2820.6z"/>
			<path fill="#7D97F4" d="M458.4,2798.4l0,3.1c-0.2,22.2,19,40.5,42.9,40.9l284.3,4.8c23.6,0.4,43.3-16.7,44.5-38.6l0.1-2.8
				c1.2-22.8-18.2-42.1-42.8-42.5l-284.4-5.1C478.6,2757.8,458.6,2775.9,458.4,2798.4z"/>
		</g>
		<g>
			<g>
				<linearGradient id="SVGID_18_" gradientUnits="userSpaceOnUse" x1="928.5212" y1="3210.033" x2="1134.6504" y2="3210.033">
					<stop  offset="0" style="stop-color:#4F52FF"/>
					<stop  offset="1" style="stop-color:#4042E2"/>
				</linearGradient>
				<path fill="url(#SVGID_18_)" d="M1011.4,3210.9c-50.5,0-72.9-4.3-82.9-8.3c1.9,8.3,9.3,14.8,18.7,14.8H1126c6,0,9.8-5.8,8.4-11
					C1114,3208.1,1070.7,3210.9,1011.4,3210.9z"/>
				<linearGradient id="SVGID_19_" gradientUnits="userSpaceOnUse" x1="1087.3351" y1="2813.6721" x2="1031.0153" y2="3202.7915">
					<stop  offset="0" style="stop-color:#09005D"/>
					<stop  offset="1" style="stop-color:#1A0F91"/>
				</linearGradient>
				<path fill="url(#SVGID_19_)" d="M1134.3,3206.5c-0.3-1.1-0.7-2.1-1.5-3c-13.6-17.4-41-44.7-78.2-44.2
					c-54.5,0.8-73.5,6.7-115.9,0.3l-10,33.1c-1,3.4-1,6.7-0.3,9.9c10,4,32.4,8.3,82.9,8.3C1070.7,3210.9,1114,3208.1,1134.3,3206.5z
					"/>
			</g>
			<linearGradient id="SVGID_20_" gradientUnits="userSpaceOnUse" x1="938.8176" y1="3147.9153" x2="994.5896" y2="3147.9153">
				<stop  offset="0" style="stop-color:#FEBBBA"/>
				<stop  offset="1" style="stop-color:#FF928E"/>
			</linearGradient>
			<path fill="url(#SVGID_20_)" d="M951.1,3123.9l-12.3,41.7c0,0,27.2,12.4,51.1,2.4l4.7-36.1L951.1,3123.9z"/>
			<g>
				<linearGradient id="SVGID_21_" gradientUnits="userSpaceOnUse" x1="1251.8236" y1="3169.1833" x2="1418.2498" y2="3169.1833">
					<stop  offset="0" style="stop-color:#4F52FF"/>
					<stop  offset="1" style="stop-color:#4042E2"/>
				</linearGradient>
				<path fill="url(#SVGID_21_)" d="M1321.6,3184.6c-39.4,31.7-59.5,42.3-69.8,45.5c6.7,5.2,16.5,5.7,23.8-0.2l139.4-112
					c4.7-3.8,4.1-10.6-0.3-13.8C1399.8,3118.2,1367.8,3147.5,1321.6,3184.6z"/>
				<linearGradient id="SVGID_22_" gradientUnits="userSpaceOnUse" x1="1366.2994" y1="2854.0459" x2="1309.9794" y2="3243.1675">
					<stop  offset="0" style="stop-color:#09005D"/>
					<stop  offset="1" style="stop-color:#1A0F91"/>
				</linearGradient>
				<path fill="url(#SVGID_22_)" d="M1414.7,3104.2c-0.9-0.6-1.9-1.2-3-1.4c-21.5-5-59.8-9-88.5,14.7c-42,34.7-53.1,51.2-90.1,72.8
					l12.9,32c1.3,3.3,3.4,5.9,5.9,7.9c10.3-3.2,30.4-13.8,69.8-45.5C1367.8,3147.5,1399.8,3118.2,1414.7,3104.2z"/>
			</g>
			<linearGradient id="SVGID_23_" gradientUnits="userSpaceOnUse" x1="1091.3606" y1="2675.5735" x2="610.7664" y2="3104.5159">
				<stop  offset="0" style="stop-color:#09005D"/>
				<stop  offset="1" style="stop-color:#1A0F91"/>
			</linearGradient>
			<path fill="url(#SVGID_23_)" d="M688.7,2648.6c0,0,302.5,24.7,364.6,53.9c62.1,29.2-50.6,438.7-50.6,438.7s-16.9,8.1-54.5-3.6
				c0,0,38.6-302.2,9.9-367.7l-327.6-53.6L688.7,2648.6z"/>
			<linearGradient id="SVGID_24_" gradientUnits="userSpaceOnUse" x1="1202.981" y1="3152.6094" x2="1269.5658" y2="3152.6094">
				<stop  offset="0" style="stop-color:#FEBBBA"/>
				<stop  offset="1" style="stop-color:#FF928E"/>
			</linearGradient>
			<path fill="url(#SVGID_24_)" d="M1203,3132.8c2.8,2.6,30.1,57.5,30.1,57.5s30.3-6.6,36.5-25.8l-27.3-49.6L1203,3132.8z"/>
			<linearGradient id="SVGID_25_" gradientUnits="userSpaceOnUse" x1="1222.2047" y1="2385.2036" x2="1094.1963" y2="2571.6018">
				<stop  offset="0" style="stop-color:#09005D"/>
				<stop  offset="1" style="stop-color:#1A0F91"/>
			</linearGradient>
			<path fill="url(#SVGID_25_)" d="M506.5,2646c0,0-9.9,23.7-9.5,55.2c0.6,43.6,35.6,79,79.2,81.2l357.7,16.3
				c7.6,0.3,13.9,5.6,15.8,12.9c8.4,32.5,49.5,132.3,250.3,331.5c5.3,5.3,13.7,6.2,20,2.2l28.6-18.1c3-1.9,4-5.8,2.2-8.9
				l-208.2-355.6c-10.9-18.1-28.5-31.1-49-36.3l-304.8-77.9L506.5,2646z"/>
			<linearGradient id="SVGID_26_" gradientUnits="userSpaceOnUse" x1="833.1288" y1="2214.3313" x2="865.9557" y2="2131.5505">
				<stop  offset="0" style="stop-color:#FEBBBA"/>
				<stop  offset="1" style="stop-color:#FF928E"/>
			</linearGradient>
			<path fill="url(#SVGID_26_)" d="M858.9,2090.6c0,0-38.3,67.7-77.4,100.6l80.7,45c0,0,18.2-71.7,59.8-92.7L858.9,2090.6z"/>
			<linearGradient id="SVGID_27_" gradientUnits="userSpaceOnUse" x1="935.8589" y1="974.9801" x2="875.2236" y2="1803.6665">
				<stop  offset="0" style="stop-color:#FF928E"/>
				<stop  offset="1" style="stop-color:#FE7062"/>
			</linearGradient>
			<path fill="url(#SVGID_27_)" d="M500,2648.6c0,0,96.6,23.5,188.7,0c0,0,129-173.4,178.8-220.5c0,0,79.6,125.6,256.7,143.4
				l9.9-22.1c0,0-141-65-184.4-164.9c-43.4-99.9-60.8-142.5-100.3-168.5c-24.6-16.2-39.3-27.3-46.9-33.4c-4.2-3.3-9.9-3.7-14.5-0.9
				C746,2207.1,548.8,2342.2,500,2648.6z"/>
			<linearGradient id="SVGID_28_" gradientUnits="userSpaceOnUse" x1="814.5623" y1="2377.0957" x2="862.2794" y2="2377.0957">
				<stop  offset="0" style="stop-color:#E1473D"/>
				<stop  offset="1" style="stop-color:#E9605A"/>
			</linearGradient>
			<path fill="url(#SVGID_28_)" d="M814.6,2334.8c0,0,17.2,44.7,47.7,84.6L814.6,2334.8z"/>
			<linearGradient id="SVGID_29_" gradientUnits="userSpaceOnUse" x1="1113.5813" y1="2536.2705" x2="1267.3832" y2="2536.2705">
				<stop  offset="0" style="stop-color:#FEBBBA"/>
				<stop  offset="1" style="stop-color:#FF928E"/>
			</linearGradient>
			<path fill="url(#SVGID_29_)" d="M1113.6,2537.8l19.9-5.3l60.5-14c7.3-1.7,14.9-0.4,21.3,3.6l52,32.7l-143.7-0.2L1113.6,2537.8z"
				/>
			<g>
				
					<linearGradient id="SVGID_30_" gradientUnits="userSpaceOnUse" x1="2830.3904" y1="2498.498" x2="2665.5708" y2="2624.6104" gradientTransform="matrix(0.9914 -0.1306 0.1306 0.9914 -2198.9988 -61.3823)">
					<stop  offset="0" style="stop-color:#FEBBBA"/>
					<stop  offset="1" style="stop-color:#FF928E"/>
				</linearGradient>
				<path fill="url(#SVGID_30_)" d="M919.7,1989c0,0,37.2,61.9,43.7,96.1c6.5,34.2,16.8,55.6-22.1,67.8
					c-38.9,12.2-75.1-3.2-97.8-35.2c0,0-35.5-49.1-31.9-71.6C815.1,2023.5,919.7,1989,919.7,1989z"/>
				
					<linearGradient id="SVGID_31_" gradientUnits="userSpaceOnUse" x1="2714.5967" y1="2398.9446" x2="2863.8464" y2="2591.1033" gradientTransform="matrix(0.9914 -0.1306 0.1306 0.9914 -2198.9988 -61.3823)">
					<stop  offset="0" style="stop-color:#09005D"/>
					<stop  offset="1" style="stop-color:#1A0F91"/>
				</linearGradient>
				<path fill="url(#SVGID_31_)" d="M853.9,2091.2l5-0.7c0,0-26.4-39.8-9.1-49.7c17.3-9.9,87.6-34.1,99.8-61.8
					c11.8-26.7-5.8-56.8-27.1-63.1c-1.3-0.4-2.8,0.4-3.2,1.7l-1.2,3.4c-0.9,2.3-4.1,2.4-5.1,0.1l0,0c-0.9-2.1-4-2.2-4.9-0.1
					c-3.8,8.3-15,22.5-48.8,33.4c-48,15.6-77.9,39.7-74.2,73.8c0.2,2.2-1.9,3.6-3.9,2.8c-3.9-1.7-9.9-2-16.8,5.5
					c-12,13.1-2.6,41.9,30.2,62.2c1.6,1,1.8,3.2,0.4,4.4c-4.9,4.2-11.8,13.6,10.4,21.9c22.7,8.5,35.1,5.6,39.7,3.8
					c1.2-0.5,1.9-1.8,1.7-3.1l-5.8-29.9c-0.3-1.5,0.8-3,2.3-3.2L853.9,2091.2z"/>
				
					<linearGradient id="SVGID_32_" gradientUnits="userSpaceOnUse" x1="2809.9465" y1="2471.7798" x2="2645.1262" y2="2597.8923" gradientTransform="matrix(0.9914 -0.1306 0.1306 0.9914 -2198.9988 -61.3823)">
					<stop  offset="0" style="stop-color:#FEBBBA"/>
					<stop  offset="1" style="stop-color:#FF928E"/>
				</linearGradient>
				<path fill="url(#SVGID_32_)" d="M855.9,2097.4c0,0-16.4-40.5-33.7-26.3c-17.3,14.2,15.9,45.7,31.3,45.3L855.9,2097.4z"/>
			</g>
		</g>
		<g>
			<g>
				
					<linearGradient id="SVGID_33_" gradientUnits="userSpaceOnUse" x1="20656.541" y1="-22129.4551" x2="20245.209" y2="-21731.7773" gradientTransform="matrix(-1.388 -6.860000e-02 -6.850000e-02 1.3855 -4690.1738 -570.6171)">
					<stop  offset="0" style="stop-color:#09005D"/>
					<stop  offset="1" style="stop-color:#1A0F91"/>
				</linearGradient>
				<path fill="url(#SVGID_33_)" d="M1058,2583c0.2,0,0.5,0,0.7,0l307.1-0.3c7.6,0,13.7-6.2,13.7-13.7c0-7.6-6.2-13.8-13.8-13.7
					l-307.1,0.3c-7.6,0-13.7,6.2-13.7,13.7C1045,2576.6,1050.8,2582.6,1058,2583z"/>
			</g>
			<g>
				
					<linearGradient id="SVGID_34_" gradientUnits="userSpaceOnUse" x1="17511.4336" y1="-22142.4453" x2="17100.1211" y2="-21744.7852" gradientTransform="matrix(0.6475 -1.2297 -1.2274 -0.6463 8775.9707 -5472.2012)">
					<stop  offset="0" style="stop-color:#09005D"/>
					<stop  offset="1" style="stop-color:#1A0F91"/>
				</linearGradient>
				<path fill="url(#SVGID_34_)" d="M1484.8,2282.3c-0.1,0.2-0.2,0.4-0.3,0.6l-129.2,278.6c-3.2,6.9-0.2,15.1,6.7,18.2
					c6.9,3.2,15.2,0.2,18.2-6.7l129.2-278.6c3.2-6.9,0.2-15.1-6.7-18.2C1496,2273.1,1488.1,2275.8,1484.8,2282.3z"/>
			</g>
		</g>
		<g>
			<path fill="#BDD0FB" d="M1194.8,2606.1c-1.3,5.6-129.5,486.1-162,607.9c-3.7,14,6.7,27.8,21.1,27.8l0,0c10,0,18.8-6.9,21.2-16.7
				l142.2-576.7L1194.8,2606.1z"/>
			<path fill="#BDD0FB" d="M1264.9,2606.1c1.3,5.6,129.5,486.1,162,607.9c3.7,14-6.7,27.8-21.1,27.8l0,0c-10,0-18.8-6.9-21.2-16.7
				l-142.2-576.7L1264.9,2606.1z"/>
			<path fill="#BDD0FB" d="M1270.3,2590.4h-79.8v64.1c0,9.2,7.4,16.7,16.5,16.7h10.9v143.9c0,7,5.6,12.6,12.5,12.6l0,0
				c6.9,0,12.5-5.7,12.5-12.6v-143.9h5.6c12.1,0,21.9-9.9,21.9-22.1V2590.4z"/>
			<path fill="#BDD0FB" d="M994.3,2575h445.6c6.2,0,11.7,4.3,13.2,10.4l6.2,24.4c2.2,8.8-4.3,17.3-13.3,17.3l-457.2-2.7
				c-8.9-0.1-15.3-8.5-13.2-17.2l5.4-21.7C982.6,2579.3,988,2575,994.3,2575z"/>
		</g>
	</g>
	<g>
	</g>
	<g>
	</g>
	<g>
	</g>
	<g>
	</g>
	<g>
	</g>
	<g>
	</g>
	<g>
	</g>
	<g>
	</g>
	<g>
	</g>
	<g>
	</g>
	<g>
	</g>
	<g>
	</g>
	<g>
	</g>
	<g>
	</g>
	<g>
	</g>
</g>
</svg>
