<?xml version="1.0" encoding="utf-8"?>
<!-- Generator: Adobe Illustrator 25.2.3, SVG Export Plug-In . SVG Version: 6.00 Build 0)  -->
<svg version="1.1" id="a409dab3-0f7c-47ef-9512-74e04c6e5a44"
	 xmlns="http://www.w3.org/2000/svg" xmlns:xlink="http://www.w3.org/1999/xlink" x="0px" y="0px" viewBox="0 0 273.2 254.2"
	 style="enable-background:new 0 0 273.2 254.2;" xml:space="preserve">
<style type="text/css">
	.st0{fill:#0539F7;}
	.st1{fill:#150035;}
	.st2{fill:#FFFFFF;}
</style>
<path class="st0" d="M259.5,135h-19.9c-0.2,0-0.4,0.2-0.4,0.4v41.2l0,0c0.1,0.8,0.7,1.4,1.4,1.7l6,3.5c1.7,1,3.8,1,5.6,0.2l6.8-3.9
	c0.6-0.3,1-0.9,1-1.5l0,0v-41.2C259.8,135.2,259.7,135,259.5,135z"/>
<path class="st1" d="M249.7,183.2c-1.2,0-2.4-0.3-3.5-0.9l-6-3.5c-0.7-0.4-1.2-0.9-1.5-1.7h-0.1v-41.8c0-0.6,0.4-1,1-1h19.9
	c0.6,0,1,0.4,1,1v41.8h-0.1c-0.2,0.6-0.6,1.1-1.2,1.4l-6.8,3.9C251.5,183,250.6,183.2,249.7,183.2z M239.8,176.5L239.8,176.5
	c0.1,0.5,0.5,1,1,1.2l6,3.5c1.5,0.8,3.4,0.9,5,0.2l6.8-3.9c0.4-0.2,0.6-0.5,0.7-0.9v-0.7h0.1v-40.3h-19.5L239.8,176.5z"/>
<path class="st1" d="M259.5,135h-9.2v47.5c0.6,0,1.3-0.2,1.8-0.5l6.8-3.9c0.6-0.3,1-0.9,1-1.5l0,0v-41.2
	C259.9,135.2,259.7,135,259.5,135z"/>
<path class="st2" d="M258.9,136.6l-6.8,3.9c-1.8,0.8-3.9,0.7-5.6-0.2l-6-3.5c-1.7-1-1.8-2.4-0.4-3.2l6.8-3.9
	c1.8-0.8,3.9-0.7,5.6,0.2l6,3.5C260.1,134.3,260.3,135.7,258.9,136.6z"/>
<path class="st1" d="M249.7,141.7c-1.2,0-2.4-0.3-3.5-0.9l-6-3.5c-0.9-0.4-1.6-1.3-1.7-2.4c0-0.8,0.5-1.6,1.3-1.9l6.8-3.9
	c2-0.9,4.3-0.8,6.2,0.2l6,3.5c0.9,0.4,1.6,1.3,1.7,2.4c0,0.8-0.5,1.6-1.3,1.9l-6.8,3.9C251.6,141.5,250.6,141.7,249.7,141.7z
	 M249.3,129.7c-0.7,0-1.5,0.1-2.1,0.5l-6.8,3.9c-0.3,0.2-0.7,0.5-0.7,0.9s0.4,0.9,1.1,1.3l6,3.5c1.5,0.8,3.4,0.9,5,0.2l6.8-3.9
	c0.4-0.2,0.6-0.5,0.7-0.9c0-0.4-0.4-0.9-1.1-1.3l-6-3.5C251.3,129.9,250.3,129.6,249.3,129.7L249.3,129.7z"/>
<rect x="246.5" y="140.6" class="st1" width="1.2" height="41.5"/>
<rect x="257" y="138.9" class="st0" width="1" height="38.2"/>
<path class="st0" d="M245.5,170.5h-19.9c-0.2,0-0.4,0.2-0.4,0.4v20.3l0,0c0.1,0.8,0.7,1.4,1.4,1.7l6,3.5c1.7,1,3.8,1,5.6,0.2
	l6.8-3.9c0.6-0.2,1-0.8,1-1.5l0,0v-20.3C246,170.7,245.8,170.5,245.5,170.5L245.5,170.5z"/>
<path class="st1" d="M235.7,197.9c-1.2,0-2.4-0.3-3.5-0.9l-6-3.5c-0.7-0.4-1.2-0.9-1.5-1.7h-0.1v-21c0-0.6,0.4-1,1-1h19.9
	c0.6,0,1,0.4,1,1v21h-0.1c-0.2,0.6-0.6,1.1-1.2,1.4l-6.8,3.9C237.5,197.7,236.6,197.9,235.7,197.9z M225.8,191.2L225.8,191.2
	c0.1,0.6,0.5,1.1,1,1.3l6,3.5c1.5,0.9,3.4,0.9,5,0.2l6.8-3.9c0.4-0.2,0.6-0.5,0.7-0.9v-0.7h0.1v-19.5h-19.5L225.8,191.2z"/>
<path class="st1" d="M245.5,170.5h-9.2v26.7c0.6,0,1.3-0.2,1.8-0.5l6.8-3.9c0.6-0.2,1-0.8,1-1.5l0,0v-20.4
	C246,170.7,245.8,170.5,245.5,170.5L245.5,170.5z"/>
<path class="st2" d="M245,172l-6.8,3.9c-1.8,0.8-3.9,0.7-5.6-0.2l-6-3.5c-1.7-1-1.8-2.4-0.4-3.2l6.8-3.9c1.8-0.8,3.9-0.7,5.6,0.2
	l6,3.5C246.2,169.8,246.4,171.2,245,172z"/>
<path class="st1" d="M235.7,177.1c-1.2,0-2.4-0.3-3.5-0.9l-6-3.5c-0.9-0.4-1.6-1.3-1.7-2.4c0-0.8,0.5-1.6,1.3-1.9l6.8-3.9
	c2-0.9,4.3-0.8,6.2,0.2l6,3.5c0.9,0.4,1.6,1.3,1.7,2.4c0,0.8-0.5,1.6-1.3,1.9l-6.8,3.9C237.6,176.9,236.6,177.2,235.7,177.1z
	 M235.3,165.1c-0.7,0-1.5,0.1-2.1,0.5l-6.8,3.9c-0.3,0.2-0.7,0.5-0.7,0.9s0.4,0.9,1.1,1.3l6,3.5c1.5,0.8,3.4,0.9,5,0.2l6.8-3.9
	c0.4-0.2,0.6-0.5,0.7-0.9c0-0.4-0.4-0.9-1.1-1.3l-6-3.5C237.3,165.4,236.4,165.1,235.3,165.1L235.3,165.1z"/>
<rect x="232.6" y="176.1" class="st1" width="1.2" height="20.7"/>
<rect x="243.1" y="174.4" class="st0" width="0.9" height="17.4"/>
<path class="st0" d="M272.2,190.8h-19.9c-0.2,0-0.4,0.2-0.4,0.4v6.1l0,0c0.1,0.8,0.6,1.4,1.4,1.7l6,3.5c1.7,1,3.8,1,5.6,0.2l6.8-3.9
	c0.6-0.3,1-0.8,1-1.5l0,0v-6.2C272.6,191,272.4,190.8,272.2,190.8z"/>
<path class="st1" d="M262.4,204c-1.2,0-2.4-0.3-3.5-0.9l-6-3.5c-0.7-0.4-1.2-0.9-1.5-1.7h-0.1v-6.8c0-0.6,0.4-1,1-1h19.9
	c0.6,0,1,0.4,1,1v6.8h-0.1c-0.2,0.6-0.6,1.1-1.2,1.4l-6.8,3.9C264.3,203.9,263.4,204.1,262.4,204z M252.5,197.3L252.5,197.3
	c0,0.4,0.4,0.9,1.1,1.2l6,3.5c1.5,0.8,3.4,0.9,5,0.2l6.8-3.9c0.4-0.2,0.6-0.5,0.7-0.9v-0.7l0,0v-5.4h-19.5L252.5,197.3z"/>
<path class="st1" d="M272.2,190.9H263v12.5c0.6,0,1.3-0.2,1.8-0.5l6.8-3.9c0.6-0.3,1-0.8,1-1.5l0,0v-6.2
	C272.7,191,272.5,190.9,272.2,190.9L272.2,190.9z"/>
<path class="st2" d="M271.7,192.4l-6.8,3.9c-1.8,0.8-3.9,0.7-5.6-0.2l-6-3.5c-1.7-1-1.8-2.4-0.4-3.2l6.8-3.9
	c1.8-0.8,3.9-0.7,5.6,0.2l6,3.5C272.9,190.1,273.1,191.5,271.7,192.4z"/>
<path class="st1" d="M262.4,197.5c-1.2,0-2.4-0.3-3.5-0.9l-6-3.5c-0.9-0.4-1.6-1.3-1.7-2.4c0-0.8,0.5-1.6,1.3-1.9l6.8-3.9
	c2-0.9,4.3-0.8,6.2,0.2l6,3.5c0.9,0.4,1.6,1.3,1.7,2.4c0,0.8-0.5,1.6-1.3,1.9l-6.8,3.9C264.3,197.3,263.4,197.5,262.4,197.5z
	 M262.1,185.5c-0.7,0-1.5,0.1-2.1,0.5l-6.8,3.9c-0.4,0.2-0.6,0.5-0.7,0.9c0,0.4,0.4,0.9,1.1,1.3l6,3.5c1.5,0.8,3.4,0.9,5,0.2
	l6.8-3.9c0.4-0.2,0.6-0.5,0.7-0.9c0-0.4-0.4-0.9-1.1-1.3l-6-3.5C264.1,185.7,263.1,185.5,262.1,185.5L262.1,185.5z"/>
<rect x="259.3" y="196.4" class="st1" width="1.2" height="6.5"/>
<rect x="269.8" y="194.7" class="st0" width="1" height="3.2"/>
<path class="st0" d="M98.1,220.4l18.1-1.5l0,0l2.6,1.8l0,0c3.8,0.2,7.4,1.3,10.8,3c1,0.5,1.9,1.2,2.8,1.9l0,0l3.2-0.6l0,0v6.8l0,0
	c0,2.9-1.9,5.8-5.7,8c-7.7,4.5-20.1,4.5-27.8,0c-0.8-0.5-1.6-1-2.3-1.6l0,0v-6.8l0,0l8.6-1.5l0,0l-10.2-2.7l0,0L98.1,220.4
	L98.1,220.4z"/>
<path class="st1" d="M136.2,231.8v0.3l0,0c-0.1,3.1-2.2,6-6,8.1c-7.8,4.5-20.5,4.5-28.3,0c-0.9-0.5-1.7-1.1-2.5-1.7l-0.1-0.1V231
	l6.9-1.2l-8.2-2.1l-0.3-0.1V220l18.5-1.6h0.2l2.7,1.8c3.8,0.2,7.5,1.3,10.8,3c1,0.5,1.8,1.1,2.7,1.8l3-0.5l0.2-0.1l0.4,0.3
	L136.2,231.8z M98.7,220.8v6l9.9,2.6l0.4,0.1v0.8l-8.7,1.5v6.2c0.7,0.5,1.4,1,2.1,1.4c7.5,4.3,19.8,4.3,27.3,0
	c3.5-2,5.5-4.7,5.5-7.6v-6.3l-2.6,0.5l-0.3,0.1l-0.2-0.2c-0.8-0.7-1.7-1.3-2.7-1.9c-3.3-1.7-6.9-2.7-10.6-2.9l-2.7-1.8L98.7,220.8z"
	/>
<path class="st2" d="M116,225l-17.8-4.6l0,0c1.5-1.8,3.5-3.3,5.7-4.2c7.6-3.5,18.8-3.2,25.8,0.7c8,4.4,8.1,11.7,0.3,16.2
	s-20.1,4.5-27.8,0c-0.8-0.5-1.6-1-2.3-1.6l0,0L116,225L116,225z"/>
<path class="st1" d="M136.2,224.9c0,3.2-2.1,6.3-6,8.5c-7.8,4.5-20.5,4.5-28.3,0c-0.9-0.5-1.7-1-2.4-1.7l-0.2-0.2l0.1-0.5l15.1-6
	L98,220.8l-0.2-0.1l-0.1-0.5l0.1-0.2c1.6-1.9,3.6-3.4,5.9-4.4c7.8-3.6,19.1-3.3,26.2,0.7c2,1,3.7,2.5,5,4.3
	C135.7,221.9,136.2,223.4,136.2,224.9z M116.1,224.5l0.4,0.1v0.7l-15.7,6.2c0.5,0.4,1.1,0.7,1.6,1.1c7.5,4.3,19.8,4.3,27.3,0
	c3.6-2.1,5.5-4.8,5.5-7.7s-2.1-5.6-5.8-7.7c-6.9-3.8-17.8-4.1-25.4-0.7c-1.9,0.8-3.6,2-5,3.5L116.1,224.5z"/>
<path class="st2" d="M99.9,231.4L116,225l0,0l-5.6,10.9l0,0c-2.9-0.5-5.7-1.4-8.3-2.8C101.3,232.6,100.5,232.1,99.9,231.4
	C99.8,231.5,99.8,231.4,99.9,231.4z"/>
<path class="st1" d="M110.7,236.4l-0.4-0.1c-3-0.5-5.8-1.4-8.5-2.9c-0.8-0.5-1.6-1-2.4-1.6l-0.2-0.2l0.1-0.6l16.4-6.5l0.3-0.1
	l0.5,0.5L110.7,236.4z M102.4,232.6c2.4,1.3,5.1,2.3,7.8,2.7l4.8-9.4l-14.2,5.6C101.3,232,101.8,232.3,102.4,232.6z"/>
<path class="st1" d="M116,225.1L116,225.1v11.3l0,0c-1.9,0-3.7-0.2-5.6-0.5L116,225.1z"/>
<path class="st1" d="M103.5,233.8v6.7c-1.4-0.6-2.7-1.4-3.9-2.4l0.2-6.7L103.5,233.8z"/>
<path class="st1" d="M116.5,236.9H116c-1.9,0-3.8-0.2-5.7-0.5l-0.7-0.1l5.9-11.5l0.2-0.4l0.8,0.2L116.5,236.9z M115.5,235.9V227
	l-4.3,8.5C112.6,235.7,114.1,235.9,115.5,235.9L115.5,235.9z"/>
<path class="st0" d="M116,236.4v-11.3l0,0l4,11C118.7,236.3,117.3,236.4,116,236.4L116,236.4z"/>
<path class="st1" d="M120.7,236.6l-0.6,0.1c-1.3,0.2-2.7,0.2-4,0.2h-0.5v-11.8v-0.4l0.8-0.1L120.7,236.6z M119.3,235.7l-2.8-7.9v8
	C117.4,235.9,118.4,235.8,119.3,235.7L119.3,235.7z"/>
<rect x="110" y="235.9" transform="matrix(1 -1.745323e-03 1.745323e-03 1 -0.4176 0.1932)" class="st1" width="1" height="6.9"/>
<rect x="131.2" y="231.7" transform="matrix(1 -1.919854e-03 1.919854e-03 1 -0.4512 0.2533)" class="st1" width="1" height="6.9"/>
<rect x="129" y="233.3" transform="matrix(1 -1.745323e-03 1.745323e-03 1 -0.413 0.2264)" class="st1" width="1" height="6.9"/>
<rect x="101.9" y="221.6" transform="matrix(1 -1.745323e-03 1.745323e-03 1 -0.3926 0.1791)" class="st1" width="1" height="6.9"/>
<path class="st1" d="M106.2,243.7c-2.9-0.6-5.5-1.9-7.8-3.7c-0.6-0.5-1-1.3-1.1-2.1l-0.2-2.3l-1,0.1l0.2,2.3
	c0.1,1.1,0.6,2.1,1.5,2.8c2.4,1.9,5.2,3.3,8.2,3.9L106.2,243.7z"/>
<rect x="109.7" y="243" transform="matrix(0.1381 -0.9904 0.9904 0.1381 -147.5599 320.1598)" class="st1" width="1" height="3.7"/>
<path class="st1" d="M116.2,210.5c-2.7-0.2-5.3,0.1-7.9,0.9l0.3,0.9c2.4-0.7,4.9-1,7.4-0.9L116.2,210.5z"/>
<rect x="104.3" y="212.3" transform="matrix(0.9306 -0.366 0.366 0.9306 -70.5488 53.4835)" class="st1" width="3" height="1"/>
<rect x="49.8" y="23.5" class="st1" width="1.2" height="74.2"/>
<rect x="49.8" y="101.9" class="st1" width="1.2" height="10.5"/>
<path class="st1" d="M230,136.4h1.2v-34.1c0-0.1,0.8-10.8-9.3-15.3l-0.5,1c9.3,4.2,8.7,13.8,8.6,14.2V136.4z"/>
<rect x="230" y="140.6" class="st1" width="1.2" height="11.5"/>
<path class="st1" d="M86.3,168.9l6.3,0.1c0.1,0,0.2,0,0.3-0.1l24.2-14c1.5-0.9,3.4-0.9,5-0.2l54.8,31.7h0.1l18.2,6.1
	c0.2,0.1,0.4,0.3,0.4,0.6v4.6c0.1,0.6-0.2,1.4-1.2,1.9L164.3,217c-1.5,0.9-3.4,0.9-5,0.2l-72.7-42c-0.5-0.2-0.8-0.7-0.9-1.3v-4.6
	C85.7,169.1,86,168.9,86.3,168.9z"/>
<path class="st1" d="M159,217.8l-72.7-42c-0.7-0.3-1.1-1-1.1-1.8v-4.6c0-0.3,0.1-0.6,0.4-0.8c0.2-0.2,0.5-0.4,0.9-0.3l6.3,0.1
	l24.2-14c1.7-1,3.8-1.1,5.6-0.2l54.8,31.7l18.2,6.1c0.5,0.2,0.8,0.6,0.8,1.1v4.5c0.1,1.1-0.5,2.1-1.5,2.5l-30.2,17.4
	c-1,0.5-2,0.8-3.1,0.8C160.6,218.4,159.7,218.2,159,217.8z M117.4,155.5l-24.2,14c-0.2,0.1-0.4,0.2-0.6,0.2l-6.3-0.1V169v5.2
	c0,0.3,0.2,0.6,0.6,0.8l72.7,42c1.4,0.6,3.1,0.6,4.4-0.2l30.2-17.4c0.7-0.4,1-0.9,0.9-1.3v-4.7l-18.2-6.1c-0.1,0-0.2,0-0.2-0.1
	l-54.8-31.7c-0.6-0.3-1.2-0.4-1.9-0.4C119.1,154.9,118.2,155.1,117.4,155.5L117.4,155.5z"/>
<path class="st2" d="M86.5,170.3l72.7,42c1.6,0.7,3.5,0.6,5-0.2l30.2-17.4c1.5-0.9,1.6-2.1,0.4-2.9l-72.7-42c-1.6-0.7-3.5-0.7-5,0.2
	l-30.2,17.4C85.4,168.2,85.2,169.5,86.5,170.3z"/>
<path class="st1" d="M159,212.8l-72.7-42c-0.7-0.3-1.1-1-1.1-1.8c0.1-0.9,0.7-1.8,1.5-2.1l30.2-17.4c1.7-1,3.8-1,5.6-0.2l72.7,42
	c0.7,0.3,1.1,1,1.1,1.8c-0.1,0.9-0.7,1.7-1.5,2.1l-30.2,17.4c-1,0.5-2,0.8-3.1,0.8C160.6,213.4,159.7,213.2,159,212.8z M117.4,150.5
	l-30.2,17.4c-0.6,0.3-0.9,0.8-0.9,1.1s0.3,0.6,0.6,0.8l72.7,42c1.4,0.6,3.1,0.5,4.4-0.2l30.2-17.4c0.6-0.3,0.9-0.8,0.9-1.1
	s-0.3-0.6-0.6-0.8l-72.7-42c-0.6-0.3-1.2-0.5-1.9-0.4C119.1,149.8,118.2,150,117.4,150.5L117.4,150.5z"/>
<rect x="161" y="213.1" class="st0" width="0.9" height="4.3"/>
<rect x="191.9" y="195.9" class="st0" width="0.9" height="4.3"/>
<rect x="88.5" y="171.8" class="st0" width="0.9" height="4.3"/>
<path class="st2" d="M55.7,4c-0.1-0.1,0-0.2,0-0.2l0,0l5.4-3c0.3-0.2,0.8-0.2,1.1,0l163,94.1c1,0.7,1.6,1.8,1.6,3v124.8
	c0,0.5-0.1,0.9-0.5,1.2l-5.7,3.1l-5.7-6.8l2.2-1l-155-89.4c-1-0.7-1.6-1.8-1.6-3v-116L55.7,4z"/>
<path class="st1" d="M214.1,220l1.9-0.8L62,130.3c-1.2-0.8-1.9-2.1-1.9-3.6V10.9l-4.9-6.6c-0.1-0.2-0.2-0.4-0.1-0.6
	c0-0.2,0.2-0.4,0.4-0.5l5.3-3c0.5-0.4,1.2-0.4,1.8,0l163,94.1c1.2,0.8,1.9,2.1,1.9,3.6v124.7c0.1,0.7-0.2,1.3-0.8,1.7l-6.1,3.4
	L214.1,220z M61.4,1.3l-5,2.8l4.8,6.5v116.2c0,1,0.5,1.9,1.3,2.5l156,90.1l-2.6,1.1l4.9,5.9l5.2-2.9c0.1-0.1,0.2-0.3,0.2-0.8V97.9
	c0-1-0.5-1.9-1.3-2.6L62,1.3c-0.1-0.1-0.2-0.1-0.3-0.1C61.6,1.2,61.5,1.2,61.4,1.3z"/>
<path class="st1" d="M56.6,132.9l163,94.1c0.9,0.5,1.6,0,1.6-1.2V101.1c0-1.2-0.6-2.3-1.6-3L56.6,4C55.7,3.5,55,4,55,5.2v124.7
	C55,131.1,55.6,132.2,56.6,132.9z"/>
<path class="st1" d="M219.3,227.6l-163-94.1c-1.2-0.8-1.9-2.1-1.9-3.6V5.1c-0.1-0.7,0.3-1.4,0.8-1.8c0.5-0.3,1.1-0.2,1.6,0.1
	l163,94.1c1.2,0.8,1.9,2.1,1.9,3.6v124.7c0.1,0.7-0.3,1.4-0.8,1.8c-0.2,0.1-0.5,0.2-0.7,0.2C219.9,227.8,219.6,227.7,219.3,227.6z
	 M55.8,4.3c-0.1,0.1-0.3,0.3-0.3,0.8v124.7c0,1,0.5,1.9,1.3,2.6l163,94.1c0.1,0,0.3,0.2,0.5,0.1s0.3-0.3,0.3-0.8V101.1
	c0-1-0.5-1.9-1.3-2.5L56.3,4.4c-0.1-0.1-0.2-0.1-0.3-0.1S55.9,4.3,55.8,4.3z"/>
<path class="st0" d="M56.8,130.6l162.5,93.8c0.3,0.1,0.5,0,0.5-0.4V100.5c0-0.4-0.2-0.7-0.5-0.9L56.8,5.8c-0.3-0.2-0.5,0-0.5,0.3
	v123.6C56.3,130.1,56.5,130.4,56.8,130.6z"/>
<path class="st1" d="M219.1,224.9L56.5,131.1l0,0c-0.5-0.3-0.8-0.8-0.8-1.4V6.1c0-0.4,0.2-0.7,0.5-0.9c0.3-0.2,0.6-0.2,0.9,0
	l162.6,93.9c0.5,0.3,0.8,0.8,0.8,1.4v123.6c0,0.4-0.2,0.7-0.5,0.9c-0.1,0.1-0.3,0.1-0.4,0.1C219.4,225.1,219.2,225,219.1,224.9z
	 M56.9,129.7c0,0.1,0.1,0.3,0.2,0.4l162.1,93.6V100.5c0-0.1-0.1-0.3-0.2-0.4L56.9,6.5V129.7z"/>
<path class="st1" d="M55,130v-7.1l166.2,96v7.1c0,1.1-0.8,1.5-1.7,1L56.7,133C55.7,132.3,55,131.2,55,130z"/>
<path class="st1" d="M219.2,227.5l-162.8-94c-1.2-0.8-1.9-2.1-2-3.5v-8.1l167.1,96.5l0.3,0.2v7.5c0,0.6-0.3,1.3-0.8,1.6
	c-0.2,0.1-0.5,0.2-0.7,0.2C219.9,227.8,219.5,227.7,219.2,227.5z M55.6,123.9v6.1c0.1,1,0.6,1.9,1.4,2.5l162.8,94
	c0.3,0.1,0.5,0.2,0.6,0.1c0.2-0.2,0.2-0.4,0.2-0.6v-6.8L55.6,123.9z"/>
<rect x="137.7" y="163.3" transform="matrix(0.5003 -0.8659 0.8659 0.5003 -82.8986 207.2513)" class="st0" width="0.9" height="24.3"/>
<rect x="220.8" y="97.2" transform="matrix(0.8574 -0.5147 0.5147 0.8574 -18.3916 129.2796)" class="st1" width="6.5" height="1.2"/>
<rect x="66.1" y="8.9" transform="matrix(0.8601 -0.5101 0.5101 0.8601 4.8503 36.718)" class="st1" width="6.5" height="1.2"/>
<rect x="220.8" y="215.4" transform="matrix(0.8574 -0.5147 0.5147 0.8574 -79.224 146.1469)" class="st1" width="6.5" height="1.2"/>
<polygon class="st0" points="182.1,206.6 182.6,205.8 179,203.7 178.6,204.5 "/>
<path class="st1" d="M161.7,210.1c0.6,0,1.2-0.2,1.7-0.5l6.3-3.9l-0.6-1l-6.3,3.9c-0.7,0.4-1.5,0.4-2.2,0L98,172.9l-0.6,1l62.6,35.7
	C160.6,209.9,161.2,210.1,161.7,210.1z"/>
<path class="st1" d="M95.7,172.9l0.6-1l-4.6-2.6c-0.1-0.1-0.2-0.2-0.2-0.3s0.1-0.3,0.2-0.4l6.5-3.8l-0.6-1l-6.5,3.8
	c-0.7,0.4-1,1.4-0.6,2.1c0.1,0.2,0.3,0.4,0.6,0.6L95.7,172.9z"/>
<rect x="221.1" y="211.1" transform="matrix(0.8574 -0.5147 0.5147 0.8574 -76.9785 145.6802)" class="st1" width="6.5" height="1.2"/>
<rect x="68.9" y="9.1" transform="matrix(0.8574 -0.5147 0.5147 0.8574 5.2931 38.5398)" class="st1" width="6.5" height="1.2"/>
<rect x="221.1" y="103.1" transform="matrix(0.8574 -0.5147 0.5147 0.8574 -21.3911 130.2644)" class="st1" width="6.5" height="1.2"/>
<path class="st2" d="M105,75.4l-0.4-0.4l0.1-0.3l6.5-21.2l0.5,0.5c4.7,4.5,8.6,9.8,11.3,15.7l0.2,0.5L105,75.4z M111.7,55.2
	l-5.8,18.9l16.1-4.5C119.4,64.3,115.9,59.4,111.7,55.2z"/>
<path class="st2" d="M93.9,71.5V46.3l0,0c-12.5-7.2-22.5-0.8-21.7,14.3c0.7,12.8,9.4,27.9,20.1,35c7.2,4.8,13.8,5.1,18.2,1.8l0,0
	L93.9,71.5z"/>
<path class="st1" d="M103.6,100.2c-3.6,0-7.6-1.4-11.8-4.1C81,88.9,72.2,73.6,71.5,60.6c-0.4-7.6,1.9-13.5,6.4-16.2
	s10.1-2.2,16.3,1.4l0.3,0.2v25.3l16.7,26.3l-0.5,0.3C108.6,99.5,106.2,100.3,103.6,100.2z M84.1,43.9c-2,0-3.9,0.5-5.6,1.5
	c-4.1,2.5-6.2,8-5.8,15.1C73.4,73.1,81.9,88,92.5,95c6.5,4.3,12.7,5.1,17,2.2L93.3,71.7v-25C90.5,45,87.4,44,84.1,43.9z"/>
<path class="st1" d="M103.7,49c-1.9-1.8-4-3.4-6.3-4.7v25.1l0,0L103.7,49z"/>
<path class="st0" d="M99.8,73.3l17.5-4.9c-2.7-5.8-6.5-11.1-11.2-15.5L99.8,73.3L99.8,73.3z"/>
<path class="st1" d="M99.6,74l-0.5-0.6l0.1-0.4l6.5-21.4l0.7,0.7c4.7,4.5,8.6,9.8,11.4,15.7l0.3,0.7L99.6,74z M106.3,54l-5.7,18.4
	l15.7-4.4C113.8,62.7,110.4,58,106.3,54L106.3,54z"/>
<polygon class="st2" points="107.6,139.2 100.7,135.2 100.7,111.3 107.6,115.3 "/>
<path class="st1" d="M108.2,140.3l-8.1-4.7v-25.3l8.1,4.7V140.3z M101.3,134.9l5.7,3.3v-22.5l-5.7-3.3V134.9z"/>
<polygon class="st2" points="117.6,145 110.7,141 110.7,108.9 117.6,112.9 "/>
<path class="st1" d="M118.2,146.1l-8.1-4.7v-33.5l8.1,4.7V146.1z M111.3,140.7l5.7,3.3v-30.6l-5.7-3.3V140.7z"/>
<polygon class="st2" points="207.5,196.9 200.6,192.9 200.6,176.9 207.5,180.9 "/>
<path class="st1" d="M208.1,198l-8.1-4.7v-17.5l8.1,4.7V198z M201.2,192.6l5.7,3.3v-14.6l-5.7-3.3V192.6z"/>
<polygon class="st2" points="127.6,150.8 120.7,146.8 120.7,104.6 127.6,108.6 "/>
<path class="st1" d="M128.2,151.8l-8.1-4.7v-43.6l8.1,4.7V151.8z M121.3,146.4l5.7,3.3V109l-5.7-3.3V146.4z"/>
<polygon class="st2" points="137.6,156.5 130.7,152.6 130.7,120.5 137.6,124.5 "/>
<path class="st1" d="M138.2,157.6l-8.1-4.7v-33.5l8.1,4.7V157.6z M131.3,152.2l5.7,3.3v-30.7l-5.7-3.3V152.2z"/>
<polygon class="st2" points="187.4,185.3 180.5,181.3 180.5,139.2 187.4,143.2 "/>
<path class="st1" d="M188.1,186.4l-8.1-4.7v-43.6l8.1,4.7V186.4z M181.2,181l5.7,3.3v-40.8l-5.7-3.3V181z"/>
<polygon class="st2" points="197.4,191.1 190.5,187.1 190.5,155.1 197.4,159.1 "/>
<path class="st1" d="M198.1,192.2l-8.1-4.7V154l8.1,4.7V192.2z M191.2,186.8l5.7,3.3v-30.6l-5.7-3.3V186.8z"/>
<polygon class="st2" points="97.5,133.4 90.6,129.4 90.6,117.1 97.5,121.1 "/>
<path class="st1" d="M98.1,134.5l-8.1-4.7V116l8.1,4.7V134.5z M91.2,129.1l5.7,3.3v-10.9l-5.7-3.3V129.1z"/>
<polygon class="st2" points="147.6,162.3 140.7,158.3 140.7,108.3 147.6,112.3 "/>
<path class="st1" d="M148.2,163.4l-8.1-4.7v-51.5l8.1,4.7V163.4z M141.3,158l5.7,3.3v-48.6l-5.7-3.3V158z"/>
<polygon class="st2" points="157.4,167.9 150.5,163.9 150.5,118.4 157.4,122.4 "/>
<path class="st1" d="M158,169l-8.1-4.7v-47l8.1,4.7V169z M151.1,163.6l5.7,3.3v-44.1l-5.7-3.3V163.6z"/>
<polygon class="st2" points="167.4,173.7 160.5,169.7 160.5,133.7 167.4,137.7 "/>
<path class="st1" d="M168,174.8l-8.1-4.7v-37.5l8.1,4.7V174.8z M161.1,169.4l5.7,3.3v-34.6l-5.7-3.3V169.4z"/>
<polygon class="st2" points="177.4,179.5 170.5,175.5 170.5,146 177.4,150 "/>
<path class="st1" d="M178,180.5l-8.1-4.7V145l8.1,4.7V180.5z M171.1,175.1l5.7,3.3v-28l-5.7-3.3V175.1z"/>
<path class="st1" d="M196.4,126.4c0.2,1,0.7,1.8,1.4,2.5l0,0c-0.2,0-1.3-0.1-1.4,0.8l0,0c-0.2-1-0.7-1.8-1.4-2.5l0,0
	C195.2,127.2,196.3,127.3,196.4,126.4C196.4,126.3,196.4,126.3,196.4,126.4z"/>
<path class="st1" d="M192.2,123.9c0.2,1,0.7,1.8,1.4,2.5l0,0c-0.2,0-1.3-0.1-1.4,0.8l0,0c-0.2-1-0.7-1.8-1.5-2.5l0,0
	C191,124.8,192.1,124.9,192.2,123.9L192.2,123.9z"/>
<path class="st1" d="M188.1,121.5c0.2,0.9,0.7,1.8,1.4,2.5l0,0c-0.2,0-1.3-0.1-1.4,0.8l0,0c-0.2-1-0.7-1.8-1.5-2.5l0,0
	C186.8,122.4,187.9,122.5,188.1,121.5L188.1,121.5z"/>
<path class="st1" d="M183.9,119.1c0.2,1,0.7,1.8,1.4,2.5l0,0c-0.2,0-1.3-0.1-1.4,0.8l0,0c-0.2-1-0.7-1.8-1.4-2.5l0,0
	C182.7,119.9,183.8,120.1,183.9,119.1L183.9,119.1z"/>
<path class="st1" d="M179.7,116.7c0.2,1,0.7,1.8,1.4,2.5l0,0c-0.2,0-1.3-0.1-1.4,0.8l0,0c-0.2-1-0.7-1.8-1.5-2.5l0,0
	C178.5,117.5,179.6,117.7,179.7,116.7L179.7,116.7z"/>
<path class="st1" d="M175.5,114.3c0.2,1,0.7,1.8,1.4,2.5l0,0c-0.2,0-1.3-0.1-1.4,0.8l0,0c-0.2-1-0.7-1.8-1.5-2.5l0,0
	C174.3,115.1,175.4,115.3,175.5,114.3L175.5,114.3z"/>
<path class="st1" d="M171.4,111.9c0.2,0.9,0.7,1.8,1.4,2.5l0,0c-0.2,0-1.3-0.1-1.4,0.8l0,0c-0.2-1-0.7-1.8-1.5-2.5l0,0
	C170.1,112.7,171.2,112.9,171.4,111.9L171.4,111.9z"/>
<path class="st1" d="M167.2,109.5c0.2,1,0.7,1.8,1.4,2.5l0,0c-0.2,0-1.3-0.1-1.4,0.8l0,0c-0.2-1-0.7-1.8-1.5-2.5l0,0
	C165.9,110.3,167,110.5,167.2,109.5C167.2,109.4,167.2,109.4,167.2,109.5z"/>
<path class="st1" d="M163,107.1c0.2,1,0.7,1.8,1.4,2.5l0,0c-0.2,0-1.3-0.1-1.4,0.8l0,0c-0.2-1-0.7-1.8-1.5-2.5l0,0
	C161.8,107.9,162.9,108,163,107.1C163,107,163,107,163,107.1z"/>
<path class="st1" d="M158.8,104.7c0.2,1,0.7,1.8,1.4,2.5l0,0c-0.2,0-1.3-0.1-1.4,0.8l0,0c-0.2-1-0.7-1.8-1.5-2.5l0,0
	C157.6,105.5,158.7,105.6,158.8,104.7C158.8,104.6,158.8,104.6,158.8,104.7z"/>
<path class="st1" d="M209,133.6c0.2,1,0.7,1.8,1.4,2.5l0,0c-0.2,0-1.3-0.1-1.4,0.8l0,0c-0.2-1-0.7-1.8-1.5-2.5l0,0
	C207.7,134.4,208.8,134.6,209,133.6C208.9,133.6,209,133.6,209,133.6z"/>
<path class="st1" d="M204.8,131.2c0.2,1,0.7,1.8,1.4,2.5l0,0c-0.2,0-1.3-0.1-1.4,0.8l0,0c-0.2-1-0.7-1.8-1.5-2.5l0,0
	C203.5,132,204.6,132.1,204.8,131.2C204.8,131.1,204.8,131.2,204.8,131.2z"/>
<path class="st1" d="M200.6,128.8c0.2,1,0.7,1.8,1.4,2.5l0,0c-0.2,0-1.3-0.1-1.4,0.8l0,0c-0.2-1-0.7-1.8-1.5-2.5l0,0
	C199.4,129.6,200.4,129.8,200.6,128.8C200.6,128.7,200.6,128.7,200.6,128.8z"/>
<path class="st1" d="M196.4,121.5c0.2,0.9,0.7,1.8,1.4,2.5l0,0c-0.2,0-1.3-0.1-1.4,0.8l0,0c-0.2-1-0.7-1.8-1.4-2.5l0,0
	C195.2,122.3,196.3,122.5,196.4,121.5L196.4,121.5z"/>
<path class="st1" d="M192.2,119.1c0.2,1,0.7,1.8,1.4,2.5l0,0c-0.2,0-1.3-0.1-1.4,0.8l0,0c-0.2-1-0.7-1.8-1.5-2.5l0,0
	C191,119.9,192.1,120.1,192.2,119.1L192.2,119.1z"/>
<path class="st1" d="M188.1,116.7c0.2,1,0.7,1.8,1.4,2.5l0,0c-0.2,0-1.3-0.1-1.4,0.8l0,0c-0.2-1-0.7-1.8-1.5-2.5l0,0
	C186.8,117.5,187.9,117.7,188.1,116.7z"/>
<path class="st1" d="M183.9,114.3c0.2,1,0.7,1.8,1.4,2.5l0,0c-0.2,0-1.3-0.1-1.4,0.8l0,0c-0.2-1-0.7-1.8-1.4-2.5l0,0
	C182.7,115.1,183.8,115.2,183.9,114.3C183.9,114.2,183.9,114.3,183.9,114.3z"/>
<path class="st1" d="M179.7,111.9c0.2,1,0.7,1.8,1.4,2.5l0,0c-0.2,0-1.3-0.1-1.4,0.8l0,0c-0.2-1-0.7-1.8-1.5-2.5l0,0
	C178.5,112.7,179.6,112.8,179.7,111.9C179.7,111.8,179.7,111.8,179.7,111.9z"/>
<path class="st1" d="M175.5,109.4c0.2,1,0.7,1.8,1.4,2.5l0,0c-0.2,0-1.3-0.1-1.4,0.8l0,0c-0.2-1-0.7-1.8-1.5-2.5l0,0
	C174.3,110.3,175.4,110.4,175.5,109.4L175.5,109.4z"/>
<path class="st1" d="M171.4,107c0.2,0.9,0.7,1.8,1.4,2.5l0,0c-0.2,0-1.3-0.1-1.4,0.8l0,0c-0.2-1-0.7-1.8-1.5-2.5l0,0
	C170.1,107.9,171.2,108,171.4,107L171.4,107z"/>
<path class="st1" d="M167.2,104.6c0.2,1,0.7,1.8,1.4,2.5l0,0c-0.2,0-1.3-0.1-1.4,0.8l0,0c-0.2-1-0.7-1.8-1.5-2.5l0,0
	C165.9,105.5,167,105.6,167.2,104.6L167.2,104.6z"/>
<path class="st1" d="M163,102.2c0.2,0.9,0.7,1.8,1.4,2.5l0,0c-0.2,0-1.3-0.1-1.4,0.8l0,0c-0.2-1-0.7-1.8-1.5-2.5l0,0
	C161.8,103.1,162.9,103.2,163,102.2L163,102.2z"/>
<path class="st1" d="M158.8,99.8c0.2,1,0.7,1.8,1.4,2.5l0,0c-0.2,0-1.3-0.1-1.4,0.8l0,0c-0.2-1-0.7-1.8-1.5-2.5l0,0
	C157.6,100.6,158.7,100.8,158.8,99.8L158.8,99.8z"/>
<path class="st1" d="M209,128.7c0.2,1,0.7,1.8,1.4,2.5l0,0c-0.2,0-1.3-0.1-1.4,0.8l0,0c-0.2-1-0.7-1.8-1.5-2.5l0,0
	C207.7,129.6,208.8,129.7,209,128.7C208.9,128.7,209,128.7,209,128.7z"/>
<path class="st1" d="M204.8,126.3c0.2,1,0.7,1.8,1.4,2.5l0,0c-0.2,0-1.3-0.1-1.4,0.8l0,0c-0.2-1-0.7-1.8-1.5-2.5l0,0
	C203.5,127.2,204.6,127.3,204.8,126.3L204.8,126.3z"/>
<path class="st1" d="M200.6,123.9c0.2,0.9,0.7,1.8,1.4,2.5l0,0c-0.2,0-1.3-0.1-1.4,0.8l0,0c-0.2-1-0.7-1.8-1.5-2.5l0,0
	C199.4,124.8,200.4,124.9,200.6,123.9L200.6,123.9z"/>
<path class="st1" d="M196.4,116.7c0.2,1,0.7,1.8,1.4,2.5l0,0c-0.2,0-1.3-0.1-1.4,0.8l0,0c-0.2-1-0.7-1.8-1.4-2.5l0,0
	C195.2,117.5,196.3,117.6,196.4,116.7C196.4,116.6,196.4,116.7,196.4,116.7z"/>
<path class="st1" d="M192.2,114.2c0.2,1,0.7,1.9,1.4,2.6l0,0c-0.2,0-1.3-0.1-1.4,0.8l0,0c-0.2-1-0.7-1.8-1.5-2.5l0,0
	C191,115.1,192.1,115.3,192.2,114.2L192.2,114.2z"/>
<path class="st1" d="M188.1,111.8c0.2,1,0.7,1.8,1.4,2.5l0,0c-0.2,0-1.3-0.1-1.4,0.8l0,0c-0.2-1-0.7-1.8-1.5-2.5l0,0
	C186.8,112.6,187.9,112.8,188.1,111.8L188.1,111.8z"/>
<path class="st1" d="M183.9,109.4c0.2,1,0.7,1.8,1.4,2.5l0,0c-0.2,0-1.3-0.1-1.4,0.8l0,0c-0.2-1-0.7-1.8-1.4-2.5l0,0
	C182.7,110.3,183.8,110.4,183.9,109.4L183.9,109.4z"/>
<path class="st1" d="M179.7,107c0.2,1,0.7,1.8,1.4,2.5l0,0c-0.2,0-1.3-0.1-1.4,0.8l0,0c-0.2-1-0.7-1.8-1.5-2.5l0,0
	C178.5,107.9,179.6,108,179.7,107L179.7,107z"/>
<path class="st1" d="M175.5,104.6c0.2,0.9,0.7,1.8,1.4,2.5l0,0c-0.2,0-1.3-0.1-1.4,0.8l0,0c-0.2-1-0.7-1.8-1.5-2.5l0,0
	C174.3,105.4,175.4,105.6,175.5,104.6L175.5,104.6z"/>
<path class="st1" d="M171.4,102.2c0.2,0.9,0.7,1.8,1.4,2.5l0,0c-0.2,0-1.3-0.1-1.4,0.8l0,0c-0.2-1-0.7-1.8-1.5-2.5l0,0
	C170.1,103,171.2,103.2,171.4,102.2L171.4,102.2z"/>
<path class="st1" d="M167.2,99.8c0.2,1,0.7,1.8,1.4,2.5l0,0c-0.2,0-1.3-0.1-1.4,0.8l0,0c-0.2-1-0.7-1.8-1.5-2.5l0,0
	C165.9,100.6,167,100.8,167.2,99.8z"/>
<path class="st1" d="M163,97.4c0.2,1,0.7,1.8,1.4,2.5l0,0c-0.2,0-1.3-0.1-1.4,0.8l0,0c-0.2-1-0.7-1.8-1.5-2.5l0,0
	C161.8,98.2,162.9,98.4,163,97.4z"/>
<path class="st1" d="M158.8,95c0.2,1,0.7,1.8,1.4,2.5l0,0c-0.2,0-1.3-0.1-1.4,0.8l0,0c-0.2-1-0.8-1.8-1.5-2.5l0,0
	C157.6,95.8,158.7,95.9,158.8,95C158.8,94.9,158.8,94.9,158.8,95z"/>
<path class="st1" d="M209,123.9c0.2,0.9,0.7,1.8,1.4,2.5l0,0c-0.2,0-1.3-0.1-1.4,0.8l0,0c-0.2-1-0.7-1.8-1.5-2.5l0,0
	C207.7,124.7,208.8,124.9,209,123.9C208.9,123.9,209,123.9,209,123.9z"/>
<path class="st1" d="M204.8,121.5c0.2,1,0.7,1.8,1.4,2.5l0,0c-0.2,0-1.3-0.1-1.4,0.8l0,0c-0.2-1-0.7-1.8-1.5-2.5l0,0
	C203.5,122.3,204.6,122.5,204.8,121.5L204.8,121.5z"/>
<path class="st1" d="M200.6,119.1c0.2,1,0.7,1.8,1.4,2.5l0,0c-0.2,0-1.3-0.1-1.4,0.8l0,0c-0.2-1-0.7-1.8-1.5-2.5l0,0
	C199.4,119.9,200.4,120.1,200.6,119.1L200.6,119.1z"/>
<path class="st1" d="M196.4,111.8c0.2,1,0.7,1.8,1.4,2.5l0,0c-0.2,0-1.3-0.1-1.4,0.8l0,0c-0.2-1-0.7-1.8-1.4-2.5l0,0
	C195.2,112.6,196.3,112.8,196.4,111.8L196.4,111.8z"/>
<path class="st1" d="M192.2,109.4c0.2,1,0.7,1.8,1.4,2.5l0,0c-0.2,0-1.3-0.1-1.4,0.8l0,0c-0.2-1-0.7-1.8-1.5-2.5l0,0
	C191,110.2,192.1,110.4,192.2,109.4L192.2,109.4z"/>
<path class="st1" d="M188.1,107c0.2,1,0.7,1.8,1.4,2.5l0,0c-0.2,0-1.3-0.1-1.4,0.8l0,0c-0.2-1-0.7-1.8-1.5-2.5l0,0
	C186.8,107.8,187.9,108,188.1,107L188.1,107z"/>
<path class="st1" d="M183.9,104.6c0.2,0.9,0.7,1.8,1.4,2.5l0,0c-0.2,0-1.3-0.1-1.4,0.8l0,0c-0.2-1-0.7-1.8-1.4-2.5l0,0
	C182.7,105.4,183.8,105.6,183.9,104.6L183.9,104.6z"/>
<path class="st1" d="M179.7,102.2c0.2,1,0.7,1.8,1.4,2.5l0,0c-0.2,0-1.3-0.1-1.4,0.8l0,0c-0.2-1-0.7-1.8-1.5-2.5l0,0
	C178.5,103,179.6,103.2,179.7,102.2L179.7,102.2z"/>
<path class="st1" d="M175.5,99.8c0.2,1,0.7,1.8,1.4,2.5l0,0c-0.2,0-1.3-0.1-1.4,0.8l0,0c-0.2-1-0.7-1.8-1.5-2.5l0,0
	C174.3,100.6,175.4,100.8,175.5,99.8C175.5,99.7,175.5,99.8,175.5,99.8z"/>
<path class="st1" d="M171.4,97.4c0.2,1,0.7,1.8,1.4,2.5l0,0c-0.2,0-1.3-0.1-1.4,0.8l0,0c-0.2-1-0.7-1.8-1.5-2.5l0,0
	C170.1,98.2,171.2,98.3,171.4,97.4z"/>
<path class="st1" d="M167.2,94.9c0.2,1,0.7,1.8,1.4,2.5l0,0c-0.2,0-1.3-0.1-1.4,0.8l0,0c-0.2-1-0.7-1.8-1.5-2.5l0,0
	C165.9,95.8,167,95.9,167.2,94.9L167.2,94.9z"/>
<path class="st1" d="M163,92.5c0.2,1,0.7,1.8,1.4,2.5l0,0c-0.2,0-1.3-0.1-1.4,0.8l0,0c-0.2-1-0.7-1.8-1.5-2.5l0,0
	C161.8,93.4,162.9,93.5,163,92.5L163,92.5z"/>
<path class="st1" d="M158.8,90.1c0.2,1,0.7,1.8,1.4,2.5l0,0c-0.2,0-1.3-0.1-1.4,0.8l0,0c-0.2-1-0.7-1.8-1.5-2.5l0,0
	C157.6,91,158.7,91.1,158.8,90.1L158.8,90.1z"/>
<path class="st1" d="M209,119.1c0.2,1,0.7,1.8,1.4,2.5l0,0c-0.2,0-1.3-0.1-1.4,0.8l0,0c-0.2-1-0.7-1.8-1.5-2.5l0,0
	C207.7,119.9,208.8,120,209,119.1C208.9,119,209,119,209,119.1z"/>
<path class="st1" d="M204.8,116.6c0.2,1,0.7,1.8,1.4,2.5l0,0c-0.2,0-1.3-0.1-1.4,0.8l0,0c-0.2-1-0.7-1.8-1.5-2.5l0,0
	C203.5,117.5,204.6,117.6,204.8,116.6L204.8,116.6z"/>
<path class="st1" d="M200.6,114.2c0.2,1,0.7,1.8,1.4,2.5l0,0c-0.2,0-1.3-0.1-1.4,0.8l0,0c-0.2-1-0.7-1.8-1.5-2.5l0,0
	C199.4,115.1,200.4,115.2,200.6,114.2L200.6,114.2z"/>
<path class="st1" d="M196.4,107c0.2,1,0.7,1.8,1.4,2.5l0,0c-0.2,0-1.3-0.1-1.4,0.8l0,0c-0.2-1-0.7-1.8-1.4-2.5l0,0
	C195.2,107.8,196.3,108,196.4,107C196.4,106.9,196.4,107,196.4,107z"/>
<path class="st1" d="M192.2,104.6c0.2,1,0.7,1.8,1.4,2.5l0,0c-0.2,0-1.3-0.1-1.4,0.8l0,0c-0.2-1-0.7-1.8-1.5-2.5l0,0
	C191,105.4,192.1,105.6,192.2,104.6C192.2,104.5,192.2,104.6,192.2,104.6z"/>
<path class="st1" d="M188.1,102.2c0.2,0.9,0.7,1.8,1.4,2.5l0,0c-0.2,0-1.3-0.1-1.4,0.8l0,0c-0.2-1-0.7-1.8-1.5-2.5l0,0
	C186.8,103,187.9,103.1,188.1,102.2C188.1,102.1,188.1,102.1,188.1,102.2z"/>
<path class="st1" d="M183.9,99.7c0.2,1,0.7,1.8,1.4,2.5l0,0c-0.2,0-1.3-0.1-1.4,0.8l0,0c-0.2-1-0.7-1.8-1.4-2.5l0,0
	C182.7,100.6,183.8,100.7,183.9,99.7L183.9,99.7z"/>
<path class="st1" d="M179.7,97.3c0.2,1,0.7,1.8,1.4,2.5l0,0c-0.2,0-1.3-0.1-1.4,0.8l0,0c-0.2-1-0.7-1.8-1.5-2.5l0,0
	C178.5,98.2,179.6,98.3,179.7,97.3L179.7,97.3z"/>
<path class="st1" d="M175.5,94.9c0.2,1,0.7,1.8,1.4,2.5l0,0c-0.2,0-1.3-0.1-1.4,0.8l0,0c-0.3-0.9-0.8-1.8-1.5-2.5l0,0
	C174.3,95.8,175.4,95.9,175.5,94.9L175.5,94.9z"/>
<path class="st1" d="M171.4,92.5c0.2,0.9,0.7,1.8,1.4,2.5l0,0c-0.2,0-1.3-0.1-1.4,0.8l0,0c-0.2-1-0.7-1.8-1.5-2.5l0,0
	C170.1,93.3,171.2,93.5,171.4,92.5L171.4,92.5z"/>
<path class="st1" d="M167.2,90.1c0.2,1,0.7,1.8,1.4,2.5l0,0c-0.2,0-1.3-0.1-1.4,0.8l0,0c-0.2-1-0.7-1.8-1.5-2.5l0,0
	C165.9,90.9,167,91.1,167.2,90.1L167.2,90.1z"/>
<path class="st1" d="M163,87.7c0.2,1,0.7,1.8,1.4,2.5l0,0c-0.2,0-1.3-0.2-1.4,0.8l0,0c-0.2-1-0.7-1.8-1.5-2.5l0,0
	C161.8,88.5,162.9,88.7,163,87.7L163,87.7z"/>
<path class="st1" d="M158.8,85.3c0.2,1,0.7,1.8,1.4,2.5l0,0c-0.2,0-1.3-0.1-1.4,0.8l0,0c-0.2-1-0.7-1.8-1.5-2.5l0,0
	C157.6,86.1,158.7,86.2,158.8,85.3C158.8,85.2,158.8,85.3,158.8,85.3z"/>
<path class="st1" d="M209,114.2c0.2,1,0.7,1.8,1.4,2.5l0,0c-0.2,0-1.3-0.1-1.4,0.8l0,0c-0.2-1-0.7-1.8-1.5-2.5l0,0
	C207.7,115.1,208.8,115.2,209,114.2C208.9,114.2,209,114.2,209,114.2z"/>
<path class="st1" d="M204.8,111.8c0.2,1,0.7,1.8,1.4,2.5l0,0c-0.2,0-1.3-0.1-1.4,0.8l0,0c-0.2-1-0.7-1.8-1.5-2.5l0,0
	C203.5,112.6,204.6,112.8,204.8,111.8L204.8,111.8z"/>
<path class="st1" d="M200.6,109.4c0.2,1,0.7,1.8,1.4,2.5l0,0c-0.2,0-1.3-0.1-1.4,0.8l0,0c-0.2-1-0.7-1.8-1.5-2.5l0,0
	C199.4,110.2,200.4,110.4,200.6,109.4L200.6,109.4z"/>
<path class="st1" d="M196.4,102.1c0.2,0.9,0.7,1.8,1.4,2.5l0,0c-0.2,0-1.3-0.1-1.4,0.8l0,0c-0.2-1-0.7-1.8-1.4-2.5l0,0
	C195.2,103,196.3,103.1,196.4,102.1L196.4,102.1z"/>
<path class="st1" d="M192.2,99.7c0.2,1,0.7,1.8,1.4,2.5l0,0c-0.2,0-1.3-0.1-1.4,0.8l0,0c-0.2-1-0.7-1.8-1.5-2.5l0,0
	C191,100.6,192.1,100.7,192.2,99.7z"/>
<path class="st1" d="M188.1,97.3c0.2,1,0.7,1.8,1.4,2.5l0,0c-0.2,0-1.3-0.1-1.4,0.8l0,0c-0.2-1-0.7-1.8-1.5-2.5l0,0
	C186.8,98.1,187.9,98.3,188.1,97.3z"/>
<path class="st1" d="M183.9,94.9c0.2,1,0.7,1.8,1.4,2.5l0,0c-0.2,0-1.3-0.1-1.4,0.8l0,0c-0.2-1-0.7-1.8-1.4-2.5l0,0
	C182.7,95.7,183.8,95.9,183.9,94.9L183.9,94.9z"/>
<path class="st1" d="M179.7,92.5c0.2,1,0.7,1.8,1.4,2.5l0,0c-0.2,0-1.3-0.1-1.4,0.8l0,0c-0.2-1-0.7-1.8-1.5-2.5l0,0
	C178.5,93.3,179.6,93.5,179.7,92.5L179.7,92.5z"/>
<path class="st1" d="M175.5,90.1c0.2,1,0.7,1.8,1.4,2.5l0,0c-0.2,0-1.3-0.1-1.4,0.8l0,0c-0.2-1-0.7-1.8-1.5-2.5l0,0
	C174.3,90.9,175.4,91.1,175.5,90.1L175.5,90.1z"/>
<path class="st1" d="M171.4,87.7c0.2,0.9,0.7,1.8,1.4,2.5l0,0c-0.2,0-1.3-0.1-1.4,0.8l0,0c-0.2-1-0.7-1.8-1.5-2.5l0,0
	C170.1,88.5,171.2,88.7,171.4,87.7C171.4,87.6,171.4,87.6,171.4,87.7z"/>
<path class="st1" d="M167.2,85.3c0.2,1,0.8,1.9,1.5,2.5l0,0c-0.2,0-1.3-0.1-1.4,0.8l0,0c-0.2-1-0.7-1.8-1.5-2.5l0,0
	C166,86.1,167.1,86.3,167.2,85.3C167.2,85.2,167.2,85.2,167.2,85.3z"/>
<path class="st1" d="M163,82.9c0.2,0.9,0.7,1.8,1.4,2.5l0,0c-0.2,0-1.3-0.1-1.4,0.8l0,0c-0.2-1-0.7-1.8-1.5-2.5l0,0
	C161.8,83.7,162.9,83.8,163,82.9C163,82.8,163,82.8,163,82.9z"/>
<path class="st1" d="M158.8,80.4c0.2,1,0.7,1.8,1.4,2.5l0,0c-0.2,0-1.3-0.1-1.4,0.8l0,0c-0.2-1-0.7-1.8-1.5-2.5l0,0
	C157.6,81.3,158.7,81.4,158.8,80.4L158.8,80.4z"/>
<path class="st1" d="M209,109.4c0.2,1,0.7,1.8,1.4,2.5l0,0c-0.2,0-1.3-0.1-1.4,0.8l0,0c-0.2-1-0.7-1.8-1.5-2.5l0,0
	C207.7,110.2,208.8,110.4,209,109.4C208.9,109.3,209,109.4,209,109.4z"/>
<path class="st1" d="M204.8,107c0.2,1,0.7,1.8,1.4,2.5l0,0c-0.2,0-1.3-0.1-1.4,0.8l0,0c-0.2-1-0.7-1.8-1.5-2.5l0,0
	C203.5,107.8,204.6,107.9,204.8,107C204.8,106.9,204.8,106.9,204.8,107z"/>
<path class="st1" d="M200.6,104.6c0.2,0.9,0.7,1.8,1.4,2.5l0,0c-0.2,0-1.3-0.1-1.4,0.8l0,0c-0.2-1-0.7-1.8-1.5-2.5l0,0
	C199.4,105.4,200.4,105.5,200.6,104.6C200.6,104.5,200.6,104.5,200.6,104.6z"/>
<path class="st1" d="M196.4,97.3c0.2,1,0.7,1.8,1.4,2.5l0,0c-0.2,0-1.3-0.1-1.4,0.8l0,0c-0.2-1-0.7-1.8-1.4-2.5l0,0
	C195.2,98.1,196.3,98.3,196.4,97.3L196.4,97.3z"/>
<path class="st1" d="M192.2,94.9c0.2,1,0.7,1.8,1.4,2.5l0,0c-0.2,0-1.3-0.1-1.4,0.8l0,0c-0.2-1-0.7-1.8-1.5-2.5l0,0
	C191,95.7,192.1,95.9,192.2,94.9L192.2,94.9z"/>
<path class="st1" d="M188.1,92.5c0.2,1,0.7,1.8,1.4,2.5l0,0c-0.2,0-1.3-0.1-1.4,0.8l0,0c-0.2-1-0.7-1.8-1.5-2.5l0,0
	C186.8,93.3,187.9,93.5,188.1,92.5C188.1,92.4,188.1,92.4,188.1,92.5z"/>
<path class="st1" d="M183.9,90.1c0.2,1,0.7,1.8,1.4,2.5l0,0c-0.2,0-1.3-0.1-1.4,0.8l0,0c-0.2-1-0.7-1.8-1.4-2.5l0,0
	C182.7,90.9,183.8,91.1,183.9,90.1C183.9,90,183.9,90,183.9,90.1z"/>
<path class="st1" d="M179.7,87.6c0.2,1,0.7,1.8,1.4,2.5l0,0c-0.2,0-1.3-0.1-1.4,0.8l0,0c-0.2-1-0.7-1.8-1.5-2.5l0,0
	C178.5,88.5,179.6,88.6,179.7,87.6L179.7,87.6z"/>
<path class="st1" d="M175.5,85.2c0.2,0.9,0.7,1.8,1.4,2.5l0,0c-0.2,0-1.3-0.1-1.4,0.8l0,0c-0.2-1-0.7-1.8-1.5-2.5l0,0
	C174.3,86.1,175.4,86.2,175.5,85.2L175.5,85.2z"/>
<path class="st1" d="M171.4,82.8c0.2,0.9,0.7,1.8,1.4,2.5l0,0c-0.2,0-1.3-0.1-1.4,0.8l0,0c-0.2-1-0.7-1.8-1.5-2.5l0,0
	C170.1,83.6,171.2,83.8,171.4,82.8L171.4,82.8z"/>
<path class="st1" d="M167.2,80.4c0.2,1,0.7,1.8,1.4,2.5l0,0c-0.2,0-1.3-0.1-1.4,0.8l0,0c-0.2-1-0.7-1.8-1.5-2.5l0,0
	C165.9,81.2,167,81.4,167.2,80.4L167.2,80.4z"/>
<path class="st1" d="M163,78c0.2,1,0.7,1.8,1.4,2.5l0,0c-0.2,0-1.3-0.1-1.4,0.8l0,0c-0.2-1-0.7-1.8-1.5-2.5l0,0
	C161.8,78.8,162.9,79,163,78L163,78z"/>
<path class="st1" d="M158.8,75.6c0.2,1,0.7,1.8,1.4,2.5l0,0c-0.2,0-1.3-0.1-1.4,0.8l0,0c-0.2-1-0.7-1.8-1.5-2.5l0,0
	C157.6,76.4,158.7,76.6,158.8,75.6L158.8,75.6z"/>
<path class="st1" d="M154.7,102.2c0.2,0.9,0.7,1.8,1.4,2.5l0,0c-0.2,0-1.3-0.1-1.4,0.8l0,0c-0.2-1-0.7-1.8-1.5-2.5l0,0
	C153.4,103.1,154.5,103.2,154.7,102.2L154.7,102.2z"/>
<path class="st1" d="M150.5,99.8c0.2,1,0.7,1.8,1.4,2.5l0,0c-0.2,0-1.3-0.1-1.4,0.8l0,0c-0.2-1-0.7-1.8-1.5-2.5l0,0
	C149.2,100.6,150.3,100.8,150.5,99.8L150.5,99.8z"/>
<path class="st1" d="M146.3,97.4c0.2,1,0.7,1.8,1.4,2.5l0,0c-0.2,0-1.3-0.1-1.4,0.8l0,0c-0.2-1-0.7-1.8-1.5-2.5l0,0
	C145.1,98.2,146.2,98.4,146.3,97.4L146.3,97.4z"/>
<path class="st1" d="M142.1,95c0.2,1,0.7,1.8,1.4,2.5l0,0c-0.2,0-1.3-0.1-1.4,0.8l0,0c-0.2-1-0.7-1.8-1.5-2.5l0,0
	C140.9,95.8,142,96,142.1,95L142.1,95z"/>
<path class="st1" d="M154.7,97.4c0.2,1,0.7,1.8,1.4,2.5l0,0c-0.2,0-1.3-0.1-1.4,0.8l0,0c-0.2-1-0.7-1.8-1.5-2.5l0,0
	C153.4,98.2,154.5,98.4,154.7,97.4L154.7,97.4z"/>
<path class="st1" d="M150.5,95c0.2,1,0.7,1.8,1.4,2.5l0,0c-0.2,0-1.3-0.1-1.4,0.8l0,0c-0.2-1-0.7-1.8-1.5-2.5l0,0
	C149.2,95.8,150.3,95.9,150.5,95L150.5,95z"/>
<path class="st1" d="M146.3,92.6c0.2,1,0.7,1.8,1.4,2.5l0,0c-0.2,0-1.3-0.1-1.4,0.8l0,0c-0.2-1-0.7-1.8-1.5-2.5l0,0
	C145.1,93.4,146.2,93.5,146.3,92.6C146.3,92.5,146.3,92.6,146.3,92.6z"/>
<path class="st1" d="M142.1,90.2c0.2,1,0.7,1.8,1.4,2.5l0,0c-0.2,0-1.3-0.1-1.4,0.8l0,0c-0.2-1-0.7-1.8-1.5-2.5l0,0
	C140.9,91,142,91.1,142.1,90.2C142.1,90.1,142.1,90.1,142.1,90.2z"/>
<path class="st1" d="M154.7,92.6c0.2,1,0.7,1.8,1.4,2.5l0,0c-0.2,0-1.3-0.1-1.4,0.8l0,0c-0.2-1-0.7-1.8-1.5-2.5l0,0
	C153.4,93.4,154.5,93.5,154.7,92.6C154.7,92.5,154.7,92.5,154.7,92.6z"/>
<path class="st1" d="M150.5,90.1c0.2,1,0.7,1.8,1.4,2.5l0,0c-0.2,0-1.3-0.1-1.4,0.8l0,0c-0.2-1-0.7-1.8-1.5-2.5l0,0
	C149.2,91,150.3,91.1,150.5,90.1L150.5,90.1z"/>
<path class="st1" d="M146.3,87.7c0.2,1,0.7,1.8,1.4,2.5l0,0c-0.2,0-1.3-0.1-1.4,0.8l0,0c-0.2-1-0.7-1.8-1.5-2.5l0,0
	C145.1,88.6,146.2,88.7,146.3,87.7L146.3,87.7z"/>
<path class="st1" d="M142.1,85.3c0.2,0.9,0.7,1.8,1.4,2.5l0,0c-0.2,0-1.3-0.1-1.4,0.8l0,0c-0.2-1-0.7-1.8-1.5-2.5l0,0
	C140.9,86.2,142,86.3,142.1,85.3L142.1,85.3z"/>
<path class="st1" d="M154.7,87.7c0.2,1,0.7,1.8,1.4,2.5l0,0c-0.2,0-1.3-0.2-1.4,0.8l0,0c-0.2-1-0.7-1.8-1.5-2.5l0,0
	C153.4,88.5,154.5,88.7,154.7,87.7L154.7,87.7z"/>
<path class="st1" d="M150.5,85.3c0.2,0.9,0.7,1.8,1.4,2.5l0,0c-0.2,0-1.3-0.1-1.4,0.8l0,0c-0.2-1-0.7-1.8-1.5-2.5l0,0
	C149.2,86.1,150.3,86.3,150.5,85.3L150.5,85.3z"/>
<path class="st1" d="M146.3,82.9c0.2,1,0.7,1.8,1.4,2.5l0,0c-0.2,0-1.3-0.1-1.4,0.8l0,0c-0.2-1-0.7-1.8-1.5-2.5l0,0
	C145.1,83.7,146.2,83.9,146.3,82.9L146.3,82.9z"/>
<path class="st1" d="M142.1,80.5c0.2,1,0.7,1.8,1.4,2.5l0,0c-0.2,0-1.3-0.1-1.4,0.8l0,0c-0.2-1-0.7-1.8-1.5-2.5l0,0
	C140.9,81.3,142,81.4,142.1,80.5C142.1,80.4,142.1,80.5,142.1,80.5z"/>
<path class="st1" d="M154.7,82.9c0.2,0.9,0.7,1.8,1.4,2.5l0,0c-0.2,0-1.3-0.1-1.4,0.8l0,0c-0.2-1-0.7-1.8-1.5-2.5l0,0
	C153.4,83.7,154.5,83.8,154.7,82.9C154.7,82.8,154.7,82.9,154.7,82.9z"/>
<path class="st1" d="M150.5,80.4c0.2,1,0.7,1.8,1.4,2.5l0,0c-0.2,0-1.3-0.1-1.4,0.8l0,0c-0.2-1-0.7-1.8-1.5-2.5l0,0
	C149.2,81.3,150.3,81.4,150.5,80.4L150.5,80.4z"/>
<path class="st1" d="M146.3,78c0.2,1,0.7,1.8,1.4,2.5l0,0c-0.2,0-1.3-0.1-1.4,0.8l0,0c-0.2-1-0.7-1.8-1.5-2.5l0,0
	C145.1,78.9,146.2,79,146.3,78L146.3,78z"/>
<path class="st1" d="M142.1,75.6c0.2,1,0.7,1.8,1.4,2.5l0,0c-0.2,0-1.3-0.1-1.4,0.8l0,0c-0.2-1-0.7-1.8-1.5-2.5l0,0
	C140.9,76.5,142,76.6,142.1,75.6L142.1,75.6z"/>
<path class="st1" d="M154.7,78c0.2,1,0.7,1.8,1.4,2.5l0,0c-0.2,0-1.3-0.1-1.4,0.8l0,0c-0.2-1-0.7-1.8-1.5-2.5l0,0
	C153.4,78.9,154.5,79,154.7,78L154.7,78z"/>
<path class="st1" d="M150.5,75.6c0.2,1,0.7,1.8,1.4,2.5l0,0c-0.2,0-1.3-0.1-1.4,0.8l0,0c-0.2-1-0.7-1.8-1.5-2.5l0,0
	C149.2,76.4,150.3,76.6,150.5,75.6L150.5,75.6z"/>
<path class="st1" d="M146.3,73.2c0.2,1,0.7,1.8,1.4,2.5l0,0c-0.2,0-1.3-0.1-1.4,0.8l0,0c-0.2-1-0.7-1.8-1.5-2.5l0,0
	C145.1,74,146.2,74.2,146.3,73.2L146.3,73.2z"/>
<path class="st1" d="M142.1,70.8c0.2,1,0.7,1.8,1.4,2.5l0,0c-0.2,0-1.3-0.2-1.4,0.8l0,0c-0.2-1-0.7-1.8-1.5-2.5l0,0
	C140.9,71.6,142,71.8,142.1,70.8L142.1,70.8z"/>
<path class="st1" d="M154.7,73.2c0.2,1,0.7,1.8,1.4,2.5l0,0c-0.2,0-1.3-0.1-1.4,0.8l0,0c-0.2-1-0.7-1.8-1.5-2.5l0,0
	C153.4,74,154.5,74.2,154.7,73.2C154.7,73.1,154.7,73.2,154.7,73.2z"/>
<path class="st1" d="M150.5,70.8c0.2,1,0.7,1.8,1.4,2.5l0,0c-0.2,0-1.3-0.2-1.4,0.8l0,0c-0.2-1-0.7-1.8-1.5-2.5l0,0
	C149.2,71.6,150.3,71.8,150.5,70.8C150.5,70.7,150.5,70.8,150.5,70.8z"/>
<path class="st1" d="M146.3,68.4c0.2,1,0.7,1.8,1.4,2.5l0,0c-0.2,0-1.3-0.2-1.4,0.8l0,0c-0.2-1-0.7-1.8-1.5-2.5l0,0
	C145.1,69.2,146.2,69.3,146.3,68.4C146.3,68.3,146.3,68.3,146.3,68.4z"/>
<path class="st1" d="M142.1,65.9c0.2,0.9,0.7,1.8,1.4,2.5l0,0c-0.2,0-1.3-0.1-1.4,0.8l0,0c-0.2-0.9-0.8-1.8-1.5-2.5l0,0
	C140.9,66.8,142,66.9,142.1,65.9L142.1,65.9z"/>
<path class="st1" d="M209,104.5c0.2,0.9,0.7,1.8,1.4,2.5l0,0c-0.2,0-1.3-0.1-1.4,0.8l0,0c-0.2-1-0.7-1.8-1.5-2.5l0,0
	C207.7,105.4,208.8,105.5,209,104.5C208.9,104.5,209,104.5,209,104.5z"/>
<path class="st1" d="M204.8,102.1c0.2,1,0.7,1.8,1.4,2.5l0,0c-0.2,0-1.3-0.1-1.4,0.8l0,0c-0.2-1-0.7-1.8-1.5-2.5l0,0
	C203.5,103,204.6,103.1,204.8,102.1L204.8,102.1z"/>
<path class="st1" d="M200.6,99.7c0.2,1,0.7,1.8,1.4,2.5l0,0c-0.2,0-1.3-0.1-1.4,0.8l0,0c-0.2-1-0.7-1.8-1.5-2.5l0,0
	C199.4,100.5,200.4,100.7,200.6,99.7L200.6,99.7z"/>
<path class="st1" d="M81.6,122c0.2,1,0.7,1.8,1.4,2.5l0,0c-0.2,0-1.3-0.1-1.4,0.8l0,0c-0.2-1-0.7-1.8-1.5-2.5l0,0
	C80.4,122.8,81.5,123,81.6,122C81.6,121.9,81.6,122,81.6,122z"/>
<path class="st1" d="M81.6,117.1c0.2,1,0.7,1.8,1.4,2.5l0,0c-0.2,0-1.3-0.1-1.4,0.8l0,0c-0.2-1-0.7-1.8-1.5-2.5l0,0
	C80.4,118,81.5,118.1,81.6,117.1L81.6,117.1z"/>
<path class="st1" d="M81.6,112.3c0.2,0.9,0.7,1.8,1.4,2.5l0,0c-0.2,0-1.3-0.1-1.4,0.8l0,0c-0.2-1-0.7-1.8-1.5-2.5l0,0
	C80.4,113.1,81.5,113.3,81.6,112.3L81.6,112.3z"/>
<path class="st1" d="M81.6,107.4c0.2,1,0.7,1.8,1.4,2.5l0,0c-0.2,0-1.3-0.1-1.4,0.8l0,0c-0.2-1-0.7-1.8-1.5-2.5l0,0
	C80.4,108.3,81.5,108.4,81.6,107.4L81.6,107.4z"/>
<path class="st1" d="M81.6,102.6c0.2,1,0.7,1.8,1.4,2.5l0,0c-0.2,0-1.3-0.1-1.4,0.8l0,0c-0.2-1-0.7-1.8-1.5-2.5l0,0
	C80.4,103.4,81.5,103.6,81.6,102.6L81.6,102.6z"/>
<path class="st1" d="M77.4,119.6c0.2,1,0.7,1.8,1.4,2.5l0,0c-0.2,0-1.3-0.1-1.4,0.8l0,0c-0.2-1-0.7-1.8-1.5-2.5l0,0
	C76.2,120.4,77.3,120.6,77.4,119.6C77.4,119.5,77.4,119.6,77.4,119.6z"/>
<path class="st1" d="M73.3,117.2c0.2,1,0.7,1.8,1.4,2.5l0,0c-0.2,0-1.3-0.1-1.4,0.8l0,0c-0.2-1-0.7-1.8-1.5-2.5l0,0
	C72,118,73.1,118.1,73.3,117.2C73.2,117.1,73.3,117.1,73.3,117.2z"/>
<path class="st1" d="M69.1,114.8c0.2,0.9,0.7,1.8,1.4,2.5l0,0c-0.2,0-1.3-0.1-1.4,0.8l0,0c-0.2-1-0.7-1.8-1.5-2.5l0,0
	C67.8,115.6,68.9,115.8,69.1,114.8C69.1,114.7,69.1,114.7,69.1,114.8z"/>
<path class="st1" d="M64.9,112.3c0.2,0.9,0.7,1.8,1.4,2.5l0,0c-0.2,0-1.3-0.1-1.4,0.8l0,0c-0.2-1-0.7-1.8-1.5-2.5l0,0
	C63.7,113.2,64.8,113.3,64.9,112.3L64.9,112.3z"/>
<path class="st1" d="M77.4,114.7c0.2,0.9,0.7,1.8,1.4,2.5l0,0c-0.2,0-1.3-0.1-1.4,0.8l0,0c-0.2-1-0.7-1.8-1.5-2.5l0,0
	C76.2,115.6,77.3,115.7,77.4,114.7L77.4,114.7z"/>
<path class="st1" d="M73.3,112.3c0.2,0.9,0.7,1.8,1.4,2.5l0,0c-0.2,0-1.3-0.1-1.4,0.8l0,0c-0.2-1-0.7-1.8-1.5-2.5l0,0
	C72,113.1,73.1,113.3,73.3,112.3C73.2,112.3,73.3,112.3,73.3,112.3z"/>
<path class="st1" d="M69.1,109.9c0.2,1,0.7,1.8,1.4,2.5l0,0c-0.2,0-1.3-0.1-1.4,0.8l0,0c-0.2-1-0.7-1.8-1.5-2.5l0,0
	C67.8,110.7,68.9,110.9,69.1,109.9z"/>
<path class="st1" d="M64.9,107.5c0.2,1,0.7,1.8,1.4,2.5l0,0c-0.2,0-1.3-0.1-1.4,0.8l0,0c-0.2-1-0.7-1.8-1.5-2.5l0,0
	C63.7,108.3,64.8,108.5,64.9,107.5L64.9,107.5z"/>
<path class="st1" d="M77.4,109.9c0.2,1,0.7,1.8,1.4,2.5l0,0c-0.2,0-1.3-0.1-1.4,0.8l0,0c-0.2-1-0.7-1.8-1.5-2.5l0,0
	C76.2,110.7,77.3,110.9,77.4,109.9L77.4,109.9z"/>
<path class="st1" d="M73.3,107.5c0.2,1,0.7,1.8,1.4,2.5l0,0c-0.2,0-1.3-0.1-1.4,0.8l0,0c-0.2-1-0.7-1.8-1.5-2.5l0,0
	C72,108.3,73.1,108.4,73.3,107.5z"/>
<path class="st1" d="M69.1,105.1c0.2,1,0.7,1.8,1.4,2.5l0,0c-0.2,0-1.3-0.1-1.4,0.8l0,0c-0.2-1-0.7-1.8-1.5-2.5l0,0
	C67.8,105.9,68.9,106,69.1,105.1C69.1,105,69.1,105,69.1,105.1z"/>
<path class="st1" d="M64.9,102.7c0.2,1,0.7,1.8,1.4,2.5l0,0c-0.2,0-1.3-0.1-1.4,0.8l0,0c-0.2-1-0.7-1.8-1.5-2.5l0,0
	C63.7,103.5,64.8,103.6,64.9,102.7C64.9,102.6,64.9,102.6,64.9,102.7z"/>
<path class="st1" d="M77.4,105c0.2,1,0.7,1.8,1.4,2.5l0,0c-0.2,0-1.3-0.1-1.4,0.8l0,0c-0.2-1-0.7-1.8-1.5-2.5l0,0
	C76.2,105.9,77.3,106,77.4,105L77.4,105z"/>
<path class="st1" d="M73.3,102.6c0.2,1,0.7,1.8,1.4,2.5l0,0c-0.2,0-1.3-0.1-1.4,0.8l0,0c-0.2-1-0.7-1.8-1.5-2.5l0,0
	C72,103.5,73.1,103.6,73.3,102.6C73.2,102.6,73.3,102.6,73.3,102.6z"/>
<path class="st1" d="M69.1,100.2c0.2,1,0.7,1.8,1.4,2.5l0,0c-0.2,0-1.3-0.1-1.4,0.8l0,0c-0.2-1-0.7-1.8-1.5-2.5l0,0
	C67.8,101.1,68.9,101.2,69.1,100.2L69.1,100.2z"/>
<path class="st1" d="M64.9,97.8c0.2,0.9,0.7,1.8,1.4,2.5l0,0c-0.2,0-1.3-0.1-1.4,0.8l0,0c-0.2-1-0.7-1.8-1.5-2.5l0,0
	C63.7,98.6,64.8,98.8,64.9,97.8L64.9,97.8z"/>
<path class="st1" d="M77.4,100.2c0.2,1,0.7,1.8,1.4,2.5l0,0c-0.2,0-1.3-0.1-1.4,0.8l0,0c-0.2-1-0.7-1.8-1.5-2.5l0,0
	C76.2,101,77.3,101.2,77.4,100.2L77.4,100.2z"/>
<path class="st1" d="M73.3,97.8c0.2,1,0.7,1.8,1.4,2.5l0,0c-0.2,0-1.3-0.1-1.4,0.8l0,0c-0.2-1-0.7-1.8-1.5-2.5l0,0
	C72,98.6,73.1,98.8,73.3,97.8C73.2,97.8,73.3,97.8,73.3,97.8z"/>
<path class="st1" d="M69.1,95.4c0.2,0.9,0.7,1.8,1.4,2.5l0,0c-0.2,0-1.3-0.1-1.4,0.8l0,0c-0.2-1-0.7-1.8-1.5-2.5l0,0
	C67.8,96.2,68.9,96.4,69.1,95.4L69.1,95.4z"/>
<path class="st1" d="M64.9,93c0.2,1,0.7,1.8,1.4,2.5l0,0c-0.2,0-1.3-0.1-1.4,0.8l0,0c-0.2-1-0.7-1.8-1.5-2.5l0,0
	C63.7,93.8,64.8,93.9,64.9,93C64.9,92.9,64.9,92.9,64.9,93z"/>
<path class="st0" d="M37.8,125.3H17.9c-0.2,0-0.4,0.2-0.4,0.4l0,0v29.8l0,0c0.1,0.8,0.7,1.4,1.4,1.7l6,3.5c1.7,1,3.8,1,5.6,0.2
	l6.8-3.9c0.6-0.3,1-0.8,1-1.5l0,0v-29.8C38.3,125.5,38.1,125.3,37.8,125.3C37.9,125.3,37.9,125.3,37.8,125.3z"/>
<path class="st1" d="M28,162.2c-1.2,0-2.4-0.3-3.5-0.9l-6-3.5c-0.7-0.4-1.2-0.9-1.5-1.7h-0.1v-30.4c0-0.6,0.4-1,1-1h19.9l0,0
	c0.3,0,0.5,0.1,0.7,0.3c0.2,0.2,0.3,0.4,0.3,0.7v30.4h-0.1c-0.2,0.6-0.6,1.1-1.2,1.4l-6.8,3.9C29.9,162,29,162.2,28,162.2z
	 M18.1,155.5L18.1,155.5c0.1,0.6,0.5,1.1,1,1.3l6,3.5c1.5,0.8,3.4,0.9,5,0.2l6.8-3.9c0.4-0.2,0.6-0.5,0.6-0.9V155h0.1v-29H18.2
	L18.1,155.5z"/>
<path class="st1" d="M37.8,125.3h-9.2v36.2c0.6,0,1.3-0.2,1.8-0.5l6.8-3.9c0.6-0.3,1-0.8,1-1.5l0,0v-29.8
	C38.3,125.6,38.2,125.4,37.8,125.3C37.9,125.3,37.9,125.3,37.8,125.3z"/>
<path class="st2" d="M37.3,126.9l-6.8,3.9c-1.8,0.8-3.9,0.7-5.6-0.2l-6-3.5c-1.7-1-1.8-2.4-0.4-3.2l6.8-3.9c1.8-0.8,3.9-0.7,5.6,0.2
	l6,3.5C38.6,124.6,38.7,126,37.3,126.9z"/>
<path class="st1" d="M28,132c-1.2,0-2.4-0.3-3.5-0.9l-6-3.5c-0.9-0.4-1.6-1.3-1.7-2.4c0-0.8,0.5-1.6,1.3-1.9l6.8-3.9
	c2-0.9,4.3-0.8,6.2,0.2l6,3.5c0.9,0.4,1.6,1.3,1.7,2.4c0,0.8-0.5,1.6-1.3,1.9l-6.8,3.9C29.9,131.8,29,132,28,132z M27.7,120
	c-0.7,0-1.5,0.1-2.1,0.5l-6.8,3.9c-0.4,0.2-0.6,0.5-0.7,0.9c0,0.4,0.4,0.9,1.1,1.3l6,3.5c1.5,0.9,3.4,0.9,5,0.2l6.8-3.9
	c0.4-0.2,0.6-0.5,0.7-0.9c0-0.4-0.4-0.9-1.1-1.3l-6-3.5C29.7,120.2,28.7,120,27.7,120L27.7,120z"/>
<rect x="24.9" y="130.9" class="st1" width="1.2" height="30.2"/>
<rect x="35.4" y="129.2" class="st0" width="1" height="26.9"/>
<path class="st0" d="M25.3,155.2H5.4c-0.2,0-0.4,0.2-0.4,0.4l0,0v9l0,0c0.1,0.8,0.6,1.4,1.4,1.7l6,3.5c1.7,1,3.8,1.1,5.6,0.2
	l6.8-3.9c0.6-0.3,1-0.9,1-1.5l0,0v-9C25.8,155.3,25.6,155.1,25.3,155.2C25.4,155.1,25.3,155.1,25.3,155.2z"/>
<path class="st1" d="M15.5,171.2c-1.2,0-2.4-0.3-3.5-0.9l-6-3.5c-0.7-0.4-1.2-0.9-1.5-1.6H4.4v-9.6c0-0.6,0.4-1,1-1h19.9l0,0
	c0.6,0,1,0.4,1,1v9.6h-0.1c-0.2,0.6-0.6,1.1-1.2,1.4l-6.8,3.9C17.4,171,16.5,171.2,15.5,171.2z M5.6,164.5L5.6,164.5
	c0.1,0.6,0.5,1.1,1.1,1.3l6,3.5c1.5,0.8,3.4,0.9,5,0.2l6.8-3.9c0.4-0.2,0.6-0.5,0.6-0.9V164l0,0v-8.2H5.6V164.5z"/>
<path class="st1" d="M25.3,155.2h-9.2v15.4c0.6,0,1.3-0.2,1.8-0.5l6.8-3.9c0.6-0.3,1-0.9,1-1.5l0,0v-9
	C25.8,155.3,25.6,155.2,25.3,155.2L25.3,155.2z"/>
<path class="st2" d="M24.8,156.7l-6.8,3.9c-1.8,0.8-3.9,0.7-5.6-0.2l-6-3.5c-1.7-1-1.8-2.4-0.4-3.2l6.8-3.9c1.8-0.8,3.9-0.7,5.6,0.2
	l6,3.5C26,154.4,26.2,155.9,24.8,156.7z"/>
<path class="st1" d="M15.5,161.8c-1.2,0-2.4-0.3-3.5-0.9l-6-3.5c-0.9-0.4-1.6-1.3-1.7-2.4c0-0.8,0.5-1.6,1.3-1.9l6.8-3.9
	c2-0.9,4.3-0.8,6.2,0.2l6,3.5c0.9,0.4,1.6,1.3,1.7,2.4c0,0.8-0.5,1.6-1.3,1.9l-6.8,3.9C17.4,161.6,16.5,161.8,15.5,161.8z
	 M15.2,149.8c-0.7,0-1.5,0.1-2.1,0.5l-6.8,3.9c-0.4,0.2-0.6,0.5-0.7,0.9c0,0.4,0.4,0.9,1.1,1.3l6,3.5c1.5,0.9,3.4,0.9,5,0.2l6.8-3.9
	c0.4-0.2,0.6-0.5,0.7-0.9c0-0.4-0.4-0.9-1.1-1.3l-6-3.5C17.2,150,16.2,149.8,15.2,149.8z"/>
<rect x="12.4" y="160.7" class="st1" width="1.2" height="9.4"/>
<rect x="22.9" y="159" class="st0" width="1" height="6"/>
<path class="st0" d="M79.6,223.7h-20c-0.2,0-0.4,0.2-0.4,0.4v17.5l0,0c0.1,0.8,0.6,1.4,1.4,1.7l6,3.5c1.7,1,3.8,1,5.6,0.2l6.8-3.9
	c0.6-0.3,1-0.9,1-1.5l0,0v-17.5C80,223.9,79.8,223.7,79.6,223.7L79.6,223.7z"/>
<path class="st1" d="M69.8,248.2c-1.2,0-2.4-0.3-3.5-0.9l-6-3.5c-0.7-0.4-1.2-0.9-1.5-1.6h-0.1v-18.1c0-0.6,0.4-1,1-1h19.9
	c0.3,0,0.5,0.1,0.7,0.3s0.3,0.4,0.3,0.7v18.1h-0.1c-0.2,0.6-0.6,1.1-1.2,1.4l-6.8,3.9C71.7,248.1,70.7,248.3,69.8,248.2z
	 M59.9,241.5L59.9,241.5c0.1,0.6,0.5,1,1.1,1.2l6,3.5c1.5,0.8,3.4,0.9,5,0.2l6.8-3.9c0.4-0.2,0.6-0.5,0.7-0.9v-0.7l0,0v-16.7H59.9
	V241.5z"/>
<path class="st1" d="M79.6,223.7h-9.2v23.9c0.6,0,1.3-0.2,1.8-0.5l6.8-3.9c0.6-0.2,1-0.8,1-1.5l0,0v-17.5
	C80,223.9,79.8,223.7,79.6,223.7L79.6,223.7z"/>
<path class="st2" d="M79,225.2l-6.8,3.9c-1.8,0.8-3.9,0.7-5.6-0.2l-6-3.5c-1.7-1-1.8-2.4-0.4-3.2l6.8-3.9c1.8-0.8,3.9-0.7,5.6,0.2
	l6,3.5C80.3,222.9,80.5,224.4,79,225.2z"/>
<path class="st1" d="M69.8,230.3c-1.2,0-2.4-0.3-3.5-0.9l-6-3.5c-0.9-0.4-1.6-1.3-1.7-2.4c0-0.8,0.5-1.6,1.3-1.9l6.8-3.9
	c2-0.9,4.3-0.8,6.2,0.2l6,3.5c0.9,0.4,1.6,1.3,1.7,2.4c0,0.8-0.5,1.6-1.3,1.9l-6.8,3.9C71.7,230.1,70.7,230.3,69.8,230.3z
	 M69.4,218.3c-0.7,0-1.5,0.1-2.1,0.5l-6.8,3.9c-0.4,0.2-0.6,0.5-0.7,0.9c0,0.4,0.4,0.9,1.1,1.3l6,3.5c1.5,0.8,3.4,0.9,5,0.2l6.8-3.9
	c0.4-0.1,0.6-0.5,0.7-0.9c0-0.4-0.4-0.9-1.1-1.3l-6-3.5C71.4,218.5,70.4,218.3,69.4,218.3L69.4,218.3z"/>
<rect x="66.6" y="229.2" class="st1" width="1.2" height="17.9"/>
<rect x="77.2" y="227.6" class="st0" width="0.9" height="14.6"/>
<path class="st0" d="M66.2,241h-20c-0.2,0-0.4,0.2-0.4,0.4l0,0v6.1l0,0c0.1,0.8,0.6,1.4,1.4,1.7l6,3.5c1.7,1,3.8,1,5.6,0.2l6.8-3.9
	c0.6-0.3,1-0.8,1-1.5l0,0v-6.2C66.6,241.2,66.4,241,66.2,241z"/>
<path class="st1" d="M56.4,254.2c-1.2,0-2.4-0.3-3.5-0.9l-6-3.5c-0.7-0.4-1.2-0.9-1.5-1.6h-0.1v-6.8c0-0.6,0.4-1,1-1h19.9
	c0.6,0,1,0.4,1,1v6.8h-0.1c-0.2,0.6-0.6,1.1-1.2,1.4l-6.8,3.9C58.3,254,57.3,254.3,56.4,254.2z M46.5,247.5L46.5,247.5
	c0,0.4,0.4,0.9,1.1,1.2l6,3.5c1.5,0.9,3.4,0.9,5,0.2l6.8-3.9c0.4-0.2,0.6-0.5,0.6-0.9v-0.7l0,0v-5.4H46.5V247.5z"/>
<path class="st1" d="M66.2,241H57v12.5c0.6,0,1.3-0.2,1.8-0.5l6.8-3.9c0.6-0.3,1-0.8,1-1.5l0,0v-6.2C66.6,241.2,66.4,241,66.2,241
	L66.2,241z"/>
<path class="st2" d="M65.6,242.6l-6.8,3.9c-1.8,0.8-3.9,0.7-5.6-0.2l-6-3.5c-1.7-1-1.8-2.4-0.4-3.2l6.8-3.9c1.8-0.8,3.9-0.7,5.6,0.2
	l6,3.5C66.9,240.3,67.1,241.7,65.6,242.6z"/>
<path class="st1" d="M56.4,247.7c-1.2,0-2.4-0.3-3.5-0.9l-6-3.5c-0.9-0.4-1.6-1.3-1.7-2.4c0-0.8,0.5-1.6,1.3-1.9l6.8-3.9
	c2-0.9,4.3-0.8,6.2,0.2l6,3.5c0.9,0.4,1.6,1.3,1.7,2.4c0,0.8-0.5,1.6-1.3,1.9l-6.8,3.9C58.3,247.5,57.3,247.7,56.4,247.7z M56,235.7
	c-0.7,0-1.5,0.1-2.1,0.5l-6.8,3.9c-0.4,0.2-0.6,0.5-0.7,0.9c0,0.4,0.4,0.9,1.1,1.3l6,3.5c1.5,0.9,3.4,0.9,5,0.2l6.8-3.9
	c0.4-0.2,0.6-0.5,0.7-0.9c0-0.4-0.4-0.9-1.1-1.3l-6-3.5C58,235.9,57,235.7,56,235.7L56,235.7z"/>
<rect x="53.2" y="246.6" class="st1" width="1.2" height="6.5"/>
<rect x="63.8" y="244.9" class="st0" width="1" height="3.2"/>
<path class="st0" d="M187.6,231.5h-19.9c-0.2,0-0.4,0.2-0.4,0.4l0,0v6.1l0,0c0.1,0.8,0.7,1.4,1.4,1.7l6,3.5c1.7,1,3.8,1.1,5.6,0.2
	l6.8-3.9c0.6-0.3,1-0.9,1-1.5l0,0v-6.2C187.9,231.7,187.8,231.5,187.6,231.5z"/>
<path class="st1" d="M177.8,244.7c-1.2,0-2.4-0.3-3.5-0.9l-6-3.5c-0.7-0.4-1.2-0.9-1.5-1.6h-0.1V232c0-0.6,0.4-1,1-1h19.9l0,0
	c0.3,0,0.5,0.1,0.7,0.3s0.3,0.4,0.3,0.7v6.8h-0.1c-0.2,0.6-0.6,1.1-1.2,1.4l-6.8,3.9C179.7,244.6,178.7,244.8,177.8,244.7z
	 M167.9,238L167.9,238c0.1,0.6,0.5,1,1,1.2l6,3.5c1.5,0.9,3.4,0.9,5,0.2l6.8-3.9c0.4-0.2,0.6-0.5,0.6-0.9v-0.7l0,0V232h-19.5
	L167.9,238z"/>
<path class="st1" d="M187.6,231.6h-9.2v12.5c0.6,0,1.3-0.2,1.8-0.5l6.8-3.9c0.6-0.3,1-0.9,1-1.5l0,0V232
	C188,231.7,187.8,231.6,187.6,231.6z"/>
<path class="st2" d="M187,233.1l-6.8,3.9c-1.8,0.8-3.9,0.7-5.6-0.2l-6-3.5c-1.7-1-1.8-2.4-0.4-3.2l6.8-3.9c1.8-0.8,3.9-0.7,5.6,0.2
	l6,3.5C188.3,230.8,188.5,232.2,187,233.1z"/>
<path class="st1" d="M177.8,238.2c-1.2,0-2.4-0.3-3.5-0.9l-6-3.5c-0.9-0.4-1.6-1.3-1.7-2.4c0-0.8,0.5-1.6,1.3-1.9l6.8-3.9
	c2-0.9,4.3-0.8,6.2,0.2l6,3.5c0.9,0.4,1.6,1.3,1.7,2.4c0,0.8-0.5,1.6-1.3,1.9l-6.8,3.9C179.7,238,178.7,238.2,177.8,238.2z
	 M177.4,226.2c-0.7,0-1.5,0.1-2.1,0.5l-6.8,3.9c-0.4,0.2-0.6,0.5-0.7,0.9c0,0.4,0.4,0.9,1.1,1.3l6,3.5c1.5,0.9,3.4,0.9,5,0.2
	l6.8-3.9c0.4-0.2,0.6-0.5,0.7-0.9c0-0.4-0.4-0.9-1.1-1.3l-6-3.5C179.4,226.4,178.4,226.2,177.4,226.2L177.4,226.2z"/>
<rect x="174.6" y="237.1" class="st1" width="1.2" height="6.5"/>
<rect x="185.2" y="235.4" class="st0" width="0.9" height="3.2"/>
<path class="st1" d="M13.8,75.3l4.4-2.8v-0.1l0,0l-5.5-6.7c0,0-0.1-0.1-0.1,0l0,0l-0.9,4.2l0,0l-0.2,2.8c0,0,0,0,0,0.1L13.8,75.3
	L13.8,75.3z"/>
<path class="st1" d="M13.8,75.8c-0.2,0-0.3-0.1-0.4-0.2L11,72.8v-0.3l0.2-2.8l1-4.5l0.4-0.1c0.2,0,0.4,0,0.5,0.2l5.7,6.9v0.3
	c0,0.2-0.1,0.3-0.2,0.4l-4.4,2.8C14,75.8,13.9,75.8,13.8,75.8z M11.9,72.5l1.9,2.3l3.7-2.4l-4.8-5.8L12,69.9L11.9,72.5z"/>
<path class="st2" d="M30.3,55L9.5,43c-0.4-0.3-0.9-0.3-1.4-0.2l0,0L4,45.2c0,0-0.1,0.1,0,0.2l0,0l4.9,5.2c0,0,0,0,0,0.1v8.5
	c0.1,1.5,0.9,2.9,2.1,3.7l3.1,1.8c0.1,0.1,0.1,0.2,0.2,0.3c0.6,3,2.3,5.6,4.8,7.3c0.1,0.1,0.2,0,0.1-0.2c-0.5-1-1.5-3-1.2-4.7
	l0.4-0.2l6.4,3.7V71l2.7,7.2c0,0.1,0.1,0.1,0.2,0.1l0,0l4-2.4l0,0c0.4-0.3,0.6-0.8,0.5-1.3v-16C32.4,57.2,31.6,55.8,30.3,55z"/>
<path class="st1" d="M27.9,78.6l-0.3-0.1c-0.2-0.1-0.3-0.2-0.4-0.4l-2.6-7l-6-3.5c0.1,1.4,0.5,2.8,1.1,4c0.2,0.3,0.1,0.6-0.1,0.8
	c-0.2,0.2-0.5,0.2-0.7,0c-2.6-1.7-4.4-4.4-5-7.5l-0.1-0.1l-3-1.8c-1.4-0.9-2.3-2.4-2.4-4.1v-8.4l-4.8-5c-0.1-0.1-0.2-0.3-0.2-0.5
	s0.1-0.3,0.3-0.4l4.1-2.4C8.4,42,9.1,42,9.6,42.4l20.9,12c1.4,0.9,2.3,2.4,2.4,4.1v15.7c0,0.7-0.2,1.3-0.8,1.7L27.9,78.6z
	 M18.6,66.6l6.8,3.9l0.1,0.2l2.5,6.8l3.7-2.2c0.2-0.2,0.4-0.6,0.3-0.9V58.6c-0.1-1.3-0.8-2.6-1.9-3.3l-20.9-12
	c-0.3-0.2-0.6-0.3-0.9-0.2l-3.6,2.2l4.7,5v0.3v8.5c0.1,1.3,0.8,2.6,1.9,3.3l3.2,1.9l0.3,0.5c0.5,2.4,1.7,4.5,3.5,6.1
	c-0.5-1.2-0.8-2.4-0.6-3.7V67L18.6,66.6z"/>
<path class="st0" d="M26.2,57.5L5.4,45.4c-1.1-0.7-2.1-0.1-2.1,1.2v15.8c0.1,1.5,0.9,2.8,2.1,3.6l3.2,1.9C8.7,68,8.7,68,8.8,68.1
	c0.6,3,2.3,5.6,4.8,7.3c0.1,0.1,0.2,0,0.1-0.2c-0.5-1-1.5-3.2-1.1-4.8c0-0.1,0.1-0.1,0.1-0.1s0,0,0.1,0l13.5,7.8
	c1.1,0.7,2.1,0.1,2.1-1.2V61.1C28.2,59.6,27.5,58.3,26.2,57.5z"/>
<path class="st1" d="M27.2,78.8c-0.4,0-0.8-0.1-1.2-0.4l-13-7.5c0.1,1.4,0.5,2.8,1.1,4c0.2,0.3,0.1,0.6-0.1,0.8
	c-0.2,0.2-0.5,0.2-0.7,0c-2.6-1.8-4.4-4.5-5-7.6l-3.2-1.8c-1.4-0.9-2.2-2.4-2.3-4V46.6c-0.1-0.9,0.5-1.8,1.5-2
	c0.5-0.1,1,0.1,1.3,0.4l20.9,12.1c1.4,0.9,2.2,2.4,2.3,4v15.8c0.1,0.7-0.3,1.4-0.8,1.8C27.8,78.7,27.5,78.8,27.2,78.8z M12.7,69.8
	c0.1,0,0.2,0,0.3,0.1l13.5,7.8c0.3,0.2,0.7,0.3,1,0.1c0.3-0.2,0.4-0.6,0.4-0.9V61.1c-0.1-1.3-0.8-2.5-1.9-3.2L5.1,45.8
	c-0.3-0.2-0.7-0.3-1-0.1s-0.4,0.6-0.4,0.9v15.8c0.1,1.3,0.8,2.5,1.8,3.2l3.2,1.9C9,67.6,9.2,67.8,9.2,68c0.5,2.4,1.7,4.5,3.5,6.1
	c-0.6-1.2-0.8-2.6-0.6-3.9V70l0.3-0.2C12.5,69.8,12.6,69.8,12.7,69.8z"/>
<rect x="26.9" y="56.1" transform="matrix(0.8545 -0.5195 0.5195 0.8545 -25.1499 23.3055)" class="st1" width="4.3" height="0.9"/>
<rect x="7.4" y="44.9" transform="matrix(0.8545 -0.5195 0.5195 0.8545 -22.169 11.5421)" class="st1" width="4.3" height="0.9"/>
<rect x="28" y="60.2" transform="matrix(0.8452 -0.5345 0.5345 0.8452 -27.7051 25.6084)" class="st1" width="4.8" height="0.9"/>
<polygon class="st1" points="32.5,61.6 28.3,64.2 28.3,77.8 32.3,75.6 32.5,74.7 "/>
<rect x="7.6" y="36.1" transform="matrix(8.194151e-02 -0.9966 0.9966 8.194151e-02 -27.3229 43.3623)" class="st1" width="4.6" height="0.9"/>
<rect x="5.2" y="34.2" transform="matrix(0.9159 -0.4015 0.4015 0.9159 -14.305 5.3975)" class="st1" width="1" height="5.3"/>
<rect x="1.7" y="37.5" transform="matrix(0.4921 -0.8705 0.8705 0.4921 -33.4296 22.0369)" class="st1" width="1" height="4.4"/>
<path class="st2" d="M18.1,69.9l-2.6-1.5v-1.3c-0.8-0.7-1.4-1.5-1.9-2.4l-1,0.1l-1.2-3.2l1-0.1c-0.1-0.4-0.1-0.8-0.1-1.2
	s0.1-0.8,0.2-1.2l-1-1.2l1.4-2l1,1.3c0.5-0.2,1.1-0.3,1.6-0.2v-1.4l2.6,1.5v1.3c0.8,0.7,1.4,1.5,1.9,2.3l1-0.1l1.2,3.2l-1,0.1
	c0.1,0.4,0.1,0.8,0.1,1.2s-0.1,0.8-0.2,1.2l1,1.3l-1.4,2l-1.1-1.3c-0.5,0.2-1.1,0.3-1.6,0.2L18.1,69.9z M16.1,68l1.2,0.7v-1.1
	l0.5,0.1c0.6,0.2,1.2,0.2,1.8-0.1l0.3-0.2l0.9,1.1l0.5-0.8l-0.9-1.1v-0.2c0.1-0.4,0.2-0.8,0.2-1.2c0-0.5-0.1-0.9-0.2-1.4l-0.1-0.4
	l0.9-0.1l-0.7-1.8l-0.9,0.1l-0.1-0.2c-0.5-0.9-1.2-1.8-2-2.5l-0.1-0.1v-1.2l-1.2-0.7V58l-0.5-0.1c-0.6-0.2-1.2-0.2-1.8,0.1l-0.3,0.2
	l-0.9-1.1l-0.5,0.8l0.9,1.1v0.2c-0.1,0.4-0.2,0.8-0.2,1.2c0,0.5,0.1,0.9,0.2,1.4l0.1,0.4l-0.9,0.1l0.7,1.8l0.9-0.1l0.1,0.2
	c0.5,0.9,1.2,1.8,2,2.5l0.1,0.1L16.1,68z M17.5,65.4c-0.2,0-0.3,0-0.5-0.1l0,0c-1.6-0.7-2.6-2.3-2.4-4.1c0.1-0.4,0.3-0.7,0.6-0.9
	s0.7-0.2,1.1-0.1c1.6,0.7,2.6,2.3,2.4,4.1C18.7,64.9,18.1,65.3,17.5,65.4L17.5,65.4z M17.3,64.6c0.2,0.1,0.4,0.1,0.5,0
	s0.2-0.3,0.3-0.4c0.1-1.4-0.6-2.7-1.9-3.2c-0.2-0.1-0.3-0.1-0.5,0s-0.3,0.3-0.3,0.4C15.3,62.8,16,64,17.3,64.6z"/>
<path class="st1" d="M19.6,63.6c0-0.5-0.1-1-0.2-1.5l1-0.1l-1-2.5l-1,0.1c-0.5-1-1.2-1.8-2.1-2.6v-1.3l-1.9-1.1v1.3
	c-0.7-0.3-1.4-0.2-2.1,0.2l-1-1.2l-1,1.4l1,1.2c-0.1,0.4-0.2,0.8-0.2,1.3s0.1,1,0.2,1.5l-1,0.1l1,2.5l1-0.1c0.5,1,1.2,1.8,2.1,2.6
	v1.3l1.9,1.1v-1.3c0.7,0.3,1.4,0.2,2.1-0.2l1,1.2l1-1.4l-1-1.2C19.5,64.5,19.6,64.1,19.6,63.6z M15.8,63.4c-1.4-0.6-2.3-2.1-2.1-3.7
	c0.1-0.5,0.5-0.8,1-0.8c0.1,0,0.1,0,0.2,0.1c1.4,0.6,2.3,2.1,2.1,3.7c-0.1,0.5-0.5,0.9-1,0.8C16,63.4,15.9,63.4,15.8,63.4z"/>
</svg>
