<?xml version="1.0" encoding="utf-8"?>
<!-- Generator: Adobe Illustrator 25.2.1, SVG Export Plug-In . SVG Version: 6.00 Build 0)  -->
<svg version="1.1" xmlns="http://www.w3.org/2000/svg" xmlns:xlink="http://www.w3.org/1999/xlink" x="0px" y="0px"
	 viewBox="0 0 3710 3710" enable-background="new 0 0 3710 3710" xml:space="preserve">
<g id="Background">
</g>
<g id="Illustration">
	<g>
		<linearGradient id="SVGID_1_" gradientUnits="userSpaceOnUse" x1="3571.6919" y1="3998.3618" x2="1137.2755" y2="974.9694">
			<stop  offset="0" style="stop-color:#DAE3FE"/>
			<stop  offset="1" style="stop-color:#E9EFFD"/>
		</linearGradient>
		<path fill="url(#SVGID_1_)" d="M2902,2806c-55.9,58.9-108.8,96.8-150.6,126.8C2260,3285.4,1678.5,3182.7,1555,3157.6
			c-182.5-37.1-535.2-108.7-790.2-408.6C379,2295.3,439,1580.5,738.3,1108.6c54.7-86.3,343.9-565.3,931.6-642.2
			c355.7-46.5,770.3,47.3,1070.5,298.8C3370.6,1293.3,3325.7,2359.9,2902,2806z"/>
		<g>
			<g>
				<path fill="#91B3FA" d="M699.3,1217.1c-2.4-1.1-4.1-3.5-4.1-6.3c0-9.2,0.1-18.5,0.5-27.8c0.1-3.8,3.4-6.7,7.2-6.5
					c9.3,0.5,6.2,9.6,6.3,34.5c0,3.8-3.1,6.8-7,6.8C701.2,1217.7,700.2,1217.5,699.3,1217.1z"/>
				<path fill="#91B3FA" d="M704.5,1097c2.9-17.4,6.6-34.9,11-52c0.9-3.7,4.7-5.9,8.5-4.9c10.2,2.7,3,8.1-5.7,59.4
					c-0.6,3.7-4.2,6.2-8,5.5C706.4,1104.3,703.9,1100.7,704.5,1097z M742,962.8c6.5-16.5,13.8-33,21.4-48.6
					c4.1-8.4,16.5-1.9,12.6,6.2c-7.6,15.5-14.6,31.5-21,47.6c-1.4,3.5-5.4,5.2-9,3.8C742.4,970.4,740.6,966.3,742,962.8z
					 M806.3,839.4c9.7-14.7,20.2-29.2,31.1-43.1c5.6-7.2,16.7,1.4,11.1,8.5c-10.7,13.6-20.9,27.8-30.5,42.2
					C813,854.6,801.3,846.9,806.3,839.4z M895.1,741.6c-2.7-2.7-2.8-7.1-0.1-9.7c12.6-12.4,25.9-24.4,39.5-35.8
					c7-5.8,16.1,4.7,9.1,10.6c-13.3,11.1-26.4,22.9-38.7,35C902.3,744.4,897.8,744.3,895.1,741.6z M1002.6,654.4
					c-2.1-3.2-1.3-7.5,2-9.5c15-9.5,30.5-18.6,46.2-27c8.1-4.3,14.9,7.8,6.8,12.1c-15.4,8.2-30.6,17.1-45.3,26.4
					C1009.1,658.6,1004.8,657.6,1002.6,654.4z M1129.8,594.7c-1.6-0.7-2.9-2-3.6-3.8c-1.4-3.5,0.3-7.5,3.9-8.9
					c16.7-6.3,33.8-12.1,50.9-17.1c3.7-1.1,7.6,1,8.8,4.6c1.2,3.6-0.9,7.5-4.6,8.6c-16.8,4.9-33.6,10.5-49.9,16.7
					C1133.5,595.6,1131.5,595.4,1129.8,594.7z M1264.7,558.7c-2-0.9-3.6-2.8-4-5.1c-0.7-3.8,1.8-7.3,5.6-7.9
					c17.7-2.8,35.7-5,53.6-6.5c3.8-0.3,7.3,2.5,7.6,6.3c0.4,3.8-2.4,7.1-6.3,7.4c-17.5,1.4-35.2,3.6-52.5,6.3
					C1267.4,559.5,1266,559.3,1264.7,558.7z M1400.6,544.1c0.1-3.8,3.3-6.7,7.2-6.6c17.9,0.8,36.1,2.3,54,4.5
					c9.2,1.2,7.7,14.8-1.5,13.7c-17.5-2.1-35.3-3.6-52.9-4.4C1403.5,551.1,1400.5,547.9,1400.6,544.1z M1836.9,724.7
					c-39.5-34.9-49-35-42.6-43.3c2.3-3,6.7-3.5,9.8-1.2c14.4,10.8,28.5,22.4,42.1,34.3C1853.1,720.6,1843.9,730.8,1836.9,724.7z
					 M1540,563.2c0.9-3.7,4.7-5.9,8.4-5c17.5,4.4,35,9.5,52.1,15.2c8.8,2.9,4.5,16-4.3,13c-16.8-5.6-34-10.6-51.1-14.9
					C1541.4,570.6,1539.1,566.8,1540,563.2z M1723.6,643.5c-45.7-26.2-55-24.5-50.5-33.9c2.8-6,10.1-3.1,9.3-3.2
					c16.3,7.8,32.5,16.3,48.1,25.2c3.4,1.9,4.5,6.1,2.6,9.4C1731.3,644.2,1727.2,645.5,1723.6,643.5z"/>
				<path fill="#91B3FA" d="M1916,807.1c-14.8-18.2-24.3-24.7-17.2-30.8c2.9-2.5,7.3-2.1,9.9,0.8c16.1,18.3,24.3,25.7,17.2,31.2
					C1923.7,810,1918.5,810.1,1916,807.1z"/>
			</g>
			<g>
				<path fill="#91B3FA" d="M2067.2,1320.1c-2.7-1.3-4.4-4.1-4.1-7.2c1.1-9,2.1-18.1,2.8-27c0.3-3.8,3.7-6.5,7.5-6.2
					c3.8,0.4,6.7,3.7,6.4,7.5c-0.8,9.2-1.7,18.4-2.9,27.6c-0.5,3.8-4,6.4-7.8,5.9C2068.5,1320.6,2067.9,1320.4,2067.2,1320.1z"/>
				<path fill="#91B3FA" d="M1085.7,1829.3c-17.4-8.6-34.7-18-51.3-28c-3.3-2-4.4-6.2-2.4-9.5c5.5-9.1,8.9,0,59.9,25.2
					c3.5,1.7,4.9,5.9,3.2,9.2C1092.1,1832.2,1084.9,1829.3,1085.7,1829.3z M1169,1857c3.4-10.1,8.9-1.8,63.7,11.9
					c3.8,0.9,6.1,4.7,5.2,8.4c-0.9,3.7-4.7,5.9-8.4,5c-18.8-4.7-37.6-10.3-56.1-16.5C1169.8,1864.5,1167.8,1860.5,1169,1857z
					 M956.5,1747c-15.1-12.1-29.9-25-44-38.4c-2.8-2.7-2.9-7-0.3-9.7c7.5-7.7,8.7,2,53,37.5c3,2.4,3.5,6.8,1.1,9.7
					C963.9,1749,959.5,1749.4,956.5,1747z M1320.7,1898.5c-2.7-1.2-4.4-4-4.1-7c0.4-3.8,3.8-6.5,7.6-6.1c18.9,2.1,38.1,3.4,57,4
					c3.9,0.1,7,3.3,6.9,7.1c0,3.8-3.2,6.8-7.1,6.7c-19.3-0.5-38.9-1.9-58.2-4.1C1322.1,1899,1321.3,1898.8,1320.7,1898.5z
					 M1471.7,1898.8c-2.1-1-3.7-3-4.1-5.5c-0.5-3.8,2.2-7.2,6.1-7.6c18.8-2,37.7-4.9,56.3-8.5c3.8-0.7,7.5,1.7,8.3,5.4
					c0.8,3.7-1.6,7.3-5.4,8.1c-18.9,3.7-38.3,6.6-57.4,8.6C1474.1,1899.5,1472.8,1899.3,1471.7,1898.8z M1618.6,1866.4
					c-1.7-0.8-3-2.2-3.7-4c-1.3-3.6,0.6-7.5,4.2-8.7c17.8-6,35.6-12.9,52.8-20.4c3.5-1.5,7.6,0.1,9.3,3.5c1.6,3.5,0.1,7.5-3.4,9.1
					c-17.6,7.6-35.7,14.6-53.9,20.8C1622,1867.3,1620.1,1867.2,1618.6,1866.4z M1754.2,1803.2c-1.2-0.6-2.3-1.4-3-2.6
					c-2.1-3.2-1.1-7.5,2.2-9.5c16-9.7,31.8-20.3,46.9-31.3c3.1-2.2,7.5-1.6,9.8,1.5c2.3,3.1,1.7,7.4-1.3,9.6
					c-15.4,11.3-31.5,22-47.8,32C1758.8,1804.1,1756.3,1804.1,1754.2,1803.2z M1870.1,1710.6c-7.7-7.7,2.1-8.4,38.6-50.5
					c5.9-6.9,16.6,2.2,10.7,9c-12.5,14.4-25.7,28.4-39.4,41.6C1877.2,1713.4,1872.8,1713.3,1870.1,1710.6z M1965.5,1596.7
					c-9.2-5.8,0.1-8.6,26.1-57.8c4.2-8,16.7-1.5,12.4,6.5c-8.9,16.8-18.6,33.4-28.9,49.3C1973.1,1597.9,1968.7,1598.8,1965.5,1596.7
					z M2032.3,1464.4c-3.3-1.5-4.9-5.3-3.7-8.6c6.4-17.6,12.1-35.5,16.9-53.4c1-3.7,4.8-5.8,8.5-4.7c3.7,1.1,5.9,4.8,5,8.5
					c-4.9,18.3-10.8,36.6-17.3,54.5c-1.3,3.6-5.3,5.4-8.9,4C2032.7,1464.5,2032.5,1464.4,2032.3,1464.4z"/>
				<path fill="#91B3FA" d="M848,1638.6c-15.2-19-23.1-26.7-15.7-31.9c7.6-5.4,11,4.1,26.6,23.5c2.4,3,1.9,7.3-1.1,9.7
					C854.9,1642.2,850.5,1641.6,848,1638.6z"/>
			</g>
			<g>
				<path fill="#91B3FA" d="M936.6,1470.7l100-5.3c27.7,37.7,61.6,71.4,101,99.3c-2.9,95.9-9.9,102.4,0.1,106.5l111.6,46.2
					c3.3,1.3,7,0.5,9.3-2.1l65.7-73.4c47.6,8,95.4,8.1,141.5,1l67.2,74.4c2.4,2.6,6.1,3.5,9.3,2.2l110.6-44.5c3.2-1.3,5.2-4.5,5-8
					l-7.1-98.6c37.8-26.6,71.4-59.5,99.1-97.8l100.1,6.7c3.5,0.2,6.7-1.7,8.1-4.9l44.9-109.1c1.3-3.2,0.4-6.9-2.2-9.2l-75.7-66
					c7.3-46.8,6.6-93.8-1.5-139.4c71.3-65,80.6-64.4,76.4-74.1c-48.1-106.9-44.3-115.4-55.3-114.9l-100,5.3
					c-27.7-37.7-61.6-71.4-101-99.3c2.9-95.8,9.9-102.4-0.1-106.5c-111.6-43.9-113.8-52-120.9-44.1l-65.7,73.4
					c-47.6-8-95.4-8.1-141.5-1c-66.4-70.5-66.6-80.6-76.6-76.6c-108.7,46-116.4,41.8-115.6,52.5l7.1,98.6
					c-37.8,26.6-71.4,59.5-99.1,97.8c-95.7-4.4-104-11.7-108.1-1.8c-42.5,108.8-50.8,111.2-42.7,118.3l75.7,66
					c-7.3,46.8-6.6,93.8,1.5,139.4c-71.1,64.7-80.6,64.3-76.4,74.1C929.4,1462.7,925.6,1471.2,936.6,1470.7z"/>
				<g>
					<path fill="#BDD0FB" d="M1274.5,1197.6c8.7-63,68-106.3,132-96.6c64.1,9.7,109.1,68.8,100.4,131.8c-8.7,63-68,106.3-132,96.6
						l0,0C1310.7,1319.7,1265.7,1260.5,1274.5,1197.6z M1376.2,1319.2L1376.2,1319.2L1376.2,1319.2z M1403.6,1121.4
						c-52-7.9-101.2,26.8-108.4,79.3c-7.2,51.7,29.8,100.3,82.4,108.2c52.6,8,101.3-27.6,108.4-79.3
						C1493.2,1177.8,1456.2,1129.3,1403.6,1121.4z"/>
				</g>
				<path fill="#BDD0FB" d="M1269.3,1481.9L1269.3,1481.9c-15.8-7.3-31-15.9-45.2-25.6c-4.3-2.9-5.7-8.4-3.7-12.8
					c0.2-0.5,0.5-1,0.9-1.5c3.2-4.7,9.8-5.8,14.6-2.5c16.4,11.2,34.1,20.8,52.6,28.4l0,0c139.5,57.7,298.2-3.3,359.4-136.2
					c1.6-3.4,3.1-6.8,4.5-10.3c57.9-140.8-12.2-302-155-361.2c-142.6-59-306.1,6.1-363.9,146.5c-34.4,83.6-13.7,142.8-17.6,151.4
					c-4.3,9.3-18.3,7.2-19.9-3c-8.9-55.2-1.9-113.6,22.9-167.5c107.2-232.6,448.4-223.1,550.7,15.1c31.5,73.3,32.3,153.8,2.3,226.7
					c-1.5,3.8-3.2,7.5-4.9,11.2c-31.1,67.5-86.1,119.7-156.2,147.9c-73.9,29.7-155.6,29.1-230.1-1.7
					C1276.8,1485.3,1273.1,1483.7,1269.3,1481.9z"/>
			</g>
		</g>
		<g>
			<path fill="#91B3FA" d="M2060.2,846.1c12.3,14.5,27.1,27.2,43.8,37.3l0.8,40.8c0.1,4.5,4,2.8,48.9,18.1
				c4.2,1.3,3.7-2.5,28.2-33.8c19.5,1.6,38.9-0.1,57.4-4.7l29.4,28.3c3.3,3.1,4.8-0.8,47.4-21.7c1.3-0.7,2-2,1.8-3.5l-5.7-40.4
				c14.5-12.3,27.2-27.1,37.3-43.8c38.9-1.6,42.5,1.1,43.9-3.1c14.1-46.4,17.4-47.6,13.8-50.3l-32.6-24.5
				c1.6-19.5-0.1-38.9-4.7-57.4l28.3-29.4c3.1-3.3-0.8-4.8-21.7-47.4c-2-3.9-4.2-0.8-43.8,4c-12.3-14.5-27.1-27.2-43.8-37.3
				l-0.8-40.8c-0.1-4.5-4-2.8-48.9-18.1c-4.1-1.3-3.6,2.4-28.2,33.8c-19.5-1.6-38.9,0.1-57.4,4.7l-29.4-28.3c-1-1-2.6-1.2-3.9-0.6
				l-43.5,22.3c-1.3,0.7-2,2-1.8,3.5l5.7,40.4c-14.5,12.3-27.2,27.1-37.3,43.8c-38.9,1.6-42.5-1.1-43.9,3.1
				c-14.1,46.4-17.4,47.6-13.8,50.3l32.6,24.5c-1.6,19.5,0.1,38.9,4.7,57.4c-26.4,28.7-30.9,29.3-28.8,33.3l22.3,43.5
				C2018.4,853.9,2020.9,850.9,2060.2,846.1z"/>
			<g>
				<g>
					<path fill="#BDD0FB" d="M2145.5,727c1.8-28.2,26.1-49.5,54.2-47.6c28.1,1.8,49.5,26.1,47.6,54.2c-1.8,28.1-26.2,49.5-54.2,47.6
						l0,0C2165.1,779.5,2143.7,755.1,2145.5,727z M2193.6,773.7L2193.6,773.7L2193.6,773.7z M2160.7,728
						c-1.3,19.7,13.7,36.8,33.4,38.1l0,0c31.7,2,50.3-35.5,29.2-59.4C2202.5,682.9,2162.8,696.1,2160.7,728z"/>
				</g>
				<g>
					<path fill="#91B3FA" d="M1940.2,806.7c-2-6.6-3.7-13.3-5.1-20c-0.6-2.7,1.2-5.4,3.9-6c6.9-1.5,5.9,6.2,11,23.2
						c0.8,2.7-0.7,5.5-3.4,6.3C1943.8,810.9,1941,809.4,1940.2,806.7z"/>
					<path fill="#91B3FA" d="M1929.4,719.1c0.6-13.5,2.2-27.5,5-41.5c1.3-6.6,11.3-4.6,9.9,2c-7.3,36.3-1.6,45.1-10.1,44.8
						C1931.4,724.3,1929.2,721.9,1929.4,719.1z M1958.3,620.1c-2.5-1.2-3.6-4.3-2.3-6.8c6.1-12.5,13.2-24.6,21.2-36
						c3.8-5.5,12.2,0.3,8.3,5.8c-7.7,11-14.5,22.6-20.4,34.7C1962.9,622.2,1957.7,620.1,1958.3,620.1z M2023.9,535.6
						c-0.6-0.3-1.2-0.7-1.7-1.3c-1.8-2.1-1.6-5.3,0.6-7.2c10.6-9,21.9-17.3,33.8-24.6c2.4-1.5,5.5-0.7,7,1.7c1.5,2.4,0.7,5.5-1.7,7
						c-11.4,7-22.3,15-32.5,23.7C2027.7,536.2,2025.6,536.4,2023.9,535.6z M2117.6,484c-1.3-0.6-2.3-1.7-2.7-3.1
						c-0.8-2.7,0.7-5.5,3.4-6.3c13.3-4.1,27-7.1,40.8-9.1c2.8-0.4,5.3,1.5,5.7,4.3c0.4,2.8-1.5,5.3-4.3,5.7
						c-13.2,1.9-26.4,4.8-39.2,8.7C2119.9,484.7,2118.6,484.5,2117.6,484z M2221.1,469.1c0.3-2.8,2.8-4.8,5.6-4.5
						c13.9,1.6,27.7,4.2,41,7.9c6.5,1.7,3.8,11.6-2.7,9.8c-12.9-3.5-26.1-6.1-39.5-7.6C2222.8,474.4,2220.8,471.8,2221.1,469.1z"/>
					<path fill="#91B3FA" d="M2342.3,518.3c-15.3-10.6-22.1-11.6-18.6-17.6c1.4-2.4,4.5-3.3,6.9-1.8c5.9,3.4,11.8,7.1,17.5,11.1
						c2.3,1.6,2.9,4.7,1.3,7.1C2347.7,519.3,2344.6,519.9,2342.3,518.3z"/>
				</g>
				<g>
					<path fill="#91B3FA" d="M2451.7,697.5c-2.4-18.5-6.1-24.2,0.7-25.6c2.7-0.6,5.4,1.2,6,3.9c1.4,6.7,2.5,13.6,3.4,20.4
						c0.4,2.8-1.6,5.3-4.4,5.7C2454.6,702.2,2452,700.3,2451.7,697.5z"/>
					<path fill="#91B3FA" d="M2109,977.7c2.6-8,8.6,0.2,44.8,6.3c6.6,1.1,5,11.1-1.7,10c-13.5-2.3-26.9-5.6-39.9-9.9
						C2109.6,983.2,2108.1,980.4,2109,977.7z M2213.3,992.1c-0.2-2.8,1.8-5.2,4.6-5.5c36.8-3,43.2-10.8,45.1-2.5
						c0.7,2.7-1,5.5-3.7,6.1c-13.3,3.2-26.9,5.4-40.6,6.5C2215.9,997,2213.5,994.9,2213.3,992.1z M2314.8,964.5
						c-4-7.5,6.1-6,35.5-28c5.4-4,11.5,4.1,6.1,8.1c-11,8.2-22.7,15.6-34.7,22C2319.2,967.9,2316.1,967,2314.8,964.5z M2397.3,899.2
						c-6.6-5.3,3.2-7.9,21.7-39.7c3.4-5.8,12.1-0.7,8.8,5.1c-6.9,11.8-14.7,23.2-23.3,33.8C2402.6,900.6,2399.4,900.9,2397.3,899.2z
						 M2444,800.4c10-35.5,5-44.2,13.4-43.2c2.8,0.3,4.8,2.9,4.4,5.6c-1.7,13.6-4.4,27.2-8.1,40.3c-0.8,2.7-3.6,4.3-6.3,3.5
						C2444.8,805.9,2443.3,803.1,2444,800.4z"/>
					<path fill="#91B3FA" d="M2051.9,955.2c-5.8-3.7-11.5-7.7-16.9-11.9c-2.2-1.7-2.7-4.9-1-7.1c4.3-5.6,8.5,0.8,23.4,10.4
						c2.4,1.5,3,4.7,1.5,7C2057.3,956.1,2054.2,956.7,2051.9,955.2z"/>
				</g>
				<path fill="#BDD0FB" d="M2134.6,838.7c-4.2-2.4-5-7.1-3-10.5c2.1-3.6,6.8-4.9,10.4-2.8c6.8,3.9,14,7.1,21.5,9.5
					c1.6,0.2,40.3,15.6,84.3-6.8c87.2-44.7,76.9-173.3-16.5-203.4c-53.7-17.3-111.2,8.8-134.2,58.8c-23.2,50.4,3,76.6-13,80.3
					c-4.1,1-8.2-1.6-9.1-5.7c-5.1-22.1-4.1-45.2,2.9-66.9c21.2-65.8,92.1-102.3,158.2-81c71.1,22.9,107.3,103.3,75.5,172.4
					c-25.7,55.8-90.4,86.9-152.6,66.8l0,0C2150.3,846.7,2142.2,843.1,2134.6,838.7z"/>
			</g>
		</g>
		<g>
			
				<linearGradient id="SVGID_2_" gradientUnits="userSpaceOnUse" x1="8819.9648" y1="1738.6691" x2="8437.2041" y2="2209.2205" gradientTransform="matrix(0.9922 -0.1247 0.1247 0.9922 -6658.7378 715.4178)">
				<stop  offset="0" style="stop-color:#FEBBBA"/>
				<stop  offset="1" style="stop-color:#FF928E"/>
			</linearGradient>
			<path fill="url(#SVGID_2_)" d="M2272.8,1473.9c-2.5-4.8-9.5-4-11,1.2c-5.3,19.2-18.2,52.6-45.3,64.5c-1.4,0.6-2.7,1.2-3.9,1.8
				c-1.2-3.7-1.2-8,1.7-12.4c8.4-12.9-6.8-30.4-6.8-30.4s-1,15.5-12.8,25.2c-10.1,8.4-15,27-8.1,42.4
				c14.6,56.9,36.6,132.1-48.8,187.1c-85.4,55-205.7-103.7-205.7-103.7l59.7,189.3c0,0,92.1,68,199.3-27.6
				c107.2-95.6,36.1-234.7,36.1-234.7S2309.1,1543.4,2272.8,1473.9z"/>
			
				<linearGradient id="SVGID_3_" gradientUnits="userSpaceOnUse" x1="-8229.2734" y1="2910.7434" x2="-8480.2686" y2="3208.9846" gradientTransform="matrix(-0.9602 0.2794 0.2794 0.9602 -7297.1421 797.6744)">
				<stop  offset="0" style="stop-color:#09005D"/>
				<stop  offset="1" style="stop-color:#1A0F91"/>
			</linearGradient>
			<path fill="url(#SVGID_3_)" d="M1917.2,1371.4c0,0,24.7-111-102.4-81.6c0,0-61.7-10.1-64.9,48.2c0,0-39.8,26.2-10.7,76.6
				c0,0-118.2-45.7-169.7,58c-51.5,103.6-4.2,160.6,45.5,175.5c0,0-40.2,20.2-21.2,65.8c19,45.6,115.4,77.7,172.4,22.3
				c0,0,162,21.4,158.8-93c0,0,75.4-48.7-3.8-143.3C1842.1,1405.2,1917.2,1371.4,1917.2,1371.4z"/>
			<linearGradient id="SVGID_4_" gradientUnits="userSpaceOnUse" x1="2024.3347" y1="1694.6792" x2="1335.6691" y2="2409.8315">
				<stop  offset="0" style="stop-color:#FE7062"/>
				<stop  offset="1" style="stop-color:#FF928E"/>
			</linearGradient>
			<path fill="url(#SVGID_4_)" d="M1924.2,1628.7c-25.5-7.7-99.9-21.8-170.7,43.5c-12,11.1-16.9,27.9-12.6,43.7
				c19,70,69.1,276.7,25.2,366.1c0,0,77.5,85.4,162,16.6c0,0,37.9-165.3,87.6-237.9c34.3-50.1-54.7-188.1-77.2-221.5
				C1935.1,1634.1,1930,1630.4,1924.2,1628.7z"/>
			
				<linearGradient id="SVGID_5_" gradientUnits="userSpaceOnUse" x1="-8592.7295" y1="3436.5654" x2="-8572.2803" y2="3291.3767" gradientTransform="matrix(-0.9602 0.2794 0.2794 0.9602 -7297.1421 797.6744)">
				<stop  offset="0" style="stop-color:#FEBBBA"/>
				<stop  offset="1" style="stop-color:#FF928E"/>
			</linearGradient>
			<path fill="url(#SVGID_5_)" d="M1853.7,1489.7c0,0-37.8,106.9-40.6,154c0,0,41.8,19,81.1-13.1c0,0,4.1-106.8,10.1-125.9
				L1853.7,1489.7z"/>
			
				<linearGradient id="SVGID_6_" gradientUnits="userSpaceOnUse" x1="-8686.4795" y1="3125.4675" x2="-8495.2764" y2="3345.3005" gradientTransform="matrix(-0.9602 0.2794 0.2794 0.9602 -7297.1421 797.6744)">
				<stop  offset="0" style="stop-color:#FEBBBA"/>
				<stop  offset="1" style="stop-color:#FF928E"/>
			</linearGradient>
			<path fill="url(#SVGID_6_)" d="M1906.1,1343.9c0,0,98.8,138.3,39.8,178.5c-59.1,40.2-129.4-58.1-129.4-58.1s-22.9-75.7,1-101.4
				C1841.5,1337.2,1906.1,1343.9,1906.1,1343.9z"/>
			
				<linearGradient id="SVGID_7_" gradientUnits="userSpaceOnUse" x1="-8349.4883" y1="2809.5774" x2="-8600.4873" y2="3107.8245" gradientTransform="matrix(-0.9602 0.2794 0.2794 0.9602 -7297.1421 797.6744)">
				<stop  offset="0" style="stop-color:#09005D"/>
				<stop  offset="1" style="stop-color:#1A0F91"/>
			</linearGradient>
			<path fill="url(#SVGID_7_)" d="M1860.4,1310.9c0,0,45.4,10.8,51.8,31.3c6.4,20.5-64.4,39.6-84.2,40.5l-16,82.9
				c0,0-47.2-78-28.5-123C1802.2,1297.5,1860.4,1310.9,1860.4,1310.9z"/>
			
				<linearGradient id="SVGID_8_" gradientUnits="userSpaceOnUse" x1="-8638.709" y1="3083.9138" x2="-8447.5068" y2="3303.7449" gradientTransform="matrix(-0.9602 0.2794 0.2794 0.9602 -7297.1421 797.6744)">
				<stop  offset="0" style="stop-color:#FEBBBA"/>
				<stop  offset="1" style="stop-color:#FF928E"/>
			</linearGradient>
			<path fill="url(#SVGID_8_)" d="M1835.6,1454.1c0,0-38.5-44.5-53.8-15.5c-15.3,29,34.6,50.8,51.9,36.6L1835.6,1454.1z"/>
			
				<linearGradient id="SVGID_9_" gradientUnits="userSpaceOnUse" x1="7946.4785" y1="3380.1536" x2="8402.6475" y2="2574.917" gradientTransform="matrix(1 -9.500000e-03 9.500000e-03 1 -6402.6318 56.9446)">
				<stop  offset="0" style="stop-color:#FEBBBA"/>
				<stop  offset="1" style="stop-color:#FF928E"/>
			</linearGradient>
			<path fill="url(#SVGID_9_)" d="M2026.8,2445.6c-0.3,7.5,12.9,67,20.1,98.8c2.9,12.8,0.9,26.1-5.6,37.5l-248.3,417.9
				c-3,5.1-5.2,10.5-6.5,16.3c-4.6,19.6-14,67.7-9.1,111.4l12.8,26.7l-55.6-12.6l-12.1-149.2l15.7-9.6c13.6-8.3,24.2-20.7,30.2-35.4
				c22.5-54.5,78.2-193.4,92.6-261c16.3-76.9,101.7-139.4,101.7-139.4l-15-35.5L2026.8,2445.6z"/>
			
				<linearGradient id="SVGID_10_" gradientUnits="userSpaceOnUse" x1="8045.9199" y1="3095.4563" x2="8179.2598" y2="3095.4563" gradientTransform="matrix(1 -9.500000e-03 9.500000e-03 1 -6402.6318 56.9446)">
				<stop  offset="0" style="stop-color:#09005D"/>
				<stop  offset="1" style="stop-color:#1A0F91"/>
			</linearGradient>
			<path fill="url(#SVGID_10_)" d="M1672.8,3090.2c0,0,30-47.6,33.5-66.1c3.5-18.5,13.4-51.2,31.9-41.4c0,0,8.7,89.9,5.7,125.1
				c-3,35.1,39.7,34,39.7,34s11.8,1.7,20.4,10.3c6,6,1.7,16.3-6.7,16.8c-14,0.9-36.2,1.1-59.5-3.4c-8.2-1.6-14.2-8.5-14.7-16.8
				l-6.2-103.5l-37.8,47.8L1672.8,3090.2z"/>
			
				<linearGradient id="SVGID_11_" gradientUnits="userSpaceOnUse" x1="8463.4307" y1="2784.4597" x2="7781.2114" y2="3002.6111" gradientTransform="matrix(1 -9.500000e-03 9.500000e-03 1 -6402.6318 56.9446)">
				<stop  offset="0" style="stop-color:#FEBBBA"/>
				<stop  offset="1" style="stop-color:#FF928E"/>
			</linearGradient>
			<path fill="url(#SVGID_11_)" d="M1878.4,2512.1c0,0-8.8,373.8-9.9,426.9c-1.2,53.1,8.4,170.8,61.6,205.9l-23.2,17.1
				c0,0-28.9-24.6-57.2-71.9c-31.8-53.2-41.4-62.9-41.4-62.9l10.5-21.6c4.6-9.5,6-20.1,3.8-30.4c-11.5-55.7-49.9-240.8-60.3-280.7
				c-12.4-47.1-13.2-109.9,29.7-162.5C1835.1,2479.4,1878.4,2512.1,1878.4,2512.1z"/>
			
				<linearGradient id="SVGID_12_" gradientUnits="userSpaceOnUse" x1="8169.5435" y1="3119.5388" x2="8328.4971" y2="3119.5388" gradientTransform="matrix(1 -9.500000e-03 9.500000e-03 1 -6402.6318 56.9446)">
				<stop  offset="0" style="stop-color:#09005D"/>
				<stop  offset="1" style="stop-color:#1A0F91"/>
			</linearGradient>
			<path fill="url(#SVGID_12_)" d="M1829.3,3179c-1.7,0-3.1-1.2-3.3-2.8c-1.8-12.5-9.1-62.4-15.2-75.4c-6.9-14.8-29.5-77.2,0-82.5
				c0,0,73.3,107.2,87.4,121.6c14.1,14.4,31.8,5,31.8,5s13.7,4.1,24.1,17.3c4.9,6.3,0.3,15.5-7.7,15.6l-49.4,0.5
				c-14.3,0.1-27.3-8.6-32.6-21.9c-8.7-21.7-23.6-53.6-41-67.7l9,86.6C1832.7,3177.3,1831.2,3179,1829.3,3179L1829.3,3179z"/>
			<linearGradient id="SVGID_13_" gradientUnits="userSpaceOnUse" x1="2112.1687" y1="2014.3419" x2="1502.9635" y2="2795.7124">
				<stop  offset="0" style="stop-color:#4F52FF"/>
				<stop  offset="1" style="stop-color:#4042E2"/>
			</linearGradient>
			<path fill="url(#SVGID_13_)" d="M1939.8,2058.2c0,0-11.1,35.5,6,93.9l106.1,370.5c1.7,5.8-1.5,11.9-7.2,14
				c-31.7,11.4-136.1,43.6-278.5,33.8c-7.2-0.5-13.2-5.6-14.7-12.6c-9.4-42.2-41.4-186.3-48-215.9
				c-25.1-112.8-53.2-234.5,70.2-308.1C1830.5,2058.1,1883.6,2072.4,1939.8,2058.2z"/>
			
				<linearGradient id="SVGID_14_" gradientUnits="userSpaceOnUse" x1="8038.8853" y1="2418.5037" x2="8795.6162" y2="1552.9143" gradientTransform="matrix(0.9922 -0.1247 0.1247 0.9922 -6658.7378 715.4178)">
				<stop  offset="0" style="stop-color:#FEBBBA"/>
				<stop  offset="1" style="stop-color:#FF928E"/>
			</linearGradient>
			<path fill="url(#SVGID_14_)" d="M1743.4,1686.1c0,0-120.7,100.3-150.7,237.4c-30,137.1,176.4,151.6,176.4,151.6
				s28-31.3,61.3-20.1c33.3,11.2,2.6-54.6-36.3-54.4c-38.9,0.2-20.9,30.9-75.9,6c-53.6-24.3-86.8-99.4,50-213.3
				c7.9-6.6,14.3-15,18.1-24.6C1812.8,1701.8,1791.7,1658,1743.4,1686.1z"/>
		</g>
		<g>
			<linearGradient id="SVGID_15_" gradientUnits="userSpaceOnUse" x1="684.2549" y1="2544.9121" x2="317.5149" y2="3374.9043">
				<stop  offset="0" style="stop-color:#FE7062"/>
				<stop  offset="1" style="stop-color:#FF928E"/>
			</linearGradient>
			<path fill="url(#SVGID_15_)" d="M556.5,2612.5c-10.6,15.7-52.9,371.9-59.5,503.5c-0.4,8.9,6.7,16.3,15.6,16.3l0,0
				c7.7,0,14.2-5.6,15.4-13.2l77.3-495.3L556.5,2612.5z"/>
			<linearGradient id="SVGID_16_" gradientUnits="userSpaceOnUse" x1="986.968" y1="2678.6694" x2="620.2275" y2="3508.6626">
				<stop  offset="0" style="stop-color:#FE7062"/>
				<stop  offset="1" style="stop-color:#FF928E"/>
			</linearGradient>
			<path fill="url(#SVGID_16_)" d="M896.2,2612.5c10.6,15.7,52.9,371.9,59.5,503.5c0.4,8.9-6.7,16.3-15.6,16.3l0,0
				c-7.7,0-14.2-5.6-15.4-13.2l-77.3-495.3L896.2,2612.5z"/>
			<linearGradient id="SVGID_17_" gradientUnits="userSpaceOnUse" x1="634.0889" y1="3031.8718" x2="698.4294" y2="2723.0378">
				<stop  offset="0" style="stop-color:#FE7062"/>
				<stop  offset="1" style="stop-color:#FF928E"/>
			</linearGradient>
			<path fill="url(#SVGID_17_)" d="M492.6,2584.7l0,3.9c-0.3,27.9,23.8,50.9,54,51.4l357.2,6.1c29.7,0.5,54.5-21,55.9-48.5l0.2-3.6
				c1.5-28.7-22.9-52.9-53.8-53.4l-357.4-6.4C518,2533.7,492.8,2556.4,492.6,2584.7z"/>
		</g>
		<g>
			<g>
				<linearGradient id="SVGID_18_" gradientUnits="userSpaceOnUse" x1="1013.2892" y1="3080.8711" x2="1262.1069" y2="3080.8711">
					<stop  offset="0" style="stop-color:#4F52FF"/>
					<stop  offset="1" style="stop-color:#4042E2"/>
				</linearGradient>
				<path fill="url(#SVGID_18_)" d="M1113.3,3081.9c-61,0-88-5.2-100.1-10c2.3,10,11.3,17.9,22.5,17.9h215.8c7.3,0,11.9-7,10.1-13.3
					C1237.1,3078.6,1184.9,3081.9,1113.3,3081.9z"/>
				<linearGradient id="SVGID_19_" gradientUnits="userSpaceOnUse" x1="1204.9926" y1="2602.429" x2="1137.0096" y2="3072.1304">
					<stop  offset="0" style="stop-color:#09005D"/>
					<stop  offset="1" style="stop-color:#1A0F91"/>
				</linearGradient>
				<path fill="url(#SVGID_19_)" d="M1261.7,3076.6c-0.4-1.3-0.9-2.5-1.8-3.7c-16.4-21-49.5-53.9-94.4-53.3
					c-65.8,0.9-88.7,8.1-139.9,0.4l-12.1,40c-1.2,4.1-1.3,8.1-0.4,11.9c12.1,4.8,39.1,10,100.1,10
					C1184.9,3081.9,1237.1,3078.6,1261.7,3076.6z"/>
			</g>
			<linearGradient id="SVGID_20_" gradientUnits="userSpaceOnUse" x1="1025.7183" y1="3005.8899" x2="1093.0405" y2="3005.8899">
				<stop  offset="0" style="stop-color:#FEBBBA"/>
				<stop  offset="1" style="stop-color:#FF928E"/>
			</linearGradient>
			<path fill="url(#SVGID_20_)" d="M1040.5,2976.9l-14.8,50.4c0,0,32.8,14.9,61.7,2.9l5.7-43.6L1040.5,2976.9z"/>
			<g>
				<linearGradient id="SVGID_21_" gradientUnits="userSpaceOnUse" x1="1403.546" y1="3031.5625" x2="1604.4374" y2="3031.5625">
					<stop  offset="0" style="stop-color:#4F52FF"/>
					<stop  offset="1" style="stop-color:#4042E2"/>
				</linearGradient>
				<path fill="url(#SVGID_21_)" d="M1487.8,3050.2c-47.5,38.2-71.9,51.1-84.2,54.9c8.1,6.3,20,6.9,28.7-0.2l168.2-135.2
					c5.7-4.6,4.9-12.8-0.4-16.6C1582.2,2970.1,1543.6,3005.4,1487.8,3050.2z"/>
				<linearGradient id="SVGID_22_" gradientUnits="userSpaceOnUse" x1="1541.7288" y1="2651.1631" x2="1473.7452" y2="3120.8679">
					<stop  offset="0" style="stop-color:#09005D"/>
					<stop  offset="1" style="stop-color:#1A0F91"/>
				</linearGradient>
				<path fill="url(#SVGID_22_)" d="M1600.1,2953.1c-1.1-0.8-2.2-1.4-3.7-1.7c-25.9-6-72.2-10.9-106.8,17.7
					c-50.7,41.9-64.2,61.8-108.8,87.9l15.5,38.6c1.6,3.9,4.1,7.1,7.2,9.5c12.4-3.9,36.7-16.7,84.2-54.9
					C1543.6,3005.4,1582.2,2970.1,1600.1,2953.1z"/>
			</g>
			<linearGradient id="SVGID_23_" gradientUnits="userSpaceOnUse" x1="1297.6934" y1="2545.0457" x2="52.7945" y2="3048.303">
				<stop  offset="0" style="stop-color:#09005D"/>
				<stop  offset="1" style="stop-color:#1A0F91"/>
			</linearGradient>
			<path fill="url(#SVGID_23_)" d="M723.8,2403.1c0,0,365.2,29.8,440.1,65.1c74.9,35.3-61.1,529.6-61.1,529.6s-20.4,9.8-65.8-4.3
				c0,0,46.5-364.8,11.9-443.9l-395.4-64.7L723.8,2403.1z"/>
			<linearGradient id="SVGID_24_" gradientUnits="userSpaceOnUse" x1="1344.5883" y1="3011.5559" x2="1424.9615" y2="3011.5559">
				<stop  offset="0" style="stop-color:#FEBBBA"/>
				<stop  offset="1" style="stop-color:#FF928E"/>
			</linearGradient>
			<path fill="url(#SVGID_24_)" d="M1344.6,2987.6c3.4,3.1,36.3,69.4,36.3,69.4s36.6-7.9,44.1-31.1l-33-59.9L1344.6,2987.6z"/>
			<linearGradient id="SVGID_25_" gradientUnits="userSpaceOnUse" x1="1947.6882" y1="1500.5165" x2="1404.7012" y2="2149.4519">
				<stop  offset="0" style="stop-color:#09005D"/>
				<stop  offset="1" style="stop-color:#1A0F91"/>
			</linearGradient>
			<path fill="url(#SVGID_25_)" d="M503.8,2400.1c0,0-11.9,28.6-11.4,66.7c0.7,52.6,43,95.3,95.5,98l431.7,19.7
				c9.1,0.4,16.8,6.7,19.1,15.6c10.1,39.2,59.7,159.7,302.1,400.2c6.4,6.4,16.5,7.5,24.2,2.6l34.5-21.8c3.6-2.3,4.8-7,2.6-10.7
				L1150.8,2541c-13.2-21.8-34.4-37.5-59.1-43.8l-368-94.1L503.8,2400.1z"/>
			<linearGradient id="SVGID_26_" gradientUnits="userSpaceOnUse" x1="898.1425" y1="1878.9674" x2="937.7676" y2="1779.0431">
				<stop  offset="0" style="stop-color:#FEBBBA"/>
				<stop  offset="1" style="stop-color:#FF928E"/>
			</linearGradient>
			<path fill="url(#SVGID_26_)" d="M929.3,1729.6c0,0-46.2,81.8-93.4,121.4l97.5,54.4c0,0,22-86.6,72.1-111.9L929.3,1729.6z"/>
			<linearGradient id="SVGID_27_" gradientUnits="userSpaceOnUse" x1="1606.5814" y1="1165.2231" x2="390.8605" y2="3017.7493">
				<stop  offset="0" style="stop-color:#4F52FF"/>
				<stop  offset="1" style="stop-color:#4042E2"/>
			</linearGradient>
			<path fill="url(#SVGID_27_)" d="M496,2403.1c0,0,116.5,28.4,227.8,0c0,0,155.7-209.3,215.9-266.2c0,0,96.1,151.6,309.9,173.1
				l11.9-26.6c0,0-170.2-78.5-222.6-199c-52.4-120.6-73.5-172-121.1-203.4c-29.7-19.6-47.5-33-56.7-40.3c-5-4-12-4.5-17.5-1.1
				C793,1870.3,554.9,2033.3,496,2403.1z"/>
			<linearGradient id="SVGID_28_" gradientUnits="userSpaceOnUse" x1="1702.7871" y1="616.3312" x2="693.8198" y2="2460.5923">
				<stop  offset="0" style="stop-color:#53D8FF"/>
				<stop  offset="1" style="stop-color:#3840F7"/>
			</linearGradient>
			<path fill="url(#SVGID_28_)" d="M933.3,2134c-2.2,0-4.5-1-5.9-2.9c-37.1-48.4-57.8-101.7-58.6-104c-1.5-3.9,0.4-8.2,4.3-9.7
				c3.9-1.5,8.2,0.4,9.7,4.3c0.2,0.5,20.8,53.6,56.6,100.2c2.5,3.3,1.9,8-1.4,10.5C936.5,2133.5,934.9,2134,933.3,2134z"/>
			<linearGradient id="SVGID_29_" gradientUnits="userSpaceOnUse" x1="1236.6746" y1="2267.5779" x2="1422.3271" y2="2267.5779">
				<stop  offset="0" style="stop-color:#FEBBBA"/>
				<stop  offset="1" style="stop-color:#FF928E"/>
			</linearGradient>
			<path fill="url(#SVGID_29_)" d="M1236.7,2269.4l24.1-6.4l73.1-16.9c8.8-2,18-0.5,25.7,4.3l62.8,39.5l-173.5-0.3L1236.7,2269.4z"
				/>
			<g>
				
					<linearGradient id="SVGID_30_" gradientUnits="userSpaceOnUse" x1="2963.7834" y1="2142.6301" x2="2764.8301" y2="2294.8599" gradientTransform="matrix(0.9914 -0.1306 0.1306 0.9914 -2198.9988 -61.3823)">
					<stop  offset="0" style="stop-color:#FEBBBA"/>
					<stop  offset="1" style="stop-color:#FF928E"/>
				</linearGradient>
				<path fill="url(#SVGID_30_)" d="M1002.7,1606.9c0,0,44.9,74.7,52.7,116c7.8,41.3,20.3,67.1-26.7,81.8
					c-47,14.7-90.7-3.9-118.1-42.5c0,0-42.8-59.3-38.5-86.5C876.4,1648.7,1002.7,1606.9,1002.7,1606.9z"/>
				
					<linearGradient id="SVGID_31_" gradientUnits="userSpaceOnUse" x1="2824.0095" y1="2022.46" x2="3004.168" y2="2254.4133" gradientTransform="matrix(0.9914 -0.1306 0.1306 0.9914 -2198.9988 -61.3823)">
					<stop  offset="0" style="stop-color:#09005D"/>
					<stop  offset="1" style="stop-color:#1A0F91"/>
				</linearGradient>
				<path fill="url(#SVGID_31_)" d="M923.2,1730.4l6.1-0.8c0,0-31.8-48.1-11-60c20.8-11.9,105.7-41.2,120.4-74.6
					c14.2-32.2-7-68.6-32.7-76.2c-1.6-0.5-3.3,0.5-3.9,2.1l-1.5,4.1c-1,2.8-4.9,2.9-6.1,0.2l0,0c-1.1-2.6-4.8-2.7-6-0.1
					c-4.5,10-18.2,27.1-59,40.3c-57.9,18.8-94,48-89.5,89.1c0.3,2.6-2.3,4.4-4.7,3.3c-4.7-2.1-11.9-2.4-20.2,6.7
					c-14.5,15.8-3.1,50.5,36.4,75.1c1.9,1.2,2.2,3.8,0.5,5.3c-5.9,5.1-14.3,16.4,12.5,26.4c27.4,10.3,42.3,6.8,47.9,4.6
					c1.5-0.6,2.3-2.1,2-3.7l-7-36.1c-0.4-1.9,0.9-3.7,2.8-3.9L923.2,1730.4z"/>
				
					<linearGradient id="SVGID_32_" gradientUnits="userSpaceOnUse" x1="2939.1047" y1="2110.3796" x2="2740.1528" y2="2262.6082" gradientTransform="matrix(0.9914 -0.1306 0.1306 0.9914 -2198.9988 -61.3823)">
					<stop  offset="0" style="stop-color:#FEBBBA"/>
					<stop  offset="1" style="stop-color:#FF928E"/>
				</linearGradient>
				<path fill="url(#SVGID_32_)" d="M925.7,1737.8c0,0-19.8-48.9-40.7-31.7c-20.8,17.2,19.3,55.2,37.8,54.7L925.7,1737.8z"/>
			</g>
		</g>
		<g>
			<g>
				
					<linearGradient id="SVGID_33_" gradientUnits="userSpaceOnUse" x1="25891.334" y1="-27534.5293" x2="25391.5215" y2="-27051.3086" gradientTransform="matrix(-1.388 -6.860000e-02 -6.850000e-02 1.3855 -4690.1738 -570.6171)">
					<stop  offset="0" style="stop-color:#09005D"/>
					<stop  offset="1" style="stop-color:#1A0F91"/>
				</linearGradient>
				<path fill="url(#SVGID_33_)" d="M1240.3,2313.7c0.3,0,0.6,0,0.9,0l373.1-0.4c9.2,0,16.7-7.5,16.7-16.7c0-9.2-7.5-16.8-16.7-16.7
					l-373.1,0.4c-9.2,0-16.7,7.5-16.7,16.7C1224.4,2305.9,1231.4,2313.2,1240.3,2313.7z"/>
			</g>
			<g>
				
					<linearGradient id="SVGID_34_" gradientUnits="userSpaceOnUse" x1="23170.6406" y1="-27408.2363" x2="22670.8516" y2="-26925.0352" gradientTransform="matrix(0.6475 -1.2297 -1.2274 -0.6463 8775.9707 -5472.2012)">
					<stop  offset="0" style="stop-color:#09005D"/>
					<stop  offset="1" style="stop-color:#1A0F91"/>
				</linearGradient>
				<path fill="url(#SVGID_34_)" d="M1758.7,1948.2c-0.1,0.3-0.3,0.5-0.4,0.8l-157,338.5c-3.9,8.4-0.3,18.3,8.1,22.2
					c8.4,3.9,18.4,0.3,22.2-8.1l157-338.5c3.9-8.4,0.3-18.3-8.1-22.2C1772.4,1937.1,1762.9,1940.4,1758.7,1948.2z"/>
			</g>
		</g>
		<g>
			<g>
				
					<linearGradient id="SVGID_35_" gradientUnits="userSpaceOnUse" x1="-9321.0996" y1="3442.2473" x2="-9317.791" y2="3793.0007" gradientTransform="matrix(-1 0 0 1 -6719.2798 0)">
					<stop  offset="0" style="stop-color:#09005D"/>
					<stop  offset="1" style="stop-color:#1A0F91"/>
				</linearGradient>
				<path fill="url(#SVGID_35_)" d="M2708.2,3028.6c0,0,4.1,22.8,5.7,50c0.7,11.6-7.9,21.6-19.4,22.7
					c-40.1,3.9-131.5,11.1-189.8,2.7c-8.2-1.2-11.4-11.2-5.4-16.8c24-22.4,82.1-66,177.7-75.5L2708.2,3028.6z"/>
				
					<linearGradient id="SVGID_36_" gradientUnits="userSpaceOnUse" x1="-9405.6484" y1="3050.5444" x2="-9423.8477" y2="2908.2583" gradientTransform="matrix(-1 0 0 1 -6719.2798 0)">
					<stop  offset="0" style="stop-color:#FEBBBA"/>
					<stop  offset="1" style="stop-color:#FF928E"/>
				</linearGradient>
				<path fill="url(#SVGID_36_)" d="M2728.2,2977.1l-20.3,49.7c-2.8,6.8-9.7,11-17,10.3c-5-0.5-10.8-1.5-16.6-3.2
					c-11.4-3.5-17.9-15.6-14.5-27.1l15.3-51.2L2728.2,2977.1z"/>
				
					<linearGradient id="SVGID_37_" gradientUnits="userSpaceOnUse" x1="-9794.9902" y1="3446.7161" x2="-9791.6816" y2="3797.4673" gradientTransform="matrix(-1 0 0 1 -6719.2798 0)">
					<stop  offset="0" style="stop-color:#09005D"/>
					<stop  offset="1" style="stop-color:#1A0F91"/>
				</linearGradient>
				<path fill="url(#SVGID_37_)" d="M3075,3068.2c0,0-40.6,34-56.4,77.6c-4.4,12,4.8,24.6,17.6,24.6h83.6c12.2,0,21.6-11,19.5-23.1
					C3133.9,3117.2,3118.6,3068.3,3075,3068.2z"/>
				
					<linearGradient id="SVGID_38_" gradientUnits="userSpaceOnUse" x1="-9803.4219" y1="3099.3105" x2="-9821.1572" y2="2960.656" gradientTransform="matrix(-1 0 0 1 -6719.2798 0)">
					<stop  offset="0" style="stop-color:#FEBBBA"/>
					<stop  offset="1" style="stop-color:#FF928E"/>
				</linearGradient>
				<path fill="url(#SVGID_38_)" d="M3125.3,3023.9c0,0-8.2,36.3-14.5,60.3c-1.1,4.4-5.8,6.7-10,5.2c-12.7-4.5-22.9-6.5-30.4-5.5
					c-3.5,0.5-6.5-2.4-6.5-5.9l-0.8-60.3L3125.3,3023.9z"/>
				
					<linearGradient id="SVGID_39_" gradientUnits="userSpaceOnUse" x1="-9927.3594" y1="2572.4473" x2="-9381.4824" y2="2572.4473" gradientTransform="matrix(-1 0 0 1 -6719.2798 0)">
					<stop  offset="0" style="stop-color:#09005D"/>
					<stop  offset="1" style="stop-color:#1A0F91"/>
				</linearGradient>
				<path fill="url(#SVGID_39_)" d="M2909.3,2206.7l-247.1,753.8c0,0,47.4,31,70,29.7l293.5-605.8c0,0,51.4,373.3,26.5,641.2
					l84.1,6.4c0,0,136.7-684.8,33.2-919.4L2909.3,2206.7z"/>
				
					<linearGradient id="SVGID_40_" gradientUnits="userSpaceOnUse" x1="-9814.1328" y1="2488.6968" x2="-9794.2783" y2="2448.989" gradientTransform="matrix(-1 0 0 1 -6719.2798 0)">
					<stop  offset="0" style="stop-color:#53D8FF"/>
					<stop  offset="1" style="stop-color:#3840F7"/>
				</linearGradient>
				<path fill="url(#SVGID_40_)" d="M3024.1,2378c0.1,0,0.2,0,0.3,0c1.3-0.2,2.2-1.4,2.1-2.7l-9.6-76.1c-0.2-1.3-1.3-2.2-2.7-2.1
					c-1.3,0.2-2.2,1.4-2.1,2.7l9.6,76.1C3021.8,2377.1,3022.9,2378,3024.1,2378z"/>
			</g>
			<linearGradient id="SVGID_41_" gradientUnits="userSpaceOnUse" x1="3077.5986" y1="1537.0159" x2="2693.5344" y2="2596.5024">
				<stop  offset="0" style="stop-color:#4F52FF"/>
				<stop  offset="1" style="stop-color:#4042E2"/>
			</linearGradient>
			<path fill="url(#SVGID_41_)" d="M2863,1543.5c0,0,200.2,17.8,171.9,160.4c0,0,110.7,208.2,162.4,453.5c1.7,8-3.7,15.8-11.7,17.1
				l-333.4,57.1c-9.2,1.6-18.1-4.2-20.4-13.2l-79.7-307.8l-31,143.1l-98.6-25.7l83-420.6C2705.4,1607.5,2717,1546.1,2863,1543.5z"/>
			<linearGradient id="SVGID_42_" gradientUnits="userSpaceOnUse" x1="3485.2986" y1="1057.4637" x2="2260.2673" y2="2322.2249">
				<stop  offset="0" style="stop-color:#53D8FF"/>
				<stop  offset="1" style="stop-color:#3840F7"/>
			</linearGradient>
			<path fill="url(#SVGID_42_)" d="M2750.4,1896.8c0.2,0,0.4,0,0.5-0.1c1.3-0.3,2.2-1.6,1.9-3l-27.8-127.6c-0.3-1.3-1.6-2.2-3-1.9
				c-1.3,0.3-2.2,1.6-1.9,3l27.8,127.6C2748.2,1896,2749.2,1896.8,2750.4,1896.8z"/>
			
				<linearGradient id="SVGID_43_" gradientUnits="userSpaceOnUse" x1="-9669.3818" y1="2188.6482" x2="-9420.8174" y2="2188.6482" gradientTransform="matrix(-1 0 0 1 -6719.2798 0)">
				<stop  offset="0" style="stop-color:#FEBBBA"/>
				<stop  offset="1" style="stop-color:#FF928E"/>
			</linearGradient>
			<path fill="url(#SVGID_43_)" d="M2770.5,2276.5c10.5-5.8,22.8-7.4,34.4-4.5l23.2,5.8c4.9,1.2,9.8-2.2,10.4-7.2l24-213.6
				c30,14.3,73.3,12.5,87.6,11.5l-55.2,251.9h-193.3L2770.5,2276.5z"/>
			
				<linearGradient id="SVGID_44_" gradientUnits="userSpaceOnUse" x1="-9440.3242" y1="1877.0593" x2="-8976.1436" y2="1877.0593" gradientTransform="matrix(-1 0 0 1 -6719.2798 0)">
				<stop  offset="0" style="stop-color:#FEBBBA"/>
				<stop  offset="1" style="stop-color:#FF928E"/>
			</linearGradient>
			<path fill="url(#SVGID_44_)" d="M2256.9,1813.1l5.8-19.4c3.4-11.2,11.6-20.2,22.5-24.6l105.7-42.5c0,0,1.6-13.6-22.3-22.8
				c-23.9-9.2-18.3-36-18.3-36s32.7,14.9,80.5,38.6c27.4,13.5,42.7,37.4,50.9,55.4l239.5,291.9l-28.1,19.3
				c-37,25.4-87.8,12.9-108.8-26.7l-129.7-248.8C2389.2,1817.1,2323.3,1820.9,2256.9,1813.1z"/>
			<g>
				
					<linearGradient id="SVGID_45_" gradientUnits="userSpaceOnUse" x1="-9607.4365" y1="1616.7167" x2="-9445.8906" y2="1450.9749" gradientTransform="matrix(-1 0 0 1 -6719.2798 0)">
					<stop  offset="0" style="stop-color:#FEBBBA"/>
					<stop  offset="1" style="stop-color:#FF928E"/>
				</linearGradient>
				<path fill="url(#SVGID_45_)" d="M2798.1,1407.3l61.6,172.3c0,0-54.5,42.6-94.3,28.2l-31-98.8
					C2734.3,1509,2758,1388.3,2798.1,1407.3z"/>
				<g>
					
						<linearGradient id="SVGID_46_" gradientUnits="userSpaceOnUse" x1="-9373.1553" y1="1346.5483" x2="-9574.5625" y2="1612.9935" gradientTransform="matrix(-1 0 0 1 -6719.2798 0)">
						<stop  offset="0" style="stop-color:#FEBBBA"/>
						<stop  offset="1" style="stop-color:#FF928E"/>
					</linearGradient>
					<path fill="url(#SVGID_46_)" d="M2614.4,1345.4c0,2.7,59.3,167.9,59.3,167.9l93.6-35.9l-32.9-165
						C2734.3,1312.4,2614.4,1300.9,2614.4,1345.4z"/>
					
						<linearGradient id="SVGID_47_" gradientUnits="userSpaceOnUse" x1="-9526.9727" y1="1410.8214" x2="-9286.3887" y2="1410.8214" gradientTransform="matrix(-1 0 0 1 -6719.2798 0)">
						<stop  offset="0" style="stop-color:#09005D"/>
						<stop  offset="1" style="stop-color:#1A0F91"/>
					</linearGradient>
					<path fill="url(#SVGID_47_)" d="M2717.9,1352.6l24.1,85.5c0.3,1.1,0.5,2.2,0.5,3.3c0,7-1.7,31-26.2,27.7
						c-22.2-3-42.5-5.3-55.3,0.7c-5.8,2.7-8.6,9.4-6.4,15.4c5.4,15,18.2,48.6,33.7,76.1c3.2,5.6,10.1,7.8,15.9,5.1
						c17.6-8,54.2-25.9,80.3-47.2c3.5-2.9,5.2-7.4,4.4-11.9c-4.1-21.9-16.3-88.4-16.9-107.4c-0.5-17.9,19.6-31.5,28.4-36.7
						c2.9-1.7,5-4.5,5.7-7.7c2.8-11.5,5.1-37.6-28.1-43.3c-7-1.2-11.5-7.9-10.1-14.8c2.8-13.8,1.9-34-24.2-41.5
						c-26.6-7.6-43.3,8.4-51.8,20.7c-3.4,5-9.9,6.6-15.4,4.1c-3.1-1.4-6.9-1.5-11,2c-5.5,4.6-13.8,3.2-17.9-2.7
						c-7.8-11.4-21.8-22.8-45.7-15.1c-42.3,13.7-40.3,62.5-24.8,89c15.5,26.5,60.5,9.1,81.8-8.5c16.2-13.4,40.9-5.4,51.8-0.8
						C2714.3,1346.1,2716.9,1349,2717.9,1352.6z"/>
					
						<linearGradient id="SVGID_48_" gradientUnits="userSpaceOnUse" x1="-9668.1377" y1="1557.552" x2="-9506.5928" y2="1391.8112" gradientTransform="matrix(-1 0 0 1 -6719.2798 0)">
						<stop  offset="0" style="stop-color:#FEBBBA"/>
						<stop  offset="1" style="stop-color:#FF928E"/>
					</linearGradient>
					<path fill="url(#SVGID_48_)" d="M2780.6,1431.2c0,0-25-47.4-8.5-62.2c16.6-14.9,44.6-12.4,43.8,24.6
						C2815,1439.6,2780.6,1431.2,2780.6,1431.2z"/>
				</g>
			</g>
			<linearGradient id="SVGID_49_" gradientUnits="userSpaceOnUse" x1="3618.5442" y1="1186.5284" x2="2393.5129" y2="2451.2896">
				<stop  offset="0" style="stop-color:#53D8FF"/>
				<stop  offset="1" style="stop-color:#3840F7"/>
			</linearGradient>
			<path fill="url(#SVGID_49_)" d="M2930.7,2071.7c13.7,0,23.4-1,24.5-1.2l1.8-0.2l72.9-339.8c0.3-1.3-0.6-2.7-1.9-2.9
				c-1.4-0.3-2.7,0.6-2.9,1.9l-72.1,336.3c-10.8,1-68.8,4.8-99.4-16.9l63.1-295.3l-13.2-24.8c-0.6-1.2-2.1-1.7-3.4-1
				c-1.2,0.6-1.7,2.1-1,3.4l12.3,23.2l-63.4,296.6l1.3,1C2871.3,2068.5,2906.9,2071.7,2930.7,2071.7z"/>
		</g>
		<g>
			<g>
				<path fill="#7D97F4" d="M907.3,3130.5c-1.6,0-3.2-0.4-4.8-1.3c-6.1-3.4-9-12.5-6.3-20.3l253.5-754.2c2.6-7.8,9.7-11.5,15.9-8.1
					c6.1,3.4,9,12.5,6.3,20.3l-253.5,754.2C916.4,3127,912,3130.5,907.3,3130.5z"/>
				<path fill="#7D97F4" d="M1192.9,3130.5c-4.7,0-9.1-3.5-11.1-9.4L928.2,2367c-2.6-7.8,0.2-16.9,6.3-20.3
					c6.1-3.4,13.2,0.2,15.9,8.1l253.5,754.2c2.6,7.8-0.2,16.9-6.3,20.3C1196.1,3130.1,1194.5,3130.5,1192.9,3130.5z"/>
				<path fill="#7D97F4" d="M2627.9,3130.5c-1.6,0-3.2-0.4-4.8-1.3c-6.1-3.4-9-12.5-6.3-20.3l253.5-754.2c2.6-7.8,9.7-11.5,15.9-8.1
					c6.1,3.4,9,12.5,6.3,20.3L2639,3121.1C2637.1,3127,2632.6,3130.5,2627.9,3130.5z"/>
				<path fill="#7D97F4" d="M2913.5,3130.5c-4.7,0-9.1-3.5-11.1-9.4L2648.9,2367c-2.6-7.8,0.2-16.9,6.3-20.3
					c6.1-3.4,13.2,0.2,15.9,8.1l253.5,754.2c2.6,7.8-0.2,16.9-6.3,20.3C2916.8,3130.1,2915.1,3130.5,2913.5,3130.5z"/>
			</g>
			<path fill="#7D97F4" d="M3002.4,2311.1c1.2-4.3-0.4-8.7-4.4-12c-4-3.4-9.9-5.3-16.1-5.3h-2113c-8.2,0-15.8,2.9-20.3,7.7
				c-4.4,4.8-5,10.9-1.6,16.1l22.9,34.5c5.2,7.9,16.6,13,29.1,13h2068.3c11.6,0,21.6-5.7,23.8-13.7L3002.4,2311.1z"/>
		</g>
		<g>
			<path fill="#FFFFFF" d="M2368.3,1434.9c0,0-448-221.3-301.5-384.3c146.5-163,419.6-97.8,433.5,73.7
				C2514.1,1295.8,2181.7,1255.6,2368.3,1434.9z"/>
			<g>
				<path fill="#91B3FA" d="M2100.2,1092.7c0,2.5,2,4.5,4.5,4.5h197.7c2.5,0,4.5-2,4.5-4.5c0-2.5-2-4.5-4.5-4.5h-197.7
					C2102.2,1088.2,2100.2,1090.2,2100.2,1092.7z"/>
				<path fill="#91B3FA" d="M2361.1,1097.2h58.7c2.5,0,4.5-2,4.5-4.5c0-2.5-2-4.5-4.5-4.5h-58.7c-2.5,0-4.5,2-4.5,4.5
					C2356.6,1095.2,2358.6,1097.2,2361.1,1097.2z"/>
				<path fill="#91B3FA" d="M2093.5,1132.7c0,2.5,2,4.5,4.5,4.5h74.2c2.5,0,4.5-2,4.5-4.5s-2-4.5-4.5-4.5h-74.2
					C2095.6,1128.2,2093.5,1130.2,2093.5,1132.7z"/>
				<path fill="#91B3FA" d="M2276.7,1132.7c0,2.5,2,4.5,4.5,4.5h131.9c2.5,0,4.5-2,4.5-4.5s-2-4.5-4.5-4.5h-131.9
					C2278.7,1128.2,2276.7,1130.2,2276.7,1132.7z"/>
				<path fill="#91B3FA" d="M2091.4,1177.3h197.3c2.5,0,4.5-2,4.5-4.5c0-2.5-2-4.5-4.5-4.5h-197.3c-2.5,0-4.5,2-4.5,4.5
					C2086.9,1175.3,2088.9,1177.3,2091.4,1177.3z"/>
				<path fill="#91B3FA" d="M2338.2,1177.3h68.3c2.5,0,4.5-2,4.5-4.5c0-2.5-2-4.5-4.5-4.5h-68.3c-2.5,0-4.5,2-4.5,4.5
					C2333.6,1175.3,2335.7,1177.3,2338.2,1177.3z"/>
			</g>
		</g>
	</g>
	<g>
	</g>
	<g>
	</g>
	<g>
	</g>
	<g>
	</g>
	<g>
	</g>
	<g>
	</g>
	<g>
	</g>
	<g>
	</g>
	<g>
	</g>
	<g>
	</g>
	<g>
	</g>
	<g>
	</g>
	<g>
	</g>
	<g>
	</g>
	<g>
	</g>
</g>
</svg>
