<?xml version="1.0" encoding="utf-8"?>
<!-- Generator: Adobe Illustrator 25.2.1, SVG Export Plug-In . SVG Version: 6.00 Build 0)  -->
<svg version="1.1" xmlns="http://www.w3.org/2000/svg" xmlns:xlink="http://www.w3.org/1999/xlink" x="0px" y="0px"
	 viewBox="0 0 3710 3710" enable-background="new 0 0 3710 3710" xml:space="preserve">
<g id="Background">
</g>
<g id="Illustration">
	<linearGradient id="SVGID_1_" gradientUnits="userSpaceOnUse" x1="3505.6799" y1="3689.0759" x2="1537.6284" y2="1594.0538">
		<stop  offset="0" style="stop-color:#DAE3FE"/>
		<stop  offset="1" style="stop-color:#E9EFFD"/>
	</linearGradient>
	<path fill="url(#SVGID_1_)" d="M2914.8,2848.6c-72.7,74.9-137.7,118.9-187.4,152.1c-485.4,324.1-1040.3,230.7-1211.8,198.8
		c-276.8-51.5-510.4-87.9-711.2-269.2c-456.1-412.1-434-1271.8-85.4-1804.3c41.3-63.1,389.3-579,945.4-651.7
		c13.6-1.8,23.7-2.8,32.6-3.7c86-9.1,619.1-57.2,1053.8,307c62.2,52.1,162.4,146.2,255.2,289.6
		C3345.5,1591.4,3346.6,2403.5,2914.8,2848.6z"/>
	<g>
		<g>
			<path fill="#91B3FA" d="M668,785.2l-135.5,327c-35.9,86.6-30.1,185,15.6,266.8l274.8,491.3c31.2,55.7,44.1,119.8,37.1,183.2
				L829.5,2330c-11.5,103.7,30.6,206,111.6,271.7l0,0c128.6,104.2,316.7,87.4,424.8-38l171.4-198.7c80.3-93.2,97.2-225.4,42.7-335.7
				l-179.6-363.8c-23-46.5-33.7-98-31.3-149.8l24.7-533.8c5.7-123.1-62.9-237.5-174-290.6L1083,626C924.6,550.4,735.2,623,668,785.2
				z"/>
			<g>
				<path fill="#BDD0FB" d="M1181.2,2737.3c-0.8,0.1-1.7,0.1-2.6,0.1c-8.6-0.5-15.2-7.9-14.7-16.5
					c45-801.4-218.1-1638.4-240.1-1680.2c-4.2-5.1-4.9-12.5-1.2-18.4c4.6-7.3,14.3-9.4,21.6-4.8c4.7,3,7.7,4.9,22.9,50
					c7,20.8,18.7,57.1,34.3,112.2c23.6,82.7,59,217.6,94.1,390.7c58.7,289.1,123.5,723.8,99.5,1152.3
					C1194.6,2730.4,1188.6,2736.5,1181.2,2737.3z M927.4,1043.9C927.4,1043.9,927.4,1043.9,927.4,1043.9
					C927.4,1043.9,927.4,1043.9,927.4,1043.9z M927.3,1043.9L927.3,1043.9L927.3,1043.9z"/>
			</g>
		</g>
		<g>
			<path fill="#BDD0FB" d="M1179.1,2385c-56.7-27.2-94.5-82.4-99.3-145.2c-5.2-67-27-139.3-66.2-208.4
				c-102.9-181.3-286.3-271.4-409.8-201.4c-123.4,70-140.1,273.8-37.2,455.1c20,35.2,43,66.9,68,94.8c37.9,42.2,53.3,100,40.4,155.2
				c-12.3,52.5-5.7,109.5,23,160.1c39.2,69,109.8,109,183.7,112.1c43.8,1.9,85.1,19.8,116.1,50.8c87.8,87.9,204.8,119.8,292.5,70
				c112.5-63.8,134.4-237.7,49-388.3C1298.4,2468,1240.6,2414.5,1179.1,2385z"/>
			<linearGradient id="SVGID_2_" gradientUnits="userSpaceOnUse" x1="1144.0762" y1="2711.4724" x2="1705.4415" y2="1975.3109">
				<stop  offset="0" style="stop-color:#DAE3FE"/>
				<stop  offset="1" style="stop-color:#E9EFFD"/>
			</linearGradient>
			<path fill="url(#SVGID_2_)" d="M1439.3,3129c-3,1.3-6.6,0.9-9.2-1.4c-128.9-112.3-276.5-336.2-377.7-504.2
				c-109.4-181.7-189.6-339.1-190.4-340.7c-2.1-4.2-0.5-9.4,3.8-11.5c4.2-2.1,9.4-0.5,11.5,3.8c3.2,6.2,320.3,627.3,564.1,839.7
				c3.6,3.1,3.9,8.5,0.8,12.1C1441.4,3127.8,1440.4,3128.5,1439.3,3129z"/>
		</g>
	</g>
	<g>
		<g>
			<linearGradient id="SVGID_3_" gradientUnits="userSpaceOnUse" x1="1829.3885" y1="-270.6409" x2="1842.8359" y2="3178.2419">
				<stop  offset="0" style="stop-color:#09005D"/>
				<stop  offset="1" style="stop-color:#1A0F91"/>
			</linearGradient>
			<path fill="url(#SVGID_3_)" d="M2740.2,605c-0.4,445.2-3.8,1980.9-30.5,2524.5c-2.8,57.6-43.3,103-92.6,103.8
				c-243.8,3.9-1137.5,7.8-1535.5-20.6c-82.9-5.9-147.2-86-146.7-183.2c2.1-467.3,12.9-1781.4,69.6-2382.3
				c6.8-72,56.5-128.3,118.2-134.2c266-25.2,1164.7-81.2,1508.4-47.5C2693,471.6,2740.3,532.2,2740.2,605z"/>
			
				<linearGradient id="SVGID_4_" gradientUnits="userSpaceOnUse" x1="-1814.4125" y1="-3042.7065" x2="-5504.1533" y2="1677.3821" gradientTransform="matrix(-0.9998 -2.210000e-02 -2.210000e-02 0.9998 -3617.1572 -79.3674)">
				<stop  offset="0" style="stop-color:#FF928E"/>
				<stop  offset="1" style="stop-color:#FE7062"/>
			</linearGradient>
			<path fill="url(#SVGID_4_)" d="M2628.5,739.1c5.2,359.5,20.1,1555.3-2.8,1996.9c-3.3,64.5-48,115.8-103.2,118.4
				c-227.4,10.5-1002.8,27.6-1335.1-10.9c-59.8-6.9-105.6-64.7-107.3-135.1c-8.8-366.8-32.6-1480.5-10.3-1917.2
				c3.6-69.7,51-125.6,110.5-130.5c246.2-20.4,1070.7-63.5,1353.3-39.2C2586.5,626.1,2627.6,676.9,2628.5,739.1z"/>
			<g opacity="0.17">
				<path fill="#FFFFFF" d="M2527.5,797.1c4.6,318.3,17.8,1377.3-2.5,1768.3c-3,57.2-42.5,102.5-91.4,104.8
					c-201.4,9.3-888,24.5-1182.3-9.7c-53-6.2-93.6-57.3-95-119.6c-7.8-324.8-28.9-1311.1-9.1-1697.7c3.1-61.7,45.1-111.2,97.8-115.5
					c218-18,948.2-56.3,1198.4-34.7C2490.3,697,2526.7,742,2527.5,797.1z"/>
			</g>
			<path opacity="0.42" fill="#91B3FA" d="M2139.4,532.4L2139.4,532.4c-0.3,13.7-9.6,24.7-21.3,25.2c-57.6,2.3-219.9,8.6-292.5,11.9
				c-14.3,0.7-25.2-14.6-22.1-31l0.5-2.8c2.1-11.2,10.2-19.4,20-20.3c49.1-4.2,197.2-15.4,295-9.2
				C2130.7,507.1,2139.7,518.7,2139.4,532.4z"/>
		</g>
	</g>
	<g>
		<g>
			<path fill="#91B3FA" d="M1666,1745.1c34-66,97.1-112.5,170.5-120.8l5.1-322.6c-210.8,0.2-397.1,131.8-482,327L1666,1745.1z"/>
			<path fill="#7D97F4" d="M2072.4,1888.6c-17.3,105.9-104,189.1-210.4,192.8c-31.7,1.1-62-5-89.6-17l-166.2,285.9
				c77.3,38.8,164.5,57.7,255.8,51.9c265.1-17,473.2-238.8,496.3-505.7L2072.4,1888.6z"/>
			<linearGradient id="SVGID_5_" gradientUnits="userSpaceOnUse" x1="2148.5708" y1="1032.521" x2="278.8592" y2="3618.2947">
				<stop  offset="0" style="stop-color:#4F52FF"/>
				<stop  offset="1" style="stop-color:#4042E2"/>
			</linearGradient>
			<path fill="url(#SVGID_5_)" d="M1554.2,2320.2l167.8-286.8c-50.2-41.3-82.4-105.6-82.4-178.5c0-17.6,1.9-34.8,5.5-51.3
				l-307.6-115c-16.5,53.8-25.5,111-25.5,170.3C1312,2055.4,1409,2224.5,1554.2,2320.2z"/>
		</g>
		<g>
			<path fill="#BDD0FB" d="M1894.5,1625.8c96.8,16.2,171.3,99.8,180.1,202.9l467.4,15.7c0-0.2,0-0.4,0-0.7
				c0-381.4-273-708.6-639.1-751.8L1894.5,1625.8z"/>
		</g>
	</g>
	<g>
		
			<linearGradient id="SVGID_6_" gradientUnits="userSpaceOnUse" x1="5933.4629" y1="1714.6866" x2="5869.9751" y2="1804.2612" gradientTransform="matrix(-1 0 0 1 8418.6396 0)">
			<stop  offset="0" style="stop-color:#FEBBBA"/>
			<stop  offset="1" style="stop-color:#FF928E"/>
		</linearGradient>
		<path fill="url(#SVGID_6_)" d="M2504.9,1765c0,0,8.9-16.1,8-29.1c-1-13,7.1-32-1.5-30.6s-10.4,0.3-12.7,15.8
			C2496.3,1736.7,2475.3,1794.1,2504.9,1765z"/>
		<g>
			
				<linearGradient id="SVGID_7_" gradientUnits="userSpaceOnUse" x1="-5721.0073" y1="3153.6599" x2="-6187.0996" y2="3519.637" gradientTransform="matrix(1 0 0 1 8793.9688 0)">
				<stop  offset="0" style="stop-color:#09005D"/>
				<stop  offset="1" style="stop-color:#1A0F91"/>
			</linearGradient>
			<path fill="url(#SVGID_7_)" d="M2920.5,3247.1c-31.3-0.9-47.6-4.6-55.9-8c0,3.1,0,6.3,0.1,9.6c0.1,3.5,2.7,6.3,5.9,6.3l172.1-1.1
				c5.5,0,8.7-6.4,6.3-11.4C3026.4,3244.3,2968.9,3248.5,2920.5,3247.1z"/>
			<linearGradient id="SVGID_8_" gradientUnits="userSpaceOnUse" x1="2953.73" y1="3181.9893" x2="2906.6697" y2="2193.7173">
				<stop  offset="0" style="stop-color:#09005D"/>
				<stop  offset="1" style="stop-color:#1A0F91"/>
			</linearGradient>
			<path fill="url(#SVGID_8_)" d="M2871.9,3181.1c3.9-14,16.9-23.5,31.4-23l14.4,0.5c76.5,18.3,115.2,60.6,130.4,81.9
				c0.3,0.4,0.5,0.9,0.7,1.3c-22.6,1.9-80,6-128.5,4.7c-31.3-0.9-47.6-4.6-55.9-8C2864.4,3213.9,2868,3194.7,2871.9,3181.1z"/>
		</g>
		
			<linearGradient id="SVGID_9_" gradientUnits="userSpaceOnUse" x1="5510.4937" y1="3053.4971" x2="5486.021" y2="3267.0769" gradientTransform="matrix(-1 0 0 1 8418.6396 0)">
			<stop  offset="0" style="stop-color:#FEBBBA"/>
			<stop  offset="1" style="stop-color:#FF928E"/>
		</linearGradient>
		<path fill="url(#SVGID_9_)" d="M2941.8,3109.2l-12,57.9c-0.9,4.2-4.1,7.4-8.1,7.8c-4.8,0.5-11.7,0.7-18.6-0.3
			c-6.2-0.9-10.5-7.2-9.4-14l8.4-51.4H2941.8z"/>
		<g>
			
				<linearGradient id="SVGID_10_" gradientUnits="userSpaceOnUse" x1="5878.3975" y1="3153.6599" x2="5412.3062" y2="3519.636" gradientTransform="matrix(-1 0 0 1 8418.6396 0)">
				<stop  offset="0" style="stop-color:#09005D"/>
				<stop  offset="1" style="stop-color:#1A0F91"/>
			</linearGradient>
			<path fill="url(#SVGID_10_)" d="M2692.8,3247.1c31.3-0.9,47.6-4.6,55.9-8c0,3.1,0,6.3-0.1,9.6c-0.1,3.5-2.7,6.3-5.9,6.3
				l-172.1-1.1c-5.5,0-8.7-6.4-6.3-11.4C2586.8,3244.3,2644.3,3248.5,2692.8,3247.1z"/>
			<linearGradient id="SVGID_11_" gradientUnits="userSpaceOnUse" x1="2654.4636" y1="3196.24" x2="2607.4031" y2="2207.9639">
				<stop  offset="0" style="stop-color:#09005D"/>
				<stop  offset="1" style="stop-color:#1A0F91"/>
			</linearGradient>
			<path fill="url(#SVGID_11_)" d="M2564.3,3242.4c0.2-0.4,0.4-0.9,0.7-1.3c15.2-21.2,53.9-63.5,130.4-81.9l36.7-1.2
				c0,0,16.3,28.4,16.6,81c-8.4,3.4-24.6,7.1-55.9,8C2644.3,3248.5,2586.8,3244.3,2564.3,3242.4z"/>
		</g>
		
			<linearGradient id="SVGID_12_" gradientUnits="userSpaceOnUse" x1="5709.8408" y1="3076.3391" x2="5685.3682" y2="3289.918" gradientTransform="matrix(-1 0 0 1 8418.6396 0)">
			<stop  offset="0" style="stop-color:#FEBBBA"/>
			<stop  offset="1" style="stop-color:#FF928E"/>
		</linearGradient>
		<path fill="url(#SVGID_12_)" d="M2738.8,3102.5c-0.4,2.7-5.4,44.3-7.4,60.4c-0.5,3.8-3.2,6.8-6.7,7.2c-6.2,0.7-16.4,1.4-25.2-0.4
			c-4.8-1-8.2-5.6-8.2-10.9v-65.3L2738.8,3102.5z"/>
		<linearGradient id="SVGID_13_" gradientUnits="userSpaceOnUse" x1="2838.4697" y1="2753.2842" x2="3564.5486" y2="1838.9624">
			<stop  offset="0" style="stop-color:#09005D"/>
			<stop  offset="1" style="stop-color:#1A0F91"/>
		</linearGradient>
		<path fill="url(#SVGID_13_)" d="M2768.3,2343.9c0,0-88.5,336.4-86.9,759.6c0,7.7,5.4,14.4,13,16c11.1,2.3,27.5,5.1,41,4.7
			c7.2-0.2,13.3-5.6,14.5-12.7c12.4-72.8,83.6-482.8,124.2-549.3c0,0,26.7,365.1,18.2,554.6c-0.2,4.7,3.2,8.8,7.9,9.3
			c7.1,0.8,18.5,1.4,32.9-0.1c5.5-0.6,9.9-4.7,10.7-10.2c8.8-61.6,59.7-428.2,57.6-692.3c-0.1-14.9-39.4-79.6-39.4-79.6H2768.3z"/>
		
			<linearGradient id="SVGID_14_" gradientUnits="userSpaceOnUse" x1="5373.2065" y1="1967.8647" x2="5459.0205" y2="1721.4958" gradientTransform="matrix(-1 0 0 1 8418.6396 0)">
			<stop  offset="0" style="stop-color:#53D8FF"/>
			<stop  offset="1" style="stop-color:#3840F7"/>
		</linearGradient>
		<path fill="url(#SVGID_14_)" d="M3044.2,2051.3c24.1-65.8,15.3-145.3,15.2-146.1l-6.6,0.8c0.1,0.8,8.6,78.8-14.9,143.1
			L3044.2,2051.3z"/>
		<g>
			<linearGradient id="SVGID_15_" gradientUnits="userSpaceOnUse" x1="2517.5483" y1="1874.0638" x2="2967.9863" y2="1457.2412">
				<stop  offset="0" style="stop-color:#FEBBBA"/>
				<stop  offset="1" style="stop-color:#FF928E"/>
			</linearGradient>
			<path fill="url(#SVGID_15_)" d="M2427.5,2078.9c-19.9-108.1,8.6-286.1,8.6-286.1l38.8,40.2c0,0,6.6,145.4,34.2,205.5
				C2491,2040.7,2455.7,2048.8,2427.5,2078.9z"/>
			<linearGradient id="SVGID_16_" gradientUnits="userSpaceOnUse" x1="2980.6304" y1="1944.6768" x2="2448.8289" y2="2536.9673">
				<stop  offset="0" style="stop-color:#4F52FF"/>
				<stop  offset="1" style="stop-color:#4042E2"/>
			</linearGradient>
			<path fill="url(#SVGID_16_)" d="M2509.1,2038.5c5.2,11.4,11.2,19.7,18,23.4c25,13.7,73.4-64.5,109.5-132.3
				c26-48.7,45.6-92,45.6-92c26-29.3,90.2-33.3,150-29.6c62.2,3.9,119.5,16.1,123.7,17c0.2,0,0.2,0,0.2,0
				c28.7,3.8,53.5,6.9,71.5,9.2c21,2.7,40.2,13,54.1,29.1c54.9,63.6,175.5,237.7,33.6,413.1c-18.1-10.1-44-26.2-61.5-45
				c15.7-44.3,17-100.8-15.9-170.2c-1.1,5.5-2.5,11-4.2,16.3c-45.4,143.7-47.8,263.3-47.7,290.8c0,3.8-2.2,7.1-5.7,8.5
				c-59.7,23.9-174.6,9.7-213.1,3.9c-7.1-1-11.8-7.6-10.9-14.7c11.5-83.3-19.9-199.4-52-290.2c-188.6,186.9-256,116.3-276.8,3
				C2455.7,2048.8,2491,2040.7,2509.1,2038.5z"/>
		</g>
		
			<linearGradient id="SVGID_17_" gradientUnits="userSpaceOnUse" x1="5303.3027" y1="2349.6877" x2="5519.9785" y2="2349.6877" gradientTransform="matrix(-1 0 0 1 8418.6396 0)">
			<stop  offset="0" style="stop-color:#FEBBBA"/>
			<stop  offset="1" style="stop-color:#FF928E"/>
		</linearGradient>
		<path fill="url(#SVGID_17_)" d="M2948.4,2352.1c16.4-9.2,79.9-48.6,105.4-120.6c17.5,18.7,43.3,34.9,61.5,45
			c-27.1,33.5-63.8,67.1-112.4,100l0,0c-1.7,37.4-30.5,51.2-37,63.3c-6.6,12.1,2.8,9.3-1.4,24.6c-4.2,15.2-47.8-24.2-58.1-33.2
			c-10.4-9-4.2-33.9-4.2-33.9s-0.7-5.2-3.5-15.6C2896,2371.3,2948.2,2352.2,2948.4,2352.1z"/>
		<g>
			
				<linearGradient id="SVGID_18_" gradientUnits="userSpaceOnUse" x1="5564.5586" y1="1685.6826" x2="5471.1177" y2="2089.4807" gradientTransform="matrix(-1 0 0 1 8418.6396 0)">
				<stop  offset="0" style="stop-color:#FEBBBA"/>
				<stop  offset="1" style="stop-color:#FF928E"/>
			</linearGradient>
			<path fill="url(#SVGID_18_)" d="M2924.7,1717.1l11.5,117.5c0,0-66.1,19.9-114.2-14l33.8-106.8L2924.7,1717.1z"/>
			<g>
				
					<linearGradient id="SVGID_19_" gradientUnits="userSpaceOnUse" x1="4109.3281" y1="1146.6547" x2="3943.5635" y2="1365.9481" gradientTransform="matrix(-0.9332 -0.3594 -0.3594 0.9332 7089.4023 2036.3817)">
					<stop  offset="0" style="stop-color:#FEBBBA"/>
					<stop  offset="1" style="stop-color:#FF928E"/>
				</linearGradient>
				<path fill="url(#SVGID_19_)" d="M2812.5,1617c-0.8,2-4.1,146.5-4.1,146.5l82.5,0.1l23.5-136.4
					C2914.4,1627.2,2825.6,1582.8,2812.5,1617z"/>
				
					<linearGradient id="SVGID_20_" gradientUnits="userSpaceOnUse" x1="3982.7314" y1="1199.3179" x2="4180.7417" y2="1199.3179" gradientTransform="matrix(-0.9332 -0.3594 -0.3594 0.9332 7089.4023 2036.3817)">
					<stop  offset="0" style="stop-color:#09005D"/>
					<stop  offset="1" style="stop-color:#1A0F91"/>
				</linearGradient>
				<path fill="url(#SVGID_20_)" d="M2886.1,1644.2c2.7,2.5,4,6.1,3.7,9.8l-6.6,71.7c-0.1,1.1-0.3,2.1-0.7,3.2
					c-2.2,5.6-10.6,22.9-28.2,13.3c-15-8.2-28.8-15.5-40.1-15.9c-6.6-0.2-12,5.1-12.1,11.7c-0.3,13.6-0.2,40.9,3.2,65.2
					c0.9,6.1,6.3,10.5,12.5,10.1c16.2-1,47.8-4,73.2-12.1c4.2-1.3,7.2-4.8,8-9.2c3.5-18.9,13.5-72,18.6-86.5
					c4.8-13.5,23.3-18.2,32-19.7c3.3-0.6,6.2-2.4,8-5.2c5.5-8.4,13.4-26.4-8.4-40.1c-5.4-3.4-7-10.6-3.7-16.1
					c5.9-9.8,10.1-24.9-7.1-37.9c-17.4-13.1-34.3-6.9-44.6-0.3c-4.6,2.9-10.7,2.7-14.8-0.9c-1.8-1.6-4.3-2.5-7.6-1.7
					c-6.3,1.6-12.6-1.8-14.2-8.1c-2.8-10.8-10.4-22.9-30.3-24c-36.5-2-49.4,36.1-45.3,61c4.1,25,43.8,24.9,65.4,17.7
					C2862.7,1624.9,2878.7,1637.3,2886.1,1644.2z"/>
				
					<linearGradient id="SVGID_21_" gradientUnits="userSpaceOnUse" x1="3866.5454" y1="1320.3186" x2="3999.5044" y2="1183.9062" gradientTransform="matrix(-0.9332 -0.3594 -0.3594 0.9332 7089.4023 2036.3817)">
					<stop  offset="0" style="stop-color:#FEBBBA"/>
					<stop  offset="1" style="stop-color:#FF928E"/>
				</linearGradient>
				<path fill="url(#SVGID_21_)" d="M2914.7,1732c0,0-5.2-43.8,11.9-50.3c17.1-6.5,37.9,3.6,26.4,31.9
					C2938.7,1748.7,2914.7,1732,2914.7,1732z"/>
			</g>
		</g>
		<g>
			<linearGradient id="SVGID_22_" gradientUnits="userSpaceOnUse" x1="2794.0535" y1="1979.3918" x2="3560.4692" y2="1723.9208">
				<stop  offset="0" style="stop-color:#09005D"/>
				<stop  offset="1" style="stop-color:#1A0F91"/>
			</linearGradient>
			<path fill="url(#SVGID_22_)" d="M2702.9,2072c0.1,0,0.2,0,0.3,0c1.1-0.1,1.9-1.2,1.8-2.3c-0.1-0.9-11.3-91.7-5.2-117.8
				c0.3-1.1-0.4-2.2-1.6-2.5c-1.1-0.3-2.2,0.4-2.5,1.6c-6.2,26.9,4.7,115.5,5.2,119.3C2701,2071.2,2701.9,2072,2702.9,2072z"/>
		</g>
		<g>
			
				<linearGradient id="SVGID_23_" gradientUnits="userSpaceOnUse" x1="6006.2217" y1="1664.9678" x2="5783.854" y2="1978.7053" gradientTransform="matrix(-1 0 0 1 8418.6396 0)">
				<stop  offset="0" style="stop-color:#09005D"/>
				<stop  offset="1" style="stop-color:#1A0F91"/>
			</linearGradient>
			<path fill="url(#SVGID_23_)" d="M2439.9,1668.7c0.1-2.4,1.3-4.7,3.2-6.2c1.9-1.5,4.4-2,6.8-1.5l59.4,13.5c2.3,0.5,3.8,2.7,3.6,5
				l-17.3,154.3c-0.1,0.7-0.4,1.3-0.9,1.7c-0.5,0.4-1.2,0.6-1.9,0.5l-51.8-6.3c-4.2-0.5-7.4-4.2-7.2-8.5L2439.9,1668.7z"/>
			<path fill="#91B3FA" d="M2456.6,1677.6c0.1-1.4,0.8-2.7,1.9-3.5c1.1-0.8,2.5-1.1,3.9-0.8l39,9.8c2.3,0.6,3.7,2.7,3.5,5
				l-14.8,131.4c-0.1,0.7-0.4,1.3-1,1.7c-0.6,0.4-1.3,0.6-1.9,0.5l-36-6.4c-1.2-0.2-2.1-1.3-2.1-2.6L2456.6,1677.6z"/>
		</g>
		<linearGradient id="SVGID_24_" gradientUnits="userSpaceOnUse" x1="2757.2056" y1="1744.9479" x2="2205.926" y2="1744.9479">
			<stop  offset="0" style="stop-color:#FEBBBA"/>
			<stop  offset="0.5304" style="stop-color:#FEB9B8"/>
			<stop  offset="0.7214" style="stop-color:#FEB3B1"/>
			<stop  offset="0.8575" style="stop-color:#FEA8A6"/>
			<stop  offset="0.9668" style="stop-color:#FF9895"/>
			<stop  offset="1" style="stop-color:#FF928E"/>
		</linearGradient>
		<path fill="url(#SVGID_24_)" d="M2419.3,1707.9c9.6-3.5,28.4-36,31.9-25.3c3.6,10.7-1.5,25.3,0,29.9c1.5,4.5,11.9,29.8,7.2,41.4
			c-3.4,8.4-8.9,34.2-11.8,47.9c-0.9,4.5-4.9,7.8-9.6,7.8c-4.6,0-8.7-3.3-9.6-7.8C2427.1,1799.9,2409.7,1711.4,2419.3,1707.9z"/>
	</g>
	<g>
		<g>
			<g opacity="0.74">
				<path fill="#FFFFFF" d="M1696.3,922.7c-1.6,0.6-3.5,0.1-4.5-1.4c-2.6-4-5.4-8-8.3-11.9c-1.2-1.6-0.9-3.9,0.7-5.2
					c1.6-1.2,3.9-0.9,5.2,0.7c3,4,5.9,8.1,8.6,12.3c1.1,1.7,0.6,4-1.1,5.1C1696.7,922.5,1696.5,922.6,1696.3,922.7z"/>
				<path fill="#FFFFFF" d="M1622.5,1208.4c-1.7,0.7-3.7,0-4.6-1.7c-1-1.8-0.3-4,1.5-5c9.1-4.9,17.8-10.5,26-16.7
					c1.6-1.2,3.9-0.9,5.2,0.7c1.2,1.6,0.9,3.9-0.7,5.2c-8.5,6.5-17.6,12.3-27,17.4C1622.8,1208.3,1622.7,1208.3,1622.5,1208.4z
					 M1574.8,1226.7c-0.2,0.1-0.3,0.1-0.5,0.2c-10.4,2.5-21.1,4.3-31.7,5.2c-2,0.2-3.8-1.3-4-3.4c-0.2-2,1.3-3.8,3.4-4
					c10.2-0.8,20.5-2.5,30.5-5c2-0.5,4,0.7,4.5,2.7C1577.5,1224.2,1576.5,1226,1574.8,1226.7z M1685.4,1155.4
					c-1.2,0.5-2.6,0.3-3.6-0.5c-1.6-1.3-1.9-3.6-0.6-5.2c6.3-8.1,12.1-16.8,17.1-25.8c1-1.8,3.2-2.4,5-1.4c1.8,1,2.4,3.2,1.4,5
					c-5.2,9.3-11.2,18.3-17.7,26.7C1686.5,1154.8,1686,1155.2,1685.4,1155.4z M1721.8,1081.7c-0.7,0.3-1.5,0.3-2.3,0.1
					c-2-0.5-3.1-2.5-2.6-4.5c2.6-10,4.4-20.2,5.4-30.5c0.2-2,2-3.5,4-3.3c2,0.2,3.5,2,3.3,4c-1,10.6-2.9,21.2-5.6,31.6
					C1723.7,1080.4,1722.9,1081.3,1721.8,1081.7z M1725.6,999.6c-0.2,0.1-0.5,0.2-0.8,0.2c-2,0.3-3.9-1-4.2-3
					c-1.4-8.4-3.3-16.9-5.8-25.2c-0.5-1.6-1-3.3-1.5-4.9c-0.6-1.9,0.4-4,2.4-4.6c1.9-0.6,4,0.4,4.6,2.4c0.6,1.7,1.1,3.4,1.6,5.1
					c2.6,8.6,4.6,17.3,6,26.1C1728.2,997.3,1727.2,998.9,1725.6,999.6z"/>
				<path fill="#FFFFFF" d="M1492.4,1229.4c-0.6,0.2-1.3,0.3-2,0.2c-4.9-0.9-9.8-1.9-14.6-3.1c-2-0.5-3.2-2.5-2.7-4.5
					c0.5-2,2.5-3.2,4.5-2.7c4.7,1.2,9.4,2.2,14.1,3c2,0.4,3.3,2.3,3,4.3C1494.4,1227.9,1493.5,1228.9,1492.4,1229.4z"/>
			</g>
			<g opacity="0.74">
				<path fill="#FFFFFF" d="M1357,1138.2c-1.6,0.6-3.5,0.1-4.5-1.5c-2.6-4.2-5.2-8.6-7.5-13c-1-1.8-0.3-4,1.5-5c1.9-1,4-0.3,5,1.5
					c2.2,4.2,4.7,8.5,7.2,12.5c1.1,1.7,0.6,4-1.2,5.1C1357.4,1138,1357.2,1138.1,1357,1138.2z"/>
				<path fill="#FFFFFF" d="M1331.9,1078.4c-0.2,0.1-0.3,0.1-0.5,0.2c-2,0.5-4-0.7-4.4-2.7c-2.5-10.2-4.2-20.7-5-31.1
					c-0.2-2,1.3-3.8,3.4-4c2-0.2,3.8,1.3,4,3.4c0.8,10.1,2.5,20.2,4.8,30C1334.5,1075.9,1333.5,1077.7,1331.9,1078.4z M1329.1,997.6
					c-0.6,0.2-1.3,0.3-2,0.2c-2-0.3-3.4-2.2-3-4.3c1.8-10.3,4.4-20.6,7.7-30.6c0.6-1.9,2.7-3,4.7-2.3c1.9,0.6,3,2.7,2.3,4.7
					c-3.2,9.6-5.7,19.5-7.4,29.5C1331.2,996.1,1330.3,997.1,1329.1,997.6z M1358.6,922.2c-1.1,0.4-2.3,0.3-3.4-0.3
					c-1.7-1.1-2.2-3.4-1.1-5.1c5.7-8.8,12.1-17.3,19.1-25.1c1.4-1.5,3.7-1.6,5.2-0.3c1.5,1.4,1.6,3.7,0.3,5.2
					c-6.7,7.6-12.9,15.7-18.4,24.2C1359.9,921.5,1359.3,922,1358.6,922.2z M1520.9,830.6c-0.4,0.2-0.8,0.2-1.2,0.3
					c-10.1,0.3-20.3,1.5-30.2,3.3c-2,0.4-3.9-0.9-4.3-2.9c-0.4-2,0.9-3.9,2.9-4.3c10.3-2,20.9-3.1,31.4-3.5c2-0.1,3.7,1.5,3.8,3.6
					C1523.3,828.6,1522.3,830,1520.9,830.6z M1415.2,864.6c-1.6,0.6-3.4,0.1-4.4-1.4c-1.1-1.7-0.7-4,1-5.1
					c8.7-5.8,18-11.1,27.5-15.5c1.7-0.8,4-0.1,4.9,1.8c0.9,1.8,0.1,4-1.8,4.9c-9.2,4.3-18.1,9.3-26.5,14.9
					C1415.7,864.3,1415.5,864.5,1415.2,864.6z"/>
				<path fill="#FFFFFF" d="M1585.4,839.1c-0.7,0.3-1.6,0.4-2.4,0.1c-4.6-1.4-9.3-2.6-14-3.7c-2-0.4-3.2-2.4-2.8-4.4
					c0.4-2,2.4-3.2,4.4-2.8c4.8,1.1,9.7,2.4,14.5,3.8c1.9,0.6,3,2.6,2.4,4.6C1587.2,837.9,1586.4,838.7,1585.4,839.1z"/>
			</g>
			<g>
				
					<linearGradient id="SVGID_25_" gradientUnits="userSpaceOnUse" x1="5428.1533" y1="-1050.046" x2="5738.6895" y2="-1050.046" gradientTransform="matrix(-0.2068 -0.9784 0.9784 -0.2068 3708.3235 6275.2163)">
					<stop  offset="0" style="stop-color:#4042E2"/>
					<stop  offset="1" style="stop-color:#4F52FF"/>
				</linearGradient>
				<path fill="url(#SVGID_25_)" d="M1588.8,887.1c-0.9-0.5-2-0.4-2.8,0.3l-22.2,19.2c-13.1-4-26.9-6-41-5.6l-16.3-24.4
					c-0.6-0.9-1.6-1.3-2.6-1l-34,9c-1,0.3-1.7,1.1-1.8,2.2l-2.2,29.3c-12.5,6.6-23.5,15.2-32.9,25.1l-28.8-5.7c-1-0.2-2,0.3-2.6,1.2
					l-17.7,30.4c-0.5,0.9-0.4,2,0.3,2.8l19.2,22.2c-4,13.1-6,26.9-5.6,41l-24.4,16.3c-0.9,0.6-1.3,1.6-1,2.6l9,34
					c0.3,1,1.1,1.7,2.2,1.8l29.3,2.2c6.6,12.5,15.2,23.5,25.1,32.9l-5.7,28.8c-0.2,1,0.3,2,1.2,2.6l30.4,17.7c0.9,0.5,2,0.4,2.8-0.3
					l22.2-19.2c13.1,4,26.9,6,41,5.6l16.3,24.4c0.6,0.9,1.6,1.3,2.6,1l34-9c1-0.3,1.7-1.1,1.8-2.2l2.2-29.3
					c12.5-6.6,23.5-15.2,32.9-25.1l28.8,5.7c1,0.2,2-0.3,2.6-1.2l17.7-30.4c0.5-0.9,0.4-2-0.3-2.8l-19.2-22.2c4-13.1,6-26.9,5.6-41
					l24.4-16.3c0.9-0.6,1.3-1.6,1-2.6l-9-34c-0.3-1-1.1-1.7-2.2-1.8l-29.3-2.2c-6.6-12.5-15.2-23.5-25.1-32.9l5.7-28.8
					c0.2-1-0.3-2-1.2-2.6L1588.8,887.1z"/>
				<g>
					<path fill="#BDD0FB" d="M1539.8,1063.8c-7.5,3-15.8,3.4-23.7,1.1c-9.4-2.7-17.3-8.9-22-17.5c-9.8-17.7-3.4-40.2,14.4-50l0,0
						c17.8-9.8,40.2-3.4,50,14.4c9.8,17.7,3.4,40.2-14.4,50C1542.7,1062.5,1541.3,1063.2,1539.8,1063.8z M1513.8,1007
						c-6,3.3-10.4,8.8-12.3,15.4c-1.9,6.6-1.1,13.6,2.2,19.6c6.9,12.4,22.6,16.9,35,10c12.4-6.9,16.9-22.6,10-35
						C1542,1004.7,1526.2,1000.1,1513.8,1007L1513.8,1007z"/>
				</g>
				<path fill="#BDD0FB" d="M1559.5,1114.3c-3.3,1.3-6.8,2.5-10.4,3.4c-44.7,11.8-90.5-12.1-107.2-54c-1.3-3.3-2.5-6.8-3.4-10.4
					c-12.7-48.2,16.1-97.8,64.4-110.6l0,0c5.8-1.5,11.8-2.5,17.8-2.9c0.4,0,0.8,0,1.2-0.1l0.5,11c-5.6,0.3-11.2,1.1-16.7,2.6l0,0
					c-27.9,7.4-48.4,28.8-56,54.6c-3.8,13-4.3,27.1-0.9,41c0,0.1,0,0.2,0.1,0.2c0.1,0.4,0.2,0.8,0.3,1.2c0.8,3.1,1.8,6.2,3,9.1
					c14.6,36.8,54.9,57.8,94.1,47.4c42.3-11.2,67.7-54.7,56.5-97.1c-0.8-3.1-1.8-6.1-3-9.1c-4.1-10.3-10.3-19.7-18.3-27.5l7.7-7.9
					c9.1,8.9,16.2,19.6,20.9,31.3c1.3,3.4,2.5,6.8,3.4,10.3C1625.3,1051.8,1601.4,1097.6,1559.5,1114.3z"/>
			</g>
		</g>
		<g>
			
				<linearGradient id="SVGID_26_" gradientUnits="userSpaceOnUse" x1="5358.8555" y1="-1468.8531" x2="5398.106" y2="-1177.7471" gradientTransform="matrix(-0.2068 -0.9784 0.9784 -0.2068 3708.3235 6275.2163)">
				<stop  offset="0" style="stop-color:#4042E2"/>
				<stop  offset="1" style="stop-color:#4F52FF"/>
			</linearGradient>
			<path fill="url(#SVGID_26_)" d="M1363.7,1191.9l-11.6,11.7c-7.5-1.7-15.3-2.1-23.2-1.3l-10.2-12.9c-0.4-0.5-1-0.6-1.5-0.4
				l-18.6,6.5c-0.5,0.2-0.9,0.7-0.9,1.3l0.1,16.4c-6.7,4.3-12.5,9.5-17.3,15.5l-16.3-1.9c-0.6-0.1-1.1,0.2-1.4,0.8l-8.5,17.8
				c-0.2,0.5-0.1,1.1,0.3,1.5l11.7,11.6c-1.7,7.5-2.1,15.3-1.3,23.2l-12.9,10.2c-0.5,0.4-0.6,1-0.4,1.5l6.5,18.6
				c0.2,0.5,0.7,0.9,1.3,0.9l16.4-0.1c4.3,6.7,9.5,12.5,15.5,17.3l-1.9,16.3c-0.1,0.6,0.2,1.1,0.8,1.4l17.8,8.5
				c0.5,0.2,1.1,0.1,1.5-0.3l11.6-11.7c7.5,1.7,15.3,2.1,23.2,1.3l10.2,12.9c0.4,0.5,1,0.6,1.5,0.4l18.6-6.5
				c0.5-0.2,0.9-0.7,0.9-1.3l-0.1-16.4c6.7-4.3,12.5-9.5,17.3-15.5l16.3,1.9c0.6,0.1,1.1-0.2,1.4-0.8l8.5-17.8
				c0.2-0.5,0.1-1.1-0.3-1.5l-11.7-11.6c1.7-7.5,2.1-15.3,1.3-23.2l12.9-10.2c0.5-0.4,0.6-1,0.4-1.5l-6.5-18.6
				c-0.2-0.5-0.7-0.9-1.3-0.9l-16.4,0.1c-4.3-6.7-9.5-12.5-15.5-17.3l1.9-16.3c0.1-0.6-0.2-1.1-0.8-1.4l-17.8-8.5
				C1364.8,1191.4,1364.2,1191.5,1363.7,1191.9z"/>
			<g>
				<path fill="#BDD0FB" d="M1345.2,1295.4c-9.9,3.9-21.6,0.5-27.7-8.7c-7-10.6-4.1-24.9,6.5-31.9c10.6-7,24.9-4.1,31.9,6.5
					c7,10.6,4.1,24.9-6.5,31.9C1348.1,1294.1,1346.6,1294.8,1345.2,1295.4z M1332.3,1262.8c-0.8,0.3-1.5,0.7-2.2,1.1
					c-5.5,3.7-7,11.1-3.4,16.6c3.7,5.5,11.1,7,16.6,3.4c5.5-3.7,7-11.1,3.4-16.6C1343.5,1262.5,1337.4,1260.8,1332.3,1262.8z"/>
			</g>
			<g>
				<path fill="#FFFFFF" d="M1411.7,1201.5c-1.3,0.5-2.9,0.3-3.9-0.8c-3.4-3.3-7-6.4-10.8-9.2c-1.6-1.2-2-3.5-0.8-5.1
					c1.2-1.6,3.5-2,5.1-0.8c4.1,3,8,6.3,11.6,9.8c1.5,1.4,1.5,3.8,0.1,5.2C1412.6,1201.1,1412.2,1201.3,1411.7,1201.5z"/>
				<path fill="#FFFFFF" d="M1406.5,1358.1c-1.4,0.6-3.1,0.2-4.2-1c-1.3-1.6-1.1-3.9,0.4-5.2c8.3-7,15.4-15.3,21-24.5
					c1.1-1.7,3.3-2.3,5.1-1.2c1.7,1.1,2.3,3.3,1.2,5.1c-6.1,9.9-13.6,18.7-22.5,26.3C1407.2,1357.7,1406.8,1357.9,1406.5,1358.1z
					 M1443.7,1281c-0.5,0.2-1,0.3-1.5,0.3c-2-0.1-3.6-1.8-3.6-3.8c0.4-10.9-1-21.6-4-32c-0.6-2,0.6-4,2.5-4.6c2-0.6,4,0.5,4.6,2.5
					c3.3,11.1,4.7,22.7,4.3,34.3C1446,1279.2,1445.1,1280.5,1443.7,1281z"/>
				<path fill="#FFFFFF" d="M1357.7,1381.3c-0.2,0.1-0.4,0.2-0.7,0.2c-5,0.9-10.1,1.5-15.1,1.8c-2,0.1-3.8-1.5-3.8-3.5
					c-0.1-2,1.5-3.7,3.5-3.8c4.7-0.2,9.5-0.8,14.1-1.6c2-0.4,3.9,0.9,4.3,2.9C1360.3,1379,1359.3,1380.7,1357.7,1381.3z"/>
			</g>
			<g>
				<path fill="#FFFFFF" d="M1268.6,1357.2c-1.2,0.5-2.7,0.3-3.8-0.6c-3.8-3.3-7.4-6.9-10.8-10.8c-1.3-1.5-1.2-3.9,0.4-5.2
					c1.5-1.3,3.9-1.2,5.2,0.4c3.1,3.6,6.5,7,10,10.1c1.5,1.3,1.7,3.7,0.4,5.2C1269.6,1356.7,1269.2,1357,1268.6,1357.2z"/>
				<path fill="#FFFFFF" d="M1234.6,1299.3c-0.2,0.1-0.4,0.1-0.6,0.2c-2,0.4-3.9-0.9-4.4-2.8c-2.4-11.2-2.9-22.6-1.8-34
					c0.2-2,2-3.5,4-3.3c2,0.2,3.5,2,3.3,4c-1.1,10.6-0.6,21.3,1.6,31.7C1237.2,1296.9,1236.2,1298.6,1234.6,1299.3z M1251.4,1216.7
					c-1.1,0.4-2.4,0.3-3.5-0.4c-1.7-1.2-2.1-3.5-0.9-5.1c6.5-9.3,14.5-17.6,23.6-24.5c1.6-1.2,3.9-0.9,5.2,0.7
					c1.2,1.6,0.9,3.9-0.7,5.2c-8.5,6.4-15.9,14.1-22,22.8C1252.6,1216.1,1252,1216.5,1251.4,1216.7z"/>
				<path fill="#FFFFFF" d="M1337.9,1171.7c-0.4,0.2-0.9,0.3-1.4,0.3c-4.7,0-9.5,0.3-14.2,1c-2,0.3-3.9-1.1-4.2-3.1
					c-0.3-2,1.1-3.9,3.1-4.2c5-0.7,10.1-1.1,15.2-1.1c2,0,3.7,1.6,3.7,3.7C1340.3,1169.8,1339.3,1171.1,1337.9,1171.7z"/>
			</g>
			<path fill="#BDD0FB" d="M1356.2,1323.7c-0.7,0.3-1.4,0.5-2.1,0.8c-13.4,4.7-27.8,3.9-40.6-2.2c-12.1-5.8-21.4-15.8-26.4-28.2
				c-0.3-0.7-0.5-1.4-0.8-2.1c-4.7-13.4-3.9-27.8,2.2-40.6c6.1-12.8,16.9-22.4,30.3-27.1l0,0c0.8-0.3,1.7-0.6,2.6-0.8
				c2.4-0.7,4.8-1.2,7.2-1.6c0,0,0,0,0.1,0c0.4-0.1,0.8-0.1,1.2-0.2l1.4,11c-2.9,0.4-5.9,1.1-8.7,2.1l0,0
				c-10.6,3.7-19.1,11.4-24,21.5c-4.9,10.1-5.5,21.5-1.8,32.2c0.2,0.6,0.4,1.1,0.6,1.6c3.9,9.8,11.3,17.7,20.9,22.4
				c10.1,4.9,21.6,5.5,32.2,1.8c10.6-3.7,19.1-11.4,24-21.5c4.9-10.1,5.5-21.5,1.8-32.2c-0.2-0.5-0.4-1.1-0.6-1.6
				c-2.6-6.5-6.8-12.3-12.2-16.8l7.1-8.5c6.8,5.7,12.1,13,15.4,21.2c0.3,0.7,0.5,1.3,0.8,2c4.7,13.4,3.9,27.8-2.2,40.6
				C1378.6,1309.5,1368.6,1318.8,1356.2,1323.7z"/>
		</g>
	</g>
	<g>
		
			<linearGradient id="SVGID_27_" gradientUnits="userSpaceOnUse" x1="3996.7974" y1="-797.9385" x2="4036.0479" y2="-506.8323" gradientTransform="matrix(-0.2068 -0.9784 0.9784 -0.2068 3708.3235 6275.2163)">
			<stop  offset="0" style="stop-color:#4042E2"/>
			<stop  offset="1" style="stop-color:#4F52FF"/>
		</linearGradient>
		<path fill="url(#SVGID_27_)" d="M2301.8,2385.8l-11.6,11.7c-7.5-1.7-15.3-2.1-23.2-1.3l-10.2-12.9c-0.4-0.5-1-0.6-1.5-0.4
			l-18.6,6.5c-0.5,0.2-0.9,0.7-0.9,1.3l0.1,16.4c-6.7,4.3-12.5,9.5-17.3,15.5l-16.3-1.9c-0.6-0.1-1.1,0.2-1.4,0.8l-8.5,17.8
			c-0.2,0.5-0.1,1.1,0.3,1.5l11.7,11.6c-1.7,7.5-2.1,15.3-1.3,23.2l-12.9,10.2c-0.5,0.4-0.6,1-0.4,1.5l6.5,18.6
			c0.2,0.5,0.7,0.9,1.3,0.9l16.4-0.1c4.3,6.7,9.5,12.5,15.5,17.3l-1.9,16.3c-0.1,0.6,0.2,1.1,0.8,1.4l17.8,8.5
			c0.5,0.3,1.1,0.1,1.5-0.3l11.6-11.7c7.5,1.7,15.3,2.1,23.2,1.3l10.2,12.9c0.4,0.5,1,0.6,1.5,0.4l18.6-6.5c0.5-0.2,0.9-0.7,0.9-1.3
			l-0.1-16.4c6.7-4.3,12.5-9.5,17.3-15.5l16.3,1.9c0.6,0.1,1.1-0.2,1.4-0.8l8.5-17.8c0.2-0.5,0.1-1.1-0.3-1.5l-11.7-11.6
			c1.7-7.5,2.1-15.3,1.3-23.2l12.9-10.2c0.5-0.4,0.6-1,0.4-1.5l-6.5-18.6c-0.2-0.5-0.7-0.9-1.3-0.9l-16.4,0.1
			c-4.3-6.7-9.5-12.5-15.5-17.3l1.9-16.3c0.1-0.6-0.2-1.1-0.8-1.4l-17.8-8.5C2302.9,2385.3,2302.2,2385.4,2301.8,2385.8z"/>
		<g>
			<path fill="#BDD0FB" d="M2283.3,2489.3c-9.9,3.9-21.6,0.5-27.7-8.7c-7-10.6-4.1-24.9,6.5-31.9c10.6-7,24.9-4.1,31.9,6.5
				c7,10.6,4.1,24.9-6.5,31.9C2286.2,2488,2284.7,2488.7,2283.3,2489.3z M2270.4,2456.7c-0.8,0.3-1.5,0.7-2.2,1.1
				c-5.5,3.7-7,11.1-3.4,16.6c3.7,5.5,11.1,7,16.6,3.4c5.5-3.7,7-11.1,3.4-16.6C2281.6,2456.4,2275.5,2454.7,2270.4,2456.7z"/>
		</g>
		<g>
			<path fill="#FFFFFF" d="M2349.8,2395.4c-1.3,0.5-2.9,0.3-3.9-0.8c-3.4-3.3-7-6.4-10.8-9.2c-1.6-1.2-2-3.5-0.8-5.1
				c1.2-1.6,3.5-2,5.1-0.8c4.1,3,8,6.3,11.6,9.8c1.5,1.4,1.5,3.8,0.1,5.2C2350.7,2394.9,2350.3,2395.2,2349.8,2395.4z"/>
			<path fill="#FFFFFF" d="M2344.5,2552c-1.4,0.6-3.1,0.2-4.2-1c-1.3-1.6-1.1-3.9,0.4-5.2c8.3-7,15.4-15.3,21-24.5
				c1.1-1.7,3.3-2.3,5.1-1.2c1.7,1.1,2.3,3.3,1.2,5.1c-6.1,9.9-13.6,18.8-22.5,26.3C2345.3,2551.6,2344.9,2551.8,2344.5,2552z
				 M2381.8,2474.9c-0.5,0.2-1,0.3-1.5,0.3c-2-0.1-3.6-1.8-3.6-3.8c0.4-10.9-1-21.6-4-32c-0.6-2,0.6-4,2.5-4.6c2-0.6,4,0.5,4.6,2.5
				c3.3,11.1,4.7,22.7,4.3,34.3C2384.1,2473.1,2383.2,2474.4,2381.8,2474.9z"/>
			<path fill="#FFFFFF" d="M2295.8,2575.2c-0.2,0.1-0.4,0.2-0.7,0.2c-5,0.9-10.1,1.5-15.1,1.8c-2,0.1-3.8-1.5-3.8-3.5
				c-0.1-2,1.5-3.7,3.5-3.8c4.7-0.2,9.5-0.8,14.1-1.6c2-0.4,3.9,0.9,4.3,2.9C2298.3,2572.9,2297.4,2574.6,2295.8,2575.2z"/>
		</g>
		<g>
			<path fill="#FFFFFF" d="M2206.7,2551.1c-1.2,0.5-2.7,0.3-3.8-0.6c-3.8-3.3-7.4-6.9-10.8-10.8c-1.3-1.5-1.2-3.9,0.4-5.2
				c1.5-1.3,3.9-1.2,5.2,0.4c3.1,3.6,6.5,7,10,10.1c1.5,1.3,1.7,3.7,0.4,5.2C2207.7,2550.6,2207.3,2550.9,2206.7,2551.1z"/>
			<path fill="#FFFFFF" d="M2172.7,2493.2c-0.2,0.1-0.4,0.1-0.6,0.2c-2,0.4-3.9-0.9-4.4-2.8c-2.4-11.2-2.9-22.6-1.8-34
				c0.2-2,2-3.5,4-3.3c2,0.2,3.5,2,3.3,4c-1.1,10.6-0.6,21.3,1.6,31.7C2175.3,2490.8,2174.3,2492.5,2172.7,2493.2z M2189.5,2410.6
				c-1.1,0.4-2.4,0.3-3.5-0.4c-1.7-1.2-2.1-3.5-0.9-5.1c6.5-9.3,14.5-17.6,23.6-24.5c1.6-1.2,3.9-0.9,5.2,0.7
				c1.2,1.6,0.9,3.9-0.7,5.2c-8.5,6.4-15.9,14.1-22,22.8C2190.7,2409.9,2190.1,2410.4,2189.5,2410.6z"/>
			<path fill="#FFFFFF" d="M2276,2365.5c-0.4,0.2-0.9,0.3-1.4,0.3c-4.7,0-9.5,0.3-14.2,1c-2,0.3-3.9-1.1-4.2-3.1
				c-0.3-2,1.1-3.9,3.1-4.2c5-0.7,10.1-1.1,15.2-1.1c2,0,3.7,1.6,3.7,3.7C2278.4,2363.7,2277.4,2365,2276,2365.5z"/>
		</g>
		<path fill="#BDD0FB" d="M2294.3,2517.6c-0.7,0.3-1.4,0.5-2.1,0.8c-13.4,4.7-27.8,3.9-40.6-2.2c-12.1-5.8-21.4-15.8-26.4-28.2
			c-0.3-0.7-0.5-1.4-0.8-2.1c-4.7-13.4-3.9-27.8,2.2-40.6c6.1-12.8,16.9-22.4,30.3-27.1l0,0c0.8-0.3,1.7-0.6,2.6-0.8
			c2.4-0.7,4.8-1.2,7.2-1.6c0,0,0,0,0.1,0c0.4-0.1,0.8-0.1,1.2-0.2l1.4,11c-2.9,0.4-5.9,1.1-8.7,2.1l0,0
			c-10.6,3.7-19.1,11.4-24,21.5c-4.9,10.1-5.5,21.5-1.8,32.2c0.2,0.6,0.4,1.1,0.6,1.6c3.9,9.8,11.3,17.7,20.9,22.4
			c10.1,4.9,21.6,5.5,32.2,1.8c10.6-3.7,19.1-11.4,24-21.5c4.9-10.1,5.5-21.5,1.8-32.2c-0.2-0.5-0.4-1.1-0.6-1.6
			c-2.6-6.5-6.8-12.3-12.2-16.8l7.1-8.5c6.8,5.7,12.1,13,15.4,21.2c0.3,0.7,0.5,1.3,0.8,2c4.7,13.4,3.9,27.8-2.2,40.6
			C2316.7,2503.4,2306.7,2512.7,2294.3,2517.6z"/>
	</g>
	<g>
	</g>
	<g>
	</g>
	<g>
	</g>
	<g>
	</g>
	<g>
	</g>
	<g>
	</g>
	<g>
	</g>
	<g>
	</g>
	<g>
	</g>
	<g>
	</g>
	<g>
	</g>
	<g>
	</g>
	<g>
	</g>
	<g>
	</g>
	<g>
	</g>
</g>
</svg>
