<?xml version="1.0" encoding="utf-8"?>
<!-- Generator: Adobe Illustrator 25.2.3, SVG Export Plug-In . SVG Version: 6.00 Build 0)  -->
<svg version="1.1" id="a2d02adc-8588-4b23-90a3-08be6d1ccb3e"
	 xmlns="http://www.w3.org/2000/svg" xmlns:xlink="http://www.w3.org/1999/xlink" x="0px" y="0px" viewBox="0 0 263.2 228.9"
	 style="enable-background:new 0 0 263.2 228.9;" xml:space="preserve">
<style type="text/css">
	.st0{fill:#042EC4;}
	.st1{fill:#150035;}
	.st2{fill:#FFFFFF;}
</style>
<path class="st0" d="M155,197.1l-19.1-1.6l0,0l-2.8,1.9l0,0c-4,0.3-7.9,1.3-11.4,3.2c-1,0.6-2,1.2-2.9,2l0,0l-3.4-0.6l0,0v7.2l0,0
	c0,3.1,2,6.1,6.1,8.5c8.1,4.7,21.3,4.7,29.4,0c0.9-0.5,1.7-1.1,2.5-1.7l0,0v-7.2l0,0l-9.1-1.6l0,0l10.9-2.8l0,0L155,197.1L155,197.1
	z"/>
<path class="st1" d="M114.7,201.8l0.4-0.3l0.2,0l3.2,0.6c0.9-0.7,1.8-1.4,2.8-1.9c3.6-1.9,7.5-3,11.5-3.2l2.9-1.9h0.2l19.6,1.6v8
	l-0.4,0.1l-8.6,2.3l7.2,1.3v7.9l-0.1,0.2c-0.8,0.7-1.7,1.3-2.6,1.8c-8.3,4.8-21.7,4.7-30,0c-4-2.3-6.2-5.3-6.3-8.6l0,0L114.7,201.8
	L114.7,201.8z M136,196.1l-2.8,1.9c-3.9,0.2-7.8,1.3-11.3,3.1c-1,0.6-2,1.2-2.8,2l-0.2,0.2l-0.3-0.1l-2.8-0.5v6.6c0,3,2.1,5.9,5.8,8
	c8,4.6,20.9,4.6,28.9,0c0.8-0.4,1.5-1,2.2-1.5v-6.6l-9.1-1.6v-0.8l0.4-0.1l10.4-2.7v-6.4L136,196.1z"/>
<path class="st2" d="M136.1,202l18.9-4.9l0,0c-1.6-1.9-3.7-3.5-6-4.5c-8.1-3.7-19.9-3.4-27.3,0.7c-8.4,4.7-8.5,12.4-0.3,17.2
	s21.3,4.7,29.4,0c0.9-0.5,1.7-1.1,2.5-1.7l0,0L136.1,202C136.1,202,136.1,202,136.1,202z"/>
<path class="st1" d="M116.1,197.5c1.4-1.9,3.2-3.5,5.2-4.6c7.6-4.2,19.5-4.5,27.8-0.8c2.4,1,4.6,2.6,6.2,4.6l0.2,0.2l-0.1,0.5
	l-0.3,0.1l-17.4,4.5l15.9,6.3l0.1,0.6l-0.2,0.2c-0.8,0.7-1.6,1.3-2.5,1.8c-8.3,4.8-21.7,4.7-30,0c-4.1-2.4-6.4-5.6-6.3-9
	C114.7,200.4,115.2,198.8,116.1,197.5z M154.1,196.8c-1.5-1.6-3.3-2.8-5.3-3.7c-8-3.6-19.5-3.3-26.9,0.7c-3.9,2.2-6.1,5.1-6.1,8.1
	c0,3.1,2,5.9,5.8,8.1c8,4.6,20.9,4.6,28.9,0c0.6-0.3,1.2-0.7,1.7-1.1l-16.7-6.6v-0.8l0.4-0.1L154.1,196.8z"/>
<path class="st2" d="M153.2,208.8l-17.1-6.8l0,0l5.9,11.5l0,0c3.1-0.5,6.1-1.5,8.8-3C151.6,210.1,152.4,209.5,153.2,208.8
	C153.2,208.9,153.2,208.8,153.2,208.8z"/>
<path class="st1" d="M135.4,202l0.5-0.6l0.4,0.2l17.4,6.9l0.1,0.6l-0.2,0.2c-0.8,0.7-1.6,1.2-2.5,1.7c-2.8,1.5-5.8,2.6-9,3.1
	l-0.4,0.1L135.4,202z M152.2,209l-15.1-6l5.1,10c2.9-0.5,5.7-1.5,8.3-2.9C151.1,209.8,151.6,209.4,152.2,209L152.2,209z"/>
<path class="st1" d="M136.1,202.1L136.1,202.1v12l0,0c2,0,4-0.2,5.9-0.5L136.1,202.1z"/>
<path class="st1" d="M149.4,211.3v7.1c1.5-0.6,2.9-1.5,4.1-2.5l-0.2-7.1L149.4,211.3z"/>
<path class="st1" d="M135.5,201.7l0.8-0.2l0.2,0.4l6.2,12.1l-0.7,0.1c-2,0.3-4,0.5-6,0.5h-0.5L135.5,201.7z M141.1,213.2l-4.6-9v9.3
	C138.1,213.5,139.6,213.4,141.1,213.2L141.1,213.2z"/>
<path class="st0" d="M136.1,214.1v-11.9l0,0l-4.2,11.7C133.2,214,134.7,214,136.1,214.1L136.1,214.1z"/>
<path class="st1" d="M135.7,201.5l0.9,0.1v0.5v12.5h-0.5c-1.4,0-2.9-0.1-4.3-0.3l-0.6-0.1L135.7,201.5z M135.5,213.5V205l-3,8.3
	C133.6,213.5,134.6,213.5,135.5,213.5L135.5,213.5z"/>
<rect x="138.3" y="216.7" transform="matrix(1.745302e-03 -1 1 1.745302e-03 -75.5081 358.7037)" class="st1" width="7.2" height="1"/>
<rect x="115.8" y="212.3" transform="matrix(1.745302e-03 -1 1 1.745302e-03 -93.5604 331.8445)" class="st1" width="7.2" height="1"/>
<rect x="118.2" y="214" transform="matrix(1.745302e-03 -1 1 1.745302e-03 -92.9235 335.9486)" class="st1" width="7.2" height="1"/>
<rect x="146.9" y="201.6" transform="matrix(1.745302e-03 -1 1 1.745302e-03 -51.8418 352.2187)" class="st1" width="7.2" height="1"/>
<path class="st1" d="M146.5,221.8c3-0.6,5.9-2,8.3-3.9c0.7-0.5,1.1-1.3,1.2-2.2l0.2-2.4l1,0.1l-0.2,2.4c-0.1,1.1-0.6,2.2-1.5,2.9
	c-2.5,2-5.5,3.5-8.7,4.1L146.5,221.8z"/>
<rect x="140.6" y="221.6" transform="matrix(0.9901 -0.14 0.14 0.9901 -29.7006 22.1528)" class="st1" width="3.9" height="1"/>
<path class="st1" d="M135.8,186.6c2.8-0.2,5.6,0.1,8.3,0.9l-0.3,1c-2.6-0.8-5.2-1.1-7.9-0.9L135.8,186.6z"/>
<rect x="146.3" y="187.6" transform="matrix(0.366 -0.9306 0.9306 0.366 -82.9524 256.6152)" class="st1" width="1" height="3.2"/>
<path class="st2" d="M68.5,149l0.5-23.6l0,0c-7.5-0.2-15,0.9-22.2,3.2l0,0L68.5,149L68.5,149z"/>
<path class="st1" d="M68.4,149.7l-0.3-0.2l-21.9-20.6l0.1-0.6l0.3-0.1c7.2-2.4,14.8-3.5,22.4-3.3h0.5v0.6l-0.5,24L68.4,149.7z
	 M47.9,128.8l20.1,19l0.5-21.9C61.5,125.8,54.6,126.8,47.9,128.8z"/>
<path class="st0" d="M68.5,158.9l27.6-16.5l0,0c-7.4-4.5-17.1-6.9-27-7.1l0,0L68.5,158.9L68.5,158.9z"/>
<path class="st1" d="M68.5,159.5l-0.6-0.3v-0.3l0.5-24.2h0.6c10.4,0.3,20.1,2.8,27.3,7.2l0.3,0.2v0.6l-0.3,0.2L68.5,159.5z
	 M69.6,135.8l-0.5,22.1L95,142.4C88.2,138.5,79.2,136.2,69.6,135.8L69.6,135.8z"/>
<path class="st1" d="M68.5,158.9v18.8l0,0l27.5-15.5l0,0v-19.9l0,0L68.5,158.9L68.5,158.9z"/>
<path class="st1" d="M68.6,178.4l-0.6-0.3v-0.3v-19.2l0.3-0.2l27.8-16.6l0.6,0.3v20.5l-0.3,0.2L68.6,178.4z M69.1,159.2v17.6
	L95.5,162v-18.6L69.1,159.2z"/>
<path class="st0" d="M107.2,187.2V169l0,0l-38.5,0.7l0,0l0,23.6h0.1l8.3,21.5l0,0c6.5-0.8,12.8-2.9,18.5-6.1
	c7.4-4.3,11.2-9.5,11.6-15.1v-0.3C107.1,193.2,107.2,187.7,107.2,187.2z"/>
<path class="st1" d="M76.9,215.3l-0.3-0.2l-0.1-0.2l-8.2-21.1H68l0-24.6l0.5-0.1l39.1-0.7v18.9c0,0.6,0,5.5,0,6v0.4
	c-0.4,5.9-4.5,11.3-11.9,15.5c-5.8,3.2-12.1,5.3-18.7,6.1L76.9,215.3z M69.1,192.9v0.1l8.2,21c6.3-0.8,12.3-2.9,17.9-5.9
	c7.1-4.1,11-9.1,11.3-14.7v-0.3c0-2.1,0-5.6,0-5.9v-17.8l-37.4,0.7L69.1,192.9z"/>
<path class="st1" d="M107.1,193.5v-0.3c0,0,0-5.5,0-6V169l0,0l-8.2,0.1l0,0c-6.4,4.9-19.6,15.1-19.7,15.2l0,0l-2.2,6.9l0,0
	l-0.1,23.3l0.1,0.1l0,0c6.5-0.8,12.8-2.9,18.5-6.1C102.9,204.4,106.7,199.1,107.1,193.5z"/>
<path class="st1" d="M76.6,215.3l-0.3-0.8l0-23.6l0.1-0.1l2.2-6.9l0.1-0.1c0.2-0.1,13.5-10.4,19.8-15.2l0.2-0.1h0.1l8.8-0.2v18.9
	c0,0.4,0,5.4,0,6v0.3c-0.4,5.9-4.5,11.3-11.9,15.6c-5.8,3.2-12.1,5.3-18.7,6.1L76.6,215.3z M77.5,191.3l-0.1,22.8
	c6.2-0.9,12.2-2.9,17.7-5.9c7.1-4.1,11-9.1,11.3-14.7v-0.3c0-2.1,0-5.6,0-5.9v-17.8l-7.5,0.1c-6,4.6-18,13.9-19.4,15L77.5,191.3z"/>
<path class="st2" d="M68.6,169.6l8.4,21.6l0,0c6.5-0.8,12.8-2.9,18.5-6c15.3-8.8,15.5-23,0.7-32l0,0L68.6,169.6L68.6,169.6z"/>
<path class="st1" d="M76.6,191.8l-0.2-0.5L68,169.6l0.1-0.4l28.1-16.8l0.3,0.2c7.3,4.4,11.2,10.3,11.2,16.4
	c-0.1,6.2-4.3,12.2-11.9,16.6c-5.8,3.2-12.1,5.3-18.7,6.2H76.6z M69.3,169.8l8,20.7c6.3-0.9,12.3-2.9,17.9-5.9
	c7.3-4.2,11.3-9.7,11.4-15.6c0.1-5.7-3.6-11.1-10.4-15.3L69.3,169.8z"/>
<path class="st0" d="M76.9,205.8l-6.7-8.3l0,0l-1.6-4.2l0,0l-26.3-15.2v-1h-1.7l-1.3-0.8l0,0c-0.4,0.2-0.8,0.5-1.2,0.8l-10.4,6.3
	l0,0v9.1c0,5.9,3.9,11.8,11.6,16.3c10.2,5.9,24.6,7.9,37.7,6l0,0L76.9,205.8L76.9,205.8z"/>
<path class="st1" d="M67.2,216.1c-10.5,0-20.6-2.4-28.3-6.8S27,198.8,27,192.5V183l0.3-0.2l10.4-6.3c0.4-0.2,0.8-0.5,1.2-0.8
	l0.1-0.1h0.3l1.3,0.8h2.1v1.2l26.2,15.1l0.1,0.1l0,0.1l1.6,4.1l6.8,8.4v9.1l0.1,0.1l-0.3,0.5h-0.3C73.7,215.8,70.5,216,67.2,216.1z
	 M28.1,183.7v8.8c0,6,4,11.6,11.4,15.8c9.6,5.5,23.7,7.8,36.9,6v-8.4l-6.7-8.3l-1.5-4l-26.4-15.2v-0.8h-1.3l-0.1-0.1l-1.1-0.6
	c-0.3,0.2-0.6,0.4-1,0.6L28.1,183.7z"/>
<path class="st1" d="M54.2,214c6.5,1.2,13.1,1.5,19.7,0.8v-12.3l-4.4-5.4l0,0l-1.1-2.7H54.2V214z"/>
<path class="st1" d="M66.7,215.8c-4.2,0-8.5-0.4-12.6-1.2l-0.5-0.1v-20.7h15.2l1.2,3l4.4,5.5v13l-0.5,0
	C71.5,215.6,69.1,215.8,66.7,215.8z M54.7,213.6c6.1,1.1,12.4,1.4,18.6,0.7v-11.6l-4.3-5.4l-0.9-2.4H54.7L54.7,213.6z"/>
<path class="st1" d="M41.7,209.9c2.3,1.1,4.7,2,7.2,2.8v-19.5h-7.2V209.9z"/>
<path class="st1" d="M49.5,213.5l-0.7-0.2c-2.5-0.7-4.9-1.7-7.3-2.8l-0.3-0.1v-17.7h8.3L49.5,213.5z M42.3,209.6
	c2,0.9,4,1.7,6.1,2.4v-18.2h-6.1V209.6z"/>
<path class="st2" d="M76.9,205.8l-8.4-21.6l0,0l-29.4-16.9l0,0c-15.5,9-15.5,23.5,0,32.5C49.4,205.7,63.9,207.7,76.9,205.8
	L76.9,205.8z"/>
<path class="st1" d="M67.2,207c-10.5,0-20.6-2.4-28.3-6.8S27,189.8,27,183.5c0-6.3,4.2-12.3,11.9-16.7l0.3-0.2l0.3,0.2l29.5,17
	l0.1,0.1l0,0.1l8.5,21.8l-0.3,0.5H77C73.7,206.7,70.5,207,67.2,207z M39.2,167.9c-7.1,4.2-11.1,9.7-11.1,15.6
	c0,5.9,4,11.5,11.4,15.8c9.5,5.5,23.5,7.8,36.7,6.1l-8-20.7L39.2,167.9z"/>
<path class="st0" d="M46.9,122c-2.7,0.9-5.2,2.1-7.7,3.5l0,0l29.3,16.9l0,0L46.9,122L46.9,122z"/>
<path class="st1" d="M68.6,143.1l-0.4-0.3l-29.5-17v-0.6l0.3-0.2c2.5-1.4,5.1-2.6,7.8-3.5l0.3-0.1l0.3,0.2l22,20.7L68.6,143.1z
	 M40.3,125.5l24.4,14.1l-18-16.9C44.5,123.4,42.4,124.3,40.3,125.5z"/>
<path class="st0" d="M39.2,125.5v41.8l0,0l29.3,16.9l0,0l0-41.8l0,0L39.2,125.5L39.2,125.5z"/>
<path class="st1" d="M68.5,184.8l-0.3-0.2l-29.6-17.1v-42.1l0,0v-0.3l0.6-0.3l0.3,0.2l29.5,17v0.3l0,42.2L68.5,184.8z M39.8,166.9
	L68,183.2l-0.1-40.6l-28.2-16.3V166.9z"/>
<polygon class="st0" points="89,157.4 92,155.6 92,145 89,146.8 "/>
<path class="st1" d="M88.4,158.4v-12l4.2-2.5v11.9L88.4,158.4z M89.5,147.1v9.3l1.9-1.2V146L89.5,147.1z"/>
<rect x="103.7" y="179.4" class="st0" width="1.1" height="19.6"/>
<rect x="85.8" y="148.8" class="st0" width="1.1" height="9.1"/>
<rect x="41.2" y="127.1" class="st1" width="1.1" height="41.8"/>
<rect x="58.4" y="137" class="st1" width="1.1" height="41.8"/>
<rect x="72.9" y="182.2" class="st1" width="1.1" height="14.7"/>
<rect x="79.8" y="191.2" class="st0" width="1.1" height="21.5"/>
<path class="st1" d="M33.8,210.4c-4.7-2.6-8.3-7-9.8-12.2c-0.4-1.2-0.5-2.5-0.5-3.8v-6.6h1.1v6.6c0,1.2,0.2,2.3,0.5,3.5
	c1.4,4.9,4.7,9.1,9.2,11.5L33.8,210.4z"/>
<rect x="23.5" y="180.8" class="st1" width="1.1" height="4.9"/>
<path class="st1" d="M100,147.1h-1.1v-4.7c0-1.3-0.7-2.5-1.9-3.1l-4.5-2.2l0.5-1l4.5,2.2c1.6,0.8,2.6,2.4,2.6,4.1V147.1z"/>
<rect x="159.9" y="31.5" class="st1" width="1.1" height="5.5"/>
<rect x="157.7" y="33.7" class="st1" width="5.4" height="1.1"/>
<rect x="76.8" y="32.5" class="st1" width="1.1" height="27.3"/>
<rect x="76.8" y="21.4" class="st1" width="1.1" height="9.6"/>
<rect x="77.3" y="105" class="st1" width="1.1" height="9.6"/>
<path class="st1" d="M240.1,122.8h1V92.8c0-0.1,0.7-9.8-8.4-13.9l-0.4,1c8.5,3.8,7.8,12.5,7.8,12.9L240.1,122.8z"/>
<path class="st1" d="M109.8,153.1l5.7,0.1c0.1,0,0.2,0,0.3-0.1l21.9-12.7c1.4-0.8,3.1-0.9,4.5-0.2L192,169h0.1l16.5,5.5
	c0.2,0.1,0.4,0.3,0.4,0.5v4.1c0.1,0.6-0.2,1.2-1.1,1.7l-27.4,15.8c-1.4,0.8-3.1,0.9-4.5,0.2L110,158.9c-0.5-0.2-0.8-0.6-0.8-1.1
	v-4.1C109.3,153.3,109.5,153.1,109.8,153.1z"/>
<path class="st1" d="M175.7,197.4l-65.9-38.1c-0.6-0.3-1-0.9-1-1.6v-4.1c0-0.3,0.1-0.6,0.3-0.8c0.2-0.2,0.5-0.3,0.8-0.3l5.7,0.1
	l21.9-12.6c1.6-0.9,3.4-0.9,5.1-0.2l49.7,28.7l16.5,5.5c0.4,0.1,0.7,0.5,0.7,1v4.1c0.1,1-0.5,1.9-1.3,2.2l-27.4,15.8
	c-0.9,0.5-1.8,0.7-2.8,0.7C177.2,198,176.4,197.8,175.7,197.4z M138,140.9l-21.9,12.6c-0.2,0.1-0.4,0.2-0.6,0.1l-5.7-0.1v-0.5v4.7
	c0,0.3,0.2,0.6,0.5,0.7l65.9,38.1c1.3,0.6,2.8,0.5,4-0.2l27.4-15.8c0.6-0.3,0.9-0.8,0.8-1.1v-4.3l-16.5-5.5c-0.1,0-0.1-0.1-0.2-0.1
	l-49.7-28.7c-0.5-0.3-1.1-0.4-1.7-0.4C139.5,140.4,138.7,140.6,138,140.9z"/>
<path class="st2" d="M110.1,154.4l65.9,38.1c1.5,0.7,3.1,0.6,4.5-0.2l27.4-15.8c1.3-0.8,1.5-2,0.3-2.6l-65.9-38
	c-1.5-0.7-3.1-0.6-4.5,0.2l-27.4,15.8C109,152.5,108.9,153.7,110.1,154.4z"/>
<path class="st1" d="M175.7,192.9l-65.9-38.1c-0.6-0.3-1-0.9-1-1.6c0.1-0.8,0.6-1.6,1.4-1.9l27.4-15.8c1.6-0.9,3.4-0.9,5.1-0.2
	l65.9,38.1c0.6,0.3,1,0.9,1,1.6c-0.1,0.8-0.6,1.6-1.4,1.9l-27.4,15.8c-0.9,0.5-1.8,0.7-2.8,0.7C177.2,193.4,176.4,193.2,175.7,192.9
	z M138,136.4l-27.4,15.8c-0.5,0.3-0.9,0.7-0.9,1c0,0.3,0.2,0.6,0.5,0.7l65.9,38.1c1.3,0.6,2.8,0.5,4-0.2l27.4-15.8
	c0.5-0.3,0.8-0.7,0.8-1s-0.3-0.6-0.5-0.7L142,136.2c-0.5-0.3-1.1-0.4-1.7-0.4C139.5,135.8,138.7,136,138,136.4z"/>
<rect x="177.6" y="193.2" class="st0" width="0.8" height="3.9"/>
<rect x="205.6" y="177.6" class="st0" width="0.8" height="3.9"/>
<rect x="111.8" y="155.8" class="st0" width="0.8" height="3.9"/>
<path class="st2" d="M82.1,3.6c0-0.1,0-0.2,0-0.2c0,0,0,0,0,0L87,0.7c0.3-0.2,0.7-0.2,1,0L235.8,86c0.9,0.6,1.4,1.7,1.4,2.8v113.1
	c0,0.4-0.1,0.8-0.4,1.1l-5.2,2.9l-5.1-6.2l2-0.9L88.1,117.7c-0.9-0.6-1.4-1.7-1.5-2.8V9.8L82.1,3.6z"/>
<path class="st1" d="M225.7,199.5l1.7-0.8L87.8,118.1c-1.1-0.7-1.7-1.9-1.7-3.2V9.9l-4.4-6c-0.1-0.2-0.2-0.4-0.1-0.5
	c0-0.2,0.2-0.3,0.3-0.4l4.8-2.7c0.5-0.3,1.1-0.3,1.6,0l147.8,85.3c1.1,0.7,1.7,1.9,1.7,3.2v113.1c0,0.6-0.2,1.2-0.7,1.6l-5.5,3.1
	L225.7,199.5z M87.3,1.1l-4.5,2.5l4.4,5.9v105.3c0,0.9,0.4,1.8,1.2,2.3l141.5,81.7l-2.3,1l4.4,5.3l4.7-2.6c0.1-0.1,0.2-0.3,0.2-0.7
	V88.8c0-0.9-0.4-1.8-1.2-2.3L87.8,1.2c-0.1-0.1-0.2-0.1-0.3-0.1C87.4,1.1,87.3,1.1,87.3,1.1z"/>
<path class="st1" d="M82.9,120.5l147.8,85.3c0.8,0.5,1.5,0,1.5-1.1V91.7c0-1.1-0.6-2.1-1.5-2.8L82.9,3.6c-0.8-0.5-1.4,0-1.4,1.1
	v113.1C81.5,118.9,82,119.9,82.9,120.5z"/>
<path class="st1" d="M230.4,206.3L82.6,121c-1.1-0.7-1.7-1.9-1.7-3.2V4.7C80.8,4,81.1,3.4,81.7,3c0.5-0.2,1-0.2,1.5,0.1l147.8,85.3
	c1.1,0.7,1.7,1.9,1.7,3.2v113.1c0.1,0.6-0.2,1.3-0.8,1.6c-0.2,0.1-0.4,0.2-0.6,0.2C231,206.6,230.7,206.5,230.4,206.3z M82.2,3.9
	C82.1,4,82,4.2,82,4.7v113.1c0,0.9,0.4,1.8,1.2,2.3l147.8,85.3c0.1,0.1,0.3,0.1,0.4,0.1c0.1-0.1,0.2-0.3,0.2-0.7V91.7
	c0-0.9-0.4-1.8-1.2-2.3L82.6,4c-0.1-0.1-0.2-0.1-0.3-0.1C82.3,3.9,82.2,3.9,82.2,3.9z"/>
<path class="st0" d="M83.1,118.4l147.4,85.1c0.2,0.1,0.4,0,0.4-0.3v-112c0-0.3-0.2-0.6-0.4-0.8L83.1,5.2c-0.2-0.1-0.4,0-0.4,0.3
	v112.1C82.7,117.9,82.8,118.2,83.1,118.4z"/>
<path class="st1" d="M230.2,203.9L82.8,118.9l0,0c-0.4-0.3-0.7-0.8-0.7-1.3V5.5c0-0.3,0.1-0.6,0.4-0.8c0.2-0.1,0.6-0.1,0.8,0
	l147.4,85.1c0.4,0.3,0.7,0.8,0.7,1.3v112.1c0,0.3-0.1,0.6-0.4,0.8c-0.1,0.1-0.2,0.1-0.4,0.1C230.5,204.1,230.3,204,230.2,203.9z
	 M83.2,117.6c0,0.1,0.1,0.3,0.2,0.4l147,84.8V91.1c0-0.1-0.1-0.3-0.2-0.4L83.2,5.9L83.2,117.6z"/>
<path class="st1" d="M81.4,117.9v-6.5l150.7,87v6.5c0,1-0.7,1.4-1.6,0.9L83,120.6C82.1,120,81.5,119,81.4,117.9z"/>
<path class="st1" d="M230.3,206.2L82.7,121c-1.1-0.7-1.8-1.9-1.8-3.1v-7.4L232.4,198l0.3,0.1v6.8c0,0.6-0.2,1.1-0.7,1.5
	c-0.2,0.1-0.4,0.2-0.7,0.2C230.9,206.5,230.6,206.4,230.3,206.2z M82,112.3v5.6c0.1,0.9,0.5,1.7,1.3,2.2l147.6,85.2
	c0.2,0.1,0.4,0.2,0.6,0.1c0.1-0.1,0.2-0.3,0.2-0.5v-6.2L82,112.3z"/>
<rect x="156.4" y="148" transform="matrix(0.5003 -0.8659 0.8659 0.5003 -59.3587 215.221)" class="st0" width="0.8" height="22"/>
<rect x="231.8" y="88.1" transform="matrix(0.8573 -0.5147 0.5147 0.8573 -12.1331 133.4921)" class="st1" width="5.9" height="1.1"/>
<rect x="91.7" y="8.4" transform="matrix(0.8601 -0.5101 0.5101 0.8601 8.6763 49.5163)" class="st1" width="5.9" height="1"/>
<rect x="231.8" y="195.2" transform="matrix(0.8573 -0.5147 0.5147 0.8573 -67.2737 148.7733)" class="st1" width="5.9" height="1.1"/>
<polygon class="st0" points="196.7,187.3 197.1,186.6 193.9,184.7 193.5,185.4 "/>
<path class="st1" d="M178.2,190.5c0.6,0,1.1-0.2,1.6-0.4l5.7-3.5l-0.5-0.9l-5.7,3.5c-0.6,0.4-1.4,0.4-2,0l-56.8-32.4l-0.5,0.9
	l56.8,32.4C177.2,190.3,177.7,190.5,178.2,190.5z"/>
<path class="st1" d="M118.3,156.8l0.5-0.9l-4.2-2.3c-0.1-0.1-0.2-0.2-0.2-0.3c0-0.1,0.1-0.3,0.2-0.3l5.9-3.4l-0.5-0.9l-5.9,3.4
	c-0.7,0.4-0.9,1.2-0.5,1.9c0.1,0.2,0.3,0.4,0.5,0.5L118.3,156.8z"/>
<rect x="232.1" y="191.4" transform="matrix(0.8573 -0.5147 0.5147 0.8573 -65.2528 148.3698)" class="st1" width="5.9" height="1.1"/>
<rect x="94.1" y="8.2" transform="matrix(0.8573 -0.5147 0.5147 0.8573 9.344 51.2128)" class="st1" width="5.9" height="1"/>
<rect x="232.1" y="93.5" transform="matrix(0.8573 -0.5147 0.5147 0.8573 -14.8765 134.3954)" class="st1" width="5.9" height="1.1"/>
<path class="st1" d="M175.8,159.8c0.2,1,0.7,1.8,1.4,2.5l0,0c-0.2,0-1.3-0.1-1.4,0.9l0,0c-0.2-1-0.7-1.8-1.5-2.5l0,0
	C174.5,160.6,175.6,160.8,175.8,159.8C175.8,159.8,175.8,159.8,175.8,159.8z"/>
<path class="st1" d="M171.6,157.4c0.2,1,0.7,1.8,1.4,2.5l0,0c-0.2,0-1.3-0.1-1.4,0.8l0,0c-0.2-1-0.7-1.8-1.5-2.5l0,0
	C170.4,158.2,171.5,158.4,171.6,157.4C171.6,157.4,171.6,157.4,171.6,157.4z"/>
<path class="st1" d="M167.4,155c0.2,1,0.7,1.8,1.5,2.5l0,0c-0.2,0-1.3-0.1-1.5,0.9l0,0c-0.2-1-0.7-1.8-1.5-2.5l0,0
	C166.1,155.8,167.2,156,167.4,155C167.4,154.9,167.4,154.9,167.4,155z"/>
<path class="st1" d="M163.2,152.5c0.2,1,0.7,1.8,1.5,2.5l0,0c-0.2,0-1.3-0.1-1.5,0.8l0,0c-0.2-1-0.7-1.8-1.5-2.5l0,0
	C161.9,153.4,163,153.5,163.2,152.5C163.2,152.5,163.2,152.5,163.2,152.5z"/>
<path class="st1" d="M159,150.1c0.2,1,0.7,1.8,1.5,2.5l0,0c-0.2,0-1.3-0.1-1.5,0.9l0,0c-0.2-1-0.7-1.8-1.5-2.5l0,0
	C157.7,151,158.8,151.1,159,150.1C159,150.1,159,150.1,159,150.1z"/>
<path class="st1" d="M154.8,147.7c0.2,1,0.7,1.8,1.5,2.5l0,0c-0.2,0-1.3-0.1-1.5,0.8l0,0c-0.2-1-0.7-1.8-1.5-2.5l0,0
	C153.5,148.5,154.6,148.7,154.8,147.7z"/>
<path class="st1" d="M150.6,145.3c0.2,1,0.7,1.8,1.5,2.5l0,0c-0.2,0-1.3-0.1-1.5,0.8l0,0c-0.2-1-0.7-1.8-1.5-2.5l0,0
	C149.3,146.1,150.4,146.2,150.6,145.3C150.6,145.2,150.6,145.2,150.6,145.3z"/>
<path class="st1" d="M146.4,142.8c0.2,1,0.7,1.8,1.5,2.5l0,0c-0.2,0-1.3-0.1-1.5,0.8l0,0c-0.2-1-0.7-1.8-1.5-2.5l0,0
	C145.2,143.6,146.2,143.8,146.4,142.8z"/>
<path class="st1" d="M142.2,140.4c0.2,1,0.7,1.8,1.5,2.5l0,0c-0.2,0-1.3-0.1-1.5,0.8l0,0c-0.2-1-0.7-1.8-1.5-2.5l0,0
	C140.9,141.2,142,141.4,142.2,140.4C142.2,140.4,142.2,140.4,142.2,140.4z"/>
<path class="st1" d="M138,138c0.2,1,0.7,1.8,1.5,2.5l0,0c-0.2,0-1.3-0.1-1.5,0.9l0,0c-0.2-1-0.7-1.8-1.5-2.5l0,0
	C136.7,138.8,137.8,139,138,138C138,138,138,138,138,138z"/>
<path class="st1" d="M217.8,184.1c0.2,1,0.7,1.8,1.5,2.5l0,0c-0.2,0-1.3-0.1-1.5,0.9l0,0c-0.2-1-0.7-1.8-1.5-2.5l0,0
	C216.6,184.9,217.6,185.1,217.8,184.1C217.8,184,217.8,184,217.8,184.1z"/>
<path class="st1" d="M213.6,181.6c0.2,1,0.7,1.8,1.5,2.5l0,0c-0.2,0-1.3-0.1-1.5,0.8l0,0c-0.2-1-0.7-1.8-1.5-2.5l0,0
	C212.4,182.5,213.4,182.6,213.6,181.6C213.6,181.6,213.6,181.6,213.6,181.6z"/>
<path class="st1" d="M209.4,179.2c0.2,1,0.7,1.8,1.5,2.5l0,0c-0.2,0-1.3-0.1-1.5,0.9l0,0c-0.2-1-0.7-1.8-1.5-2.5l0,0
	C208.1,180.1,209.2,180.2,209.4,179.2C209.4,179.2,209.4,179.2,209.4,179.2z"/>
<path class="st1" d="M205.2,176.8c0.2,1,0.7,1.8,1.5,2.5l0,0c-0.2,0-1.3-0.1-1.5,0.8l0,0c-0.2-1-0.7-1.8-1.5-2.5l0,0
	C203.9,177.6,205,177.8,205.2,176.8C205.2,176.8,205.2,176.8,205.2,176.8z"/>
<path class="st1" d="M201,174.4c0.2,1,0.7,1.8,1.4,2.5l0,0c-0.2,0-1.3-0.1-1.4,0.9l0,0c-0.2-1-0.7-1.8-1.5-2.5l0,0
	C199.8,175.2,200.9,175.4,201,174.4C201,174.3,201,174.3,201,174.4z"/>
<path class="st1" d="M196.8,171.9c0.2,1,0.7,1.8,1.4,2.5l0,0c-0.2,0-1.3-0.1-1.4,0.8l0,0c-0.2-1-0.7-1.8-1.5-2.5l0,0
	C195.6,172.8,196.6,172.9,196.8,171.9C196.8,171.9,196.8,171.9,196.8,171.9z"/>
<path class="st1" d="M192.6,169.5c0.2,1,0.7,1.8,1.4,2.5l0,0c-0.2,0-1.3-0.1-1.4,0.9l0,0c-0.2-1-0.7-1.8-1.5-2.5l0,0
	C191.3,170.4,192.5,170.5,192.6,169.5C192.6,169.5,192.6,169.5,192.6,169.5z"/>
<path class="st1" d="M188.4,167.1c0.2,1,0.7,1.8,1.4,2.5l0,0c-0.2,0-1.3-0.1-1.4,0.8l0,0c-0.2-1-0.8-1.8-1.5-2.5l0,0
	C187.1,167.9,188.2,168.1,188.4,167.1z"/>
<path class="st1" d="M184.2,164.7c0.2,1,0.7,1.8,1.4,2.5l0,0c-0.2,0-1.3-0.1-1.4,0.9l0,0c-0.2-1-0.8-1.8-1.5-2.5l0,0
	C182.9,165.5,184,165.6,184.2,164.7C184.2,164.6,184.2,164.6,184.2,164.7z"/>
<path class="st1" d="M180,162.2c0.2,1,0.7,1.9,1.4,2.6l0,0c-0.2,0-1.3-0.1-1.4,0.8l0,0c-0.2-1-0.7-1.8-1.5-2.5l0,0
	C178.7,163.1,179.8,163.3,180,162.2C180,162.2,180,162.2,180,162.2z"/>
<path class="st1" d="M175.8,154.9c0.2,1,0.7,1.8,1.4,2.5l0,0c-0.2,0-1.3-0.1-1.4,0.9l0,0c-0.2-1-0.7-1.8-1.5-2.5l0,0
	C174.5,155.8,175.6,155.9,175.8,154.9C175.8,154.9,175.8,154.9,175.8,154.9z"/>
<path class="st1" d="M171.6,152.5c0.2,1,0.7,1.8,1.4,2.5l0,0c-0.2,0-1.3-0.1-1.4,0.8l0,0c-0.2-1-0.7-1.8-1.5-2.5l0,0
	C170.4,153.4,171.5,153.5,171.6,152.5C171.6,152.5,171.6,152.5,171.6,152.5z"/>
<path class="st1" d="M167.4,150.1c0.2,1,0.7,1.8,1.5,2.5l0,0c-0.2,0-1.3-0.1-1.5,0.8l0,0c-0.2-1-0.7-1.8-1.5-2.5l0,0
	C166.1,150.9,167.2,151.1,167.4,150.1C167.4,150.1,167.4,150.1,167.4,150.1z"/>
<path class="st1" d="M163.2,147.7c0.2,1,0.7,1.8,1.5,2.5l0,0c-0.2,0-1.3-0.1-1.5,0.8l0,0c-0.2-1-0.7-1.8-1.5-2.5l0,0
	C161.9,148.5,163,148.6,163.2,147.7C163.2,147.6,163.2,147.6,163.2,147.7z"/>
<path class="st1" d="M159,145.2c0.2,1,0.7,1.8,1.4,2.6l0,0c-0.2,0-1.3-0.1-1.5,0.8l0,0c-0.2-1-0.7-1.8-1.5-2.5l0,0
	C157.7,146.1,158.8,146.2,159,145.2C159,145.2,159,145.2,159,145.2z"/>
<path class="st1" d="M154.8,142.8c0.2,1,0.7,1.8,1.5,2.5l0,0c-0.2,0-1.3-0.1-1.5,0.8l0,0c-0.2-1-0.7-1.8-1.5-2.5l0,0
	C153.5,143.6,154.6,143.8,154.8,142.8C154.8,142.8,154.8,142.8,154.8,142.8z"/>
<path class="st1" d="M150.6,140.4c0.2,1,0.7,1.8,1.5,2.5l0,0c-0.2,0-1.3-0.1-1.5,0.8l0,0c-0.2-1-0.7-1.8-1.5-2.5l0,0
	C149.3,141.2,150.4,141.4,150.6,140.4C150.6,140.4,150.6,140.4,150.6,140.4z"/>
<path class="st1" d="M146.4,138c0.2,1,0.7,1.8,1.5,2.5l0,0c-0.2,0-1.3-0.1-1.5,0.9l0,0c-0.2-1-0.7-1.8-1.5-2.5l0,0
	C145.2,138.8,146.2,139,146.4,138L146.4,138z"/>
<path class="st1" d="M142.2,135.5c0.2,1,0.7,1.8,1.5,2.5l0,0c-0.2,0-1.3-0.1-1.5,0.8l0,0c-0.2-1-0.7-1.8-1.5-2.5l0,0
	C140.9,136.4,142,136.5,142.2,135.5C142.2,135.5,142.2,135.5,142.2,135.5z"/>
<path class="st1" d="M138,133.1c0.2,1,0.7,1.8,1.5,2.5l0,0c-0.2,0-1.3-0.1-1.5,0.9l0,0c-0.2-1-0.7-1.8-1.5-2.5l0,0
	C136.7,134,137.8,134.1,138,133.1L138,133.1z"/>
<path class="st1" d="M217.8,179.2c0.2,1,0.7,1.8,1.5,2.5l0,0c-0.2,0-1.3-0.1-1.5,0.9l0,0c-0.2-1-0.7-1.8-1.5-2.5l0,0
	C216.6,180,217.6,180.2,217.8,179.2C217.8,179.2,217.8,179.2,217.8,179.2z"/>
<path class="st1" d="M213.6,176.8c0.2,1,0.7,1.8,1.5,2.5l0,0c-0.2,0-1.3-0.1-1.5,0.8l0,0c-0.2-1-0.7-1.8-1.5-2.5l0,0
	C212.4,177.6,213.4,177.8,213.6,176.8C213.6,176.8,213.6,176.8,213.6,176.8z"/>
<path class="st1" d="M209.4,174.3c0.2,1,0.7,1.8,1.5,2.5l0,0c-0.2,0-1.3-0.1-1.5,0.9l0,0c-0.2-1-0.7-1.8-1.5-2.5l0,0
	C208.1,175.2,209.2,175.3,209.4,174.3C209.4,174.3,209.4,174.3,209.4,174.3z"/>
<path class="st1" d="M205.2,171.9c0.2,1,0.7,1.8,1.5,2.5l0,0c-0.2,0-1.3-0.1-1.5,0.8l0,0c-0.2-1-0.7-1.8-1.5-2.5l0,0
	C203.9,172.8,205,172.9,205.2,171.9C205.2,171.9,205.2,171.9,205.2,171.9z"/>
<path class="st1" d="M201,169.5c0.2,1,0.7,1.8,1.4,2.5l0,0c-0.2,0-1.3-0.1-1.4,0.9l0,0c-0.2-1-0.7-1.8-1.5-2.5l0,0
	C199.8,170.3,200.9,170.5,201,169.5C201,169.5,201,169.5,201,169.5z"/>
<path class="st1" d="M196.8,167.1c0.2,1,0.7,1.8,1.4,2.5l0,0c-0.2,0-1.3-0.1-1.4,0.8l0,0c-0.2-1-0.7-1.8-1.5-2.5l0,0
	C195.6,167.9,196.6,168,196.8,167.1C196.8,167,196.8,167,196.8,167.1z"/>
<path class="st1" d="M192.6,164.6c0.2,1,0.7,1.8,1.4,2.5l0,0c-0.2,0-1.3-0.1-1.4,0.9l0,0c-0.2-1-0.7-1.8-1.5-2.5l0,0
	C191.3,165.5,192.5,165.6,192.6,164.6C192.6,164.6,192.6,164.6,192.6,164.6z"/>
<path class="st1" d="M188.4,162.2c0.2,1,0.7,1.8,1.4,2.5l0,0c-0.2,0-1.3-0.1-1.4,0.8l0,0c-0.2-1-0.7-1.8-1.5-2.5l0,0
	C187.1,163,188.2,163.2,188.4,162.2z"/>
<path class="st1" d="M184.2,159.8c0.2,1,0.7,1.8,1.4,2.5l0,0c-0.2,0-1.3-0.1-1.4,0.9l0,0c-0.2-1-0.8-1.8-1.5-2.5l0,0
	C182.9,160.6,184,160.8,184.2,159.8C184.2,159.8,184.2,159.8,184.2,159.8z"/>
<path class="st1" d="M180,157.4c0.2,1,0.7,1.8,1.4,2.5l0,0c-0.2,0-1.3-0.1-1.4,0.8l0,0c-0.2-1-0.7-1.8-1.5-2.5l0,0
	C178.8,158.2,179.9,158.4,180,157.4C180,157.3,180,157.4,180,157.4z"/>
<path class="st1" d="M175.8,150.1c0.2,1,0.7,1.8,1.4,2.5l0,0c-0.2,0-1.3-0.1-1.4,0.8l0,0c-0.2-1-0.7-1.8-1.5-2.5l0,0
	C174.5,150.9,175.6,151,175.8,150.1C175.8,150,175.8,150,175.8,150.1z"/>
<path class="st1" d="M171.6,147.6c0.2,1,0.7,1.8,1.4,2.5l0,0c-0.2,0-1.3-0.1-1.4,0.8l0,0c-0.2-1-0.7-1.8-1.5-2.5l0,0
	C170.4,148.5,171.5,148.6,171.6,147.6C171.6,147.6,171.6,147.6,171.6,147.6z"/>
<path class="st1" d="M167.4,145.2c0.2,1,0.7,1.8,1.5,2.5l0,0c-0.2,0-1.3-0.1-1.5,0.8l0,0c-0.2-1-0.7-1.8-1.5-2.5l0,0
	C166.1,146.1,167.2,146.2,167.4,145.2C167.4,145.2,167.4,145.2,167.4,145.2z"/>
<path class="st1" d="M163.2,142.8c0.2,1,0.7,1.8,1.5,2.5l0,0c-0.2,0-1.3-0.1-1.5,0.9l0,0c-0.2-1-0.7-1.8-1.5-2.5l0,0
	C161.9,143.6,163,143.8,163.2,142.8C163.2,142.8,163.2,142.8,163.2,142.8z"/>
<path class="st1" d="M159,140.4c0.2,1,0.7,1.8,1.5,2.5l0,0c-0.2,0-1.3-0.1-1.5,0.8l0,0c-0.2-1-0.7-1.8-1.5-2.5l0,0
	C157.7,141.2,158.8,141.3,159,140.4C159,140.3,159,140.4,159,140.4z"/>
<path class="st1" d="M154.8,137.9c0.2,1,0.7,1.8,1.5,2.5l0,0c-0.2,0-1.3-0.1-1.5,0.9l0,0c-0.2-1-0.7-1.8-1.5-2.5l0,0
	C153.5,138.8,154.6,138.9,154.8,137.9C154.8,137.9,154.8,137.9,154.8,137.9z"/>
<path class="st1" d="M150.6,135.5c0.2,1,0.7,1.8,1.5,2.5l0,0c-0.2,0-1.3-0.1-1.5,0.8l0,0c-0.2-1-0.7-1.8-1.5-2.5l0,0
	C149.3,136.3,150.4,136.5,150.6,135.5C150.6,135.5,150.6,135.5,150.6,135.5z"/>
<path class="st1" d="M146.4,133.1c0.2,1,0.7,1.8,1.5,2.5l0,0c-0.2,0-1.3-0.1-1.5,0.9l0,0c-0.2-1-0.7-1.8-1.5-2.5l0,0
	C145.2,133.9,146.2,134.1,146.4,133.1C146.4,133.1,146.4,133.1,146.4,133.1z"/>
<path class="st1" d="M142.2,130.7c0.2,1,0.7,1.8,1.5,2.5l0,0c-0.2,0-1.3-0.1-1.5,0.8l0,0c-0.2-1-0.7-1.8-1.5-2.5l0,0
	C140.9,131.5,142,131.6,142.2,130.7C142.2,130.6,142.2,130.6,142.2,130.7z"/>
<path class="st1" d="M138,128.2c0.2,1,0.7,1.8,1.4,2.6l0,0c-0.2,0-1.3-0.1-1.5,0.9l0,0c-0.2-1-0.7-1.8-1.5-2.5l0,0
	C136.7,129.1,137.8,129.3,138,128.2L138,128.2z"/>
<path class="st1" d="M217.8,174.3c0.2,1,0.7,1.8,1.5,2.5l0,0c-0.2,0-1.3-0.1-1.5,0.9l0,0c-0.2-1-0.7-1.8-1.5-2.5l0,0
	C216.6,175.2,217.6,175.3,217.8,174.3C217.8,174.3,217.8,174.3,217.8,174.3z"/>
<path class="st1" d="M213.6,171.9c0.2,1,0.7,1.8,1.5,2.5l0,0c-0.2,0-1.3-0.1-1.5,0.8l0,0c-0.2-1-0.7-1.8-1.5-2.5l0,0
	C212.4,172.7,213.4,172.9,213.6,171.9z"/>
<path class="st1" d="M209.4,169.5c0.2,1,0.7,1.8,1.5,2.5l0,0c-0.2,0-1.3-0.1-1.5,0.9l0,0c-0.2-1-0.7-1.8-1.5-2.5l0,0
	C208.1,170.3,209.2,170.5,209.4,169.5C209.4,169.4,209.4,169.5,209.4,169.5z"/>
<path class="st1" d="M205.2,167c0.2,1,0.7,1.8,1.5,2.5l0,0c-0.2,0-1.3-0.1-1.5,0.8l0,0c-0.2-1-0.7-1.8-1.5-2.5l0,0
	C203.9,167.9,205,168,205.2,167C205.2,167,205.2,167,205.2,167z"/>
<path class="st1" d="M201,164.6c0.2,1,0.7,1.8,1.4,2.5l0,0c-0.2,0-1.3-0.1-1.4,0.9l0,0c-0.2-1-0.7-1.8-1.5-2.5l0,0
	C199.8,165.5,200.9,165.6,201,164.6C201,164.6,201,164.6,201,164.6z"/>
<path class="st1" d="M196.8,162.2c0.2,1,0.7,1.8,1.4,2.5l0,0c-0.2,0-1.3-0.1-1.4,0.8l0,0c-0.2-1-0.7-1.8-1.5-2.5l0,0
	C195.6,163,196.6,163.2,196.8,162.2C196.8,162.2,196.8,162.2,196.8,162.2z"/>
<path class="st1" d="M192.6,159.8c0.2,1,0.7,1.8,1.4,2.5l0,0c-0.2,0-1.3-0.1-1.4,0.9l0,0c-0.2-1-0.7-1.8-1.5-2.5l0,0
	C191.3,160.6,192.5,160.8,192.6,159.8C192.6,159.8,192.6,159.8,192.6,159.8z"/>
<path class="st1" d="M188.4,157.3c0.2,1,0.7,1.8,1.4,2.5l0,0c-0.2,0-1.3-0.1-1.4,0.8l0,0c-0.2-1-0.7-1.8-1.5-2.5l0,0
	C187.1,158.2,188.2,158.3,188.4,157.3C188.4,157.3,188.4,157.3,188.4,157.3z"/>
<path class="st1" d="M184.2,154.9c0.2,1,0.7,1.8,1.4,2.5l0,0c-0.2,0-1.3-0.1-1.4,0.9l0,0c-0.2-1-0.8-1.8-1.5-2.5l0,0
	C182.9,155.8,184,155.9,184.2,154.9C184.2,154.9,184.2,154.9,184.2,154.9z"/>
<path class="st1" d="M180,152.5c0.2,1,0.7,1.8,1.4,2.5l0,0c-0.2,0-1.3-0.1-1.4,0.8l0,0c-0.2-1-0.7-1.8-1.5-2.5l0,0
	C178.8,153.3,179.9,153.5,180,152.5C180,152.5,180,152.5,180,152.5z"/>
<path class="st1" d="M175.8,145.2c0.2,1,0.7,1.8,1.4,2.5l0,0c-0.2,0-1.3-0.1-1.4,0.8l0,0c-0.2-1-0.7-1.8-1.5-2.5l0,0
	C174.5,146,175.6,146.2,175.8,145.2C175.8,145.2,175.8,145.2,175.8,145.2z"/>
<path class="st1" d="M171.6,142.8c0.2,1,0.7,1.8,1.4,2.5l0,0c-0.2,0-1.3-0.1-1.4,0.9l0,0c-0.2-1-0.7-1.8-1.5-2.5l0,0
	C170.4,143.6,171.5,143.8,171.6,142.8C171.6,142.8,171.6,142.8,171.6,142.8z"/>
<path class="st1" d="M167.4,140.4c0.2,1,0.7,1.8,1.5,2.5l0,0c-0.2,0-1.3-0.1-1.5,0.8l0,0c-0.2-1-0.7-1.8-1.5-2.5l0,0
	C166.1,141.2,167.2,141.3,167.4,140.4C167.4,140.3,167.4,140.3,167.4,140.4z"/>
<path class="st1" d="M163.2,137.9c0.2,1,0.7,1.8,1.5,2.5l0,0c-0.2,0-1.3-0.1-1.5,0.9l0,0c-0.2-1-0.7-1.8-1.5-2.5l0,0
	C161.9,138.8,163,138.9,163.2,137.9L163.2,137.9z"/>
<path class="st1" d="M159,135.5c0.2,1,0.7,1.8,1.5,2.5l0,0c-0.2,0-1.3-0.1-1.5,0.8l0,0c-0.2-1-0.7-1.8-1.5-2.5l0,0
	C157.7,136.3,158.8,136.5,159,135.5C159,135.5,159,135.5,159,135.5z"/>
<path class="st1" d="M154.8,133.1c0.2,1,0.7,1.8,1.5,2.5l0,0c-0.2,0-1.3-0.1-1.5,0.9l0,0c-0.2-1-0.7-1.8-1.5-2.5l0,0
	C153.5,133.9,154.6,134.1,154.8,133.1C154.8,133,154.8,133.1,154.8,133.1z"/>
<path class="st1" d="M150.6,130.6c0.2,1,0.7,1.8,1.5,2.5l0,0c-0.2,0-1.3-0.1-1.5,0.8l0,0c-0.2-1-0.7-1.8-1.5-2.5l0,0
	C149.3,131.5,150.4,131.6,150.6,130.6C150.6,130.6,150.6,130.6,150.6,130.6z"/>
<path class="st1" d="M146.4,128.2c0.2,1,0.7,1.8,1.5,2.5l0,0c-0.2,0-1.3-0.1-1.5,0.9l0,0c-0.2-1-0.7-1.8-1.5-2.5l0,0
	C145.2,129.1,146.2,129.2,146.4,128.2C146.4,128.2,146.4,128.2,146.4,128.2z"/>
<path class="st1" d="M142.2,125.8c0.2,1,0.7,1.8,1.5,2.5l0,0c-0.2,0-1.3-0.1-1.5,0.8l0,0c-0.2-1-0.7-1.8-1.5-2.5l0,0
	C140.9,126.6,142,126.8,142.2,125.8C142.2,125.8,142.2,125.8,142.2,125.8z"/>
<path class="st1" d="M138,123.4c0.2,1,0.7,1.8,1.4,2.5l0,0c-0.2,0-1.3-0.1-1.5,0.9l0,0c-0.2-1-0.7-1.8-1.5-2.5l0,0
	C136.7,124.2,137.8,124.4,138,123.4C138,123.3,138,123.3,138,123.4z"/>
<path class="st1" d="M133.8,135.6c0.2,1,0.7,1.8,1.5,2.5l0,0c-0.2,0-1.3-0.1-1.5,0.8l0,0c-0.2-1-0.7-1.8-1.5-2.5l0,0
	C132.5,136.4,133.6,136.5,133.8,135.6C133.8,135.5,133.8,135.5,133.8,135.6z"/>
<path class="st1" d="M129.6,133.1c0.2,1,0.7,1.8,1.5,2.5l0,0c-0.2,0-1.3-0.1-1.5,0.9l0,0c-0.2-1-0.7-1.8-1.5-2.5l0,0
	C128.3,134,129.4,134.1,129.6,133.1C129.6,133.1,129.6,133.1,129.6,133.1z"/>
<path class="st1" d="M125.4,130.7c0.2,1,0.7,1.8,1.5,2.5l0,0c-0.2,0-1.3-0.1-1.5,0.8l0,0c-0.2-1-0.7-1.8-1.5-2.5l0,0
	C124.2,131.5,125.2,131.7,125.4,130.7C125.4,130.7,125.4,130.7,125.4,130.7z"/>
<path class="st1" d="M121.2,128.3c0.2,1,0.7,1.8,1.5,2.5l0,0c-0.2,0-1.3-0.1-1.5,0.9l0,0c-0.2-1-0.7-1.8-1.5-2.5l0,0
	C119.9,129.1,121,129.3,121.2,128.3C121.2,128.3,121.2,128.3,121.2,128.3z"/>
<path class="st1" d="M133.8,130.7c0.2,1,0.7,1.8,1.5,2.5l0,0c-0.2,0-1.3-0.1-1.5,0.8l0,0c-0.2-1-0.7-1.8-1.5-2.5l0,0
	C132.5,131.5,133.6,131.7,133.8,130.7C133.8,130.7,133.8,130.7,133.8,130.7z"/>
<path class="st1" d="M129.6,128.3c0.2,1,0.7,1.8,1.5,2.5l0,0c-0.2,0-1.3-0.1-1.5,0.9l0,0c-0.2-1-0.7-1.8-1.5-2.5l0,0
	C128.3,129.1,129.4,129.3,129.6,128.3C129.6,128.2,129.6,128.2,129.6,128.3z"/>
<path class="st1" d="M125.4,125.8c0.2,1,0.7,1.8,1.5,2.5l0,0c-0.2,0-1.3-0.1-1.5,0.8l0,0c-0.2-1-0.7-1.8-1.5-2.5l0,0
	C124.2,126.7,125.2,126.8,125.4,125.8C125.4,125.8,125.4,125.8,125.4,125.8z"/>
<path class="st1" d="M121.2,123.4c0.2,1,0.7,1.8,1.5,2.5l0,0c-0.2,0-1.3-0.1-1.5,0.9l0,0c-0.2-1-0.7-1.8-1.5-2.5l0,0
	C119.9,124.3,121,124.4,121.2,123.4C121.2,123.4,121.2,123.4,121.2,123.4z"/>
<path class="st1" d="M133.8,125.8c0.2,1,0.7,1.8,1.5,2.5l0,0c-0.2,0-1.3-0.1-1.5,0.8l0,0c-0.2-1-0.7-1.8-1.5-2.5l0,0
	C132.5,126.6,133.6,126.8,133.8,125.8C133.8,125.8,133.8,125.8,133.8,125.8z"/>
<path class="st1" d="M129.6,123.4c0.2,1,0.7,1.8,1.5,2.5l0,0c-0.2,0-1.3-0.1-1.5,0.9l0,0c-0.2-1-0.7-1.8-1.5-2.5l0,0
	C128.3,124.2,129.4,124.4,129.6,123.4C129.6,123.4,129.6,123.4,129.6,123.4z"/>
<path class="st1" d="M125.4,121c0.2,1,0.7,1.8,1.5,2.5l0,0c-0.2,0-1.3-0.1-1.5,0.8l0,0c-0.2-1-0.7-1.8-1.5-2.5l0,0
	C124.2,121.8,125.2,121.9,125.4,121C125.4,120.9,125.4,121,125.4,121z"/>
<path class="st1" d="M121.2,118.5c0.2,1,0.7,1.8,1.5,2.5l0,0c-0.2,0-1.3-0.1-1.5,0.9l0,0c-0.2-1-0.7-1.8-1.5-2.5l0,0
	C119.9,119.4,121,119.5,121.2,118.5C121.2,118.5,121.2,118.5,121.2,118.5z"/>
<path class="st1" d="M133.8,121c0.2,1,0.7,1.8,1.5,2.5l0,0c-0.2,0-1.3-0.1-1.5,0.8l0,0c-0.2-1-0.7-1.8-1.5-2.5l0,0
	C132.5,121.8,133.6,121.9,133.8,121C133.8,120.9,133.8,120.9,133.8,121z"/>
<path class="st1" d="M129.6,118.5c0.2,1,0.7,1.8,1.5,2.5l0,0c-0.2,0-1.3-0.1-1.5,0.9l0,0c-0.2-1-0.7-1.8-1.5-2.5l0,0
	C128.3,119.4,129.4,119.5,129.6,118.5C129.6,118.5,129.6,118.5,129.6,118.5z"/>
<path class="st1" d="M125.4,116.1c0.2,1,0.7,1.8,1.5,2.5l0,0c-0.2,0-1.3-0.1-1.5,0.8l0,0c-0.2-1-0.7-1.8-1.5-2.5l0,0
	C124.2,116.9,125.2,117.1,125.4,116.1C125.4,116.1,125.4,116.1,125.4,116.1z"/>
<path class="st1" d="M121.2,113.7c0.2,1,0.7,1.8,1.5,2.5l0,0c-0.2,0-1.3-0.1-1.5,0.9l0,0c-0.2-1-0.7-1.8-1.5-2.5l0,0
	C119.9,114.5,121,114.7,121.2,113.7C121.2,113.6,121.2,113.7,121.2,113.7z"/>
<path class="st1" d="M217.8,169.5c0.2,1,0.7,1.8,1.5,2.5l0,0c-0.2,0-1.3-0.1-1.5,0.9l0,0c-0.2-1-0.7-1.8-1.5-2.5l0,0
	C216.6,170.3,217.6,170.4,217.8,169.5C217.8,169.4,217.8,169.4,217.8,169.5z"/>
<path class="st1" d="M213.6,167c0.2,1,0.7,1.8,1.5,2.5l0,0c-0.2,0-1.3-0.1-1.5,0.8l0,0c-0.2-1-0.7-1.8-1.5-2.5l0,0
	C212.4,167.9,213.4,168,213.6,167z"/>
<path class="st1" d="M209.4,164.6c0.2,1,0.7,1.8,1.5,2.5l0,0c-0.2,0-1.3-0.1-1.5,0.9l0,0c-0.2-1-0.7-1.8-1.5-2.5l0,0
	C208.1,165.5,209.2,165.6,209.4,164.6C209.4,164.6,209.4,164.6,209.4,164.6z"/>
<path class="st1" d="M205.2,162.2c0.2,1,0.7,1.8,1.5,2.5l0,0c-0.2,0-1.3-0.1-1.5,0.8l0,0c-0.2-1-0.7-1.8-1.5-2.5l0,0
	C203.9,163,205,163.2,205.2,162.2z"/>
<path class="st1" d="M201,159.8c0.2,1,0.7,1.8,1.4,2.5l0,0c-0.2,0-1.3-0.1-1.4,0.9l0,0c-0.2-1-0.7-1.8-1.5-2.5l0,0
	C199.8,160.6,200.9,160.8,201,159.8C201,159.7,201,159.7,201,159.8z"/>
<path class="st1" d="M196.8,157.3c0.2,1,0.7,1.8,1.4,2.5l0,0c-0.2,0-1.3-0.1-1.4,0.8l0,0c-0.2-1-0.7-1.8-1.5-2.5l0,0
	C195.6,158.2,196.6,158.3,196.8,157.3C196.8,157.3,196.8,157.3,196.8,157.3z"/>
<path class="st1" d="M192.6,154.9c0.2,1,0.7,1.8,1.4,2.5l0,0c-0.2,0-1.3-0.1-1.4,0.8l0,0c-0.2-1-0.7-1.8-1.5-2.5l0,0
	C191.3,155.7,192.5,155.9,192.6,154.9C192.6,154.9,192.6,154.9,192.6,154.9z"/>
<path class="st1" d="M188.4,152.5c0.2,1,0.7,1.8,1.4,2.5l0,0c-0.2,0-1.3-0.1-1.4,0.8l0,0c-0.2-1-0.7-1.8-1.5-2.5l0,0
	C187.1,153.3,188.2,153.5,188.4,152.5C188.4,152.5,188.4,152.5,188.4,152.5z"/>
<path class="st1" d="M184.2,150c0.2,1,0.7,1.8,1.4,2.5l0,0c-0.2,0-1.3-0.1-1.4,0.8l0,0c-0.2-1-0.8-1.8-1.5-2.5l0,0
	C182.9,150.9,184,151,184.2,150C184.2,150,184.2,150,184.2,150z"/>
<path class="st1" d="M180,147.6c0.2,1,0.7,1.8,1.4,2.5l0,0c-0.2,0-1.3-0.1-1.4,0.8l0,0c-0.2-1-0.7-1.8-1.5-2.5l0,0
	C178.8,148.5,179.9,148.6,180,147.6C180,147.6,180,147.6,180,147.6z"/>
<path class="st1" d="M175.8,66.5c0.2,1,0.7,1.8,1.4,2.5l0,0c-0.2,0-1.3-0.1-1.4,0.8l0,0c-0.2-1-0.7-1.8-1.5-2.5l0,0
	C174.5,67.4,175.6,67.5,175.8,66.5C175.8,66.5,175.8,66.5,175.8,66.5z"/>
<path class="st1" d="M171.6,64.1c0.2,1,0.7,1.8,1.4,2.5l0,0c-0.2,0-1.3-0.1-1.4,0.8l0,0c-0.2-1-0.7-1.8-1.5-2.5l0,0
	C170.4,64.9,171.5,65.1,171.6,64.1C171.6,64.1,171.6,64.1,171.6,64.1z"/>
<path class="st1" d="M167.4,61.7c0.2,1,0.7,1.8,1.5,2.5l0,0c-0.2,0-1.3-0.1-1.5,0.8l0,0c-0.2-1-0.7-1.8-1.5-2.5l0,0
	C166.1,62.5,167.2,62.7,167.4,61.7C167.4,61.7,167.4,61.7,167.4,61.7z"/>
<path class="st1" d="M163.2,59.3c0.2,1,0.7,1.8,1.5,2.5l0,0c-0.2,0-1.3-0.1-1.5,0.8l0,0c-0.2-1-0.7-1.8-1.5-2.5l0,0
	C161.9,60.1,163,60.2,163.2,59.3C163.2,59.2,163.2,59.2,163.2,59.3z"/>
<path class="st1" d="M159,56.8c0.2,1,0.7,1.8,1.5,2.5l0,0c-0.2,0-1.3-0.1-1.5,0.8l0,0c-0.2-1-0.7-1.8-1.5-2.5l0,0
	C157.7,57.7,158.8,57.8,159,56.8C159,56.8,159,56.8,159,56.8z"/>
<path class="st1" d="M154.8,54.4c0.2,1,0.7,1.8,1.5,2.5l0,0c-0.2,0-1.3-0.1-1.5,0.8l0,0c-0.2-1-0.7-1.8-1.5-2.5l0,0
	C153.5,55.3,154.6,55.4,154.8,54.4C154.8,54.4,154.8,54.4,154.8,54.4z"/>
<path class="st1" d="M150.6,52c0.2,1,0.7,1.8,1.5,2.5l0,0c-0.2,0-1.3-0.1-1.5,0.8l0,0c-0.2-1-0.7-1.8-1.5-2.5l0,0
	C149.3,52.8,150.4,53,150.6,52C150.6,52,150.6,52,150.6,52z"/>
<path class="st1" d="M146.4,49.6c0.2,1,0.7,1.8,1.5,2.5l0,0c-0.2,0-1.3-0.1-1.5,0.8l0,0c-0.2-1-0.7-1.8-1.5-2.5l0,0
	C145.2,50.4,146.2,50.5,146.4,49.6C146.4,49.5,146.4,49.5,146.4,49.6z"/>
<path class="st1" d="M142.2,47.1c0.2,1,0.7,1.8,1.5,2.5l0,0c-0.2,0-1.3-0.2-1.5,0.8l0,0c-0.2-1-0.7-1.8-1.5-2.5l0,0
	C140.9,48,142,48.1,142.2,47.1C142.2,47.1,142.2,47.1,142.2,47.1z"/>
<path class="st1" d="M138,44.7c0.2,1,0.7,1.8,1.4,2.5l0,0c-0.2,0-1.3-0.1-1.5,0.8l0,0c-0.2-1-0.7-1.8-1.5-2.5l0,0
	C136.7,45.6,137.8,45.7,138,44.7C138,44.7,138,44.7,138,44.7z"/>
<path class="st1" d="M217.8,90.8c0.2,1,0.7,1.8,1.5,2.5l0,0c-0.2,0-1.3-0.1-1.5,0.8l0,0c-0.2-1-0.7-1.8-1.5-2.5l0,0
	C216.6,91.6,217.6,91.8,217.8,90.8C217.8,90.8,217.8,90.8,217.8,90.8z"/>
<path class="st1" d="M213.6,88.4c0.2,1,0.7,1.8,1.5,2.5l0,0c-0.2,0-1.3-0.1-1.5,0.8l0,0c-0.2-1-0.7-1.8-1.5-2.5l0,0
	C212.4,89.2,213.4,89.3,213.6,88.4z"/>
<path class="st1" d="M209.4,85.9c0.2,1,0.7,1.8,1.5,2.5l0,0c-0.2,0-1.3-0.1-1.5,0.8l0,0c-0.2-1-0.7-1.8-1.5-2.5l0,0
	C208.1,86.8,209.2,86.9,209.4,85.9C209.4,85.9,209.4,85.9,209.4,85.9z"/>
<path class="st1" d="M205.2,83.5c0.2,1,0.7,1.8,1.5,2.5l0,0c-0.2,0-1.3-0.1-1.5,0.9l0,0c-0.2-1-0.7-1.8-1.5-2.5l0,0
	C203.9,84.4,205,84.5,205.2,83.5C205.2,83.5,205.2,83.5,205.2,83.5z"/>
<path class="st1" d="M201,81.1c0.2,1,0.7,1.8,1.4,2.5l0,0c-0.2,0-1.3-0.1-1.4,0.8l0,0c-0.2-1-0.7-1.8-1.5-2.5l0,0
	C199.8,81.9,200.9,82.1,201,81.1C201,81.1,201,81.1,201,81.1z"/>
<path class="st1" d="M196.8,78.7c0.2,1,0.7,1.8,1.4,2.5l0,0c-0.2,0-1.3-0.1-1.4,0.8l0,0c-0.2-1-0.7-1.8-1.5-2.5l0,0
	C195.6,79.5,196.6,79.7,196.8,78.7C196.8,78.6,196.8,78.7,196.8,78.7z"/>
<path class="st1" d="M192.6,76.2c0.2,1,0.7,1.8,1.4,2.5l0,0c-0.2,0-1.3-0.1-1.4,0.8l0,0c-0.2-1-0.7-1.8-1.5-2.5l0,0
	C191.3,77.1,192.5,77.2,192.6,76.2C192.6,76.2,192.6,76.2,192.6,76.2z"/>
<path class="st1" d="M188.4,73.8c0.2,1,0.7,1.8,1.4,2.5l0,0c-0.2,0-1.3-0.1-1.4,0.8l0,0c-0.2-1-0.7-1.8-1.5-2.5l0,0
	C187.1,74.6,188.2,74.8,188.4,73.8C188.4,73.8,188.4,73.8,188.4,73.8z"/>
<path class="st1" d="M184.2,71.4c0.2,1,0.7,1.8,1.4,2.5l0,0c-0.2,0-1.3-0.1-1.4,0.8l0,0c-0.2-1-0.8-1.8-1.5-2.5l0,0
	C182.9,72.2,184,72.4,184.2,71.4C184.2,71.4,184.2,71.4,184.2,71.4z"/>
<path class="st1" d="M180,69c0.2,1,0.7,1.8,1.4,2.5l0,0c-0.2,0-1.3-0.1-1.4,0.8l0,0c-0.2-1-0.7-1.8-1.5-2.5l0,0
	C178.8,69.8,179.9,69.9,180,69C180,68.9,180,68.9,180,69z"/>
<path class="st1" d="M175.8,61.7c0.2,1,0.7,1.8,1.4,2.5l0,0c-0.2,0-1.3-0.1-1.4,0.8l0,0c-0.2-1-0.7-1.8-1.5-2.5l0,0
	C174.5,62.5,175.6,62.7,175.8,61.7C175.8,61.6,175.8,61.7,175.8,61.7z"/>
<path class="st1" d="M171.6,59.2c0.2,1,0.7,1.8,1.4,2.5l0,0c-0.2,0-1.3-0.1-1.4,0.8l0,0c-0.2-1-0.7-1.8-1.5-2.5l0,0
	C170.4,60.1,171.5,60.2,171.6,59.2C171.6,59.2,171.6,59.2,171.6,59.2z"/>
<path class="st1" d="M167.4,56.8c0.2,1,0.7,1.8,1.5,2.5l0,0c-0.2,0-1.3-0.1-1.5,0.8l0,0c-0.2-1-0.7-1.8-1.5-2.5l0,0
	C166.1,57.6,167.2,57.8,167.4,56.8C167.4,56.8,167.4,56.8,167.4,56.8z"/>
<path class="st1" d="M163.2,54.4c0.2,1,0.7,1.8,1.5,2.5l0,0c-0.2,0-1.3-0.1-1.5,0.8l0,0c-0.2-1-0.7-1.8-1.5-2.5l0,0
	C161.9,55.2,163,55.4,163.2,54.4C163.2,54.4,163.2,54.4,163.2,54.4z"/>
<path class="st1" d="M159,52c0.2,1,0.7,1.8,1.4,2.5l0,0c-0.2,0-1.3-0.2-1.5,0.8l0,0c-0.2-1-0.7-1.8-1.4-2.5l0,0
	C157.7,52.8,158.8,52.9,159,52C159,51.9,159,52,159,52z"/>
<path class="st1" d="M154.8,49.5c0.2,1,0.7,1.8,1.5,2.5l0,0c-0.2,0-1.3-0.1-1.5,0.8l0,0c-0.2-1-0.7-1.8-1.5-2.5l0,0
	C153.5,50.4,154.6,50.5,154.8,49.5C154.8,49.5,154.8,49.5,154.8,49.5z"/>
<path class="st1" d="M150.6,47.1c0.2,1,0.7,1.8,1.5,2.5l0,0c-0.2,0-1.3-0.2-1.5,0.8l0,0c-0.2-1-0.7-1.8-1.5-2.5l0,0
	C149.3,47.9,150.4,48.1,150.6,47.1C150.6,47.1,150.6,47.1,150.6,47.1z"/>
<path class="st1" d="M146.4,44.7c0.2,1,0.7,1.8,1.5,2.5l0,0c-0.2,0-1.3-0.1-1.5,0.8l0,0c-0.2-1-0.7-1.8-1.5-2.5l0,0
	C145.2,45.5,146.2,45.7,146.4,44.7C146.4,44.7,146.4,44.7,146.4,44.7z"/>
<path class="st1" d="M142.2,42.3c0.2,1,0.7,1.8,1.4,2.5l0,0c-0.2,0-1.3-0.2-1.5,0.8l0,0c-0.2-1-0.7-1.8-1.5-2.5l0,0
	C140.9,43.1,142,43.3,142.2,42.3C142.2,42.2,142.2,42.2,142.2,42.3z"/>
<path class="st1" d="M138,39.8c0.2,1,0.7,1.8,1.4,2.5l0,0c-0.2,0-1.3-0.1-1.5,0.8l0,0c-0.2-1-0.7-1.8-1.5-2.5l0,0
	C136.7,40.7,137.8,40.8,138,39.8C138,39.8,138,39.8,138,39.8z"/>
<path class="st1" d="M217.8,85.9c0.2,1,0.7,1.8,1.5,2.5l0,0c-0.2,0-1.3-0.1-1.5,0.8l0,0c-0.2-1-0.7-1.8-1.5-2.5l0,0
	C216.6,86.7,217.6,86.9,217.8,85.9C217.8,85.9,217.8,85.9,217.8,85.9z"/>
<path class="st1" d="M213.6,83.5c0.2,1,0.7,1.8,1.5,2.5l0,0c-0.2,0-1.3-0.1-1.5,0.9l0,0c-0.2-1-0.7-1.8-1.5-2.5l0,0
	C212.4,84.3,213.4,84.5,213.6,83.5C213.6,83.5,213.6,83.5,213.6,83.5z"/>
<path class="st1" d="M209.4,81.1c0.2,1,0.7,1.8,1.5,2.5l0,0c-0.2,0-1.3-0.1-1.5,0.8l0,0c-0.2-1-0.7-1.8-1.5-2.5l0,0
	C208.1,81.9,209.2,82,209.4,81.1C209.4,81,209.4,81.1,209.4,81.1z"/>
<path class="st1" d="M205.2,78.6c0.2,1,0.7,1.8,1.5,2.5l0,0c-0.2,0-1.3-0.1-1.5,0.8l0,0c-0.2-1-0.7-1.8-1.5-2.5l0,0
	C203.9,79.5,205,79.6,205.2,78.6C205.2,78.6,205.2,78.6,205.2,78.6z"/>
<path class="st1" d="M201,76.2c0.2,1,0.7,1.8,1.4,2.5l0,0c-0.2,0-1.3-0.1-1.4,0.8l0,0c-0.2-1-0.7-1.8-1.5-2.5l0,0
	C199.8,77.1,200.9,77.2,201,76.2C201,76.2,201,76.2,201,76.2z"/>
<path class="st1" d="M196.8,73.8c0.2,1,0.7,1.8,1.4,2.5l0,0c-0.2,0-1.3-0.1-1.4,0.8l0,0c-0.2-1-0.7-1.8-1.5-2.5l0,0
	C195.6,74.6,196.6,74.8,196.8,73.8C196.8,73.8,196.8,73.8,196.8,73.8z"/>
<path class="st1" d="M192.6,71.4c0.2,1,0.7,1.8,1.4,2.5l0,0c-0.2,0-1.3-0.1-1.4,0.8l0,0c-0.2-1-0.7-1.8-1.5-2.5l0,0
	C191.3,72.2,192.5,72.4,192.6,71.4C192.6,71.3,192.6,71.3,192.6,71.4z"/>
<path class="st1" d="M188.4,68.9c0.2,1,0.7,1.8,1.4,2.5l0,0c-0.2,0-1.3-0.1-1.4,0.8l0,0c-0.2-1-0.7-1.8-1.5-2.5l0,0
	C187.1,69.8,188.2,69.9,188.4,68.9C188.4,68.9,188.4,68.9,188.4,68.9z"/>
<path class="st1" d="M184.2,66.5c0.2,1,0.7,1.8,1.4,2.5l0,0c-0.2,0-1.3-0.1-1.4,0.8l0,0c-0.2-1-0.8-1.8-1.5-2.5l0,0
	C182.9,67.4,184,67.5,184.2,66.5C184.2,66.5,184.2,66.5,184.2,66.5z"/>
<path class="st1" d="M180,64.1c0.2,1,0.7,1.8,1.4,2.5l0,0c-0.2,0-1.3-0.1-1.4,0.8l0,0c-0.2-1-0.7-1.8-1.5-2.5l0,0
	C178.8,64.9,179.9,65.1,180,64.1C180,64.1,180,64.1,180,64.1z"/>
<path class="st1" d="M133.8,42.3c0.2,1,0.7,1.8,1.4,2.5l0,0c-0.2,0-1.3-0.2-1.5,0.8l0,0c-0.2-1-0.7-1.8-1.5-2.5l0,0
	C132.5,43.1,133.6,43.3,133.8,42.3C133.8,42.3,133.8,42.3,133.8,42.3z"/>
<path class="st1" d="M129.6,39.9c0.2,1,0.7,1.8,1.5,2.5l0,0c-0.2,0-1.3-0.1-1.5,0.8l0,0c-0.2-1-0.7-1.8-1.5-2.5l0,0
	C128.3,40.7,129.4,40.8,129.6,39.9C129.6,39.8,129.6,39.8,129.6,39.9z"/>
<path class="st1" d="M125.4,37.4c0.2,1,0.7,1.8,1.5,2.5l0,0c-0.2,0-1.3-0.2-1.5,0.8l0,0c-0.2-1-0.7-1.8-1.5-2.5l0,0
	C124.2,38.3,125.2,38.4,125.4,37.4C125.4,37.4,125.4,37.4,125.4,37.4z"/>
<path class="st1" d="M121.2,35c0.2,1,0.7,1.8,1.5,2.5l0,0c-0.2,0-1.3-0.1-1.5,0.8l0,0c-0.2-1-0.7-1.8-1.5-2.5l0,0
	C119.9,35.9,121,36,121.2,35C121.2,35,121.2,35,121.2,35z"/>
<path class="st1" d="M133.8,37.4c0.2,1,0.7,1.8,1.5,2.5l0,0c-0.2,0-1.3-0.2-1.5,0.8l0,0c-0.2-1-0.7-1.8-1.5-2.5l0,0
	C132.5,38.2,133.6,38.4,133.8,37.4C133.8,37.4,133.8,37.4,133.8,37.4z"/>
<path class="st1" d="M129.6,35c0.2,1,0.7,1.8,1.5,2.5l0,0c-0.2,0-1.3-0.1-1.5,0.8l0,0c-0.2-1-0.7-1.8-1.5-2.5l0,0
	C128.3,35.8,129.4,36,129.6,35C129.6,35,129.6,35,129.6,35z"/>
<path class="st1" d="M125.4,32.6c0.2,1,0.7,1.8,1.5,2.5l0,0c-0.2,0-1.3-0.2-1.5,0.8l0,0c-0.2-1-0.7-1.8-1.5-2.5l0,0
	C124.2,33.4,125.2,33.5,125.4,32.6C125.4,32.5,125.4,32.6,125.4,32.6z"/>
<path class="st1" d="M121.2,30.1c0.2,1,0.7,1.8,1.5,2.5l0,0c-0.2,0-1.3-0.1-1.5,0.8l0,0c-0.2-1-0.7-1.8-1.5-2.5l0,0
	C119.9,31,121,31.1,121.2,30.1C121.2,30.1,121.2,30.1,121.2,30.1z"/>
<polygon class="st0" points="113.8,97.4 99,88.9 99,85.2 113.8,93.8 "/>
<path class="st1" d="M114.4,98.4l-15.9-9.2v-5l15.9,9.2V98.4z M99.6,88.6l13.7,7.9v-2.4l-13.7-7.9V88.6z"/>
<polygon class="st0" points="140.1,112.6 117.3,99.5 117.3,95.8 140.1,108.9 "/>
<path class="st1" d="M140.6,113.6l-23.8-13.8v-5l23.8,13.8V113.6z M117.9,99.2l21.6,12.5v-2.4l-21.6-12.4V99.2z"/>
<polygon class="st2" points="140.1,104.9 99,81.2 99,72.1 140.1,95.8 "/>
<path class="st1" d="M140.6,105.9L98.5,81.5V71.1l42.1,24.3V105.9z M99.6,80.9l39.9,23v-7.8l-39.9-23L99.6,80.9z"/>
<polygon class="st0" points="139.9,91.6 99,67.9 99,64 139.9,87.6 "/>
<path class="st1" d="M140.5,92.5l-42-24.3V63l42,24.3V92.5z M99.6,67.6l39.8,23V88L99.6,65V67.6z"/>
<path class="st1" d="M148.2,110.7v3.6"/>
<polygon class="st0" points="213.6,152.5 168.9,126.9 168.9,121.9 213.6,147.6 "/>
<polygon class="st0" points="190.4,106.3 147.8,81.9 147.8,70.1 190.4,94.5 "/>
<rect x="189.8" y="53" transform="matrix(0.502 -0.8649 0.8649 0.502 46.6001 192.3955)" class="st1" width="1.1" height="5.4"/>
<rect x="211.1" y="49.3" transform="matrix(0.5 -0.866 0.866 0.5 46.9145 217.2657)" class="st1" width="1.1" height="37.5"/>
<path class="st1" d="M231.7,210.2l-0.6-1l6.2-3.8c1.3-0.8,2.1-2.2,2.1-3.8v-24.5h1.1v24.6c0,1.9-1,3.7-2.7,4.7L231.7,210.2z"/>
<path class="st2" d="M106.6,61.4l-2.6-1.5v-8.1l-0.2,0.1l-1.4,0.5l-1.2-2.5l3.5-1.2l1.9,1.1V61.4z M104.6,59.5l1.4,0.8V50.2
	l-1.4-0.8l-2.5,0.9l0.7,1.4l0.8-0.3c0.2-0.1,0.4-0.2,0.6-0.3l0.5-0.3l-0.1,2.7L104.6,59.5z"/>
<path class="st2" d="M113.1,65c-0.6,0-1.2-0.2-1.7-0.6c-1.2-0.7-2.1-1.7-2.6-3c-0.6-1.5-0.9-3.1-0.9-4.8c0-2,0.3-3.3,0.9-4
	s1.6-0.7,2.9,0c1.2,0.7,2.1,1.7,2.6,3c0.6,1.5,0.9,3.2,0.9,4.8c0,2-0.3,3.3-0.9,4C114,64.8,113.6,65,113.1,65z M110.1,52.8
	c-0.3,0-0.6,0.1-0.7,0.3c-0.3,0.4-0.7,1.3-0.7,3.6c0,1.5,0.2,3.1,0.8,4.5c0.5,1.1,1.3,2.1,2.3,2.7c1.5,0.8,1.9,0.3,2.1,0.1
	c0.5-0.5,0.7-1.7,0.7-3.5c0-1.5-0.2-3.1-0.8-4.5c-0.5-1.1-1.3-2.1-2.3-2.7C111.1,53,110.6,52.8,110.1,52.8z M112.1,62.8
	c-0.2,0-0.4-0.1-0.6-0.2c-0.6-0.4-1-1-1.2-1.6c-0.2-1-0.3-2.1-0.3-3.1c-0.1-1,0.1-1.9,0.3-2.8c0.1-0.3,0.3-0.5,0.6-0.6
	c0.3-0.1,0.6,0,0.9,0.2c0.6,0.4,1,1,1.1,1.6c0.3,1,0.4,2.1,0.3,3.2c0.1,0.9-0.1,1.9-0.3,2.8c-0.1,0.3-0.3,0.5-0.6,0.6
	C112.3,62.8,112.2,62.8,112.1,62.8L112.1,62.8z M111.2,55L111.2,55c-0.2,0.1-0.2,0.1-0.2,0.2c-0.2,0.8-0.3,1.7-0.3,2.6
	c0,1,0.1,2,0.3,3c0.1,0.5,0.4,1,0.9,1.3c0.1,0.1,0.2,0.1,0.4,0.1c0.1,0,0.2-0.2,0.2-0.2c0.2-0.8,0.3-1.7,0.3-2.6c0-1-0.1-2-0.3-3
	c-0.1-0.5-0.4-1-0.9-1.3C111.4,55,111.3,55,111.2,55L111.2,55z"/>
<path class="st2" d="M120.7,69.3c-0.6,0-1.2-0.2-1.7-0.6c-1.2-0.7-2.1-1.7-2.6-3c-0.6-1.5-0.9-3.2-0.9-4.8c0-2,0.3-3.3,0.9-4
	s1.6-0.7,2.9,0c1.2,0.7,2.1,1.7,2.6,3c0.6,1.5,0.9,3.2,0.9,4.8c0,2-0.3,3.3-0.9,4C121.6,69.1,121.1,69.3,120.7,69.3z M117.7,57.1
	c-0.3,0-0.6,0.1-0.7,0.3c-0.3,0.4-0.7,1.3-0.7,3.6c0,1.5,0.2,3.1,0.8,4.5c0.5,1.1,1.3,2.1,2.3,2.7c1.5,0.8,1.9,0.3,2.1,0.1
	c0.3-0.4,0.7-1.3,0.7-3.5c0-1.6-0.2-3.1-0.8-4.5c-0.5-1.1-1.3-2.1-2.3-2.7C118.6,57.3,118.1,57.1,117.7,57.1L117.7,57.1z
	 M119.7,67.1c-0.2,0-0.4-0.1-0.6-0.2c-0.6-0.4-1-1-1.2-1.6c-0.2-1-0.3-2.1-0.3-3.1c-0.1-1,0-1.9,0.3-2.8c0.1-0.3,0.3-0.5,0.6-0.6
	c0.3-0.1,0.6,0,0.9,0.2c0.6,0.4,1,1,1.1,1.6c0.2,1,0.4,2.1,0.3,3.2c0.1,0.9-0.1,1.9-0.3,2.8c-0.1,0.3-0.3,0.5-0.6,0.6
	C119.8,67.1,119.7,67.1,119.7,67.1L119.7,67.1z M118.8,59.3L118.8,59.3c-0.1,0-0.2,0.2-0.2,0.2c-0.2,0.8-0.3,1.7-0.3,2.6
	c0,1,0.1,2,0.3,3c0.1,0.5,0.4,1,0.9,1.3c0.1,0.1,0.2,0.1,0.4,0.1c0.1,0,0.2-0.2,0.2-0.2c0.2-0.8,0.3-1.7,0.3-2.6c0-1-0.1-2-0.3-3
	c-0.1-0.5-0.4-1-0.9-1.3C119,59.4,118.8,59.3,118.8,59.3L118.8,59.3z"/>
<path class="st2" d="M128.2,73.7c-0.6,0-1.2-0.2-1.7-0.6c-1.2-0.7-2.1-1.7-2.6-3c-0.6-1.5-0.9-3.2-0.9-4.8c0-2,0.3-3.3,0.9-4
	s1.6-0.7,2.9,0c1.2,0.7,2.1,1.7,2.6,3c0.6,1.5,0.9,3.2,0.9,4.8c0,2-0.3,3.3-0.9,4C129.1,73.5,128.7,73.7,128.2,73.7z M125.2,61.5
	c-0.3,0-0.6,0.1-0.7,0.3c-0.3,0.4-0.7,1.3-0.7,3.6c0,1.5,0.2,3.1,0.8,4.5c0.5,1.1,1.3,2.1,2.3,2.7c1.5,0.8,1.9,0.3,2.1,0.1
	c0.5-0.5,0.7-1.7,0.7-3.5c0-1.6-0.2-3.1-0.8-4.5c-0.5-1.1-1.3-2.1-2.3-2.7C126.1,61.6,125.7,61.5,125.2,61.5L125.2,61.5z
	 M127.2,71.5c-0.2,0-0.4-0.1-0.6-0.2c-0.6-0.4-1-1-1.1-1.6c-0.2-1-0.4-2.1-0.3-3.1c-0.1-1,0.1-1.9,0.3-2.8c0.1-0.3,0.3-0.5,0.6-0.6
	c0.3-0.1,0.6,0,0.9,0.2c0.6,0.4,1,1,1.1,1.6c0.3,1,0.4,2.1,0.3,3.2c0.1,0.9-0.1,1.9-0.3,2.8c-0.1,0.3-0.3,0.5-0.6,0.6
	C127.4,71.4,127.3,71.5,127.2,71.5L127.2,71.5z M126.3,63.7L126.3,63.7c-0.1,0-0.2,0.2-0.2,0.2c-0.2,0.8-0.3,1.7-0.3,2.6
	c0,1,0.1,2,0.3,3c0.1,0.5,0.4,1,0.9,1.3c0.1,0.1,0.2,0.1,0.4,0.1c0.1,0,0.1-0.2,0.2-0.2c0.2-0.8,0.3-1.7,0.3-2.6c0-1-0.1-2-0.3-3
	c-0.1-0.5-0.4-1-0.9-1.3C126.5,63.7,126.4,63.7,126.3,63.7L126.3,63.7z"/>
<path class="st2" d="M136.2,79.5l-1.5-0.9v-1.5c-1-0.6-1.9-1.3-2.7-2.2l-0.1-0.1v-3l0.6,0.7c0.4,0.5,0.9,0.9,1.3,1.3
	c0.3,0.3,0.6,0.5,0.9,0.7v-1.6l-0.3-0.3c-0.7-0.7-1.4-1.5-1.9-2.4c-0.4-0.7-0.6-1.4-0.6-2.1c-0.1-0.7,0.3-1.4,0.9-1.7
	c0.6-0.2,1.3-0.1,1.8,0.2v-1.2l1.5,0.9v1.1c0.9,0.6,1.8,1.4,2.6,2.2l0.1,0.2l-0.9,2l-0.3-0.3c-0.5-0.5-1-1-1.5-1.4v1.4
	c0.6,0.6,1.2,1.3,1.7,1.9c0.3,0.4,0.6,0.9,0.8,1.4c0.2,0.4,0.3,0.9,0.3,1.4c0.1,0.7-0.3,1.5-1,1.8c-0.6,0.2-1.3,0.1-1.9-0.2
	L136.2,79.5z M135.4,78.2l0.2,0.1v-1.5l0.5,0.2c0.5,0.3,1.2,0.5,1.8,0.3c0.1-0.1,0.5-0.2,0.5-1.2c0-0.4-0.1-0.8-0.2-1.2
	c-0.2-0.5-0.5-0.9-0.8-1.3c-0.5-0.7-1.1-1.4-1.8-2l-0.1-0.1v-2.9l0.5,0.3c0.6,0.4,1.2,0.9,1.8,1.5l0.3-0.8c-0.7-0.8-1.6-1.4-2.5-2
	l-0.1-0.1v-1.1l-0.2-0.1v1.1l-0.5-0.2c-0.5-0.3-1.2-0.4-1.8-0.3c-0.2,0.1-0.5,0.3-0.5,1c0,0.6,0.2,1.3,0.5,1.8
	c0.5,0.8,1.1,1.6,1.8,2.2l0.5,0.5v3l-0.5-0.3c-0.5-0.3-1-0.7-1.5-1.1c-0.3-0.3-0.6-0.5-0.8-0.8v1c0.8,0.8,1.6,1.5,2.6,2.1l0.2,0.1
	L135.4,78.2z M136.4,76c-0.2,0-0.4-0.1-0.6-0.1l-0.2-0.1v-2.9l0.6,0.6c0.3,0.3,0.5,0.6,0.7,0.9c0.2,0.2,0.3,0.5,0.3,0.8
	c0,0.3-0.1,0.5-0.3,0.7C136.7,76,136.5,76,136.4,76L136.4,76z M136.2,75.4c0.1,0,0.2,0,0.2,0c0,0,0-0.1,0-0.2c0-0.2-0.1-0.3-0.2-0.5
	l-0.1-0.1L136.2,75.4z M135.4,71.5l-0.6-0.6c-0.3-0.3-0.5-0.5-0.7-0.8c-0.2-0.2-0.2-0.5-0.2-0.8c0-0.2,0.1-0.5,0.3-0.6
	c0.3-0.2,0.7-0.2,1,0l0.2,0.1L135.4,71.5z M134.6,69.1C134.6,69.1,134.6,69.2,134.6,69.1c0,0.3,0.1,0.4,0.1,0.6v0.1v-0.6
	C134.7,69.1,134.6,69.1,134.6,69.1L134.6,69.1z"/>
<path class="st1" d="M105.5,59.7l-2-1.2v-6.3v-1v-1.1c-0.2,0.1-0.5,0.3-0.7,0.3l-1.1,0.4l-1-1.9l3-1l1.6,0.9L105.5,59.7z"/>
<path class="st1" d="M114.2,59.2c0,1.9-0.3,3.2-0.8,3.8c-0.5,0.6-1.4,0.6-2.5-0.1c-1.1-0.7-2-1.6-2.5-2.8c-0.6-1.5-0.9-3.1-0.8-4.7
	c0-1.9,0.3-3.2,0.8-3.8s1.4-0.6,2.5,0.1c1.1,0.7,2,1.7,2.5,2.8C114,56.1,114.3,57.6,114.2,59.2z M109.6,56.6c0,1,0.1,2,0.3,3
	c0.1,0.6,0.5,1.1,1,1.4c0.5,0.3,0.8,0.2,1-0.3c0.3-0.9,0.4-1.8,0.3-2.7c0-1-0.1-2.1-0.3-3.1c-0.1-0.6-0.5-1.1-1-1.4
	c-0.5-0.3-0.8-0.2-1,0.3C109.7,54.7,109.6,55.7,109.6,56.6L109.6,56.6z"/>
<path class="st1" d="M121.8,63.6c0,1.9-0.3,3.2-0.8,3.8c-0.5,0.6-1.4,0.6-2.5-0.1c-1.1-0.7-2-1.6-2.5-2.8c-0.6-1.5-0.9-3.1-0.8-4.7
	c0-1.9,0.3-3.2,0.8-3.8s1.4-0.6,2.5,0.1c1.1,0.7,2,1.7,2.5,2.8C121.5,60.4,121.8,62,121.8,63.6z M117.2,60.9c0,1,0.1,2,0.3,3
	c0.1,0.6,0.5,1.1,1,1.4c0.3,0.2,0.7,0.2,0.9-0.1c0.1-0.1,0.1-0.1,0.1-0.2c0.3-0.9,0.4-1.8,0.3-2.7c0-1-0.1-2.1-0.3-3.1
	c-0.1-0.6-0.5-1.1-1-1.5c-0.5-0.3-0.8-0.2-1,0.3C117.2,59.1,117.1,60,117.2,60.9z"/>
<path class="st1" d="M129.3,67.9c0,1.9-0.3,3.2-0.8,3.8s-1.4,0.6-2.5-0.1c-1.1-0.7-2-1.6-2.5-2.8c-0.6-1.5-0.9-3.1-0.8-4.7
	c0-1.9,0.3-3.2,0.8-3.8s1.4-0.6,2.5,0.1c1.1,0.7,2,1.7,2.5,2.9C129.1,64.8,129.4,66.3,129.3,67.9z M124.7,65.3c0,1,0.1,2,0.3,3
	c0.1,0.6,0.5,1.1,1,1.4c0.5,0.3,0.8,0.2,1-0.3c0.3-0.9,0.4-1.8,0.3-2.7c0-1-0.1-2-0.3-3c-0.1-0.6-0.5-1.1-1-1.5
	c-0.5-0.3-0.8-0.2-1,0.3C124.7,63.5,124.6,64.4,124.7,65.3z"/>
<path class="st1" d="M138.1,75c0,0.8-0.2,1.3-0.7,1.5c-0.7,0.2-1.5,0-2.1-0.3v1.5l-0.9-0.5v-1.5c-1-0.6-2-1.4-2.8-2.2v-2
	c0.4,0.5,0.9,0.9,1.4,1.3c0.4,0.4,0.9,0.8,1.4,1.1v-2.3l-0.4-0.4c-0.7-0.7-1.3-1.5-1.8-2.3c-0.3-0.6-0.5-1.3-0.5-2
	c0-0.7,0.2-1.2,0.7-1.3c0.7-0.1,1.4,0,2,0.3v-1.1l0.9,0.5v1.1c1,0.6,1.9,1.4,2.7,2.2l-0.6,1.4c-0.6-0.7-1.3-1.3-2.1-1.8v2.2
	c0.6,0.6,1.2,1.3,1.8,2c0.3,0.4,0.6,0.9,0.8,1.3C137.9,74.1,138,74.6,138.1,75z M133.5,68c0,0.2,0.1,0.5,0.2,0.7
	c0.2,0.3,0.4,0.6,0.6,0.8v-1.8C133.8,67.5,133.5,67.6,133.5,68L133.5,68z M136.1,74c0-0.2-0.1-0.5-0.2-0.7c-0.2-0.3-0.4-0.6-0.7-0.8
	v1.8C135.8,74.6,136.1,74.5,136.1,74L136.1,74z"/>
<path class="st2" d="M259.3,112c0-17.6-12.3-39-27.6-47.8c-7-4.1-13.5-4.7-18.3-2.5L213,62l-5,2.8l-2.8,4.9c-2.6,3.3-1,4.4-1,10.6
	c0,17.6,12.3,39,27.6,47.7c5.4,3.1,3.9,2.9,8.2,2.3l6.5,2.4l4.7-2.7l0.4-0.2C256.4,126.8,259.3,120.7,259.3,112z"/>
<path class="st1" d="M246.4,133.2l-6.6-2.4l-0.9,0.1c-2.5,0.4-2.7,0.4-5.2-1.2c-0.6-0.4-1.3-0.8-2.3-1.4
	c-15.3-8.9-27.8-30.5-27.8-48.2c0-1.5-0.1-3.1-0.3-4.6c-0.3-2.4-0.5-3.9,1.4-6.3l2.8-5l5.6-3.1c5.3-2.3,12-1.4,18.9,2.6
	c15.3,8.9,27.8,30.5,27.8,48.2c0,8.5-2.9,15-8.1,18.1l-0.4,0.2L246.4,133.2z M239.9,129.7l6.4,2.3l4.9-2.8c4.8-3,7.5-9.1,7.5-17.2
	c0-17.4-12.2-38.6-27.3-47.3c-6.6-3.8-12.9-4.7-17.8-2.5l-5.2,2.9l-2.7,4.7c-1.6,2.1-1.5,3.2-1.2,5.5c0.2,1.6,0.3,3.2,0.3,4.7
	c0,17.4,12.2,38.6,27.3,47.3c1,0.6,1.7,1,2.3,1.4c2.3,1.4,2.3,1.4,4.5,1L239.9,129.7L239.9,129.7z"/>
<path class="st1" d="M218.1,115.7c3.8,4.9,8.5,9,13.8,12.2c5.4,3.1,3.9,2.9,8.2,2.3l6.5,2.4l4.7-2.7l0.4-0.2c4.8-3,7.8-9.1,7.8-17.7
	c0-7.9-2.5-16.6-6.6-24.5l-23.4,12.9L218.1,115.7z"/>
<ellipse transform="matrix(0.866 -0.5 0.5 0.866 -18.7908 126.9449)" class="st2" cx="227.5" cy="98.5" rx="22.5" ry="39"/>
<path class="st1" d="M239.8,134.7c-4.5-0.2-8.8-1.5-12.6-3.9c-15.3-8.9-27.9-30.5-27.9-48.2c0-8.7,3-15.2,8.4-18.3s12.5-2.4,20,1.9
	c15.3,8.9,27.8,30.5,27.8,48.2c0,8.7-3,15.2-8.3,18.3C245,134.1,242.4,134.7,239.8,134.7z M215.2,63.5c-2.4,0-4.8,0.6-6.9,1.8
	c-5,2.9-7.8,9.1-7.8,17.4c0,17.4,12.2,38.6,27.3,47.3c7.2,4.1,13.9,4.8,18.9,1.9s7.8-9.1,7.8-17.4c0-17.4-12.2-38.6-27.3-47.3
	C223.6,64.9,219.4,63.7,215.2,63.5z"/>
<ellipse transform="matrix(0.866 -0.5 0.5 0.866 -18.7894 126.9399)" class="st0" cx="227.5" cy="98.5" rx="19.2" ry="33.2"/>
<path class="st1" d="M238,129.4c-3.8-0.1-7.5-1.3-10.8-3.3c-13.1-7.6-23.8-26-23.8-41.1c0-7.4,2.5-13,7.2-15.7s10.7-2.1,17.2,1.6
	c13.1,7.6,23.8,26,23.8,41.1c0,7.4-2.5,13-7.2,15.7C242.4,128.9,240.2,129.4,238,129.4z M217,68.8c-2,0-4.1,0.5-5.8,1.5
	c-4.2,2.4-6.6,7.7-6.6,14.7c0,14.8,10.4,32.8,23.2,40.2c6.1,3.5,11.8,4.1,16,1.6c4.2-2.5,6.6-7.7,6.6-14.7
	c0-14.8-10.4-32.8-23.2-40.2C224.1,70,220.6,68.9,217,68.8L217,68.8z"/>
<path class="st2" d="M227.4,86l-1.3,13.7l2.7,1.5l-1.2-15.2C227.5,86,227.4,85.9,227.4,86z"/>
<path class="st1" d="M229.4,102.2l-3.9-2.2l1.4-14.6h0.5c0.4,0,0.6,0.3,0.7,0.6L229.4,102.2z M226.7,99.4l1.4,0.8l-0.7-8.6
	L226.7,99.4z"/>
<rect x="234.2" y="93.9" transform="matrix(8.963770e-02 -0.996 0.996 8.963770e-02 114.3249 324.6764)" class="st1" width="1.1" height="11.7"/>
<rect x="226" y="75.9" transform="matrix(8.726535e-03 -1 1 8.726535e-03 149.1397 303.1622)" class="st1" width="3" height="0.9"/>
<rect x="229.5" y="80" transform="matrix(0.1104 -0.9939 0.9939 0.1104 125.4659 300.9972)" class="st1" width="2.8" height="0.9"/>
<rect x="230.2" y="78.7" transform="matrix(0.213 -0.977 0.977 0.213 104.8292 288.4684)" class="st1" width="2.7" height="0.9"/>
<rect x="232.2" y="80.5" transform="matrix(0.3312 -0.9436 0.9436 0.3312 79.8031 274.3694)" class="st1" width="2.5" height="0.9"/>
<rect x="234.1" y="82.4" transform="matrix(0.4574 -0.8893 0.8893 0.4574 54.0396 254.183)" class="st1" width="2.4" height="0.9"/>
<rect x="235.9" y="84.4" transform="matrix(0.5886 -0.8084 0.8084 0.5886 28.9211 226.5449)" class="st1" width="2.2" height="0.9"/>
<rect x="237.7" y="86.7" transform="matrix(0.7153 -0.6988 0.6988 0.7153 7.0924 191.6582)" class="st1" width="2.2" height="0.9"/>
<rect x="239.3" y="89.1" transform="matrix(0.8282 -0.5605 0.5605 0.8282 -8.8747 150.0957)" class="st1" width="2.1" height="0.9"/>
<rect x="240.7" y="91.5" transform="matrix(0.9155 -0.4024 0.4024 0.9155 -16.5723 105.0636)" class="st1" width="2.1" height="0.9"/>
<rect x="241.9" y="94" transform="matrix(0.9717 -0.2363 0.2363 0.9717 -15.4382 60.1069)" class="st1" width="2.2" height="0.9"/>
<rect x="244.1" y="98.2" transform="matrix(0.9976 -6.982913e-02 6.982913e-02 0.9976 -6.2901 17.3659)" class="st1" width="2.3" height="0.9"/>
<rect x="246.3" y="97.1" transform="matrix(7.974522e-02 -0.9968 0.9968 7.974522e-02 129.0691 336.3647)" class="st1" width="0.9" height="2.4"/>
<rect x="245.3" y="100.9" transform="matrix(0.2108 -0.9775 0.9775 0.2108 93.9927 320.8574)" class="st1" width="0.9" height="2.5"/>
<rect x="245.8" y="103.4" transform="matrix(0.3259 -0.9454 0.9454 0.3259 66.9578 303.4224)" class="st1" width="0.9" height="2.7"/>
<rect x="246.2" y="105.8" transform="matrix(0.424 -0.9056 0.9056 0.424 44.895 285.0902)" class="st1" width="0.9" height="2.9"/>
<rect x="245" y="105.9" transform="matrix(0.5041 -0.8637 0.8637 0.5041 27.6669 265.9888)" class="st1" width="0.9" height="5.9"/>
<rect x="246.2" y="110.3" transform="matrix(0.5797 -0.8148 0.8148 0.5797 12.4615 247.9656)" class="st1" width="0.9" height="3.2"/>
<rect x="245.8" y="112.3" transform="matrix(0.6413 -0.7673 0.7673 0.6413 0.8687 229.8331)" class="st1" width="0.9" height="3.3"/>
<rect x="245.3" y="114.2" transform="matrix(0.6949 -0.7191 0.7191 0.6949 -8.3921 212.0833)" class="st1" width="0.9" height="3.4"/>
<rect x="244.6" y="116" transform="matrix(0.7419 -0.6706 0.6706 0.7419 -15.6848 194.7066)" class="st1" width="0.9" height="3.5"/>
<rect x="243.7" y="117.4" transform="matrix(0.7834 -0.6216 0.6216 0.7834 -21.1974 177.5327)" class="st1" width="0.9" height="3.6"/>
<rect x="242.6" y="118.7" transform="matrix(0.8205 -0.5717 0.5717 0.8205 -25.2681 160.5646)" class="st1" width="0.9" height="3.6"/>
<rect x="241.3" y="119.7" transform="matrix(0.8536 -0.5209 0.5209 0.8536 -27.9492 143.7099)" class="st1" width="0.9" height="3.7"/>
<rect x="239.9" y="120.6" transform="matrix(0.8837 -0.4681 0.4681 0.8837 -29.3714 126.7468)" class="st1" width="0.9" height="3.7"/>
<rect x="238.3" y="121.1" transform="matrix(0.9105 -0.4134 0.4134 0.9105 -29.4746 109.7094)" class="st1" width="0.9" height="3.6"/>
<rect x="236.7" y="121.5" transform="matrix(0.9346 -0.3558 0.3558 0.9346 -28.3377 92.4079)" class="st1" width="0.9" height="3.6"/>
<rect x="234.9" y="121.6" transform="matrix(0.9557 -0.2944 0.2944 0.9557 -25.8781 74.7277)" class="st1" width="0.9" height="3.5"/>
<rect x="233" y="121.3" transform="matrix(0.9736 -0.2284 0.2284 0.9736 -21.9302 56.5516)" class="st1" width="0.9" height="3.4"/>
<rect x="231" y="120.9" transform="matrix(0.9877 -0.1566 0.1566 0.9877 -16.3307 37.7618)" class="st1" width="0.9" height="3.3"/>
<rect x="229" y="120.2" transform="matrix(0.997 -7.776310e-02 7.776310e-02 0.997 -8.7737 18.2135)" class="st1" width="0.9" height="3.1"/>
<rect x="224.5" y="118.8" transform="matrix(3.839736e-03 -1 1 3.839736e-03 107.3195 346.2457)" class="st1" width="5.9" height="0.9"/>
<rect x="224" y="119" transform="matrix(0.1054 -0.9944 0.9944 0.1054 82.9233 331.0231)" class="st1" width="2.8" height="0.9"/>
<rect x="222.2" y="117.5" transform="matrix(0.213 -0.977 0.977 0.213 60.6731 311.1794)" class="st1" width="2.7" height="0.9"/>
<rect x="220.3" y="115.8" transform="matrix(0.3312 -0.9436 0.9436 0.3312 38.5408 286.7593)" class="st1" width="2.5" height="0.9"/>
<rect x="218.5" y="113.9" transform="matrix(0.4574 -0.8893 0.8893 0.4574 17.557 257.3793)" class="st1" width="2.4" height="0.9"/>
<rect x="216.8" y="111.8" transform="matrix(0.5881 -0.8088 0.8088 0.5881 -0.9996 222.4416)" class="st1" width="2.2" height="0.9"/>
<rect x="215.1" y="109.5" transform="matrix(0.7148 -0.6993 0.6993 0.7148 -15.2546 182.5506)" class="st1" width="2.2" height="0.9"/>
<rect x="213.6" y="107.2" transform="matrix(0.8278 -0.5611 0.5611 0.8278 -23.3986 138.9531)" class="st1" width="2.1" height="0.9"/>
<rect x="212.1" y="104.7" transform="matrix(0.9154 -0.4026 0.4026 0.9154 -24.2783 94.7264)" class="st1" width="2.1" height="0.9"/>
<rect x="210.9" y="102.2" transform="matrix(0.9717 -0.2363 0.2363 0.9717 -18.245 52.9955)" class="st1" width="2.2" height="0.9"/>
<rect x="210.8" y="101.1" transform="matrix(0.9976 -6.982913e-02 6.982913e-02 0.9976 -6.5746 15.0441)" class="st1" width="2.3" height="0.9"/>
<rect x="209.5" y="96.2" transform="matrix(7.776308e-02 -0.997 0.997 7.776308e-02 96.4815 299.1672)" class="st1" width="0.9" height="2.4"/>
<rect x="208.8" y="93.6" transform="matrix(0.2108 -0.9775 0.9775 0.2108 72.4007 279.3947)" class="st1" width="0.9" height="2.5"/>
<rect x="208.3" y="91" transform="matrix(0.3259 -0.9454 0.9454 0.3259 53.4114 259.514)" class="st1" width="0.9" height="2.7"/>
<rect x="207.9" y="88.4" transform="matrix(0.4242 -0.9056 0.9056 0.4242 38.6547 240.3949)" class="st1" width="0.9" height="2.9"/>
<rect x="209.1" y="85.2" transform="matrix(0.5041 -0.8637 0.8637 0.5041 27.7544 224.733)" class="st1" width="0.9" height="5.9"/>
<rect x="208" y="83.6" transform="matrix(0.5796 -0.8149 0.8149 0.5796 18.1794 205.6492)" class="st1" width="0.9" height="3.2"/>
<rect x="208.3" y="81.4" transform="matrix(0.6413 -0.7673 0.7673 0.6413 11.1024 189.9315)" class="st1" width="0.9" height="3.3"/>
<rect x="208.8" y="79.4" transform="matrix(0.6948 -0.7192 0.7192 0.6948 5.5103 175.222)" class="st1" width="0.9" height="3.4"/>
<rect x="209.5" y="77.6" transform="matrix(0.7419 -0.6706 0.6706 0.7419 0.9472 161.2837)" class="st1" width="0.9" height="3.5"/>
<rect x="210.4" y="76" transform="matrix(0.7834 -0.6216 0.6216 0.7834 -2.7024 147.9129)" class="st1" width="0.9" height="3.6"/>
<rect x="211.5" y="74.7" transform="matrix(0.8205 -0.5717 0.5717 0.8205 -5.6985 134.9081)" class="st1" width="0.9" height="3.7"/>
<rect x="212.8" y="73.7" transform="matrix(0.8538 -0.5206 0.5206 0.8538 -8.1322 122.0313)" class="st1" width="0.9" height="3.7"/>
<rect x="214.2" y="72.8" transform="matrix(0.8837 -0.4681 0.4681 0.8837 -9.9856 109.1568)" class="st1" width="0.9" height="3.7"/>
<rect x="215.8" y="72.3" transform="matrix(0.9106 -0.4133 0.4133 0.9106 -11.3014 95.9702)" class="st1" width="0.9" height="3.7"/>
<rect x="217.5" y="72" transform="matrix(0.9346 -0.3558 0.3558 0.9346 -12.0079 82.3455)" class="st1" width="0.9" height="3.6"/>
<rect x="219.2" y="72" transform="matrix(0.9557 -0.2944 0.2944 0.9557 -11.9762 67.9325)" class="st1" width="0.9" height="3.5"/>
<rect x="221.1" y="72.3" transform="matrix(0.9736 -0.2284 0.2284 0.9736 -11.0492 52.5453)" class="st1" width="0.9" height="3.4"/>
<rect x="223.1" y="72.9" transform="matrix(0.9877 -0.1566 0.1566 0.9877 -8.9158 35.919)" class="st1" width="0.9" height="3.3"/>
<rect x="225" y="73.8" transform="matrix(0.997 -7.776310e-02 7.776310e-02 0.997 -5.1771 17.7613)" class="st1" width="0.9" height="3.1"/>
<rect x="224.5" y="77.4" transform="matrix(4.886881e-03 -1 1 4.886881e-03 148.5445 304.8877)" class="st1" width="5.9" height="0.9"/>
<path class="st2" d="M229.4,102.2c0,1.1-0.8,1.6-1.8,1c-1-0.7-1.7-1.8-1.8-3.1c0-1.1,0.8-1.6,1.8-1
	C228.7,99.9,229.3,101,229.4,102.2z"/>
<path class="st1" d="M228.4,104c-0.4,0-0.7-0.1-1.1-0.3c-1.2-0.8-1.9-2.1-2-3.5c-0.1-0.9,0.5-1.7,1.4-1.8c0.4-0.1,0.9,0.1,1.2,0.3
	c1.2,0.8,1.9,2.1,2,3.5c0,0.6-0.3,1.3-0.8,1.6C228.9,104,228.7,104,228.4,104z M226.8,99.5c-0.1,0-0.1,0-0.2,0
	c-0.2,0.2-0.3,0.4-0.2,0.6c0.1,1,0.6,2,1.5,2.6c0.2,0.2,0.5,0.3,0.8,0.1c0.2-0.1,0.2-0.4,0.2-0.6c-0.1-1-0.6-2-1.5-2.6
	C227.2,99.5,227,99.5,226.8,99.5L226.8,99.5z"/>
<rect x="226.4" y="64.5" transform="matrix(0.8692 -0.4944 0.4944 0.8692 -2.2246 121.6269)" class="st1" width="4.9" height="1.1"/>
<rect x="246.4" y="84.9" transform="matrix(0.8692 -0.4944 0.4944 0.8692 -9.713 134.1854)" class="st1" width="4.9" height="1.1"/>
<rect x="218.2" y="61.6" transform="matrix(0.8692 -0.4944 0.4944 0.8692 -1.8871 117.2063)" class="st1" width="4.9" height="1.1"/>
<path class="st1" d="M252.1,134.1l-0.5-1c2.6-1.2,4.9-3.1,6.5-5.5c2.3-3.4,4.8-9.6,3.5-19.1l1.1-0.1c1.3,9.9-1.3,16.3-3.7,19.9
	C257.4,130.8,255,132.8,252.1,134.1z"/>
<rect x="241.6" y="136" transform="matrix(0.9059 -0.4236 0.4236 0.9059 -34.6894 116.9456)" class="st1" width="8.4" height="1.1"/>
<rect x="239.5" y="140.4" class="st1" width="1.1" height="19.4"/>
<path class="st1" d="M257.9,90.7c-11.7-27.5-32.5-32.7-32.8-32.8l0.2-1.1c0.2,0.1,21.5,5.4,33.5,33.4L257.9,90.7z"/>
<path class="st1" d="M250.5,71.6c-1.3-1.4-2.5-2.8-3.8-4.1l0.8-0.8c1.3,1.3,2.6,2.7,3.9,4.2L250.5,71.6z"/>
<path class="st1" d="M244.9,65.8c-15.8-14.7-27.4-11.4-27.5-11.4l-0.3-1.1c0.5-0.2,12.3-3.5,28.6,11.6L244.9,65.8z"/>
<path class="st1" d="M245.1,60.9c-3-2.7-6.3-5-10-6.7l0.5-1c3.8,1.8,7.2,4.1,10.3,6.9L245.1,60.9z"/>
<path class="st1" d="M233.1,53.4c-1.7-0.7-3.5-1.3-5.4-1.6l0.2-1.1c1.9,0.4,3.8,0.9,5.6,1.7L233.1,53.4z"/>
<path class="st0" d="M65.6,73.2c0.1,0,0.1-0.1,0.1-0.2c0,0,0,0-0.1-0.1L60,69.6c-0.1-0.1-0.5-0.3-0.5-0.3l-0.2-0.1
	c-0.9-0.4-1.9-0.2-3.2,0.5l-23,12.8c-3.1,2-5.1,5.3-5.4,8.9L27.5,105c-0.1,1.1,0.3,2.3,1.1,3.1c0.2,0.2,0.4,0.3,0.6,0.4l5.5,3.4
	c0.1,0.1,0.1,0.1,0.2,0l0.7-1.4c0-0.1,0.1-0.1,0.2-0.1c0,0,0,0,0,0c0.4,0.1,5.8,4.3,6.2,3.7l-0.7-10.7c0.2-0.2,0.4-0.5,0.6-0.6
	l13.6-7.6c3.1-2,5.1-5.3,5.4-8.9l0.2-10.4c0,0,0-0.1,0.1-0.1L65.6,73.2z"/>
<path class="st1" d="M41.7,114.6c-0.7-0.2-2.1-1-4.9-3l-0.9-0.6l-0.6,1.1c-0.1,0.1-0.2,0.3-0.4,0.3c-0.2,0-0.3,0-0.5-0.1l-5.5-3.4
	c-0.2-0.1-0.5-0.3-0.7-0.4c-0.9-0.9-1.4-2.2-1.3-3.5l0.2-13.6c0.3-3.8,2.3-7.3,5.6-9.3l23-12.8c1.5-0.8,2.6-1,3.6-0.5l0.2,0.1
	c0.2,0.1,0.4,0.2,0.6,0.4l5.6,3.4c0.2,0.1,0.3,0.3,0.3,0.5c0,0.2-0.1,0.4-0.3,0.5l-4.2,2.5l-0.2,10.2c-0.3,3.8-2.3,7.3-5.6,9.3
	l-13.6,7.5c-0.2,0.1-0.3,0.2-0.4,0.4l0.7,10.7l-0.1,0.1c-0.1,0.1-0.2,0.2-0.4,0.2C41.9,114.6,41.8,114.6,41.7,114.6z M36,109.9
	L36,109.9c0.5,0.3,1,0.5,1.4,0.9c1.4,1,2.8,1.9,4.3,2.8l-0.7-10.3l0.1-0.1c0.2-0.3,0.5-0.6,0.8-0.8l13.6-7.5c3-1.9,4.9-5,5.1-8.6
	l0.2-10.4c0-0.2,0.1-0.4,0.3-0.5l3.9-2.3l-5.1-3.2c-0.2-0.1-0.5-0.3-0.5-0.3h-0.2c-0.8-0.3-1.6-0.2-2.8,0.5l-23,12.8
	c-3,1.9-4.9,5-5.1,8.5L28,105c-0.1,1,0.2,2,1,2.7c0.2,0.1,0.3,0.2,0.5,0.3l5.3,3.3l0.6-1.1C35.4,110,35.7,109.9,36,109.9z"/>
<path class="st2" d="M62.1,73.4L39,86.2c-3.1,1.9-5,5.2-5.3,8.8l-0.2,13.7c-0.1,3.3,2.2,4.6,5.1,3.1l1.9-1.1c0.6-0.3,1,0,1,0.6v2.1
	c0,1,1,1,1.6,0l4.3-6.2c0.2-0.3,0.4-0.5,0.6-0.6l13.7-7.6c3.1-1.9,5-5.2,5.3-8.8l0.2-13.7C67.3,73.2,65,71.8,62.1,73.4z"/>
<path class="st1" d="M41.8,114.5L41.8,114.5c-0.5-0.2-0.8-0.6-0.8-1.1v-2.1c0-0.2,0-0.2-0.1-0.3s-0.1,0-0.3,0.1l-1.9,1.1
	c-1.5,1.2-3.8,1-5-0.5c-0.7-0.8-0.9-1.9-0.7-2.9L33.3,95c0.3-3.8,2.3-7.2,5.5-9.2L61.9,73c1.5-1.2,3.8-1,5,0.5
	c0.7,0.8,0.9,1.9,0.7,2.9l-0.2,13.7c-0.3,3.8-2.3,7.2-5.5,9.2l-13.7,7.6c-0.2,0.1-0.4,0.3-0.5,0.5l-4.3,6.2
	C43.2,114.2,42.5,114.6,41.8,114.5z M41.2,110.1c0.1,0,0.2,0.1,0.3,0.1c0.3,0.2,0.5,0.6,0.5,1.1v2.1c0,0.2,0,0.2,0.1,0.3
	s0.4-0.1,0.8-0.5l4.3-6.2c0.2-0.3,0.5-0.6,0.8-0.8l13.7-7.6c2.9-1.8,4.8-5,5-8.4l0.2-13.7c0.3-1.4-0.5-2.9-2-3.3
	c-0.9-0.2-1.8,0-2.4,0.6L39.3,86.6c-2.9,1.9-4.8,5-5,8.4l-0.2,13.7c-0.4,1.4,0.5,2.9,2,3.3c0.9,0.2,1.8,0,2.5-0.6l1.9-1.1
	C40.7,110.1,40.9,110.1,41.2,110.1z"/>
<path class="st1" d="M38.1,107.1l21.5-12c0.1-0.1,0.2-0.2,0.2-0.4l3-16.4c0-0.2-0.1-0.3-0.2-0.2L62,78.4c-2,1.1-3.7,2.6-5.1,4.3
	c-2.1,2.5-3.9,5.1-5.4,8c-4.3,8-8.9,3.9-13.7,16C37.8,107,37.9,107.2,38.1,107.1z"/>
<path class="st1" d="M37.8,107.5c-0.1,0-0.2-0.1-0.2-0.1c-0.2-0.2-0.3-0.6-0.1-0.8c2.7-7,5.5-8.7,8.1-10.4c2.4-1.3,4.3-3.3,5.6-5.7
	c1.5-2.9,3.4-5.5,5.5-8c1.5-1.8,3.3-3.3,5.3-4.4l0.6-0.3c0.2-0.1,0.5-0.1,0.6,0c0.2,0.2,0.3,0.4,0.2,0.7l-3,16.4
	c0,0.3-0.2,0.5-0.5,0.7l-21.5,12C38.1,107.6,38,107.6,37.8,107.5z M62.3,78.8L62.3,78.8c-1.9,1.1-3.6,2.5-5,4.2
	c-2.1,2.4-3.9,5.1-5.4,7.9c-1.3,2.6-3.4,4.7-5.9,6.1c-2.4,1.5-5,3.1-7.5,9.3l20.9-11.6L62.3,78.8z"/>
<path class="st0" d="M40.9,105.5l21.5-11.9c0.1-0.1,0.2-0.2,0.2-0.4l0.2-14.8c0-0.2-0.1-0.2-0.3-0.1c-3.3,3.2-6.1,6.8-8.2,10.9
	c-4.3,8-8.9,3.9-13.7,16C40.6,105.4,40.8,105.6,40.9,105.5z"/>
<path class="st1" d="M40.7,105.9c-0.1,0-0.2-0.1-0.2-0.1c-0.2-0.2-0.3-0.6-0.1-0.8c2.7-7,5.5-8.7,8.1-10.4c2.4-1.3,4.3-3.3,5.6-5.7
	c2.1-4.1,5-7.8,8.3-11c0.2-0.2,0.5-0.2,0.7-0.1c0.2,0.1,0.4,0.3,0.3,0.6l-0.2,14.8c0,0.3-0.2,0.6-0.5,0.8l-21.5,11.9
	C41,106,40.9,106,40.7,105.9z M62.5,78.9c-3.1,3-5.7,6.5-7.7,10.4c-1.3,2.6-3.4,4.7-5.9,6.1c-2.4,1.5-5,3.1-7.5,9.3l20.8-11.6
	L62.5,78.9z"/>
<rect x="30.3" y="89.7" transform="matrix(0.5155 -0.8569 0.8569 0.5155 -64.9949 71.535)" class="st1" width="0.9" height="7"/>
<rect x="35.8" y="80.6" transform="matrix(0.5155 -0.8569 0.8569 0.5155 -54.5577 71.8182)" class="st1" width="0.9" height="7"/>
<rect x="58.5" y="68.1" transform="matrix(0.5153 -0.857 0.857 0.5153 -32.8188 85.2562)" class="st1" width="0.9" height="7"/>
<rect x="30.1" y="102.9" transform="matrix(0.5155 -0.8569 0.8569 0.5155 -76.4216 77.7526)" class="st1" width="0.9" height="7"/>
<path class="st1" d="M24.2,89.2c0.7-4,3.2-7.4,6.7-9.4L43.4,73l0.4,0.8l-12.4,6.8c-3.3,1.9-5.5,5.1-6.3,8.8L24.2,89.2z"/>
<rect x="24.1" y="92.9" transform="matrix(1.999600e-02 -0.9998 0.9998 1.999600e-02 -68.1504 117.107)" class="st1" width="3" height="0.9"/>
<path class="st1" d="M67.1,97.8l-0.6-0.7c2.9-2.6,2.6-7.7,2.6-7.8h0.9C70.1,89.6,70.3,95,67.1,97.8z"/>
<path class="st1" d="M64,68.2c-1.3,0-2.3-1-2.3-2.3c0-1.3,1-2.3,2.3-2.3c1.3,0,2.3,1,2.3,2.3c0,0,0,0,0,0
	C66.3,67.2,65.3,68.2,64,68.2z M64,64.8c-0.6,0-1.2,0.5-1.2,1.2s0.5,1.2,1.2,1.2s1.2-0.5,1.2-1.2C65.2,65.3,64.7,64.8,64,64.8
	L64,64.8z"/>
<rect x="57.4" y="59.5" class="st1" width="1.1" height="5.4"/>
<rect x="55.2" y="61.6" class="st1" width="5.5" height="1.1"/>
<path class="st1" d="M25.7,152.4c-1.3-1.6-2.7-1.3-6.2-2.1c-3-0.7-6.2-0.6-9.2,0.1c-3,0.8-4.8,1.3-6,2.7L2.8,154v3.4
	c0.1,2.2,1.9,4.3,5.5,5.8c3.6,1.5,7.6,1.7,11.4,0.8c5.3-1.3,8-4,8.1-6.7V154L25.7,152.4z"/>
<path class="st1" d="M15.1,165c-2.4,0-4.8-0.5-7.1-1.4c-3.7-1.5-5.8-3.8-5.9-6.3v-3.7l1.8-0.9c1.4-1.5,3.4-2,6.2-2.8
	c3.1-0.8,6.3-0.8,9.5-0.1c1,0.2,1.8,0.4,2.5,0.5c1.8,0.3,2.9,0.5,4,1.7l2.2,1.7v3.6c-0.1,3.2-3.3,5.9-8.5,7.2
	C18.3,164.9,16.7,165.1,15.1,165z M3.3,154.3v3c0.1,2.1,1.9,4,5.2,5.4c3.5,1.4,7.3,1.7,11,0.8c4.7-1.1,7.6-3.5,7.7-6.1v-0.2v-2.9
	l-1.9-1.5c-0.8-1-1.6-1.1-3.3-1.4c-0.7-0.1-1.5-0.2-2.5-0.5c-2.9-0.7-6-0.6-8.9,0.1c-3,0.8-4.7,1.2-5.8,2.5l-0.2,0.1L3.3,154.3z"/>
<path class="st2" d="M24.1,148.9c4.9,2.8,4.9,7.4,0,10.2c-4.9,2.8-12.8,2.8-17.7,0s-4.9-7.4,0-10.2C11.3,146,19.2,146,24.1,148.9z"
	/>
<path class="st1" d="M15.2,161.8c-3.2,0.1-6.3-0.7-9.1-2.2c-2.5-1.5-4-3.5-4-5.6c0-2.1,1.4-4.1,4-5.6c5-2.9,13.2-2.9,18.3,0l0,0
	c2.5,1.5,4,3.5,4,5.6c0,2.1-1.4,4.1-4,5.6C21.6,161.1,18.4,161.9,15.2,161.8z M15.2,147.3c-3-0.1-5.9,0.6-8.6,2.1
	c-2.2,1.3-3.4,2.9-3.4,4.6s1.2,3.4,3.4,4.6c4.7,2.7,12.4,2.7,17.1,0c2.2-1.3,3.4-2.9,3.4-4.6s-1.2-3.4-3.4-4.6
	C21.2,148,18.2,147.2,15.2,147.3L15.2,147.3z"/>
<ellipse class="st1" cx="15.2" cy="154" rx="8.7" ry="4.4"/>
<path class="st1" d="M15.2,158.9c-2.2,0-4.4-0.4-6.4-1.3c-1.9-0.9-2.9-2.2-2.9-3.6c0-1.4,1-2.7,2.9-3.6c4.1-1.8,8.8-1.8,12.9,0l0,0
	c1.9,0.9,2.9,2.2,2.9,3.6s-1,2.7-2.9,3.6C19.7,158.5,17.5,159,15.2,158.9z M15.2,150.1c-2,0-4.1,0.4-5.9,1.2C7.9,152.1,7,153,7,154
	c0,1,0.8,1.9,2.3,2.6c3.8,1.6,8.1,1.6,11.9,0c1.4-0.7,2.3-1.7,2.3-2.6s-0.8-1.9-2.3-2.6l0,0C19.3,150.5,17.3,150.1,15.2,150.1z"/>
<path class="st0" d="M21.4,152.7c-3.9-1.7-8.4-1.7-12.4,0c-1,0.4-1.9,1.2-2.4,2.2c0.5,1,1.3,1.8,2.4,2.2c3.9,1.7,8.4,1.7,12.4,0
	c1-0.4,1.9-1.2,2.4-2.2C23.3,153.9,22.4,153.1,21.4,152.7z"/>
<path class="st1" d="M15.2,158.9c-2.2,0-4.4-0.4-6.4-1.3c-1.1-0.5-2.1-1.4-2.6-2.5l-0.1-0.2l0.1-0.2c0.6-1.1,1.5-2,2.6-2.5
	c4.1-1.8,8.8-1.8,12.9,0c1.1,0.5,2.1,1.4,2.6,2.5l0.1,0.2l-0.1,0.2c-0.6,1.1-1.5,2-2.6,2.5C19.7,158.5,17.5,159,15.2,158.9z
	 M7.3,154.9c0.5,0.7,1.2,1.3,2,1.7c3.8,1.6,8.1,1.6,11.9,0c0.8-0.4,1.5-0.9,2-1.7c-0.5-0.7-1.2-1.3-2-1.7l0,0
	c-3.8-1.6-8.1-1.6-11.9,0C8.5,153.6,7.8,154.2,7.3,154.9L7.3,154.9z"/>
<rect x="21.8" y="160.2" class="st0" width="0.9" height="2.7"/>
<rect x="4.1" y="157.9" class="st0" width="0.9" height="2.7"/>
<rect x="16" y="149.7" class="st0" width="0.9" height="1.8"/>
<path class="st1" d="M8.8,153v1.5l2.1,0.8l1-1.6l0,0l7.3,4.2c0.6-0.1,1.2-0.3,1.8-0.6l0.8-0.5v-1.5l-9.7-4.1L8.8,153z"/>
<path class="st1" d="M19.1,158.4l-7.1-4.1l-1,1.5l-2.6-1v-2l3.6-2l10.1,4.3v2l-1,0.6c-0.6,0.3-1.2,0.5-1.9,0.6L19.1,158.4z
	 M11.8,153.2l0.2,0.1l7.1,4.1c0.5-0.1,1-0.3,1.5-0.5l0.5-0.3v-1l-9.2-3.9l-2.8,1.5v0.9l1.5,0.5l0.8-1.4L11.8,153.2z"/>
<path class="st2" d="M11.9,152.2L11.9,152.2l-1,1.6L8.8,153l1.4-2.2l1.9-1.1l9.6,5.6l0,0l-2.2,1.3L11.9,152.2z"/>
<path class="st1" d="M19.5,157.1l-7.5-4.3l-1,1.5l-2.9-1.1l1.7-2.7l2.2-1.2l10.2,5.9l-0.1,0.5L19.5,157.1z M11.8,151.8l0.2,0.1
	l7.4,4.3l1.3-0.8l-8.8-5.1l-1.5,0.9l-1.1,1.6l1.2,0.4l0.8-1.4L11.8,151.8z"/>
<rect x="2.2" y="164.3" class="st1" width="1.1" height="5.4"/>
<rect y="166.4" class="st1" width="5.4" height="1.1"/>
<path class="st1" d="M201,211.7c-1.3-1.6-2.7-1.3-6.2-2.1c-3-0.7-6.2-0.6-9.2,0.1c-3,0.8-4.8,1.3-6,2.7l-1.6,0.8v3.4
	c0.1,2.2,1.9,4.3,5.5,5.8c3.6,1.5,7.6,1.7,11.4,0.8c5.4-1.3,8-4,8.1-6.7v-3.3L201,211.7z"/>
<path class="st1" d="M190.4,224.3c-2.4,0-4.9-0.5-7.1-1.4c-3.7-1.5-5.8-3.8-5.9-6.3v-3.7l1.8-0.9c1.4-1.5,3.4-2,6.2-2.8
	c3.1-0.8,6.3-0.8,9.5-0.1c1,0.2,1.8,0.4,2.5,0.5c1.8,0.3,2.9,0.5,4,1.7l2.2,1.7v3.6c-0.1,3.2-3.3,5.9-8.5,7.2
	C193.6,224.1,192,224.3,190.4,224.3z M178.5,213.6v3c0.1,2.1,1.9,4,5.2,5.4c3.5,1.4,7.4,1.7,11,0.8c4.7-1.1,7.6-3.5,7.7-6.1v-3
	l-1.9-1.5c-0.8-1-1.6-1.1-3.3-1.4c-0.7-0.1-1.5-0.2-2.5-0.5c-2.9-0.7-6-0.6-8.9,0.1c-3,0.8-4.6,1.2-5.8,2.5l-0.2,0.1L178.5,213.6z"
	/>
<path class="st2" d="M199.3,208.1c4.9,2.8,4.9,7.4,0,10.2s-12.8,2.8-17.7,0s-4.9-7.4,0-10.2C186.5,205.3,194.4,205.3,199.3,208.1z"
	/>
<path class="st1" d="M190.5,221c-3.2,0.1-6.3-0.7-9.1-2.2c-2.5-1.5-3.9-3.5-3.9-5.6s1.4-4.1,3.9-5.6c5-2.9,13.2-2.9,18.3,0
	c2.5,1.5,3.9,3.5,3.9,5.6c0,2.1-1.4,4.1-3.9,5.6C196.8,220.3,193.7,221.1,190.5,221z M190.5,206.5c-3-0.1-5.9,0.6-8.6,2.1
	c-2.2,1.3-3.4,2.9-3.4,4.6s1.2,3.4,3.4,4.6c4.7,2.7,12.4,2.7,17.1,0c2.2-1.3,3.4-2.9,3.4-4.6s-1.2-3.4-3.4-4.6l0,0
	C196.4,207.2,193.5,206.5,190.5,206.5L190.5,206.5z"/>
<path class="st1" d="M196.7,210.1c-3.9-1.7-8.4-1.7-12.4,0c-3.4,1.7-3.4,4.5,0,6.2c3.9,1.7,8.4,1.7,12.4,0
	C200.1,214.6,200.1,211.8,196.7,210.1z"/>
<path class="st1" d="M190.5,218.2c-2.2,0-4.4-0.4-6.4-1.3c-1.9-0.9-2.9-2.2-2.9-3.6s1-2.7,2.9-3.6c4.1-1.8,8.8-1.8,12.9,0l0,0
	c1.9,0.9,2.9,2.2,2.9,3.6s-1,2.7-2.9,3.6C194.9,217.8,192.7,218.2,190.5,218.2z M190.5,209.4c-2,0-4.1,0.4-5.9,1.2
	c-1.4,0.7-2.2,1.7-2.2,2.6s0.8,1.9,2.2,2.6c3.8,1.7,8.1,1.7,11.9,0c1.4-0.7,2.2-1.7,2.2-2.6s-0.8-1.9-2.2-2.6l0,0
	C194.6,209.7,192.5,209.3,190.5,209.4z"/>
<path class="st0" d="M196.7,212c-3.9-1.7-8.4-1.7-12.4,0c-1,0.4-1.8,1.2-2.4,2.2c0.5,1,1.3,1.7,2.4,2.2c3.9,1.7,8.4,1.7,12.4,0
	c1-0.4,1.8-1.2,2.4-2.2C198.5,213.2,197.7,212.4,196.7,212z"/>
<path class="st1" d="M190.5,218.2c-2.2,0-4.4-0.4-6.4-1.3c-1.1-0.5-2.1-1.4-2.6-2.5l-0.1-0.2l0.1-0.2c0.6-1.1,1.5-2,2.6-2.5
	c4.1-1.8,8.8-1.8,12.9,0c1.1,0.5,2.1,1.4,2.6,2.5l0.1,0.2l-0.1,0.2c-0.6,1.1-1.5,1.9-2.6,2.4C194.9,217.7,192.7,218.2,190.5,218.2z
	 M182.6,214.2c0.5,0.7,1.2,1.3,2,1.7c3.8,1.7,8.1,1.7,11.9,0c0.8-0.4,1.5-0.9,2-1.7c-0.5-0.7-1.2-1.3-2-1.7c-3.8-1.7-8.1-1.7-11.9,0
	C183.7,212.8,183.1,213.4,182.6,214.2L182.6,214.2z"/>
<rect x="197.1" y="219.5" class="st0" width="0.9" height="2.7"/>
<rect x="179.4" y="217.2" class="st0" width="0.9" height="2.7"/>
<rect x="191.2" y="208.9" class="st0" width="0.9" height="1.8"/>
<path class="st1" d="M184,212.3v1.5l2.1,0.8l1-1.6l0,0l7.3,4.2c0.6-0.1,1.2-0.3,1.8-0.6l0.8-0.5v-1.5l-9.6-4.1L184,212.3z"/>
<path class="st1" d="M194.3,217.6l-7.1-4.1l-0.9,1.5l-2.7-1v-2l3.6-2l10.1,4.3v2l-1,0.6c-0.6,0.3-1.2,0.5-1.9,0.6L194.3,217.6z
	 M187.1,212.5l0.2,0.1l7.1,4.1c0.5-0.1,1-0.3,1.5-0.5l0.5-0.3v-1l-9.2-3.9l-2.8,1.5v0.9l1.5,0.5l0.8-1.4L187.1,212.5z"/>
<path class="st2" d="M187.1,211.5L187.1,211.5l-1,1.6l-2.1-0.8l1.4-2.2l1.9-1.1l9.6,5.6l0,0l-2.2,1.3L187.1,211.5z"/>
<path class="st1" d="M194.7,216.4l-7.5-4.3l-0.9,1.5l-2.9-1.1l1.7-2.7l2.2-1.2l10,5.8l0.3,0.3l-0.4,0.4L194.7,216.4z M187.1,211
	l0.2,0.1l7.4,4.3l1.3-0.8l-8.8-5.1l-1.5,0.9l-1,1.6l1.2,0.5l0.8-1.4L187.1,211z"/>
<path class="st1" d="M216.2,217.9c-0.6-1.9-2-2.1-5-4.1c-2.6-1.7-5.6-2.8-8.6-3.1c-3.1-0.3-4.9-0.5-6.6,0.4l-1.8,0.2l-1.2,3.1v0.1
	c-0.7,2.1,0.2,4.7,3.1,7.4c2.9,2.7,6.5,4.3,10.4,4.8c5.5,0.7,8.9-0.9,10-3.4l0.1-0.1l1.1-3L216.2,217.9z"/>
<path class="st1" d="M208.9,227.2c-0.9,0-1.7-0.1-2.6-0.2c-4-0.5-7.7-2.2-10.7-4.9c-2.9-2.7-4.1-5.6-3.2-8V214l1.3-3.4l2-0.2
	c1.8-0.9,3.9-0.7,6.8-0.4c3.2,0.4,6.2,1.5,8.9,3.2c0.8,0.5,1.5,1,2.2,1.3c1.6,0.9,2.6,1.5,3.1,3l1.5,2.4l-1.3,3.4
	C215.9,225.9,212.9,227.2,208.9,227.2z M194.6,211.7l-1,2.8c-0.7,2,0.4,4.4,2.9,6.9c2.8,2.6,6.3,4.2,10.1,4.6c4.8,0.6,8.3-0.6,9.4-3
	l0.1-0.1l1-2.7l-1.3-2.1c-0.4-1.2-1.1-1.6-2.6-2.5c-0.6-0.4-1.3-0.8-2.2-1.4c-2.5-1.7-5.4-2.7-8.4-3.1c-3.1-0.3-4.8-0.5-6.3,0.3
	l-0.2,0.1L194.6,211.7z"/>
<path class="st2" d="M215.9,214c3.6,4.4,2,8.6-3.6,9.5s-13-1.9-16.5-6.3s-1.9-8.6,3.6-9.6C205,206.8,212.4,209.6,215.9,214z"/>
<path class="st1" d="M210.2,224.3c-5.4,0-11.6-2.7-14.8-6.7c-1.9-2.3-2.5-4.6-1.7-6.6c0.8-2,2.8-3.4,5.7-3.8
	c5.7-0.9,13.4,2,17.1,6.5c1.8,2.3,2.5,4.6,1.7,6.6s-2.8,3.4-5.7,3.8C211.7,224.2,210.9,224.3,210.2,224.3z M201.6,208.1
	c-0.7,0-1.4,0.1-2.1,0.2c-2.5,0.4-4.2,1.5-4.8,3.1c-0.6,1.6-0.1,3.6,1.5,5.5c3.5,4.2,10.6,7,16,6.1c2.5-0.4,4.2-1.5,4.8-3.1
	s0.1-3.6-1.5-5.5C212.5,210.6,206.6,208.1,201.6,208.1L201.6,208.1z"/>
<path class="st1" d="M212.7,214.9c-3.1-3-7.3-4.6-11.6-4.4c-3.8,0.4-4.8,3-2.2,5.8c3.1,3,7.3,4.6,11.6,4.4
	C214.3,220.3,215.3,217.7,212.7,214.9z"/>
<path class="st1" d="M209.5,221.3c-4.1-0.1-8-1.8-11-4.6c-1.4-1.5-1.9-3.1-1.4-4.4s1.9-2.1,4-2.4c4.5-0.2,8.8,1.5,12,4.6l0,0
	c1.4,1.5,1.9,3.1,1.4,4.4s-1.9,2.1-4,2.4C210.2,221.3,209.9,221.3,209.5,221.3z M202.2,211c-0.3,0-0.7,0-1,0.1
	c-1.6,0.2-2.7,0.8-3,1.6s0.1,2.1,1.2,3.2c3,2.9,7,4.4,11.1,4.2c1.6-0.2,2.7-0.8,3-1.6s-0.1-2.1-1.2-3.2
	C209.6,212.6,206,211.1,202.2,211L202.2,211z"/>
<path class="st0" d="M212.1,216.6c-3.1-3-7.3-4.6-11.6-4.4c-1.1,0-2.2,0.5-3,1.2c0.1,1.1,0.6,2.1,1.4,2.9c3.1,3,7.3,4.6,11.5,4.4
	c1.1,0,2.2-0.5,3-1.2C213.4,218.4,212.9,217.4,212.1,216.6z"/>
<path class="st1" d="M209.5,221.3c-4.1-0.1-8-1.8-11-4.6c-0.9-0.9-1.4-2-1.6-3.2v-0.2l0.2-0.2c0.9-0.8,2.1-1.3,3.3-1.4
	c4.5-0.2,8.8,1.5,12,4.6l0,0c0.9,0.9,1.4,2,1.6,3.2v0.3l-0.2,0.2c-0.9,0.8-2.1,1.3-3.3,1.4C210.2,221.4,209.9,221.4,209.5,221.3z
	 M198.1,213.7c0.2,0.9,0.6,1.7,1.3,2.3c3,2.9,7,4.4,11.1,4.2c0.9-0.1,1.7-0.4,2.5-0.9c-0.2-0.9-0.6-1.7-1.2-2.3
	c-2.9-2.9-7-4.4-11.1-4.2C199.7,212.8,198.8,213.1,198.1,213.7L198.1,213.7z"/>
<rect x="208.3" y="224.8" transform="matrix(0.3551 -0.9348 0.9348 0.3551 -75.3068 341.2392)" class="st0" width="2.7" height="0.9"/>
<rect x="192.6" y="216.3" transform="matrix(0.3551 -0.9348 0.9348 0.3551 -77.5546 321.1245)" class="st0" width="2.7" height="0.9"/>
<rect x="207.3" y="212.4" transform="matrix(0.3551 -0.9348 0.9348 0.3551 -64.717 331.8366)" class="st0" width="1.8" height="0.9"/>
<path class="st1" d="M200.1,212.5l-0.5,1.4l1.7,1.5l1.5-1.1l0,0l5.3,6.5c0.6,0.1,1.2,0.1,1.9,0.1l0.9-0.1l0.5-1.4l-7.6-7.2
	L200.1,212.5z"/>
<path class="st1" d="M209.5,221.2c-0.5,0-1,0-1.5-0.1h-0.2l-5.2-6.3l-1.4,1.1l-2.1-1.9l0.7-1.9l4.1-0.6l7.9,7.6l-0.7,1.9l-1.1,0.2
	L209.5,221.2z M208.3,220.3c0.5,0.1,1.1,0.1,1.6,0.1l0.6-0.1l0.3-0.9l-7.2-6.9l-3.2,0.4l-0.3,0.9l1.2,1l1.3-1l0.3-0.1l0.2,0.2
	L208.3,220.3z"/>
<path class="st2" d="M203.3,212.8L203.3,212.8l-1.5,1.1l-1.7-1.5l2.1-1.5l2.1-0.3l7,8.6l0,0l-2.5,0.4L203.3,212.8z"/>
<path class="st1" d="M208.7,220.1l-5.5-6.7l-1.4,1.1l-2.3-2l2.6-1.9l2.5-0.4l7.3,8.9v0.6h-0.4L208.7,220.1z M203.4,212.3l0.2,0.2
	l5.4,6.7l1.5-0.2l-6.4-7.9l-1.8,0.3l-1.5,1.2l1,0.9l1.3-1L203.4,212.3z"/>
<path class="st1" d="M178.4,228.9h-1.9c-0.7,0-1.3-0.6-1.3-1.3v-1.9c0-0.7,0.6-1.3,1.3-1.3h1.9c0.7,0,1.3,0.6,1.3,1.3v1.9
	C179.7,228.4,179.1,228.9,178.4,228.9z M176.5,225.5c-0.1,0-0.2,0.1-0.2,0.2c0,0,0,0,0,0v1.9c0,0.1,0.1,0.2,0.2,0.2c0,0,0,0,0,0h1.9
	c0.1,0,0.2-0.1,0.2-0.2c0,0,0,0,0,0v-1.9c0-0.1-0.1-0.2-0.2-0.2c0,0,0,0,0,0H176.5z"/>
<path class="st1" d="M193,158.3l-41-25.5c-1.3-1-2.2-2.5-2.2-4.2l-1.7-62.8c0-1.6,2.7-2.6,3.9-1.9l42.5,24.5c1.3,1,2.2,2.5,2.2,4.2
	v63.1C196.7,157.2,194.2,159,193,158.3z"/>
<path class="st1" d="M193.7,158.9c-0.3,0-0.6-0.1-0.9-0.2l0,0l-41-25.5c-1.5-1-2.4-2.7-2.4-4.6l-1.7-62.8c0.1-0.9,0.6-1.6,1.4-2
	c1-0.6,2.1-0.7,3.2-0.3L194.7,88c1.5,1,2.4,2.7,2.4,4.6v63.1c-0.1,1.2-0.9,2.2-1.9,2.8C194.7,158.7,194.2,158.9,193.7,158.9z
	 M193.2,157.9c0.5,0.2,1.1,0.1,1.5-0.3c0.8-0.4,1.3-1.1,1.5-2V92.5c0-1.5-0.7-2.9-2-3.8l-42.5-24.5c-0.8-0.3-1.6-0.2-2.3,0.3
	c-0.5,0.2-0.8,0.7-0.9,1.2l1.7,62.9c0,1.5,0.8,2.9,2,3.8L193.2,157.9z"/>
<path class="st0" d="M192.8,158.1l-42.5-24.5c-1.3-1-2.2-2.5-2.2-4.2V66.3c0-1.6,1-2.3,2.2-1.7l42.5,24.5c1.3,1,2.2,2.5,2.2,4.2
	v63.1C194.9,158.1,194,158.8,192.8,158.1z"/>
<path class="st1" d="M193.6,158.9c-0.4,0-0.8-0.1-1.1-0.3L150.1,134c-1.5-1-2.4-2.7-2.4-4.6V66.3c-0.1-0.8,0.3-1.7,1-2.2
	c0.6-0.3,1.3-0.3,1.9,0.1L193,88.8c1.5,1,2.4,2.7,2.4,4.6v63.1c0.1,0.8-0.3,1.7-1,2.1C194.1,158.8,193.9,158.8,193.6,158.9z
	 M149.4,64.8c-0.1,0-0.2,0-0.3,0.1c-0.4,0.3-0.6,0.9-0.5,1.4v63.1c0,1.5,0.8,2.9,2,3.8l42.4,24.6c0.3,0.2,0.7,0.3,1,0.1
	c0.4-0.3,0.6-0.9,0.5-1.4V93.4c0-1.5-0.8-2.9-2-3.8l-42.5-24.5C149.9,65,149.6,64.9,149.4,64.8L149.4,64.8z"/>
<rect x="194.1" y="90.1" transform="matrix(0.8488 -0.5287 0.5287 0.8488 -18.2815 116.8148)" class="st0" width="1.9" height="0.5"/>
<rect x="151.3" y="64.7" transform="matrix(0.8489 -0.5286 0.5286 0.8489 -11.3131 90.3056)" class="st0" width="1.9" height="0.5"/>
<rect x="195.8" y="154.4" transform="matrix(0.8486 -0.5291 0.5291 0.8486 -52.0289 127.5282)" class="st0" width="1.9" height="0.5"/>
<path class="st2" d="M157.4,118.6l0.6,1.7c0.1,0.2,0.2,0.3,0.3,0.4l1.3,0.9c0.3,0.2,0.4,0.7,0.2,0.8l-0.9,0.5
	c-0.1,0-0.1,0.2-0.1,0.3l0.2,1.6c0,0.4-0.3,0.5-0.5,0.1l-1.1-1.3c-0.1-0.1-0.2-0.2-0.3-0.2h-1.1c-0.3,0-0.6-0.4-0.5-0.8l0.2-1.3
	c0-0.2,0-0.3-0.1-0.4l-0.9-1.6c-0.2-0.4-0.1-0.7,0.2-0.6l1.3,0.5c0.1,0.1,0.2,0,0.3-0.1c0,0,0,0,0,0l0.6-1
	C156.9,118,157.3,118.2,157.4,118.6z"/>
<path class="st2" d="M158.7,125.3c-0.2,0-0.4-0.1-0.5-0.3l-1.1-1.3c-0.1-0.1-0.1-0.1-0.2-0.1h-1.1c-0.2,0-0.4-0.1-0.5-0.2
	c-0.2-0.2-0.3-0.4-0.2-0.7l0.2-1.3c0-0.1,0-0.2-0.1-0.3l-0.9-1.6c-0.2-0.2-0.2-0.5,0-0.8c0.1-0.1,0.3-0.2,0.5-0.1l1.3,0.5
	c0,0,0,0,0.1,0l0.6-1c0.1-0.1,0.2-0.2,0.4-0.2c0.3,0.1,0.5,0.3,0.6,0.6l0.6,1.6c0,0.1,0.1,0.2,0.2,0.3l1.3,0.9
	c0.2,0.2,0.4,0.5,0.4,0.8c0,0.1-0.1,0.3-0.2,0.3l-0.9,0.5c0,0,0,0,0,0.1l0.2,1.6c0.1,0.2,0,0.4-0.2,0.5
	C158.8,125.3,158.8,125.3,158.7,125.3z M156.9,123.3c0.2,0,0.4,0.1,0.5,0.3l1.1,1.3c0.1,0.1,0.2,0.1,0.2,0.1s0-0.1,0-0.1l-0.2-1.6
	c0-0.2,0-0.4,0.2-0.5l0.9-0.5v-0.1c0-0.2-0.1-0.4-0.2-0.5l-1.3-0.9c-0.2-0.1-0.3-0.3-0.3-0.5l-0.6-1.6c0-0.1-0.1-0.3-0.3-0.4h-0.1
	l-0.6,1c-0.1,0.2-0.3,0.2-0.5,0.1c0,0,0,0,0,0l-1.3-0.5h-0.1c0,0.1,0,0.3,0.1,0.4l0.9,1.6c0.1,0.2,0.2,0.4,0.1,0.6l-0.2,1.4
	c0,0.2,0.1,0.3,0.2,0.4c0,0.1,0.1,0.1,0.2,0.1L156.9,123.3L156.9,123.3z"/>
<path class="st2" d="M164.6,122.8l0.6,1.6c0.1,0.2,0.2,0.3,0.3,0.4l1.3,0.9c0.3,0.2,0.4,0.7,0.2,0.8l-0.9,0.5
	c-0.1,0.1-0.1,0.2-0.1,0.3l0.2,1.6c0.1,0.4-0.3,0.5-0.5,0.1l-1.1-1.4c-0.1-0.1-0.2-0.2-0.4-0.2H163c-0.3,0-0.6-0.4-0.5-0.8l0.2-1.3
	c0-0.2,0-0.3-0.1-0.4l-0.9-1.6c-0.2-0.4-0.1-0.7,0.2-0.6l1.3,0.5c0.1,0.1,0.2,0,0.3-0.1l0.6-1C164.1,122.2,164.5,122.4,164.6,122.8z
	"/>
<path class="st2" d="M165.9,129.5c-0.2,0-0.4-0.1-0.5-0.3l-1.1-1.3c0-0.1-0.1-0.1-0.2-0.1H163l0,0c-0.2,0-0.3-0.1-0.5-0.2
	c-0.2-0.2-0.3-0.4-0.2-0.7l0.2-1.3c0-0.1,0-0.2-0.1-0.3l-0.9-1.6c-0.2-0.2-0.2-0.5,0-0.8c0.1-0.1,0.3-0.2,0.5-0.1l1.3,0.5h0.1l0.6-1
	c0.1-0.1,0.2-0.2,0.4-0.2c0.3,0.1,0.5,0.3,0.6,0.6l0.6,1.7c0,0.1,0.1,0.2,0.2,0.3l1.3,0.9c0.2,0.2,0.4,0.5,0.4,0.8
	c0,0.1-0.1,0.3-0.2,0.3l-0.9,0.5c0,0,0,0.1,0,0.1l0.2,1.6c0.1,0.2,0,0.4-0.2,0.5C166.1,129.5,166,129.5,165.9,129.5z M164.1,127.4
	c0.2,0,0.4,0.1,0.5,0.3l1.1,1.3c0.1,0.1,0.2,0.1,0.2,0.1c0,0,0,0,0-0.1l-0.2-1.6c0-0.2,0-0.4,0.2-0.5l0.9-0.5c0,0,0,0,0-0.1
	c0-0.2-0.1-0.4-0.2-0.5l-1.3-1c-0.2-0.1-0.3-0.3-0.3-0.5l-0.6-1.7c0-0.1-0.1-0.3-0.3-0.3h-0.1l-0.6,1c-0.1,0.2-0.3,0.2-0.5,0.1
	l-1.3-0.5c0,0,0,0-0.1,0c0,0,0,0.2,0.1,0.4l0.9,1.6c0.1,0.2,0.1,0.4,0.1,0.6l-0.2,1.3c0,0.2,0.1,0.3,0.2,0.4c0,0.1,0.1,0.1,0.2,0.1
	L164.1,127.4L164.1,127.4z"/>
<path class="st2" d="M171.9,127l0.6,1.7c0.1,0.2,0.2,0.3,0.3,0.4l1.3,0.9c0.3,0.2,0.4,0.7,0.2,0.8l-0.9,0.5
	c-0.1,0.1-0.1,0.2-0.1,0.3l0.2,1.6c0,0.4-0.3,0.4-0.5,0.1l-1.1-1.4c-0.1-0.1-0.2-0.2-0.3-0.2h-1.1c-0.3,0-0.6-0.4-0.5-0.8l0.2-1.3
	c0-0.2,0-0.3-0.1-0.4l-0.9-1.6c-0.2-0.4-0.1-0.7,0.2-0.6l1.3,0.5c0.1,0.1,0.2,0,0.3-0.1l0.6-1C171.3,126.3,171.7,126.6,171.9,127z"
	/>
<path class="st2" d="M173.2,133.7c-0.2,0-0.4-0.1-0.5-0.2l-1.1-1.4c-0.1-0.1-0.1-0.1-0.2-0.1h-1.1c-0.2,0-0.4-0.1-0.5-0.2
	c-0.2-0.2-0.3-0.4-0.2-0.7l0.2-1.3c0-0.1,0-0.2-0.1-0.3l-0.9-1.6c-0.2-0.2-0.2-0.5,0-0.8c0.1-0.1,0.3-0.2,0.4-0.1l1.3,0.5
	c0,0,0.1,0,0.1,0l0.6-1c0.1-0.1,0.2-0.2,0.4-0.2c0.3,0.1,0.5,0.3,0.6,0.6l0.6,1.6c0,0.1,0.1,0.2,0.2,0.3l1.3,1
	c0.2,0.2,0.4,0.5,0.4,0.8c0,0.1-0.1,0.3-0.2,0.4l-0.9,0.5c0,0,0,0,0,0.1l0.2,1.6c0.1,0.2,0,0.4-0.2,0.5L173.2,133.7z M171.4,131.6
	c0.2,0,0.4,0.1,0.5,0.3l1.1,1.3c0.1,0.1,0.2,0.1,0.2,0.1c0,0,0-0.1,0-0.1l-0.2-1.6c0-0.2,0-0.4,0.2-0.5l0.9-0.5c0,0,0,0,0-0.1
	c0-0.2-0.1-0.4-0.2-0.5l-1.3-0.9c-0.2-0.1-0.3-0.3-0.3-0.5l-0.6-1.7c-0.1-0.1-0.2-0.3-0.3-0.4c0,0,0,0-0.1,0l-0.6,1
	c-0.1,0.2-0.3,0.2-0.5,0.1l-1.3-0.5h0c0,0-0.1,0.2,0.1,0.4l0.9,1.6c0.1,0.2,0.1,0.4,0.1,0.5l-0.2,1.3c0,0.2,0.1,0.3,0.2,0.4
	c0,0.1,0.1,0.1,0.2,0.1L171.4,131.6L171.4,131.6z"/>
<path class="st2" d="M179.1,131.1l0.6,1.6c0,0.2,0.1,0.3,0.3,0.4l1.3,1c0.3,0.2,0.4,0.7,0.2,0.8l-0.9,0.5c-0.1,0.1-0.1,0.2-0.1,0.3
	l0.2,1.6c0,0.4-0.3,0.5-0.5,0.1l-1.1-1.3c-0.1-0.1-0.2-0.2-0.3-0.2h-1.1c-0.3,0-0.6-0.4-0.5-0.8l0.2-1.3c0-0.2,0-0.3-0.1-0.4
	l-0.9-1.6c-0.2-0.4-0.1-0.7,0.2-0.6l1.3,0.5c0.1,0.1,0.2,0,0.3-0.1l0.6-1C178.6,130.5,179,130.8,179.1,131.1z"/>
<path class="st2" d="M180.4,137.9c-0.2,0-0.4-0.1-0.5-0.3l-1.1-1.3c0-0.1-0.1-0.1-0.2-0.1h-1.1c-0.2,0-0.3-0.1-0.5-0.2
	c-0.2-0.2-0.3-0.4-0.2-0.7l0.2-1.3c0-0.1,0-0.2-0.1-0.3l-0.9-1.6c-0.2-0.2-0.2-0.5,0-0.8c0.1-0.1,0.3-0.2,0.4-0.1l1.3,0.5
	c0.1,0,0.1,0,0.1,0l0.6-1c0.1-0.1,0.2-0.2,0.4-0.2c0.3,0.1,0.5,0.3,0.6,0.6l0.6,1.7c0,0.1,0.1,0.2,0.2,0.3l1.3,0.9
	c0.2,0.2,0.4,0.5,0.4,0.8c0,0.1-0.1,0.3-0.2,0.3l-0.9,0.5c0,0,0,0,0,0.1l0.2,1.6c0,0.2,0,0.4-0.2,0.5L180.4,137.9z M178.6,135.8
	c0.2,0,0.4,0.1,0.5,0.3l1.1,1.3c0,0.1,0.1,0.1,0.2,0.1c0,0,0-0.1,0-0.1l-0.2-1.6c0-0.2,0-0.4,0.2-0.5l0.9-0.5c0,0,0,0,0-0.1
	c0-0.2-0.1-0.4-0.2-0.5l-1.3-1c-0.2-0.1-0.3-0.3-0.3-0.5l-0.6-1.7c0-0.1-0.1-0.3-0.3-0.3h-0.1l-0.6,1c-0.1,0.2-0.3,0.2-0.5,0.1
	l-1.3-0.5l0,0c0,0-0.1,0.2,0.1,0.4l0.9,1.6c0.1,0.2,0.2,0.4,0.1,0.5l-0.2,1.3c0,0.2,0.1,0.3,0.2,0.4c0,0.1,0.1,0.1,0.2,0.1
	L178.6,135.8L178.6,135.8z"/>
<path class="st2" d="M186.3,135.3l0.6,1.7c0.1,0.2,0.1,0.3,0.3,0.4l1.3,0.9c0.3,0.2,0.4,0.7,0.2,0.8l-0.9,0.5
	c-0.1,0.1-0.1,0.2-0.1,0.3l0.2,1.6c0,0.4-0.3,0.5-0.5,0.1l-1.1-1.4c-0.1-0.1-0.2-0.2-0.3-0.2h-1.1c-0.3,0-0.6-0.4-0.5-0.8l0.2-1.3
	c0-0.2,0-0.3-0.1-0.4l-0.9-1.6c-0.2-0.4-0.1-0.7,0.2-0.6l1.3,0.5c0.1,0.1,0.2,0,0.3-0.1l0.6-1C185.8,134.7,186.2,134.9,186.3,135.3z
	"/>
<path class="st2" d="M187.6,142c-0.2,0-0.4-0.1-0.5-0.3l-1.1-1.4c-0.1-0.1-0.1-0.1-0.2-0.1h-1.1c-0.2,0-0.4-0.1-0.5-0.2
	c-0.2-0.2-0.3-0.4-0.2-0.7l0.2-1.3c0-0.1,0-0.2-0.1-0.3l-0.9-1.6c-0.2-0.2-0.2-0.5,0-0.8c0.1-0.1,0.3-0.2,0.5-0.1l1.3,0.5
	c0,0,0,0,0.1,0l0.6-1c0.1-0.1,0.2-0.2,0.4-0.2c0.3,0.1,0.5,0.3,0.6,0.6l0.6,1.6c0,0.1,0.1,0.2,0.2,0.3l1.3,1
	c0.2,0.2,0.4,0.5,0.4,0.8c0,0.1-0.1,0.3-0.2,0.4l-0.9,0.5c0,0,0,0.1,0,0.1l0.2,1.6c0.1,0.2,0,0.4-0.2,0.5
	C187.8,142.1,187.7,142.1,187.6,142z M185.8,140c0.2,0,0.4,0.1,0.5,0.3l1.1,1.4c0.1,0.1,0.2,0.1,0.2,0.1c0,0,0,0,0-0.1l-0.2-1.6
	c0-0.2,0-0.4,0.2-0.5l0.9-0.5v-0.1c0-0.2-0.1-0.4-0.2-0.5l-1.3-0.9c-0.2-0.1-0.3-0.3-0.3-0.5l-0.6-1.6c0-0.1-0.1-0.3-0.3-0.4h-0.1
	l-0.6,1c-0.1,0.2-0.3,0.2-0.5,0.1l-1.3-0.5h-0.1c0,0,0,0.2,0.1,0.4l0.9,1.6c0.1,0.2,0.2,0.4,0.1,0.5l-0.2,1.3c0,0.2,0,0.3,0.2,0.4
	c0.1,0.1,0.2,0.1,0.2,0.1L185.8,140L185.8,140z"/>
<path class="st0" d="M179.5,144.3l-16-9.2c-0.7-0.5-1.1-1.2-1.1-2.1l0,0c0-0.8,0.5-1.2,1.1-0.8l16,9.2c0.7,0.5,1.1,1.2,1.1,2.1l0,0
	C180.6,144.3,180.1,144.7,179.5,144.3z"/>
<path class="st2" d="M179.9,144.8c-0.2,0-0.4-0.1-0.6-0.2l0,0l-16-9.2c-0.8-0.5-1.2-1.4-1.2-2.4c0-0.5,0.2-0.9,0.5-1.2
	c0.3-0.2,0.7-0.2,1,0.1l16,9.2c0.8,0.5,1.2,1.4,1.2,2.4c0,0.5-0.2,0.9-0.5,1.2C180.3,144.7,180.1,144.8,179.9,144.8z M179.7,144
	c0.1,0.1,0.2,0.1,0.4,0.1c0.1-0.1,0.2-0.2,0.2-0.6c0-0.7-0.3-1.3-0.9-1.8l-16-9.2c-0.1-0.1-0.2-0.1-0.4-0.1
	c-0.2,0.2-0.2,0.4-0.2,0.6c0,0.7,0.3,1.3,0.9,1.8L179.7,144z"/>
<path class="st0" d="M158.4,114.4l26.2,15.1c2.2,1.3,3.9-0.1,3.9-3V97.7c0-2.9-1.8-6.3-3.9-7.5L158.4,75c-2.2-1.2-3.9,0.1-3.9,3
	v28.9C154.5,109.8,156.2,113.1,158.4,114.4z"/>
<path class="st2" d="M186.2,130.3c-0.6,0-1.2-0.2-1.7-0.5l-26.2-15.1c-2.3-1.3-4.1-4.8-4.1-7.8V78c-0.1-1.3,0.4-2.7,1.5-3.5
	c0.9-0.5,2.1-0.4,2.9,0.2l26.2,15.1c2.3,1.3,4.1,4.8,4.1,7.8v28.9c0.1,1.3-0.4,2.7-1.5,3.5C187,130.2,186.6,130.3,186.2,130.3z
	 M156.9,74.9c-0.3,0-0.6,0.1-0.8,0.2c-0.9,0.7-1.3,1.8-1.2,2.9v28.9c0,2.8,1.7,6,3.8,7.2l26.2,15.1c0.7,0.5,1.5,0.5,2.2,0.2
	c0.9-0.7,1.3-1.8,1.2-2.9V97.7c0-2.8-1.7-6-3.8-7.2l-26.2-15.1C157.8,75.1,157.4,74.9,156.9,74.9z"/>
<path class="st2" d="M185.2,127.5c-0.4,0-0.7-0.1-1.1-0.3l-25.5-14.7c-1.5-1-2.4-2.8-2.4-4.6V79.3c-0.1-0.8,0.3-1.6,0.9-2.1
	c0.6-0.3,1.3-0.3,1.8,0.1L184.4,92c1.5,1,2.4,2.8,2.4,4.6v28.6c0.1,0.8-0.3,1.6-1,2.1C185.7,127.5,185.4,127.5,185.2,127.5z
	 M157.9,77.7c-0.1,0-0.3,0-0.4,0.1c-0.5,0.4-0.7,0.9-0.6,1.5v28.6c0,1.6,0.8,3.1,2.1,4l25.4,14.7c0.3,0.2,0.8,0.3,1.1,0.1
	c0.5-0.4,0.7-0.9,0.6-1.5V96.6c0-1.6-0.8-3.1-2.1-4l-25.5-14.7C158.4,77.8,158.1,77.7,157.9,77.7z"/>
<path class="st0" d="M173.4,112.2c0,0,5.9,1.6,9.7,14.1l-24.2-14c0,0-0.9-9.6,8.2-4.2l5.3,3.7L173.4,112.2z"/>
<path class="st2" d="M183.7,127l-25.1-14.5v-0.2c0-0.2-0.4-4.2,2-5.7c1.5-1,3.8-0.6,6.8,1.2l5.3,3.7l0.9,0.4c0.5,0.1,6.2,2,9.9,14.3
	L183.7,127z M159.3,112.1l23.3,13.4c-3.7-11.4-9.2-13-9.2-13h0l-0.9-0.4l-5.3-3.7c-2.7-1.6-4.7-2-6-1.2
	C159.2,108.3,159.3,111.3,159.3,112.1z"/>
<path class="st0" d="M167.5,100c-0.4-2.5,1.6-4.1,3.7-5c2.6-1.2,6.8,3,7.2,7.3c0.2,1.3,0.1,2.7-0.2,4c-0.4,1.7-1.3,3.3-2.6,4.5
	c-1-0.3-2-0.8-2.7-1.6c-0.1,1.6,0.1,3.2,0.7,4.6c0,0,0.1,2.2-2.9,0.9s-4.2-5.6-4.2-5.6C167.6,106.2,167.9,103,167.5,100z"/>
<path class="st2" d="M172.3,115.4c-0.6,0-1.2-0.2-1.8-0.5c-3.1-1.4-4.4-5.6-4.4-5.8V109v-0.1c1.1-2.8,1.4-5.9,1-8.9
	c-0.3-2.2,1-4.1,3.9-5.4c1.1-0.4,2.3-0.2,3.2,0.4c2.5,1.6,4.2,4.2,4.5,7.1c0.2,1.4,0.1,2.7-0.2,4.1c-0.4,1.8-1.4,3.5-2.8,4.7
	l-0.1,0.1h-0.1c-0.9-0.2-1.6-0.6-2.3-1.2c0,1.3,0.2,2.6,0.7,3.8v0.1c0,0.5-0.2,1.1-0.7,1.4C173,115.3,172.7,115.4,172.3,115.4z
	 M166.9,109.1c0.2,0.7,1.5,4.1,4,5.2c0.9,0.4,1.6,0.5,2,0.3c0.2-0.2,0.4-0.5,0.4-0.8c-0.6-1.5-0.8-3.1-0.7-4.7l0.1-0.7l0.5,0.4
	c0.7,0.6,1.5,1.1,2.4,1.4c1.2-1.1,2-2.6,2.4-4.2c0.3-1.2,0.4-2.5,0.2-3.8c-0.4-2.7-1.9-5.1-4.2-6.6c-0.7-0.5-1.7-0.7-2.6-0.4
	c-2.6,1.2-3.8,2.8-3.5,4.6l0,0C168.3,103,167.9,106.1,166.9,109.1z"/>
<path class="st2" d="M176.6,108l-0.4-0.1c-0.7-0.2-1.2-0.7-1.5-1.3l0.6-0.3c0.2,0.3,0.4,0.6,0.7,0.8v-2h0.7L176.6,108z"/>
<path class="st2" d="M172.6,109.3c-0.5-0.6-1-1.2-1.5-1.8l0.6-0.4c0.4,0.6,0.9,1.2,1.4,1.7L172.6,109.3z"/>
<path class="st2" d="M174.6,103.1c0,0.6-0.2,0.9-0.5,0.7c-0.4-0.3-0.6-0.8-0.5-1.3c0-0.6,0.2-0.9,0.5-0.7
	C174.4,102.2,174.6,102.6,174.6,103.1z"/>
<path class="st2" d="M178.2,105.2c0,0.6-0.2,0.9-0.5,0.7c-0.4-0.3-0.6-0.8-0.5-1.3c0-0.6,0.2-0.9,0.5-0.7
	C178,104.2,178.2,104.7,178.2,105.2z"/>
<path class="st2" d="M169.4,115.9c-0.2-0.2-0.4-0.4-0.6-0.6l0.5-0.5l0.6,0.5L169.4,115.9z M168.3,114.9c-0.3-0.3-0.7-0.7-1-1
	l0.5-0.5c0.3,0.3,0.6,0.6,0.9,1L168.3,114.9z M166.8,113.3c-0.3-0.4-0.6-0.7-0.9-1.1l0.5-0.4c0.3,0.4,0.5,0.7,0.9,1.1L166.8,113.3z
	 M165.6,111.7c-0.3-0.4-0.5-0.8-0.8-1.2l0.6-0.4c0.2,0.4,0.5,0.8,0.7,1.1L165.6,111.7z M164.5,109.9c-0.2-0.4-0.4-0.8-0.6-1.2
	l0.6-0.3c0.2,0.4,0.4,0.8,0.6,1.2L164.5,109.9z M163.6,108c-0.2-0.4-0.3-0.9-0.5-1.4l0.7-0.2c0.1,0.4,0.3,0.8,0.4,1.2L163.6,108z"/>
<path class="st0" d="M178.4,101.9c0,0,2.3,0.9,2.5-2.2s-2.3-6.5-2.3-6.5s-0.5,3.4-3.6,0.2s-8.2-4.6-9.3-1.3
	c-0.5,2.2-0.4,4.5,0.4,6.6c0.1,0.4,0.2,0.8,0.1,1.2l0,0c-0.1,1.2,0.4,2.4,1.3,3.3l0,0l0.4-1.1c0.3-1,0.4-2,0.3-3
	c0-0.7,0-1.4,0.5-1.5c1-0.3,2,2.1,2,2.1S174.5,97.6,178.4,101.9z"/>
<path class="st2" d="M167.8,103.8l-0.4-0.4c-1-0.9-1.5-2.2-1.4-3.6c0-0.3,0-0.7-0.1-1c-0.8-2.2-0.9-4.6-0.4-6.8
	c0.3-1,1.1-1.8,2.2-2.1c2.1-0.5,5.4,0.8,7.6,3.2c1,1,1.8,1.4,2.3,1.3s0.8-1,0.8-1.2l0.1-0.8L179,93c0.1,0.1,2.5,3.6,2.3,6.8
	c0.1,0.9-0.4,1.8-1.1,2.4c-0.6,0.3-1.3,0.4-1.9,0.1l-0.1-0.1c-3.7-4-7.1-2.2-7.2-2.2l-0.3,0.2l-0.1-0.3c-0.4-0.9-1.2-2-1.6-1.9
	c-0.2,0.1-0.3,0.5-0.2,1.2c0.1,1.1,0,2.1-0.4,3.2L167.8,103.8z M168.6,90.5c-0.3,0-0.5,0-0.8,0.1c-0.8,0.2-1.5,0.8-1.7,1.6
	c-0.5,2.1-0.4,4.4,0.4,6.4c0.2,0.4,0.2,0.9,0.1,1.3c-0.1,0.9,0.2,1.8,0.8,2.6l0.2-0.5c0.3-0.9,0.4-1.9,0.3-2.9
	c-0.1-1.1,0.1-1.7,0.7-1.9c1-0.3,1.9,1.2,2.3,2c1-0.4,4.3-1.2,7.6,2.4c0.4,0.1,0.9,0.1,1.2-0.1c0.5-0.5,0.8-1.1,0.8-1.8
	c-0.1-2-0.7-4-1.8-5.7c-0.2,0.5-0.5,0.8-1,1c-0.8,0.2-1.8-0.2-3-1.4C173.2,91.8,171,90.7,168.6,90.5L168.6,90.5z"/>
<path class="st2" d="M175.1,109.1c-0.5-0.2-0.9-0.6-1.1-1l0.6-0.3c0.2,0.3,0.5,0.6,0.8,0.7L175.1,109.1z"/>
<path class="st2" d="M169.5,102.3c0,0-1.2-0.6-1.5-2.7l0.7-0.1c0.2,1.7,1.1,2.2,1.1,2.2L169.5,102.3z"/>
<path class="st2" d="M168.7,100H168c-0.1-0.4,0.1-0.8,0.5-1.1c0.6-0.3,1.2,0.2,1.4,0.3l-0.4,0.5c-0.2-0.2-0.5-0.3-0.6-0.3
	S168.7,99.7,168.7,100z"/>
<path class="st2" d="M179.6,98.8c-0.4,0-0.8-0.1-1.2-0.3c-3-1.3-8.5-6.6-8.8-6.8l0.5-0.5c0,0.1,5.7,5.4,8.6,6.6
	c0.6,0.3,1.1,0.3,1.2,0.1c0.4-0.4,0.1-1.6-0.1-2.2l0.6-0.2c0.1,0.2,0.8,2.2,0,2.9C180.2,98.7,179.9,98.8,179.6,98.8z"/>
<path class="st2" d="M166,99.2c-0.2-2.7,0.1-4.4,1-5c0.5-0.3,1-0.3,1.5-0.1l-0.3,0.6l0.2-0.3l-0.2,0.3c-0.3-0.1-0.6-0.1-0.8,0
	c-0.4,0.3-1,1.2-0.7,4.4L166,99.2z"/>
<path class="st2" d="M173.2,117.6v-0.7c0.2,0,0.4,0,0.6-0.1l0.1,0.7C173.8,117.6,173.5,117.6,173.2,117.6z M174.7,117.3l-0.3-0.6
	c0.4-0.2,0.7-0.4,1-0.7l0.5,0.5C175.6,116.8,175.2,117.1,174.7,117.3z M176.4,115.9l-0.5-0.4c0.2-0.3,0.4-0.7,0.5-1.1l0.7,0.2
	C177,115.1,176.7,115.5,176.4,115.9L176.4,115.9z"/>
</svg>
