<?xml version="1.0" encoding="utf-8"?>
<!-- Generator: Adobe Illustrator 25.2.3, SVG Export Plug-In . SVG Version: 6.00 Build 0)  -->
<svg version="1.1" id="f8f383f0-260f-4284-9991-ccd81d31eb96"
	 xmlns="http://www.w3.org/2000/svg" xmlns:xlink="http://www.w3.org/1999/xlink" x="0px" y="0px" viewBox="0 0 264.1 253"
	 style="enable-background:new 0 0 264.1 253;" xml:space="preserve">
<style type="text/css">
	.st0{clip-path:url(#SVGID_2_);}
	.st1{fill:#150035;}
	.st2{fill:#042EC4;}
	.st3{fill:#FFFFFF;}
	.st4{clip-path:url(#SVGID_4_);}
	.st5{fill:#1A0E33;}
	.st6{clip-path:url(#SVGID_6_);}
	.st7{clip-path:url(#SVGID_8_);}
	.st8{clip-path:url(#SVGID_10_);}
	.st9{clip-path:url(#SVGID_12_);}
	.st10{clip-path:url(#SVGID_14_);}
</style>
<g>
	<g>
		<g>
			<defs>
				<path id="SVGID_1_" d="M231.9,171.1l26.1,15c2.9,1.7,3.2,4.2,0.7,5.6l-28.2,16.4c-2.5,1.4-6.9,1.2-9.8-0.4l-26.2-15
					c-2.9-1.7-3.2-4.2-0.7-5.6l28.2-16.4C224.6,169.2,229,169.3,231.9,171.1z"/>
			</defs>
			<clipPath id="SVGID_2_">
				<use xlink:href="#SVGID_1_"  style="overflow:visible;"/>
			</clipPath>
			<g class="st0">
				
					<rect x="186.7" y="181.1" transform="matrix(0.8663 -0.4995 0.4995 0.8663 -62.08 131.0468)" class="st1" width="54.2" height="0.8"/>
				
					<rect x="188.9" y="182.3" transform="matrix(0.8663 -0.4995 0.4995 0.8663 -62.3888 132.3163)" class="st1" width="54.2" height="0.8"/>
				
					<rect x="190.8" y="183.5" transform="matrix(0.8663 -0.4995 0.4995 0.8663 -62.7341 133.4188)" class="st1" width="54.2" height="0.8"/>
				
					<rect x="193" y="184.6" transform="matrix(0.8663 -0.4995 0.4995 0.8663 -62.9876 134.6627)" class="st1" width="54.2" height="0.8"/>
				
					<rect x="194.8" y="185.9" transform="matrix(0.8663 -0.4995 0.4995 0.8663 -63.4011 135.7398)" class="st1" width="54.2" height="0.8"/>
				
					<rect x="197" y="187" transform="matrix(0.8663 -0.4995 0.4995 0.8663 -63.6479 136.9875)" class="st1" width="54.2" height="0.8"/>
				
					<rect x="198.9" y="188.2" transform="matrix(0.8663 -0.4995 0.4995 0.8663 -63.9955 138.0886)" class="st1" width="54.2" height="0.8"/>
				
					<rect x="201.1" y="189.4" transform="matrix(0.8663 -0.4995 0.4995 0.8663 -64.306 139.3557)" class="st1" width="54.2" height="0.8"/>
				
					<rect x="203.1" y="190.6" transform="matrix(0.8663 -0.4995 0.4995 0.8663 -64.6339 140.5199)" class="st1" width="54.2" height="0.8"/>
				
					<rect x="205.3" y="191.8" transform="matrix(0.8663 -0.4995 0.4995 0.8663 -64.9335 141.7753)" class="st1" width="54.2" height="0.8"/>
				
					<rect x="207.2" y="192.9" transform="matrix(0.8663 -0.4995 0.4995 0.8663 -65.2308 142.8653)" class="st1" width="54.2" height="0.8"/>
				
					<rect x="209.4" y="194.1" transform="matrix(0.8663 -0.4995 0.4995 0.8663 -65.5413 144.1297)" class="st1" width="54.2" height="0.8"/>
				
					<rect x="211.2" y="195.3" transform="matrix(0.8663 -0.4995 0.4995 0.8663 -65.8952 145.1829)" class="st1" width="54.2" height="0.8"/>
				
					<rect x="213.4" y="196.5" transform="matrix(0.8663 -0.4995 0.4995 0.8663 -66.2027 146.4521)" class="st1" width="54.2" height="0.8"/>
				
					<rect x="215.3" y="197.7" transform="matrix(0.8663 -0.4995 0.4995 0.8663 -66.5493 147.5549)" class="st1" width="54.2" height="0.8"/>
				
					<rect x="217.5" y="198.9" transform="matrix(0.8663 -0.4995 0.4995 0.8663 -66.852 148.8143)" class="st1" width="54.2" height="0.8"/>
				
					<rect x="219.5" y="200" transform="matrix(0.8663 -0.4995 0.4995 0.8663 -67.1276 149.9611)" class="st1" width="54.2" height="0.8"/>
				
					<rect x="178.4" y="176.5" transform="matrix(0.8663 -0.4995 0.4995 0.8663 -60.8933 126.2983)" class="st1" width="54.2" height="0.8"/>
				
					<rect x="180.5" y="177.7" transform="matrix(0.8664 -0.4994 0.4994 0.8664 -61.2102 127.4725)" class="st1" width="54.2" height="0.8"/>
				
					<rect x="182.5" y="178.9" transform="matrix(0.8663 -0.4995 0.4995 0.8663 -61.544 128.6669)" class="st1" width="54.2" height="0.8"/>
				
					<rect x="186" y="180.8" transform="matrix(0.867 -0.4983 0.4983 0.867 -61.9377 130.3318)" class="st1" width="54.4" height="0.8"/>
				
					<rect x="186.6" y="181.2" transform="matrix(0.8663 -0.4995 0.4995 0.8663 -62.146 131.014)" class="st1" width="54.2" height="0.8"/>
			</g>
		</g>
	</g>
</g>
<path class="st2" d="M258.2,175.9l-10-0.9l0,0l-17.4-10c-2.9-1.7-7.3-1.9-9.8-0.4l-15.3,8.8h-0.4l-12.5,2.1c-0.1,0-0.1,0-0.1,0.1
	l0,0v6.8c0,1.2,0.7,2.3,2.4,3.2l25.1,14.5c2.9,1.7,7.3,1.9,9.8,0.4l26.6-15.3c0.9-0.4,1.6-1.3,1.7-2.3v-6.8
	C258.3,176,258.3,176,258.2,175.9C258.3,175.9,258.3,175.9,258.2,175.9L258.2,175.9z"/>
<path class="st1" d="M225.8,202.1c-2,0-4.1-0.5-5.9-1.5l-25.1-14.5c-1.8-1.1-2.7-2.3-2.7-3.9v-6.7c0-0.4,0.3-0.7,0.7-0.8l12.6-2.1
	h0.2l15.1-8.7c2.7-1.6,7.3-1.4,10.5,0.4l17.2,10l9.9,0.9c0.4,0,0.7,0.4,0.7,0.8v6.8c-0.1,1.2-0.9,2.3-2,2.9l-26.5,15.4
	C229,201.9,227.4,202.2,225.8,202.1z M193.5,176.1v6.2c0,0.7,0.2,1.6,2.1,2.7l25.1,14.5c2.8,1.6,6.2,1.7,9.1,0.4l26.5-15.4
	c0.7-0.3,1.2-1,1.4-1.8v-6.2l-9.7-0.9l-0.2-0.1l-17.4-10c-2.7-1.6-6.8-1.7-9.1-0.4l-15.4,8.9h-0.5L193.5,176.1z"/>
<path class="st1" d="M225.6,201.4c1.6,0.1,3.1-0.3,4.6-1l24.6-14.2v-10.6l-6.5-0.6l0,0l-12.8-7.4h-9.9L225.6,201.4L225.6,201.4z"/>
<path class="st1" d="M225.8,202.1h-1v-35.2h10.7l12.9,7.4l7,0.6v11.6l-25,14.5C229,201.8,227.4,202.1,225.8,202.1z M226.2,168.3
	v32.5c1.2,0,2.4-0.3,3.5-0.9l24.3-14v-9.6l-6.1-0.6l-0.2-0.1l-12.6-7.3L226.2,168.3z"/>
<path class="st2" d="M230.8,158.3l25.1,14.5c2.9,1.7,3.2,4.2,0.7,5.6L230,193.8c-2.5,1.4-6.9,1.2-9.8-0.4l-25.1-14.5
	c-2.9-1.7-3.2-4.2-0.7-5.6L221,158C223.5,156.4,227.9,156.6,230.8,158.3z"/>
<path class="st1" d="M225.8,195.5c-2,0-4-0.5-5.8-1.5l-25.1-14.5c-1.5-0.7-2.5-2.1-2.7-3.8c0.1-1.3,0.8-2.4,2-3l26.6-15.3
	c2.7-1.6,7.3-1.4,10.5,0.4l25.2,14.4c1.5,0.7,2.5,2.1,2.7,3.7c-0.1,1.3-0.8,2.4-2,3l-26.6,15.4C229,195.1,227.4,195.5,225.8,195.5z
	 M225.2,157.6c-1.4,0-2.7,0.3-3.9,0.9l-26.6,15.3c-0.7,0.3-1.3,1-1.4,1.9c0,0.9,0.8,1.9,2.1,2.6l25.1,14.5c2.7,1.6,6.8,1.7,9.1,0.4
	l26.6-15.3c0.7-0.3,1.3-1,1.4-1.9c0-0.9-0.8-1.9-2-2.6l-25.1-14.5C228.9,158,227.1,157.6,225.2,157.6L225.2,157.6z"/>
<polygon class="st2" points="220.7,173.1 222.9,178.3 224.7,177.2 228.8,179.6 232,177.7 227.9,175.4 229.8,174.3 "/>
<path class="st3" d="M228.8,180.1l-4-2.3l-2.1,1.2l-2.7-6.6l11.5,1.6l-2.4,1.4l4.1,2.3L228.8,180.1z M224.8,176.6l4,2.3l2.2-1.2
	l-4-2.3l1.2-0.8l-6.6-0.9l1.6,3.8L224.8,176.6z"/>
<rect x="195.8" y="179.6" class="st1" width="1.4" height="6.7"/>
<rect x="220" y="193.5" class="st1" width="1.4" height="6.7"/>
<path class="st2" d="M235,196.1c-0.1,0-0.3,0-0.4-0.1c-0.3-0.2-0.5-0.6-0.5-0.9v-1.2c0-0.6,0.3-1.2,0.9-1.6l3.5-2
	c0.3-0.2,0.6-0.2,0.9,0c0.3,0.2,0.5,0.6,0.5,0.9v1.2c0,0.6-0.3,1.2-0.8,1.6l-3.4,2C235.4,196.1,235.2,196.1,235,196.1z M238.8,191.2
	l-3.2,1.9c-0.2,0.2-0.3,0.4-0.3,0.7v1.1l3.3-1.9c0.2-0.2,0.3-0.5,0.2-0.7V191.2z"/>
<path class="st2" d="M243.1,191.5c-0.1,0-0.3,0-0.4-0.1c-0.3-0.2-0.5-0.6-0.5-1v-1.2c0-0.6,0.3-1.2,0.9-1.6l3.5-2
	c0.3-0.2,0.6-0.2,0.9,0c0.3,0.2,0.5,0.6,0.5,0.9v1.2c0,0.6-0.3,1.2-0.9,1.6l0,0l-3.5,2C243.5,191.4,243.3,191.4,243.1,191.5z
	 M246.9,186.5l-3.3,1.9c-0.2,0.2-0.3,0.4-0.3,0.7v1.2l3.3-1.9c0.2-0.2,0.3-0.4,0.4-0.7L246.9,186.5z"/>
<rect x="227.4" y="195.2" class="st2" width="1.1" height="5.2"/>
<g>
	<g>
		<g>
			<defs>
				<path id="SVGID_3_" d="M163.4,211.1l-8.4,5c-2.9,1.3-6.3,1.2-9.1-0.4l-57.2-33.2c-2.7-1.6-3-3.9-0.7-5.2l8.4-4.8
					c2.9-1.3,6.3-1.2,9.1,0.4l57.2,33.2C165.4,207.5,165.7,209.9,163.4,211.1z"/>
			</defs>
			<clipPath id="SVGID_4_">
				<use xlink:href="#SVGID_3_"  style="overflow:visible;"/>
			</clipPath>
			<g class="st4">
				
					<rect x="-16.5" y="203.6" transform="matrix(0.8663 -0.4995 0.4995 0.8663 -90.0805 71.4227)" class="st1" width="209.8" height="0.8"/>
				
					<rect x="-14.3" y="204.8" transform="matrix(0.8663 -0.4995 0.4995 0.8663 -90.388 72.6918)" class="st1" width="209.8" height="0.8"/>
				
					<rect x="-12.4" y="206" transform="matrix(0.8663 -0.4995 0.4995 0.8663 -90.7312 73.7913)" class="st1" width="209.8" height="0.8"/>
				
					<rect x="-10.2" y="207.1" transform="matrix(0.8663 -0.4995 0.4995 0.8663 -90.986 75.039)" class="st1" width="209.8" height="0.8"/>
				
					<rect x="-8.4" y="208.4" transform="matrix(0.8663 -0.4995 0.4995 0.8663 -91.4017 76.1156)" class="st1" width="209.8" height="0.8"/>
				
					<rect x="-6.2" y="209.5" transform="matrix(0.8663 -0.4995 0.4995 0.8663 -91.6481 77.3613)" class="st1" width="209.8" height="0.8"/>
				
					<rect x="-4.3" y="210.7" transform="matrix(0.8663 -0.4995 0.4995 0.8663 -91.996 78.4637)" class="st1" width="209.8" height="0.8"/>
				
					<rect x="-2.1" y="211.9" transform="matrix(0.8664 -0.4994 0.4994 0.8664 -92.2862 79.7055)" class="st1" width="209.8" height="0.8"/>
				
					<rect x="-0.2" y="213.1" transform="matrix(0.8663 -0.4995 0.4995 0.8663 -92.6567 80.8353)" class="st1" width="209.8" height="0.8"/>
				
					<rect x="2" y="214.2" transform="matrix(0.8663 -0.4995 0.4995 0.8663 -92.9062 82.077)" class="st1" width="209.8" height="0.8"/>
				
					<rect x="4" y="215.4" transform="matrix(0.8663 -0.4995 0.4995 0.8663 -93.2296 83.2415)" class="st1" width="209.8" height="0.8"/>
				
					<rect x="6.2" y="216.5" transform="matrix(0.8663 -0.4995 0.4995 0.8663 -93.4834 84.4848)" class="st1" width="209.8" height="0.8"/>
				
					<rect x="8" y="217.8" transform="matrix(0.8663 -0.4995 0.4995 0.8663 -93.8974 85.5598)" class="st1" width="209.8" height="0.8"/>
				
					<rect x="10.1" y="219" transform="matrix(0.8663 -0.4995 0.4995 0.8663 -94.225 86.7705)" class="st1" width="209.8" height="0.8"/>
				
					<rect x="12.1" y="220.2" transform="matrix(0.8664 -0.4994 0.4994 0.8664 -94.5322 87.9061)" class="st1" width="209.8" height="0.8"/>
				
					<rect x="14.3" y="221.3" transform="matrix(0.8663 -0.4995 0.4995 0.8663 -94.8036 89.1787)" class="st1" width="209.8" height="0.8"/>
				
					<rect x="16.2" y="222.5" transform="matrix(0.8663 -0.4995 0.4995 0.8663 -95.1525 90.2795)" class="st1" width="209.8" height="0.8"/>
				
					<rect x="-45.2" y="187.1" transform="matrix(0.8663 -0.4995 0.4995 0.8663 -85.6718 54.8821)" class="st1" width="209.8" height="0.8"/>
				
					<rect x="-43" y="188.3" transform="matrix(0.8663 -0.4995 0.4995 0.8663 -85.983 56.1499)" class="st1" width="209.8" height="0.8"/>
				
					<rect x="-41.2" y="189.5" transform="matrix(0.8663 -0.4995 0.4995 0.8663 -86.3366 57.2045)" class="st1" width="209.8" height="0.8"/>
				
					<rect x="-39.1" y="190.7" transform="matrix(0.8663 -0.4995 0.4995 0.8663 -86.6635 58.4155)" class="st1" width="209.8" height="0.8"/>
				
					<rect x="-37.1" y="191.9" transform="matrix(0.8663 -0.4995 0.4995 0.8663 -86.991 59.5744)" class="st1" width="209.8" height="0.8"/>
				
					<rect x="-35" y="193.1" transform="matrix(0.8663 -0.4995 0.4995 0.8663 -87.3165 60.7768)" class="st1" width="209.8" height="0.8"/>
				
					<rect x="-33" y="194.2" transform="matrix(0.8663 -0.4995 0.4995 0.8663 -87.589 61.9215)" class="st1" width="209.8" height="0.8"/>
				
					<rect x="-30.8" y="195.4" transform="matrix(0.8663 -0.4995 0.4995 0.8663 -87.8995 63.1893)" class="st1" width="209.8" height="0.8"/>
				
					<rect x="-28.9" y="196.6" transform="matrix(0.8663 -0.4995 0.4995 0.8663 -88.2512 64.2931)" class="st1" width="209.8" height="0.8"/>
				
					<rect x="-26.7" y="197.7" transform="matrix(0.8663 -0.4995 0.4995 0.8663 -88.5033 65.5374)" class="st1" width="209.8" height="0.8"/>
				
					<rect x="-24.8" y="199" transform="matrix(0.8663 -0.4995 0.4995 0.8663 -88.8934 66.6721)" class="st1" width="209.8" height="0.8"/>
				
					<rect x="-22.7" y="200.1" transform="matrix(0.8663 -0.4995 0.4995 0.8663 -89.1616 67.8584)" class="st1" width="209.8" height="0.8"/>
				
					<rect x="-20.8" y="201.3" transform="matrix(0.8663 -0.4995 0.4995 0.8663 -89.5078 68.9625)" class="st1" width="209.8" height="0.8"/>
				
					<rect x="-18.6" y="202.5" transform="matrix(0.8663 -0.4995 0.4995 0.8663 -89.8217 70.227)" class="st1" width="209.8" height="0.8"/>
				
					<rect x="-16.6" y="203.7" transform="matrix(0.8663 -0.4995 0.4995 0.8663 -90.1462 71.3878)" class="st1" width="209.8" height="0.8"/>
				
					<rect x="44.9" y="239.1" transform="matrix(0.8664 -0.4994 0.4994 0.8664 -99.5942 106.8129)" class="st1" width="209.8" height="0.8"/>
				
					<rect x="47" y="240.2" transform="matrix(0.8663 -0.4995 0.4995 0.8663 -99.8803 108.0306)" class="st1" width="209.8" height="0.8"/>
				
					<rect x="49" y="241.4" transform="matrix(0.8663 -0.4995 0.4995 0.8663 -100.2051 109.1928)" class="st1" width="209.8" height="0.8"/>
				
					<rect x="51.2" y="242.5" transform="matrix(0.8663 -0.4995 0.4995 0.8663 -100.4576 110.4357)" class="st1" width="209.8" height="0.8"/>
				
					<rect x="53.4" y="244.6" transform="matrix(0.867 -0.4983 0.4983 0.867 -100.9669 111.6677)" class="st1" width="210.6" height="0.8"/>
				
					<rect x="55.1" y="244.9" transform="matrix(0.8663 -0.4995 0.4995 0.8663 -101.1411 112.7027)" class="st1" width="209.8" height="0.8"/>
				
					<rect x="57.1" y="246.2" transform="matrix(0.8663 -0.4995 0.4995 0.8663 -101.5253 113.8867)" class="st1" width="209.8" height="0.8"/>
				
					<rect x="59.3" y="247.3" transform="matrix(0.8663 -0.4995 0.4995 0.8663 -101.7774 115.1283)" class="st1" width="209.8" height="0.8"/>
				
					<rect x="61.2" y="248.6" transform="matrix(0.8664 -0.4994 0.4994 0.8664 -102.167 116.222)" class="st1" width="209.8" height="0.8"/>
				
					<rect x="63.4" y="249.6" transform="matrix(0.8663 -0.4995 0.4995 0.8663 -102.3774 117.4751)" class="st1" width="209.8" height="0.8"/>
				
					<rect x="65.4" y="250.8" transform="matrix(0.8663 -0.4995 0.4995 0.8663 -102.7022 118.64)" class="st1" width="209.8" height="0.8"/>
				
					<rect x="67.6" y="252.1" transform="matrix(0.8664 -0.4994 0.4994 0.8664 -103.052 119.8941)" class="st1" width="209.8" height="0.8"/>
				
					<rect x="69.4" y="253.3" transform="matrix(0.8663 -0.4995 0.4995 0.8663 -103.4264 120.9787)" class="st1" width="209.8" height="0.8"/>
				
					<rect x="71.5" y="254.4" transform="matrix(0.8663 -0.4995 0.4995 0.8663 -103.6972 122.1676)" class="st1" width="209.8" height="0.8"/>
				
					<rect x="73.5" y="255.6" transform="matrix(0.8663 -0.4995 0.4995 0.8663 -104.022 123.3299)" class="st1" width="209.8" height="0.8"/>
				
					<rect x="75.7" y="256.8" transform="matrix(0.8664 -0.4994 0.4994 0.8664 -104.3115 124.561)" class="st1" width="209.8" height="0.8"/>
				
					<rect x="77.6" y="258" transform="matrix(0.8663 -0.4995 0.4995 0.8663 -104.6808 125.7015)" class="st1" width="209.8" height="0.8"/>
				
					<rect x="18.4" y="223.7" transform="matrix(0.8663 -0.4995 0.4995 0.8663 -95.4553 91.5497)" class="st1" width="209.8" height="0.8"/>
				
					<rect x="20.2" y="225" transform="matrix(0.8663 -0.4995 0.4995 0.8663 -95.8659 92.6247)" class="st1" width="209.8" height="0.8"/>
				
					<rect x="22.3" y="226.1" transform="matrix(0.8663 -0.4995 0.4995 0.8663 -96.1357 93.812)" class="st1" width="209.8" height="0.8"/>
				
					<rect x="24.3" y="227.3" transform="matrix(0.8663 -0.4995 0.4995 0.8663 -96.4615 94.9732)" class="st1" width="209.8" height="0.8"/>
				
					<rect x="26.5" y="228.4" transform="matrix(0.8663 -0.4995 0.4995 0.8663 -96.714 96.2188)" class="st1" width="209.8" height="0.8"/>
				
					<rect x="28.4" y="229.7" transform="matrix(0.8663 -0.4995 0.4995 0.8663 -97.1203 97.3441)" class="st1" width="209.8" height="0.8"/>
				
					<rect x="30.6" y="230.8" transform="matrix(0.8663 -0.4995 0.4995 0.8663 -97.3715 98.5874)" class="st1" width="209.8" height="0.8"/>
				
					<rect x="32.5" y="232" transform="matrix(0.8663 -0.4995 0.4995 0.8663 -97.7207 99.6895)" class="st1" width="209.8" height="0.8"/>
				
					<rect x="34.7" y="233.1" transform="matrix(0.8663 -0.4995 0.4995 0.8663 -97.9725 100.9325)" class="st1" width="209.8" height="0.8"/>
				
					<rect x="36.5" y="234.4" transform="matrix(0.8663 -0.4995 0.4995 0.8663 -98.3865 102.0135)" class="st1" width="209.8" height="0.8"/>
				
					<rect x="39.5" y="236.6" transform="matrix(0.867 -0.4983 0.4983 0.867 -98.8383 103.671)" class="st1" width="210.6" height="0.8"/>
				
					<rect x="40.7" y="236.8" transform="matrix(0.8663 -0.4995 0.4995 0.8663 -99.0171 104.4405)" class="st1" width="209.8" height="0.8"/>
				
					<rect x="42.8" y="237.9" transform="matrix(0.8663 -0.4995 0.4995 0.8663 -99.2913 105.6267)" class="st1" width="209.8" height="0.8"/>
				
					<rect x="44.8" y="239.1" transform="matrix(0.8663 -0.4995 0.4995 0.8663 -99.6161 106.7889)" class="st1" width="209.8" height="0.8"/>
			</g>
		</g>
	</g>
</g>
<path class="st2" d="M194.4,84.2l-135-78c-0.9-0.6-2.1-0.8-3.2-0.3l0,0c-2.9,1.3-5.7,3-8.3,4.9l6.5,6.3V114c0,3.8,2.3,8.1,5,9.7
	l131.1,75.7l-4.6,2.2l3.3,5.2c3.2-1.1,6.1-2.8,8.6-5c1.1-1,1.7-2.5,1.6-4v-104C199.5,90.1,197.2,85.8,194.4,84.2z"/>
<path class="st1" d="M189,207.6l-4-6.2l4.1-2l-130-75c-3-1.7-5.4-6.2-5.4-10.3V17.4l-6.8-6.7l0.6-0.5c2.6-2,5.5-3.7,8.5-5
	c1.3-0.6,2.7-0.4,3.8,0.3l135,77.9c3,1.8,5.4,6.2,5.4,10.3v104c0.2,1.7-0.5,3.4-1.8,4.5c-2.6,2.3-5.6,4.1-8.9,5.2L189,207.6z
	 M187,201.9l2.6,4.1c2.9-1.1,5.6-2.7,8-4.8c0.9-0.9,1.4-2.2,1.2-3.4v-104c0-3.5-2.1-7.6-4.7-9.1L59,6.8c-0.7-0.5-1.7-0.6-2.5-0.3
	c-2.7,1.2-5.2,2.7-7.6,4.4l6.1,6V114c0,3.5,2.1,7.6,4.7,9.1l132.2,76.3L187,201.9z"/>
<polygon class="st1" points="54.4,26.5 54.4,62.3 137.6,111.1 189.3,81.2 74.5,14.9 "/>
<path class="st1" d="M137.6,111.9l-0.3-0.2l-83.5-49V26.1l20.8-12l0.3,0.2l115.9,66.9L137.6,111.9z M55.1,61.9l82.5,48.4L188,81.2
	L74.6,15.7L55.2,26.9L55.1,61.9z"/>
<polygon class="st1" points="52.7,15.5 54.3,17.1 54.3,20.2 68.7,11.6 61.7,7.5 53.3,12.3 "/>
<path class="st1" d="M53.6,21.5v-4.1l-1.7-1.6l0.8-3.9l9-5.1l8.3,4.8L53.6,21.5z M53.4,15.3l1.6,1.5V19l12.3-7.5l-5.7-3.2l-7.7,4.4
	L53.4,15.3z"/>
<path class="st2" d="M159.4,201.1c-0.3-1.3-1.1-2.4-2.3-3l-5.2-3c-5.3-3.1-9.7-10.6-9.7-16.8v-34.9v-0.1l-5.4-3.1c0,0-0.1,0-0.2,0
	v0.1c0.4,1.3,0.6,2.7,0.6,4.1v25.2c0,1.3-0.3,2.6-0.9,3.8l-0.5-4.1c0-0.1,0-0.1-0.1-0.1l0,0l-11,1.2h-0.1c-2.4-3-3.7-6.6-3.9-10.4
	v-25.1c0-1.2,0.2-2.3,0.7-3.4v-0.1l0,0l-5.3-3.1c0,0-0.1,0-0.2,0l0,0l0,0v34.5c0,6.2-4.4,8.8-9.8,5.7l-5.5-3.1
	c-0.6-0.3-1-0.4-1.3-0.2h-0.1c-3.6,1.6-7.1,3.6-10.2,5.9c0,0.1,0,0.1,0,0.2l0,0l4.1,3.7l0,0l50.5,28.1l0,0l4.9,5.8h0.1
	c0.7-0.3,6.8-2.6,10.4-6.1C159.3,202.2,159.5,201.7,159.4,201.1z"/>
<path class="st1" d="M148.6,209.8c-0.2,0-0.5-0.1-0.6-0.3l-4.9-5.7l-50.6-28.1l-4.4-3.9v-0.4c0-0.2,0.1-0.5,0.3-0.6
	c3.2-2.4,6.7-4.4,10.4-6l0,0c0.7-0.3,1.4-0.2,2,0.2l5.5,3.1c2.4,1.4,4.6,1.6,6.2,0.7s2.5-3,2.5-5.8v-34.6c0-0.3,0.2-0.6,0.4-0.7
	c0.3-0.1,0.6-0.1,0.8,0l5.3,3.1c0.3,0.2,0.5,0.6,0.3,1c-0.4,1-0.7,2-0.6,3.1v25.2c0.2,3.5,1.4,6.9,3.6,9.7l10.6-1.2
	c0.4,0,0.8,0.3,0.9,0.7l0.1,0.6v-25.3c0-1.3-0.2-2.6-0.6-3.9c-0.1-0.4,0.1-0.9,0.5-1l0,0l0,0c0.2-0.1,0.4,0,0.6,0.1l5.3,3.1
	c0.2,0.2,0.4,0.4,0.4,0.7v34.8c0.4,6.6,3.8,12.6,9.4,16.3l5.2,3c1.3,0.7,2.3,2,2.6,3.5l0,0c0.3,0.9,0.1,1.8-0.6,2.5
	c-3.7,3.6-10,6-10.7,6.2C148.7,209.8,148.6,209.8,148.6,209.8z M93.4,174.6l50.6,28.1l0.1,0.1l4.7,5.5c3.6-1.3,6.9-3.3,9.8-5.8
	c0.3-0.4,0.3-0.8,0.1-1.2l0,0c-0.3-1.1-1-2-2-2.6l-5.2-3c-5.6-3.2-10-11-10-17.4v-34.5l-3.8-2.2c0.2,1,0.3,1.9,0.3,2.9v25.2
	c0,1.4-0.3,2.9-1,4.1l-1,1.7l-0.7-5.6l-10.4,1.2c-0.3,0-0.6-0.1-0.7-0.3c-2.5-3.1-3.9-6.8-4.1-10.8v-25.3c0-1.1,0.2-2.2,0.5-3.2
	l-4-2.3v33.6c0,3.3-1.2,5.7-3.2,6.9s-4.8,1-7.6-0.7l-5.5-3c-0.5-0.3-0.6-0.2-0.6-0.2l-0.2,0.1c-3.4,1.5-6.6,3.3-9.6,5.5L93.4,174.6z
	"/>
<path class="st5" d="M159.4,201.2c-0.1-0.6,0-0.7-0.4-1.2c-3.1,2.6-6.6,4.6-10.5,5.8l-2.6,0.3l2.6,3h0.1c0.7-0.3,6.8-2.6,10.4-6.1
	C159.5,202.5,159.6,201.8,159.4,201.2z"/>
<path class="st1" d="M148.6,209.9c-0.2,0-0.5-0.1-0.6-0.3l-3.4-4l3.9-0.5l0,0c3.7-1.3,7.1-3.2,10.1-5.7l0.5-0.4l0.4,0.6
	c0.3,0.3,0.5,0.7,0.5,1.1v0.4c0.3,0.9,0.1,1.8-0.6,2.5c-3.7,3.6-9.9,6-10.6,6.2C148.7,209.9,148.7,209.9,148.6,209.9z M147.3,206.6
	l1.5,1.8c3.6-1.4,6.9-3.3,9.8-5.8c0.3-0.4,0.3-0.8,0.1-1.2l0,0v-0.3c-3,2.3-6.4,4.2-10,5.3L147.3,206.6z"/>
<path class="st3" d="M143.3,203.1L143.3,203.1l1.3,1.6l12-6.9l-5-2.9c-0.8-0.5-1.5-1-2.2-1.6c-5,2.8-9.8,5.5-11.8,6.6L143.3,203.1z"
	/>
<path class="st1" d="M144.5,205.6l-1.6-2l-6.6-3.8l1.1-0.6c1.9-1,6.8-3.8,11.8-6.6l0.4-0.2l0.4,0.3c0.7,0.6,1.4,1.1,2.1,1.5l6,3.5
	L144.5,205.6z M139,200l4.8,2.7l1,1.1l10.5-6l-4-2.3c-0.7-0.4-1.3-0.8-1.9-1.4C145.3,196.5,141.3,198.7,139,200L139,200z"/>
<path class="st3" d="M106,168.6l-5.5-3.1c-0.6-0.3-1-0.4-1.3-0.2H99c-3.6,1.6-7.1,3.6-10.2,6v0.1l0,0L93,175l0,0l0.5,0.8L106,168.6z
	"/>
<path class="st1" d="M93.3,176.9l-0.8-1.3l-4.3-3.9v-0.4c0-0.2,0.1-0.5,0.3-0.6c3.2-2.4,6.7-4.4,10.4-6l0,0c0.6-0.3,1.4-0.2,2,0.2
	l6.5,3.8L93.3,176.9z M93.3,174.6L93.3,174.6l0.4,0.4l10.9-6.4l-4.4-2.5c-0.5-0.3-0.6-0.2-0.6-0.2l-0.2,0.1
	c-3.4,1.5-6.6,3.3-9.6,5.5L93.3,174.6z"/>
<path class="st1" d="M142.1,178.2v-13.3c-2.2-0.8-3.9-1.3-4.1-1.3c-0.3,0-0.5,0.1-0.8,0.2v6.1c0,1.3-0.3,2.6-0.9,3.8l-0.5-4.1
	c0-0.1,0-0.1-0.1-0.1l0,0l-11,1.2h-0.1c-0.6-0.7-1.1-1.5-1.5-2.3l-0.5,0.2l1.2,23.5l5.8,3.5l0.2,0.2l4.7,2.6l0.7-0.9
	c0,0,5.8-3.2,11.7-6.8C144,187.1,142.4,182.7,142.1,178.2z"/>
<path class="st1" d="M134.6,199.1l-5.4-3l-0.2-0.2l-6-3.6l-1.2-24.4l1.5-0.5l0.3,0.5c0.4,0.7,0.8,1.4,1.2,2l10.6-1.2
	c0.4,0,0.8,0.3,0.9,0.7l0.1,0.6v-6.7l0.5-0.1c0.3-0.1,0.6-0.2,0.9-0.2c1.5,0.3,2.9,0.8,4.3,1.4l0.5,0.2v14c0.2,4.3,1.8,8.5,4.5,11.9
	l0.5,0.6l-0.6,0.4c-5.3,3.3-10.7,6.2-11.6,6.8L134.6,199.1z M130.2,195.1l4.1,2.3l0.4-0.5l0.1-0.1c0,0,5.4-3,11-6.4
	c-2.7-3.5-4.2-7.7-4.4-12.1v-13c-2.4-0.8-3.2-1.1-3.4-1.1l0,0v5.6c0,1.4-0.3,2.9-1,4.1l-1,1.7l-0.7-5.6l-10.4,1.2
	c-0.3,0-0.5-0.1-0.7-0.3c-0.2-0.3-0.5-0.6-0.7-1l1.1,21.5L130.2,195.1z"/>
<path class="st2" d="M147.2,204.3l-5.6-3.1c-5.7-3.7-9.3-9.9-9.6-16.7v-35l-5.6-3.3c0.5,1.4,0.7,2.9,0.7,4.4v25.1
	c0,5.3-3.8,7.4-8.3,4.8c-4.8-3.2-7.9-8.5-8.2-14.3V141c0-1.2,0.2-2.4,0.7-3.5l-5.6-3.2v34.9c0,6.2-4.3,8.7-9.7,5.6l-5.7-3.3
	c-1.1-0.6-2-0.1-2,1.2c0.1,1.4,0.8,2.7,2,3.5l56.9,32.8c1.1,0.6,2,0.1,2-1.2C149.1,206.3,148.4,205,147.2,204.3z"/>
<path class="st1" d="M148,209.9c-0.4,0-0.9-0.1-1.2-0.4l-56.9-32.8c-1.4-0.9-2.3-2.4-2.4-4.1c0-0.8,0.3-1.5,0.9-1.9
	c0.7-0.3,1.5-0.3,2.1,0.1l5.6,3.3c2.4,1.4,4.5,1.6,6.1,0.7s2.5-2.9,2.5-5.7V133l7.2,4.2l-0.3,0.6c-0.5,1-0.7,2.1-0.7,3.2v25.2
	c0.3,5.6,3.2,10.7,7.9,13.7c2,1.1,3.8,1.4,5.2,0.6s2.1-2.5,2.1-4.8v-25.2c0-1.4-0.3-2.8-0.7-4.1l-0.5-1.7l7.5,4.3v35.3
	c0.4,6.6,3.8,12.5,9.3,16.1l5.7,3.2c1.4,0.9,2.3,2.4,2.4,4.1c0.1,0.8-0.3,1.5-0.9,1.9C148.6,209.8,148.3,209.9,148,209.9z
	 M89.3,171.9h-0.2c-0.2,0.1-0.2,0.4-0.2,0.7c0.1,1.2,0.7,2.3,1.7,2.9l56.9,32.9c0.2,0.2,0.6,0.3,0.8,0c0.2-0.2,0.2-0.4,0.2-0.6
	c-0.1-1.2-0.7-2.3-1.7-2.9l-5.6-3.3c-5.5-3.2-10-10.9-10-17.3v-34.4l-3.8-2.2c0.2,1,0.3,1.9,0.3,2.9v25.2c0,2.8-1,4.9-2.8,5.9
	s-4.1,0.8-6.5-0.6c-5.1-3.3-8.3-8.9-8.6-14.9v-25.4c0-1.1,0.2-2.2,0.5-3.2l-4.1-2.3v33.8c0,3.2-1.1,5.7-3.2,6.8s-4.7,1-7.5-0.7
	l-5.6-3.3c-0.1-0.1-0.3-0.1-0.5-0.2L89.3,171.9z"/>
<path class="st3" d="M110.4,141.1v25.2c0.4,5.8,3.4,11.1,8.3,14.3c4.6,2.6,8.3,0.5,8.3-4.8v-25.3c0-1.5-0.3-2.9-0.7-4.4l2.9,1.7
	v-9.7h-18.4C110.6,139.2,110.4,140.1,110.4,141.1z"/>
<path class="st1" d="M122.4,182.4c-1.4-0.1-2.8-0.5-4-1.2c-5.1-3.3-8.3-8.9-8.6-15v-25c0-1,0.1-2,0.5-3l0.2-0.5H130v11.5l-2.5-1.5
	c0.2,1,0.3,2,0.3,2.9v25.2c0,2.8-1,4.9-2.8,6C124.2,182.3,123.3,182.4,122.4,182.4z M111.4,138.9c-0.2,0.7-0.3,1.4-0.2,2.1v25.1
	c0.3,5.6,3.2,10.7,7.9,13.8c2,1.1,3.8,1.4,5.2,0.6s2.1-2.5,2.1-4.8v-25.2c0-1.4-0.3-2.8-0.7-4.1l-0.5-1.7l3.4,2v-7.8L111.4,138.9z"
	/>
<path class="st1" d="M122.6,138.2h-11.8c-0.3,0.9-0.4,1.8-0.4,2.8v25.2c0.2,4.3,2,8.5,5,11.6c3,0.2,5-1.9,5-5.9v-25.2
	c0-1.5-0.3-2.9-0.7-4.4l2.9,1.7V138.2z"/>
<path class="st1" d="M115.8,178.6H115l-0.2-0.2c-3.1-3.3-4.9-7.6-5.2-12.1v-25.2c0-1,0.1-2,0.5-3l0.2-0.5h12.9v7.7l-2.5-1.5
	c0.2,1,0.3,2,0.3,2.9V172c0.1,2-0.6,3.9-1.9,5.3C118.3,178.2,117.1,178.7,115.8,178.6z M115.7,177.3c0.9,0.1,1.8-0.3,2.5-0.9
	c1.1-1.2,1.6-2.7,1.5-4.3v-25.3c0-1.4-0.3-2.8-0.7-4.1l-0.5-1.7l3.5,2v-4h-10.6c-0.2,0.7-0.3,1.4-0.2,2.1v25.2
	C111.3,170.3,112.9,174.2,115.7,177.3L115.7,177.3z"/>
<path class="st2" d="M113.2,139.6v25.3c0.3,5.8,3.4,11.1,8.3,14.3c1.2,0.8,2.6,1.1,4.1,1.1c1-1.3,1.5-2.9,1.4-4.5v-25.2
	c0-1.5-0.3-2.9-0.7-4.4l2.9,1.7v-2.6c0-0.1-0.1-0.3-0.1-0.4h0.1v-6.7h-15.9C113.3,138.6,113.2,139.1,113.2,139.6z"/>
<path class="st1" d="M125.2,181c-1.4-0.1-2.8-0.5-4-1.2c-5.1-3.3-8.3-8.8-8.6-14.9v-25.3c0-0.5,0-1,0.1-1.5l0.1-0.6h17.1V149
	l-2.5-1.5c0.2,1,0.3,2,0.3,2.9v25.2c0.1,1.8-0.5,3.6-1.6,5L126,181H125.2L125.2,181z M114,138.9v26c0.3,5.6,3.3,10.7,7.9,13.8
	c1,0.6,2.2,1,3.4,1c0.8-1.1,1.1-2.5,1.1-3.9v-25.3c0-1.4-0.3-2.8-0.7-4.1l-0.5-1.7l3.5,2v-1.4l-0.1-0.3l-0.5-1.7l0.6,0.4v-4.8H114z"
	/>
<path class="st1" d="M161.8,107.3l-1.6,74.8l29.7,17.1l9.6-5.5V94.2c-0.1-2.5-0.9-4.9-2.3-7l-16.7,9.5L161.8,107.3z"/>
<path class="st1" d="M189.9,200.1l-30.4-17.5v-0.4L161,107l19.1-10.9l17.2-9.9l0.4,0.5c1.6,2.2,2.4,4.7,2.5,7.4v100L189.9,200.1z
	 M160.9,181.8l29,16.8l8.9-5.1V94.2c-0.1-2.2-0.7-4.3-1.9-6.2l-16.1,9.3l-18.4,10.5L160.9,181.8z"/>
<path class="st3" d="M186.3,206.5l-135-77.8c-2.8-1.6-5-6-5-9.7V14.8c0-3.8,2.3-5.4,5-3.8l135,78c2.8,1.6,5.1,6,5.1,9.7v104
	C191.3,206.4,189,208.1,186.3,206.5z"/>
<path class="st1" d="M188.2,207.8c-0.8,0-1.6-0.3-2.4-0.7l-135-77.9c-3-1.8-5.4-6.2-5.4-10.3v-104c-0.2-1.8,0.6-3.6,2-4.6
	c1.3-0.6,2.8-0.5,4,0.3l135,77.9c3,1.8,5.4,6.2,5.4,10.3v104c0,2.2-0.8,3.9-2.1,4.7C189.3,207.6,188.8,207.8,188.2,207.8z
	 M49.2,11.1c-0.3,0-0.7,0.1-1,0.2c-1,0.8-1.6,2.2-1.4,3.5v104c0,3.5,2.1,7.6,4.7,9.1l135,77.9c0.8,0.6,1.8,0.6,2.6,0.3
	c1.1-0.8,1.6-2.2,1.4-3.5v-104c0-3.5-2.1-7.6-4.7-9.1l-135-77.9C50.4,11.3,49.8,11.1,49.2,11.1z"/>
<path class="st2" d="M185.8,195.4L51.7,118c-0.9-0.6-1.4-1.7-1.5-2.8V17c0-1.1,0.7-1.6,1.5-1.1l134.1,77.4c0.9,0.6,1.4,1.7,1.4,2.8
	v98.2C187.2,195.4,186.6,195.9,185.8,195.4z"/>
<path class="st1" d="M186.4,196.3c-0.3,0-0.7-0.1-0.9-0.3L51.3,118.6c-1.1-0.8-1.8-2-1.8-3.4V17c0-0.7,0.3-1.4,0.8-1.8
	c0.5-0.3,1.1-0.2,1.6,0.1L186,92.7c1.1,0.8,1.8,2,1.8,3.4v98.2c0,0.7-0.3,1.4-0.8,1.8C186.8,196.2,186.6,196.3,186.4,196.3z
	 M186.1,194.8c0.1,0.1,0.2,0.1,0.3,0.1c0.1-0.2,0.2-0.4,0.2-0.6V96.1c0-0.9-0.4-1.7-1.1-2.2L51.3,16.5c-0.1-0.1-0.2-0.1-0.3-0.1
	c-0.1,0.2-0.2,0.4-0.2,0.6v98.2c0,0.9,0.4,1.7,1.1,2.2L186.1,194.8z"/>
<path class="st1" d="M187,194.6L53,117.3c-0.9-0.6-1.4-1.7-1.4-2.8V16.2c0-0.1,0-0.3,0-0.4c-0.7-0.3-1.2,0.2-1.2,1.2v98.2
	c0,1.1,0.5,2.1,1.4,2.8l134,77.4c0.4,0.3,0.9,0.2,1.2-0.2l0,0c0.1-0.1,0.2-0.3,0.2-0.5L187,194.6z"/>
<path class="st1" d="M186.4,196.3c-0.3,0-0.6-0.1-0.9-0.3L51.4,118.6c-1.1-0.8-1.8-2-1.8-3.3V17c-0.1-0.7,0.2-1.3,0.8-1.7
	c0.4-0.3,1-0.3,1.5-0.1l0.5,0.2L52.3,16c0,0.1,0,0.2,0,0.3v98.2c0,0.9,0.4,1.6,1.1,2.2l134,77.3l0,0l-0.2,0.6l0.3-0.6l0.5,0.2
	l-0.1,0.6c-0.1,0.5-0.4,1-0.9,1.2C186.8,196.2,186.6,196.2,186.4,196.3z M51,115.4c0.1,0.8,0.5,1.5,1.1,2l0,0
	C51.6,116.9,51.2,116.2,51,115.4z"/>
<path class="st1" d="M123.6,165.8l-9.7-5.6c-0.5-0.4-0.8-0.9-0.8-1.5l0,0c0-0.6,0.3-0.8,0.8-0.6l9.7,5.6c0.5,0.3,0.8,0.9,0.8,1.5
	l0,0C124.4,165.8,124,166.1,123.6,165.8z"/>
<path class="st1" d="M123.9,166.6c-0.2,0-0.5-0.1-0.7-0.2l0,0l-9.7-5.6c-0.7-0.5-1.1-1.2-1.1-2.1c0-0.5,0.2-1,0.6-1.2s0.9-0.2,1.2,0
	l9.7,5.6c0.7,0.5,1.1,1.3,1.1,2.1c0,0.5-0.2,1-0.6,1.2C124.3,166.5,124.1,166.5,123.9,166.6z M113.8,158.8c0,0.3,0.2,0.6,0.4,0.8
	l9.4,5.5c0-0.3-0.2-0.6-0.4-0.8L113.8,158.8z"/>
<rect x="192" y="93.5" transform="matrix(0.8659 -0.5002 0.5002 0.8659 -20.8397 110.3608)" class="st2" width="6.8" height="1.1"/>
<rect x="194.3" y="192.6" transform="matrix(0.867 -0.4983 0.4983 0.867 -69.9513 124.2025)" class="st2" width="6.8" height="1.1"/>
<rect x="113.1" y="173.5" transform="matrix(0.8672 -0.498 0.498 0.8672 -71.5142 79.9916)" class="st2" width="2.2" height="1.1"/>
<rect x="50.9" y="114.1" transform="matrix(0.8658 -0.5005 0.5005 0.8658 -50.0904 42.573)" class="st2" width="6.8" height="1.1"/>
<rect x="50.3" y="22" transform="matrix(0.866 -0.5 0.5 0.866 -4.0562 29.8639)" class="st2" width="6.8" height="1"/>
<rect x="179.9" y="189.6" transform="matrix(0.867 -0.4983 0.4983 0.867 -70.3783 116.6212)" class="st2" width="6.8" height="1.1"/>
<path class="st1" d="M196.4,174.5l-2,1.2c-0.4,0.2-0.7,0-0.7-0.5v-5.5c0-0.5,0.3-1,0.7-1.3l2-1.2c0.4-0.2,0.7,0,0.7,0.5v5.5
	C197,173.8,196.8,174.2,196.4,174.5z"/>
<path class="st2" d="M194.1,176.3c-0.2,0-0.3,0-0.4-0.1c-0.3-0.2-0.5-0.6-0.5-1v-5.5c0-0.7,0.4-1.3,0.9-1.7l2-1.2
	c0.3-0.2,0.7-0.2,1,0s0.5,0.6,0.5,1v5.5c0,0.7-0.4,1.3-0.9,1.7l0,0l-2.1,1.2C194.4,176.3,194.3,176.3,194.1,176.3z M196.6,167.8
	l-1.9,1.1c-0.2,0.2-0.4,0.5-0.4,0.8v5.4l1.9-1.1c0.3-0.2,0.4-0.5,0.4-0.8V167.8z"/>
<path class="st1" d="M196.4,163.7l-2,1.2c-0.4,0.2-0.7,0-0.7-0.5v-5.5c0-0.5,0.2-1,0.7-1.2l2-1.2c0.4-0.2,0.7,0,0.7,0.5v5.5
	C197.1,162.9,196.8,163.4,196.4,163.7z"/>
<path class="st2" d="M194.1,165.5c-0.2,0-0.3,0-0.4-0.1c-0.4-0.2-0.5-0.6-0.5-1v-5.5c0-0.7,0.4-1.3,0.9-1.7l2-1.2
	c0.3-0.2,0.7-0.2,1,0s0.5,0.6,0.5,1v5.4c0,0.7-0.4,1.3-0.9,1.7l-2.1,1.2C194.4,165.5,194.3,165.5,194.1,165.5z M196.6,157l-1.9,1.1
	c-0.2,0.2-0.4,0.5-0.4,0.8v5.4l1.9-1.1c0.3-0.2,0.4-0.5,0.4-0.8V157z"/>
<rect x="135.4" y="188.9" transform="matrix(0.8715 -0.4904 0.4904 0.8715 -75.0115 92.6301)" class="st2" width="7.7" height="1.1"/>
<path class="st2" d="M89.5,101.1c-0.3-5.4-3.1-10.3-7.7-13.3c-0.4-0.2-0.9-0.5-1.3-0.6c0.2-0.8,0.2-1.7,0.2-2.5c0-7-5-15.6-11-19.1
	c-1.5-0.9-3.2-1.5-5-1.5c-1.2-10-8.1-21.3-16.5-26.1c-4.7-2.7-8.8-3-11.8-1.2h-0.1l-10.9,6.8l3.4,5.6L28.4,49
	c-3.2-1.8-6-1.9-8.1-0.6l0,0L9.6,55.1l4.3,8.1l5.7,1c1.9,4.2,5,7.8,8.8,10.3l47.4,27.4l-5.8,3.6l6.2,7.3l11.2-7l0.3-0.2
	C89,104.8,89.5,103.4,89.5,101.1z"/>
<path class="st1" d="M76.1,113.8l-7.1-8.3l5.5-3.4L28.1,75.2c-3.9-2.5-7-6-9-10.2l-5.7-1l-4.7-9l11.9-7.4l0,0c2-0.9,4.4-0.9,6.4,0
	l-2.5-4.2L36,36.1c3.3-1.9,7.8-1.5,12.5,1.2c8.4,4.8,15.4,15.7,16.8,26c1.7,0.2,3.3,0.7,4.8,1.6c6.3,3.6,11.4,12.5,11.4,19.7
	c0,0.7,0,1.3-0.1,2c0.3,0.1,0.6,0.3,0.9,0.4c4.7,3.1,7.7,8.2,8,13.9c0,2.6-0.7,4.2-2.1,5.2l-0.2,0.2L76.1,113.8z M71.1,105.8
	l5.3,6.2l10.9-6.8c1.1-0.7,1.6-1.9,1.6-4.1c-0.3-5.2-3-9.9-7.3-12.7c-0.4-0.2-0.8-0.4-1.2-0.6l-0.5-0.2L80,87
	c0.1-0.8,0.2-1.5,0.2-2.3c0-6.8-4.8-15.1-10.7-18.5c-1.4-0.9-3-1.3-4.6-1.4h-0.7L64,64.2c-1.2-9.9-8.2-20.9-16.3-25.6
	c-4.3-2.5-8.2-2.9-11.1-1.2h-0.1l-10.2,6.4l4.4,7.5l-2.3-1.5l-0.2-0.1l-0.1-0.1c-2.8-1.6-5.5-1.9-7.3-0.6l-0.6,0.4l0,0l-9.7,6.1
	l3.8,7.2l5.8,1l0.1,0.3c1.8,4.1,4.8,7.5,8.6,10l48.4,27.9L71.1,105.8z"/>
<path class="st3" d="M82,88.1c-0.4-0.2-0.8-0.5-1.2-0.6c0-0.1-0.5-0.2-0.5-0.2l-11.1,7l-4,1.9l8.1,4.7l1.9-1.6l11.1-7
	C85.2,90.5,83.7,89.1,82,88.1z"/>
<path class="st1" d="M73.4,101.6l-9.6-5.5l5.1-2.4l11.2-7h0.2c0.3,0,0.6,0.1,0.8,0.3c0.4,0.2,0.8,0.4,1.2,0.6l0,0
	c1.8,1.1,3.3,2.5,4.5,4.2l0.4,0.6l-11.7,7.3L73.4,101.6z M66.7,96.1l6.5,3.8l1.6-1.3L85.4,92c-1-1.3-2.2-2.5-3.7-3.3l0,0
	c-0.4-0.2-0.8-0.4-1.3-0.6h-0.1l-10.9,6.8L66.7,96.1z"/>
<path class="st3" d="M69.5,65.5c-1.5-0.9-3.2-1.4-5-1.5c0-0.1-0.4-0.1-0.4-0.1L40.8,78.3l12.1,7.2l3.9-3.3l18.7-11
	C73.9,68.9,71.8,67,69.5,65.5z"/>
<path class="st1" d="M53,86.3l-13.5-8l24.5-15h0.2c0.2,0,0.4,0,0.6,0.1c1.8,0.1,3.6,0.7,5.1,1.6l0,0c2.5,1.5,4.6,3.4,6.2,5.8
	l0.5,0.6L57.2,82.7L53,86.3z M42.1,78.3l10.7,6.3l3.6-3.1l18.1-10.6c-1.5-1.9-3.3-3.5-5.3-4.8c-1.4-0.9-3-1.4-4.7-1.4h-0.4
	L42.1,78.3z"/>
<path class="st3" d="M13.5,62.6l8.4,1.7l5-5.5L54,42.6c-1.7-1.8-3.7-3.3-5.8-4.6c-4.7-2.7-8.8-3-11.8-1.2l0,0l-10.9,6.8l3.4,5.7
	L28.5,49c-3.2-1.8-6-1.9-8.1-0.6l0,0L9.6,55.2L13.5,62.6z"/>
<path class="st1" d="M22.1,65.1L13,63.2L8.7,55l11.9-7.5l0,0c2-0.9,4.4-0.9,6.4,0l-2.5-4.2L36,36.1c3.3-2,7.8-1.5,12.5,1.2
	c2.2,1.3,4.2,2.9,6,4.7l0.6,0.6L27.2,59.4L22.1,65.1z M13.9,62l7.7,1.6l4.9-5.3l26.4-15.8c-1.5-1.5-3.3-2.8-5.1-3.9
	c-4.3-2.5-8.2-2.9-11.1-1.2h-0.1l-10.3,6.4l4.4,7.5l-2.3-1.4l-0.2-0.1l-0.1-0.1c-2.8-1.6-5.4-1.8-7.3-0.6l-0.6,0.4l0,0l-9.7,6
	L13.9,62z"/>
<path class="st1" d="M64.2,64c-0.8-5.5-2.8-10.8-5.9-15.4L39.8,59.8l9.3,13.1l4-1.9L64.2,64z"/>
<path class="st1" d="M48.9,73.7L38.8,59.5l19.8-11.9l0.4,0.6c3.2,4.7,5.2,10.1,6,15.8v0.4l-11.5,7.2L48.9,73.7z M40.8,59.9L49.3,72
	l3.5-1.7l10.7-6.7c-0.8-5.1-2.6-9.9-5.4-14.2L40.8,59.9z"/>
<path class="st1" d="M80.3,84.5c-0.1-2.9-0.8-5.8-2-8.4l-21,12.2l8.3,6.5l3.3-0.9L80,87C80.2,86.2,80.3,85.4,80.3,84.5z"/>
<path class="st1" d="M65.5,95.6l-9.3-7.3l22.5-13.1l0.3,0.7c1.3,2.7,1.9,5.7,2,8.8c0,0.9-0.1,1.7-0.2,2.6l-0.1,0.3l-11.5,7.2
	L65.5,95.6z M58.6,88.4l7.2,5.7l2.9-0.8l10.8-6.7c0.1-0.7,0.2-1.3,0.2-2c0-2.6-0.6-5.2-1.6-7.5L58.6,88.4z"/>
<path class="st1" d="M76.2,112.9l11.2-7l0.3-0.2c1.2-0.8,1.8-2.3,1.8-4.6c0-1.7-0.4-3.3-1-4.8l-11.3,6.8l-5.2,1.4l-1.3,0.8l-0.2,1.1
	L76.2,112.9z"/>
<path class="st1" d="M76.1,113.8l-6.2-7.3l0.3-1.7l1.7-1l5.2-1.4l11.8-7.1l0.3,0.8c0.6,1.6,1,3.3,1,5.1c0,2.6-0.7,4.2-2.1,5.2
	l-0.2,0.2L76.1,113.8z M71.2,106.1l5.1,5.9l10.9-6.8c1.1-0.7,1.6-1.9,1.6-4.1c0-1.3-0.2-2.6-0.7-3.8l-10.6,6.4l-5.2,1.4l-0.9,0.6
	L71.2,106.1z"/>
<path class="st2" d="M17.3,56.1c1.2,0.7,2.3,1.5,3.2,2.4l0,0c-0.2-1.4-0.3-2.8-0.3-4.2c0.1-10.6,7.5-14.7,16.8-9.4
	C45.5,49.8,52.4,61,53.6,71c2.5,0,5.5,1.2,8.6,4.2c3.4,3.3,5.9,7.5,6.9,12.1c0.6,2.2,0.7,4.5,0.3,6.8c0.4,0.2,0.9,0.4,1.2,0.6
	c4.5,2.9,7.3,7.8,7.7,13.1c0.1,5-3.4,7-7.7,4.6L17.2,81.5c-6-3.5-10.9-11.9-11-18.9S11.2,52.6,17.3,56.1z"/>
<path class="st1" d="M74.1,114.1c-1.4,0-2.7-0.4-3.8-1.2L17,82.2C10.7,78.5,5.7,70,5.6,62.7c0-3.7,1.2-6.5,3.6-7.9s5.3-1.1,8.5,0.7
	c0.7,0.4,1.4,0.9,2,1.4c-0.1-0.8-0.1-1.7-0.1-2.5c0-5.3,1.9-9.3,5.3-11.2s7.8-1.5,12.5,1.2c8.4,4.8,15.4,15.7,16.8,26
	c2.7,0.2,5.6,1.7,8.4,4.4c3.5,3.3,6,7.7,7.1,12.4c0.5,2.1,0.7,4.3,0.4,6.5c0.3,0.1,0.6,0.3,0.9,0.4c4.7,3,7.7,8.1,8,13.7
	c0,2.7-0.9,4.7-2.5,5.7C75.8,113.9,74.9,114.1,74.1,114.1z M12.4,55.3c-0.9,0-1.8,0.2-2.6,0.7C8,57.1,6.9,59.5,7,62.7
	c0,6.7,4.8,15,10.6,18.3l53.3,30.8c1.9,1.1,3.6,1.2,4.8,0.5s1.9-2.3,1.9-4.5c-0.3-5.1-3.1-9.7-7.3-12.5c-0.4-0.2-0.8-0.4-1.2-0.6
	l-0.5-0.2l0.1-0.6c0.4-2.2,0.2-4.4-0.3-6.5c-1-4.5-3.4-8.6-6.7-11.7c-2.8-2.6-5.6-4-8.1-4H53l-0.1-0.6c-1.2-9.9-8.2-20.9-16.2-25.6
	c-4.3-2.5-8.2-2.9-11.2-1.2s-4.5,5.2-4.6,10c0,1.3,0.1,2.7,0.3,4l0.1,0.5l-0.9,0.5L20.1,59c-0.9-0.9-2-1.7-3.1-2.3l0,0
	c-1.4-0.9-2.9-1.4-4.5-1.4H12.4z"/>
<path class="st2" d="M222.2,142.8c-0.2-3.1-1.8-5.9-4.4-7.6c-0.2-0.1-0.5-0.3-0.8-0.4c0.1-0.5,0.1-0.9,0.1-1.4
	c-0.2-4.5-2.6-8.6-6.3-11c-0.9-0.5-1.9-0.8-2.9-0.8c-0.7-5.8-4.7-12.2-9.5-15c-2.7-1.5-5-1.7-6.8-0.7h-0.1l-6.2,3.9l1.9,3.3L187,113
	c-1.8-1-3.5-1.1-4.6-0.3l0,0l-6.2,3.9l2.5,4.6l3.3,0.6c1.1,2.4,2.9,4.4,5.1,5.9l27.1,15.8l-3.3,2.1l3.6,4.2l6.4-4l0.1-0.1
	C221.9,144.9,222.3,143.9,222.2,142.8z"/>
<path class="st1" d="M214.4,150.5l-4.4-5.2l3-1.9l-26.3-15.1c-2.3-1.4-4.1-3.4-5.2-5.8l-3.3-0.6l-2.9-5.5l7.3-4.6l0,0
	c0.9-0.3,1.9-0.4,2.9-0.1l-1.2-2l6.9-4.3c2-1.2,4.6-0.9,7.4,0.7c4.8,2.8,8.9,9,9.8,14.9c0.9,0.1,1.8,0.4,2.6,0.9
	c3.9,2.6,6.4,6.9,6.7,11.5c0,0.3,0,0.7-0.1,1l0.4,0.2c2.8,1.8,4.6,4.9,4.7,8.2c0.1,1.2-0.4,2.5-1.4,3.2l-0.1,0.1L214.4,150.5z
	 M212,145.6l2.7,3.1l6-3.8c0.4-0.3,0.8-0.7,0.8-2.1c-0.2-2.8-1.7-5.4-4.1-7c-0.2-0.1-0.4-0.2-0.7-0.3l-0.5-0.2l0.1-0.6
	c0.1-0.4,0.1-0.8,0.1-1.3c-0.2-4.2-2.5-8.1-6-10.4c-0.8-0.5-1.6-0.7-2.5-0.8h-0.6l-0.1-0.6c-0.7-5.6-4.6-11.8-9.1-14.4
	c-2.4-1.4-4.5-1.6-6.1-0.7l-5.7,3.6l3,5l-2.5-1.5c-1.6-0.9-3-1-3.9-0.4l-0.6,0.4l0,0l-5,3.2l2,3.8l3.3,0.6l0.1,0.3
	c1,2.3,2.7,4.2,4.8,5.6l28.2,16.2L212,145.6z"/>
<path class="st3" d="M217.9,135.4c-0.2-0.1-0.5-0.3-0.8-0.4c0-0.1-0.3-0.1-0.3-0.1l-6.4,4l-2.2,1l4.6,2.7l1.1-0.9l6.4-4
	C219.7,136.8,218.9,136,217.9,135.4z"/>
<path class="st1" d="M213,143.6l-6.3-3.6l3.4-1.6l6.5-4.1h0.2c0.2,0,0.4,0.1,0.6,0.2c0.2,0.1,0.5,0.2,0.7,0.3l0,0
	c1.1,0.6,2,1.5,2.7,2.5l0.4,0.6l-7,4.4L213,143.6z M209.8,140.2l3,1.8l0.8-0.6l5.8-3.7c-0.5-0.6-1.1-1.2-1.8-1.6
	c-0.2-0.1-0.4-0.2-0.6-0.3l-6.1,3.8L209.8,140.2z"/>
<path class="st3" d="M210.7,122.5c-0.9-0.5-1.8-0.8-2.9-0.9h-0.3l-13.3,8.2l7,4.1l2.2-1.9l10.8-6.3
	C213.3,124.4,212.1,123.3,210.7,122.5z"/>
<path class="st1" d="M201.3,134.7l-8.4-4.9l14.5-8.9h0.2c0.1,0,0.3,0,0.4,0c1.1,0.1,2.1,0.4,3.1,1c1.4,0.9,2.7,2,3.7,3.4l0.4,0.6
	l-11.4,6.6L201.3,134.7z M195.5,129.9l5.6,3.3l1.9-1.7l10.1-5.9c-0.8-1-1.7-1.8-2.8-2.4l0,0c-0.8-0.5-1.6-0.7-2.5-0.8h-0.2
	L195.5,129.9z"/>
<path class="st3" d="M178.6,120.8l4.8,1l2.8-3.1l15.6-9.3c-1-1-2.1-1.9-3.4-2.7c-2.7-1.5-5-1.7-6.8-0.7l0,0l-6.2,3.9l1.9,3.3
	l-0.2-0.1c-1.3-1-3.1-1.1-4.6-0.3l0,0l-6.2,3.9L178.6,120.8z"/>
<path class="st1" d="M183.6,122.5l-5.5-1.1l-2.7-5l7.3-4.6l0,0c0.9-0.4,2-0.4,2.9-0.1l-1.2-2l6.8-4.2c2.1-1.2,4.7-1,7.5,0.7
	c1.3,0.8,2.5,1.7,3.5,2.8l0.6,0.6l-16.2,9.7L183.6,122.5z M179,120.2l4.1,0.8l2.7-3l14.8-8.8c-0.8-0.7-1.7-1.4-2.6-1.9
	c-2.4-1.4-4.5-1.6-6.1-0.7l-5.7,3.6l3,5l-2.5-1.5c-1.6-0.9-3-1-3.9-0.4l-0.6,0.4l0,0l-5.1,3.2L179,120.2z"/>
<path class="st1" d="M207.7,121.6c-0.4-3.2-1.6-6.2-3.4-8.9l-10.7,6.4l5.4,7.5l2.3-1.1L207.7,121.6z"/>
<path class="st1" d="M198.8,127.5l-6.1-8.6l11.9-7.1l0.4,0.6c1.8,2.8,3,5.9,3.5,9.2v0.4l-6.8,4.2L198.8,127.5z M194.6,119.3l4.6,6.5
	l1.8-0.8l5.9-3.8c-0.4-2.7-1.4-5.3-2.9-7.6L194.6,119.3z"/>
<path class="st1" d="M216.9,133.4c0-1.7-0.4-3.3-1.1-4.8l-11.9,7l4.8,3.8l1.9-0.5l6.4-4C216.9,134.3,216.9,133.8,216.9,133.4z"/>
<path class="st1" d="M208.3,140l-5.8-4.6l13.5-7.9l0.3,0.7c0.8,1.6,1.2,3.3,1.2,5.1c0,0.5-0.1,1-0.1,1.5v0.3l-6.9,4.2L208.3,140z
	 M204.9,135.6l3.7,2.9l1.5-0.4l6-3.8c0-0.3,0.1-0.7,0.1-1c0-1.3-0.3-2.6-0.8-3.9L204.9,135.6z"/>
<path class="st1" d="M214.6,149.6l6.4-4l0.1-0.1c0.8-0.6,1.2-1.7,1-2.7c0-1-0.2-1.9-0.6-2.8l-6.4,3.9l-3.1,0.8l-0.7,0.4l-0.1,0.6
	L214.6,149.6z"/>
<path class="st1" d="M214.4,150.5l-3.9-4.5l0.2-1.2l1.1-0.7l3-0.8l7.1-4.3l0.3,0.8c0.4,1,0.6,2,0.6,3c0.1,1.2-0.4,2.5-1.4,3.2
	l-0.1,0.1L214.4,150.5z M212,145.6l2.7,3.1l6-3.8c0.4-0.3,0.8-0.7,0.8-2.1c0-0.6-0.1-1.2-0.2-1.8l-5.9,3.5l-3,0.8L212,145.6z"/>
<path class="st2" d="M180.8,117.1c0.7,0.4,1.3,0.9,1.9,1.4l0,0c-0.1-0.8-0.2-1.6-0.2-2.4c0.1-6.1,4.3-8.4,9.6-5.4
	c4.8,2.8,8.8,9.2,9.5,15c1.9,0.1,3.7,1,4.9,2.4c2,1.9,3.4,4.3,4,6.9c0.3,1.3,0.4,2.6,0.2,3.9c0.3,0.1,0.5,0.2,0.8,0.4
	c2.6,1.7,4.2,4.5,4.4,7.5c0,2.9-1.9,4.1-4.4,2.6l-30.6-17.7c-3.7-2.4-6-6.4-6.3-10.8C174.4,116.8,177.2,115,180.8,117.1z"/>
<path class="st1" d="M213.3,150.6c-0.8,0-1.6-0.3-2.4-0.7l-30.6-17.6c-3.9-2.5-6.4-6.8-6.7-11.4c-0.2-1.9,0.7-3.7,2.2-4.8
	c1.7-0.8,3.6-0.7,5.1,0.4l0,0c0.2,0.1,0.5,0.3,0.7,0.4V116c0-3.2,1.2-5.6,3.2-6.7s4.7-0.9,7.5,0.7c4.8,2.8,8.9,9,9.8,14.9
	c1.8,0.3,3.5,1.2,4.8,2.6c2.1,2,3.5,4.5,4.2,7.2c0.3,1.2,0.4,2.4,0.3,3.6l0.3,0.2c2.8,1.8,4.5,4.8,4.7,8.1c0.2,1.4-0.5,2.7-1.6,3.5
	C214.4,150.5,213.9,150.7,213.3,150.6z M178,116.9c-0.5,0-0.9,0.1-1.4,0.3c-1.1,0.8-1.7,2.2-1.5,3.6c0.3,4.2,2.5,8,6,10.3l30.6,17.7
	c0.8,0.8,2.1,0.8,2.9,0c0.5-0.5,0.7-1.3,0.5-2c-0.2-2.8-1.7-5.4-4.1-6.9c-0.2-0.1-0.4-0.2-0.6-0.3l-0.6-0.2l0.1-0.6
	c0.2-1.2,0.1-2.4-0.2-3.6c-0.6-2.5-1.9-4.8-3.8-6.6c-1.1-1.3-2.7-2.1-4.4-2.2H201l-0.1-0.6c-0.7-5.6-4.6-11.8-9.1-14.4
	c-2.4-1.4-4.5-1.6-6.1-0.7s-2.4,2.8-2.5,5.5c0,0.8,0.1,1.5,0.2,2.3l0.1,0.5l-0.9,0.5l-0.4-0.4c-0.5-0.5-1.1-0.9-1.7-1.2
	C179.7,117.2,178.9,117,178,116.9L178,116.9z"/>
<g>
	<g>
		<g>
			<defs>
				<path id="SVGID_5_" d="M42.2,153.7l26.2,15c2.9,1.7,3.2,4.2,0.7,5.7l-28.2,16.4c-2.5,1.4-6.9,1.2-9.8-0.4L5,175.4
					c-2.9-1.7-3.2-4.2-0.7-5.6l28.2-16.4C35,151.9,39.3,152.1,42.2,153.7z"/>
			</defs>
			<clipPath id="SVGID_6_">
				<use xlink:href="#SVGID_5_"  style="overflow:visible;"/>
			</clipPath>
			<g class="st6">
				
					<rect x="-3" y="163.9" transform="matrix(0.8663 -0.4995 0.4995 0.8663 -78.8487 33.9915)" class="st1" width="54.2" height="0.8"/>
				
					<rect x="-0.8" y="165" transform="matrix(0.8663 -0.4995 0.4995 0.8663 -79.1035 35.2425)" class="st1" width="54.2" height="0.8"/>
				
					<rect x="1.2" y="166.2" transform="matrix(0.8663 -0.4995 0.4995 0.8663 -79.4286 36.4061)" class="st1" width="54.2" height="0.8"/>
				
					<rect x="3.3" y="167.4" transform="matrix(0.8663 -0.4995 0.4995 0.8663 -79.7532 37.6061)" class="st1" width="54.2" height="0.8"/>
				
					<rect x="5.1" y="168.7" transform="matrix(0.8669 -0.4985 0.4985 0.8669 -80.0211 38.5586)" class="st1" width="54.2" height="0.8"/>
				
					<rect x="7.3" y="169.8" transform="matrix(0.8669 -0.4985 0.4985 0.8669 -80.2671 39.8006)" class="st1" width="54.2" height="0.8"/>
				
					<rect x="9.2" y="171" transform="matrix(0.8669 -0.4985 0.4985 0.8669 -80.6143 40.9009)" class="st1" width="54.2" height="0.8"/>
				
					<rect x="11.4" y="172.1" transform="matrix(0.8663 -0.4995 0.4995 0.8663 -81.024 42.2853)" class="st1" width="54.2" height="0.8"/>
				
					<rect x="13.4" y="173.3" transform="matrix(0.8663 -0.4995 0.4995 0.8663 -81.3485 43.4462)" class="st1" width="54.2" height="0.8"/>
				
					<rect x="15.6" y="174.5" transform="matrix(0.8669 -0.4985 0.4985 0.8669 -81.5027 44.5669)" class="st1" width="54.2" height="0.8"/>
				
					<rect x="17.5" y="175.7" transform="matrix(0.8665 -0.4991 0.4991 0.8665 -81.9468 45.7629)" class="st1" width="54.2" height="0.8"/>
				
					<rect x="19.7" y="176.8" transform="matrix(0.8663 -0.4995 0.4995 0.8663 -82.2594 47.0587)" class="st1" width="54.2" height="0.8"/>
				
					<rect x="21.5" y="178.1" transform="matrix(0.8663 -0.4995 0.4995 0.8663 -82.6727 48.1363)" class="st1" width="54.2" height="0.8"/>
				
					<rect x="23.7" y="179.2" transform="matrix(0.8663 -0.4995 0.4995 0.8663 -82.9178 49.3823)" class="st1" width="54.2" height="0.8"/>
				
					<rect x="25.6" y="180.4" transform="matrix(0.8666 -0.4989 0.4989 0.8666 -83.1766 50.3906)" class="st1" width="54.2" height="0.8"/>
				
					<rect x="27.8" y="181.6" transform="matrix(0.8669 -0.4985 0.4985 0.8669 -83.4209 51.5888)" class="st1" width="54.2" height="0.8"/>
				
					<rect x="29.8" y="182.8" transform="matrix(0.8669 -0.4985 0.4985 0.8669 -83.7481 52.7481)" class="st1" width="54.2" height="0.8"/>
				
					<rect x="-11.3" y="159.3" transform="matrix(0.8669 -0.4985 0.4985 0.8669 -77.5116 29.136)" class="st1" width="54.2" height="0.8"/>
				
					<rect x="-9.1" y="160.4" transform="matrix(0.8665 -0.4991 0.4991 0.8665 -77.8549 30.4521)" class="st1" width="54.2" height="0.8"/>
				
					<rect x="-5.7" y="162.2" transform="matrix(0.867 -0.4983 0.4983 0.867 -78.1722 32.3333)" class="st1" width="54.4" height="0.8"/>
				
					<rect x="-3.4" y="163" transform="matrix(0.867 -0.4983 0.4983 0.867 -78.2565 33.5905)" class="st1" width="54.4" height="0.8"/>
				
					<rect x="-3.1" y="163.9" transform="matrix(0.8663 -0.4995 0.4995 0.8663 -78.8624 33.9412)" class="st1" width="54.2" height="0.8"/>
			</g>
		</g>
	</g>
</g>
<path class="st2" d="M68.5,158.6l-10-0.9l0,0l-17.4-10c-2.9-1.7-7.3-1.9-9.8-0.4L16,156h-0.4l-12.5,2.2c0,0-0.1,0-0.1,0.1l0,0l0,0
	v6.7c0,1.2,0.7,2.3,2.4,3.2l25.2,14.5c2.9,1.7,7.3,1.9,9.8,0.4L67,167.8c0.9-0.4,1.6-1.3,1.7-2.3v-6.8
	C68.7,158.7,68.6,158.6,68.5,158.6C68.6,158.6,68.5,158.6,68.5,158.6z"/>
<path class="st1" d="M36.1,184.9c-2,0-4.1-0.5-5.9-1.5L5.1,168.9c-1.9-1.1-2.7-2.3-2.7-3.9v-6.7c0-0.4,0.3-0.7,0.7-0.8l12.5-2.1h0.2
	l15.1-8.8c2.7-1.6,7.3-1.4,10.5,0.4l17.3,10l9.9,0.9c0.4,0,0.7,0.4,0.7,0.8v6.8c-0.1,1.2-0.9,2.3-2,2.9l-26.5,15.3
	C39.3,184.5,37.8,184.9,36.1,184.9z M3.8,158.7v6.3c0,0.7,0.2,1.6,2,2.6L31,182.2c2.7,1.6,6.8,1.7,9.1,0.4l26.5-15.2
	c0.7-0.3,1.2-1,1.4-1.7v-6.2l-9.7-0.9l-0.2-0.1l-17.4-10c-2.8-1.6-6.2-1.7-9.1-0.4L16.1,157h-0.5L3.8,158.7z"/>
<path class="st1" d="M35.9,184.1c1.6,0.1,3.1-0.3,4.5-1L65,168.9v-10.6l-6.5-0.6l0,0l-12.8-7.4h-9.8V184.1z"/>
<path class="st1" d="M36.2,184.9h-1v-35.3h10.7l12.8,7.4l7,0.6v11.7l-25,14.4C39.3,184.5,37.8,184.9,36.2,184.9z M36.6,151.1v32.5
	c1.2,0,2.4-0.3,3.5-0.9l24.2-14.1V159l-6-0.6l-0.2-0.1l-12.6-7.2L36.6,151.1z"/>
<path class="st2" d="M41.1,141.1l25.1,14.5c2.9,1.7,3.2,4.2,0.7,5.6l-26.5,15.3c-2.5,1.4-6.9,1.2-9.8-0.4L5.4,161.6
	c-2.9-1.7-3.2-4.2-0.7-5.6l26.5-15.3C33.8,139.2,38.2,139.3,41.1,141.1z"/>
<path class="st1" d="M36.1,178.2c-2,0-4.1-0.5-5.9-1.5L5.1,162.2c-1.5-0.7-2.5-2.1-2.7-3.8c0.1-1.3,0.8-2.5,2-3.1L31,140.1
	c2.7-1.6,7.3-1.4,10.5,0.4L66.6,155c1.5,0.7,2.5,2.1,2.7,3.8c-0.1,1.3-0.8,2.4-2,3l-26.6,15.4C39.3,177.8,37.7,178.2,36.1,178.2z
	 M35.6,140.3c-1.4,0-2.7,0.3-3.9,0.9L5.1,156.5c-0.7,0.3-1.3,1-1.3,1.9s0.8,1.9,2.1,2.6L31,175.5c2.8,1.6,6.2,1.7,9.1,0.4l26.6-15.3
	c0.7-0.3,1.3-1,1.3-1.9s-0.8-1.9-2-2.6l-25.2-14.5C39.2,140.7,37.4,140.3,35.6,140.3L35.6,140.3z"/>
<polygon class="st2" points="31,155.8 33.2,161 35,159.9 39.1,162.3 42.3,160.4 38.3,158.1 40.1,157 "/>
<path class="st3" d="M39.1,162.9l-4-2.3l-2.1,1.2l-2.7-6.6l11.5,1.6l-2.4,1.4l4,2.3L39.1,162.9z M35.1,159.3l4,2.3l2.2-1.2l-4-2.3
	l1.2-0.8l-6.6-0.9l1.6,3.8L35.1,159.3z"/>
<rect x="6.1" y="162.3" class="st1" width="1.4" height="6.7"/>
<rect x="30.4" y="176.3" class="st1" width="1.4" height="6.7"/>
<path class="st2" d="M45.3,178.9c-0.1,0-0.3,0-0.4-0.1c-0.3-0.2-0.5-0.6-0.5-1v-1.2c0-0.7,0.3-1.3,0.9-1.6l3.5-2
	c0.3-0.2,0.6-0.2,0.9,0c0.3,0.2,0.5,0.6,0.5,1v1.2c0,0.7-0.3,1.3-0.9,1.6l-3.5,2C45.7,178.8,45.5,178.9,45.3,178.9z M49,173.9
	l-3.3,1.9c-0.2,0.2-0.3,0.4-0.3,0.7v1.2l3.3-1.9c0.2-0.2,0.3-0.4,0.3-0.7V173.9z"/>
<path class="st2" d="M53.5,174.2c-0.1,0-0.3,0-0.4-0.1c-0.3-0.2-0.5-0.6-0.5-0.9V172c0-0.6,0.3-1.2,0.9-1.6l3.5-2
	c0.3-0.2,0.6-0.2,0.9,0c0.3,0.2,0.5,0.6,0.5,0.9v1.2c0,0.6-0.3,1.2-0.9,1.6l-3.5,2C53.8,174.1,53.6,174.2,53.5,174.2z M57.2,169.3
	l-3.3,1.9c-0.2,0.2-0.3,0.4-0.3,0.7v1.2l3.3-1.9c0.2-0.2,0.3-0.4,0.3-0.7V169.3z"/>
<rect x="37.8" y="178" class="st2" width="1" height="5.2"/>
<rect x="62.8" y="163.8" class="st2" width="1" height="5.2"/>
<g>
	<g>
		<g>
			<defs>
				<path id="SVGID_7_" d="M25.3,118l6.5,3.7c2,1.2,2.2,2.9,0.5,3.9L21.2,132c-2.2,1-4.7,0.9-6.8-0.3L7.9,128
					c-2-1.2-2.2-2.9-0.5-3.9l11.1-6.4C20.7,116.7,23.2,116.8,25.3,118z"/>
			</defs>
			<clipPath id="SVGID_8_">
				<use xlink:href="#SVGID_7_"  style="overflow:visible;"/>
			</clipPath>
			<g class="st7">
				
					<rect x="-15.9" y="115.4" transform="matrix(0.8669 -0.4985 0.4985 0.8669 -56.2326 20.9941)" class="st1" width="54.2" height="0.8"/>
				
					<rect x="-13.8" y="116.5" transform="matrix(0.8669 -0.4985 0.4985 0.8669 -56.5075 22.1852)" class="st1" width="54.2" height="0.8"/>
				
					<rect x="-11.8" y="117.8" transform="matrix(0.8663 -0.4995 0.4995 0.8663 -56.9975 23.4492)" class="st1" width="54.2" height="0.8"/>
				
					<rect x="-9.6" y="118.9" transform="matrix(0.8663 -0.4995 0.4995 0.8663 -57.252 24.6925)" class="st1" width="54.2" height="0.8"/>
				
					<rect x="-7.8" y="120.2" transform="matrix(0.8663 -0.4995 0.4995 0.8663 -57.6579 25.7611)" class="st1" width="54.2" height="0.8"/>
				
					<rect x="-5.7" y="121.3" transform="matrix(0.8669 -0.4985 0.4985 0.8669 -57.8193 26.8591)" class="st1" width="54.2" height="0.8"/>
				
					<rect x="-3.7" y="122.6" transform="matrix(0.8669 -0.4985 0.4985 0.8669 -58.2047 28.0437)" class="st1" width="54.2" height="0.8"/>
				
					<rect x="-1.5" y="123.7" transform="matrix(0.8666 -0.4989 0.4989 0.8666 -58.5004 29.3209)" class="st1" width="54.2" height="0.8"/>
				
					<rect x="0.6" y="125.2" transform="matrix(0.867 -0.4983 0.4983 0.867 -58.8861 30.552)" class="st1" width="54.4" height="0.8"/>
				
					<rect x="2.6" y="126" transform="matrix(0.8669 -0.4985 0.4985 0.8669 -59.0579 31.6275)" class="st1" width="54.2" height="0.8"/>
				
					<rect x="6.1" y="127.7" transform="matrix(0.867 -0.4983 0.4983 0.867 -59.4087 33.6275)" class="st1" width="54.4" height="0.8"/>
				
					<rect x="6.7" y="128.4" transform="matrix(0.8666 -0.4989 0.4989 0.8666 -59.7578 34.0321)" class="st1" width="54.2" height="0.8"/>
				
					<rect x="8.6" y="129.6" transform="matrix(0.8663 -0.4995 0.4995 0.8663 -60.1614 35.2137)" class="st1" width="54.2" height="0.8"/>
				
					<rect x="10.7" y="130.7" transform="matrix(0.8663 -0.4995 0.4995 0.8663 -60.4289 36.4)" class="st1" width="54.2" height="0.8"/>
				
					<rect x="12.7" y="131.9" transform="matrix(0.8663 -0.4995 0.4995 0.8663 -60.756 37.5636)" class="st1" width="54.2" height="0.8"/>
				
					<rect x="16.4" y="133.5" transform="matrix(0.867 -0.4983 0.4983 0.867 -60.9248 39.5227)" class="st1" width="54.4" height="0.8"/>
				<rect x="17" y="134.7" transform="matrix(0.867 -0.4983 0.4983 0.867 -61.447 39.987)" class="st1" width="54.4" height="0.8"/>
				
					<rect x="-24.3" y="110.7" transform="matrix(0.8663 -0.4995 0.4995 0.8663 -55.1194 16.2428)" class="st1" width="54.2" height="0.8"/>
				
					<rect x="-20.7" y="112.3" transform="matrix(0.867 -0.4983 0.4983 0.867 -55.2936 18.2198)" class="st1" width="54.4" height="0.8"/>
				
					<rect x="-20.2" y="113.2" transform="matrix(0.8669 -0.4985 0.4985 0.8669 -55.7192 18.5609)" class="st1" width="54.2" height="0.8"/>
				
					<rect x="-18" y="114.3" transform="matrix(0.8669 -0.4985 0.4985 0.8669 -55.9709 19.8034)" class="st1" width="54.2" height="0.8"/>
				
					<rect x="-14.5" y="115.9" transform="matrix(0.867 -0.4983 0.4983 0.867 -56.2594 21.7973)" class="st1" width="54.4" height="0.8"/>
			</g>
		</g>
	</g>
</g>
<path class="st2" d="M31.5,114.7l-7-0.6h-1.7c-2-1.2-2.8-0.9-4.6,0.1l-1.6,0.9h-0.3l-8.7,1.5c0,0-0.1,0-0.1,0.1v4.7
	c0,0.8,0.5,1.6,1.7,2.3l4.9,2.8c2.1,1.2,4.6,1.3,6.8,0.3l9.5-5.5c0.6-0.3,1.1-0.9,1.2-1.6V115C31.5,114.8,31.5,114.7,31.5,114.7
	L31.5,114.7L31.5,114.7z"/>
<path class="st1" d="M17.9,128c-1.5,0-2.9-0.4-4.2-1.1l-4.8-2.8c-1.1-0.5-1.9-1.6-2-2.9V116l0.6-0.2l8.8-1.5h0.1l1.4-0.8
	c1.8-1.1,2.9-1.4,5.1-0.2h1.7l6.9,0.6c0.4,0,0.7,0.4,0.7,0.8v4.7c-0.1,0.9-0.7,1.8-1.5,2.2l-9.5,5.4C20.2,127.7,19.1,128,17.9,128z
	 M8.2,117.1v4.2c0,0.4,0.1,1,1.3,1.7l4.8,2.8c1.9,1,4.1,1.2,6.1,0.3l9.5-5.5c0.4-0.2,0.7-0.6,0.8-1.1v-4.1l-6.5-0.6h-1.8l-0.2-0.1
	c-1.8-1-2.3-0.8-3.9,0.1l-1.8,1h-0.4L8.2,117.1z"/>
<path class="st1" d="M17.7,127.4c1.1,0.1,2.2-0.2,3.2-0.7l7.5-4.4v-7.4l-3.9-0.7l0,0l-0.2,1.6l-6.5-0.9L17.7,127.4z"/>
<path class="st1" d="M17.9,128H17v-14l6.6,0.9l0.2-2l0.8,0.5l4.4,0.8v8.4l-7.8,4.6C20.2,127.8,19,128,17.9,128z M18.4,115.5v11
	c0.7,0,1.4-0.1,2.1-0.4l7.2-4.2v-6.5l-2.6-0.5l-0.2,1.6L18.4,115.5z"/>
<path class="st2" d="M25,109.8l4.9,2.8c2,1.2,2.2,2.9,0.5,3.9l-9.5,5.4c-2.2,1-4.7,0.9-6.8-0.3l-4.8-2.8c-2-1.2-2.2-2.9-0.5-3.9
	l9.5-5.5C20.4,108.5,22.9,108.6,25,109.8z"/>
<path class="st1" d="M17.9,123.3c-1.5,0-2.9-0.4-4.2-1.1l-4.8-2.8c-1.1-0.5-1.9-1.6-2-2.8c0-1,0.6-1.9,1.5-2.3l9.5-5.5
	c2.4-1.1,5.2-1,7.5,0.3l4.9,2.8c1.1,0.5,1.9,1.6,2,2.8c0,1-0.6,1.9-1.5,2.3l-9.5,5.5C20.2,123.1,19.1,123.3,17.9,123.3z M21.1,109.4
	c-0.9,0-1.8,0.2-2.6,0.6L9,115.5c-0.5,0.2-0.8,0.6-0.8,1.1c0,0.6,0.5,1.2,1.3,1.6l4.8,2.8c1.9,1,4.2,1.1,6.2,0.3l9.5-5.5
	c0.5-0.2,0.8-0.6,0.8-1.1c0-0.6-0.5-1.2-1.3-1.6l-4.9-2.8C23.6,109.7,22.4,109.4,21.1,109.4z"/>
<rect x="13.3" y="121.5" class="st1" width="1.4" height="4.7"/>
<path class="st3" d="M19.5,117.7c-0.8,0-1.5-0.2-2.2-0.5c-0.9-0.4-1.3-1.4-1-2.3l0,0c0.2-0.4,0.5-0.8,1-1c1.4-0.7,3-0.7,4.4,0l0,0
	c0.9,0.4,1.4,1.4,1,2.3c-0.2,0.5-0.5,0.8-1,1C21,117.5,20.3,117.7,19.5,117.7z M19.5,114.7c-0.5,0-1.1,0.1-1.5,0.3
	c-0.3,0.2-0.4,0.4-0.4,0.5s0.1,0.3,0.4,0.5c0.9,0.5,2.1,0.5,3,0c0.3-0.2,0.4-0.3,0.4-0.5s-0.1-0.3-0.4-0.5l0,0
	C20.5,114.8,20,114.6,19.5,114.7L19.5,114.7z"/>
<g>
	<g>
		<g>
			<defs>
				<path id="SVGID_9_" d="M253.3,137.4l6.5,3.7c2,1.2,2.2,2.9,0.5,3.9l-11,6.4c-2.2,1-4.7,0.8-6.8-0.3l-6.5-3.7
					c-2-1.2-2.2-2.9-0.5-3.9l11.1-6.4C248.8,136.1,251.3,136.2,253.3,137.4z"/>
			</defs>
			<clipPath id="SVGID_10_">
				<use xlink:href="#SVGID_9_"  style="overflow:visible;"/>
			</clipPath>
			<g class="st8">
				
					<rect x="212.1" y="134.8" transform="matrix(0.8663 -0.4995 0.4995 0.8663 -35.5553 137.5549)" class="st1" width="54.2" height="0.8"/>
				
					<rect x="214.2" y="135.9" transform="matrix(0.8663 -0.4995 0.4995 0.8663 -35.8259 138.7425)" class="st1" width="54.2" height="0.8"/>
				
					<rect x="216.2" y="137.2" transform="matrix(0.8663 -0.4995 0.4995 0.8663 -36.2087 139.9234)" class="st1" width="54.2" height="0.8"/>
				
					<rect x="218.4" y="138.4" transform="matrix(0.8663 -0.4995 0.4995 0.8663 -36.5135 141.1831)" class="st1" width="54.2" height="0.8"/>
				
					<rect x="220.2" y="139.6" transform="matrix(0.8663 -0.4995 0.4995 0.8663 -36.8751 142.2447)" class="st1" width="54.2" height="0.8"/>
				
					<rect x="222.3" y="140.7" transform="matrix(0.8663 -0.4995 0.4995 0.8663 -37.1443 143.432)" class="st1" width="54.2" height="0.8"/>
				
					<rect x="224.3" y="141.9" transform="matrix(0.8663 -0.4995 0.4995 0.8663 -37.4695 144.5955)" class="st1" width="54.2" height="0.8"/>
				
					<rect x="226.5" y="143" transform="matrix(0.8663 -0.4995 0.4995 0.8663 -37.7199 145.8389)" class="st1" width="54.2" height="0.8"/>
				
					<rect x="228.4" y="144.3" transform="matrix(0.8663 -0.4995 0.4995 0.8663 -38.1276 146.9644)" class="st1" width="54.2" height="0.8"/>
				
					<rect x="230.6" y="145.4" transform="matrix(0.8663 -0.4995 0.4995 0.8663 -38.3766 148.2074)" class="st1" width="54.2" height="0.8"/>
				
					<rect x="232.5" y="146.6" transform="matrix(0.8663 -0.4995 0.4995 0.8663 -38.7276 149.3112)" class="st1" width="54.2" height="0.8"/>
				
					<rect x="234.7" y="147.8" transform="matrix(0.8663 -0.4995 0.4995 0.8663 -39.0394 150.576)" class="st1" width="54.2" height="0.8"/>
				
					<rect x="236.6" y="149.1" transform="matrix(0.8664 -0.4994 0.4994 0.8664 -39.4264 151.6753)" class="st1" width="54.2" height="0.8"/>
				
					<rect x="238.7" y="150.1" transform="matrix(0.8663 -0.4995 0.4995 0.8663 -39.6418 152.8786)" class="st1" width="54.2" height="0.8"/>
				
					<rect x="240.6" y="151.4" transform="matrix(0.8663 -0.4995 0.4995 0.8663 -40.0487 154.0042)" class="st1" width="54.2" height="0.8"/>
				
					<rect x="242.8" y="152.5" transform="matrix(0.8663 -0.4995 0.4995 0.8663 -40.2989 155.2485)" class="st1" width="54.2" height="0.8"/>
				
					<rect x="244.8" y="153.7" transform="matrix(0.8663 -0.4995 0.4995 0.8663 -40.6247 156.409)" class="st1" width="54.2" height="0.8"/>
				
					<rect x="203.7" y="130.1" transform="matrix(0.8663 -0.4995 0.4995 0.8663 -34.329 132.7213)" class="st1" width="54.2" height="0.8"/>
				
					<rect x="205.8" y="131.3" transform="matrix(0.8663 -0.4995 0.4995 0.8663 -34.6579 133.9325)" class="st1" width="54.2" height="0.8"/>
				
					<rect x="207.8" y="132.5" transform="matrix(0.8663 -0.4995 0.4995 0.8663 -34.9823 135.0934)" class="st1" width="54.2" height="0.8"/>
				
					<rect x="210" y="133.7" transform="matrix(0.8663 -0.4995 0.4995 0.8663 -35.2936 136.3578)" class="st1" width="54.2" height="0.8"/>
				
					<rect x="212" y="134.9" transform="matrix(0.8663 -0.4995 0.4995 0.8663 -35.6207 137.5213)" class="st1" width="54.2" height="0.8"/>
			</g>
		</g>
	</g>
</g>
<path class="st2" d="M259.5,134.1l-7-0.6h-1.7c-2-1.2-2.8-0.9-4.6,0.1l-1.6,0.9h-0.2l-8.8,1.5c0,0-0.1,0-0.1,0.1l0,0v4.7
	c0,0.9,0.5,1.6,1.7,2.3l4.9,2.8c2.1,1.2,4.6,1.3,6.8,0.3l9.5-5.5c0.6-0.3,1.1-0.9,1.2-1.6L259.5,134.1
	C259.5,134.2,259.5,134.1,259.5,134.1L259.5,134.1z"/>
<path class="st1" d="M245.9,147.4c-1.5,0-2.9-0.4-4.2-1.1l-4.9-2.7c-1.2-0.5-1.9-1.6-2-2.9v-5.2l0.6-0.2l8.8-1.5h0.1l1.4-0.8
	c1.8-1.1,2.9-1.4,5.1-0.2h1.7l6.9,0.6c0.4,0,0.7,0.4,0.7,0.8v4.8c-0.1,0.9-0.7,1.8-1.5,2.2l-9.5,5.5
	C248.1,147.2,247,147.4,245.9,147.4z M236.2,136.5v4.2c0,0.4,0.1,1,1.3,1.7l4.9,2.8c1.9,1.1,4.2,1.2,6.1,0.3l9.5-5.5
	c0.4-0.2,0.8-0.6,0.8-1.1v-4.1l-6.5-0.6h-1.8l-0.2-0.1c-1.8-1-2.3-0.8-3.9,0.1l-1.8,1h-0.4L236.2,136.5z"/>
<path class="st1" d="M245.7,146.7c1.1,0.1,2.2-0.2,3.2-0.7l7.5-4.4v-7.4l-3.9-0.7l0,0l-0.2,1.6l-6.5-0.9L245.7,146.7z"/>
<path class="st1" d="M245.9,147.4H245v-14l6.6,0.9l0.2-2l0.8,0.5l4.4,0.8v8.4l-7.8,4.6C248.2,147.1,247,147.4,245.9,147.4z
	 M246.4,134.9v11c0.8,0,1.5-0.2,2.1-0.6l7.1-4.2v-6.4l-2.7-0.5l-0.2,1.6L246.4,134.9z"/>
<path class="st2" d="M253.1,129.2l4.9,2.8c2,1.2,2.2,2.9,0.5,3.9l-9.5,5.5c-2.2,1-4.7,0.9-6.8-0.3l-4.9-2.8c-2-1.2-2.2-2.9-0.5-3.9
	l9.5-5.5C248.4,127.9,251,128,253.1,129.2z"/>
<path class="st1" d="M245.9,142.7c-1.5,0-2.9-0.4-4.2-1.1l-4.9-2.8c-1.1-0.5-1.9-1.6-2-2.8c0-1,0.6-1.9,1.5-2.3l9.5-5.5
	c2.4-1.1,5.2-1,7.5,0.3l4.9,2.8c1.1,0.5,1.9,1.6,2,2.8c0,1-0.6,1.9-1.5,2.3l-9.5,5.5C248.1,142.5,247,142.8,245.9,142.7z
	 M249.1,128.9c-0.9,0-1.8,0.2-2.6,0.6L237,135c-0.5,0.2-0.8,0.6-0.8,1.1s0.5,1.1,1.3,1.6l4.9,2.8c1.9,1.1,4.2,1.2,6.1,0.3l9.5-5.5
	c0.5-0.2,0.8-0.6,0.9-1.1c0-0.5-0.5-1.1-1.3-1.6l-4.9-2.7c-1.1-0.6-2.3-0.9-3.5-0.9L249.1,128.9z"/>
<rect x="241.3" y="140.9" class="st1" width="1.4" height="4.6"/>
<path class="st3" d="M247.6,137.1c-0.8,0-1.5-0.2-2.2-0.5c-0.9-0.4-1.4-1.4-1-2.3l0,0c0.2-0.5,0.5-0.8,1-1c1.4-0.7,3-0.7,4.4,0l0,0
	c0.9,0.4,1.4,1.4,1,2.3c-0.2,0.5-0.5,0.8-1,1C249.1,136.9,248.3,137.1,247.6,137.1z M247.6,134.1c-0.5,0-1,0.1-1.5,0.4
	c-0.3,0.2-0.4,0.4-0.4,0.5s0.1,0.3,0.4,0.5c0.9,0.5,2.1,0.5,3,0c0.3-0.2,0.4-0.4,0.4-0.5s-0.1-0.3-0.4-0.5
	C248.6,134.2,248.1,134.1,247.6,134.1z"/>
<g>
	<g>
		<g>
			<defs>
				<path id="SVGID_11_" d="M196.8,49.8l6.5,3.7c2,1.2,2.2,2.9,0.5,3.9l-11.1,6.5c-2.2,1-4.7,0.9-6.8-0.3l-6.5-3.6
					c-2-1.2-2.2-2.9-0.5-4l11.1-6.5C192.2,48.6,194.7,48.7,196.8,49.8z"/>
			</defs>
			<clipPath id="SVGID_12_">
				<use xlink:href="#SVGID_11_"  style="overflow:visible;"/>
			</clipPath>
			<g class="st9">
				<rect x="155.5" y="47.3" transform="matrix(0.866 -0.5 0.5 0.866 0.6154 97.6857)" class="st1" width="54.2" height="0.8"/>
				<rect x="159.8" y="49.1" transform="matrix(0.867 -0.4983 0.4983 0.867 0.2058 99.76)" class="st1" width="54.4" height="0.8"/>
				
					<rect x="159.6" y="49.6" transform="matrix(0.8659 -0.5002 0.5002 0.8659 2.858536e-02 100.0939)" class="st1" width="54.2" height="0.8"/>
				<rect x="161.8" y="50.8" transform="matrix(0.866 -0.5 0.5 0.866 -0.2917 101.3101)" class="st1" width="54.2" height="0.8"/>
				
					<rect x="165.8" y="52.7" transform="matrix(0.867 -0.4983 0.4983 0.867 -0.788 103.2304)" class="st1" width="54.4" height="0.8"/>
				
					<rect x="167.9" y="53.9" transform="matrix(0.867 -0.4983 0.4983 0.867 -1.1152 104.4375)" class="st1" width="54.4" height="0.8"/>
				<rect x="167.7" y="54.4" transform="matrix(0.866 -0.5 0.5 0.866 -1.2984 104.7379)" class="st1" width="54.2" height="0.8"/>
				<rect x="169.9" y="55.5" transform="matrix(0.866 -0.5 0.5 0.866 -1.5526 105.9875)" class="st1" width="54.2" height="0.8"/>
				<rect x="171.8" y="56.8" transform="matrix(0.866 -0.5 0.5 0.866 -1.9591 107.1116)" class="st1" width="54.2" height="0.8"/>
				<rect x="174" y="57.9" transform="matrix(0.866 -0.5 0.5 0.866 -2.2078 108.3575)" class="st1" width="54.2" height="0.8"/>
				
					<rect x="178.2" y="59.8" transform="matrix(0.867 -0.4983 0.4983 0.867 -2.6784 110.351)" class="st1" width="54.4" height="0.8"/>
				<rect x="178.2" y="60.3" transform="matrix(0.866 -0.5 0.5 0.866 -2.845 110.7862)" class="st1" width="54.2" height="0.8"/>
				<rect x="180" y="61.5" transform="matrix(0.866 -0.5 0.5 0.866 -3.1994 111.8428)" class="st1" width="54.2" height="0.8"/>
				<rect x="182.1" y="62.7" transform="matrix(0.866 -0.5 0.5 0.866 -3.5271 113.0551)" class="st1" width="54.2" height="0.8"/>
				<rect x="184.1" y="63.9" transform="matrix(0.866 -0.5 0.5 0.866 -3.8524 114.2175)" class="st1" width="54.2" height="0.8"/>
				<rect x="186.3" y="65" transform="matrix(0.866 -0.5 0.5 0.866 -4.1072 115.4634)" class="st1" width="54.2" height="0.8"/>
				
					<rect x="190.5" y="67" transform="matrix(0.867 -0.4983 0.4983 0.867 -4.6394 117.4451)" class="st1" width="54.4" height="0.8"/>
				
					<rect x="149.2" y="43.3" transform="matrix(0.867 -0.4983 0.4983 0.867 1.6776 93.7043)" class="st1" width="54.4" height="0.8"/>
				<rect x="149.3" y="43.8" transform="matrix(0.866 -0.5 0.5 0.866 1.5355 94.1219)" class="st1" width="54.2" height="0.8"/>
				<rect x="151.2" y="45" transform="matrix(0.866 -0.5 0.5 0.866 1.1891 95.2268)" class="st1" width="54.2" height="0.8"/>
				<rect x="155.6" y="47" transform="matrix(0.867 -0.4983 0.4983 0.867 0.6846 97.3954)" class="st1" width="54.4" height="0.8"/>
				<rect x="155.4" y="47.4" transform="matrix(0.866 -0.5 0.5 0.866 0.5476 97.6573)" class="st1" width="54.2" height="0.8"/>
			</g>
		</g>
	</g>
</g>
<path class="st2" d="M202.9,46.5l-7-0.6h-1.7c-2-1.2-2.8-0.9-4.6,0.1l-1.6,0.9h-0.3l-8.7,1.5v0.1v4.7c0,0.9,0.5,1.6,1.7,2.3l4.9,2.8
	c2.1,1.2,4.6,1.3,6.8,0.3l9.4-5.5c0.6-0.3,1.1-0.9,1.2-1.6v-4.8v-0.1h-0.1L202.9,46.5L202.9,46.5z"/>
<path class="st1" d="M189.3,59.8c-1.5,0-2.9-0.3-4.2-1.1l-4.8-2.7c-1.2-0.5-1.9-1.6-2-2.9V48l0.6-0.2l8.8-1.5h0.1l1.4-0.8
	c1.8-1,2.9-1.4,5.1-0.2h1.7l6.9,0.6c0.4,0,0.7,0.4,0.7,0.8v4.7c-0.1,0.9-0.7,1.8-1.5,2.2l-9.5,5.4C191.5,59.6,190.4,59.9,189.3,59.8
	z M179.6,49v4.2c0,0.4,0.1,1,1.3,1.7l4.9,2.8c1.9,1.1,4.2,1.2,6.1,0.3l9.5-5.5c0.4-0.2,0.8-0.6,0.8-1.1v-4.2l-6.5-0.6H194l-0.2-0.1
	c-1.8-1-2.3-0.8-3.9,0.1l-1.8,1h-0.4L179.6,49z"/>
<path class="st1" d="M189.1,59.1c1.1,0.1,2.2-0.2,3.2-0.7l7.5-4.4v-7.4l-3.9-0.7l0,0l-0.2,1.6l-6.5-0.9L189.1,59.1z"/>
<path class="st1" d="M189.3,59.8h-0.9v-14l6.6,1l0.2-2l0.8,0.5l4.4,0.8v8.4l-7.8,4.6C191.6,59.6,190.4,59.9,189.3,59.8z M189.8,47.4
	v11.1c0.7,0,1.5-0.2,2.1-0.6l7.2-4.2v-6.4l-2.7-0.5l-0.2,1.6L189.8,47.4z"/>
<path class="st2" d="M196.4,41.6l4.9,2.8c2,1.2,2.2,2.9,0.5,4l-9.5,5.5c-2.2,1-4.7,0.9-6.8-0.3l-4.9-2.8c-2-1.2-2.2-2.9-0.5-3.9
	l9.5-5.5C191.8,40.3,194.3,40.4,196.4,41.6z"/>
<path class="st1" d="M189.3,55.2c-1.5,0-2.9-0.3-4.2-1l-4.9-2.8c-1.1-0.5-1.9-1.6-2-2.8c0-1,0.6-1.9,1.5-2.3l9.5-5.5
	c2.4-1.1,5.2-1,7.5,0.3l4.9,2.8c1.1,0.5,1.9,1.6,2,2.8c0,1-0.6,1.9-1.5,2.3l-9.5,5.5C191.6,54.9,190.4,55.2,189.3,55.2z M192.5,41.3
	c-0.9,0-1.8,0.2-2.6,0.6l-9.5,5.5c-0.5,0.2-0.8,0.6-0.8,1.1s0.5,1.2,1.3,1.6l4.9,2.8c1.9,1,4.2,1.1,6.1,0.3l9.5-5.5
	c0.5-0.2,0.8-0.6,0.8-1.1s-0.5-1.2-1.3-1.6l-4.8-2.7C195,41.7,193.8,41.4,192.5,41.3z"/>
<rect x="184.7" y="53.4" class="st1" width="1.4" height="4.7"/>
<path class="st3" d="M190.9,49.5c-0.8,0-1.5-0.2-2.2-0.5c-0.9-0.4-1.4-1.4-1-2.3l0,0c0.2-0.5,0.5-0.8,1-1c1.4-0.7,3-0.7,4.4,0
	c0.9,0.4,1.4,1.4,1,2.4c-0.2,0.5-0.5,0.8-1,1C192.4,49.4,191.7,49.6,190.9,49.5z M190.9,46.5c-0.5,0-1,0.1-1.5,0.3
	c-0.3,0.2-0.4,0.4-0.4,0.5s0.1,0.3,0.4,0.5c0.9,0.5,2.1,0.5,3,0c0.3-0.2,0.4-0.4,0.4-0.5s-0.1-0.3-0.4-0.5
	C192,46.6,191.4,46.5,190.9,46.5L190.9,46.5z"/>
<path class="st3" d="M167.6,43.2c-7.9,4.6-14.4,15.7-14.4,24.9v77.8l-55.4-32.1V36.1c0-9.2,6.4-20.3,14.3-24.9L167.6,43.2z"/>
<path class="st1" d="M154,147.1l-56.8-32.9V36.1c0-9.4,6.6-20.8,14.7-25.5l0.3-0.2L169,43.3l-1,0.6c-7.7,4.5-14,15.4-14,24.3V147.1z
	 M98.5,113.3l54,31.3V68.1c0-9,6.1-19.9,13.8-24.9l-54.1-31.3c-7.6,4.6-13.7,15.3-13.7,24.1L98.5,113.3z"/>
<path class="st2" d="M124.1,83l-16.5-9.5c-1.5-1.1-2.5-2.8-2.5-4.7V45c0-1.8,1.1-2.6,2.5-1.8l16.5,9.5c1.5,1.1,2.5,2.8,2.5,4.7v23.8
	C126.6,82.9,125.5,83.8,124.1,83z"/>
<path class="st1" d="M125.1,84c-0.4,0-0.9-0.2-1.2-0.4L107.3,74c-1.7-1.2-2.8-3.2-2.8-5.3V45c-0.1-1,0.4-2,1.2-2.6
	c0.7-0.4,1.6-0.3,2.3,0.1l16.5,9.5c1.7,1.2,2.7,3.2,2.8,5.2V81c0.1,1-0.4,1.9-1.2,2.5C125.9,83.9,125.5,84,125.1,84z M106.6,43.6
	c-0.1,0-0.2,0-0.3,0.1c-0.4,0.4-0.6,0.9-0.5,1.4v23.8c0,1.6,0.8,3.1,2.1,4.1l16.5,9.6c0.3,0.2,0.6,0.2,0.9,0.1
	c0.4-0.3,0.6-0.9,0.5-1.4V57.4c0-1.6-0.8-3.1-2.1-4.1l-16.5-9.5C107.1,43.7,106.8,43.6,106.6,43.6z"/>
<path class="st3" d="M122.3,77.8l-12.9-7.5c-0.5-0.4-0.8-1-0.8-1.6V49c0-0.6,0.4-0.9,0.8-0.7l12.9,7.5c0.5,0.4,0.8,1,0.8,1.6v19.9
	C123.2,77.8,122.8,78.1,122.3,77.8z"/>
<path class="st1" d="M122.7,78.6c-0.2,0-0.5-0.1-0.7-0.2l-12.9-7.5c-0.8-0.5-1.2-1.3-1.2-2.2V49c0-0.5,0.2-1,0.6-1.2s0.9-0.2,1.2,0
	l12.9,7.5c0.8,0.5,1.2,1.3,1.2,2.2v19.9c0,0.5-0.2,1-0.6,1.2C123,78.6,122.8,78.6,122.7,78.6z M109.3,49v19.7c0,0.4,0.2,0.8,0.5,1
	l12.7,7.4V57.4c0-0.4-0.2-0.8-0.5-1L109.3,49z"/>
<path class="st2" d="M142.1,102.3L106.8,82c-1-0.7-1.6-1.9-1.6-3.1l0,0c0-1.2,0.7-1.8,1.6-1.2L142.1,98c1,0.7,1.6,1.9,1.7,3.1l0,0
	C143.8,102.3,143,102.8,142.1,102.3z"/>
<path class="st1" d="M142.8,103.2c-0.4,0-0.7-0.1-1-0.3l-35.3-20.4c-1.2-0.8-2-2.2-2-3.8c-0.1-0.8,0.3-1.5,0.9-1.9
	c0.6-0.3,1.2-0.3,1.8,0.1l35.4,20.4c1.2,0.8,2,2.2,2,3.8c0.1,0.8-0.3,1.5-0.9,1.9C143.3,103.1,143,103.2,142.8,103.2z M142.4,101.7
	c0.1,0.1,0.2,0.1,0.4,0.1c0.1-0.1,0.2-0.3,0.2-0.7c0-1-0.5-1.9-1.2-2.5l-35.3-20.4c-0.1-0.1-0.2-0.1-0.4-0.1c-0.1,0-0.2,0.3-0.2,0.7
	c0,1,0.5,1.9,1.2,2.5L142.4,101.7z"/>
<path class="st2" d="M136.2,107.3l-29.4-17.1c-1-0.7-1.6-1.9-1.6-3.1l0,0c0-1.2,0.7-1.8,1.6-1.2l29.4,17.1c1,0.7,1.6,1.9,1.6,3.1
	l0,0C137.8,107.3,137.1,107.8,136.2,107.3z"/>
<path class="st1" d="M136.8,108.2c-0.4,0-0.7-0.1-1-0.3l0,0l-29.4-17.1c-1.2-0.8-2-2.2-2-3.8c-0.1-0.8,0.3-1.5,0.9-1.9
	c0.6-0.3,1.2-0.3,1.8,0.1l29.4,17.1c1.2,0.8,2,2.2,2,3.8c0.1,0.8-0.3,1.5-0.9,1.9C137.4,108.1,137.1,108.2,136.8,108.2z
	 M136.5,106.7c0.1,0.1,0.3,0.1,0.4,0.1c0.1,0,0.2-0.3,0.2-0.7c0-1-0.5-1.9-1.2-2.5l-29.4-17.1c-0.1-0.1-0.2-0.1-0.4-0.1
	c-0.1,0-0.2,0.3-0.2,0.7c0,1,0.5,1.9,1.2,2.5L136.5,106.7z"/>
<path class="st2" d="M139.5,66.9l-7.5-4.2c-1-0.7-1.6-1.9-1.6-3.1l0,0c0-1.2,0.7-1.8,1.6-1.2l7.4,4.2c1,0.7,1.6,1.9,1.6,3.1l0,0
	C141.1,66.9,140.4,67.4,139.5,66.9z"/>
<path class="st1" d="M140.1,67.8c-0.4,0-0.7-0.1-1-0.3l-7.4-4.2c-1.2-0.8-2-2.2-2-3.8c-0.1-0.8,0.3-1.5,0.9-1.9
	c0.6-0.3,1.2-0.3,1.8,0.1l7.4,4.2c1.2,0.8,2,2.2,2,3.7c0.1,0.8-0.3,1.5-0.9,1.9C140.6,67.7,140.4,67.8,140.1,67.8z M131.4,58.8h-0.1
	c-0.1,0-0.2,0.3-0.2,0.7c0,1,0.5,1.9,1.2,2.5l7.4,4.2c0.1,0.1,0.3,0.1,0.4,0.1c0.1,0,0.2-0.3,0.2-0.7c0-1-0.5-1.9-1.2-2.5l-7.4-4.2
	C131.6,58.9,131.5,58.8,131.4,58.8z"/>
<path class="st2" d="M142,76.7l-10-5.6c-1-0.7-1.6-1.9-1.6-3.1l0,0c0-1.2,0.7-1.8,1.6-1.2l10,5.7c1,0.7,1.6,1.9,1.6,3.1l0,0
	C143.6,76.7,142.9,77.3,142,76.7z"/>
<path class="st1" d="M142.6,77.6c-0.4,0-0.7-0.1-1-0.3l-9.9-5.7c-1.2-0.9-2-2.3-2-3.8c-0.1-0.8,0.3-1.5,0.9-1.9
	c0.6-0.3,1.2-0.2,1.8,0.1l9.9,5.7c1.2,0.8,2,2.2,2,3.8c0.1,0.8-0.3,1.5-0.9,1.9C143.2,77.5,142.9,77.6,142.6,77.6z M142.3,76.1
	c0.1,0.1,0.2,0.1,0.4,0.1c0.1,0,0.2-0.3,0.2-0.7c0-1-0.5-1.9-1.2-2.5l-10-5.7c-0.1-0.1-0.2-0.1-0.4-0.1c-0.1,0.1-0.2,0.3-0.2,0.7
	c0,1,0.5,1.9,1.2,2.5L142.3,76.1z"/>
<path class="st2" d="M142,85l-10-5.7c-1-0.7-1.6-1.9-1.6-3.1l0,0c0-1.2,0.7-1.8,1.6-1.2l10,5.7c1,0.7,1.6,1.9,1.6,3.1l0,0
	C143.6,85,142.9,85.5,142,85z"/>
<path class="st1" d="M142.6,85.9c-0.4,0-0.7-0.1-1-0.3l-9.9-5.8c-1.2-0.9-2-2.3-2-3.8c-0.1-0.8,0.3-1.5,0.9-1.9
	c0.6-0.3,1.2-0.3,1.8,0.1l9.9,5.8c1.2,0.8,2,2.2,2,3.8c0.1,0.8-0.3,1.5-0.9,1.9C143.2,85.8,142.9,85.9,142.6,85.9z M142.3,84.4
	c0.1,0.1,0.2,0.1,0.4,0.1c0.1,0,0.2-0.3,0.2-0.7c0-1-0.5-1.9-1.2-2.5l-9.9-5.7c-0.1-0.1-0.3-0.1-0.4-0.1c-0.1,0.1-0.2,0.3-0.2,0.7
	c0,1,0.5,1.9,1.2,2.5L142.3,84.4z"/>
<path class="st2" d="M142,93.3l-10-5.7c-1-0.7-1.6-1.9-1.6-3.1l0,0c0-1.2,0.7-1.8,1.6-1.2l10,5.7c1,0.7,1.6,1.9,1.6,3.1l0,0
	C143.6,93.3,142.9,93.8,142,93.3z"/>
<path class="st1" d="M142.6,94.2c-0.4,0-0.7-0.1-1-0.3l-9.9-5.7c-1.2-0.9-2-2.3-2-3.8c-0.1-0.8,0.3-1.5,0.9-1.9
	c0.6-0.3,1.2-0.3,1.8,0.1l9.9,5.7c1.2,0.8,2,2.2,2,3.8c0.1,0.8-0.3,1.5-0.9,1.9C143.2,94.1,142.9,94.2,142.6,94.2z M142.3,92.7
	c0.1,0.1,0.2,0.1,0.4,0.1c0.1,0,0.2-0.3,0.2-0.7c0-1-0.5-1.9-1.2-2.5l-9.9-5.7c-0.2-0.1-0.3-0.1-0.4-0.1c-0.2,0.2-0.2,0.5-0.2,0.7
	c0,1,0.5,1.9,1.2,2.5L142.3,92.7z"/>
<path class="st2" d="M125.7,109.6l-19-11c-1-0.7-1.6-1.9-1.6-3.1l0,0c0-1.2,0.7-1.8,1.6-1.2l19,11.1c1,0.7,1.6,1.9,1.6,3.1l0,0
	C127.4,109.6,126.6,110.1,125.7,109.6z"/>
<path class="st1" d="M126.4,110.5c-0.4,0-0.7-0.1-1-0.3l0,0l-18.9-11.1c-1.2-0.9-2-2.3-2-3.8c-0.1-0.8,0.3-1.5,0.9-1.9
	c0.6-0.3,1.2-0.3,1.8,0.1l18.9,11.1c1.2,0.9,2,2.2,2,3.8c0.1,0.8-0.3,1.5-0.9,1.9C126.9,110.4,126.7,110.5,126.4,110.5z M126.1,109
	c0.1,0.1,0.2,0.1,0.4,0.1c0.2-0.2,0.2-0.5,0.2-0.7c0-1-0.5-1.9-1.2-2.5l-19-11.1c-0.2-0.1-0.3-0.1-0.4-0.1c-0.2,0.2-0.2,0.5-0.2,0.7
	c0,1,0.5,1.9,1.2,2.5L126.1,109z"/>
<path class="st2" d="M116.8,112.5l-10-5.7c-1-0.7-1.6-1.9-1.6-3.2l0,0c0-1.2,0.7-1.8,1.6-1.2l9.9,5.7c1,0.7,1.6,1.9,1.6,3.1l0,0
	C118.3,112.5,117.6,113,116.8,112.5z"/>
<path class="st1" d="M117.4,113.4c-0.4,0-0.7-0.1-1-0.3l-9.9-5.8c-1.2-0.8-2-2.2-2-3.8c-0.1-0.8,0.3-1.5,0.9-1.9
	c0.6-0.3,1.2-0.2,1.8,0.1l9.9,5.7c1.2,0.8,2,2.2,2,3.8c0.1,0.8-0.3,1.5-0.9,1.9C117.9,113.3,117.6,113.4,117.4,113.4z M117.1,111.9
	c0.1,0.1,0.3,0.1,0.4,0.1c0.1-0.1,0.2-0.3,0.2-0.7c0-1-0.5-1.9-1.2-2.5l-9.9-5.8c-0.2-0.1-0.3-0.1-0.4-0.1c-0.2,0.2-0.3,0.5-0.2,0.7
	c0,1,0.5,1.9,1.2,2.5L117.1,111.9z"/>
<rect x="155.3" y="34.2" transform="matrix(0.4959 -0.8684 0.8684 0.4959 41.7716 156.8785)" class="st1" width="1.4" height="16.6"/>
<rect x="143" y="32.6" transform="matrix(0.4961 -0.8683 0.8683 0.4961 41.5576 142.7116)" class="st1" width="1.4" height="5.9"/>
<rect x="122.7" y="5.7" transform="matrix(0.4959 -0.8684 0.8684 0.4959 41.5265 119.1423)" class="st1" width="1.4" height="36.3"/>
<rect x="122.2" y="31.9" transform="matrix(0.4983 -0.867 0.867 0.4983 31.8555 123.8583)" class="st1" width="1.4" height="5"/>
<rect x="109.2" y="17" transform="matrix(0.4983 -0.867 0.867 0.4983 31.7708 108.8247)" class="st1" width="1.4" height="19.9"/>
<rect x="94" y="6.9" class="st3" width="1.1" height="5.3"/>
<rect x="91.9" y="9.1" class="st3" width="5.3" height="1.1"/>
<rect x="209.8" y="79.3" class="st3" width="1.1" height="5.3"/>
<rect x="207.6" y="81.4" class="st3" width="5.4" height="1.1"/>
<g>
	<g>
		<g>
			<defs>
				<path id="SVGID_13_" d="M173.9,234.3l6.5,3.7c2,1.2,2.2,2.9,0.5,3.9l-11.1,6.4c-2.2,1-4.7,0.9-6.8-0.3l-6.5-3.7
					c-2-1.2-2.2-2.9-0.5-3.9l11.1-6.4C169.3,233,171.8,233.1,173.9,234.3z"/>
			</defs>
			<clipPath id="SVGID_14_">
				<use xlink:href="#SVGID_13_"  style="overflow:visible;"/>
			</clipPath>
			<g class="st10">
				
					<rect x="132.6" y="231.7" transform="matrix(0.8663 -0.4995 0.4995 0.8663 -94.5921 110.7903)" class="st1" width="54.2" height="0.8"/>
				
					<rect x="134.8" y="232.9" transform="matrix(0.8663 -0.4995 0.4995 0.8663 -94.8894 112.0503)" class="st1" width="54.2" height="0.8"/>
				
					<rect x="136.8" y="234" transform="matrix(0.8663 -0.4995 0.4995 0.8663 -95.1659 113.1981)" class="st1" width="54.2" height="0.8"/>
				
					<rect x="138.9" y="235.2" transform="matrix(0.8663 -0.4995 0.4995 0.8663 -95.4969 114.4062)" class="st1" width="54.2" height="0.8"/>
				
					<rect x="140.7" y="236.4" transform="matrix(0.8663 -0.4995 0.4995 0.8663 -95.8538 115.4614)" class="st1" width="54.2" height="0.8"/>
				
					<rect x="142.9" y="237.6" transform="matrix(0.8663 -0.4995 0.4995 0.8663 -96.1586 116.7306)" class="st1" width="54.2" height="0.8"/>
				
					<rect x="144.9" y="238.8" transform="matrix(0.8663 -0.4995 0.4995 0.8663 -96.4857 117.8907)" class="st1" width="54.2" height="0.8"/>
				
					<rect x="147" y="240" transform="matrix(0.8663 -0.4995 0.4995 0.8663 -96.7952 119.1105)" class="st1" width="54.2" height="0.8"/>
				
					<rect x="149" y="241.2" transform="matrix(0.8663 -0.4995 0.4995 0.8663 -97.1432 120.26)" class="st1" width="54.2" height="0.8"/>
				
					<rect x="151.2" y="242.3" transform="matrix(0.8663 -0.4995 0.4995 0.8663 -97.3943 121.5026)" class="st1" width="54.2" height="0.8"/>
				
					<rect x="153.1" y="243.5" transform="matrix(0.8663 -0.4995 0.4995 0.8663 -97.7419 122.6064)" class="st1" width="54.2" height="0.8"/>
				
					<rect x="155.3" y="244.6" transform="matrix(0.8663 -0.4995 0.4995 0.8663 -97.9957 123.8517)" class="st1" width="54.2" height="0.8"/>
				
					<rect x="157.1" y="245.9" transform="matrix(0.8663 -0.4995 0.4995 0.8663 -98.4093 124.9261)" class="st1" width="54.2" height="0.8"/>
				
					<rect x="159.3" y="247" transform="matrix(0.8663 -0.4995 0.4995 0.8663 -98.6554 126.173)" class="st1" width="54.2" height="0.8"/>
				
					<rect x="161.2" y="248.3" transform="matrix(0.8663 -0.4995 0.4995 0.8663 -99.063 127.2986)" class="st1" width="54.2" height="0.8"/>
				
					<rect x="163.4" y="249.4" transform="matrix(0.8663 -0.4995 0.4995 0.8663 -99.3155 128.5423)" class="st1" width="54.2" height="0.8"/>
				
					<rect x="165.4" y="250.6" transform="matrix(0.8663 -0.4995 0.4995 0.8663 -99.6406 129.7058)" class="st1" width="54.2" height="0.8"/>
				
					<rect x="124.3" y="227" transform="matrix(0.8663 -0.4995 0.4995 0.8663 -93.3446 106.0162)" class="st1" width="54.2" height="0.8"/>
				
					<rect x="126.5" y="228.2" transform="matrix(0.8663 -0.4995 0.4995 0.8663 -93.6504 107.2843)" class="st1" width="54.2" height="0.8"/>
				
					<rect x="128.4" y="229.5" transform="matrix(0.8664 -0.4994 0.4994 0.8664 -94.0364 108.3774)" class="st1" width="54.2" height="0.8"/>
				
					<rect x="130.6" y="230.5" transform="matrix(0.8663 -0.4995 0.4995 0.8663 -94.2494 109.6328)" class="st1" width="54.2" height="0.8"/>
				
					<rect x="132.5" y="231.8" transform="matrix(0.8663 -0.4995 0.4995 0.8663 -94.6568 110.7571)" class="st1" width="54.2" height="0.8"/>
			</g>
		</g>
	</g>
</g>
<path class="st2" d="M180,231l-7-0.6h-1.8c-2-1.2-2.8-0.9-4.6,0.1l-1.6,0.9h-0.2l-8.8,1.5c0,0-0.1,0-0.1,0.1v4.7
	c0,0.9,0.5,1.6,1.7,2.3l4.9,2.8c2.1,1.2,4.6,1.3,6.8,0.3l9.5-5.5c0.6-0.3,1.1-0.9,1.2-1.6v-4.7C180.1,231.1,180.1,231.1,180,231
	C180,231.1,180.1,231,180,231z"/>
<path class="st1" d="M166.5,244.3c-1.5,0-2.9-0.3-4.2-1.1l-4.9-2.8c-1.2-0.5-1.9-1.6-2-2.9v-5.2l0.6-0.2l8.8-1.5h0.1l1.4-0.8
	c1.8-1,2.9-1.4,5.1-0.2h1.7l6.9,0.6c0.4,0,0.7,0.4,0.7,0.8v4.7c-0.1,0.9-0.7,1.8-1.5,2.2l-9.5,5.5
	C168.7,244.1,167.6,244.3,166.5,244.3z M156.8,233.4v4.2c0,0.4,0.1,1,1.3,1.7l4.9,2.8c1.9,1,4.2,1.1,6.1,0.3l9.5-5.5
	c0.4-0.2,0.8-0.6,0.8-1.1v-4.1l-6.5-0.6h-1.8l-0.2-0.1c-1.8-1-2.3-0.8-3.9,0.1l-1.8,1H165L156.8,233.4z"/>
<path class="st1" d="M166.3,243.6c1.1,0.1,2.2-0.2,3.2-0.7l7.5-4.4v-7.4l-3.9-0.7l0,0l-0.2,1.6l-6.5-0.9L166.3,243.6z"/>
<path class="st1" d="M166.5,244.2h-0.9v-14l6.6,0.9l0.2-2l0.8,0.5l4.4,0.8v8.4l-7.9,4.6C168.7,244,167.6,244.3,166.5,244.2z
	 M166.9,231.8v11.1c0.7,0,1.5-0.2,2.1-0.6l7.2-4.2v-6.5l-2.7-0.5l-0.2,1.6L166.9,231.8z"/>
<path class="st2" d="M173.6,226.1l4.9,2.8c2,1.2,2.2,2.9,0.5,3.9l-9.5,5.5c-2.2,1-4.7,0.9-6.8-0.3l-4.9-2.8c-2-1.2-2.2-2.9-0.5-3.9
	l9.5-5.5C168.9,224.9,171.5,225,173.6,226.1z"/>
<path class="st1" d="M166.5,239.6c-1.5,0-2.9-0.4-4.2-1.1l-4.8-2.8c-1.1-0.5-1.9-1.6-2-2.8c0-1,0.6-1.9,1.5-2.3l9.5-5.5
	c2.4-1.1,5.2-1,7.5,0.3l4.9,2.8c1.1,0.5,1.9,1.6,2,2.8c-0.1,1-0.6,1.9-1.5,2.3l-9.5,5.5C168.8,239.4,167.6,239.7,166.5,239.6z
	 M169.7,225.8c-0.9,0-1.8,0.2-2.6,0.6l-9.5,5.5c-0.5,0.2-0.8,0.6-0.8,1.1c0,0.6,0.5,1.2,1.3,1.6l4.9,2.8c1.9,1,4.2,1.1,6.1,0.3
	l9.5-5.5c0.5-0.2,0.8-0.6,0.8-1.1c0-0.6-0.5-1.2-1.3-1.6l-4.9-2.8C172.2,226.1,170.9,225.8,169.7,225.8z"/>
<rect x="161.9" y="237.8" class="st1" width="1.4" height="4.6"/>
<path class="st3" d="M168.1,234c-0.8,0-1.5-0.2-2.2-0.5c-0.9-0.4-1.4-1.4-1-2.3c0.2-0.5,0.5-0.8,1-1c1.4-0.7,3-0.7,4.4,0
	c0.9,0.4,1.3,1.5,0.9,2.4c-0.2,0.4-0.5,0.8-0.9,0.9C169.6,233.8,168.9,234,168.1,234z M168.1,231c-0.5,0-1,0.1-1.5,0.4
	c-0.3,0.2-0.4,0.4-0.4,0.5s0.1,0.3,0.4,0.5c0.9,0.5,2.1,0.5,3,0c0.3-0.2,0.4-0.4,0.4-0.5s-0.1-0.3-0.4-0.5l0,0
	C169.1,231.1,168.6,231,168.1,231z"/>
<rect x="176.4" y="212" class="st3" width="1.1" height="5.4"/>
<rect x="174.3" y="214.1" class="st3" width="5.3" height="1.1"/>
<path class="st3" d="M170,173l-35.3-20.4v-29.9l0,0l8.8-5.8l0,0l26.5,15.3V173L170,173z"/>
<path class="st1" d="M170,173.7l-0.3-0.2L134,152.9v-30.6l0.4-0.2l8.8-5.8l0.4-0.3l0.5,0.3l26.8,15.5v41.6L170,173.7z M135.4,152.2
	l34,19.6v-39.2l-25.8-14.9l-8.2,5.4V152.2z"/>
<path class="st2" d="M134.8,122.7l8.8,5.1l0,0v-10.9l0,0L134.8,122.7C134.8,122.7,134.7,122.7,134.8,122.7z"/>
<path class="st1" d="M143.6,128.6l-0.4-0.2l-9.2-5.3v-0.8l0.4-0.2l9.1-6.1l0.7,0.4v11.7L143.6,128.6z M136,122.7l6.9,4v-8.5
	L136,122.7z"/>
<path class="st2" d="M160.3,147.7c0,5-3.5,7.1-7.9,4.6c-4.7-3-7.6-8.1-7.9-13.7c0-5,3.5-7.1,7.9-4.6
	C157.1,137.1,160,142.2,160.3,147.7z"/>
<path class="st1" d="M155.9,154.1c-1.4-0.1-2.7-0.5-3.9-1.2c-4.9-3.2-7.9-8.5-8.2-14.3c0-2.7,0.9-4.7,2.6-5.7s3.9-0.8,6.2,0.6
	c4.9,3.2,8,8.5,8.3,14.3c0,2.7-0.9,4.7-2.6,5.7C157.6,153.9,156.8,154.1,155.9,154.1z M148.9,133.6c-0.6,0-1.2,0.1-1.7,0.4
	c-1.2,0.7-2,2.3-2,4.5c0.3,5.3,3.1,10.2,7.5,13.1c1.4,1,3.3,1.2,4.9,0.6c1.2-0.7,2-2.3,2-4.5c-0.3-5.3-3.1-10.2-7.5-13.1
	C151.1,134,150,133.7,148.9,133.6L148.9,133.6z"/>
<path class="st3" d="M155,136.1l-2.5,7.1l0,0l7.9,4.5C160.1,143.4,158.2,139.2,155,136.1z"/>
<path class="st1" d="M161,148.9l-9.4-5.4l0.2-0.6l2.9-8.1l0.8,0.7c3.3,3.2,5.3,7.6,5.6,12.2L161,148.9z M153.3,142.9l6.2,3.6
	c-0.5-3.4-2-6.6-4.3-9.2L153.3,142.9z"/>
<path class="st2" d="M158.7,152.4c1.1-1.2,1.7-2.9,1.6-4.6l-7.8-4.5l0,0L158.7,152.4z"/>
<path class="st1" d="M158.6,153.4l-7-10.1l0.8-0.9l0.5,0.3l8.1,4.7v0.4c0.1,1.9-0.5,3.7-1.8,5.1L158.6,153.4z M154.7,145.3l4.1,5.9
	c0.6-0.9,0.9-2,0.9-3.1L154.7,145.3z"/>
</svg>
