<?xml version="1.0" encoding="utf-8"?>
<!-- Generator: Adobe Illustrator 25.2.1, SVG Export Plug-In . SVG Version: 6.00 Build 0)  -->
<svg version="1.1" id="Layer_1" xmlns="http://www.w3.org/2000/svg" xmlns:xlink="http://www.w3.org/1999/xlink" x="0px" y="0px"
	 viewBox="0 0 3710 3710" style="enable-background:new 0 0 3710 3710;" xml:space="preserve">
<style type="text/css">
	.st0{fill:url(#SVGID_1_);}
	.st1{opacity:0.3;}
	.st2{fill:#91B3FA;}
	.st3{fill:#BDD0FB;}
	.st4{fill:url(#SVGID_2_);}
	.st5{fill:url(#SVGID_3_);}
	.st6{fill:url(#SVGID_4_);}
	.st7{fill:url(#SVGID_5_);}
	.st8{fill:url(#SVGID_6_);}
	.st9{fill:url(#SVGID_7_);}
	.st10{fill:url(#SVGID_8_);}
	.st11{fill:url(#SVGID_9_);}
	.st12{fill:url(#SVGID_10_);}
	.st13{fill:url(#SVGID_11_);}
	.st14{fill:url(#SVGID_12_);}
	.st15{fill:url(#SVGID_13_);}
	.st16{opacity:0.6;fill:#FFFFFF;}
	.st17{fill:url(#SVGID_14_);}
	.st18{fill:url(#SVGID_15_);}
	.st19{fill:url(#SVGID_16_);}
	.st20{fill:#FFFFFF;}
	.st21{fill:url(#SVGID_17_);}
	.st22{fill:url(#SVGID_18_);}
	.st23{fill:url(#SVGID_19_);}
	.st24{fill:url(#SVGID_20_);}
	.st25{fill:url(#SVGID_21_);}
	.st26{fill:url(#SVGID_22_);}
	.st27{fill:url(#SVGID_23_);}
	.st28{fill:url(#SVGID_24_);}
	.st29{fill:url(#SVGID_25_);}
	.st30{fill:url(#SVGID_26_);}
	.st31{fill:url(#SVGID_27_);}
	.st32{fill:url(#SVGID_28_);}
	.st33{fill:url(#SVGID_29_);}
	.st34{fill:url(#SVGID_30_);}
	.st35{fill:url(#SVGID_31_);}
	.st36{fill:url(#SVGID_32_);}
	.st37{fill:url(#SVGID_33_);}
	.st38{fill:url(#SVGID_34_);}
	.st39{fill:url(#SVGID_35_);}
	.st40{fill:url(#SVGID_36_);}
	.st41{fill:url(#SVGID_37_);}
	.st42{fill:url(#SVGID_38_);}
	.st43{fill:url(#SVGID_39_);}
	.st44{fill:url(#SVGID_40_);}
	.st45{fill:url(#SVGID_41_);}
	.st46{fill:url(#SVGID_42_);}
	.st47{fill:url(#SVGID_43_);}
	.st48{fill:url(#SVGID_44_);}
	.st49{fill:url(#SVGID_45_);}
	.st50{fill:url(#SVGID_46_);}
	.st51{fill:url(#SVGID_47_);}
	.st52{fill:url(#SVGID_48_);}
	.st53{fill:url(#SVGID_49_);}
	.st54{opacity:0.79;fill:#FFFFFF;}
	.st55{fill:url(#SVGID_50_);}
	.st56{fill:url(#SVGID_51_);}
	.st57{fill:url(#SVGID_52_);}
	.st58{fill:url(#SVGID_53_);}
	.st59{fill:url(#SVGID_54_);}
	.st60{fill:url(#SVGID_55_);}
	.st61{fill:url(#SVGID_56_);}
	.st62{fill:url(#SVGID_57_);}
	.st63{fill:url(#SVGID_58_);}
	.st64{fill:url(#SVGID_59_);}
	.st65{fill:url(#SVGID_60_);}
	.st66{fill:url(#SVGID_61_);}
	.st67{fill:url(#SVGID_62_);}
	.st68{fill:url(#SVGID_63_);}
	.st69{fill:url(#SVGID_64_);}
	.st70{fill:url(#SVGID_65_);}
	.st71{fill:url(#SVGID_66_);}
	.st72{fill:url(#SVGID_67_);}
</style>
<g id="Background">
</g>
<g>
	<linearGradient id="SVGID_1_" gradientUnits="userSpaceOnUse" x1="3480.4272" y1="3346.9182" x2="1410.7322" y2="1535.9364">
		<stop  offset="0" style="stop-color:#DAE3FE"/>
		<stop  offset="1" style="stop-color:#E9EFFD"/>
	</linearGradient>
	<path class="st0" d="M3128.7,2406.4c-267.5,629.8-980,982.7-1597.9,887.5c-100.5-15.5-376.2-61.6-620.2-279.3
		c-469.8-419-570.3-1248.6-191.3-1833.3c275.8-425.5,770.3-666.7,1240.1-654.7c101.2,2.6,489,18.6,829.9,299.7
		c50.1,41.3,160.5,139.4,260,295C3282.9,1486.8,3303,1995.9,3128.7,2406.4z"/>
	<g>
		<g>
			<g class="st1">
				<path class="st2" d="M864.5,983.8c-0.2,4.4-4,7.9-8.5,7.6c-8.6-0.4-17.4-0.5-26.1-0.2c-4.4,0.1-8.1-3.3-8.3-7.6
					c0-0.1,0-0.1,0-0.2c-0.1-4.5,3.3-8.2,7.8-8.3c9.1-0.3,18.4-0.2,27.5,0.2c4.2,0.2,7.4,3.5,7.6,7.6
					C864.5,983.3,864.5,983.6,864.5,983.8z M787.7,995.6c-8.6,1.5-17.2,3.3-25.5,5.5c-4.3,1.1-8.7-1.5-9.8-5.8
					c-1.1-4.3,1.5-8.7,5.8-9.8c8.8-2.3,17.8-4.3,26.9-5.8c4.4-0.8,8.6,2.2,9.3,6.6c0.1,0.3,0.1,0.6,0.1,1
					C794.6,991.2,791.8,994.9,787.7,995.6z M722,1014.6c-8,3.3-16,7.1-23.6,11.1c-3.9,2.1-8.8,0.5-10.9-3.4
					c-2.1-3.9-0.5-8.8,3.4-10.9c8.1-4.2,16.5-8.1,24.9-11.7c4.1-1.7,8.8,0.2,10.5,4.3c0.4,0.9,0.6,1.8,0.6,2.7
					C727.1,1010.1,725.2,1013.3,722,1014.6z M662.2,1047.9c-7.1,5-14,10.5-20.6,16.1c-3.4,2.9-8.5,2.5-11.4-0.9
					c-2.9-3.4-2.5-8.5,0.9-11.4c6.9-5.9,14.2-11.6,21.7-16.9c3.6-2.6,8.7-1.7,11.2,1.9c0.9,1.3,1.4,2.8,1.5,4.3
					C665.7,1043.5,664.5,1046.2,662.2,1047.9z M611.3,1093.6c-5.8,6.5-11.3,13.3-16.5,20.2c-2.7,3.6-7.7,4.3-11.3,1.6
					c-3.6-2.7-4.3-7.7-1.6-11.3c5.5-7.3,11.3-14.5,17.4-21.3c3-3.3,8.1-3.6,11.4-0.7c1.7,1.5,2.6,3.5,2.7,5.6
					C613.4,1089.9,612.7,1092,611.3,1093.6z M571.8,1149.5c-4.2,7.6-8.1,15.5-11.6,23.4c-1.8,4.1-6.6,5.9-10.6,4.1
					c-4.1-1.8-5.9-6.6-4.1-10.6c3.7-8.3,7.8-16.6,12.2-24.6c2.2-3.9,7.1-5.3,11-3.2c2.5,1.4,4,4,4.2,6.6
					C572.8,1146.7,572.5,1148.2,571.8,1149.5z M564.8,1448.8c-4,2.1-8.8,0.5-10.9-3.4c-4.2-8.1-8.1-16.5-11.6-24.9
					c-1.7-4.1,0.2-8.8,4.4-10.5c4.1-1.7,8.8,0.2,10.5,4.4c3.3,8,7,16,11,23.7c0.5,1.1,0.8,2.2,0.9,3.3
					C569.3,1444.3,567.7,1447.3,564.8,1448.8z M545.6,1212.7c-2.4,8.3-4.4,16.9-6.1,25.4c-0.9,4.4-5.1,7.2-9.5,6.4
					c-4.4-0.9-7.2-5.1-6.4-9.5c1.8-9,3.9-17.9,6.4-26.7c1.2-4.3,5.7-6.8,10-5.5c3.4,1,5.7,4,5.8,7.3
					C546,1211,545.9,1211.8,545.6,1212.7z M537.9,1383.9c-4.3,1.1-8.7-1.5-9.8-5.8c-2.3-8.8-4.2-17.9-5.8-26.9
					c-0.8-4.4,2.2-8.6,6.6-9.3c4.4-0.7,8.6,2.2,9.3,6.6c1.5,8.6,3.3,17.2,5.5,25.5c0.1,0.5,0.2,1.1,0.2,1.6
					C544.2,1379.4,541.7,1382.9,537.9,1383.9z M534.3,1280.2c-0.5,8.6-0.6,17.4-0.3,26.1c0.1,4.5-3.4,8.2-7.8,8.3
					c-4.4,0.1-8.1-3.3-8.3-7.6c0-0.1,0-0.1,0-0.2c-0.3-9.1-0.2-18.4,0.3-27.5c0.2-4.4,4-7.9,8.5-7.6c4.2,0.2,7.4,3.6,7.6,7.6
					C534.3,1279.6,534.3,1279.9,534.3,1280.2z"/>
				<path class="st2" d="M599.7,1488.9c-0.1-1.6-0.6-3.2-1.7-4.5c-2.6-3.3-5.1-6.7-7.5-10.1c-2.6-3.6-7.6-4.5-11.2-1.9
					c-3.6,2.6-4.5,7.6-1.9,11.2c2.6,3.6,5.2,7.1,7.9,10.6c2.7,3.5,7.8,4.2,11.3,1.4C598.7,1494,599.8,1491.5,599.7,1488.9z"/>
			</g>
			<g class="st1">
				<path class="st2" d="M814.3,1608.8c-0.2-3.9-3.2-7.2-7.2-7.6c-4.1-0.4-8.3-1-12.5-1.6c-4.4-0.7-8.5,2.4-9.2,6.8
					c-0.7,4.4,2.4,8.5,6.8,9.2c4.4,0.6,8.8,1.2,13.1,1.7c4.4,0.5,8.4-2.7,8.9-7.2C814.3,1609.6,814.3,1609.2,814.3,1608.8z"/>
				<path class="st2" d="M1161.8,1296.3c0,4.5-3.6,8.1-8,8.1c-4.5,0-8.1-3.6-8.1-8c0-8.5-0.4-17.1-1.2-25.7
					c-0.4-4.4,2.9-8.3,7.3-8.7c4.4-0.4,8.3,2.9,8.7,7.3c0.3,3.7,0.6,7.4,0.8,11.1C1161.7,1285.7,1161.8,1291,1161.8,1296.3z
					 M1147.8,1235.5c-4.3,1-8.7-1.7-9.6-6.1c-1.9-8.3-4.1-16.7-6.7-24.8c-1.4-4.2,1-8.8,5.3-10.1c4.2-1.3,8.8,1,10.1,5.3
					c2.7,8.6,5.1,17.3,7.1,26.1c0.1,0.5,0.2,0.9,0.2,1.4C1154.3,1231,1151.7,1234.6,1147.8,1235.5z M1159,1340.1
					c-1.2,8.9-2.8,17.9-4.7,26.6c-1,4.3-5.3,7.1-9.6,6.1c-4.3-1-7.1-5.3-6.1-9.6c1.9-8.3,3.4-16.8,4.5-25.3c0.6-4.4,4.7-7.5,9.1-6.9
					c3.9,0.5,6.8,3.8,7,7.6C1159.1,1339.1,1159.1,1339.6,1159,1340.1z M1126.9,1169.5c-4,1.9-8.8,0.2-10.7-3.8
					c-3.7-7.7-7.7-15.4-12-22.7c-2.2-3.8-0.9-8.8,2.9-11c3.8-2.2,8.8-0.9,11,2.9c4.5,7.8,8.8,15.8,12.6,23.9c0.5,1,0.7,2,0.8,3
					C1131.7,1165,1130,1168.1,1126.9,1169.5z M1141.8,1408.8c-3.1,8.4-6.6,16.8-10.5,24.9c-1.9,4-6.7,5.8-10.7,3.9
					c-4-1.9-5.8-6.7-3.9-10.7c3.6-7.7,7-15.7,9.9-23.7c1.5-4.2,6.2-6.3,10.4-4.8c3.1,1.2,5.1,4,5.2,7.1
					C1142.4,1406.7,1142.2,1407.8,1141.8,1408.8z M1110,1472.2c-4.9,7.5-10.2,15-15.7,22.1c-2.7,3.5-7.8,4.2-11.3,1.4
					c-3.5-2.7-4.2-7.8-1.4-11.3c5.2-6.7,10.2-13.8,14.9-21c2.4-3.7,7.4-4.8,11.2-2.4c2.2,1.5,3.5,3.9,3.7,6.3
					C1111.4,1469,1111,1470.7,1110,1472.2z M1065.2,1527c-6.4,6.3-13.2,12.4-20.1,18.1c-3.4,2.8-8.5,2.4-11.4-1.1
					c-2.8-3.4-2.4-8.5,1.1-11.4c6.6-5.4,13-11.2,19.1-17.2c3.2-3.1,8.3-3.1,11.4,0.1c1.4,1.5,2.2,3.3,2.3,5.2
					C1067.7,1523.1,1066.9,1525.3,1065.2,1527z M1009.4,1570.8c-7.6,4.7-15.6,9.2-23.6,13.3c-4,2-8.8,0.4-10.8-3.5
					c-2-4-0.4-8.8,3.5-10.8c7.6-3.9,15.1-8.1,22.4-12.6c3.8-2.3,8.8-1.2,11.1,2.6c0.7,1.2,1.1,2.5,1.2,3.8
					C1013.4,1566.4,1012,1569.2,1009.4,1570.8z M945.3,1601.3c-8.5,2.9-17.2,5.5-25.9,7.8c-4.3,1.1-8.7-1.5-9.8-5.8
					c-1.1-4.3,1.5-8.7,5.8-9.8c8.3-2.1,16.6-4.6,24.6-7.4c4.2-1.5,8.8,0.8,10.3,5c0.3,0.7,0.4,1.5,0.4,2.2
					C951,1596.8,948.8,1600.1,945.3,1601.3z M876.2,1616.9c-6.6,0.7-13.2,1.3-19.8,1.7c-2.4,0.1-4.8,0.2-7.1,0.3
					c-4.4,0.1-8.3-3.3-8.3-7.8c-0.1-4.5,3.4-8.2,7.8-8.3c2.3-0.1,4.5-0.2,6.8-0.3c6.3-0.3,12.6-0.9,18.8-1.6
					c4.4-0.5,8.4,2.7,8.9,7.1c0,0.2,0,0.3,0,0.5C883.6,1612.7,880.5,1616.5,876.2,1616.9z"/>
				<path class="st2" d="M1095,1102.9c-0.1-1.6-0.6-3.2-1.7-4.5c-2.7-3.4-5.5-6.9-8.4-10.2c-2.9-3.4-8-3.8-11.4-0.9
					c-3.4,2.9-3.8,8-0.9,11.4c2.7,3.2,5.4,6.5,8,9.7c2.7,3.5,7.8,4.1,11.3,1.4C1094.1,1108,1095.1,1105.4,1095,1102.9z"/>
			</g>
			<g>
				<path class="st2" d="M957.8,1086.2c-1.3-0.9-3.1-1-4.4-0.1l-37.7,26.2c-19.7-8.4-40.9-13.7-62.9-15.4l-21.4-40.5
					c-0.8-1.4-2.3-2.2-3.9-2l-54.4,8.4c-1.6,0.2-2.8,1.5-3.1,3.1l-8.1,45.1c-20.4,8.2-39,19.7-55.3,33.6l-43.8-13.5
					c-1.5-0.5-3.2,0.1-4.2,1.4l-32.5,44.4c-0.9,1.3-1,3.1-0.1,4.4l26.2,37.7c-8.4,19.7-13.7,40.9-15.4,62.9l-40.5,21.4
					c-1.4,0.8-2.2,2.3-2,3.9l8.4,54.4c0.2,1.6,1.5,2.8,3.1,3.1l45.1,8.1c8.2,20.4,19.7,39,33.6,55.3l-13.5,43.8
					c-0.5,1.5,0.1,3.2,1.4,4.2l44.4,32.5c1.3,0.9,3.1,1,4.4,0.1l37.7-26.2c19.7,8.4,40.9,13.7,62.9,15.4l21.4,40.5
					c0.7,1.4,2.3,2.2,3.9,2l54.4-8.4c1.6-0.2,2.8-1.5,3.1-3.1l8.1-45.1c20.4-8.2,39-19.7,55.3-33.6l43.8,13.5
					c1.5,0.5,3.2-0.1,4.2-1.4l32.5-44.4c0.9-1.3,1-3.1,0.1-4.4l-26.2-37.7c8.4-19.7,13.7-40.9,15.4-62.9l40.5-21.4
					c1.4-0.8,2.2-2.3,2-3.9l-8.4-54.4c-0.2-1.6-1.5-2.8-3.1-3.1l-45.1-8.1c-8.3-20.4-19.7-39-33.6-55.3l13.5-43.8
					c0.5-1.5-0.1-3.2-1.4-4.2L957.8,1086.2z"/>
				<g>
					<path class="st3" d="M892.4,1302.5c-2.9,30.4-29.9,52.7-60.2,49.9c-14.7-1.4-28-8.4-37.4-19.8c-9.4-11.4-13.8-25.7-12.5-40.4
						c2.9-30.4,29.9-52.7,60.2-49.9c27.6,2.6,48.6,25.2,50,52.1C892.7,1297.1,892.6,1299.8,892.4,1302.5z M804.7,1324.4
						c7.2,8.7,17.4,14.1,28.7,15.2c23.3,2.2,44-15,46.2-38.2c2.2-23.3-15-44-38.2-46.2c-23.3-2.2-44,15-46.2,38.2
						c-0.2,2.1-0.2,4.2-0.1,6.3C795.5,1308.7,798.8,1317.3,804.7,1324.4z"/>
				</g>
				<path class="st3" d="M972.4,1291.3c-0.2-4.6-0.7-9.3-1.4-13.9l0,0c-0.2-1.5-0.5-2.9-0.7-4.4c-1.3-7.2-3.3-14.2-5.7-21
					c0-0.1-0.1-0.2-0.1-0.3c-0.1-0.3-0.2-0.5-0.3-0.8c-0.2-0.5-0.4-1-0.6-1.5c-0.5-1.3-1.8-2.1-3.2-2.1c-0.3,0-0.7,0.1-1,0.2
					c-1.7,0.6-2.5,2.5-1.9,4.2c3.3,8.6,5.7,17.5,7.1,26.7c7,45.4-10.5,88.9-42.7,117.2c-17.9,15.7-40.3,26.7-65.5,30.6
					c-4.4,0.7-8.8,1.1-13.3,1.4c-29.7,1.6-58.7-7.1-83-24.9c-27.9-20.4-46.2-50.5-51.5-84.7c-10.9-70.6,37.6-136.9,108.2-147.8
					c4.4-0.7,8.7-1.1,13.1-1.4c18.9-1,37.9,2.2,55.4,9.3c0.5,0.2,0.9,0.3,1.4,0.2c1.2-0.1,2.3-0.8,2.8-2c0.7-1.7-0.1-3.5-1.8-4.2
					c-18.5-7.5-38.3-10.8-58.2-9.8c-4.6,0.2-9.2,0.7-13.7,1.4c-74.1,11.5-125,81.1-113.6,155.2c5.6,35.9,24.8,67.5,54.1,88.9
					c25.5,18.7,56,27.7,87.2,26.1c4.6-0.2,9.3-0.7,13.9-1.4c35.9-5.6,67.5-24.8,88.9-54.1C965,1353,974,1322.5,972.4,1291.3z"/>
			</g>
		</g>
		<g>
			<g class="st1">
				<path class="st2" d="M933.4,557.6c-0.1-2.2-1.6-4.1-3.8-4.6c-4.1-1-8.3-1.8-12.5-2.6c-2.7-0.5-5.3,1.3-5.8,4
					c-0.5,2.7,1.3,5.3,4,5.8c4,0.7,8,1.5,11.9,2.4c2.7,0.6,5.4-1,6-3.7C933.4,558.5,933.5,558.1,933.4,557.6z"/>
				<path class="st2" d="M895.5,552.7c-0.1,2.7-2.5,4.9-5.2,4.7c-6.9-0.3-14-0.3-20.9,0c-1.5,0.1-2.9,0.2-4.4,0.3
					c-2.7,0.2-5.1-1.9-5.3-4.6c-0.1-2.6,1.9-5.1,4.6-5.3c1.5-0.1,3.1-0.2,4.6-0.3c7.3-0.4,14.6-0.4,21.9,0c2.6,0.1,4.6,2.2,4.7,4.7
					C895.5,552.4,895.5,552.6,895.5,552.7z M839.9,561.2c-8.3,1.6-16.5,3.8-24.5,6.4c-2.6,0.9-5.4-0.6-6.3-3.2
					c-0.9-2.6,0.6-5.4,3.2-6.3c8.4-2.8,17-5,25.6-6.7c2.7-0.5,5.3,1.2,5.9,3.9c0,0.2,0.1,0.5,0.1,0.7
					C844.1,558.5,842.4,560.7,839.9,561.2z M792,577c-7.6,3.6-15,7.7-22.1,12.2c-2.3,1.5-5.4,0.8-6.9-1.5c-1.5-2.3-0.8-5.4,1.5-6.9
					c7.4-4.7,15.3-9.1,23.2-12.8c2.5-1.2,5.5-0.1,6.6,2.4c0.3,0.6,0.4,1.2,0.5,1.9C795,574.2,793.9,576.1,792,577z M749.4,604.1
					c-6.5,5.4-12.7,11.2-18.5,17.3c-1.9,2-5,2.1-7,0.2c-2-1.9-2.1-5-0.2-7c6-6.4,12.6-12.5,19.4-18.1c2.1-1.8,5.3-1.5,7,0.7
					c0.7,0.9,1.1,1.9,1.1,2.9C751.3,601.5,750.7,603.1,749.4,604.1z M714.8,640.8c-5,6.8-9.6,13.9-13.7,21.2
					c-1.3,2.4-4.4,3.2-6.8,1.9c-2.4-1.3-3.3-4.4-1.9-6.8c4.3-7.7,9.1-15.2,14.4-22.3c1.6-2.2,4.7-2.7,7-1.1c1.3,0.9,1.9,2.3,2,3.8
					C715.8,638.7,715.5,639.8,714.8,640.8z M690.1,684.8c-3.2,7.8-5.9,15.8-8.1,23.9c-0.7,2.7-3.5,4.2-6.1,3.5
					c-2.7-0.7-4.2-3.4-3.5-6.1c2.3-8.5,5.2-16.9,8.5-25.1c1-2.5,4-3.8,6.5-2.7c1.8,0.8,3,2.5,3.1,4.3
					C690.5,683.4,690.3,684.1,690.1,684.8z M676.9,733.5c-1.2,8.3-1.8,16.8-2,25.2c0,2.7-2.3,4.9-5.1,4.9c-2.7,0-4.9-2.3-4.9-5.1
					c0.2-8.8,0.9-17.7,2.1-26.4c0.4-2.7,2.9-4.6,5.6-4.2c2.4,0.3,4.1,2.3,4.3,4.7C676.9,732.8,676.9,733.2,676.9,733.5z
					 M676.5,814.9c-2.7,0.6-5.4-1-6-3.7c-1.7-7.4-3.1-15.1-4-22.7c-0.1-1.2-0.3-2.3-0.4-3.5c-0.4-2.7,1.7-5.2,4.4-5.5
					c2.7-0.3,5.2,1.7,5.5,4.4c0.1,1.1,0.2,2.2,0.4,3.3c0.9,7.3,2.2,14.6,3.8,21.7c0.1,0.3,0.1,0.6,0.1,0.9
					C680.5,812.1,678.9,814.3,676.5,814.9z"/>
			</g>
			<g class="st1">
				<path class="st2" d="M1094.9,754c0.3,8.7,0.2,17.4-0.5,26.1c-0.2,2.7-2.6,4.8-5.4,4.6c-2.7-0.2-4.8-2.6-4.6-5.4
					c0.7-8.2,0.8-16.6,0.5-24.9c-0.1-2.7,2-5.1,4.8-5.2C1092.5,749.1,1094.8,751.2,1094.9,754C1094.9,754,1094.9,754,1094.9,754z
					 M1088.2,733.8c-2.7,0.4-5.3-1.4-5.7-4.1c-1.3-8.2-3.1-16.3-5.4-24.3c-0.7-2.6,0.8-5.4,3.4-6.2c2.6-0.8,5.4,0.8,6.2,3.4
					c2.4,8.3,4.3,16.9,5.7,25.4c0,0.2,0,0.4,0.1,0.5C1092.5,731.1,1090.7,733.4,1088.2,733.8z M1090.6,805.9
					c-1.8,8.5-4.1,17-6.8,25.2c-0.9,2.6-3.7,4-6.3,3.1c-2.6-0.9-4-3.7-3.1-6.3c2.6-7.8,4.8-15.9,6.5-24c0.6-2.7,3.2-4.4,5.9-3.9
					c2.3,0.5,3.8,2.4,4,4.6C1090.8,805.1,1090.7,805.5,1090.6,805.9z M1075.3,684.6c-2.5,1.1-5.5-0.1-6.5-2.6
					c-3.2-7.6-7-15.1-11.1-22.3c-1.4-2.4-0.6-5.4,1.8-6.8c2.4-1.4,5.4-0.6,6.8,1.8c4.3,7.5,8.3,15.4,11.7,23.3
					c0.2,0.6,0.4,1.1,0.4,1.7C1078.4,681.8,1077.2,683.7,1075.3,684.6z M1074,855.2c-3.7,7.8-8,15.5-12.7,22.8
					c-1.5,2.3-4.6,3-6.9,1.5c-2.3-1.5-3-4.6-1.5-6.9c4.5-7,8.5-14.3,12.1-21.7c1.2-2.5,4.2-3.5,6.6-2.3c1.7,0.8,2.7,2.5,2.8,4.2
					C1074.5,853.6,1074.4,854.4,1074,855.2z M1046,899.1c-5.5,6.7-11.5,13.1-17.8,19.1c-2,1.9-5.1,1.8-7-0.2c-1.9-2-1.8-5.1,0.2-7
					c6-5.7,11.7-11.8,16.9-18.2c1.7-2.1,4.9-2.4,7-0.7c1.1,0.9,1.7,2.2,1.8,3.6C1047.2,896.9,1046.8,898.1,1046,899.1z M1008.3,935
					c-7,5.2-14.3,10-21.8,14.3c-2.4,1.4-5.4,0.5-6.8-1.9c-1.4-2.4-0.5-5.4,1.9-6.8c7.2-4.1,14.2-8.7,20.8-13.6c2.2-1.6,5.3-1.2,7,1
					c0.6,0.8,0.9,1.8,1,2.7C1010.4,932.3,1009.7,934,1008.3,935z"/>
				<path class="st2" d="M1052.7,635.5c-0.1-1-0.4-1.9-1-2.7c-2.6-3.4-5.3-6.7-8-9.9c-1.8-2.1-4.9-2.3-7-0.6c-2.1,1.8-2.3,4.9-0.6,7
					c2.6,3,5.2,6.2,7.6,9.5c1.7,2.2,4.8,2.6,7,1C1052.1,638.7,1052.8,637.1,1052.7,635.5z"/>
			</g>
			<g>
				<path class="st2" d="M958.9,621.3c-0.9-0.6-2-0.6-2.9,0l-25.2,17.5c-13.2-5.6-27.4-9.1-42.1-10.3l-14.3-27.1
					c-0.5-1-1.6-1.5-2.6-1.3l-36.4,5.6c-1.1,0.2-1.9,1-2.1,2l-5.4,30.2c-13.7,5.5-26.1,13.2-37,22.5l-29.3-9.1
					c-1-0.3-2.1,0.1-2.8,0.9L737,682c-0.6,0.9-0.7,2,0,2.9l17.5,25.2c-5.6,13.2-9.1,27.4-10.3,42.1l-27.1,14.3
					c-1,0.5-1.5,1.6-1.3,2.6l5.6,36.4c0.2,1.1,1,1.9,2,2.1l30.2,5.4c5.5,13.7,13.2,26.1,22.5,37l-9.1,29.3c-0.3,1,0.1,2.1,0.9,2.8
					l29.7,21.7c0.9,0.6,2,0.6,2.9,0l25.2-17.5c13.2,5.6,27.4,9.1,42.1,10.3l14.3,27.1c0.5,1,1.6,1.5,2.6,1.3l36.4-5.6
					c1.1-0.2,1.9-1,2.1-2l5.4-30.2c13.7-5.5,26.1-13.2,37-22.5l29.3,9.1c1,0.3,2.1-0.1,2.8-0.9l21.7-29.7c0.6-0.9,0.6-2,0-2.9
					l-17.5-25.2c5.6-13.2,9.1-27.4,10.3-42.1l27.1-14.3c1-0.5,1.5-1.6,1.3-2.6l-5.6-36.4c-0.2-1.1-1-1.9-2-2.1l-30.2-5.4
					c-5.5-13.7-13.2-26.1-22.5-37l9.1-29.3c0.3-1-0.1-2.1-0.9-2.8L958.9,621.3z"/>
				<g>
					<path class="st3" d="M915.8,766.1c-0.9,10-5.7,19.1-13.5,25.5c-7.7,6.4-17.5,9.4-27.5,8.5c-20.7-1.9-35.9-20.3-34-41
						c1.9-20.7,20.4-35.9,41-34c10,0.9,19.1,5.7,25.5,13.5c5.2,6.3,8.2,13.9,8.6,22C916,762.4,916,764.2,915.8,766.1z M875.7,790.2
						c7.4,0.7,14.6-1.5,20.3-6.2c5.7-4.7,9.2-11.4,9.9-18.7l0,0c0.7-7.4-1.5-14.6-6.2-20.3c-4.7-5.7-11.4-9.2-18.7-9.9
						c-15.2-1.4-28.7,9.8-30.2,25c-0.1,1.4-0.2,2.7-0.1,4.1C851.4,777.5,861.9,788.9,875.7,790.2z"/>
				</g>
				<path class="st3" d="M971.5,758.3c-0.2-3.1-0.5-6.3-1-9.5c-1-6.3-2.6-12.5-4.8-18.5c-0.1-0.3-0.2-0.5-0.3-0.8
					c-0.8-2.1-2.8-3.3-4.9-3.2c-0.5,0-1,0.1-1.5,0.3c-2.6,1-3.8,3.9-2.9,6.4c2.1,5.6,3.7,11.4,4.6,17.3l0,0c0.1,0.3,0.1,0.6,0.1,1
					c2,14,0.5,27.9-4.3,40.8c-2.6,7-6.1,13.7-10.6,19.9c0,0.1-0.1,0.1-0.1,0.2c-0.1,0.2-0.2,0.3-0.3,0.5
					c-13.2,18.1-32.7,29.9-54.8,33.3c-2.9,0.4-5.7,0.7-8.6,0.9c-19.2,1-38-4.6-53.8-16.1c-18.1-13.2-29.9-32.7-33.3-54.8
					c-3.4-22.1,2-44.3,15.2-62.3c13.2-18.1,32.7-29.9,54.8-33.3c2.8-0.4,5.6-0.7,8.5-0.9c12.3-0.6,24.5,1.4,35.9,6
					c0.7,0.3,1.4,0.4,2.1,0.4c1.9-0.1,3.6-1.2,4.4-3.1c1-2.5-0.2-5.5-2.7-6.5c-12.7-5.2-26.4-7.5-40.2-6.8c-3.2,0.2-6.3,0.5-9.5,1
					c-24.8,3.8-46.6,17.1-61.4,37.3c-14.8,20.2-20.9,45-17,69.7c3.8,24.8,17.1,46.5,37.3,61.3c17.6,12.9,38.7,19.1,60.1,18
					c3.2-0.2,6.4-0.5,9.6-1C940.1,848.4,974,805.7,971.5,758.3z"/>
			</g>
		</g>
	</g>
	<g>
		<path class="st2" d="M3055.1,737.8c4.3-13.2-11.1-24-22.2-15.7c-112.6,84-389.5,342.2-385.4,849c5.1,635.8-151.5,849.8-330,970.9
			c0,0,230.8-40.3,397.7-256.5C3125,1754.6,2979.3,971.7,3055.1,737.8z"/>
		<path class="st3" d="M2955.4,924.9c-20.7,68.4-40,137.1-56.7,206.5c-17.1,69.2-32.1,139-45,209.1c-12.5,70.1-23.8,140.5-32,211.3
			c-8.5,70.7-14,141.7-19.3,213c-5.7,71.2-11,143-23.6,214.5c-12.6,71.3-33.9,142.3-67.5,207.3c-8.4,16.2-17.1,32.3-26.7,47.7
			c-9.3,15.6-19.3,30.8-29.6,45.8c-20.7,29.9-43.4,58.6-68.1,85.4c-49.6,53.5-107.3,99.4-169.4,136.7c-6.5,3.9-15,1.8-18.9-4.7
			c-3.9-6.4-1.9-14.7,4.4-18.7l0,0c14.8-9.5,29.6-19.2,43.8-29.5c7.2-5,14.2-10.4,21.2-15.6c6.9-5.5,13.9-10.7,20.6-16.3
			c27.1-22.2,52.6-46.3,76.2-72.2c47.4-51.5,87.3-110.3,119.5-172.3c15.8-31.2,29.2-63.5,40.1-96.7c10.9-33.2,19.2-67.4,25.6-102
			c12.8-69.3,18.7-140.3,24.8-211.5c6.3-71.2,13.1-142.7,22.8-213.8c4.8-35.6,10.2-71,16.2-106.4c2.9-17.7,6.2-35.3,9.4-53
			c3.4-17.6,6.9-35.2,10.5-52.7c14.7-70.2,31.5-139.9,50.4-209c19.3-69,40.4-137.4,64.2-205c0.7-1.9,2.8-2.9,4.7-2.3
			C2955,921,2956,923,2955.4,924.9z"/>
	</g>
	<g>
		<g>
			<path class="st3" d="M2576.9,3027.6c4.4,25.1,33,37.5,54.6,23.9c118.8-75.2,435.5-318,492.9-800
				c48.4-407,113.4-623.1,149.6-719.1c7.7-20.3-15-38.6-33.3-26.8C3039.5,1635.6,2416.8,2118.3,2576.9,3027.6z"/>
			<linearGradient id="SVGID_2_" gradientUnits="userSpaceOnUse" x1="2607.7581" y1="2480.8982" x2="3054.2412" y2="2480.8982">
				<stop  offset="0" style="stop-color:#DAE3FE"/>
				<stop  offset="1" style="stop-color:#E9EFFD"/>
			</linearGradient>
			<path class="st4" d="M2610.9,3033.7c0.5,0.4,1,0.8,1.5,1.2c4.6,2.9,10.8,1.6,13.7-3.1c3.3-5.3,335.1-532.1,428-1094.9
				c0.9-5.4-2.8-10.5-8.2-11.4c-5.4-0.9-10.5,2.8-11.4,8.2c-92.2,558.7-421.8,1082.3-425.2,1087.5
				C2606.7,3025.3,2607.5,3030.5,2610.9,3033.7z"/>
		</g>
	</g>
	<g>
		<linearGradient id="SVGID_3_" gradientUnits="userSpaceOnUse" x1="1822.3827" y1="3091.1045" x2="1688.7931" y2="-863.2118">
			<stop  offset="0" style="stop-color:#09005D"/>
			<stop  offset="1" style="stop-color:#1A0F91"/>
		</linearGradient>
		<path class="st5" d="M882.5,1007.8c0-94.3,76.5-170.8,170.8-170.8h1452.5c80.1,0,146.2,62.8,150.3,142.8l107.2,2105.9
			c3.2,62.6-46.1,115.5-108.8,116.6l-1664.8,30.3c-58.9,1.1-107.2-46.4-107.2-105.3V1007.8z"/>
		<path class="st2" d="M1233.1,3196.8C1233.1,3196.8,1233,3196.8,1233.1,3196.8l-186.3-2.4c-62.3-0.8-113-52.1-113-114.4v-281.2
			c0-2.2,1.8-4,4-4c2.2,0,4,1.8,4,4v281.2c0,58,47.2,105.7,105.1,106.5l186.3,2.4c2.2,0,4,1.8,3.9,4
			C1237,3195,1235.2,3196.8,1233.1,3196.8z"/>
		<linearGradient id="SVGID_4_" gradientUnits="userSpaceOnUse" x1="689.7834" y1="2531.2478" x2="2203.8264" y2="3493.1123">
			<stop  offset="0" style="stop-color:#A737D5"/>
			<stop  offset="1" style="stop-color:#EF497A"/>
		</linearGradient>
		<path class="st6" d="M937.8,2715.5c-2.2,0-4-1.8-4-4V2666c0-2.2,1.8-4,4-4c2.2,0,4,1.8,4,4v45.5
			C941.7,2713.8,940,2715.5,937.8,2715.5z"/>
		<g>
			<linearGradient id="SVGID_5_" gradientUnits="userSpaceOnUse" x1="2887.0435" y1="551.6641" x2="255.0433" y2="4065.4797">
				<stop  offset="0" style="stop-color:#4F52FF"/>
				<stop  offset="1" style="stop-color:#4042E2"/>
			</linearGradient>
			<path class="st7" d="M1001.5,869.4c-0.2-30.2,26.4-53.5,56.3-49.5c198.4,26.9,880.4,110.1,1444.4,66.8c25.7-2,48,17.5,49.4,43.3
				L2664,3045.3c1.5,29-20.6,53.8-49.6,55.5c-237.2,14-1214,68.3-1562.4,31.8c-21.2-2.2-37.3-20.1-37.4-41.4L1001.5,869.4z"/>
			<path class="st3" d="M1024.9,922.4c-0.2-29,25.4-51.5,54.2-47.6c190.9,25.9,847.3,105.9,1390,64.3c24.7-1.9,46.2,16.9,47.5,41.6
				l108.2,2035.6c1.5,27.9-19.8,51.8-47.7,53.4c-228.2,13.5-1168.3,65.7-1503.5,30.6c-20.4-2.1-35.9-19.3-36-39.8L1024.9,922.4z"/>
			<linearGradient id="SVGID_6_" gradientUnits="userSpaceOnUse" x1="1201.5559" y1="1297.6709" x2="1756.0924" y2="1297.6709">
				<stop  offset="0" style="stop-color:#DAE3FE"/>
				<stop  offset="1" style="stop-color:#E9EFFD"/>
			</linearGradient>
			<path class="st8" d="M1201.6,1079.4l20.3,436.4c0.7,14.5,12.4,26.1,26.9,26.5c80.8,2.3,332.7,8.4,474.9,1
				c16.1-0.8,28.8-13.9,29.3-30c2.7-81.8,8.6-320.1-10-419.6c-3-16.1-16.8-27.9-33.2-28.4l-477.7-16.7
				C1214.9,1047.9,1200.8,1062.2,1201.6,1079.4z"/>
			<linearGradient id="SVGID_7_" gradientUnits="userSpaceOnUse" x1="1859.349" y1="1097.9015" x2="2413.3792" y2="1097.9015">
				<stop  offset="0" style="stop-color:#DAE3FE"/>
				<stop  offset="1" style="stop-color:#E9EFFD"/>
			</linearGradient>
			<path class="st9" d="M2398.4,1117.4c8.5,0,15.2-6.6,15-14.6s-7.4-14.8-15.8-14.9l-527.1-9.4c-8.5-0.2-13.1,6.3-10.3,14.3
				l3.6,10.1c2.8,8,12.1,14.5,20.5,14.5H2398.4z"/>
			<linearGradient id="SVGID_8_" gradientUnits="userSpaceOnUse" x1="1859.349" y1="1179.2587" x2="2413.3792" y2="1179.2587">
				<stop  offset="0" style="stop-color:#DAE3FE"/>
				<stop  offset="1" style="stop-color:#E9EFFD"/>
			</linearGradient>
			<path class="st10" d="M1870.5,1159.8c-8.5-0.2-13.1,6.3-10.3,14.3l3.6,10.1c2.8,8,12.1,14.5,20.5,14.5h514.1
				c8.5,0,15.2-6.6,15-14.6s-7.4-14.8-15.8-14.9L1870.5,1159.8z"/>
			<linearGradient id="SVGID_9_" gradientUnits="userSpaceOnUse" x1="1859.349" y1="1261.7982" x2="2413.3792" y2="1261.7982">
				<stop  offset="0" style="stop-color:#DAE3FE"/>
				<stop  offset="1" style="stop-color:#E9EFFD"/>
			</linearGradient>
			<path class="st11" d="M1870.5,1242.3c-8.5-0.2-13.1,6.3-10.3,14.3l3.6,10.1c2.8,8,12.1,14.5,20.5,14.5h514.1
				c8.5,0,15.2-6.6,15-14.6c-0.2-8.1-7.4-14.8-15.8-14.9L1870.5,1242.3z"/>
			<linearGradient id="SVGID_10_" gradientUnits="userSpaceOnUse" x1="1859.349" y1="1355.7407" x2="2413.3792" y2="1355.7407">
				<stop  offset="0" style="stop-color:#DAE3FE"/>
				<stop  offset="1" style="stop-color:#E9EFFD"/>
			</linearGradient>
			<path class="st12" d="M1870.5,1336.3c-8.5-0.2-13.1,6.3-10.3,14.3l3.6,10.1c2.8,8,12.1,14.5,20.5,14.5h514.1
				c8.5,0,15.2-6.6,15-14.6c-0.2-8.1-7.4-14.8-15.8-14.9L1870.5,1336.3z"/>
			<linearGradient id="SVGID_11_" gradientUnits="userSpaceOnUse" x1="1859.349" y1="1448.4226" x2="2413.3792" y2="1448.4226">
				<stop  offset="0" style="stop-color:#DAE3FE"/>
				<stop  offset="1" style="stop-color:#E9EFFD"/>
			</linearGradient>
			<path class="st13" d="M1870.5,1429c-8.5-0.2-13.1,6.3-10.3,14.3l3.6,10.1c2.8,8,12.1,14.5,20.5,14.5h514.1
				c8.5,0,15.2-6.6,15-14.6c-0.2-8.1-7.4-14.8-15.8-14.9L1870.5,1429z"/>
			<linearGradient id="SVGID_12_" gradientUnits="userSpaceOnUse" x1="1208.3201" y1="1659.7727" x2="2463.7478" y2="1659.7727">
				<stop  offset="0" style="stop-color:#DAE3FE"/>
				<stop  offset="1" style="stop-color:#E9EFFD"/>
			</linearGradient>
			<path class="st14" d="M2449.3,1679.3c8.5,0,15-6.6,14.5-14.6c-0.5-8.1-7.9-14.7-16.4-14.8l-1230.5-9.7
				c-8.5-0.1-11.1,5.3-5.8,11.9l12,15.1c5.3,6.6,16.5,12.1,25,12.1H2449.3z"/>
			<linearGradient id="SVGID_13_" gradientUnits="userSpaceOnUse" x1="1208.3201" y1="1741.13" x2="2463.7478" y2="1741.13">
				<stop  offset="0" style="stop-color:#DAE3FE"/>
				<stop  offset="1" style="stop-color:#E9EFFD"/>
			</linearGradient>
			<path class="st15" d="M1216.9,1721.6c-8.5-0.1-11.1,5.3-5.8,11.9l12,15.1c5.3,6.6,16.5,12.1,25,12.1h1201.2
				c8.5,0,15-6.6,14.5-14.6c-0.5-8.1-7.9-14.7-16.4-14.8L1216.9,1721.6z"/>
			<path class="st16" d="M1212.9,1857.4c29.5-2.3,84.8-3.3,115.2-3.7c12.9-0.2,24.2,8.6,27.2,21.1c5.9,24.3,14,66.6,12.9,111.4
				c-0.3,13.4-11.3,24.1-24.7,24l-112.2-1.2c-13.8-0.1-25.3-10.7-26.5-24.4l-9.9-105.6C1193.9,1867.9,1202,1858.3,1212.9,1857.4z"/>
			<linearGradient id="SVGID_14_" gradientUnits="userSpaceOnUse" x1="1405.6237" y1="1926.2767" x2="1717.7418" y2="1926.2767">
				<stop  offset="0" style="stop-color:#DAE3FE"/>
				<stop  offset="1" style="stop-color:#E9EFFD"/>
			</linearGradient>
			<path class="st17" d="M1418.9,1900.7c-8.5-0.4-14.4,6.2-13.1,14.6l3.2,21.3c1.3,8.4,9.2,15.2,17.7,15.2h275.8
				c8.5,0,15.3-6.9,15.2-15.4l-0.1-7.8c-0.1-8.5-7.1-15.7-15.6-16.1L1418.9,1900.7z"/>
			<linearGradient id="SVGID_15_" gradientUnits="userSpaceOnUse" x1="1806.3442" y1="1931.906" x2="1979.8875" y2="1931.906">
				<stop  offset="0" style="stop-color:#DAE3FE"/>
				<stop  offset="1" style="stop-color:#E9EFFD"/>
			</linearGradient>
			<path class="st18" d="M1824.4,1857.4c29.5-2.3,84.8-3.3,115.2-3.7c12.9-0.2,24.2,8.6,27.2,21.1c5.9,24.3,14,66.6,12.9,111.4
				c-0.3,13.4-11.3,24.1-24.7,24l-112.3-1.2c-13.8-0.1-25.3-10.7-26.5-24.4l-9.9-105.6C1805.4,1867.9,1813.5,1858.3,1824.4,1857.4z"
				/>
			<linearGradient id="SVGID_16_" gradientUnits="userSpaceOnUse" x1="2017.1472" y1="1926.2767" x2="2329.2659" y2="1926.2767">
				<stop  offset="0" style="stop-color:#DAE3FE"/>
				<stop  offset="1" style="stop-color:#E9EFFD"/>
			</linearGradient>
			<path class="st19" d="M2030.4,1900.7c-8.5-0.4-14.4,6.2-13.1,14.6l3.2,21.3c1.3,8.4,9.2,15.2,17.7,15.2H2314
				c8.5,0,15.3-6.9,15.2-15.4l-0.1-7.8c-0.1-8.5-7.1-15.7-15.6-16.1L2030.4,1900.7z"/>
			<g>
				<path class="st20" d="M1371.3,2276.4c-0.1,0-0.2,0-0.3,0l-103.6-1c-14.8-0.1-27-10.3-28.4-23.7l-9.1-86.9
					c-0.5-5.1,1.1-10.1,4.5-14.2c3.8-4.5,9.6-7.4,15.8-7.8l0,0c8.7-0.6,21-1.6,34-2.7c27.4-2.3,61.5-5.2,80.7-5.5
					c13.9-0.1,25.7,8.2,29,20.3c5.4,19.9,4.9,57.7,3.9,97.9C1397.5,2265.9,1385.6,2276.4,1371.3,2276.4z M1250.8,2150.7
					c-4.1,0.3-7.9,2.1-10.3,5c-2,2.4-2.9,5.3-2.6,8.3l9.1,86.9c1,9.3,9.8,16.5,20.6,16.6l103.6,1c0.1,0,0.1,0,0.2,0
					c10,0,18.3-7.1,18.6-15.8c1-39.6,1.5-76.7-3.6-95.7c-2.3-8.5-11.1-14.4-21.2-14.4c-18.9,0.2-52.8,3.1-80.1,5.4
					C1271.9,2149.1,1259.6,2150.1,1250.8,2150.7L1250.8,2150.7z"/>
				<linearGradient id="SVGID_17_" gradientUnits="userSpaceOnUse" x1="1248.5662" y1="2206.6235" x2="1376.995" y2="2206.6235">
					<stop  offset="0" style="stop-color:#DAE3FE"/>
					<stop  offset="1" style="stop-color:#E9EFFD"/>
				</linearGradient>
				<path class="st21" d="M1261.9,2159.7c21.8-1.5,69.1-6.3,91.5-6.6c9.5-0.1,17.8,5.6,20.1,13.9c4.3,16,3.8,47.9,3,77.4
					c-0.2,8.8-8.3,15.9-18.2,15.8l-82.8-0.8c-10.2-0.1-18.6-7-19.6-16.1l-7.3-69.4C1247.9,2166.6,1253.9,2160.2,1261.9,2159.7z"/>
				<linearGradient id="SVGID_18_" gradientUnits="userSpaceOnUse" x1="1461.4176" y1="2212.1328" x2="2465.0164" y2="2212.1328">
					<stop  offset="0" style="stop-color:#DAE3FE"/>
					<stop  offset="1" style="stop-color:#E9EFFD"/>
				</linearGradient>
				<path class="st22" d="M1462.3,2218.7c3,11.4,13.3,19.3,25.1,19.2l958.4-8.2c10.8-0.1,19.5-9,19.3-19.9c-0.2-10.5-8.8-19-19.4-19
					l-958.4-4.4C1470.4,2186.3,1458,2202.3,1462.3,2218.7z"/>
				<linearGradient id="SVGID_19_" gradientUnits="userSpaceOnUse" x1="1633.9723" y1="1620.3615" x2="1303.7496" y2="2199.1016">
					<stop  offset="0" style="stop-color:#FF928E"/>
					<stop  offset="1" style="stop-color:#FE7062"/>
				</linearGradient>
				<path class="st23" d="M1266.3,2173.3L1266.3,2173.3c7.7-4.5,17.6-1.8,21.9,6l20.4,36.6c2,3.7,7.4,3.4,9.1-0.4l50.7-112.8
					c2.5-5.6,10.9-3.7,10.8,2.4c-0.5,34.5-9.7,100.1-64.8,155c0,0-30.4-11.8-54.9-65.5C1256.1,2186.9,1259,2177.6,1266.3,2173.3z"/>
				<path class="st20" d="M1371.3,2498.4c-0.1,0-0.2,0-0.3,0l-103.6-1c-14.8-0.1-27-10.3-28.4-23.7l-9.1-86.9
					c-0.5-5.1,1.1-10.1,4.5-14.2c3.8-4.5,9.6-7.4,15.8-7.8l0,0c8.7-0.6,21-1.6,34-2.7c27.4-2.3,61.5-5.2,80.7-5.5c0.1,0,0.3,0,0.4,0
					c13.6,0,25.3,8.3,28.6,20.3c5.4,20,4.9,57.7,3.9,97.9C1397.5,2487.9,1385.6,2498.4,1371.3,2498.4z M1250.8,2372.7
					c-4.1,0.3-7.9,2.1-10.3,5c-2,2.4-2.9,5.3-2.6,8.3l9.1,86.9c1,9.3,9.8,16.5,20.6,16.6l103.6,1c0.1,0,0.1,0,0.2,0
					c10,0,18.3-7.1,18.6-15.8c1-39.6,1.5-76.7-3.6-95.7c-2.3-8.5-11.2-14.6-21.2-14.4c-18.9,0.2-52.8,3.1-80.1,5.4
					C1271.9,2371.1,1259.6,2372.1,1250.8,2372.7L1250.8,2372.7z"/>
				<linearGradient id="SVGID_20_" gradientUnits="userSpaceOnUse" x1="1248.5662" y1="2428.6211" x2="1376.995" y2="2428.6211">
					<stop  offset="0" style="stop-color:#DAE3FE"/>
					<stop  offset="1" style="stop-color:#E9EFFD"/>
				</linearGradient>
				<path class="st24" d="M1261.9,2381.7c21.8-1.5,69.1-6.3,91.5-6.6c9.5-0.1,17.8,5.6,20.1,13.9c4.3,16,3.8,47.9,3,77.4
					c-0.2,8.8-8.3,15.9-18.2,15.8l-82.8-0.8c-10.2-0.1-18.6-7-19.6-16.1l-7.3-69.4C1247.9,2388.6,1253.9,2382.2,1261.9,2381.7z"/>
				<linearGradient id="SVGID_21_" gradientUnits="userSpaceOnUse" x1="1461.4176" y1="2434.1304" x2="2465.0164" y2="2434.1304">
					<stop  offset="0" style="stop-color:#DAE3FE"/>
					<stop  offset="1" style="stop-color:#E9EFFD"/>
				</linearGradient>
				<path class="st25" d="M1462.3,2440.7c3,11.4,13.3,19.3,25.1,19.2l958.4-8.2c10.8-0.1,19.5-9,19.3-19.9c-0.2-10.5-8.8-19-19.4-19
					l-958.4-4.4C1470.4,2408.3,1458,2424.3,1462.3,2440.7z"/>
				<linearGradient id="SVGID_22_" gradientUnits="userSpaceOnUse" x1="1729.5309" y1="1674.8856" x2="1399.3083" y2="2253.6255">
					<stop  offset="0" style="stop-color:#FF928E"/>
					<stop  offset="1" style="stop-color:#FE7062"/>
				</linearGradient>
				<path class="st26" d="M1266.3,2395.3L1266.3,2395.3c7.7-4.5,17.6-1.8,21.9,6l20.4,36.6c2,3.7,7.4,3.4,9.1-0.4l50.7-112.8
					c2.5-5.6,10.9-3.7,10.8,2.4c-0.5,34.5-9.7,100.1-64.8,155c0,0-30.4-11.8-54.9-65.5C1256.1,2408.9,1259,2399.6,1266.3,2395.3z"/>
				<path class="st20" d="M1371.3,2720.4c-0.1,0-0.2,0-0.3,0l-103.6-1c-14.8-0.1-27-10.3-28.4-23.7l-9.1-86.9
					c-0.5-5.1,1.1-10.1,4.5-14.2c3.8-4.5,9.6-7.4,15.8-7.8l0,0c8.7-0.6,21-1.6,34-2.7c27.4-2.3,61.5-5.2,80.7-5.5c0.1,0,0.3,0,0.4,0
					c13.6,0,25.3,8.3,28.6,20.3c5.4,20,4.9,57.7,3.9,97.9C1397.5,2709.9,1385.6,2720.4,1371.3,2720.4z M1250.8,2594.7
					c-4.1,0.3-7.9,2.1-10.3,5c-2,2.4-2.9,5.3-2.6,8.3l9.1,86.9c1,9.3,9.8,16.5,20.6,16.6l103.6,1c0.1,0,0.1,0,0.2,0
					c10,0,18.3-7.1,18.6-15.8c1-39.6,1.5-76.7-3.6-95.7c-2.3-8.5-11.2-14.6-21.2-14.4c-18.9,0.2-52.8,3.1-80.1,5.4
					C1271.9,2593.1,1259.6,2594.1,1250.8,2594.7L1250.8,2594.7z"/>
				<linearGradient id="SVGID_23_" gradientUnits="userSpaceOnUse" x1="1248.5662" y1="2650.6189" x2="1376.995" y2="2650.6189">
					<stop  offset="0" style="stop-color:#DAE3FE"/>
					<stop  offset="1" style="stop-color:#E9EFFD"/>
				</linearGradient>
				<path class="st27" d="M1261.9,2603.7c21.8-1.5,69.1-6.3,91.5-6.6c9.5-0.1,17.8,5.6,20.1,13.9c4.3,16,3.8,47.9,3,77.4
					c-0.2,8.8-8.3,15.9-18.2,15.8l-82.8-0.8c-10.2-0.1-18.6-7-19.6-16.1l-7.3-69.4C1247.9,2610.6,1253.9,2604.2,1261.9,2603.7z"/>
				<linearGradient id="SVGID_24_" gradientUnits="userSpaceOnUse" x1="1461.4176" y1="2656.1279" x2="2465.0164" y2="2656.1279">
					<stop  offset="0" style="stop-color:#DAE3FE"/>
					<stop  offset="1" style="stop-color:#E9EFFD"/>
				</linearGradient>
				<path class="st28" d="M1462.3,2662.7c3,11.4,13.3,19.3,25.1,19.2l958.4-8.2c10.8-0.1,19.5-9,19.3-19.9c-0.2-10.5-8.8-19-19.4-19
					l-958.4-4.4C1470.4,2630.3,1458,2646.3,1462.3,2662.7z"/>
				<linearGradient id="SVGID_25_" gradientUnits="userSpaceOnUse" x1="1825.089" y1="1729.4104" x2="1494.866" y2="2308.1511">
					<stop  offset="0" style="stop-color:#FF928E"/>
					<stop  offset="1" style="stop-color:#FE7062"/>
				</linearGradient>
				<path class="st29" d="M1266.3,2617.3L1266.3,2617.3c7.7-4.5,17.6-1.8,21.9,6l20.4,36.6c2,3.7,7.4,3.4,9.1-0.4l50.7-112.8
					c2.5-5.6,10.9-3.7,10.8,2.4c-0.5,34.5-9.7,100.1-64.8,155c0,0-30.4-11.8-54.9-65.5C1256.1,2630.8,1259,2621.6,1266.3,2617.3z"/>
				<path class="st20" d="M1371.3,2942.4c-0.1,0-0.2,0-0.3,0l-103.6-1c-14.8-0.1-27-10.3-28.4-23.7l-9.1-86.9
					c-0.5-5.1,1.1-10.1,4.5-14.2c3.8-4.5,9.6-7.4,15.8-7.8l0,0c8.7-0.6,21-1.6,34-2.7c27.4-2.3,61.5-5.2,80.7-5.5c0.1,0,0.3,0,0.4,0
					c13.6,0,25.3,8.3,28.6,20.3c5.4,19.9,4.9,57.7,3.9,97.9C1397.5,2931.9,1385.6,2942.4,1371.3,2942.4z M1250.8,2816.7
					c-4.1,0.3-7.9,2.1-10.3,5c-2,2.4-2.9,5.3-2.6,8.3l9.1,86.9c1,9.3,9.8,16.5,20.6,16.6l103.6,1c0.1,0,0.1,0,0.2,0
					c10,0,18.3-7.1,18.6-15.8c1-39.6,1.5-76.7-3.6-95.7c-2.3-8.5-11.2-14.6-21.2-14.4c-18.9,0.2-52.8,3.1-80.1,5.4
					C1271.9,2815.1,1259.6,2816.1,1250.8,2816.7L1250.8,2816.7z"/>
				<linearGradient id="SVGID_26_" gradientUnits="userSpaceOnUse" x1="1248.5662" y1="2872.6165" x2="1376.995" y2="2872.6165">
					<stop  offset="0" style="stop-color:#DAE3FE"/>
					<stop  offset="1" style="stop-color:#E9EFFD"/>
				</linearGradient>
				<path class="st30" d="M1261.9,2825.7c21.8-1.5,69.1-6.3,91.5-6.6c9.5-0.1,17.8,5.6,20.1,13.9c4.3,16,3.8,47.9,3,77.4
					c-0.2,8.8-8.3,15.9-18.2,15.8l-82.8-0.8c-10.2-0.1-18.6-7-19.6-16.1l-7.3-69.4C1247.9,2832.6,1253.9,2826.2,1261.9,2825.7z"/>
				<linearGradient id="SVGID_27_" gradientUnits="userSpaceOnUse" x1="1461.4176" y1="2878.1255" x2="2465.0164" y2="2878.1255">
					<stop  offset="0" style="stop-color:#DAE3FE"/>
					<stop  offset="1" style="stop-color:#E9EFFD"/>
				</linearGradient>
				<path class="st31" d="M1462.3,2884.7L1462.3,2884.7c3,11.4,13.3,19.3,25.1,19.2l958.4-8.2c10.8-0.1,19.5-9,19.3-19.9
					c-0.2-10.5-8.8-19-19.4-19l-958.4-4.4C1470.4,2852.3,1458,2868.3,1462.3,2884.7z"/>
				<linearGradient id="SVGID_28_" gradientUnits="userSpaceOnUse" x1="1920.6469" y1="1783.9357" x2="1590.4247" y2="2362.675">
					<stop  offset="0" style="stop-color:#FF928E"/>
					<stop  offset="1" style="stop-color:#FE7062"/>
				</linearGradient>
				<path class="st32" d="M1266.3,2839.3L1266.3,2839.3c7.7-4.5,17.6-1.8,21.9,6l20.4,36.6c2,3.7,7.4,3.4,9.1-0.4l50.7-112.8
					c2.5-5.6,10.9-3.7,10.8,2.4c-0.5,34.5-9.7,100.1-64.8,155c0,0-30.4-11.8-54.9-65.5C1256.1,2852.8,1259,2843.6,1266.3,2839.3z"/>
			</g>
		</g>
		<linearGradient id="SVGID_29_" gradientUnits="userSpaceOnUse" x1="2031.715" y1="333.092" x2="1363.6155" y2="1211.9613">
			<stop  offset="0" style="stop-color:#09005D"/>
			<stop  offset="1" style="stop-color:#1A0F91"/>
		</linearGradient>
		<path class="st33" d="M1869.7,549.9c-52.5-36.5-98.1-35.8-130.2-26.3c-29.3,8.6-48.3,36.9-45.5,67.3l13.8,151.2l164.8,14.6
			C1872.6,756.7,1972.6,621.5,1869.7,549.9z M1797.2,671.9c-22.7,0-41.1-18.4-41.1-41.1s18.4-41.1,41.1-41.1
			c22.7,0,41.1,18.4,41.1,41.1S1819.9,671.9,1797.2,671.9z"/>
		<g>
			<path class="st3" d="M1724.3,678.5c-2,0-3.8-1.5-4-3.6l-2.2-24.1c-0.2-2.2,1.4-4.1,3.6-4.3c2.2-0.2,4.1,1.4,4.3,3.6l2.2,24.1
				c0.2,2.2-1.4,4.1-3.6,4.3C1724.5,678.5,1724.4,678.5,1724.3,678.5z M1720,631.3c-2,0-3.8-1.5-4-3.6l-1.7-18.3
				c-2.7-29,15.6-56,43.4-64.2c19.7-5.8,39.9-6.6,60.2-2.5c2.2,0.4,3.5,2.5,3.1,4.7c-0.4,2.1-2.5,3.5-4.7,3.1
				c-19-3.9-38-3.1-56.4,2.3c-24.1,7.1-40,30.6-37.7,55.8l1.7,18.3c0.2,2.2-1.4,4.1-3.6,4.3C1720.2,631.3,1720.1,631.3,1720,631.3z"
				/>
		</g>
		<linearGradient id="SVGID_30_" gradientUnits="userSpaceOnUse" x1="2105.0005" y1="388.8003" x2="1436.9001" y2="1267.6704">
			<stop  offset="0" style="stop-color:#09005D"/>
			<stop  offset="1" style="stop-color:#1A0F91"/>
		</linearGradient>
		<path class="st34" d="M1482.9,839.8v-76c0-26.2,21.7-47.2,48-46.4l524,18c23.3,0.8,42.1,19.2,43.5,42.4l4.4,73L1482.9,839.8z"/>
		<path class="st3" d="M1678.3,746.1h-22.5c-2.2,0-4-1.8-4-4c0-2.2,1.8-4,4-4h22.5c2.2,0,4,1.8,4,4
			C1682.2,744.3,1680.5,746.1,1678.3,746.1z"/>
		<path class="st3" d="M1511.2,815.9c-2.2,0-4-1.8-4-4v-30.7c0-23.8,19.3-43.1,43.1-43.1h82.8c2.2,0,4,1.8,4,4c0,2.2-1.8,4-4,4
			h-82.8c-19.4,0-35.1,15.8-35.1,35.1V812C1515.2,814.2,1513.4,815.9,1511.2,815.9z"/>
		<linearGradient id="SVGID_31_" gradientUnits="userSpaceOnUse" x1="2020.8082" y1="442.5597" x2="1559.4993" y2="1289.6167">
			<stop  offset="0" style="stop-color:#4F52FF"/>
			<stop  offset="1" style="stop-color:#4042E2"/>
		</linearGradient>
		<path class="st35" d="M1269.4,859c1.3-26.3,23-47,49.3-47l916.3,0c32.9,0,61.1,23.7,66.7,56.2l0.8,4.5
			c6.2,35.6-21.2,68.1-57.3,68.1h-940.1c-21.6,0-38.8-18.1-37.8-39.6L1269.4,859z"/>
	</g>
	<g>
		<g>
			
				<linearGradient id="SVGID_32_" gradientUnits="userSpaceOnUse" x1="16554.5156" y1="-22090.8965" x2="16268.5508" y2="-21801.5273" gradientTransform="matrix(-1 0 0 1 -6479.4355 0)">
				<stop  offset="0" style="stop-color:#4F52FF"/>
				<stop  offset="1" style="stop-color:#4042E2"/>
			</linearGradient>
			<path class="st36" d="M867.6,1852.2c0,0-32.7,15.9-38.7,34.1c-4.8,14.6-40.9,16.5-44.5,45.3c-1.8,14.9-12.8,26.8-27.7,29
				c-36.9,5.7-93.7,24.8-102.8,88.8c-6.9,48.9,18,67.4,44.1,73.8c19.2,4.7,32,23.4,28.1,42.8c-3.7,18.6,1.8,40.1,34.1,57.1
				c72.2,38.1,144.3-90.3,144.3-90.3l14.8-224.1L867.6,1852.2z"/>
			
				<linearGradient id="SVGID_33_" gradientUnits="userSpaceOnUse" x1="-7604.334" y1="1861.8301" x2="-7425.3481" y2="2269.0637" gradientTransform="matrix(-1 0 0 1 -6479.4355 0)">
				<stop  offset="0" style="stop-color:#FEBBBA"/>
				<stop  offset="1" style="stop-color:#FF928E"/>
			</linearGradient>
			<path class="st37" d="M1207.5,1733.9c0,0-92.9,253.3-251.2,332.5c0,0,52.7,86,80.2,91.2c0,0,169.1-216.5,186.4-393.8
				L1207.5,1733.9z"/>
			
				<linearGradient id="SVGID_34_" gradientUnits="userSpaceOnUse" x1="-7050.2925" y1="3277.3059" x2="-6968.1396" y2="3277.3059" gradientTransform="matrix(-1 0 0 1 -6479.4355 0)">
				<stop  offset="0" style="stop-color:#09005D"/>
				<stop  offset="1" style="stop-color:#1A0F91"/>
			</linearGradient>
			<path class="st38" d="M570.8,3257.6l-4.7,38.4c-0.9,7.3-6.6,13-13.9,13.9c-12.3,1.4-32.1,2.8-51.4,0.8c-8.5-0.9-14-9.5-11.4-17.6
				c4.7-14.8,13.3-37.1,25.8-50.2h42.6C565.6,3242.9,571.7,3249.8,570.8,3257.6z"/>
			
				<linearGradient id="SVGID_35_" gradientUnits="userSpaceOnUse" x1="-7397.4287" y1="3601.2698" x2="-7279.2056" y2="2219.5366" gradientTransform="matrix(-1 0 0 1 -6479.4355 0)">
				<stop  offset="0" style="stop-color:#FEBBBA"/>
				<stop  offset="1" style="stop-color:#FF928E"/>
			</linearGradient>
			<path class="st39" d="M904.5,2807.6l7.2,42.3c0,0-24.1,244-28.4,341.6c-0.7,15.3,3.3,30.4,11.3,43.5l41.9,68l-106.4-62.8l-2.1-13
				l17.4-24l-22.8-273.3c-1.3-16.1,2-32.2,9.5-46.4l22-41.4L904.5,2807.6z"/>
			
				<linearGradient id="SVGID_36_" gradientUnits="userSpaceOnUse" x1="-7431.9653" y1="3262.3076" x2="-7299.0366" y2="3262.3076" gradientTransform="matrix(-1 0 0 1 -6479.4355 0)">
				<stop  offset="0" style="stop-color:#09005D"/>
				<stop  offset="1" style="stop-color:#1A0F91"/>
			</linearGradient>
			<path class="st40" d="M943.5,3312.8h-34c-6.4,0-12.4-2.9-16.2-8c-10.6-13.8-32.5-40.6-43-41.3c-14.1-0.9-12.3,49.3-12.3,49.3
				h-7.9l-10-62.4c-2.5-15.7,5.3-31.2,19.4-38.6c0,0,3.2,23.9,20.7,34.4c17.5,10.6,71.2,48.4,71.2,48.4s6.6-0.9,13.8,0.4
				C955.9,3296.9,954.4,3312.8,943.5,3312.8z"/>
			
				<linearGradient id="SVGID_37_" gradientUnits="userSpaceOnUse" x1="-7159.6152" y1="3621.8296" x2="-7041.3613" y2="2239.7319" gradientTransform="matrix(-1 0 0 1 -6479.4355 0)">
				<stop  offset="0" style="stop-color:#FEBBBA"/>
				<stop  offset="1" style="stop-color:#FF928E"/>
			</linearGradient>
			<path class="st41" d="M758.7,2827.7c0,0-141.1,267.7-163.5,328.8c-22.4,61.1-30.3,112.1-30.6,116.9c-0.5,7.5-9.9,14.8-35.7,14.8
				c-13.3,0-19.9-5.4-23.1-10.5c-2.7-4.4-2.9-9.9-0.6-14.6c8.2-16.5,34.1-69.3,43.7-93.2c11.5-28.6,36.1-158.1,49.6-203.2
				c13.5-45,28.8-93.9,87.6-138.9C686.1,2827.7,726.5,2788.1,758.7,2827.7z"/>
			
				<linearGradient id="SVGID_38_" gradientUnits="userSpaceOnUse" x1="8451.749" y1="-20062.2578" x2="7958.1187" y2="-19367.7695" gradientTransform="matrix(-1 0 0 1 -6479.4355 0)">
				<stop  offset="0" style="stop-color:#FF928E"/>
				<stop  offset="1" style="stop-color:#FE7062"/>
			</linearGradient>
			<path class="st42" d="M847.9,2389.1c36.4-154.2-55.8-241.5-55.8-241.5c58.2-55.8,164.2-81.3,164.2-81.3s101.2,74,89.2,131.8
				c-7,33.9-71.1,203.2-71.1,203.2S915.1,2429.5,847.9,2389.1z"/>
			
				<linearGradient id="SVGID_39_" gradientUnits="userSpaceOnUse" x1="8691.2529" y1="-19892.0254" x2="8197.6201" y2="-19197.5352" gradientTransform="matrix(-1 0 0 1 -6479.4355 0)">
				<stop  offset="0" style="stop-color:#FF928E"/>
				<stop  offset="1" style="stop-color:#FE7062"/>
			</linearGradient>
			<path class="st43" d="M767.2,2465.5c14.8-44.6,80.7-76.4,80.7-76.4c67.2,40.4,126.4,12.3,126.4,12.3s13.3,50.8,4.1,98
				c-9.2,47.2-66.7,350.5-66.7,350.5c-90.7,18.4-230.1-18.5-230.1-18.5C739.4,2728.9,752.4,2510.1,767.2,2465.5z"/>
			
				<linearGradient id="SVGID_40_" gradientUnits="userSpaceOnUse" x1="-7410.3936" y1="2239.2939" x2="-7388.1855" y2="2076.8269" gradientTransform="matrix(-1 0 0 1 -6479.4355 0)">
				<stop  offset="0" style="stop-color:#FEBBBA"/>
				<stop  offset="1" style="stop-color:#FF928E"/>
			</linearGradient>
			<path class="st44" d="M890.1,1964.5l-29.6,132.9c-2.8,11.7,7.8,9.8,19.7,7.6c19.4-3.7,44.4-11.2,52.7-26.3c0.8-1.5,1.3-3.3,1.5-5
				l12.7-92.2c1-7.3-2.9-14.4-9.7-17.4l-24.5-10.9C903.5,1949.1,892.5,1954.4,890.1,1964.5z"/>
			<g>
				
					<linearGradient id="SVGID_41_" gradientUnits="userSpaceOnUse" x1="-7466.4468" y1="2029.8243" x2="-7272.6826" y2="1684.9897" gradientTransform="matrix(-1 0 0 1 -6479.4355 0)">
					<stop  offset="0" style="stop-color:#FEBBBA"/>
					<stop  offset="1" style="stop-color:#FF928E"/>
				</linearGradient>
				<path class="st45" d="M924.8,1837.9c0,0,35,14.8,58.9,65.4c23.8,50.6,6,74-16.3,77.2c-22.4,3.2-55.8,2.7-91.1-30
					C840.9,1917.9,879.3,1820.4,924.8,1837.9z"/>
				
					<linearGradient id="SVGID_42_" gradientUnits="userSpaceOnUse" x1="16434.0527" y1="-22209.9395" x2="16148.0859" y2="-21920.5703" gradientTransform="matrix(-1 0 0 1 -6479.4355 0)">
					<stop  offset="0" style="stop-color:#4F52FF"/>
					<stop  offset="1" style="stop-color:#4042E2"/>
				</linearGradient>
				<path class="st46" d="M900,1923.6c0,0-26.4-74.1,39.3-75l15.5,10.8c0,0,24.1-41.1-15.5-60.7c-39.6-19.6-85.9-3.4-102.7,49.9
					c-16.8,53.3-19.7,89,8.3,114.5c28,25.5,39.6-3.4,39.6-3.4s-15.3-23.9-9-36.6c6.2-12.8,20.5,2.6,20.5,2.6L900,1923.6z"/>
				
					<linearGradient id="SVGID_43_" gradientUnits="userSpaceOnUse" x1="-7425.2017" y1="2053.0007" x2="-7231.4375" y2="1708.1653" gradientTransform="matrix(-1 0 0 1 -6479.4355 0)">
					<stop  offset="0" style="stop-color:#FEBBBA"/>
					<stop  offset="1" style="stop-color:#FF928E"/>
				</linearGradient>
				<path class="st47" d="M892.7,1931.8c0,0-13.4-38.2-31.2-23c-17.8,15.2,14.5,35.3,27.2,41.8L892.7,1931.8z"/>
			</g>
			<g>
				
					<linearGradient id="SVGID_44_" gradientUnits="userSpaceOnUse" x1="-7652.4673" y1="1848.3337" x2="-7528.8457" y2="2129.6003" gradientTransform="matrix(-1 0 0 1 -6479.4355 0)">
					<stop  offset="0" style="stop-color:#FEBBBA"/>
					<stop  offset="1" style="stop-color:#FF928E"/>
				</linearGradient>
				<path class="st48" d="M1216.4,1780.1c1.4,4.5-15,11.4-24.7-7.1c-0.3-8.8-5.7-46.7-0.4-53.9c28.1-38.3,57.8-40.8,57.8-40.8
					c5.5,10,12.3,18.4,15.4,30.5c2.4,9.2,0.9,18.9-3.7,27.3c-4.6,8.4-11,19.2-17,27.7C1232.6,1779.9,1216.4,1780.1,1216.4,1780.1z"
					/>
			</g>
			<linearGradient id="SVGID_45_" gradientUnits="userSpaceOnUse" x1="891.5605" y1="2255.7571" x2="1279.6571" y2="2033.3391">
				<stop  offset="0" style="stop-color:#FEBBBA"/>
				<stop  offset="1" style="stop-color:#FF928E"/>
			</linearGradient>
			<path class="st49" d="M775.7,2188.7c0,0,270.7,330.5,472.9-45.8c0,0,3.9-9.6,1.5-23.5c-1.2-7,3.4-31.9,6-44.6
				c0.8-4.1-2.1-7.9-6.2-8.3c-3.3-0.3-6.4,1.1-8.5,3.6l-36.9,47c-2.8,9.3,1.7,19.2,10.5,23.4c5.6,2.7,7.4,9.8,3.6,14.7
				c-153.8,201.6-411-19.6-415.7-17C786,2147.4,766.7,2157.6,775.7,2188.7z"/>
		</g>
		<g>
			
				<linearGradient id="SVGID_46_" gradientUnits="userSpaceOnUse" x1="-1334.553" y1="1907.0005" x2="-1335.5458" y2="2102.6008" gradientTransform="matrix(-1 0 0 1 -61.1149 0)">
				<stop  offset="0" style="stop-color:#4F52FF"/>
				<stop  offset="1" style="stop-color:#4042E2"/>
			</linearGradient>
			<path class="st50" d="M1152.8,1976.8c0.4-5.3,5.8-9.9,15-13.6c-10-5.5-15.5-11.4-15-17.2c1.4-17.5,56.8-27.3,123.7-21.9
				c66.9,5.4,120,23.9,118.5,41.4c-0.4,5.3-5.8,9.9-15,13.6c10,5.5,15.5,11.4,15,17.2c-0.4,5.3-5.8,9.9-15,13.6
				c10,5.5,15.5,11.4,15,17.2c-0.4,5.3-5.8,9.9-15,13.6c10,5.5,15.5,11.4,15,17.2c-0.6,7.7-11.8,14-29.9,18c0.2,5.7,0.1,12-0.5,18.9
				c-2.6,32.2-38.8,57.5-86.8,57.5c-47.9,0-89.4-34.4-89.9-66.8c-0.1-7.9,0.2-14.9,0.9-21.1c-22.9-7.7-36.9-17-36.2-26.1
				c0.4-5.3,5.8-9.9,15-13.6c-10-5.5-15.5-11.4-15-17.2c0.4-5.3,5.8-9.9,15-13.6C1157.9,1988.5,1152.4,1982.6,1152.8,1976.8z"/>
			<g>
				<path class="st2" d="M1307.4,2082.8c19.9,0,38-1.5,53.1-4.3c0.9-0.2,1.4-1,1.3-1.9c-0.2-0.9-1-1.4-1.9-1.3
					c-23.5,4.5-54.9,5.5-88.4,2.8c-27.4-2.2-53-6.6-74.1-12.8c-0.9-0.2-1.7,0.2-2,1.1c-0.2,0.9,0.2,1.7,1.1,2
					c21.3,6.2,47.1,10.7,74.8,12.9C1283.7,2082.3,1295.8,2082.8,1307.4,2082.8z"/>
				<path class="st2" d="M1307.1,2052.1c25.8,0,48.9-2.4,65.1-7.1c0.9-0.2,1.3-1.1,1.1-2c-0.2-0.9-1.1-1.3-2-1.1
					c-23.2,6.6-60.5,8.6-99.8,5.5c-38.9-3.1-75.2-11-97.1-21.1c-0.8-0.4-1.8,0-2.1,0.8c-0.4,0.8,0,1.8,0.8,2.1
					c22.2,10.2,58.9,18.2,98.2,21.4C1283.5,2051.6,1295.6,2052.1,1307.1,2052.1z"/>
				<path class="st2" d="M1307.4,2021.4c27.9,0,52.2-2.9,68.7-8.3c0.8-0.3,1.3-1.2,1-2c-0.3-0.8-1.2-1.3-2-1
					c-22.8,7.5-61.6,10-103.6,6.6c-38.9-3.1-75.2-11-97.1-21.1c-0.8-0.4-1.8,0-2.1,0.8c-0.4,0.8,0,1.8,0.8,2.1
					c22.2,10.2,58.9,18.2,98.2,21.4C1283.7,2020.9,1295.9,2021.4,1307.4,2021.4z"/>
				<path class="st2" d="M1307.2,1990.6c22.1,0,42.2-1.8,57.8-5.3c0.9-0.2,1.4-1.1,1.2-1.9c-0.2-0.9-1.1-1.4-1.9-1.2
					c-23.5,5.2-57.3,6.6-92.8,3.7c-38.6-3.1-74.7-10.9-96.6-20.9c-0.8-0.4-1.8,0-2.1,0.8c-0.4,0.8,0,1.8,0.8,2.1
					c22.2,10.1,58.7,18,97.7,21.2C1283.5,1990.1,1295.6,1990.6,1307.2,1990.6z"/>
			</g>
			<linearGradient id="SVGID_47_" gradientUnits="userSpaceOnUse" x1="1374.2738" y1="1141.9044" x2="1001.5154" y2="2301.0271">
				<stop  offset="0" style="stop-color:#FF928E"/>
				<stop  offset="1" style="stop-color:#FE7062"/>
			</linearGradient>
			<path class="st51" d="M1439.9,1821.7c8.1-28.8,21.9-55.7,40.5-79.1c39.8-50.2,104.8-152.2,112.8-291.5
				c11.6-202.6-168-304-332-290.3c-164,13.8-325.7,135.8-308,324.3c10.9,116,75.8,203.9,124.1,254.4c30.7,32.1,52.6,71.4,64.4,114.2
				c14.5,52.4,49,117.6,131.1,121.6C1378.9,1980.5,1423,1881.6,1439.9,1821.7z"/>
			
				<linearGradient id="SVGID_48_" gradientUnits="userSpaceOnUse" x1="-1274.1644" y1="1668.8235" x2="-1250.6053" y2="2417.3608" gradientTransform="matrix(-1 0 0 1 -61.1149 0)">
				<stop  offset="0" style="stop-color:#E1473D"/>
				<stop  offset="1" style="stop-color:#E9605A"/>
			</linearGradient>
			<path class="st52" d="M1245.6,1935l-57.4-373.1c-1.2-7.7-5-12.9-8.5-11.6c-3.5,1.3-5.4,8.6-4.2,16.4c0,0.2,0.1,0.5,0.1,0.7
				l65.3,369.7c0.5,2.8,1.9,4.5,3.2,3.9C1245.4,1940.3,1246.1,1937.7,1245.6,1935z"/>
			
				<linearGradient id="SVGID_49_" gradientUnits="userSpaceOnUse" x1="-1403.9406" y1="1672.9083" x2="-1380.3815" y2="2421.4475" gradientTransform="matrix(-1 0 0 1 -61.1149 0)">
				<stop  offset="0" style="stop-color:#E1473D"/>
				<stop  offset="1" style="stop-color:#E9605A"/>
			</linearGradient>
			<path class="st53" d="M1305.2,1937.9l57.4-373.1c1.2-7.7,5-12.9,8.5-11.6c3.5,1.3,5.4,8.6,4.2,16.4c0,0.2-0.1,0.5-0.1,0.7
				l-65.3,369.7c-0.5,2.8-1.9,4.5-3.2,3.9C1305.4,1943.2,1304.8,1940.6,1305.2,1937.9z"/>
			<path class="st54" d="M1188.7,1529.8c1.5-2.3,4.8-3.2,7.5-2l31.9,14.9l11.1-31.6c0.6-1.6,1.9-3.1,3.9-3.9c3.7-1.5,8.1-0.2,9.8,3
				l0.1,0.1l26.3,47.9l24.4-68.2l0-0.1c0.6-1.7,1.9-3.2,3.7-4.2c4.1-2.2,9.5-1.2,12.1,2.4l36.7,50.6c1.5,2.1,1,4.8-1.3,6.4
				c-2.4,1.6-5.9,1.3-7.8-0.8l-32.3-36.1l-29.1,64.9l0,0.1c-0.5,1-1.3,1.9-2.6,2.5c-2.7,1.3-6.1,0.4-7.6-2l-28.1-45.1l-10.6,22.8
				l-0.1,0.2c-0.1,0.2-0.2,0.3-0.3,0.5c-1.5,2.3-4.8,3.2-7.5,2l-37.9-17.7C1188.2,1535.1,1187.2,1532.2,1188.7,1529.8z"/>
			<path class="st54" d="M1076,1694.5c2.1,0,4.3-0.7,6.1-2c4.6-3.4,5.5-9.8,2.1-14.4c-9.7-13.1-18.6-26.6-26.4-40.1
				c-2.8-4.9-9.1-6.6-14-3.8c-4.9,2.8-6.6,9.1-3.8,14c8.2,14.2,17.5,28.4,27.7,42.1C1069.8,1693.1,1072.9,1694.5,1076,1694.5z"/>
			<path class="st54" d="M1028.8,1613.5c1.4,0,2.8-0.3,4.1-0.9c5.2-2.3,7.6-8.3,5.3-13.5c-60.1-138.4-8.4-254.4-7.8-255.5
				c2.4-5.2,0.1-11.3-5.1-13.6c-5.2-2.4-11.3-0.1-13.6,5.1c-2.3,5.1-56,125.5,7.7,272.3C1021.1,1611.2,1024.9,1613.5,1028.8,1613.5z
				"/>
		</g>
	</g>
	<g>
		
			<linearGradient id="SVGID_50_" gradientUnits="userSpaceOnUse" x1="10277.2412" y1="3153.9231" x2="9756.0117" y2="3720.8755" gradientTransform="matrix(-1 9.500000e-03 9.500000e-03 1 12541.6211 -63.4652)">
			<stop  offset="0" style="stop-color:#09005D"/>
			<stop  offset="1" style="stop-color:#1A0F91"/>
		</linearGradient>
		<path class="st55" d="M2459.5,3228.8c0,0,5.7,30.5,8.6,60.7c1.1,11.8-7.9,22.2-19.7,22.8c-40.3,2.1-126.4,6.1-157.3,5.1
			c-4.7-0.2-7.7-4.9-6.1-9.2c1.4-3.6,4.2-6.6,7.7-8.3l141.7-66.8L2459.5,3228.8z"/>
		
			<linearGradient id="SVGID_51_" gradientUnits="userSpaceOnUse" x1="10108.0576" y1="3196.0264" x2="10154.3564" y2="3196.0264" gradientTransform="matrix(-1 9.500000e-03 9.500000e-03 1 12541.6211 -63.4652)">
			<stop  offset="0" style="stop-color:#FEBBBA"/>
			<stop  offset="1" style="stop-color:#FF928E"/>
		</linearGradient>
		<path class="st56" d="M2463.8,3210.8l-4,36.6c0,0-24.8,11.8-42-1.1l9.9-40.8L2463.8,3210.8z"/>
		<linearGradient id="SVGID_52_" gradientUnits="userSpaceOnUse" x1="2963.2273" y1="2255.5288" x2="2633.0049" y2="2664.0508">
			<stop  offset="0" style="stop-color:#4F52FF"/>
			<stop  offset="1" style="stop-color:#4042E2"/>
		</linearGradient>
		<path class="st57" d="M2453.9,2523.6c2,9.5,14.6,476.3-33.3,685.9c-0.8,3.4,1,6.9,4.2,8.2c7.7,3.1,22.7,7.4,40.7,7.9
			c5.6,0.1,10.5-3.5,12-8.9c13.8-48.7,79.8-292.5,86.5-524.9c7.5-259.7-0.1-8.8-0.1-8.8l-7.4-160.4L2453.9,2523.6z"/>
		
			<linearGradient id="SVGID_53_" gradientUnits="userSpaceOnUse" x1="10160.3115" y1="3046.405" x2="9639.0605" y2="3613.3809" gradientTransform="matrix(-1 9.500000e-03 9.500000e-03 1 12541.6211 -63.4652)">
			<stop  offset="0" style="stop-color:#09005D"/>
			<stop  offset="1" style="stop-color:#1A0F91"/>
		</linearGradient>
		<path class="st58" d="M2623.4,3243.1c0,0,8.7,15.3,17.5,56.3c1.6,7.4-3.5,14.5-11,15.3c-13.3,1.4-33.8,3.3-50.2,3.4
			c-7.6,0-13.5-6.5-12.7-14c1.7-15,7.1-39.6,24.4-58.9L2623.4,3243.1z"/>
		
			<linearGradient id="SVGID_54_" gradientUnits="userSpaceOnUse" x1="9941.1934" y1="3193.6453" x2="9981.167" y2="3193.6453" gradientTransform="matrix(-1 9.500000e-03 9.500000e-03 1 12541.6211 -63.4652)">
			<stop  offset="0" style="stop-color:#FEBBBA"/>
			<stop  offset="1" style="stop-color:#FF928E"/>
		</linearGradient>
		<path class="st59" d="M2630.5,3196l-9.6,55.4c0,0-9.9,7.5-29.8,2.3l4.3-59.5L2630.5,3196z"/>
		<linearGradient id="SVGID_55_" gradientUnits="userSpaceOnUse" x1="3005.8352" y1="2289.9705" x2="2675.6128" y2="2698.4927">
			<stop  offset="0" style="stop-color:#4F52FF"/>
			<stop  offset="1" style="stop-color:#4042E2"/>
		</linearGradient>
		<path class="st60" d="M2651.6,2536c43.2,245.9-3,608.8-19.1,679.9c-1,4.4-4.5,7.7-8.9,8.5c-7.5,1.3-19.8,2.4-31.9-1
			c-4.2-1.2-7.2-4.9-7.4-9.3c-2.8-57.3-2.1-409.5-41.5-548.2c-2-7-6.4-13.1-12.4-17.3l-74.3-51.8l-6.5-84.8L2651.6,2536z"/>
		<g>
			<linearGradient id="SVGID_56_" gradientUnits="userSpaceOnUse" x1="1936.4009" y1="2835.3035" x2="2467.4795" y2="2297.417">
				<stop  offset="0" style="stop-color:#FF928E"/>
				<stop  offset="1" style="stop-color:#FE7062"/>
			</linearGradient>
			<path class="st61" d="M2387.1,2071.8c122.3-3.2,257.6,29.7,257.6,29.7c38.5,212.4,10.7,458,10.7,458
				c-94.4,25.7-201.6-13.3-201.6-13.3c-16.6-88.8-92.4-338.3-92.4-338.3c-59.8-6.8-109.2-23.6-150-46
				c30.6-36.1,44.7-81.9,50.8-108.9C2305.5,2066,2349.4,2072.8,2387.1,2071.8z"/>
			<linearGradient id="SVGID_57_" gradientUnits="userSpaceOnUse" x1="2289.7852" y1="2145.5864" x2="1962.9675" y2="1900.473">
				<stop  offset="0" style="stop-color:#FEBBBA"/>
				<stop  offset="1" style="stop-color:#FF928E"/>
			</linearGradient>
			<path class="st62" d="M2024.1,1895.1c11.9-14.6,27.1-7.9,27.1-7.9c18.7,75.9,113.7,136.6,210.9,165.8
				c-6.1,27-20.2,72.8-50.8,108.9C2049.6,2073,2024.1,1895.1,2024.1,1895.1z"/>
		</g>
		<g>
			<linearGradient id="SVGID_58_" gradientUnits="userSpaceOnUse" x1="2085.7224" y1="1936.4706" x2="1966.5702" y2="1793.4882">
				<stop  offset="0" style="stop-color:#FEBBBA"/>
				<stop  offset="1" style="stop-color:#FF928E"/>
			</linearGradient>
			<path class="st63" d="M2027.1,1898.8c-1.2,4,13.4,10,21.8-6.5c0.2-7.8,4.7-41.4-0.1-47.8c-25.3-33.8-74-75.9-74-75.9
				c-8.1,8.1-1.3,16-1.3,16l23.7,24.2c-4.8,8.9-10.7,16.4-13.4,27.2c-2,8.1-0.7,16.8,3.5,24.2c4.2,7.4,9.9,17,15.3,24.5
				C2012.7,1898.8,2027.1,1898.8,2027.1,1898.8z"/>
			
				<linearGradient id="SVGID_59_" gradientUnits="userSpaceOnUse" x1="10534.04" y1="1828.2134" x2="10600.2695" y2="1726.3849" gradientTransform="matrix(-1 9.500000e-03 9.500000e-03 1 12541.6211 -63.4652)">
				<stop  offset="0" style="stop-color:#FEBBBA"/>
				<stop  offset="1" style="stop-color:#FF928E"/>
			</linearGradient>
			<path class="st64" d="M2007.6,1824.6l21.5,17.9l6.9,18l-18.8,21.3c0,0-6.7-35.7-11.6-43.4
				C2000.8,1830.6,2003.2,1826.9,2007.6,1824.6z"/>
		</g>
		<linearGradient id="SVGID_60_" gradientUnits="userSpaceOnUse" x1="2005.9275" y1="2903.9495" x2="2537.0071" y2="2366.0618">
			<stop  offset="0" style="stop-color:#FF928E"/>
			<stop  offset="1" style="stop-color:#FE7062"/>
		</linearGradient>
		<path class="st65" d="M2598.9,2220.3l45.8-118.9c0,0,115,76.5,134.7,174.8c-21.6,1.8-60.8,7.8-99.1,27.6
			C2671.4,2257.4,2598.9,2220.3,2598.9,2220.3z"/>
		
			<linearGradient id="SVGID_61_" gradientUnits="userSpaceOnUse" x1="9781.0234" y1="2323.1545" x2="10080.3633" y2="2323.1545" gradientTransform="matrix(-1 9.500000e-03 9.500000e-03 1 12541.6211 -63.4652)">
			<stop  offset="0" style="stop-color:#FEBBBA"/>
			<stop  offset="1" style="stop-color:#FF928E"/>
		</linearGradient>
		<path class="st66" d="M2500.1,2332.7c0,0,129,71.3,171.6,9c8.9-12.9,10.9-25.7,8.6-37.9c38.3-19.8,77.5-25.8,99.1-27.6
			c5.9,29.6,3.3,61.2-13.9,93.3c-74.5,139.4-282-5-282-5L2500.1,2332.7z"/>
		
			<linearGradient id="SVGID_62_" gradientUnits="userSpaceOnUse" x1="10010.8848" y1="2003.1481" x2="10129.2393" y2="2003.1481" gradientTransform="matrix(-1 9.500000e-03 9.500000e-03 1 12541.6211 -63.4652)">
			<stop  offset="0" style="stop-color:#FEBBBA"/>
			<stop  offset="1" style="stop-color:#FF928E"/>
		</linearGradient>
		<path class="st67" d="M2510,1971.3l40,112.2c0.7,1.9-0.1,3.9-1.8,4.9c-10.6,6-48.6,23.3-94.9-5.5c-4.8-3-8.1-7.9-8.9-13.6
			l-13.5-97.3L2510,1971.3z"/>
		<g>
			<g>
				
					<linearGradient id="SVGID_63_" gradientUnits="userSpaceOnUse" x1="9870.2607" y1="2162.408" x2="10035.4355" y2="2850.6389" gradientTransform="matrix(-1 0 0 1 12273.3223 0)">
					<stop  offset="0" style="stop-color:#09005D"/>
					<stop  offset="1" style="stop-color:#1A0F91"/>
				</linearGradient>
				<path class="st68" d="M2526.4,2445.3l-70.2-245.3c-0.8-2.8-3.2-4.8-6.1-5.2c-12.7-1.5-49.6-5.7-92.2-9.3
					c-51.3-4.3-110.9-7.9-146.4-4.9c-5.1,0.4-8.1,5.8-5.9,10.3c20.2,40.9,103.5,207.5,145.2,262.1c1.4,1.8,3.5,2.9,5.8,2.8l163-1.5
					C2524.3,2454.4,2527.7,2449.9,2526.4,2445.3z"/>
				
					<linearGradient id="SVGID_64_" gradientUnits="userSpaceOnUse" x1="9757.0781" y1="2344.4817" x2="9850.6621" y2="2344.4817" gradientTransform="matrix(-1 0 0 1 12273.3223 0)">
					<stop  offset="0" style="stop-color:#FEBBBA"/>
					<stop  offset="1" style="stop-color:#FF928E"/>
				</linearGradient>
				<path class="st69" d="M2509.5,2386.1c0,0,9.8-40.2,5.8-54.5c-3.9-14.3-11.6-32.6-37.1-28.6c-25.5,4.1-55.6,14.8-55.6,14.8
					s1.5,18.6,20.9,12.6l-12,9.3c0,0,1.7,14.9,18.1,6.9l-11.2,12.3c0,0,7,12.2,19.1,4.4C2469.6,2355.5,2475.3,2390.9,2509.5,2386.1z
					"/>
			</g>
			<path class="st2" d="M2362.6,2258.9c0,11.4-9.2,20.6-20.6,20.6c-11.4,0-20.6-9.2-20.6-20.6c0-11.4,9.2-20.6,20.6-20.6
				C2353.4,2238.2,2362.6,2247.5,2362.6,2258.9z"/>
			<path class="st2" d="M2448.2,2272.4l-14.3-48.5c-1.8-6-6.5-10.4-12.5-11.7c-44.8-9.4-167.5-11.3-168.8-11.4l0.1-5.5
				c5.1,0.1,124.5,2,169.8,11.5c7.9,1.7,14.3,7.6,16.6,15.5l14.3,48.5L2448.2,2272.4z"/>
		</g>
		<g>
			
				<linearGradient id="SVGID_65_" gradientUnits="userSpaceOnUse" x1="1985.3312" y1="2929.0061" x2="1831.2388" y2="3132.8579" gradientTransform="matrix(-0.6854 -0.7281 -0.7281 0.6854 5960.377 1317.7426)">
				<stop  offset="0" style="stop-color:#FEBBBA"/>
				<stop  offset="1" style="stop-color:#FF928E"/>
			</linearGradient>
			<path class="st70" d="M2447.5,1857.1c-1.4,1.4-58.9,121.1-58.9,121.1l65.1,33.4l70.4-104.9
				C2524.1,1906.7,2470.8,1833.8,2447.5,1857.1z"/>
			
				<linearGradient id="SVGID_66_" gradientUnits="userSpaceOnUse" x1="1871.2529" y1="2978.2463" x2="2051.1106" y2="2978.2463" gradientTransform="matrix(-0.6854 -0.7281 -0.7281 0.6854 5960.377 1317.7426)">
				<stop  offset="0" style="stop-color:#09005D"/>
				<stop  offset="1" style="stop-color:#1A0F91"/>
			</linearGradient>
			<path class="st71" d="M2495.3,1909.6c1.2,3.2,0.9,6.8-0.8,9.7l-32.5,57.5c-0.5,0.9-1.1,1.7-1.8,2.4c-3.9,3.8-17.1,14.9-27.3-0.2
				c-8.7-12.9-16.9-24.6-25.7-29.4c-5.1-2.8-11.4-0.6-14,4.9c-5.4,11.3-15.7,34.2-22.2,56c-1.6,5.5,1,11.3,6,13.5
				c13.2,5.7,39.3,15.9,62.4,19.3c3.8,0.6,7.6-1.1,9.8-4.4c10-14.5,38-54.9,47.6-65c8.9-9.4,25.3-5.9,32.7-3.6
				c2.8,0.9,5.8,0.4,8.3-1.2c7.5-4.8,20.6-16.7,8.6-37c-3-5-1.5-11.7,3.2-15c8.4-5.8,17.5-16.8,8.8-34.6
				c-8.8-18-24.4-19.6-35.1-18.2c-4.7,0.6-9.5-2-11.3-6.7c-0.8-2.1-2.4-3.8-5.4-4.5c-5.6-1.2-9.3-6.6-8.2-12.6
				c1.9-10.2,0.5-23.4-14.9-32.4c-28.1-16.4-52.7,10.3-59,32.9c-6.3,22.6,25.2,38.5,44.9,41.2
				C2484.1,1884,2492.1,1900.8,2495.3,1909.6z"/>
			
				<linearGradient id="SVGID_67_" gradientUnits="userSpaceOnUse" x1="1761.8027" y1="3092.7114" x2="1885.3831" y2="2965.9211" gradientTransform="matrix(-0.6854 -0.7281 -0.7281 0.6854 5960.377 1317.7426)">
				<stop  offset="0" style="stop-color:#FEBBBA"/>
				<stop  offset="1" style="stop-color:#FF928E"/>
			</linearGradient>
			<path class="st72" d="M2484.6,1994.7c0,0,12.5-38.8,28.5-37.4c16,1.4,28.6,18.3,8.8,37.3
				C2497.2,2018.3,2484.6,1994.7,2484.6,1994.7z"/>
		</g>
	</g>
</g>
</svg>
