<?xml version="1.0" encoding="utf-8"?>
<!-- Generator: Adobe Illustrator 25.2.1, SVG Export Plug-In . SVG Version: 6.00 Build 0)  -->
<svg version="1.1" xmlns="http://www.w3.org/2000/svg" xmlns:xlink="http://www.w3.org/1999/xlink" x="0px" y="0px"
	 viewBox="0 0 3710 3710" enable-background="new 0 0 3710 3710" xml:space="preserve">
<g id="Background">
</g>
<g id="Illustration">
	<g>
		<linearGradient id="SVGID_1_" gradientUnits="userSpaceOnUse" x1="3601.4109" y1="4076.8008" x2="1123.3398" y2="999.192">
			<stop  offset="0" style="stop-color:#DAE3FE"/>
			<stop  offset="1" style="stop-color:#E9EFFD"/>
		</linearGradient>
		<path fill="url(#SVGID_1_)" d="M2919.7,2863.1c-56.9,59.9-110.8,98.6-153.3,129.1c-500.2,358.9-1092,254.3-1217.8,228.7
			c-185.7-37.7-544.8-110.6-804.4-415.9c-392.7-461.8-331.6-1189.4-26.9-1669.8c55.7-87.9,350.1-575.5,948.3-653.7
			c362-47.3,784.1,48.1,1089.7,304.2C3396.7,1323.2,3351,2409,2919.7,2863.1z"/>
		<g>
			<g>
				<linearGradient id="SVGID_2_" gradientUnits="userSpaceOnUse" x1="1851.4592" y1="3350.5081" x2="1811.1996" y2="2553.3752">
					<stop  offset="0" style="stop-color:#09005D"/>
					<stop  offset="1" style="stop-color:#1A0F91"/>
				</linearGradient>
				<polygon fill="url(#SVGID_2_)" points="1515,2445.6 1448.2,3045.2 2223.9,3045.2 2122.9,2445.6 				"/>
				<linearGradient id="SVGID_3_" gradientUnits="userSpaceOnUse" x1="1853.9651" y1="3049.7178" x2="1483.5792" y2="3862.9553">
					<stop  offset="0" style="stop-color:#09005D"/>
					<stop  offset="1" style="stop-color:#1A0F91"/>
				</linearGradient>
				<path fill="url(#SVGID_3_)" d="M2391,3167.9H1255.6c-30.8,0-54-22-48-45.5l14.6-57.6c4.4-17.3,23.4-30,46.1-30.8l1094.6-34.2
					c23.7-0.7,44.6,11.8,49.8,29.8l26.3,91.8C2445.6,3145.3,2422.4,3167.9,2391,3167.9z"/>
				<linearGradient id="SVGID_4_" gradientUnits="userSpaceOnUse" x1="541.8258" y1="1885.3505" x2="3176.009" y2="1885.3505">
					<stop  offset="0" style="stop-color:#09005D"/>
					<stop  offset="1" style="stop-color:#1A0F91"/>
				</linearGradient>
				<path fill="url(#SVGID_4_)" d="M541.8,1151.9v1373.4c0,113,90,205.4,203,208.3c501.6,12.9,1793.7,44.3,2271.2,37.3
					c82.1-1.2,148.6-66.9,150.9-148.9c9.2-319.1,24.2-1086.3-31.2-1442.5c-11.7-75-75-131.1-150.8-133.5
					c-420.3-13.4-1817.8-56.1-2295.1-45.4C607.6,1002.3,541.8,1069.6,541.8,1151.9z"/>
				<linearGradient id="SVGID_5_" gradientUnits="userSpaceOnUse" x1="1602.0171" y1="2213.4199" x2="2728.6072" y2="402.8296">
					<stop  offset="0" style="stop-color:#4F52FF"/>
					<stop  offset="1" style="stop-color:#4042E2"/>
				</linearGradient>
				<path fill="url(#SVGID_5_)" d="M628,1145.2v1304.9c0,66,53,119.7,118.9,120.7l2200.4,32.9c65.4,1,119-51.6,119.2-117l4.5-1293.2
					c0.2-46.8-37.1-85.1-83.8-86.2l-2263.9-55.1C671.1,1050.9,628,1092.9,628,1145.2z"/>
				<path fill="#91B3FA" d="M3086.6,2656.9C3086.6,2656.9,3086.6,2656.9,3086.6,2656.9l-2458.7-49.8c-1.9,0-3.4-1.6-3.3-3.5
					c0-1.9,1.7-3.4,3.5-3.3l2458.6,49.8c1.9,0,3.4,1.6,3.3,3.5C3090,2655.4,3088.5,2656.9,3086.6,2656.9z"/>
				<path fill="#91B3FA" d="M1866.8,3049.3c-1.9,0-3.4-1.5-3.4-3.4c0-1.9,1.5-3.4,3.4-3.5l46.9-0.7c0,0,0,0,0.1,0
					c1.9,0,3.4,1.5,3.4,3.4c0,1.9-1.5,3.4-3.4,3.5L1866.8,3049.3C1866.9,3049.3,1866.9,3049.3,1866.8,3049.3z"/>
				<path fill="#91B3FA" d="M1249.6,3135.9c-0.2,0-0.4,0-0.5,0c-1.9-0.3-3.1-2-2.8-3.9l6.7-41.9c3.6-22.4,22.6-38.9,45.3-39.2
					l497.5-7.3c1.8,0.1,3.4,1.5,3.5,3.4c0,1.9-1.5,3.4-3.4,3.5l-497.5,7.3c-19.3,0.3-35.6,14.4-38.6,33.5l-6.7,41.9
					C1252.7,3134.7,1251.3,3135.9,1249.6,3135.9z"/>
			</g>
			
				<ellipse transform="matrix(0.1602 -0.9871 0.9871 0.1602 -482.2587 1959.9399)" fill="#91B3FA" cx="910.7" cy="1263.4" rx="41.2" ry="41.2"/>
			
				<ellipse transform="matrix(0.1602 -0.9871 0.9871 0.1602 -697.3643 2142.9526)" fill="#FFFFFF" cx="910.7" cy="1481.3" rx="41.2" ry="41.2"/>
			
				<ellipse transform="matrix(0.1602 -0.9871 0.9871 0.1602 -912.4699 2325.9653)" fill="#FFFFFF" cx="910.7" cy="1699.2" rx="41.2" ry="41.2"/>
			
				<ellipse transform="matrix(0.9239 -0.3827 0.3827 0.9239 -664.3368 494.4389)" fill="#FFFFFF" cx="910.7" cy="1917.1" rx="41.2" ry="41.2"/>
			<circle fill="#FFFFFF" cx="910.7" cy="2158.9" r="41.2"/>
			<circle fill="#FFFFFF" cx="910.7" cy="2376.8" r="41.2"/>
			<path fill="#91B3FA" d="M1096.6,2556.3h-38.8c-2.5,0-4.4-2-4.4-4.4l0-1445c0-2.5,2-4.4,4.4-4.4h38.8c2.5,0,4.4,2,4.4,4.4v1445
				C1101,2554.3,1099.1,2556.3,1096.6,2556.3z"/>
			<g opacity="0.6">
				<path fill="#91B3FA" d="M2380.3,1415.6H1173.6c-2.5,0-4.4-2-4.4-4.4v-38.8c0-2.5,2-4.4,4.4-4.4h1206.7c2.5,0,4.4,2,4.4,4.4v38.8
					C2384.7,1413.6,2382.7,1415.6,2380.3,1415.6z"/>
				<path fill="#91B3FA" d="M1615.3,1570.2h-441.7c-2.5,0-4.4-2-4.4-4.4v-38.8c0-2.5,2-4.4,4.4-4.4h441.7c2.5,0,4.4,2,4.4,4.4v38.8
					C1619.7,1568.2,1617.7,1570.2,1615.3,1570.2z"/>
				<path fill="#91B3FA" d="M2909.2,1875.6h-441.7c-2.5,0-4.4-2-4.4-4.4v-38.8c0-2.5,2-4.4,4.4-4.4h441.7c2.5,0,4.4,2,4.4,4.4v38.8
					C2913.6,1873.6,2911.6,1875.6,2909.2,1875.6z"/>
				<path fill="#91B3FA" d="M2309.6,2027.2h-441.7c-2.5,0-4.4-2-4.4-4.4V1984c0-2.5,2-4.4,4.4-4.4h441.7c2.5,0,4.4,2,4.4,4.4v38.8
					C2314,2025.2,2312,2027.2,2309.6,2027.2z"/>
				<path fill="#91B3FA" d="M1967.1,2165.4H1698c-2.5,0-4.4-2-4.4-4.4v-38.8c0-2.5,2-4.4,4.4-4.4h269.2c2.5,0,4.4,2,4.4,4.4v38.8
					C1971.6,2163.4,1969.6,2165.4,1967.1,2165.4z"/>
				<path fill="#91B3FA" d="M1459.8,2291.4h-269.2c-2.5,0-4.4-2-4.4-4.4v-38.8c0-2.5,2-4.4,4.4-4.4h269.2c2.5,0,4.4,2,4.4,4.4v38.8
					C1464.2,2289.4,1462.3,2291.4,1459.8,2291.4z"/>
				<path fill="#91B3FA" d="M1632.3,2165.4h-441.7c-2.5,0-4.4-2-4.4-4.4v-38.8c0-2.5,2-4.4,4.4-4.4h441.7c2.5,0,4.4,2,4.4,4.4v38.8
					C1636.8,2163.4,1634.8,2165.4,1632.3,2165.4z"/>
				<path fill="#91B3FA" d="M2773,2165.4h-735.7c-2.5,0-4.4-2-4.4-4.4v-38.8c0-2.5,2-4.4,4.4-4.4H2773c2.5,0,4.4,2,4.4,4.4v38.8
					C2777.4,2163.4,2775.4,2165.4,2773,2165.4z"/>
				<path fill="#91B3FA" d="M2852.4,1723.1h-643.7c-2.5,0-4.4-2-4.4-4.4v-38.8c0-2.5,2-4.4,4.4-4.4h643.7c2.5,0,4.4,2,4.4,4.4v38.8
					C2856.9,1721.1,2854.9,1723.1,2852.4,1723.1z"/>
				<path fill="#91B3FA" d="M1817.3,2027.2h-643.7c-2.5,0-4.4-2-4.4-4.4V1984c0-2.5,2-4.4,4.4-4.4h643.7c2.5,0,4.4,2,4.4,4.4v38.8
					C1821.8,2025.2,1819.8,2027.2,1817.3,2027.2z"/>
				<path fill="#91B3FA" d="M2650.4,1570.2h-966.1c-2.5,0-4.4-2-4.4-4.4v-38.8c0-2.5,2-4.4,4.4-4.4h966.1c2.5,0,4.4,2,4.4,4.4v38.8
					C2654.9,1568.2,2652.9,1570.2,2650.4,1570.2z"/>
				<path fill="#91B3FA" d="M2139.7,1723.1h-966.1c-2.5,0-4.4-2-4.4-4.4v-38.8c0-2.5,2-4.4,4.4-4.4h966.1c2.5,0,4.4,2,4.4,4.4v38.8
					C2144.1,1721.1,2142.1,1723.1,2139.7,1723.1z"/>
				<path fill="#91B3FA" d="M2380.3,1875.6H1173.6c-2.5,0-4.4-2-4.4-4.4v-38.8c0-2.5,2-4.4,4.4-4.4h1206.7c2.5,0,4.4,2,4.4,4.4v38.8
					C2384.7,1873.6,2382.7,1875.6,2380.3,1875.6z"/>
			</g>
			<g>
				<path fill="#91B3FA" d="M1297,1286.5l-50.8-37.6l1-11.8l56.3-28.4l-1.4,17.1l-38.8,18.7l35.1,25.1L1297,1286.5z"/>
				<path fill="#91B3FA" d="M1375.2,1197.2l-50.8,107.5l-19.4-1.6l50.7-107.5L1375.2,1197.2z"/>
				<path fill="#91B3FA" d="M1377.5,1276l39.1-18.8l-35.4-24.9l1.4-17.1l50.8,37.5l-1,11.8l-56.3,28.6L1377.5,1276z"/>
			</g>
			<g>
				<path fill="#91B3FA" d="M1253.3,2454.3l-50.8-37.6l1-11.8l56.3-28.4l-1.4,17.1l-38.8,18.7l35.1,25.1L1253.3,2454.3z"/>
				<path fill="#91B3FA" d="M1331.5,2365l-50.8,107.5l-19.4-1.6l50.7-107.5L1331.5,2365z"/>
				<path fill="#91B3FA" d="M1333.9,2443.9l39.1-18.8l-35.4-24.9l1.4-17.1l50.8,37.5l-1,11.8l-56.3,28.6L1333.9,2443.9z"/>
			</g>
		</g>
		<g>
			<g>
				<g opacity="0.24">
					<linearGradient id="SVGID_6_" gradientUnits="userSpaceOnUse" x1="2379.5911" y1="992.2656" x2="2395.8521" y2="992.2656">
						<stop  offset="0" style="stop-color:#FF928E"/>
						<stop  offset="1" style="stop-color:#FE7062"/>
					</linearGradient>
					<path fill="url(#SVGID_6_)" d="M2389.3,980.5c-2.9,0-5.5,1.8-6.4,4.7c-1,3.4-2,6.9-3,10.4c-1,3.5,1.1,7.2,4.6,8.2
						c3.5,1,7.2-1.1,8.2-4.6c0.9-3.4,1.9-6.7,2.9-10.1c1.1-3.5-0.9-7.2-4.4-8.3C2390.5,980.6,2389.9,980.5,2389.3,980.5z"/>
					<linearGradient id="SVGID_7_" gradientUnits="userSpaceOnUse" x1="2364.0916" y1="1286.8685" x2="3011.2351" y2="1286.8685">
						<stop  offset="0" style="stop-color:#FF928E"/>
						<stop  offset="1" style="stop-color:#FE7062"/>
					</linearGradient>
					<path fill="url(#SVGID_7_)" d="M2379.6,1024.5c3.6,0.7,6,4.2,5.3,7.8c-1.3,6.8-2.5,13.8-3.4,20.6c-0.5,3.6-3.9,6.2-7.5,5.7
						c-3.6-0.5-6.2-3.9-5.7-7.5c1-7.1,2.2-14.3,3.5-21.3c0.6-3.2,3.4-5.4,6.6-5.4C2378.8,1024.4,2379.2,1024.4,2379.6,1024.5z
						 M2371.9,1079.7c3.7,0.2,6.5,3.4,6.2,7c-0.4,6.9-0.7,14-0.7,20.9c0,3.7-3,6.6-6.7,6.6l0,0c-3.7,0-6.6-3-6.6-6.7
						c0.1-7.2,0.3-14.4,0.7-21.6c0.2-3.6,3.2-6.3,6.7-6.3C2371.6,1079.7,2371.8,1079.7,2371.9,1079.7z M2378.4,1141.7
						c0.5,6.9,1.1,14,2,20.8c0.4,3.6-2.2,7-5.8,7.4c-3.7,0.4-7-2.2-7.4-5.8c-0.8-7.1-1.5-14.3-2-21.5c-0.3-3.7,2.5-6.8,6.2-7.1
						c0.2,0,0.4,0,0.5,0C2375.3,1135.5,2378.2,1138.2,2378.4,1141.7z M2385.7,1196.1c1.4,6.8,2.9,13.7,4.6,20.4
						c0.9,3.6-1.3,7.2-4.8,8.1c-3.6,0.9-7.2-1.3-8.1-4.8c-1.8-7-3.4-14-4.8-21c-0.7-3.6,1.6-7.1,5.2-7.8c0.5-0.1,0.9-0.1,1.4-0.1
						C2382.3,1190.7,2385,1192.9,2385.7,1196.1z M2399.9,1249.1c2.2,6.6,4.7,13.2,7.2,19.6c1.4,3.4-0.3,7.3-3.7,8.6
						c-3.4,1.4-7.3-0.3-8.6-3.7c-2.6-6.7-5.2-13.5-7.5-20.3c-1.2-3.5,0.7-7.3,4.2-8.4c0.7-0.2,1.5-0.4,2.2-0.4
						C2396.4,1244.6,2399,1246.3,2399.9,1249.1z M2421,1299.8c3.1,6.2,6.4,12.5,9.7,18.6c1.8,3.2,0.6,7.3-2.6,9
						c-3.2,1.8-7.3,0.6-9-2.6c-3.5-6.3-6.9-12.7-10-19.1c-1.6-3.3-0.3-7.3,3-8.9c1-0.5,2-0.7,3-0.7
						C2417.5,1296.1,2419.8,1297.5,2421,1299.8z M2448.4,1347.4c3.9,5.8,7.9,11.5,12.1,17.1c2.2,2.9,1.6,7.1-1.4,9.3
						c-2.9,2.2-7.1,1.6-9.3-1.4c-4.3-5.8-8.5-11.7-12.4-17.7c-2-3.1-1.2-7.2,1.8-9.2c1.2-0.8,2.5-1.1,3.7-1.1
						C2445.1,1344.4,2447.2,1345.5,2448.4,1347.4z M2481.8,1391c4.6,5.2,9.3,10.4,14.2,15.4c2.5,2.6,2.5,6.8-0.2,9.4
						c-2.6,2.5-6.9,2.5-9.4-0.2c-5-5.2-9.9-10.5-14.6-15.9c-2.4-2.8-2.1-7,0.6-9.4c1.3-1.1,2.9-1.7,4.4-1.6
						C2478.7,1388.7,2480.5,1389.5,2481.8,1391z M2520.5,1429.9c5.2,4.6,10.6,9.1,16,13.5c2.9,2.3,3.3,6.5,1,9.3
						c-2.3,2.9-6.5,3.3-9.3,1c-5.6-4.5-11.1-9.1-16.5-13.9c-2.8-2.4-3-6.6-0.6-9.4c1.3-1.5,3.2-2.3,5-2.2
						C2517.7,1428.3,2519.3,1428.8,2520.5,1429.9z M2563.9,1463.6c5.8,3.9,11.7,7.7,17.6,11.3c3.1,1.9,4.1,6,2.2,9.1
						c-1.9,3.1-6,4.1-9.1,2.2c-6.1-3.7-12.2-7.6-18.2-11.6c-3-2.1-3.8-6.2-1.8-9.2c1.3-1.9,3.4-2.9,5.6-2.9
						C2561.5,1462.4,2562.8,1462.8,2563.9,1463.6z M3010.4,1488.8c1.7,3.2,0.5,7.3-2.7,9c-6.3,3.4-12.8,6.7-19.3,9.7
						c-3.3,1.6-7.3,0.2-8.9-3.2c-1.6-3.3-0.2-7.3,3.2-8.9c6.3-3,12.5-6.1,18.7-9.4c1-0.5,2.1-0.8,3.2-0.8
						C3007,1485.3,3009.3,1486.6,3010.4,1488.8z M2611.3,1491.3c6.2,3.1,12.6,6.1,18.9,8.9c3.4,1.5,4.9,5.4,3.4,8.8
						c-1.5,3.4-5.4,4.9-8.8,3.4c-6.5-2.9-13.1-6-19.5-9.2c-3.3-1.6-4.6-5.6-3-8.9c1.2-2.3,3.6-3.7,6-3.7
						C2609.3,1490.6,2610.3,1490.9,2611.3,1491.3z M2960,1512.7c1.3,3.4-0.4,7.3-3.9,8.6c-6.7,2.5-13.5,4.9-20.4,7.1
						c-3.5,1.1-7.2-0.8-8.4-4.3c-1.1-3.5,0.8-7.2,4.3-8.4c6.6-2.1,13.3-4.5,19.8-6.9c0.8-0.3,1.6-0.4,2.4-0.4
						C2956.5,1508.4,2959,1510.1,2960,1512.7z M2661.8,1512.7c6.6,2.3,13.3,4.4,19.9,6.4c3.5,1,5.5,4.7,4.5,8.3
						c-1,3.5-4.7,5.5-8.3,4.5c-6.8-2-13.7-4.2-20.5-6.6c-3.5-1.2-5.3-5-4.1-8.5c1-2.8,3.6-4.5,6.3-4.5
						C2660.4,1512.4,2661.1,1512.5,2661.8,1512.7z M2906.9,1529.8c0.8,3.6-1.4,7.2-4.9,8c-7,1.6-14.1,3.1-21.1,4.4
						c-3.6,0.7-7.1-1.7-7.7-5.3c-0.7-3.6,1.7-7.1,5.3-7.7c6.8-1.3,13.7-2.7,20.5-4.3c0.5-0.1,1.1-0.2,1.6-0.2
						C2903.5,1524.7,2906.2,1526.8,2906.9,1529.8z M2714.6,1527.4c6.8,1.4,13.7,2.7,20.6,3.8c3.6,0.6,6.1,4,5.5,7.6
						c-0.6,3.6-4,6.1-7.6,5.5c-7.1-1.1-14.2-2.4-21.2-3.9c-3.6-0.7-5.9-4.3-5.2-7.9c0.7-3.2,3.5-5.3,6.6-5.3
						C2713.8,1527.3,2714.2,1527.3,2714.6,1527.4z M2852.1,1539.9c0.4,3.7-2.3,6.9-5.9,7.3c-6.2,0.6-12.6,1.2-18.8,1.5l-2.7,0.2
						c-3.7,0.2-6.8-2.6-7-6.3c-0.2-3.7,2.6-6.8,6.3-7l2.6-0.1c6.1-0.4,12.2-0.9,18.3-1.5c0.3,0,0.5,0,0.7,0
						C2848.9,1534,2851.7,1536.5,2852.1,1539.9z M2769,1535c6.9,0.5,14,0.9,20.9,1.1c3.7,0.1,6.6,3.1,6.5,6.8
						c-0.1,3.7-3.2,6.6-6.8,6.5c-7.2-0.2-14.4-0.5-21.6-1.1c-3.7-0.3-6.4-3.5-6.1-7.1c0.3-3.5,3.2-6.2,6.7-6.1
						C2768.7,1535,2768.8,1535,2769,1535z"/>
					<linearGradient id="SVGID_8_" gradientUnits="userSpaceOnUse" x1="3027.9397" y1="1471.3232" x2="3050.0906" y2="1471.3232">
						<stop  offset="0" style="stop-color:#FF928E"/>
						<stop  offset="1" style="stop-color:#FE7062"/>
					</linearGradient>
					<path fill="url(#SVGID_8_)" d="M3043.5,1461.7c-1.3,0-2.6,0.4-3.8,1.2c-2.9,2-5.8,3.9-8.7,5.8c-3.1,2-4,6.1-2,9.2
						c2,3.1,6.1,4,9.2,2c3-2,6-3.9,9-6c3-2.1,3.8-6.2,1.8-9.2C3047.7,1462.8,3045.6,1461.8,3043.5,1461.7z"/>
				</g>
				<g opacity="0.24">
					<linearGradient id="SVGID_9_" gradientUnits="userSpaceOnUse" x1="3215.7839" y1="1197.0179" x2="3231.1643" y2="1197.0179">
						<stop  offset="0" style="stop-color:#FF928E"/>
						<stop  offset="1" style="stop-color:#FE7062"/>
					</linearGradient>
					<path fill="url(#SVGID_9_)" d="M3224.6,1185.2c-3.2,0-6,2.2-6.6,5.4c-0.6,3.4-1.3,6.9-2.1,10.3c-0.8,3.6,1.5,7.1,5.1,7.9
						c3.6,0.8,7.1-1.5,7.9-5.1c0.7-3.5,1.5-7,2.1-10.6c0.7-3.6-1.7-7.1-5.3-7.8C3225.3,1185.2,3225,1185.2,3224.6,1185.2z"/>
					<linearGradient id="SVGID_10_" gradientUnits="userSpaceOnUse" x1="2573.4312" y1="919.9727" x2="3238.3701" y2="919.9727">
						<stop  offset="0" style="stop-color:#FF928E"/>
						<stop  offset="1" style="stop-color:#FE7062"/>
					</linearGradient>
					<path fill="url(#SVGID_10_)" d="M2809.8,675.2c3.7,0.1,6.6,3.1,6.5,6.8c-0.1,3.7-3.1,6.6-6.7,6.5l-0.1,0l-3.8-0.1
						c-5.5-0.1-11.2,0-16.8,0.2c-3.7,0.1-6.7-2.8-6.8-6.4c-0.1-3.7,2.8-6.7,6.4-6.8c5.8-0.2,11.6-0.2,17.3-0.2L2809.8,675.2z
						 M2844.3,677.2c7,0.7,14.1,1.6,21.1,2.6c3.6,0.5,6.1,3.9,5.6,7.5c-0.5,3.6-3.9,6.1-7.5,5.6c-6.7-1-13.6-1.8-20.4-2.5
						c-3.7-0.4-6.3-3.6-6-7.3c0.3-3.5,3.3-6,6.7-6C2843.9,677.2,2844.1,677.2,2844.3,677.2z M2761.4,683.6c0.4,3.7-2.2,6.9-5.9,7.3
						c-6.8,0.7-13.7,1.6-20.4,2.7c-3.6,0.6-7-1.9-7.6-5.5c-0.6-3.6,1.9-7,5.5-7.6c7-1.1,14.1-2,21.1-2.8c0.3,0,0.5,0,0.8,0
						C2758.2,677.7,2761.1,680.2,2761.4,683.6z M2899.2,686.1c6.9,1.6,13.8,3.3,20.6,5.3c3.5,1,5.6,4.7,4.6,8.2
						c-1,3.5-4.7,5.6-8.2,4.6c-6.6-1.9-13.3-3.6-19.9-5.1c-3.6-0.8-5.8-4.4-5-8c0.7-3.1,3.5-5.2,6.5-5.2
						C2898.3,686,2898.8,686,2899.2,686.1z M2707.2,692.1c0.9,3.6-1.3,7.2-4.9,8c-6.7,1.6-13.4,3.4-19.9,5.3c-3.5,1-7.2-1-8.2-4.5
						c-1-3.5,1-7.2,4.5-8.2c6.8-2,13.7-3.8,20.5-5.4c0.5-0.1,1.1-0.2,1.6-0.2C2703.8,687,2706.5,689,2707.2,692.1z M2952.6,702.1
						c6.6,2.4,13.2,5.1,19.7,7.8c3.4,1.4,5,5.3,3.5,8.7c-1.4,3.4-5.3,5-8.7,3.5c-6.3-2.7-12.7-5.2-19.1-7.6
						c-3.4-1.3-5.2-5.1-3.9-8.5c1-2.7,3.6-4.4,6.3-4.3C2951.1,701.7,2951.9,701.8,2952.6,702.1z M2654.5,707.4
						c1.3,3.4-0.4,7.3-3.9,8.6c-6.4,2.4-12.8,5.1-19.1,7.8c-3.4,1.5-7.3-0.1-8.8-3.4c-1.5-3.4,0.1-7.3,3.4-8.8
						c6.5-2.8,13.1-5.5,19.7-8c0.8-0.3,1.6-0.4,2.4-0.4C2651,703.2,2653.5,704.8,2654.5,707.4z M3003.5,724.7
						c6.2,3.3,12.5,6.7,18.6,10.3c3.2,1.9,4.2,5.9,2.4,9.1c-1.9,3.2-5.9,4.2-9.1,2.4c-5.9-3.5-12-6.8-18-10c-3.3-1.7-4.5-5.7-2.8-9
						c1.2-2.3,3.5-3.6,6-3.6C3001.5,723.9,3002.6,724.2,3003.5,724.7z M2604.1,729.4c1.7,3.2,0.5,7.3-2.7,9
						c-6,3.2-12.1,6.6-17.9,10.2c-3.1,1.9-7.2,0.9-9.1-2.3c-1.9-3.2-0.9-7.2,2.3-9.1c6.1-3.6,12.3-7.2,18.5-10.5
						c1-0.5,2.1-0.8,3.2-0.8C2600.7,725.9,2603,727.2,2604.1,729.4z M3051.1,753.6c5.8,4,11.5,8.3,17.1,12.6
						c2.9,2.2,3.4,6.4,1.2,9.3c-2.2,2.9-6.4,3.4-9.3,1.2c-5.4-4.2-11-8.3-16.6-12.2c-3-2.1-3.7-6.2-1.6-9.3c1.3-1.9,3.4-2.9,5.5-2.8
						C3048.7,752.4,3050,752.8,3051.1,753.6z M3094.7,788.3c5.2,4.7,10.4,9.7,15.4,14.6c2.6,2.6,2.6,6.8,0,9.4
						c-2.6,2.6-6.8,2.6-9.4,0c-4.8-4.8-9.9-9.6-14.9-14.2c-2.7-2.5-2.9-6.7-0.5-9.4c1.3-1.5,3.2-2.2,5-2.2
						C3091.9,786.6,3093.5,787.1,3094.7,788.3z M3133.6,828.2c4.6,5.4,9.1,10.9,13.4,16.5c2.3,2.9,1.7,7.1-1.2,9.3
						c-2.9,2.2-7.1,1.7-9.3-1.2c-4.2-5.4-8.6-10.8-13-16c-2.4-2.8-2.1-7,0.7-9.4c1.3-1.1,2.8-1.6,4.4-1.6
						C3130.4,825.9,3132.3,826.7,3133.6,828.2z M3167.1,872.8c3.9,5.9,7.7,12,11.2,18.1c1.9,3.2,0.8,7.2-2.4,9.1
						c-3.2,1.9-7.2,0.8-9.1-2.4c-3.5-5.9-7.1-11.8-10.9-17.5c-2-3.1-1.2-7.2,1.9-9.2c1.1-0.8,2.4-1.1,3.7-1.1
						C3163.7,869.8,3165.8,870.8,3167.1,872.8z M3194.6,921.3c3.1,6.4,6.1,12.9,8.8,19.4c1.4,3.4-0.1,7.3-3.5,8.7
						c-3.4,1.4-7.3-0.1-8.7-3.5c-2.7-6.3-5.6-12.6-8.6-18.8c-1.6-3.3-0.2-7.3,3.1-8.9c1-0.5,2-0.7,3-0.7
						C3191.1,917.6,3193.5,918.9,3194.6,921.3z M3215.7,972.9c2.2,6.7,4.3,13.5,6.3,20.3c1,3.5-1.1,7.2-4.6,8.2
						c-3.5,1-7.2-1.1-8.2-4.6c-1.9-6.6-3.9-13.2-6.1-19.7c-1.2-3.5,0.7-7.2,4.2-8.4c0.7-0.2,1.5-0.4,2.2-0.3
						C3212.3,968.4,3214.8,970.1,3215.7,972.9z M3230.1,1026.7c1.4,6.9,2.6,14,3.6,20.9c0.5,3.6-2,7-5.6,7.5c-3.6,0.5-7-2-7.5-5.6
						c-1-6.8-2.2-13.6-3.5-20.3c-0.7-3.6,1.6-7.1,5.2-7.8c0.5-0.1,0.9-0.1,1.4-0.1C3226.7,1021.4,3229.4,1023.6,3230.1,1026.7z
						 M3237.4,1082c0.1,1.4,0.2,2.9,0.3,4.3c0.3,5.6,0.6,11.3,0.7,16.9c0.1,3.7-2.8,6.7-6.5,6.8c-3.6,0.1-6.7-2.8-6.8-6.5
						c-0.1-5.4-0.3-10.9-0.7-16.4c-0.1-1.4-0.2-2.8-0.3-4.2c-0.3-3.7,2.5-6.8,6.2-7.1c0.2,0,0.4,0,0.5,0
						C3234.3,1075.8,3237.2,1078.5,3237.4,1082z M3231.5,1130.7c3.7,0.2,6.5,3.3,6.3,7c-0.4,7.1-1,14.2-1.7,21.2
						c-0.4,3.6-3.6,6.3-7.3,5.9c-3.7-0.4-6.3-3.7-5.9-7.3c0.7-6.8,1.3-13.7,1.7-20.5c0.2-3.6,3.2-6.3,6.7-6.3
						C3231.3,1130.7,3231.4,1130.7,3231.5,1130.7z"/>
					<linearGradient id="SVGID_11_" gradientUnits="userSpaceOnUse" x1="2536.2256" y1="764.7531" x2="2558.0938" y2="764.7531">
						<stop  offset="0" style="stop-color:#FF928E"/>
						<stop  offset="1" style="stop-color:#FE7062"/>
					</linearGradient>
					<path fill="url(#SVGID_11_)" d="M2551.5,755c-1.4,0-2.7,0.4-3.9,1.2c-2.9,2.1-5.8,4.2-8.7,6.4c-2.9,2.2-3.5,6.4-1.3,9.3
						c2.2,2.9,6.4,3.5,9.3,1.3c2.8-2.1,5.6-4.2,8.4-6.2c3-2.1,3.7-6.3,1.6-9.3C2555.6,756,2553.6,755,2551.5,755z"/>
				</g>
				<g>
					<linearGradient id="SVGID_12_" gradientUnits="userSpaceOnUse" x1="3168.0737" y1="455.9429" x2="2665.031" y2="1361.42">
						<stop  offset="0" style="stop-color:#FF928E"/>
						<stop  offset="1" style="stop-color:#FE7062"/>
					</linearGradient>
					<path fill="url(#SVGID_12_)" d="M2522.8,932.9c-1.4,1.7-1.6,4.1-0.4,6l32.6,53.8c-13.1,26.3-22.2,54.8-26.4,84.8l-57.3,25.8
						c-2,0.9-3.2,3-3,5.2l6.9,75.1c0.2,2.2,1.8,4,3.9,4.5l61,15c9.6,28.7,23.6,55.1,41.3,78.5l-22.3,58.8c-0.8,2.1-0.2,4.4,1.5,5.8
						l58,48.2c1.7,1.4,4.1,1.6,6,0.4l53.8-32.6c26.3,13.1,54.8,22.2,84.8,26.4l25.8,57.3c0.9,2,3,3.2,5.2,3l75.1-6.9
						c2.2-0.2,4-1.8,4.5-3.9l15-61c28.7-9.6,55.1-23.6,78.5-41.3l58.8,22.3c2.1,0.8,4.4,0.2,5.8-1.5l48.2-58c1.4-1.7,1.6-4.1,0.4-6
						l-32.6-53.8c13.1-26.3,22.2-54.8,26.4-84.8l57.3-25.8c2-0.9,3.2-3,3-5.2l-6.9-75.1c-0.2-2.2-1.8-4-3.9-4.5l-61-15
						c-9.6-28.7-23.6-55.1-41.3-78.5l22.3-58.8c0.8-2.1,0.2-4.4-1.5-5.8l-58-48.2c-1.7-1.4-4.1-1.6-6-0.4l-53.8,32.6
						c-26.3-13.1-54.8-22.2-84.8-26.4l-25.8-57.3c-0.9-2-3-3.2-5.2-3l-75.1,6.9c-2.2,0.2-4,1.8-4.5,3.9l-15,61
						c-28.7,9.6-55.1,23.6-78.5,41.3l-58.8-22.3c-2.1-0.8-4.4-0.2-5.8,1.5L2522.8,932.9z"/>
					<path fill="#FFFFFF" d="M2812.7,1044.3c19.1,3,35.9,13.2,47.2,28.9c11.4,15.6,16,34.7,13,53.8s-13.2,35.9-28.9,47.2
						c-15.6,11.4-34.7,16-53.8,13c-19.1-3-35.8-13.2-47.2-28.9c-11.4-15.6-16-34.7-13-53.8c3-19.1,13.2-35.8,28.9-47.2
						c12.7-9.2,27.7-14,43.1-13.9C2805.6,1043.4,2809.2,1043.7,2812.7,1044.3z M2837.8,1165.6c13.3-9.7,22.1-24,24.6-40.3
						c2.6-16.3-1.4-32.6-11.1-45.9c-9.7-13.3-24-22.1-40.3-24.6l0,0c-16.3-2.5-32.6,1.4-45.9,11.1c-13.3,9.7-22.1,24-24.6,40.3
						c-2.6,16.3,1.4,32.6,11.1,45.9c9.7,13.3,24,22.1,40.3,24.6c3,0.5,6.1,0.7,9.1,0.8C2814.2,1177.5,2827,1173.5,2837.8,1165.6z"/>
					<path fill="#FFFFFF" d="M2804.6,932.2c-6.2-0.1-12.5,0.2-18.8,0.8l0,0c-2.5,0.2-5,0.5-7.5,0.8c-8.8,1.2-17.5,3-25.9,5.3
						c-0.2,0.1-0.5,0.1-0.7,0.2c-1.5,0.4-2.9,0.9-4.4,1.3c-1.1,0.4-1.9,1.4-1.9,2.5c0,0.3,0,0.5,0.1,0.8c0.4,1.4,1.9,2.2,3.3,1.7
						c12.1-3.8,24.7-6.3,37.5-7.5h0c63.3-5.8,122,22.2,158.3,69c18.7,24.2,31.5,53.3,35.8,85.5c0.3,2.6,0.6,5.1,0.9,7.7
						c0.6,6.2,0.8,12.3,0.8,18.4c-0.4,41.2-14.8,80.6-41.5,112.7c-30.6,36.8-73.8,59.5-121.5,63.9c-98.5,9-186-63.7-195-162.2
						c-0.6-6.1-0.8-12.1-0.7-18.2c0.3-26.2,6.3-52.2,17.6-75.8c0.2-0.4,0.3-0.7,0.3-1.1c0-1-0.5-2-1.5-2.4c-1.3-0.6-2.9-0.1-3.5,1.2
						c-11.7,24.4-17.9,51.1-18.2,78.1c-0.1,6.2,0.2,12.5,0.8,18.7c9.3,101.4,99.4,176.4,200.8,167.1c49.1-4.5,93.6-27.9,125.1-65.8
						c27.5-33,42.3-73.6,42.7-116c0.1-6.3-0.2-12.6-0.8-19C2977.9,1004.9,2898.1,933,2804.6,932.2z"/>
				</g>
			</g>
			<g>
				<g opacity="0.3">
					<linearGradient id="SVGID_13_" gradientUnits="userSpaceOnUse" x1="1986.9181" y1="657.6978" x2="1996.8683" y2="657.6978">
						<stop  offset="0" style="stop-color:#FF928E"/>
						<stop  offset="1" style="stop-color:#FE7062"/>
					</linearGradient>
					<path fill="url(#SVGID_13_)" d="M1993.2,649.5c-1.6,0-3.1,1-3.6,2.6c-0.9,3-1.8,6-2.6,9c-0.5,2,0.7,4,2.6,4.5
						c2,0.5,4-0.7,4.5-2.6c0.8-2.9,1.6-5.9,2.5-8.8c0.6-2-0.5-4-2.5-4.6C1993.9,649.6,1993.5,649.5,1993.2,649.5z"/>
					<linearGradient id="SVGID_14_" gradientUnits="userSpaceOnUse" x1="1978.2832" y1="834.8083" x2="2368.0349" y2="834.8083">
						<stop  offset="0" style="stop-color:#FF928E"/>
						<stop  offset="1" style="stop-color:#FE7062"/>
					</linearGradient>
					<path fill="url(#SVGID_14_)" d="M1987.2,676.9c2,0.4,3.3,2.3,3,4.3c-1.1,6.1-2.1,12.2-2.8,18.4c-0.2,2-2,3.4-4.1,3.3
						c-2-0.2-3.5-2.1-3.3-4.1c0.7-6.3,1.7-12.7,2.9-18.9c0.3-1.8,1.9-3,3.7-3C1986.7,676.8,1986.9,676.9,1987.2,676.9z
						 M1982.4,714.3c2,0.1,3.6,1.8,3.6,3.9c-0.1,2.7-0.2,5.4-0.2,8c0,3.5,0,7,0.1,10.5c0.1,2-1.5,3.8-3.6,3.8
						c-2,0.1-3.8-1.5-3.8-3.6c-0.1-3.6-0.2-7.2-0.1-10.8c0-2.8,0.1-5.5,0.2-8.3c0.1-2,1.7-3.6,3.7-3.6
						C1982.3,714.3,1982.3,714.3,1982.4,714.3z M1987.1,755.3c0.6,6.1,1.5,12.3,2.6,18.4c0.4,2-1,3.9-3,4.3c-2,0.4-3.9-1-4.3-3
						c-1.1-6.2-2-12.6-2.6-18.9c-0.2-2,1.3-3.9,3.3-4.1c0.1,0,0.3,0,0.4,0C1985.3,752,1986.9,753.4,1987.1,755.3z M1993.5,791.8
						c1.5,6,3.3,12,5.2,17.8c0.6,1.9-0.4,4-2.4,4.7c-1.9,0.6-4-0.4-4.7-2.4c-2-6-3.8-12.2-5.3-18.4c-0.5-2,0.7-4,2.7-4.5
						c0.3-0.1,0.6-0.1,0.9-0.1C1991.6,789,1993.1,790.2,1993.5,791.8z M2005.2,827.1c2.4,5.7,5,11.4,7.7,16.9c0.9,1.8,0.2,4.1-1.6,5
						c-1.8,0.9-4.1,0.2-5-1.7c-2.9-5.7-5.5-11.5-8-17.4c-0.8-1.9,0.1-4.1,2-4.8c0.5-0.2,1-0.3,1.5-0.3
						C2003.2,824.8,2004.6,825.7,2005.2,827.1z M2021.9,860.3c3.2,5.3,6.6,10.5,10.1,15.6c1.2,1.7,0.8,4-0.9,5.2
						c-1.7,1.2-4,0.8-5.2-0.9c-3.6-5.2-7.1-10.6-10.4-16.1c-1-1.8-0.5-4,1.3-5.1c0.6-0.4,1.3-0.5,1.9-0.5
						C2020,858.5,2021.2,859.1,2021.9,860.3z M2043.2,890.7c3.9,4.8,8,9.5,12.3,14c1.4,1.5,1.3,3.8-0.2,5.2
						c-1.5,1.4-3.8,1.3-5.2-0.2c-4.4-4.6-8.6-9.5-12.6-14.4c-1.3-1.6-1.1-3.9,0.5-5.2c0.7-0.6,1.5-0.8,2.4-0.8
						C2041.4,889.4,2042.5,889.8,2043.2,890.7z M2068.7,917.7c4.5,4.2,9.3,8.2,14.1,12.1c1.6,1.3,1.9,3.6,0.6,5.2
						c-1.3,1.6-3.6,1.9-5.2,0.6c-5-4-9.9-8.1-14.5-12.4c-1.5-1.4-1.6-3.7-0.2-5.2c0.7-0.8,1.8-1.2,2.8-1.2
						C2067.1,916.8,2068,917.1,2068.7,917.7z M2097.7,940.8c5.1,3.5,10.4,6.8,15.7,9.9c1.8,1,2.4,3.3,1.3,5.1
						c-1,1.8-3.3,2.4-5.1,1.3c-5.5-3.2-10.9-6.6-16.2-10.2c-1.7-1.2-2.1-3.5-1-5.2c0.7-1.1,1.9-1.6,3.1-1.6
						C2096.4,940.2,2097.1,940.4,2097.7,940.8z M2367.6,956.9c1,1.8,0.3,4.1-1.5,5c-5.6,3-11.4,5.8-17.2,8.4c-1.9,0.8-4.1,0-4.9-1.9
						c-0.8-1.9,0-4.1,1.9-4.9c5.6-2.5,11.3-5.2,16.7-8.1c0.6-0.3,1.2-0.4,1.8-0.4C2365.7,955,2366.9,955.7,2367.6,956.9z
						 M2129.8,959.5c5.5,2.7,11.3,5.2,17,7.5c1.9,0.8,2.8,2.9,2.1,4.8c-0.8,1.9-2.9,2.8-4.8,2.1c-5.9-2.4-11.8-5-17.5-7.8
						c-1.8-0.9-2.6-3.1-1.7-5c0.7-1.3,2-2.1,3.4-2.1C2128.8,959.1,2129.3,959.2,2129.8,959.5z M2333.4,972.7
						c0.7,1.9-0.3,4.1-2.2,4.7c-6,2.1-12.1,4.1-18.2,5.8c-2,0.6-4-0.6-4.6-2.6c-0.5-2,0.6-4,2.6-4.6c6-1.7,11.9-3.5,17.7-5.6
						c0.4-0.2,0.9-0.2,1.3-0.2C2331.4,970.2,2332.8,971.2,2333.4,972.7z M2164.3,973.3c5.9,1.9,11.9,3.6,17.9,5
						c2,0.5,3.2,2.5,2.7,4.5c-0.5,2-2.5,3.2-4.5,2.7c-6.2-1.5-12.4-3.2-18.4-5.1c-2-0.6-3-2.7-2.4-4.7c0.5-1.6,2-2.6,3.6-2.6
						C2163.5,973.1,2163.9,973.2,2164.3,973.3z M2297.2,983.3c0.4,2-0.9,4-2.9,4.4c-6.2,1.2-12.6,2.3-18.9,3.1
						c-2,0.2-3.9-1.2-4.1-3.2c-0.3-2,1.2-3.9,3.2-4.1c6.1-0.8,12.3-1.8,18.3-3c0.3-0.1,0.5-0.1,0.8-0.1
						C2295.3,980.3,2296.8,981.5,2297.2,983.3z M2200.4,982c6.1,1,12.3,1.8,18.4,2.3c2,0.2,3.5,2,3.4,4c-0.2,2-2,3.5-4,3.4
						c-6.3-0.6-12.7-1.4-19-2.4c-2-0.3-3.4-2.2-3.1-4.3c0.3-1.8,1.9-3.1,3.7-3.1C2200,981.9,2200.2,982,2200.4,982z M2259.8,988.5
						c0.1,2-1.5,3.8-3.5,3.9c-5.6,0.3-11.3,0.4-16.9,0.4l-2.2,0c-2,0-3.7-1.7-3.6-3.8c0-2,1.7-3.7,3.7-3.6c0,0,0,0,0,0l2.1,0
						c5.5,0.1,11-0.1,16.5-0.4c0.1,0,0.2,0,0.2,0C2258.1,985,2259.7,986.5,2259.8,988.5z"/>
					<linearGradient id="SVGID_15_" gradientUnits="userSpaceOnUse" x1="2377.0833" y1="946.5944" x2="2392.2451" y2="946.5944">
						<stop  offset="0" style="stop-color:#FF928E"/>
						<stop  offset="1" style="stop-color:#FE7062"/>
					</linearGradient>
					<path fill="url(#SVGID_15_)" d="M2388.6,940.3c-0.7,0-1.5,0.2-2.1,0.6c-2.5,1.7-5.1,3.4-7.6,5c-1.7,1.1-2.2,3.4-1.2,5.1
						c1.1,1.7,3.4,2.2,5.1,1.2c2.7-1.7,5.3-3.4,7.9-5.2c1.7-1.2,2.1-3.5,1-5.2C2390.9,940.9,2389.7,940.4,2388.6,940.3z"/>
				</g>
				<g opacity="0.3">
					<linearGradient id="SVGID_16_" gradientUnits="userSpaceOnUse" x1="2492.9966" y1="778.6596" x2="2502.1804" y2="778.6596">
						<stop  offset="0" style="stop-color:#FF928E"/>
						<stop  offset="1" style="stop-color:#FE7062"/>
					</linearGradient>
					<path fill="url(#SVGID_16_)" d="M2498.5,770.4c-1.8,0-3.4,1.3-3.7,3.1c-0.5,3-1.1,6-1.7,9c-0.4,2,0.9,4,2.9,4.4
						c2,0.4,4-0.8,4.4-2.8c0.7-3.1,1.2-6.1,1.8-9.2c0.4-2-1-3.9-3-4.3C2498.9,770.4,2498.7,770.4,2498.5,770.4z"/>
					<linearGradient id="SVGID_17_" gradientUnits="userSpaceOnUse" x1="2105.5715" y1="612.2806" x2="2505.9666" y2="612.2806">
						<stop  offset="0" style="stop-color:#FF928E"/>
						<stop  offset="1" style="stop-color:#FE7062"/>
					</linearGradient>
					<path fill="url(#SVGID_17_)" d="M2251.3,465.1c6.3,0.2,12.6,0.7,18.8,1.3c2,0.2,3.5,2,3.3,4.1c-0.2,2-2,3.6-4.1,3.3
						c-6-0.6-12.1-1.1-18.2-1.3c-2-0.1-3.7-1.8-3.6-3.8C2247.5,466.7,2249.2,465.1,2251.3,465.1
						C2251.2,465.1,2251.3,465.1,2251.3,465.1z M2236.3,468.7c0.1,2-1.5,3.8-3.6,3.8c-1.9,0.1-3.9,0.2-5.8,0.3
						c-4.1,0.2-8.3,0.6-12.4,1c-2,0.2-3.9-1.3-4.1-3.3c-0.2-2,1.3-3.9,3.3-4.1c4.2-0.5,8.5-0.8,12.8-1.1c2-0.1,4-0.2,6-0.3
						c0.1,0,0.1,0,0.2,0C2234.6,465.2,2236.2,466.7,2236.3,468.7z M2288.7,469.1c6.2,1.1,12.4,2.4,18.4,4c2,0.5,3.2,2.5,2.7,4.5
						c-0.5,2-2.5,3.2-4.5,2.7c-5.9-1.5-11.9-2.8-17.9-3.8c-2-0.4-3.4-2.3-3-4.3c0.3-1.8,1.9-3.1,3.7-3.1
						C2288.3,469,2288.5,469,2288.7,469.1z M2199.4,472.2c0.4,2-1,3.9-3,4.3c-6,1.1-12,2.4-17.9,3.9c-2,0.5-4-0.7-4.5-2.7
						c-0.5-2,0.7-4,2.7-4.5c6-1.5,12.2-2.9,18.4-4c0.2,0,0.5-0.1,0.7-0.1C2197.5,469.2,2199.1,470.4,2199.4,472.2z M2325.1,478.3
						c5.9,2,11.8,4.2,17.6,6.5c1.9,0.8,2.8,2.9,2,4.8c-0.8,1.9-2.9,2.8-4.8,2c-5.6-2.3-11.4-4.5-17.1-6.4c-1.9-0.6-3-2.7-2.4-4.7
						c0.5-1.6,2-2.6,3.6-2.5C2324.4,478.1,2324.7,478.2,2325.1,478.3z M2163.3,480.8c0.6,1.9-0.4,4-2.3,4.7
						c-5.8,1.9-11.5,4.1-17.1,6.4c-1.9,0.8-4.1-0.1-4.8-2c-0.8-1.9,0.1-4.1,2-4.8c5.8-2.4,11.7-4.6,17.6-6.6
						c0.4-0.1,0.8-0.2,1.2-0.2C2161.4,478.3,2162.8,479.3,2163.3,480.8z M2359.8,492.6c5.6,2.8,11.1,5.8,16.5,9
						c1.8,1,2.3,3.3,1.3,5.1c-1,1.8-3.3,2.4-5.1,1.3c-5.2-3.1-10.6-6-16.1-8.7c-1.8-0.9-2.6-3.1-1.7-5c0.7-1.3,2-2.1,3.4-2.1
						C2358.8,492.2,2359.3,492.4,2359.8,492.6z M2128.9,494.6c0.9,1.8,0.2,4.1-1.7,5c-5.4,2.7-10.8,5.7-16,8.8c-1.8,1-4,0.5-5.1-1.3
						c-1-1.8-0.5-4,1.3-5.1c5.4-3.2,10.9-6.2,16.5-9c0.5-0.3,1.1-0.4,1.7-0.4C2126.9,492.5,2128.2,493.3,2128.9,494.6z
						 M2392.2,511.7c5.2,3.6,10.2,7.4,15.1,11.2c1.6,1.3,1.9,3.6,0.6,5.2c-1.3,1.6-3.6,1.8-5.2,0.6c-4.7-3.8-9.6-7.5-14.7-10.9
						c-1.7-1.2-2.1-3.5-0.9-5.2c0.7-1.1,1.9-1.6,3.1-1.6C2390.8,511.1,2391.6,511.3,2392.2,511.7z M2421.5,535.3
						c4.6,4.3,9.1,8.7,13.3,13.3c1.4,1.5,1.3,3.8-0.2,5.2c-1.5,1.4-3.8,1.3-5.2-0.2c-4.1-4.4-8.5-8.8-13-12.9
						c-1.5-1.4-1.6-3.7-0.2-5.2c0.7-0.8,1.7-1.2,2.8-1.2C2419.9,534.3,2420.8,534.6,2421.5,535.3z M2447.2,562.7
						c3.9,4.9,7.8,9.9,11.3,15c1.2,1.7,0.8,4-0.9,5.2c-1.7,1.2-4,0.8-5.2-0.9c-3.5-5-7.2-9.9-11-14.6c-1.3-1.6-1-3.9,0.5-5.2
						c0.7-0.6,1.5-0.8,2.4-0.8C2445.5,561.4,2446.5,561.8,2447.2,562.7z M2468.8,593.5c3.2,5.4,6.3,10.9,9.1,16.5
						c0.9,1.8,0.2,4.1-1.6,5c-1.8,0.9-4.1,0.2-5-1.6c-2.7-5.4-5.7-10.8-8.8-16c-1.1-1.8-0.5-4,1.3-5.1c0.6-0.4,1.3-0.5,1.9-0.5
						C2466.9,591.8,2468.1,592.4,2468.8,593.5z M2485.8,627.1c2.4,5.8,4.6,11.7,6.6,17.6c0.7,1.9-0.4,4-2.3,4.7
						c-1.9,0.6-4-0.4-4.7-2.3c-1.9-5.7-4.1-11.5-6.4-17.1c-0.8-1.9,0.1-4.1,2-4.8c0.5-0.2,1-0.3,1.5-0.3
						C2483.8,624.9,2485.2,625.7,2485.8,627.1z M2497.7,662.8c1.6,6,2.9,12.2,4,18.4c0.4,2-1,3.9-3,4.3c-2,0.3-3.9-1-4.3-3
						c-1.1-6-2.4-12-3.9-17.8c-0.5-2,0.7-4,2.7-4.5c0.3-0.1,0.6-0.1,1-0.1C2495.8,660,2497.3,661.1,2497.7,662.8z M2504.5,699.8
						c0.5,4.4,0.9,8.9,1.1,13.4c0.1,1.8,0.2,3.6,0.3,5.4c0.1,2-1.5,3.8-3.6,3.9c-2,0.1-3.8-1.5-3.9-3.6c-0.1-1.7-0.2-3.5-0.3-5.2
						c-0.3-4.3-0.6-8.7-1.1-13c-0.2-2,1.2-3.9,3.3-4.1c0.2,0,0.3,0,0.4,0C2502.7,696.5,2504.3,697.9,2504.5,699.8z M2502.4,733.5
						c2,0.1,3.7,1.8,3.6,3.8c-0.2,6.3-0.6,12.6-1.3,18.8c-0.2,2-2,3.5-4.1,3.3c-2-0.2-3.5-2-3.3-4.1c0.6-6,1-12.2,1.2-18.2
						C2498.6,735.1,2500.3,733.5,2502.4,733.5L2502.4,733.5z"/>
					<linearGradient id="SVGID_18_" gradientUnits="userSpaceOnUse" x1="2082.3208" y1="518.0086" x2="2097.2385" y2="518.0086">
						<stop  offset="0" style="stop-color:#FF928E"/>
						<stop  offset="1" style="stop-color:#FE7062"/>
					</linearGradient>
					<path fill="url(#SVGID_18_)" d="M2093.6,511.6c-0.7,0-1.5,0.2-2.2,0.7c-2.6,1.8-5.1,3.6-7.6,5.5c-1.6,1.2-2,3.6-0.7,5.2
						c1.2,1.6,3.6,2,5.2,0.7c2.4-1.8,4.9-3.6,7.4-5.4c1.7-1.2,2.1-3.5,0.9-5.2C2095.9,512.2,2094.7,511.6,2093.6,511.6z"/>
				</g>
				<g>
					<linearGradient id="SVGID_19_" gradientUnits="userSpaceOnUse" x1="2341.7136" y1="554.27" x2="2100.252" y2="983.5345">
						<stop  offset="0" style="stop-color:#FF928E"/>
						<stop  offset="1" style="stop-color:#FE7062"/>
					</linearGradient>
					<path fill="url(#SVGID_19_)" d="M2073.9,620.4c-0.9,1-1,2.5-0.3,3.6l19.7,32.5c-7.9,15.9-13.4,33.1-15.9,51.2l-34.6,15.6
						c-1.2,0.5-1.9,1.8-1.8,3.1l4.2,45.4c0.1,1.3,1.1,2.4,2.4,2.7l36.9,9.1c5.8,17.3,14.3,33.3,25,47.5l-13.5,35.5
						c-0.5,1.2-0.1,2.7,0.9,3.5l35,29.2c1,0.9,2.5,1,3.6,0.3L2168,880c15.9,7.9,33.1,13.4,51.2,15.9l15.6,34.6
						c0.5,1.2,1.8,1.9,3.1,1.8l45.4-4.2c1.3-0.1,2.4-1.1,2.7-2.4l9.1-36.9c17.3-5.8,33.3-14.3,47.5-25l35.5,13.5
						c1.2,0.5,2.7,0.1,3.5-0.9l29.2-35c0.9-1,1-2.5,0.3-3.6l-19.7-32.5c7.9-15.9,13.4-33.1,15.9-51.2l34.6-15.6
						c1.2-0.5,1.9-1.8,1.8-3.1l-4.2-45.4c-0.1-1.3-1.1-2.4-2.4-2.7l-36.9-9.1c-5.8-17.3-14.3-33.3-25-47.5l13.5-35.5
						c0.5-1.2,0.1-2.7-0.9-3.5l-35-29.2c-1-0.9-2.5-1-3.6-0.3l-32.5,19.7c-15.9-7.9-33.1-13.4-51.2-15.9l-15.6-34.6
						c-0.5-1.2-1.8-1.9-3.1-1.8l-45.4,4.2c-1.3,0.1-2.4,1.1-2.7,2.4l-9.1,36.9c-17.3,5.8-33.3,14.3-47.5,25l-35.5-13.5
						c-1.2-0.5-2.7-0.1-3.5,0.9L2073.9,620.4z"/>
					<path fill="#FFFFFF" d="M2249.2,687.3c24.1,3.8,40.6,26.4,36.8,50.5c-1.8,11.7-8.1,21.9-17.6,28.9c-9.5,7-21.2,9.8-32.9,7.9
						c-11.7-1.8-21.9-8.1-28.9-17.6c-6.9-9.5-9.8-21.2-7.9-32.9c1.8-11.7,8.1-21.9,17.6-28.9c7.8-5.7,16.9-8.6,26.3-8.5
						C2244.8,686.8,2247,686.9,2249.2,687.3z M2264,760.7c7.9-5.8,13.2-14.3,14.7-24c3.1-20-10.6-38.9-30.6-42h0
						c-9.7-1.5-19.4,0.8-27.4,6.6c-7.9,5.8-13.2,14.3-14.7,24c-1.5,9.7,0.8,19.4,6.6,27.4c5.8,7.9,14.3,13.2,24,14.7
						c1.8,0.3,3.6,0.4,5.4,0.5C2249.9,767.8,2257.5,765.4,2264,760.7z"/>
					<path fill="#FFFFFF" d="M2244.2,617.9c-3.8,0-7.7,0.1-11.5,0.5l0,0c-0.2,0-0.3,0-0.5,0c-7.8,0.7-15.4,2.3-22.8,4.6
						c-0.1,0-0.3,0.1-0.4,0.1c-1.6,0.5-2.6,1.9-2.6,3.5c0,0.4,0.1,0.8,0.2,1.1c0.6,2,2.7,3,4.6,2.4c7.2-2.2,14.6-3.7,22.2-4.4l0,0
						c0,0,0.1,0,0.1,0c41.1-3.7,78.8,16.5,99.5,49.1c8.7,13.8,14.4,29.7,16,47c0.3,3.6,0.5,7.2,0.4,10.8
						c-0.5,53.8-41.9,99.7-96.6,104.8c-28.3,2.6-55.9-6-77.7-24.1c-21.8-18.2-35.3-43.7-37.9-72c-0.3-3.6-0.5-7.2-0.4-10.8
						c0.1-15.6,3.7-30.9,10.5-44.9c0.2-0.5,0.4-1,0.4-1.6c0-1.4-0.8-2.7-2.1-3.4c-1.8-0.9-4.1-0.1-5,1.7c-7.2,15-11,31.4-11.2,48.1
						c0,3.8,0.1,7.7,0.5,11.5c2.8,30.3,17.2,57.6,40.5,77c23.3,19.4,52.9,28.6,83.1,25.8c58.6-5.4,102.8-54.5,103.3-112.1
						c0-3.8-0.1-7.7-0.5-11.6C2350.9,662.7,2301.8,618.4,2244.2,617.9z"/>
				</g>
			</g>
		</g>
		<g>
			
				<linearGradient id="SVGID_20_" gradientUnits="userSpaceOnUse" x1="-6988.29" y1="3165.5432" x2="-6778.4473" y2="3165.5432" gradientTransform="matrix(1 0 0 1 7869.0601 0)">
				<stop  offset="0" style="stop-color:#4F52FF"/>
				<stop  offset="1" style="stop-color:#4042E2"/>
			</linearGradient>
			<path fill="url(#SVGID_20_)" d="M1084.7,3155.4c-35.9,3.1-98.3,8.2-147.5,10.3c-29.6,1.3-46.6-1.6-56.4-5.5c0,1.1,0,2.1,0.1,3.1
				c0.2,5.2,4.4,9.3,9.7,9.6c92.9,5.2,166.9,1.8,193.2,0.2c5.4-0.3,8.7-6.2,5.9-10.9C1088.2,3159.9,1086.5,3157.6,1084.7,3155.4z"/>
			
				<linearGradient id="SVGID_21_" gradientUnits="userSpaceOnUse" x1="-6988.3022" y1="3124.4167" x2="-6784.373" y2="3124.4167" gradientTransform="matrix(1 0 0 1 7869.0601 0)">
				<stop  offset="0" style="stop-color:#09005D"/>
				<stop  offset="1" style="stop-color:#1A0F91"/>
			</linearGradient>
			<path fill="url(#SVGID_21_)" d="M937.2,3165.7c49.2-2.2,111.6-7.2,147.5-10.3c-35.3-43.4-147.5-72.6-147.5-72.6h-31.7
				c-21.8,31.4-24.9,61.3-24.7,77.4C890.6,3164.1,907.6,3167,937.2,3165.7z"/>
			
				<linearGradient id="SVGID_22_" gradientUnits="userSpaceOnUse" x1="-6968.917" y1="3066.9985" x2="-6909.8081" y2="3066.9985" gradientTransform="matrix(1 0 0 1 7869.0601 0)">
				<stop  offset="0" style="stop-color:#FEBBBA"/>
				<stop  offset="1" style="stop-color:#FF928E"/>
			</linearGradient>
			<path fill="url(#SVGID_22_)" d="M900.1,3031.1l3,58.7c0.3,6.4,5.1,11.7,11.4,12.6c6.3,0.9,14.8,1,23.8-2
				c5.5-1.8,9.6-6.5,10.7-12.2l10.2-57.1H900.1z"/>
			<g>
				
					<linearGradient id="SVGID_23_" gradientUnits="userSpaceOnUse" x1="-7362.8311" y1="3217.5774" x2="-7282.416" y2="3217.5774" gradientTransform="matrix(1 0 0 1 7869.0601 0)">
					<stop  offset="0" style="stop-color:#4F52FF"/>
					<stop  offset="1" style="stop-color:#4042E2"/>
				</linearGradient>
				<path fill="url(#SVGID_23_)" d="M532.4,3223.1c-15.6-2.8-22.6-13.3-25.6-24.5c0,0.1,0,0.2-0.1,0.3c-2.3,11.8,3,24,13.7,29.9
					c12.8,7,26.9,8.2,37.8,7.6c11.7-0.6,22.4-6.9,28.3-16.9l0.1-0.2C574.9,3226.9,558.4,3227.8,532.4,3223.1z"/>
				
					<linearGradient id="SVGID_24_" gradientUnits="userSpaceOnUse" x1="-7362.2461" y1="3137.5549" x2="-7244.2124" y2="3137.5549" gradientTransform="matrix(1 0 0 1 7869.0601 0)">
					<stop  offset="0" style="stop-color:#09005D"/>
					<stop  offset="1" style="stop-color:#1A0F91"/>
				</linearGradient>
				<path fill="url(#SVGID_24_)" d="M605.9,3049.2h-26.1c-39.8-1.1-64.8,107.4-73,149.5c3,11.2,10,21.7,25.6,24.5
					c26,4.7,42.5,3.8,54.2-3.7c21.5-36.6,32.2-90.1,37.3-121.4C629.8,3062.4,605.9,3049.2,605.9,3049.2z"/>
			</g>
			
				<linearGradient id="SVGID_25_" gradientUnits="userSpaceOnUse" x1="-7300.894" y1="3036.1758" x2="-7230.2534" y2="3036.1758" gradientTransform="matrix(1 0 0 1 7869.0601 0)">
				<stop  offset="0" style="stop-color:#FEBBBA"/>
				<stop  offset="1" style="stop-color:#FF928E"/>
			</linearGradient>
			<path fill="url(#SVGID_25_)" d="M583.1,2994.7l-14.5,57.7c-1.8,7.1,1.6,14.4,8.1,17.8c8.1,4.2,19.5,8.5,30,7.3
				c4.9-0.6,9-4.1,10.7-8.7l21.3-60.7L583.1,2994.7z"/>
			<linearGradient id="SVGID_26_" gradientUnits="userSpaceOnUse" x1="2211.7717" y1="1723.2323" x2="1802.6304" y2="2011.6434">
				<stop  offset="0" style="stop-color:#09005D"/>
				<stop  offset="1" style="stop-color:#1A0F91"/>
			</linearGradient>
			<path fill="url(#SVGID_26_)" d="M1093.5,2234.7c0,0-129.7,810.5-127.5,814.9c0,0-35.8,16.3-74.9,2.1c0,0,11.7-433.3,39.2-599.4
				c0,0-221.3,387.2-291.6,580.2c0,0-36.7-4.4-67-24.3c0,0,238.3-697,301.8-789.9L1093.5,2234.7z"/>
			<polygon fill="#91B3FA" points="936.9,2445.1 985,2368.3 1020,2361.3 1019.3,2358.1 983,2365.4 934.2,2443.4 			"/>
			
				<linearGradient id="SVGID_27_" gradientUnits="userSpaceOnUse" x1="-6329.2666" y1="1548.209" x2="-6609.042" y2="1912.1893" gradientTransform="matrix(1 0 0 1 7869.0601 0)">
				<stop  offset="0" style="stop-color:#FEBBBA"/>
				<stop  offset="1" style="stop-color:#FF928E"/>
			</linearGradient>
			<path fill="url(#SVGID_27_)" d="M1688.5,1441c0,0-87.5,19.3-140.7,43.9c-10.6,4.9-19,13.4-23.8,23.9
				c-15.9,34.9-63.5,122.3-155.9,164c13.3,17.7,34.7,54.4,44,116.1c55.5-41.3,103.3-110.2,126.3-223.3c0,0,17.5,9.5,39.3-1.1
				c11.5-5.6,24.9-13.6,34.9-19.8c10-6.2,17.4-15.9,20.3-27.2c3.8-14.9,1.6-28.1,1.6-42.1l45-13.9
				C1679.5,1461.4,1693.1,1456.3,1688.5,1441z"/>
			<linearGradient id="SVGID_28_" gradientUnits="userSpaceOnUse" x1="1535.6964" y1="612.174" x2="1158.4318" y2="1522.6387">
				<stop  offset="0" style="stop-color:#FF928E"/>
				<stop  offset="1" style="stop-color:#FE7062"/>
			</linearGradient>
			<path fill="url(#SVGID_28_)" d="M1412.2,1788.9c-9.3-61.7-30.7-98.4-44-116.1c-57.4,25.9-132,34.2-227,1.3
				c-8.8-3-17.9-4.8-27.2-5.4c-50.6-3-217.3-8.4-355.2,37.2c-29,9.6-52.5,31.1-64.7,58.9c-37.3,85.6-97.7,280.6,70,379.1
				c12.9-32,27.8-57.7,40.5-76.6c-27-45.6-35-107.8,12.9-188.8c34.9,94.4,51.3,232.1,54.8,293c1.1,20.1-2.4,40.1-10.3,58.6l-0.9,2
				c-1.7,4,0.6,8.5,4.9,9.5c94.4,21.2,192.6,15.4,221.9,13c5.2-0.4,9.6-4.2,10.8-9.2c45.9-193.4,46-325.4,34.8-408.8
				C1176.4,1846.1,1307.8,1866.6,1412.2,1788.9z"/>
			<linearGradient id="SVGID_29_" gradientUnits="userSpaceOnUse" x1="1786.2123" y1="337.2648" x2="692.9312" y2="2691.5044">
				<stop  offset="0" style="stop-color:#FDF53F"/>
				<stop  offset="1" style="stop-color:#D93C65"/>
			</linearGradient>
			<path fill="url(#SVGID_29_)" d="M1100.2,1719c0,0,22.5,35.4,33.5,118.9L1100.2,1719z"/>
			
				<linearGradient id="SVGID_30_" gradientUnits="userSpaceOnUse" x1="-6952.8804" y1="1783.4551" x2="-6922.2725" y2="1622.7634" gradientTransform="matrix(1 0 0 1 7869.0601 0)">
				<stop  offset="0" style="stop-color:#FEBBBA"/>
				<stop  offset="1" style="stop-color:#FF928E"/>
			</linearGradient>
			<path fill="url(#SVGID_30_)" d="M900.7,1556.1c0,0-9.6,101-18,130.9c-1.3,4.5,0.7,9.3,4.8,11.7c14.3,8.2,48.5,21.5,95.3-1.5
				c7.6-3.7,12.1-11.6,11.8-20l-4.1-97.6L900.7,1556.1z"/>
			<g>
				
					<linearGradient id="SVGID_31_" gradientUnits="userSpaceOnUse" x1="-6870.0601" y1="1488.6372" x2="-7044.6968" y2="1622.2609" gradientTransform="matrix(1 0 0 1 7869.0601 0)">
					<stop  offset="0" style="stop-color:#FEBBBA"/>
					<stop  offset="1" style="stop-color:#FF928E"/>
				</linearGradient>
				<path fill="url(#SVGID_31_)" d="M992.6,1426.9c0,0,30.5,70.2,32.6,107c2.1,36.8,10,60.7-32.6,68.2
					c-42.6,7.4-78.5-13.8-97.9-50.5c0,0-30.5-56.5-23.6-79.7C877.9,1448.7,992.6,1426.9,992.6,1426.9z"/>
				
					<linearGradient id="SVGID_32_" gradientUnits="userSpaceOnUse" x1="-6992.9966" y1="1382.8362" x2="-6830.3496" y2="1592.2435" gradientTransform="matrix(1 0 0 1 7869.0601 0)">
					<stop  offset="0" style="stop-color:#09005D"/>
					<stop  offset="1" style="stop-color:#1A0F91"/>
				</linearGradient>
				<path fill="url(#SVGID_32_)" d="M909.2,1525.2l2.4-1.1c3.1-1.4,4.4-5,2.9-8c-6-11.6-17.7-38.2-2.6-44.4
					c19.5-8,96.7-23.7,113.4-51.1c16-26.3,1.8-60.3-19.5-70c-1.4-0.6-3.1-0.1-3.8,1.3l-1.8,3.4c-1.2,2.3-4.6,2-5.3-0.5v0
					c-0.7-2.4-3.9-2.9-5.2-0.7c-5.1,8.2-18.9,21.5-55.9,28.3c-52.5,9.7-87.3,31-88.1,67.3c-0.1,2.3-2.5,3.6-4.5,2.4
					c-3.9-2.4-10.1-3.5-18.4,3.5c-14.4,12.1-8.5,43.6,23.1,69.5c1.5,1.2,1.5,3.6-0.1,4.6c-5.7,3.7-14.3,12.6,7.9,24.5
					c22.9,12.2,40,11.2,46.6,10.2c1.6-0.3,2.7-1.9,2.3-3.5l-7-31.9c-0.4-1.8,1-3.5,2.8-3.5H909.2z"/>
				
					<linearGradient id="SVGID_33_" gradientUnits="userSpaceOnUse" x1="-6891.7212" y1="1460.3265" x2="-7066.3584" y2="1593.9509" gradientTransform="matrix(1 0 0 1 7869.0601 0)">
					<stop  offset="0" style="stop-color:#FEBBBA"/>
					<stop  offset="1" style="stop-color:#FF928E"/>
				</linearGradient>
				<path fill="url(#SVGID_33_)" d="M910.6,1531.9c0,0-11.7-44.8-31.8-32.3c-20.1,12.6,10.4,50.2,26.6,51.9L910.6,1531.9z"/>
			</g>
			<linearGradient id="SVGID_34_" gradientUnits="userSpaceOnUse" x1="1910.489" y1="855.3836" x2="1682.4426" y2="1308.1221">
				<stop  offset="0" style="stop-color:#FEBBBA"/>
				<stop  offset="1" style="stop-color:#FF928E"/>
			</linearGradient>
			<path fill="url(#SVGID_34_)" d="M1561.9,1554.7c-0.7,0-1.5-0.2-2.1-0.8c-1.4-1.2-1.7-3.3-0.5-4.7c3.3-4.1,32.6-39.9,43.8-46.2
				c4.3-2.4,6.8-4.9,7.3-7.2c0.3-1.3,0.1-2.7-0.7-4.3l-35,7l-19.6,16.9c-1.4,1.2-3.5,1-4.7-0.4s-1-3.5,0.4-4.7l20.3-17.4
				c0.4-0.4,1-0.6,1.5-0.7l38.2-7.7c1.3-0.3,2.7,0.3,3.4,1.4c2.7,4,3.6,7.8,2.8,11.4c-1,4.3-4.5,8.1-10.5,11.5
				c-8.6,4.8-33.2,33.9-41.9,44.6C1563.8,1554.3,1562.8,1554.7,1561.9,1554.7z"/>
			
				<linearGradient id="SVGID_35_" gradientUnits="userSpaceOnUse" x1="-6822.4775" y1="1957.7957" x2="-6922.6885" y2="2108.1121" gradientTransform="matrix(1 0 0 1 7869.0601 0)">
				<stop  offset="0" style="stop-color:#FEBBBA"/>
				<stop  offset="1" style="stop-color:#FF928E"/>
			</linearGradient>
			<path fill="url(#SVGID_35_)" d="M909.7,2212.9l137.9-3c0,0-120.2-34-127.7-24.7c0,0-74.5-49-115.3-117.8
				c-12.7,18.9-27.6,44.6-40.5,76.6C800.7,2165.4,848.8,2202.7,909.7,2212.9z"/>
			
				<linearGradient id="SVGID_36_" gradientUnits="userSpaceOnUse" x1="3550.5027" y1="1982.0743" x2="3452.3086" y2="2129.3655" gradientTransform="matrix(-1 0 0 1 4397.1772 0)">
				<stop  offset="0" style="stop-color:#FEBBBA"/>
				<stop  offset="1" style="stop-color:#FF928E"/>
			</linearGradient>
			<path fill="url(#SVGID_36_)" d="M905.8,2189c0,0-2.8,54.9,69.3,47c39.2-4.3,102.4-40.9,102.4-40.9S912.6,2194.6,905.8,2189z"/>
			<g>
				
					<linearGradient id="SVGID_37_" gradientUnits="userSpaceOnUse" x1="4499.0552" y1="2392.9849" x2="4222.9146" y2="2468.6677" gradientTransform="matrix(-0.9988 -4.940000e-02 -4.940000e-02 0.9988 5487.793 -55.0328)">
					<stop  offset="0" style="stop-color:#09005D"/>
					<stop  offset="1" style="stop-color:#1A0F91"/>
				</linearGradient>
				<path fill="url(#SVGID_37_)" d="M934.1,2203.7c0.3,0,0.5,0,0.8,0l342.8-0.4c8.5,0,15.3-6.8,15.3-15.2c0-8.4-6.9-15.3-15.4-15.2
					l-342.8,0.4c-8.5,0-15.3,6.8-15.3,15.2C919.5,2196.7,926,2203.3,934.1,2203.7z"/>
				
					<linearGradient id="SVGID_38_" gradientUnits="userSpaceOnUse" x1="4195.9282" y1="1936.6174" x2="4001.1458" y2="2142.4902" gradientTransform="matrix(-1 0 0 1 5446.3242 0)">
					<stop  offset="0" style="stop-color:#09005D"/>
					<stop  offset="1" style="stop-color:#1A0F91"/>
				</linearGradient>
				<path fill="url(#SVGID_38_)" d="M1585.7,1895.8h-285.5c-21.1,0-40.2,12-49.2,30.9l-132,276.9h354.7c13.6,0,25.8-8.2,30.8-20.7
					l102.3-256.2C1612.8,1911.9,1601.8,1895.8,1585.7,1895.8z"/>
				<path fill="#91B3FA" d="M1384.6,2037.8c-6.2,19-1.6,37.5,10.2,41.2c11.8,3.8,26.4-8.6,32.6-27.6c6.2-19,1.6-37.5-10.2-41.2
					C1405.4,2006.4,1390.8,2018.8,1384.6,2037.8z"/>
			</g>
		</g>
		<g>
			<g>
				<path fill="#7D97F4" d="M1718.5,675.8c-2.8-0.1-5-2.3-5.1-5.2c-0.5-28.9-9.4-172.2-134.1-202.2
					C1440.5,435.1,1377,578.1,1377,578.1s-171.7-66.7-204.7,112c-107.7,26.2-135.7,168.6-65.6,238.1c11.1,11.1,26,17.3,41.6,17.4
					l674.4,6.2c19.8,0.2,37.3-12.9,43-32.2C1886.8,847.6,1914.4,680.5,1718.5,675.8z"/>
				<path fill="#91B3FA" d="M1703.1,678.9c-2.8-0.1-5-2.3-5.1-5.1c-0.6-27.7-9.4-160.6-126.8-188.5
					c-131.3-31.1-191.3,102.3-191.3,102.3s-162.4-62.3-193.5,104.5c-100.9,24.2-127.8,154.9-63.9,220.5c11.2,11.5,26.4,18,42.4,18.2
					l634.9,5.7c19.8,0.2,37.4-13,43-32.3C1862.5,835.9,1886,683.3,1703.1,678.9z"/>
			</g>
			<g>
				<path fill="#FFFFFF" d="M1463.6,797.7l-60,2.4l-6.9-171.6c-0.1-2.2,1.6-4,3.8-4.1l51.9-2.1c2.3-0.1,4.2,1.7,4.3,4L1463.6,797.7z
					"/>
				<path fill="#FFFFFF" d="M1386.1,797.5c0,0,36.7,65.1,49.1,84.8c1.6,2.6,5.5,2.3,6.8-0.5l40.7-87.7c1.5-2.6,0.1-6.7-2.2-6.6
					l-92.5,3.7C1386,791.4,1384.9,794.9,1386.1,797.5z"/>
			</g>
			<g>
				<path fill="#FFFFFF" d="M1510.6,708.5l60.1-0.9l2.5,171.8c0,2.2-1.7,3.9-3.9,4l-52,0.8c-2.3,0-4.2-1.8-4.2-4.1L1510.6,708.5z"/>
				<path fill="#FFFFFF" d="M1588.1,710.6c0,0-35-66-46.9-86c-1.6-2.7-5.5-2.5-6.8,0.3l-42.9,86.6c-1.5,2.5-0.3,6.6,2,6.6l92.6-1.4
					C1588.1,716.8,1589.2,713.2,1588.1,710.6z"/>
			</g>
		</g>
	</g>
	<g>
	</g>
	<g>
	</g>
	<g>
	</g>
	<g>
	</g>
	<g>
	</g>
	<g>
	</g>
	<g>
	</g>
	<g>
	</g>
	<g>
	</g>
	<g>
	</g>
	<g>
	</g>
	<g>
	</g>
	<g>
	</g>
	<g>
	</g>
	<g>
	</g>
</g>
</svg>
