<?xml version="1.0" encoding="utf-8"?>
<!-- Generator: Adobe Illustrator 25.2.1, SVG Export Plug-In . SVG Version: 6.00 Build 0)  -->
<svg version="1.1" xmlns="http://www.w3.org/2000/svg" xmlns:xlink="http://www.w3.org/1999/xlink" x="0px" y="0px"
	 viewBox="0 0 3710 3710" enable-background="new 0 0 3710 3710" xml:space="preserve">
<g id="Background">
</g>
<g id="Illustration">
	<g>
		<linearGradient id="SVGID_1_" gradientUnits="userSpaceOnUse" x1="3456.5471" y1="3267.2173" x2="1407.1082" y2="1473.9596">
			<stop  offset="0" style="stop-color:#DAE3FE"/>
			<stop  offset="1" style="stop-color:#E9EFFD"/>
		</linearGradient>
		<path fill="url(#SVGID_1_)" d="M3108.2,2335.9c-264.9,623.7-970.4,973-1582.3,878.8c-99.6-15.3-372.5-61-614.2-276.5
			c-465.2-414.9-564.7-1236.4-189.4-1815.3c273.1-421.4,762.7-660.2,1228-648.3c100.2,2.6,484.3,18.4,821.8,296.7
			c49.6,40.9,158.9,138,257.5,292.1C3261,1425.3,3280.9,1929.4,3108.2,2335.9z"/>
		<g>
			<linearGradient id="SVGID_2_" gradientUnits="userSpaceOnUse" x1="710.6176" y1="1774.9083" x2="1220.7448" y2="1882.9354">
				<stop  offset="0" style="stop-color:#4F52FF"/>
				<stop  offset="1" style="stop-color:#4042E2"/>
			</linearGradient>
			<path fill="url(#SVGID_2_)" d="M661.4,1359.6L847.2,1563c-116.3,87.7-189.3,259.9,5.4,464.6l-261.7,126.9
				C407.5,1833.2,433.4,1579.4,661.4,1359.6z"/>
			<path fill="#7D97F4" d="M551.9,2080.7l180.3,2.9l32.4-177.6c99,203.4,333.1,288.4,600.9,201.7l135.2,251.4
				C1114.2,2535.2,723,2444.8,551.9,2080.7z"/>
			<linearGradient id="SVGID_3_" gradientUnits="userSpaceOnUse" x1="2535.0554" y1="1020.1954" x2="2499.2117" y2="1656.4244">
				<stop  offset="0" style="stop-color:#4F52FF"/>
				<stop  offset="1" style="stop-color:#4042E2"/>
			</linearGradient>
			<path fill="url(#SVGID_3_)" d="M2064.1,1811.9c146.2-288.9,532-395.5,809.4-237.3l281.2-93.1c-328.4-438.1-925.2-355-1296,82.8
				L2064.1,1811.9z"/>
			<path fill="#91B3FA" d="M2712.8,2117.8l119.3,278.7c435.3-181.3,567.1-795.3,174-1065.8l2.9,180.6l-185,38.5
				C3096.5,1678.9,2975.1,2045.2,2712.8,2117.8z"/>
			<path fill="#7D97F4" d="M1935.8,2196.6c412.4,296.6,773.3,335.3,1061.1,99.6l-202.5-72l56.4-180.4
				c-252.5,175.3-487.2,118.2-712.5-61.2L1935.8,2196.6z"/>
			<path fill="#7D97F4" d="M661.4,1359.6l0,195.4l185.9,8c120.5-78.2,295-71.9,514.7-1.6l127.7-283
				C1155.8,1135.5,882.1,1169.6,661.4,1359.6z"/>
			<linearGradient id="SVGID_4_" gradientUnits="userSpaceOnUse" x1="1517.7701" y1="1278.1588" x2="2423.9946" y2="2868.5515">
				<stop  offset="0" style="stop-color:#4F52FF"/>
				<stop  offset="1" style="stop-color:#4042E2"/>
			</linearGradient>
			<path fill="url(#SVGID_4_)" d="M1362,1561.5L1257.6,1344l232.1-65.5c150.8,78.6,272.2,174.9,369.1,286
				c106.7,235,253.2,435.7,436.4,521.3l-240.4,2.5l37,209.7c-94.2-56.4-185.1-119.7-265.1-188.8l-180.5-321
				C1583.2,1692.6,1495.3,1614.7,1362,1561.5z"/>
			<path fill="#91B3FA" d="M1858.7,1564.4c-70.6,75.5-116.8,186.8-183.2,265.9c-105.8,126.2-237.8,289.2-476,310.4l194.4,100.6
				l-115.8,189.8c388.4-77.2,660.2-330.6,785.9-619.2v-277.8L1858.7,1564.4z"/>
		</g>
		<g>
			<path fill="#7D97F4" d="M1924.7,756.5l945.4-4.1c9-0.1,16.4,7.3,16.3,16.3l-2,330.9c-0.1,9.1-7.6,16.4-16.7,16.1
				c-83.4-2.5-937.8-13.5-954.2-12.8c-16.1,0.7-7.4-260.7-5-330.8C1908.9,763.4,1916,756.5,1924.7,756.5z"/>
			<path fill="#FFFFFF" d="M2868.3,1102.9l-0.1,0c-53.3-1.6-563.9-8-809.3-11c-71.7-0.9-122.7-1.5-136.3-1.7l-1.3,0l-0.2-1.2
				c-5.8-32.7-5.7-142.1,0.3-316.3c0.1-1.8,1.5-3.3,3.4-3.3l945.4-4.1c0.9,0,1.8,0.4,2.4,1c0.6,0.6,1,1.5,1,2.4l-2,330.9
				C2871.6,1101.3,2870.1,1102.9,2868.3,1102.9z M1924,1087.1c15.3,0.2,65.3,0.8,135,1.7c245.4,3.1,756,9.4,809.3,11l0.1,0
				c0.1,0,0.2-0.2,0.2-0.3l2-330.9l-0.3-1.9l0,1.5l-945.4,4.1c-0.2,0-0.3,0.1-0.3,0.3C1918.6,944.5,1918.4,1053.1,1924,1087.1z"/>
			<linearGradient id="SVGID_5_" gradientUnits="userSpaceOnUse" x1="1965.1348" y1="841.9199" x2="2340.6223" y2="841.9199">
				<stop  offset="0" style="stop-color:#DAE3FE"/>
				<stop  offset="1" style="stop-color:#E9EFFD"/>
			</linearGradient>
			<path opacity="0.7" fill="url(#SVGID_5_)" d="M1965.1,841.9L1965.1,841.9c0,8.9,3,16.2,6.7,16.2H2334c3.7,0,6.7-7.3,6.7-16.2l0,0
				c0-8.9-3-16.2-6.7-16.2h-362.1C1968.1,825.7,1965.1,833,1965.1,841.9z"/>
			<linearGradient id="SVGID_6_" gradientUnits="userSpaceOnUse" x1="1965.1348" y1="897.1589" x2="2340.6223" y2="897.1589">
				<stop  offset="0" style="stop-color:#DAE3FE"/>
				<stop  offset="1" style="stop-color:#E9EFFD"/>
			</linearGradient>
			<path opacity="0.7" fill="url(#SVGID_6_)" d="M1965.1,897.2L1965.1,897.2c0,8.9,3,16.2,6.7,16.2H2334c3.7,0,6.7-7.3,6.7-16.2l0,0
				c0-8.9-3-16.2-6.7-16.2h-362.1C1968.1,881,1965.1,888.2,1965.1,897.2z"/>
			<linearGradient id="SVGID_7_" gradientUnits="userSpaceOnUse" x1="1965.1348" y1="952.3981" x2="2340.6223" y2="952.3981">
				<stop  offset="0" style="stop-color:#DAE3FE"/>
				<stop  offset="1" style="stop-color:#E9EFFD"/>
			</linearGradient>
			<path opacity="0.7" fill="url(#SVGID_7_)" d="M1965.1,952.4L1965.1,952.4c0,8.9,3,16.2,6.7,16.2H2334c3.7,0,6.7-7.3,6.7-16.2l0,0
				c0-8.9-3-16.2-6.7-16.2h-362.1C1968.1,936.2,1965.1,943.4,1965.1,952.4z"/>
			<linearGradient id="SVGID_8_" gradientUnits="userSpaceOnUse" x1="1965.1348" y1="1007.637" x2="2340.6223" y2="1007.637">
				<stop  offset="0" style="stop-color:#DAE3FE"/>
				<stop  offset="1" style="stop-color:#E9EFFD"/>
			</linearGradient>
			<path opacity="0.7" fill="url(#SVGID_8_)" d="M1965.1,1007.6L1965.1,1007.6c0,8.9,3,16.2,6.7,16.2H2334c3.7,0,6.7-7.3,6.7-16.2
				l0,0c0-8.9-3-16.2-6.7-16.2h-362.1C1968.1,991.4,1965.1,998.7,1965.1,1007.6z"/>
			<g>
				<circle fill="#FFFFFF" cx="2432.4" cy="853.3" r="63"/>
				<circle fill="#FFFFFF" cx="2588.9" cy="853.3" r="63"/>
				<circle fill="#FFFFFF" cx="2745.5" cy="855.4" r="63"/>
				<g>
					<path fill="#7D97F4" d="M2469.8,840c1.9,4.7,3,9.9,3,15.4c0,22.3-18.1,40.5-40.5,40.5c-22.3,0-40.5-18.1-40.5-40.5
						c0-22.3,18.1-40.5,40.5-40.5c0.7,0,1.4,0,2,0.1v-10.3c-0.7,0-1.4,0-2,0c-28,0-50.7,22.7-50.7,50.7c0,28,22.7,50.7,50.7,50.7
						c28,0,50.7-22.7,50.7-50.7c0-6.9-1.4-13.5-3.9-19.5L2469.8,840z"/>
					<path fill="#7D97F4" d="M2609.8,889.6c-6.2,3.9-13.6,6.2-21.6,6.2c-22.3,0-40.5-18.1-40.5-40.5c0-22.3,18.1-40.5,40.5-40.5
						c0.7,0,1.4,0,2,0.1v-10.3c-0.7,0-1.4,0-2,0c-28,0-50.7,22.7-50.7,50.7c0,28,22.7,50.7,50.7,50.7c9.8,0,18.9-2.8,26.6-7.6
						L2609.8,889.6z"/>
					<path fill="#7D97F4" d="M2779.3,878.1c-7.3,10.7-19.6,17.7-33.5,17.7c-22.3,0-40.5-18.1-40.5-40.5c0-22.3,18.1-40.5,40.5-40.5
						c0.7,0,1.4,0,2,0.1v-10.3c-0.7,0-1.4,0-2,0c-28,0-50.7,22.7-50.7,50.7c0,28,22.7,50.7,50.7,50.7c17.3,0,32.6-8.7,41.8-22
						L2779.3,878.1z"/>
				</g>
				<g opacity="0.64">
					<linearGradient id="SVGID_9_" gradientUnits="userSpaceOnUse" x1="2369.3799" y1="954.6843" x2="2495.373" y2="954.6843">
						<stop  offset="0" style="stop-color:#DAE3FE"/>
						<stop  offset="1" style="stop-color:#E9EFFD"/>
					</linearGradient>
					<path fill="url(#SVGID_9_)" d="M2483.7,943H2381c-6.4,0-11.7,5.2-11.7,11.7s5.2,11.7,11.7,11.7h102.7c6.4,0,11.7-5.2,11.7-11.7
						S2490.1,943,2483.7,943z"/>
					<linearGradient id="SVGID_10_" gradientUnits="userSpaceOnUse" x1="2525.9446" y1="954.6843" x2="2651.937" y2="954.6843">
						<stop  offset="0" style="stop-color:#DAE3FE"/>
						<stop  offset="1" style="stop-color:#E9EFFD"/>
					</linearGradient>
					<path fill="url(#SVGID_10_)" d="M2640.3,943h-102.7c-6.4,0-11.7,5.2-11.7,11.7s5.2,11.7,11.7,11.7h102.7
						c6.4,0,11.7-5.2,11.7-11.7S2646.7,943,2640.3,943z"/>
					<linearGradient id="SVGID_11_" gradientUnits="userSpaceOnUse" x1="2682.5088" y1="954.6843" x2="2808.5015" y2="954.6843">
						<stop  offset="0" style="stop-color:#DAE3FE"/>
						<stop  offset="1" style="stop-color:#E9EFFD"/>
					</linearGradient>
					<path fill="url(#SVGID_11_)" d="M2694.2,966.4h102.7c6.4,0,11.7-5.2,11.7-11.7s-5.2-11.7-11.7-11.7h-102.7
						c-6.4,0-11.7,5.2-11.7,11.7S2687.7,966.4,2694.2,966.4z"/>
					<linearGradient id="SVGID_12_" gradientUnits="userSpaceOnUse" x1="2369.3799" y1="1025.3354" x2="2495.373" y2="1025.3354">
						<stop  offset="0" style="stop-color:#DAE3FE"/>
						<stop  offset="1" style="stop-color:#E9EFFD"/>
					</linearGradient>
					<path fill="url(#SVGID_12_)" d="M2483.7,979.3H2381c-6.4,0-11.7,5.2-11.7,11.7v68.7c0,6.4,5.2,11.7,11.7,11.7h102.7
						c6.4,0,11.7-5.2,11.7-11.7V991C2495.4,984.5,2490.1,979.3,2483.7,979.3z"/>
					<linearGradient id="SVGID_13_" gradientUnits="userSpaceOnUse" x1="2525.9446" y1="1025.3354" x2="2651.937" y2="1025.3354">
						<stop  offset="0" style="stop-color:#DAE3FE"/>
						<stop  offset="1" style="stop-color:#E9EFFD"/>
					</linearGradient>
					<path fill="url(#SVGID_13_)" d="M2640.3,979.3h-102.7c-6.4,0-11.7,5.2-11.7,11.7v68.7c0,6.4,5.2,11.7,11.7,11.7h102.7
						c6.4,0,11.7-5.2,11.7-11.7V991C2651.9,984.5,2646.7,979.3,2640.3,979.3z"/>
					<linearGradient id="SVGID_14_" gradientUnits="userSpaceOnUse" x1="2682.5088" y1="1025.3354" x2="2808.5015" y2="1025.3354">
						<stop  offset="0" style="stop-color:#DAE3FE"/>
						<stop  offset="1" style="stop-color:#E9EFFD"/>
					</linearGradient>
					<path fill="url(#SVGID_14_)" d="M2796.8,979.3h-102.7c-6.4,0-11.7,5.2-11.7,11.7v68.7c0,6.4,5.2,11.7,11.7,11.7h102.7
						c6.4,0,11.7-5.2,11.7-11.7V991C2808.5,984.5,2803.3,979.3,2796.8,979.3z"/>
				</g>
			</g>
		</g>
		<g>
			<g>
				
					<linearGradient id="SVGID_15_" gradientUnits="userSpaceOnUse" x1="6668.7334" y1="3052.2708" x2="6196.7134" y2="3565.6965" gradientTransform="matrix(1 9.500000e-03 -9.500000e-03 1 -4973.9507 -63.4747)">
					<stop  offset="0" style="stop-color:#09005D"/>
					<stop  offset="1" style="stop-color:#1A0F91"/>
				</linearGradient>
				<path fill="url(#SVGID_15_)" d="M1516.2,3089c0,0-5.2,27.6-7.8,55c-1,10.7,7.1,20.1,17.9,20.6c36.5,1.9,114.5,5.6,142.5,4.6
					c4.2-0.1,7-4.4,5.5-8.4l0,0c-1.3-3.3-3.8-6-7-7.5l-128.3-60.5L1516.2,3089z"/>
				
					<linearGradient id="SVGID_16_" gradientUnits="userSpaceOnUse" x1="6515.5229" y1="3090.3989" x2="6557.4502" y2="3090.3989" gradientTransform="matrix(1 9.500000e-03 -9.500000e-03 1 -4973.9507 -63.4747)">
					<stop  offset="0" style="stop-color:#FEBBBA"/>
					<stop  offset="1" style="stop-color:#FF928E"/>
				</linearGradient>
				<path fill="url(#SVGID_16_)" d="M1512.4,3072.7l3.6,33.1c0,0,22.5,10.7,38-1l-9-37L1512.4,3072.7z"/>
				
					<linearGradient id="SVGID_17_" gradientUnits="userSpaceOnUse" x1="6705.9258" y1="2471.6023" x2="6304.2549" y2="3016.0156" gradientTransform="matrix(1 9.500000e-03 -9.500000e-03 1 -4973.9507 -63.4747)">
					<stop  offset="0" style="stop-color:#09005D"/>
					<stop  offset="1" style="stop-color:#1A0F91"/>
				</linearGradient>
				<path fill="url(#SVGID_17_)" d="M1521.3,2450.4c-1.8,8.6-13.2,431.3,30.2,621.2c0.7,3.1-0.9,6.3-3.8,7.4
					c-7,2.8-20.6,6.7-36.9,7.1c-5,0.1-9.5-3.2-10.9-8.1c-12.5-44.1-72.3-264.9-78.4-475.3c-6.8-235.2,0.1-8,0.1-8l6.7-145.3
					L1521.3,2450.4z"/>
				
					<linearGradient id="SVGID_18_" gradientUnits="userSpaceOnUse" x1="6562.8438" y1="2954.9036" x2="6090.8042" y2="3468.3506" gradientTransform="matrix(1 9.500000e-03 -9.500000e-03 1 -4973.9507 -63.4747)">
					<stop  offset="0" style="stop-color:#09005D"/>
					<stop  offset="1" style="stop-color:#1A0F91"/>
				</linearGradient>
				<path fill="url(#SVGID_18_)" d="M1367.8,3102c0,0-7.9,13.9-15.8,51c-1.4,6.7,3.2,13.2,10,13.9c12,1.3,30.6,3,45.4,3
					c6.8,0,12.2-5.9,11.5-12.7c-1.5-13.6-6.4-35.8-22.1-53.3L1367.8,3102z"/>
				
					<linearGradient id="SVGID_19_" gradientUnits="userSpaceOnUse" x1="6364.4126" y1="3088.2427" x2="6400.6123" y2="3088.2427" gradientTransform="matrix(1 9.500000e-03 -9.500000e-03 1 -4973.9507 -63.4747)">
					<stop  offset="0" style="stop-color:#FEBBBA"/>
					<stop  offset="1" style="stop-color:#FF928E"/>
				</linearGradient>
				<path fill="url(#SVGID_19_)" d="M1361.4,3059.4l8.7,50.1c0,0,9,6.8,27,2.1l-3.9-53.9L1361.4,3059.4z"/>
				
					<linearGradient id="SVGID_20_" gradientUnits="userSpaceOnUse" x1="6634.3374" y1="2418.7849" x2="6232.6709" y2="2963.1921" gradientTransform="matrix(1 9.500000e-03 -9.500000e-03 1 -4973.9507 -63.4747)">
					<stop  offset="0" style="stop-color:#09005D"/>
					<stop  offset="1" style="stop-color:#1A0F91"/>
				</linearGradient>
				<path fill="url(#SVGID_20_)" d="M1342.3,2461.6c-39.1,222.7,2.8,551.3,17.3,615.7c0.9,3.9,4,7,8,7.7c6.8,1.2,17.9,2.2,28.9-0.9
					c3.8-1.1,6.5-4.5,6.7-8.4c2.5-51.9,1.9-370.8,37.5-496.5c1.8-6.4,5.8-11.9,11.2-15.7l67.3-46.9l5.9-76.8L1342.3,2461.6z"/>
				<g>
					
						<linearGradient id="SVGID_21_" gradientUnits="userSpaceOnUse" x1="5713.1104" y1="3828.6421" x2="5786.6694" y2="3474.2207" gradientTransform="matrix(-1 0 0 1 7569.6606 0)">
						<stop  offset="0" style="stop-color:#FF928E"/>
						<stop  offset="1" style="stop-color:#FE7062"/>
					</linearGradient>
					<path fill="url(#SVGID_21_)" d="M1581.8,2041.2c-110.7-2.9-233.2,26.9-233.2,26.9c-34.9,192.3-9.7,414.8-9.7,414.8
						c85.5,23.3,182.6-12,182.6-12c15-80.4,83.7-306.3,83.7-306.3c54.2-6.2,98.9-21.4,135.8-41.7c-27.7-32.7-40.5-74.2-46-98.6
						C1655.6,2036,1616,2042.1,1581.8,2041.2z"/>
					
						<linearGradient id="SVGID_22_" gradientUnits="userSpaceOnUse" x1="6688.1025" y1="1996.5399" x2="6902.3145" y2="1996.5399" gradientTransform="matrix(1 9.500000e-03 -9.500000e-03 1 -4973.9507 -63.4747)">
						<stop  offset="0" style="stop-color:#FEBBBA"/>
						<stop  offset="1" style="stop-color:#FF928E"/>
					</linearGradient>
					<path fill="url(#SVGID_22_)" d="M1910.5,1881.2c-10.8-13.2-24.6-7.2-24.6-7.2c-17,68.7-102.9,123.7-191,150.1
						c5.5,24.5,18.3,65.9,46,98.6C1887.4,2042.3,1910.5,1881.2,1910.5,1881.2z"/>
				</g>
				<g>
					<linearGradient id="SVGID_23_" gradientUnits="userSpaceOnUse" x1="1900.5684" y1="1954.5123" x2="1925.0879" y2="1791.7906">
						<stop  offset="0" style="stop-color:#FEBBBA"/>
						<stop  offset="1" style="stop-color:#FF928E"/>
					</linearGradient>
					<path fill="url(#SVGID_23_)" d="M1907.8,1884.6c1.1,3.6-12.1,9-19.8-5.9c-0.2-7.1-4.2-37.5,0.1-43.3c22.9-30.6,67-68.7,67-68.7
						c7.3,7.4,1.2,14.5,1.2,14.5l-21.4,21.9c4.4,8.1,9.7,14.9,12.2,24.6c1.9,7.4,0.6,15.2-3.2,21.9c-3.8,6.7-9,15.4-13.8,22.1
						C1920.8,1884.6,1907.8,1884.6,1907.8,1884.6z"/>
					
						<linearGradient id="SVGID_24_" gradientUnits="userSpaceOnUse" x1="6901.2876" y1="1851.7231" x2="6961.2646" y2="1759.5085" gradientTransform="matrix(1 9.500000e-03 -9.500000e-03 1 -4973.9507 -63.4747)">
						<stop  offset="0" style="stop-color:#FEBBBA"/>
						<stop  offset="1" style="stop-color:#FF928E"/>
					</linearGradient>
					<path fill="url(#SVGID_24_)" d="M1925.5,1817.4l-19.5,16.2l-6.2,16.3l17.1,19.3c0,0,6.1-32.4,10.5-39.3
						C1931.7,1822.9,1929.5,1819.4,1925.5,1817.4z"/>
				</g>
				
					<linearGradient id="SVGID_25_" gradientUnits="userSpaceOnUse" x1="5914.8687" y1="3870.5144" x2="5988.4277" y2="3516.0933" gradientTransform="matrix(-1 0 0 1 7569.6606 0)">
					<stop  offset="0" style="stop-color:#FF928E"/>
					<stop  offset="1" style="stop-color:#FE7062"/>
				</linearGradient>
				<path fill="url(#SVGID_25_)" d="M1390,2175.8l-41.5-107.6c0,0-104.1,69.3-122,158.3c19.5,1.6,55.1,7,89.7,25
					C1324.3,2209.3,1390,2175.8,1390,2175.8z"/>
				
					<linearGradient id="SVGID_26_" gradientUnits="userSpaceOnUse" x1="6219.3643" y1="2299.936" x2="6490.4429" y2="2299.936" gradientTransform="matrix(1 9.500000e-03 -9.500000e-03 1 -4973.9507 -63.4747)">
					<stop  offset="0" style="stop-color:#FEBBBA"/>
					<stop  offset="1" style="stop-color:#FF928E"/>
				</linearGradient>
				<path fill="url(#SVGID_26_)" d="M1479.5,2277.5c0,0-116.8,64.5-155.4,8.1c-8-11.7-9.9-23.3-7.8-34.3
					c-34.6-17.9-70.2-23.3-89.7-25c-5.4,26.8-2.9,55.4,12.6,84.4c67.5,126.2,255.4-4.5,255.4-4.5L1479.5,2277.5z"/>
				
					<linearGradient id="SVGID_27_" gradientUnits="userSpaceOnUse" x1="6427.5244" y1="2010.1421" x2="6534.7046" y2="2010.1421" gradientTransform="matrix(1 9.500000e-03 -9.500000e-03 1 -4973.9507 -63.4747)">
					<stop  offset="0" style="stop-color:#FEBBBA"/>
					<stop  offset="1" style="stop-color:#FF928E"/>
				</linearGradient>
				<path fill="url(#SVGID_27_)" d="M1470.5,1950.3l-36.2,101.6c-0.6,1.7,0.1,3.6,1.6,4.4c9.6,5.4,44,21.1,86-5
					c4.4-2.7,7.4-7.2,8.1-12.3l12.3-88.1L1470.5,1950.3z"/>
				<g>
					
						<linearGradient id="SVGID_28_" gradientUnits="userSpaceOnUse" x1="-758.129" y1="3003.469" x2="-798.1805" y2="2871.3696" gradientTransform="matrix(0.7523 -0.6588 0.6588 0.7523 159.4521 -818.1582)">
						<stop  offset="0" style="stop-color:#FEBBBA"/>
						<stop  offset="1" style="stop-color:#FF928E"/>
					</linearGradient>
					<path fill="url(#SVGID_28_)" d="M1548.1,1856.6c0,0,38,73.2,32.8,102.6c-5.2,29.4-53.2,26.8-94.8,2.5l-28.5-78.9L1548.1,1856.6
						z"/>
					
						<linearGradient id="SVGID_29_" gradientUnits="userSpaceOnUse" x1="-794.2606" y1="2773.3049" x2="-760.7582" y2="2964.3931" gradientTransform="matrix(0.7523 -0.6588 0.6588 0.7523 159.4521 -818.1582)">
						<stop  offset="0" style="stop-color:#09005D"/>
						<stop  offset="1" style="stop-color:#1A0F91"/>
					</linearGradient>
					<path fill="url(#SVGID_29_)" d="M1488.2,1923.1c1.7-0.7,2.4-2.8,1.4-4.4c-3.1-4.8-8.8-14.5-10.5-23c0,0-6.9-4.5,17.8-10.2
						c24.7-5.7,61.6-14.5,69.5-35.4c7.7-20.4-11.6-72.1-43.6-31.3c-1.2,1.5-3.6,1.6-4.8,0c-5.1-6.8-18.6-20.9-37.6-12.6
						c-17.8,7.8-19.9,20.7-19.7,27.3c0.1,1.9-1.7,3.4-3.6,3c-8.9-1.8-30.4-3.5-40.6,18.5c-8.4,18.1-3.2,28.4,1.7,33.4
						c1.6,1.6,0.8,4.3-1.3,5c-5.9,1.7-13.5,6.7-12.9,20.4c0.9,19.1,22.2,17.6,28.2,16.8c1-0.1,2,0.2,2.7,1
						c5.1,5.8,28.3,30.4,53.6,33.6c2.2,0.3,3.9-1.9,3.2-4l-10.7-32c-0.5-1.5,0.2-3.1,1.7-3.7L1488.2,1923.1z"/>
					
						<linearGradient id="SVGID_30_" gradientUnits="userSpaceOnUse" x1="-799.0706" y1="3002.8523" x2="-835.1057" y2="2884" gradientTransform="matrix(0.7523 -0.6588 0.6588 0.7523 159.4521 -818.1582)">
						<stop  offset="0" style="stop-color:#FEBBBA"/>
						<stop  offset="1" style="stop-color:#FF928E"/>
					</linearGradient>
					<path fill="url(#SVGID_30_)" d="M1492.6,1927.7c0,0-27.4-19.2-29.5-3.3c-2.2,15.9,24.6,23.3,37.9,17.5L1492.6,1927.7z"/>
				</g>
				<g>
					<g>
						
							<linearGradient id="SVGID_31_" gradientUnits="userSpaceOnUse" x1="6272.9927" y1="2123.3015" x2="6422.5732" y2="2746.5557" gradientTransform="matrix(1 0 0 1 -4705.6621 0)">
							<stop  offset="0" style="stop-color:#09005D"/>
							<stop  offset="1" style="stop-color:#1A0F91"/>
						</linearGradient>
						<path fill="url(#SVGID_31_)" d="M1455.6,2379.5l63.6-222.2c0.7-2.5,2.9-4.4,5.5-4.7c11.5-1.3,44.9-5.1,83.5-8.4
							c46.4-3.9,100.4-7.1,132.6-4.4c4.6,0.4,7.4,5.2,5.3,9.4c-18.3,37.1-93.7,187.9-131.5,237.3c-1.3,1.6-3.2,2.6-5.2,2.6
							l-147.6-1.4C1457.5,2387.8,1454.4,2383.6,1455.6,2379.5z"/>
						
							<linearGradient id="SVGID_32_" gradientUnits="userSpaceOnUse" x1="6170.4956" y1="2288.1853" x2="6255.2446" y2="2288.1853" gradientTransform="matrix(1 0 0 1 -4705.6621 0)">
							<stop  offset="0" style="stop-color:#FEBBBA"/>
							<stop  offset="1" style="stop-color:#FF928E"/>
						</linearGradient>
						<path fill="url(#SVGID_32_)" d="M1471,2325.8c0,0-8.9-36.4-5.3-49.4c3.6-12.9,10.5-29.5,33.6-25.9
							c23.1,3.7,50.3,13.4,50.3,13.4s-1.4,16.8-18.9,11.4l10.9,8.4c0,0-1.6,13.5-16.4,6.3l10.1,11.2c0,0-6.4,11.1-17.3,4
							C1507.1,2298.2,1501.9,2330.2,1471,2325.8z"/>
					</g>
					<path fill="#91B3FA" d="M1603.9,2210.6c0,10.3,8.4,18.7,18.7,18.7c10.3,0,18.7-8.4,18.7-18.7c0-10.3-8.4-18.7-18.7-18.7
						C1612.3,2192,1603.9,2200.3,1603.9,2210.6z"/>
					<linearGradient id="SVGID_33_" gradientUnits="userSpaceOnUse" x1="1521.6509" y1="2188.074" x2="1703.5043" y2="2188.074">
						<stop  offset="0" style="stop-color:#DAE3FE"/>
						<stop  offset="1" style="stop-color:#E9EFFD"/>
					</linearGradient>
					<path fill="url(#SVGID_33_)" d="M1526.4,2222.9l-4.8-1.4l13-43.9c2.1-7.2,7.9-12.5,15.1-14c41.1-8.6,149.2-10.3,153.8-10.4
						l0.1,5c-1.1,0-112.2,1.8-152.8,10.3c-5.4,1.1-9.7,5.2-11.3,10.6L1526.4,2222.9z"/>
				</g>
			</g>
			<g>
				<path fill="#7D97F4" d="M773.6,2844.7c-6.8,10-33.7,237.2-37.9,321.1c-0.3,5.7,4.3,10.4,9.9,10.4l0,0c4.9,0,9.1-3.6,9.8-8.4
					l49.3-315.9L773.6,2844.7z"/>
				<path fill="#7D97F4" d="M990.2,2844.7c6.8,10,33.7,237.2,37.9,321.1c0.3,5.7-4.3,10.4-9.9,10.4l0,0c-4.9,0-9.1-3.6-9.8-8.4
					l-49.3-315.9L990.2,2844.7z"/>
				<path fill="#7D97F4" d="M732.8,2826.9l0,2.5c-0.2,17.8,15.2,32.4,34.4,32.8L995,2866c18.9,0.3,34.7-13.4,35.7-30.9l0.1-2.3
					c1-18.3-14.6-33.7-34.3-34.1l-227.9-4.1C749,2794.4,733,2808.8,732.8,2826.9z"/>
			</g>
			<g>
				<g>
					<path fill="#7D97F4" d="M1212.8,3157.5c-40.5,0-58.4-3.5-66.4-6.6c1.6,6.7,7.5,11.9,15,11.9h143.3c4.8,0,7.9-4.6,6.7-8.8
						C1295,3155.3,1260.3,3157.5,1212.8,3157.5z"/>
					<linearGradient id="SVGID_34_" gradientUnits="userSpaceOnUse" x1="1273.6248" y1="2839.1382" x2="1228.483" y2="3151.0269">
						<stop  offset="0" style="stop-color:#4F52FF"/>
						<stop  offset="1" style="stop-color:#4042E2"/>
					</linearGradient>
					<path fill="url(#SVGID_34_)" d="M1311.3,3154c-0.2-0.8-0.6-1.7-1.2-2.4c-10.9-13.9-32.8-35.8-62.7-35.4
						c-43.7,0.6-58.9,5.4-92.9,0.3l-8,26.6c-0.8,2.7-0.8,5.4-0.2,7.9c8,3.2,25.9,6.6,66.4,6.6
						C1260.3,3157.5,1295,3155.3,1311.3,3154z"/>
				</g>
				<linearGradient id="SVGID_35_" gradientUnits="userSpaceOnUse" x1="1154.5839" y1="3107.0422" x2="1199.2869" y2="3107.0422">
					<stop  offset="0" style="stop-color:#FEBBBA"/>
					<stop  offset="1" style="stop-color:#FF928E"/>
				</linearGradient>
				<path fill="url(#SVGID_35_)" d="M1164.4,3087.8l-9.8,33.4c0,0,21.8,9.9,40.9,2l3.8-29L1164.4,3087.8z"/>
				<g>
					<path fill="#7D97F4" d="M1461.4,3136.5c-31.6,25.4-47.7,33.9-55.9,36.5c5.4,4.2,13.3,4.5,19.1-0.1l111.7-89.7
						c3.8-3,3.3-8.5-0.2-11C1524.1,3083.2,1498.4,3106.7,1461.4,3136.5z"/>
					<linearGradient id="SVGID_36_" gradientUnits="userSpaceOnUse" x1="1497.2227" y1="2871.4983" x2="1452.0807" y2="3183.3894">
						<stop  offset="0" style="stop-color:#4F52FF"/>
						<stop  offset="1" style="stop-color:#4042E2"/>
					</linearGradient>
					<path fill="url(#SVGID_36_)" d="M1536,3072c-0.7-0.5-1.5-0.9-2.4-1.2c-17.2-4-47.9-7.2-70.9,11.8
						c-33.7,27.8-42.6,41.1-72.2,58.4l10.3,25.6c1.1,2.6,2.7,4.7,4.7,6.3c8.2-2.6,24.4-11.1,55.9-36.5
						C1498.4,3106.7,1524.1,3083.2,1536,3072z"/>
				</g>
				<linearGradient id="SVGID_37_" gradientUnits="userSpaceOnUse" x1="1664.0062" y1="2471.9927" x2="1162.4906" y2="2843.1138">
					<stop  offset="0" style="stop-color:#09005D"/>
					<stop  offset="1" style="stop-color:#1A0F91"/>
				</linearGradient>
				<path fill="url(#SVGID_37_)" d="M954.1,2706.8c0,0,242.5,19.8,292.2,43.2c49.7,23.4-40.6,351.6-40.6,351.6s-13.5,6.5-43.7-2.9
					c0,0,30.9-242.2,7.9-294.7l-262.6-42.9L954.1,2706.8z"/>
				<linearGradient id="SVGID_38_" gradientUnits="userSpaceOnUse" x1="1366.3185" y1="3110.8044" x2="1419.6875" y2="3110.8044">
					<stop  offset="0" style="stop-color:#FEBBBA"/>
					<stop  offset="1" style="stop-color:#FF928E"/>
				</linearGradient>
				<path fill="url(#SVGID_38_)" d="M1366.3,3094.9c2.3,2.1,24.1,46.1,24.1,46.1s24.3-5.3,29.3-20.6l-21.9-39.8L1366.3,3094.9z"/>
				<linearGradient id="SVGID_39_" gradientUnits="userSpaceOnUse" x1="1166.7933" y1="2855.3462" x2="1802.0784" y2="2417.3347">
					<stop  offset="0" style="stop-color:#09005D"/>
					<stop  offset="1" style="stop-color:#1A0F91"/>
				</linearGradient>
				<path fill="url(#SVGID_39_)" d="M808,2704.8c0,0-7.9,19-7.6,44.3c0.4,34.9,28.5,63.3,63.4,65l286.7,13.1
					c6.1,0.3,11.2,4.5,12.7,10.3c6.7,26.1,39.7,106.1,200.6,265.7c4.3,4.2,11,5,16.1,1.7l22.9-14.5c2.4-1.5,3.2-4.7,1.7-7.1
					l-166.9-285c-8.8-14.5-22.9-24.9-39.2-29.1l-244.3-62.5L808,2704.8z"/>
				<linearGradient id="SVGID_40_" gradientUnits="userSpaceOnUse" x1="1069.8717" y1="2358.7488" x2="1096.1835" y2="2292.3975">
					<stop  offset="0" style="stop-color:#FEBBBA"/>
					<stop  offset="1" style="stop-color:#FF928E"/>
				</linearGradient>
				<path fill="url(#SVGID_40_)" d="M1090.5,2259.5c0,0-30.7,54.3-62,80.6l64.7,36.1c0,0,14.6-57.5,47.9-74.3L1090.5,2259.5z"/>
				<linearGradient id="SVGID_41_" gradientUnits="userSpaceOnUse" x1="1247.0531" y1="2160.6111" x2="1163.463" y2="2374.6013">
					<stop  offset="0" style="stop-color:#FF928E"/>
					<stop  offset="1" style="stop-color:#FE7062"/>
				</linearGradient>
				<path fill="url(#SVGID_41_)" d="M802.8,2706.8c0,0,77.4,18.9,151.3,0c0,0,103.4-139,143.4-176.8c0,0,63.8,100.7,205.8,114.9
					l7.9-17.7c0,0-113-52.1-147.8-132.2c-34.8-80.1-48.8-114.2-80.4-135.1c-19.7-13-31.5-21.9-37.6-26.7c-3.3-2.7-7.9-3-11.6-0.7
					C1000.1,2353,842,2461.3,802.8,2706.8z"/>
				<linearGradient id="SVGID_42_" gradientUnits="userSpaceOnUse" x1="1093.2065" y1="1866.7546" x2="1068.1307" y2="2684.2219">
					<stop  offset="0" style="stop-color:#E1473D"/>
					<stop  offset="1" style="stop-color:#E9605A"/>
				</linearGradient>
				<path fill="url(#SVGID_42_)" d="M1093.2,2528.1c-1.5,0-3-0.7-3.9-1.9c-24.6-32.1-38.4-67.6-38.9-69c-1-2.6,0.3-5.4,2.9-6.4
					c2.6-1,5.4,0.3,6.4,2.9c0.1,0.4,13.8,35.6,37.6,66.6c1.7,2.2,1.3,5.3-0.9,7C1095.4,2527.7,1094.3,2528.1,1093.2,2528.1z"/>
				<linearGradient id="SVGID_43_" gradientUnits="userSpaceOnUse" x1="1294.6621" y1="2616.792" x2="1417.9382" y2="2616.792">
					<stop  offset="0" style="stop-color:#FEBBBA"/>
					<stop  offset="1" style="stop-color:#FF928E"/>
				</linearGradient>
				<path fill="url(#SVGID_43_)" d="M1294.7,2618l16-4.3l48.5-11.2c5.8-1.4,12-0.3,17.1,2.9l41.7,26.2l-115.2-0.2L1294.7,2618z"/>
				<g>
					
						<linearGradient id="SVGID_44_" gradientUnits="userSpaceOnUse" x1="3022.165" y1="2703.134" x2="2890.0571" y2="2804.2168" gradientTransform="matrix(0.9914 -0.1306 0.1306 0.9914 -2198.9988 -61.3823)">
						<stop  offset="0" style="stop-color:#FEBBBA"/>
						<stop  offset="1" style="stop-color:#FF928E"/>
					</linearGradient>
					<path fill="url(#SVGID_44_)" d="M1139.3,2178.1c0,0,29.8,49.6,35,77c5.2,27.4,13.5,44.6-17.7,54.3
						c-31.2,9.8-60.2-2.6-78.4-28.2c0,0-28.4-39.4-25.6-57.4C1055.4,2205.8,1139.3,2178.1,1139.3,2178.1z"/>
					
						<linearGradient id="SVGID_45_" gradientUnits="userSpaceOnUse" x1="2929.353" y1="2623.3391" x2="3048.981" y2="2777.3599" gradientTransform="matrix(0.9914 -0.1306 0.1306 0.9914 -2198.9988 -61.3823)">
						<stop  offset="0" style="stop-color:#09005D"/>
						<stop  offset="1" style="stop-color:#1A0F91"/>
					</linearGradient>
					<path fill="url(#SVGID_45_)" d="M1086.5,2260.1l4-0.5c0,0-21.1-31.9-7.3-39.9c13.8-7.9,70.2-27.4,80-49.6
						c9.4-21.4-4.7-45.6-21.7-50.6c-1.1-0.3-2.2,0.3-2.6,1.4l-1,2.7c-0.7,1.8-3.3,1.9-4.1,0.1l0,0c-0.7-1.7-3.2-1.8-4-0.1
						c-3,6.6-12.1,18-39.2,26.8c-38.5,12.5-62.4,31.8-59.5,59.2c0.2,1.7-1.5,2.9-3.1,2.2c-3.1-1.4-7.9-1.6-13.4,4.4
						c-9.6,10.5-2.1,33.5,24.2,49.8c1.2,0.8,1.5,2.5,0.4,3.5c-3.9,3.4-9.5,10.9,8.3,17.6c18.2,6.8,28.1,4.5,31.8,3.1
						c1-0.4,1.6-1.4,1.3-2.5l-4.7-23.9c-0.2-1.2,0.6-2.4,1.9-2.6L1086.5,2260.1z"/>
					
						<linearGradient id="SVGID_46_" gradientUnits="userSpaceOnUse" x1="3005.7781" y1="2681.7192" x2="2873.6711" y2="2782.8013" gradientTransform="matrix(0.9914 -0.1306 0.1306 0.9914 -2198.9988 -61.3823)">
						<stop  offset="0" style="stop-color:#FEBBBA"/>
						<stop  offset="1" style="stop-color:#FF928E"/>
					</linearGradient>
					<path fill="url(#SVGID_46_)" d="M1088.2,2265c0,0-13.2-32.5-27-21.1c-13.8,11.4,12.8,36.6,25.1,36.3L1088.2,2265z"/>
				</g>
			</g>
			<g>
				<g>
					
						<linearGradient id="SVGID_47_" gradientUnits="userSpaceOnUse" x1="15574.0176" y1="-17282.8633" x2="15244.3242" y2="-16964.1133" gradientTransform="matrix(-1.388 -6.860000e-02 -6.850000e-02 1.3855 -4690.1738 -570.6171)">
						<stop  offset="0" style="stop-color:#09005D"/>
						<stop  offset="1" style="stop-color:#1A0F91"/>
					</linearGradient>
					<path fill="url(#SVGID_47_)" d="M1250.2,2654.2c0.2,0,0.4,0,0.6,0l246.1-0.2c6.1,0,11-4.9,11-11c0-6.1-5-11.1-11-11l-246.1,0.2
						c-6.1,0-11,4.9-11,11C1239.7,2649.2,1244.3,2654,1250.2,2654.2z"/>
				</g>
				<g>
					
						<linearGradient id="SVGID_48_" gradientUnits="userSpaceOnUse" x1="12523.5264" y1="-17454.1328" x2="12193.8467" y2="-17135.3965" gradientTransform="matrix(0.6475 -1.2297 -1.2274 -0.6463 8775.9707 -5472.2012)">
						<stop  offset="0" style="stop-color:#09005D"/>
						<stop  offset="1" style="stop-color:#1A0F91"/>
					</linearGradient>
					<path fill="url(#SVGID_48_)" d="M1592.2,2413.2c-0.1,0.2-0.2,0.3-0.3,0.5L1488.4,2637c-2.6,5.5-0.2,12.1,5.3,14.6
						c5.5,2.6,12.2,0.2,14.6-5.4l103.6-223.3c2.6-5.5,0.2-12.1-5.3-14.6C1601.2,2405.9,1594.9,2408,1592.2,2413.2z"/>
				</g>
			</g>
			<g>
				<g>
					<rect x="2210.7" y="2878.6" fill="#7D97F4" width="26" height="280.9"/>
					<path fill="#7D97F4" d="M2337.5,3165h-227.5l0,0c0-9.3,7.6-16.9,16.9-16.9h193.7C2329.9,3148.1,2337.5,3155.7,2337.5,3165
						L2337.5,3165z"/>
					<path fill="#7D97F4" d="M2371.2,2868.9c0,15.4-12.6,27.9-27.9,27.9h-230.2c-15.4,0-27.9-12.6-27.9-27.9v-25.3
						c0-15.4,12.6-27.9,27.9-27.9h230.2c15.4,0,27.9,12.6,27.9,27.9V2868.9z"/>
				</g>
				<g>
					<linearGradient id="SVGID_49_" gradientUnits="userSpaceOnUse" x1="1940.1995" y1="2921.7983" x2="2124.9114" y2="2921.7983">
						<stop  offset="0" style="stop-color:#FEBBBA"/>
						<stop  offset="1" style="stop-color:#FF928E"/>
					</linearGradient>
					<path fill="url(#SVGID_49_)" d="M2031.9,2691.3c0,0-38.6,6-82,35c-6.8,4.6-10.6,12.5-9.5,20.7c5.2,41.2,26.6,174.4,97,304.5
						c3.7,6.9,4.8,14.9,3.1,22.5l-12.2,57l-22.7,21.3h58.5l38.9-105.4l-16.6-5.3c-12.9-4.1-21.8-16-22-29.5l-2-113
						c1.7-50.4-30.9-85.1-30.9-85.1l93.4-4.5L2031.9,2691.3z"/>
					<linearGradient id="SVGID_50_" gradientUnits="userSpaceOnUse" x1="2053.2175" y1="3042.1567" x2="2026.0494" y2="3458.7351">
						<stop  offset="0" style="stop-color:#4F52FF"/>
						<stop  offset="1" style="stop-color:#4042E2"/>
					</linearGradient>
					<path fill="url(#SVGID_50_)" d="M1982.8,3162.6c-5.3,7,57.3,16.2,89,0.9c0,0,43.9-76.3,43.9-115.6c0,0-3.5-8-29.2-6.2
						c0,0-14.7,90.4-30.3,100.5c-15.6,10.1-43.5,1-43.5,1S1990.6,3152.3,1982.8,3162.6z"/>
					<linearGradient id="SVGID_51_" gradientUnits="userSpaceOnUse" x1="1723.317" y1="2934.416" x2="2113.0962" y2="2934.416">
						<stop  offset="0" style="stop-color:#FEBBBA"/>
						<stop  offset="1" style="stop-color:#FF928E"/>
					</linearGradient>
					<path fill="url(#SVGID_51_)" d="M2113.1,2815.7c-0.5-0.9-100.5-12-100.5-12s3.3,30.4-7,72.3
						c-10.2,41.9-157.1,223.3-157.1,223.3l15.4,48.8c-47.6,16.6-94.5,19.2-140.6,8.5l95.5-57.3c0,0,89.3-304.4,144-358.7l100.3-34.7
						L2113.1,2815.7z"/>
					<linearGradient id="SVGID_52_" gradientUnits="userSpaceOnUse" x1="1963.8241" y1="2731.082" x2="2400.4885" y2="2731.082">
						<stop  offset="0" style="stop-color:#09005D"/>
						<stop  offset="1" style="stop-color:#1A0F91"/>
					</linearGradient>
					<path fill="url(#SVGID_52_)" d="M2337.5,2638.6c0,0,57.6,85.7,62.4,124.8c4.7,39.1-15.8,55-76.3,57.6
						c-60.5,2.6-221.9,2.6-221.9,2.6l-137.8-117.8c0,0,100.4-35.8,126.5-46C2116.5,2649.7,2337.5,2638.6,2337.5,2638.6z"/>
					<linearGradient id="SVGID_53_" gradientUnits="userSpaceOnUse" x1="1791.0477" y1="3025.0588" x2="1763.8796" y2="3441.6372">
						<stop  offset="0" style="stop-color:#4F52FF"/>
						<stop  offset="1" style="stop-color:#4042E2"/>
					</linearGradient>
					<path fill="url(#SVGID_53_)" d="M1858.1,3131.6c0,0,16.6,16.1,5.4,33.9c0,0-131.4,23.3-167,12.7c0,0,7.4-16.9,47.6-36.1l-3,2.3
						c-3.7,2.9-1.6,8.9,3.2,8.6C1770.6,3151.5,1825.4,3146.7,1858.1,3131.6z"/>
				</g>
				<g>
					<linearGradient id="SVGID_54_" gradientUnits="userSpaceOnUse" x1="2271.4087" y1="2001.7517" x2="2207.1106" y2="2339.5444">
						<stop  offset="0" style="stop-color:#09005D"/>
						<stop  offset="1" style="stop-color:#1A0F91"/>
					</linearGradient>
					<path fill="url(#SVGID_54_)" d="M2087.8,2094.8c117.8-20,173.3,76.1,169.2,96.3c-0.5,2.7,2,4.9,4.6,4.2
						c13.5-3.6,43.4-8.2,61.9,15c16.4,20.5,4.1,39.8-5.8,50.4c-2.4,2.6-0.4,6.7,3.1,6.3c24.9-3.1,78.9-3.9,87.8,46.7
						c8.2,47.2-24.6,60.5-44.1,64.3c-3.3,0.6-4.1,5-1.2,6.8c9.7,6.2,21,18.9,16.4,44.1c-7.1,39.4-84.4,36.2-93.5,35.7
						c-0.6,0-1.1-0.2-1.6-0.5l-123.8-70.6c-1-0.6-1.6-1.5-1.8-2.6l-25-144.3c-0.2-1.2,0.2-2.4,1-3.2l-80.7-113.9
						C2025,2125.1,2086.4,2095.1,2087.8,2094.8z"/>
					<linearGradient id="SVGID_55_" gradientUnits="userSpaceOnUse" x1="2700.989" y1="1361.1907" x2="2453.563" y2="1963.0377">
						<stop  offset="0" style="stop-color:#FF928E"/>
						<stop  offset="1" style="stop-color:#FE7062"/>
					</linearGradient>
					<path fill="url(#SVGID_55_)" d="M2181.6,2627.2c0,0-67.1-63.9-100.2-106.2c-17.9-22.9-23.5-53-15.2-80.8
						c15.1-50.8,41.9-103.5,44.3-111.7c3.7-12.6,79-12,79-12s148.1,96.1,206.3,258.9l-65.4,20.3c0,0-38.7-64.9-76.9-106.1
						c0,0,66.1,87.3,68.4,123.1L2181.6,2627.2z"/>
					<linearGradient id="SVGID_56_" gradientUnits="userSpaceOnUse" x1="2165.0039" y1="2424.3704" x2="2138.6929" y2="2255.5413">
						<stop  offset="0" style="stop-color:#FEBBBA"/>
						<stop  offset="1" style="stop-color:#FF928E"/>
					</linearGradient>
					<path fill="url(#SVGID_56_)" d="M2101.4,2258.3c0.8,2.6,20.4,67.7,22,69.1c1.5,1.4,43.1,3.6,62.6-9.8l-48.5-94.9L2101.4,2258.3
						z"/>
					<g>
						
							<linearGradient id="SVGID_57_" gradientUnits="userSpaceOnUse" x1="-483.9142" y1="6013.7305" x2="-311.6957" y2="6130.709" gradientTransform="matrix(0.6042 -0.7968 0.7968 0.6042 -2477.407 -1773.6736)">
							<stop  offset="0" style="stop-color:#FEBBBA"/>
							<stop  offset="1" style="stop-color:#FF928E"/>
						</linearGradient>
						<path fill="url(#SVGID_57_)" d="M2022.7,2174.6c0,0-9.5,37.3,16.8,87.5c26.3,50.2,56,50.1,72.3,34.1
							c16.3-16.1,36.3-43.3,31.5-91.8C2138.5,2155.8,2036.4,2127.2,2022.7,2174.6z"/>
						
							<linearGradient id="SVGID_58_" gradientUnits="userSpaceOnUse" x1="-369.0322" y1="5873.8115" x2="-433.331" y2="6211.6079" gradientTransform="matrix(0.6042 -0.7968 0.7968 0.6042 -2477.407 -1773.6736)">
							<stop  offset="0" style="stop-color:#09005D"/>
							<stop  offset="1" style="stop-color:#1A0F91"/>
						</linearGradient>
						<path fill="url(#SVGID_58_)" d="M2106.9,2207c0,0-43.6-66.6-84.4-14.2l-0.7,19.1c0,0-47.9-5.7-39.5-49.6
							c8.4-43.9,49.7-71.3,103-52.3c53.3,19,83.8,38.5,87.2,76.7c3.4,38.2-26.9,29.8-26.9,29.8s-9.9-26.9-24-29.7
							c-14.1-2.8-10.4,18.2-10.4,18.2L2106.9,2207z"/>
						
							<linearGradient id="SVGID_59_" gradientUnits="userSpaceOnUse" x1="-473.5906" y1="5998.5317" x2="-301.3731" y2="6115.5098" gradientTransform="matrix(0.6042 -0.7968 0.7968 0.6042 -2477.407 -1773.6736)">
							<stop  offset="0" style="stop-color:#FEBBBA"/>
							<stop  offset="1" style="stop-color:#FF928E"/>
						</linearGradient>
						<path fill="url(#SVGID_59_)" d="M2118.1,2206.1c0,0-22.6-34.1,0.6-39.2c23.2-5.1,19.6,33.2,17.1,47.4L2118.1,2206.1z"/>
					</g>
					<linearGradient id="SVGID_60_" gradientUnits="userSpaceOnUse" x1="2273.0466" y1="2616.0642" x2="2639.197" y2="2616.0642">
						<stop  offset="0" style="stop-color:#FEBBBA"/>
						<stop  offset="1" style="stop-color:#FF928E"/>
					</linearGradient>
					<path fill="url(#SVGID_60_)" d="M2044.8,2632l49.3-47.5l68.2,28.8c0,0,67.9,10.5,106.8,0c38.9-10.5,38.9-10.5,38.9-10.5
						l87.8-27.3l13.8,39c3.5,9.9,0,20.9-8.6,27c-7.6,5.4-16.5,11.3-22.2,13.8c-11.6,5.1-285.1-3.5-285.1-3.5L2044.8,2632z"/>
				</g>
				<g>
					
						<linearGradient id="SVGID_61_" gradientUnits="userSpaceOnUse" x1="2188.5032" y1="2744.7959" x2="1958.0087" y2="2807.9683" gradientTransform="matrix(0.9988 -4.940000e-02 4.940000e-02 0.9988 -41.469 -55.0328)">
						<stop  offset="0" style="stop-color:#09005D"/>
						<stop  offset="1" style="stop-color:#1A0F91"/>
					</linearGradient>
					<path fill="url(#SVGID_61_)" d="M2231.5,2654.4c-0.2,0-0.4,0-0.7,0l-286.1-0.3c-7.1,0-12.8-5.7-12.8-12.8
						c0-7.1,5.8-12.9,12.8-12.8l286.1,0.3c7.1,0,12.8,5.7,12.8,12.8C2243.6,2648.4,2238.2,2654,2231.5,2654.4z"/>
					<linearGradient id="SVGID_62_" gradientUnits="userSpaceOnUse" x1="1968.0376" y1="2429.4556" x2="1804.4912" y2="2602.314">
						<stop  offset="0" style="stop-color:#09005D"/>
						<stop  offset="1" style="stop-color:#1A0F91"/>
					</linearGradient>
					<path fill="url(#SVGID_62_)" d="M1687.6,2394.6h238.2c17.6,0,33.6,10.1,41.1,26l110.1,233.5h-296.1c-11.3,0-21.5-6.9-25.7-17.5
						l-85.4-216.1C1664.9,2408.2,1674.1,2394.6,1687.6,2394.6z"/>
					<path fill="#91B3FA" d="M1855.4,2514.4c5.2,16,1.3,31.6-8.5,34.8c-9.9,3.2-22.1-7.3-27.2-23.3c-5.2-16-1.3-31.6,8.5-34.8
						C1838.1,2487.9,1850.2,2498.3,1855.4,2514.4z"/>
				</g>
			</g>
			<g>
				<g>
					
						<linearGradient id="SVGID_63_" gradientUnits="userSpaceOnUse" x1="-9199.2295" y1="3431.4849" x2="-9196.8154" y2="3687.47" gradientTransform="matrix(-1 0 0 1 -6719.2798 0)">
						<stop  offset="0" style="stop-color:#09005D"/>
						<stop  offset="1" style="stop-color:#1A0F91"/>
					</linearGradient>
					<path fill="url(#SVGID_63_)" d="M2557.6,3129.6c0,0,3,16.7,4.2,36.5c0.5,8.4-5.7,15.8-14.2,16.6c-29.3,2.8-95.9,8.1-138.5,1.9
						c-6-0.9-8.3-8.2-3.9-12.3c17.5-16.3,59.9-48.2,129.7-55.1L2557.6,3129.6z"/>
					
						<linearGradient id="SVGID_64_" gradientUnits="userSpaceOnUse" x1="-9260.9346" y1="3145.6143" x2="-9274.2168" y2="3041.7715" gradientTransform="matrix(-1 0 0 1 -6719.2798 0)">
						<stop  offset="0" style="stop-color:#FEBBBA"/>
						<stop  offset="1" style="stop-color:#FF928E"/>
					</linearGradient>
					<path fill="url(#SVGID_64_)" d="M2572.2,3092l-14.8,36.3c-2,5-7.1,8.1-12.4,7.5c-3.6-0.4-7.9-1.1-12.1-2.3
						c-8.4-2.5-13.1-11.4-10.6-19.8l11.2-37.4L2572.2,3092z"/>
					
						<linearGradient id="SVGID_65_" gradientUnits="userSpaceOnUse" x1="-9545.083" y1="3434.7463" x2="-9542.668" y2="3690.7297" gradientTransform="matrix(-1 0 0 1 -6719.2798 0)">
						<stop  offset="0" style="stop-color:#09005D"/>
						<stop  offset="1" style="stop-color:#1A0F91"/>
					</linearGradient>
					<path fill="url(#SVGID_65_)" d="M2825.3,3158.5c0,0-29.6,24.8-41.2,56.6c-3.2,8.8,3.5,18,12.8,18h61c8.9,0,15.8-8,14.2-16.8
						C2868.3,3194.3,2857.1,3158.6,2825.3,3158.5z"/>
					
						<linearGradient id="SVGID_66_" gradientUnits="userSpaceOnUse" x1="-9551.2363" y1="3181.2043" x2="-9564.1797" y2="3080.0122" gradientTransform="matrix(-1 0 0 1 -6719.2798 0)">
						<stop  offset="0" style="stop-color:#FEBBBA"/>
						<stop  offset="1" style="stop-color:#FF928E"/>
					</linearGradient>
					<path fill="url(#SVGID_66_)" d="M2862,3126.2c0,0-6,26.5-10.6,44c-0.8,3.2-4.2,4.9-7.3,3.8c-9.2-3.3-16.7-4.8-22.2-4
						c-2.5,0.3-4.7-1.8-4.8-4.3l-0.6-44L2862,3126.2z"/>
					
						<linearGradient id="SVGID_67_" gradientUnits="userSpaceOnUse" x1="-9641.6875" y1="2796.6917" x2="-9243.2979" y2="2796.6917" gradientTransform="matrix(-1 0 0 1 -6719.2798 0)">
						<stop  offset="0" style="stop-color:#09005D"/>
						<stop  offset="1" style="stop-color:#1A0F91"/>
					</linearGradient>
					<path fill="url(#SVGID_67_)" d="M2704.3,2529.8L2524,3079.9c0,0,34.6,22.7,51.1,21.7l214.2-442.1c0,0,37.5,272.4,19.3,468
						l61.3,4.7c0,0,99.8-499.8,24.2-671L2704.3,2529.8z"/>
					<path fill="#91B3FA" d="M2788.1,2654.8c0.1,0,0.1,0,0.2,0c1-0.1,1.6-1,1.5-2l-7-55.5c-0.1-1-1-1.6-2-1.5c-1,0.1-1.6,1-1.5,2
						l7,55.5C2786.5,2654.1,2787.2,2654.8,2788.1,2654.8z"/>
				</g>
				<linearGradient id="SVGID_68_" gradientUnits="userSpaceOnUse" x1="3080.6433" y1="1817.6929" x2="2983.679" y2="1951.4369">
					<stop  offset="0" style="stop-color:#FF928E"/>
					<stop  offset="1" style="stop-color:#FE7062"/>
				</linearGradient>
				<path fill="url(#SVGID_68_)" d="M2670.5,2045.7c0,0,146.1,13,125.4,117.1c0,0,80.8,152,118.5,331c1.2,5.8-2.7,11.5-8.5,12.5
					l-243.3,41.7c-6.7,1.1-13.2-3-14.9-9.6l-58.1-224.7l-22.7,104.5l-72-18.8l60.6-306.9C2555.6,2092.4,2564,2047.6,2670.5,2045.7z"
					/>
				<linearGradient id="SVGID_69_" gradientUnits="userSpaceOnUse" x1="3087.1904" y1="1640.1305" x2="2542.1831" y2="2298.8213">
					<stop  offset="0" style="stop-color:#E1473D"/>
					<stop  offset="1" style="stop-color:#E9605A"/>
				</linearGradient>
				<path fill="url(#SVGID_69_)" d="M2588.4,2303.6c0.1,0,0.3,0,0.4,0c1-0.2,1.6-1.2,1.4-2.2l-20.3-93.1c-0.2-1-1.2-1.6-2.2-1.4
					c-1,0.2-1.6,1.2-1.4,2.2l20.3,93.1C2586.8,2303,2587.5,2303.6,2588.4,2303.6z"/>
				<linearGradient id="SVGID_70_" gradientUnits="userSpaceOnUse" x1="2854.2012" y1="2332.7249" x2="2558.3076" y2="2648.6792">
					<stop  offset="0" style="stop-color:#FEBBBA"/>
					<stop  offset="1" style="stop-color:#FF928E"/>
				</linearGradient>
				<path fill="url(#SVGID_70_)" d="M2603.1,2580.7c7.7-4.2,16.6-5.4,25.1-3.3l16.9,4.2c3.6,0.9,7.2-1.6,7.6-5.3l17.5-155.9
					c21.9,10.4,53.5,9.2,63.9,8.4l-40.3,183.8h-141.1L2603.1,2580.7z"/>
				
					<linearGradient id="SVGID_71_" gradientUnits="userSpaceOnUse" x1="-9286.2412" y1="2289.187" x2="-8947.4756" y2="2289.187" gradientTransform="matrix(-1 0 0 1 -6719.2798 0)">
					<stop  offset="0" style="stop-color:#FEBBBA"/>
					<stop  offset="1" style="stop-color:#FF928E"/>
				</linearGradient>
				<path fill="url(#SVGID_71_)" d="M2228.2,2242.5l4.3-14.2c2.5-8.2,8.5-14.8,16.4-17.9l77.1-31c0,0,1.2-9.9-16.3-16.6
					c-17.5-6.7-13.4-26.3-13.4-26.3s23.9,10.9,58.8,28.1c20,9.9,31.2,27.3,37.1,40.4l174.8,213.1l-20.5,14.1
					c-27,18.5-64.1,9.4-79.4-19.5l-94.7-181.6C2324.8,2245.5,2276.7,2248.2,2228.2,2242.5z"/>
				<g>
					
						<linearGradient id="SVGID_72_" gradientUnits="userSpaceOnUse" x1="-9408.2031" y1="2099.1851" x2="-9290.3047" y2="1978.2241" gradientTransform="matrix(-1 0 0 1 -6719.2798 0)">
						<stop  offset="0" style="stop-color:#FEBBBA"/>
						<stop  offset="1" style="stop-color:#FF928E"/>
					</linearGradient>
					<path fill="url(#SVGID_72_)" d="M2623.2,1946.3l44.9,125.8c0,0-39.8,31.1-68.8,20.6l-22.6-72.1
						C2576.7,2020.6,2594,1932.5,2623.2,1946.3z"/>
					<g>
						
							<linearGradient id="SVGID_73_" gradientUnits="userSpaceOnUse" x1="-9237.2207" y1="1902.0121" x2="-9384.2109" y2="2096.4678" gradientTransform="matrix(-1 0 0 1 -6719.2798 0)">
							<stop  offset="0" style="stop-color:#FEBBBA"/>
							<stop  offset="1" style="stop-color:#FF928E"/>
						</linearGradient>
						<path fill="url(#SVGID_73_)" d="M2489.1,1901.2c0,1.9,43.3,122.5,43.3,122.5l68.3-26.2l-24-120.4
							C2576.7,1877.1,2489.1,1868.7,2489.1,1901.2z"/>
						
							<linearGradient id="SVGID_74_" gradientUnits="userSpaceOnUse" x1="-9349.4795" y1="1948.9196" x2="-9173.8975" y2="1948.9196" gradientTransform="matrix(-1 0 0 1 -6719.2798 0)">
							<stop  offset="0" style="stop-color:#09005D"/>
							<stop  offset="1" style="stop-color:#1A0F91"/>
						</linearGradient>
						<path fill="url(#SVGID_74_)" d="M2564.7,1906.5l17.6,62.4c0.2,0.8,0.3,1.6,0.3,2.4c0,5.1-1.3,22.6-19.1,20.2
							c-16.2-2.2-31-3.9-40.4,0.5c-4.2,2-6.2,6.9-4.7,11.2c3.9,11,13.3,35.5,24.6,55.6c2.3,4.1,7.4,5.7,11.6,3.7
							c12.8-5.8,39.6-18.9,58.6-34.5c2.6-2.1,3.8-5.4,3.2-8.7c-3-16-11.9-64.5-12.3-78.4c-0.4-13.1,14.3-23,20.7-26.8
							c2.1-1.2,3.6-3.3,4.2-5.6c2-8.4,3.7-27.4-20.5-31.6c-5.1-0.9-8.4-5.7-7.4-10.8c2.1-10.1,1.4-24.8-17.7-30.3
							c-19.4-5.5-31.6,6.1-37.8,15.1c-2.5,3.6-7.2,4.8-11.2,3c-2.3-1-5.1-1.1-8,1.4c-4,3.4-10.1,2.3-13-2
							c-5.7-8.3-15.9-16.6-33.3-11c-30.9,10-29.4,45.6-18.1,64.9c11.3,19.3,44.2,6.6,59.7-6.2c11.8-9.7,29.8-3.9,37.8-0.6
							C2562.1,1901.7,2563.9,1903.8,2564.7,1906.5z"/>
						
							<linearGradient id="SVGID_75_" gradientUnits="userSpaceOnUse" x1="-9452.5029" y1="2056.0056" x2="-9334.6055" y2="1935.0457" gradientTransform="matrix(-1 0 0 1 -6719.2798 0)">
							<stop  offset="0" style="stop-color:#FEBBBA"/>
							<stop  offset="1" style="stop-color:#FF928E"/>
						</linearGradient>
						<path fill="url(#SVGID_75_)" d="M2610.4,1963.8c0,0-18.3-34.6-6.2-45.4c12.1-10.9,32.6-9.1,32,18
							C2635.5,1969.9,2610.4,1963.8,2610.4,1963.8z"/>
					</g>
				</g>
				<linearGradient id="SVGID_76_" gradientUnits="userSpaceOnUse" x1="3194.8665" y1="1729.2266" x2="2649.8608" y2="2387.915">
					<stop  offset="0" style="stop-color:#E1473D"/>
					<stop  offset="1" style="stop-color:#E9605A"/>
				</linearGradient>
				<path fill="url(#SVGID_76_)" d="M2720,2431.2c10,0,17.1-0.8,17.9-0.8l1.3-0.1l53.2-248c0.2-1-0.4-1.9-1.4-2.2
					c-1-0.2-1.9,0.4-2.2,1.4l-52.6,245.5c-7.9,0.7-50.2,3.5-72.5-12.3l46.1-215.5l-9.6-18.1c-0.5-0.9-1.6-1.2-2.4-0.8
					c-0.9,0.5-1.2,1.6-0.8,2.4l9,17l-46.3,216.5l0.9,0.7C2676.6,2428.9,2702.6,2431.2,2720,2431.2z"/>
			</g>
			<g>
				<path fill="#91B3FA" d="M1125.1,3187.4c-1.2,0-2.5-0.3-3.7-0.8c-4.7-2.2-6.9-8.2-4.9-13.3l194.4-493.2c2-5.1,7.5-7.5,12.2-5.3
					c4.7,2.2,6.9,8.2,4.9,13.3l-194.4,493.2C1132.2,3185.1,1128.7,3187.4,1125.1,3187.4z"/>
				<path fill="#91B3FA" d="M1344.1,3187.4c-3.6,0-7-2.3-8.5-6.1l-194.4-493.2c-2-5.1,0.1-11.1,4.9-13.3c4.7-2.2,10.2,0.2,12.2,5.3
					l194.4,493.2c2,5.1-0.1,11.1-4.9,13.3C1346.6,3187.2,1345.4,3187.4,1344.1,3187.4z"/>
				<path fill="#91B3FA" d="M2444.4,3187.4c-1.2,0-2.5-0.3-3.7-0.8c-4.7-2.2-6.9-8.2-4.9-13.3l194.4-493.2c2-5.1,7.5-7.5,12.2-5.3
					c4.7,2.2,6.9,8.2,4.9,13.3L2453,3181.3C2451.4,3185.1,2448,3187.4,2444.4,3187.4z"/>
				<path fill="#91B3FA" d="M2663.4,3187.4c-3.6,0-7-2.3-8.5-6.1l-194.4-493.2c-2-5.1,0.1-11.1,4.9-13.3c4.7-2.2,10.2,0.2,12.2,5.3
					l194.4,493.2c2,5.1-0.1,11.1-4.9,13.3C2665.9,3187.2,2664.6,3187.4,2663.4,3187.4z"/>
			</g>
			<g>
				<path fill="#BDD0FB" d="M2416.2,2645.2l281.5,0v-29.1h-281.5C2422.3,2616.2,2422.3,2645.2,2416.2,2645.2z"/>
				
					<linearGradient id="SVGID_77_" gradientUnits="userSpaceOnUse" x1="-2594.0842" y1="-13643.709" x2="-2839.9031" y2="-13045.7715" gradientTransform="matrix(-1 0 0 1 -6719.2798 0)">
					<stop  offset="0" style="stop-color:#4F52FF"/>
					<stop  offset="1" style="stop-color:#4042E2"/>
				</linearGradient>
				<path fill="url(#SVGID_77_)" d="M2694.4,2645.2c1.8,0,3.3-1.5,3.3-3.3v-22.4c0-1.8-1.5-3.3-3.3-3.3H2411c-1.8,0-3.3-1.5-3.3-3.3
					s1.5-3.3,3.3-3.3h302.9c6.7,0,12.2,5.4,12.2,12.2v18.6c0,6.3-5.1,11.5-11.5,11.5H2411c-1.8,0-3.3-1.5-3.3-3.3
					c0-1.8,1.5-3.3,3.3-3.3H2694.4z"/>
			</g>
			<path fill="#91B3FA" d="M2738.6,2664.8c0.9-3.2-0.3-6.6-3.5-9.1c-3.2-2.5-7.9-4-12.9-4h-1687c-6.5,0-12.6,2.2-16.2,5.9
				c-3.5,3.7-4,8.3-1.3,12.2l18.3,26.2c4.2,6,13.3,9.9,23.2,9.9h1651.4c9.3,0,17.3-4.4,19-10.4L2738.6,2664.8z"/>
		</g>
		<g>
			<g>
				<g opacity="0.3">
					<path fill="#BDD0FB" d="M1817.9,943.6c-5.3-1.1-8.8-6.3-7.7-11.7c2.2-10.4,3.9-21,5.2-31.6c0.6-5.4,5.5-9.2,10.8-8.6
						c0.1,0,0.1,0,0.2,0c5.4,0.7,9.3,5.6,8.6,11c-1.3,11.1-3.2,22.3-5.4,33.2c-1,5-5.7,8.3-10.7,7.8
						C1818.6,943.7,1818.2,943.7,1817.9,943.6z M1818.1,848.4c-0.2-10.6-0.8-21.4-1.9-31.9c-0.6-5.4,3.4-10.3,8.8-10.8
						c5.4-0.5,10.3,3.4,10.8,8.8c1.1,11.1,1.8,22.4,2,33.6c0.1,5.5-4.3,9.9-9.7,10c-0.4,0-0.8,0-1.2,0
						C1822,857.6,1818.1,853.5,1818.1,848.4z M1807.3,765.3c-2.5-10.3-5.6-20.6-9-30.7c-1.8-5.2,1-10.8,6.2-12.5
						c5.2-1.7,10.8,1,12.5,6.2c3.6,10.6,6.8,21.5,9.4,32.3c1.3,5.3-1.9,10.6-7.2,12c-1.1,0.3-2.3,0.3-3.4,0.2
						C1811.9,772.4,1808.3,769.5,1807.3,765.3z M1778.2,686.7c-4.8-9.5-10-18.9-15.6-27.9c-2.9-4.6-1.4-10.7,3.2-13.6
						c4.6-2.9,10.7-1.4,13.6,3.2c5.9,9.5,11.4,19.4,16.4,29.4c2.5,4.9,0.5,10.8-4.4,13.3c-1.7,0.9-3.6,1.2-5.4,1
						C1782.8,691.8,1779.8,689.8,1778.2,686.7z M1732.4,616.5c-6.8-8.2-14-16.2-21.4-23.8c-3.8-3.9-3.8-10.2,0.1-14
						c3.9-3.8,10.2-3.8,14,0.1c7.8,8,15.4,16.4,22.5,25c3.5,4.2,2.9,10.4-1.3,13.9c-2.1,1.8-4.7,2.5-7.3,2.2
						C1736.5,619.8,1734.1,618.6,1732.4,616.5z M1672.1,558.2c-8.4-6.5-17.2-12.7-26.1-18.4c-4.6-3-5.9-9.1-3-13.6
						c3-4.6,9.1-5.9,13.7-3c9.4,6.1,18.7,12.6,27.5,19.4c4.3,3.3,5.1,9.5,1.8,13.9c-2.2,2.8-5.5,4.1-8.8,3.8
						C1675.4,560.1,1673.6,559.4,1672.1,558.2z M1311.1,493.7c-1.7-5.2,1-10.8,6.2-12.5c10.6-3.6,21.5-6.7,32.4-9.4
						c5.3-1.3,10.6,2,11.9,7.3c1.3,5.3-2,10.6-7.3,11.9c-10.3,2.5-20.7,5.5-30.7,8.9c-1.4,0.5-2.8,0.6-4.1,0.5
						C1315.7,500,1312.4,497.5,1311.1,493.7z M1600.5,514.8c-9.6-4.5-19.6-8.5-29.6-12.2c-5.1-1.9-7.8-7.5-5.9-12.6
						c1.9-5.1,7.5-7.8,12.6-5.9c10.5,3.8,21,8.1,31.1,12.8c5,2.3,7.1,8.2,4.8,13.1c-1.8,3.9-5.9,6.1-10,5.7
						C1602.6,515.6,1601.5,515.3,1600.5,514.8z M1394.7,473.4c-0.5-5.4,3.4-10.3,8.8-10.8c11.1-1.1,22.4-1.8,33.6-1.9
						c5.5-0.1,9.9,4.3,10,9.7c0.1,5.5-4.3,9.9-9.7,10c-10.6,0.2-21.4,0.8-31.9,1.8c-0.7,0.1-1.3,0.1-2,0
						C1399,481.8,1395.2,478.2,1394.7,473.4z M1521,488.4c-10.4-2.2-21-3.9-31.6-5.2c-5.4-0.7-9.3-5.6-8.6-11
						c0.7-5.3,5.5-9.2,10.8-8.6c0.1,0,0.1,0,0.2,0c11.1,1.4,22.3,3.2,33.2,5.5c5.3,1.1,8.8,6.4,7.6,11.7c-1,5-5.7,8.3-10.6,7.8
						C1521.7,488.6,1521.3,488.5,1521,488.4z"/>
					<path fill="#BDD0FB" d="M1256.1,528.5c1.9,0.2,3.9-0.2,5.8-1.2c4.5-2.5,9-4.9,13.6-7.2c4.9-2.4,6.8-8.4,4.4-13.3
						c-2.4-4.9-8.4-6.8-13.3-4.4c-4.8,2.4-9.6,5-14.3,7.6c-4.8,2.6-6.5,8.7-3.8,13.4C1250,526.4,1252.9,528.1,1256.1,528.5z"/>
				</g>
				<g opacity="0.3">
					<path fill="#BDD0FB" d="M1070.8,765.8c4.7,0.5,9.3-2.5,10.5-7.3c1.3-4.9,2.7-9.9,4.3-14.8c1.6-5.2-1.3-10.7-6.5-12.4
						c-5.2-1.6-10.7,1.3-12.4,6.5c-1.6,5.1-3.1,10.4-4.5,15.6c-1.4,5.3,1.7,10.7,7,12.1C1069.7,765.6,1070.3,765.7,1070.8,765.8z"/>
					<path fill="#BDD0FB" d="M1384,1245.1c-5.4-0.8-9.1-5.8-8.3-11.2c0.8-5.4,5.8-9.1,11.2-8.3c10.3,1.6,20.8,2.7,31.3,3.4
						c5.4,0.3,9.6,5.1,9.2,10.5c-0.4,5.4-5.1,9.6-10.5,9.2c-4.6-0.3-9.1-0.7-13.6-1.1C1396.9,1246.8,1390.4,1246,1384,1245.1z
						 M1460.2,1239.4c-0.4-5.4,3.7-10.2,9.2-10.5c10.4-0.7,21-1.9,31.3-3.5c5.4-0.8,10.4,2.9,11.3,8.3c0.8,5.4-2.9,10.4-8.3,11.3
						c-10.9,1.7-21.9,2.9-32.9,3.6c-0.6,0-1.1,0-1.7,0C1464.4,1248.1,1460.6,1244.3,1460.2,1239.4z M1331.5,1233.4
						c-10.5-3.1-21.1-6.7-31.4-10.7c-5.1-2-7.6-7.7-5.6-12.8c2-5.1,7.7-7.6,12.8-5.6c9.8,3.8,19.8,7.2,29.8,10.2
						c5.2,1.5,8.2,7,6.7,12.3c-1.4,4.6-5.8,7.5-10.5,7C1332.7,1233.7,1332.1,1233.6,1331.5,1233.4z M1543.9,1226.5
						c-1.6-5.2,1.4-10.7,6.6-12.3c10-3,20-6.4,29.8-10.3c5.1-2,10.8,0.5,12.8,5.6c2,5.1-0.5,10.8-5.6,12.8
						c-10.2,4-20.8,7.7-31.3,10.8c-1.3,0.4-2.6,0.5-3.8,0.4C1548.6,1233.1,1545.1,1230.5,1543.9,1226.5z M1251.5,1199.8
						c-9.6-5.3-19.1-11.2-28.2-17.3c-4.5-3-5.7-9.2-2.7-13.7c3-4.5,9.2-5.7,13.7-2.7c8.7,5.8,17.7,11.4,26.8,16.5
						c4.8,2.7,6.5,8.7,3.8,13.4c-2,3.5-5.8,5.4-9.6,5C1254,1200.8,1252.7,1200.4,1251.5,1199.8z M1180.8,1149.4
						c-8.2-7.3-16.2-15.1-23.8-23.1c-3.7-4-3.6-10.2,0.4-14c4-3.8,10.2-3.6,14,0.4c7.2,7.6,14.8,15,22.6,21.9
						c4.1,3.6,4.4,9.9,0.8,13.9c-2.2,2.4-5.3,3.6-8.4,3.2C1184.4,1151.6,1182.4,1150.8,1180.8,1149.4z M1122.8,1084.8
						c-6.4-9-12.5-18.3-18.2-27.7c-2.8-4.7-1.3-10.7,3.4-13.5c4.7-2.8,10.7-1.3,13.5,3.4c5.4,9,11.2,17.8,17.3,26.3
						c3.2,4.4,2.2,10.6-2.3,13.8c-2,1.5-4.4,2-6.7,1.8C1127.1,1088.6,1124.5,1087.2,1122.8,1084.8z M1080.2,1009.1
						c-4.3-10.1-8.2-20.6-11.7-31c-1.7-5.2,1.1-10.8,6.3-12.5c5.2-1.7,10.8,1.1,12.5,6.3c3.3,9.9,7,19.8,11.1,29.5
						c2.1,5-0.2,10.8-5.2,12.9c-1.6,0.7-3.2,0.9-4.8,0.7C1084.8,1014.7,1081.7,1012.6,1080.2,1009.1z M1055.3,925.9
						c-2-10.8-3.5-21.8-4.5-32.8c-0.5-5.4,3.5-10.3,8.9-10.8c5.4-0.5,10.3,3.5,10.8,8.9c1,10.4,2.4,20.9,4.3,31.2
						c1,5.4-2.6,10.5-8,11.5c-0.9,0.2-1.9,0.2-2.8,0.1C1059.8,933.5,1056.1,930.3,1055.3,925.9z M1049.3,839.3
						c0.3-8.1,0.9-16.3,1.7-24.3c0.3-2.9,0.6-5.8,1-8.7c0.7-5.4,5.5-9.4,11-8.6c5.4,0.7,9.3,5.6,8.6,11c-0.3,2.7-0.7,5.5-0.9,8.3
						c-0.8,7.6-1.3,15.4-1.6,23.1c-0.2,5.4-4.8,9.7-10.3,9.5c-0.2,0-0.4,0-0.6,0C1053,849,1049.1,844.5,1049.3,839.3z"/>
					<path fill="#BDD0FB" d="M1630.6,1200.3c2,0.2,4-0.2,5.8-1.2c4.7-2.6,9.4-5.4,14-8.2c4.6-2.9,6.1-8.9,3.2-13.6
						c-2.9-4.6-8.9-6.1-13.6-3.2c-4.4,2.7-8.8,5.3-13.3,7.8c-4.8,2.7-6.4,8.7-3.8,13.4C1624.6,1198.3,1627.5,1200,1630.6,1200.3z"/>
				</g>
				<g>
					<path fill="#BDD0FB" d="M1676.5,1037.4c1.4-1.4,1.7-3.5,0.9-5.3l-24.6-50.5c13.8-22.3,24.2-47,30.4-73.2l53.1-18.3
						c1.9-0.6,3.1-2.4,3.1-4.4l0-67.4c0-2-1.2-3.7-3.1-4.4l-53.1-18.3c-6.2-26.3-16.5-50.9-30.4-73.2l24.6-50.5
						c0.9-1.8,0.5-3.9-0.9-5.3l-47.7-47.6c-1.4-1.4-3.5-1.7-5.3-0.9l-50.5,24.6c-22.3-13.8-47-24.2-73.2-30.4l-18.3-53.1
						c-0.6-1.9-2.4-3.1-4.4-3.1l-67.4,0c-2,0-3.7,1.3-4.4,3.1l-18.3,53.1c-26.3,6.2-50.9,16.5-73.2,30.4l-50.5-24.6
						c-1.8-0.9-3.9-0.5-5.3,0.9l-47.6,47.7c-1.4,1.4-1.7,3.5-0.9,5.3l24.6,50.5c-13.8,22.3-24.2,47-30.4,73.2l-53.1,18.3
						c-1.9,0.6-3.1,2.4-3.1,4.4l0,67.4c0,2,1.2,3.7,3.1,4.4l53.1,18.3c6.2,26.3,16.5,50.9,30.4,73.2l-24.6,50.5
						c-0.9,1.8-0.5,3.9,0.9,5.3l47.7,47.6c1.4,1.4,3.5,1.7,5.3,0.9l50.5-24.6c22.3,13.8,47,24.2,73.2,30.4l18.3,53.1
						c0.6,1.9,2.4,3.1,4.4,3.1l67.4,0c2,0,3.7-1.2,4.4-3.1l18.3-53.1c26.3-6.2,50.9-16.5,73.2-30.4l50.5,24.6
						c1.8,0.9,3.9,0.5,5.3-0.9L1676.5,1037.4z"/>
					<linearGradient id="SVGID_78_" gradientUnits="userSpaceOnUse" x1="1375.7299" y1="852.021" x2="1511.2085" y2="852.021">
						<stop  offset="0" style="stop-color:#DAE3FE"/>
						<stop  offset="1" style="stop-color:#E9EFFD"/>
					</linearGradient>
					<path fill="url(#SVGID_78_)" d="M1426.9,917.7c-36.2-9.1-58.2-46-49.1-82.2c4.4-17.5,15.4-32.3,31-41.6
						c15.5-9.3,33.7-11.9,51.3-7.5c36.2,9.1,58.2,46,49.1,82.2c-8.3,32.9-39.6,54.1-72.4,50.8
						C1433.4,919.1,1430.2,918.5,1426.9,917.7z M1416.8,807.4c-11.9,7.1-20.3,18.4-23.7,31.9c-7,27.8,9.9,56.1,37.6,63.1
						c27.8,7,56.1-9.9,63.1-37.6c7-27.8-9.9-56.1-37.6-63.1c-2.5-0.6-5-1.1-7.6-1.3C1437.6,799.2,1426.5,801.7,1416.8,807.4z"/>
					<linearGradient id="SVGID_79_" gradientUnits="userSpaceOnUse" x1="1275.9987" y1="850.9381" x2="1609.0867" y2="850.9381">
						<stop  offset="0" style="stop-color:#DAE3FE"/>
						<stop  offset="1" style="stop-color:#E9EFFD"/>
					</linearGradient>
					<path fill="url(#SVGID_79_)" d="M1425.5,1016.6c5.6,0.6,11.3,0.9,17.1,0.9l0,0c1.8,0,3.6,0,5.4-0.1c8.9-0.3,17.8-1.3,26.5-3
						c0.1,0,0.2,0,0.4-0.1c0.3-0.1,0.7-0.1,1-0.2c0.7-0.1,1.3-0.3,2-0.4c1.7-0.4,2.9-1.8,3.1-3.5c0-0.4,0-0.8-0.1-1.2
						c-0.5-2.1-2.6-3.5-4.7-3c-11,2.4-22.3,3.6-33.6,3.6c-56.2,0-105.7-29.4-133.9-73.6c-15.7-24.6-24.8-53.8-24.8-85
						c0-5.5,0.3-10.9,0.8-16.3c3.7-36.2,19.5-69.8,45.6-95.9c30-30,69.8-46.5,112.2-46.5c87.5,0,158.7,71.2,158.7,158.6
						c0,5.4-0.3,10.8-0.8,16.1c-2.3,23.1-9.7,45.4-21.7,65.4c-0.3,0.5-0.5,1.1-0.5,1.6c-0.1,1.5,0.5,3,1.9,3.8
						c1.9,1.1,4.3,0.5,5.4-1.4c12.5-20.9,20.3-44.4,22.7-68.6c0.6-5.6,0.9-11.2,0.9-16.9c0-91.8-74.8-166.5-166.6-166.5
						c-44.5,0-86.3,17.3-117.8,48.8c-27.4,27.4-44.1,62.6-47.9,100.6c-0.6,5.6-0.9,11.4-0.9,17.1c0,44.5,17.3,86.3,48.8,117.8
						C1352.2,996.1,1387.4,1012.8,1425.5,1016.6z"/>
				</g>
			</g>
			<g>
				<g opacity="0.3">
					<path fill="#BDD0FB" d="M2128,1236.6c2.6,0.3,5.2-1.2,6.3-3.8c2-4.8,3.8-9.7,5.4-14.6c1.1-3.2-0.6-6.6-3.8-7.7
						c-3.2-1.1-6.7,0.6-7.7,3.8c-1.6,4.7-3.3,9.4-5.2,13.9c-1.3,3.1,0.2,6.7,3.4,7.9C2126.8,1236.4,2127.4,1236.6,2128,1236.6z"/>
					<path fill="#BDD0FB" d="M2141,1191.6c-3.3-0.7-5.4-3.9-4.7-7.2c1.7-8.3,3-16.8,3.9-25.3c0.2-1.8,0.3-3.6,0.5-5.4
						c0.3-3.4,3.2-5.9,6.6-5.6c3.2,0.4,5.9,3.2,5.6,6.6c-0.2,1.9-0.3,3.8-0.5,5.6c-0.9,8.9-2.3,17.8-4.1,26.5
						c-0.6,3.1-3.5,5.2-6.6,4.8C2141.4,1191.7,2141.2,1191.7,2141,1191.6z M2141.2,1122.8c-0.4-10.3-1.5-20.7-3.2-30.8
						c-0.6-3.3,1.7-6.5,5-7c3.3-0.5,6.5,1.7,7,5c1.8,10.6,2.9,21.5,3.4,32.3c0.1,3.4-2.5,6.2-5.8,6.4c-0.3,0-0.6,0-0.9,0
						C2143.7,1128.3,2141.3,1125.8,2141.2,1122.8z M2131,1061.8c-2.9-9.9-6.5-19.6-10.7-29.1c-1.4-3.1,0.1-6.7,3.1-8
						c3.1-1.4,6.7,0,8,3.1c4.3,9.9,8.1,20.2,11.2,30.5c1,3.2-0.9,6.6-4.1,7.6c-0.8,0.2-1.6,0.3-2.4,0.2
						C2133.8,1065.9,2131.7,1064.2,2131,1061.8z M2106.1,1005.2c-5.3-8.9-11.2-17.5-17.5-25.6c-2.1-2.7-1.6-6.5,1.1-8.6
						c2.7-2.1,6.5-1.6,8.6,1.1c6.6,8.5,12.8,17.5,18.3,26.8c1.7,2.9,0.8,6.6-2.1,8.4c-1.2,0.7-2.5,1-3.7,0.8
						C2108.9,1007.9,2107.2,1006.9,2106.1,1005.2z M2068.2,956.3c-7.3-7.3-15.1-14.2-23.1-20.6c-2.6-2.1-3.1-5.9-1-8.6
						c2.1-2.7,5.9-3.1,8.6-1c8.5,6.7,16.6,13.9,24.3,21.6c2.4,2.4,2.4,6.3,0,8.6c-1.3,1.3-3.2,1.9-4.9,1.7
						C2070.6,958,2069.2,957.4,2068.2,956.3z M2019.6,918.2c-8.8-5.3-18-10.1-27.4-14.3c-3.1-1.4-4.5-5-3.1-8c1.4-3.1,5-4.5,8.1-3.1
						c9.8,4.4,19.5,9.4,28.8,15c2.9,1.7,3.8,5.5,2.1,8.4c-1.3,2.1-3.6,3.2-5.8,2.9C2021.2,918.9,2020.4,918.7,2019.6,918.2z
						 M1963.1,893.1c-9.8-3-20-5.4-30.1-7.1c-3.3-0.6-5.5-3.7-5-7c0.6-3.3,3.7-5.5,7-5c10.7,1.8,21.3,4.4,31.6,7.5
						c3.2,1,5,4.4,4.1,7.6c-0.9,2.8-3.6,4.6-6.4,4.3C1963.9,893.3,1963.5,893.2,1963.1,893.1z M1864.7,877.4
						c-0.3-3.4,2.3-6.3,5.6-6.5c9.3-0.7,18.8-0.9,28.2-0.6c1.4,0,2.9,0.1,4.3,0.2c3.4,0.1,6,3,5.8,6.4c-0.2,3.4-3,6-6.4,5.8
						c-1.3-0.1-2.7-0.1-4-0.2c-9-0.3-18.1-0.1-26.9,0.6c-0.4,0-0.7,0-1.1,0C1867.3,882.7,1864.9,880.4,1864.7,877.4z"/>
				</g>
				<g opacity="0.3">
					<path fill="#BDD0FB" d="M1860,1395.3c-10.6-1.2-21.1-3.1-31.4-5.5c-3.3-0.8-5.3-4.1-4.5-7.4c0.8-3.3,4.1-5.3,7.4-4.5
						c9.8,2.4,19.9,4.1,30,5.3c3.3,0.4,5.7,3.4,5.4,6.8C1866.4,1393.2,1863.4,1395.6,1860,1395.3
						C1860,1395.3,1860,1395.3,1860,1395.3z M1885.7,1390.9c0-3.4,2.7-6.1,6.1-6.1c10.1-0.1,20.4-0.7,30.4-2
						c3.3-0.4,6.4,1.9,6.8,5.3c0.4,3.3-1.9,6.4-5.3,6.8c-10.5,1.3-21.3,2-31.9,2.1c-0.2,0-0.4,0-0.7,0
						C1888.2,1396.6,1885.8,1394.1,1885.7,1390.9z M1798,1380.4c-10-3.7-19.8-8.1-29.2-13c-3-1.6-4.2-5.2-2.6-8.2
						c1.6-3,5.2-4.1,8.2-2.6c9,4.7,18.3,8.8,27.8,12.4c3.2,1.2,4.8,4.7,3.6,7.8c-1,2.7-3.6,4.2-6.3,3.9
						C1799,1380.7,1798.5,1380.6,1798,1380.4z M1947.7,1384.5c-0.8-3.3,1.1-6.6,4.4-7.4c9.8-2.5,19.6-5.6,29-9.3
						c3.1-1.2,6.7,0.3,7.9,3.5c1.2,3.1-0.3,6.7-3.5,7.9c-9.9,3.9-20.1,7.1-30.4,9.7c-0.7,0.2-1.4,0.2-2.1,0.2
						C1950.6,1388.8,1948.4,1387.1,1947.7,1384.5z M1741.4,1351c-8.8-6-17.2-12.6-25.2-19.6c-2.5-2.2-2.8-6.1-0.5-8.6
						c2.2-2.5,6.1-2.8,8.6-0.5c7.6,6.7,15.7,13,24,18.7c2.8,1.9,3.5,5.7,1.6,8.5c-1.3,1.9-3.5,2.8-5.7,2.6
						C1743.3,1352,1742.3,1351.6,1741.4,1351z M1693.5,1308.9c-7.1-7.9-13.7-16.4-19.8-25.1c-1.9-2.8-1.2-6.6,1.5-8.5
						c2.8-1.9,6.6-1.2,8.5,1.5c5.8,8.3,12.1,16.3,18.9,23.9c2.2,2.5,2,6.4-0.5,8.6c-1.3,1.2-3,1.7-4.7,1.5
						C1696,1310.8,1694.6,1310.1,1693.5,1308.9z M1657.1,1256.5c-5-9.4-9.4-19.2-13.2-29.1c-1.2-3.2,0.4-6.7,3.5-7.9
						c3.1-1.2,6.7,0.4,7.9,3.5c3.6,9.4,7.8,18.8,12.6,27.7c1.6,3,0.4,6.7-2.5,8.2c-1.1,0.6-2.3,0.8-3.5,0.7
						C1660,1259.6,1658.1,1258.4,1657.1,1256.5z"/>
					<path fill="#BDD0FB" d="M2011.4,1366.4c1.2,0.1,2.4-0.1,3.5-0.7c4.6-2.5,9.1-5.1,13.5-7.8c2.9-1.8,3.8-5.5,2-8.4
						c-1.8-2.9-5.5-3.8-8.4-2c-4.2,2.6-8.5,5.1-12.9,7.4c-3,1.6-4.1,5.3-2.5,8.3C2007.6,1365,2009.4,1366.2,2011.4,1366.4z"/>
				</g>
				<g>
					<path fill="#BDD0FB" d="M2046.1,1255.6c0.9-0.9,1.2-2.4,0.6-3.5l-16.5-33.8c9.3-14.9,16.2-31.4,20.3-49l35.5-12.2
						c1.2-0.4,2.1-1.6,2.1-2.9l0-45.1c0-1.3-0.8-2.5-2.1-2.9l-35.5-12.2c-4.1-17.6-11.1-34.1-20.3-49l16.5-33.8
						c0.6-1.2,0.3-2.6-0.6-3.5l-31.9-31.9c-0.9-0.9-2.4-1.2-3.5-0.6l-33.8,16.5c-14.9-9.3-31.4-16.2-49-20.3l-12.2-35.5
						c-0.4-1.2-1.6-2.1-2.9-2.1l-45.1,0c-1.3,0-2.5,0.8-2.9,2.1l-12.2,35.5c-17.6,4.1-34.1,11.1-49,20.3l-33.8-16.5
						c-1.2-0.6-2.6-0.3-3.5,0.6l-31.9,31.9c-0.9,0.9-1.2,2.4-0.6,3.5l16.5,33.8c-9.3,14.9-16.2,31.4-20.3,49l-35.5,12.2
						c-1.2,0.4-2.1,1.6-2.1,2.9l0,45.1c0,1.3,0.8,2.5,2.1,2.9l35.5,12.2c4.1,17.6,11.1,34.1,20.3,49l-16.5,33.8
						c-0.6,1.2-0.3,2.6,0.6,3.5l31.9,31.9c0.9,0.9,2.4,1.2,3.5,0.6l33.8-16.5c14.9,9.3,31.4,16.2,49,20.3l12.2,35.5
						c0.4,1.2,1.6,2.1,2.9,2.1l45.1,0c1.3,0,2.5-0.8,2.9-2.1l12.2-35.5c17.6-4.1,34.1-11.1,49-20.3l33.8,16.5
						c1.2,0.6,2.6,0.3,3.5-0.6L2046.1,1255.6z"/>
					<linearGradient id="SVGID_80_" gradientUnits="userSpaceOnUse" x1="1844.0315" y1="1131.5382" x2="1936.3298" y2="1131.5382">
						<stop  offset="0" style="stop-color:#DAE3FE"/>
						<stop  offset="1" style="stop-color:#E9EFFD"/>
					</linearGradient>
					<path fill="url(#SVGID_80_)" d="M1878.9,1176.3c-12-3-22-10.5-28.3-21.1c-6.3-10.6-8.1-23-5.1-34.9c6.2-24.7,31.3-39.6,56-33.4
						c24.7,6.2,39.7,31.4,33.4,56c-3,11.9-10.5,22-21.1,28.3c-8.6,5.1-18.4,7.3-28.2,6.3C1883.4,1177.2,1881.1,1176.8,1878.9,1176.3
						z M1857.3,1123.2c-2.2,8.8-0.9,17.9,3.8,25.7c4.6,7.8,12,13.3,20.8,15.5l0,0c8.8,2.2,17.9,0.9,25.7-3.8
						c7.8-4.6,13.3-12,15.5-20.8c4.6-18.1-6.5-36.6-24.6-41.2c-1.6-0.4-3.3-0.7-4.9-0.9C1877.1,1096.1,1861.4,1106.7,1857.3,1123.2z
						"/>
					<linearGradient id="SVGID_81_" gradientUnits="userSpaceOnUse" x1="1774.6677" y1="1130.7961" x2="2004.4701" y2="1130.7961">
						<stop  offset="0" style="stop-color:#DAE3FE"/>
						<stop  offset="1" style="stop-color:#E9EFFD"/>
					</linearGradient>
					<path fill="url(#SVGID_81_)" d="M1877.9,1245.1c3.8,0.4,7.7,0.6,11.7,0.6c7.8,0,15.7-0.8,23.3-2.4c0.3-0.1,0.7-0.1,1-0.2
						c2.7-0.6,4.5-2.8,4.8-5.3c0.1-0.6,0-1.3-0.1-1.9c-0.7-3.3-4-5.4-7.2-4.7c-7.1,1.5-14.4,2.3-21.7,2.3l0,0c-0.4,0-0.8,0-1.2,0
						c-17.3-0.2-33.9-4.6-48.6-12.8c-8-4.4-15.4-10-22.1-16.6c-0.1-0.1-0.1-0.1-0.2-0.2c-0.2-0.2-0.3-0.3-0.5-0.5
						c-19.4-19.4-30.1-45.2-30.1-72.6c0-3.6,0.2-7.1,0.5-10.6c2.4-23.4,12.7-45.2,29.5-62.1c19.4-19.4,45.2-30.1,72.6-30.1
						c27.4,0,53.2,10.7,72.6,30.1c19.4,19.4,30.1,45.2,30.1,72.6c0,3.5-0.2,7-0.5,10.4c-1.5,15-6.3,29.4-14,42.3
						c-0.5,0.8-0.8,1.7-0.8,2.5c-0.2,2.3,0.8,4.6,2.9,5.8c2.9,1.7,6.6,0.8,8.4-2.1c8.7-14.4,14-30.6,15.7-47.3
						c0.4-3.9,0.6-7.8,0.6-11.7c0-30.7-12-59.5-33.7-81.2c-21.7-21.7-50.5-33.7-81.2-33.6c-30.7,0-59.5,12-81.2,33.7
						c-18.9,18.9-30.4,43.2-33.1,69.4c-0.4,3.9-0.6,7.8-0.6,11.8C1774.7,1190.2,1820,1239.2,1877.9,1245.1z"/>
				</g>
			</g>
		</g>
	</g>
	<g>
	</g>
	<g>
	</g>
	<g>
	</g>
	<g>
	</g>
	<g>
	</g>
	<g>
	</g>
	<g>
	</g>
	<g>
	</g>
	<g>
	</g>
	<g>
	</g>
	<g>
	</g>
	<g>
	</g>
	<g>
	</g>
	<g>
	</g>
	<g>
	</g>
</g>
</svg>
